<?xml version="1.0" encoding="utf-8"?>
<!-- Generator: Adobe Illustrator 22.0.0, SVG Export Plug-In . SVG Version: 6.00 Build 0)  -->
<svg version="1.1" id="圖層_1" xmlns="http://www.w3.org/2000/svg" xmlns:xlink="http://www.w3.org/1999/xlink" x="0px" y="0px"
	 viewBox="0 0 32.1 32.8" style="enable-background:new 0 0 32.1 32.8;" xml:space="preserve">
<style type="text/css">
	.st0{fill:#606060;}
</style>
<g>
	<g>
		<path class="st0" d="M8.8,19.9c2.6,0,5.1,0,7.6,0c3.2,0,6.4-0.1,9.6-0.2c1.4,0,1.8-0.4,2-1.8c0.6-3.4,1.1-6.8,1.6-10.2
			c0-0.3,0-0.5,0.1-0.9c-0.4,0-0.8,0-1.2,0c-5.8,0-11.7,0-17.5,0c-0.3,0-0.6,0.1-0.8,0C9.9,6.5,9.7,6.2,9.4,5.9
			c0.3-0.3,0.6-0.7,0.9-0.8c1.3-0.1,2.5,0,3.8,0c5.4,0,10.8,0,16.2,0c1.1,0,1.4,0.3,1.2,1.4c-0.6,3.9-1.3,7.9-1.9,11.8
			c-0.3,1.8-1.3,2.8-3.2,2.8c-5.2,0.1-10.4,0.3-15.6,0.4c-0.5,0-1.1,0-1.6,0C9,23,9.1,23.2,10.4,23.2c5.4,0,10.7,0,16.1,0
			c0.3,0,0.6-0.1,0.8,0.1c0.3,0.2,0.7,0.5,0.6,0.7c-0.1,0.3-0.4,0.5-0.7,0.7c-0.1,0.1-0.4,0-0.6,0c-5.8,0-11.6,0-17.4,0
			c-1,0-1.3-0.3-1.5-1.3C6.8,17.6,5.9,11.7,4.9,5.9C4.6,3.8,3.7,3,1.6,3C1,3,0.4,2.9,0.4,2.2c0-0.7,0.6-0.8,1.1-0.8
			c2.6-0.1,4.4,1.3,4.8,3.8c0.8,4.8,1.6,9.6,2.3,14.4C8.7,19.7,8.8,19.8,8.8,19.9z"/>
		<path class="st0" d="M27,25.3c-0.1,0-0.2,0-0.2,0c0,0-0.1,0-0.1,0l-4.4,0c-4.3,0-8.6,0-12.9,0c0,0,0,0,0,0c-1.2,0-1.8-0.5-2-1.7
			C6.5,18.8,5.7,14,5,9.2L4.4,5.9c-0.3-1.8-1-2.4-2.9-2.5c-0.5,0-1.7,0-1.6-1.3c0-0.8,0.5-1.3,1.6-1.3c2.8-0.1,4.9,1.5,5.3,4.2
			c0.6,3.3,1.1,6.7,1.6,10l0.7,4.2l2,0c1.8,0,3.5,0,5.2,0c2.6,0,5.3-0.1,7.9-0.2l1.6,0c1.2,0,1.4-0.2,1.5-1.4
			c0.6-3.4,1.1-6.8,1.6-10.2c0-0.1,0-0.2,0-0.3L11,7.2c-0.1,0-0.1,0-0.2,0c-0.2,0-0.5,0-0.8-0.1C9.7,7,9.5,6.8,9.3,6.5
			C9.2,6.5,9.1,6.4,9,6.3L8.6,5.9L9,5.6c0.1-0.1,0.2-0.2,0.2-0.3c0.3-0.3,0.6-0.6,1-0.6c1-0.1,1.9-0.1,2.9-0.1l1,0
			c5.4,0,10.8,0,16.2,0c0.5,0,1.1,0.1,1.5,0.5c0.3,0.4,0.3,1,0.2,1.5L30,18.4c-0.3,2.1-1.6,3.2-3.6,3.2c-4.2,0.1-8.4,0.2-12.6,0.3
			l-3,0.1c-0.4,0-0.7,0-1.1,0h0c0,0.3-0.1,0.5,0,0.6c0,0,0.2,0.1,0.8,0.1l16.1,0c0.1,0,0.1,0,0.2,0c0.3,0,0.6,0,0.9,0.1
			c0.1,0.1,1,0.6,0.8,1.3c-0.1,0.5-0.6,0.8-0.9,1.1C27.3,25.3,27.1,25.3,27,25.3z M16.5,24.2c1.9,0,3.8,0,5.6,0l4.4,0
			c0.1,0,0.1,0,0.2,0c0.1,0,0.1,0,0.2,0c0,0,0.3-0.2,0.4-0.3c-0.1-0.1-0.2-0.2-0.3-0.3c0,0-0.2,0-0.3,0c-0.1,0-0.2,0-0.2,0l-16.1,0
			c-0.7,0-1.2,0-1.5-0.4c-0.3-0.4-0.3-1-0.1-1.8L8.8,21l0.9,0c0.4,0,0.7,0,1.1,0l3-0.1c4.2-0.1,8.4-0.2,12.6-0.3
			c1.6,0,2.4-0.8,2.7-2.4L31,6.4c0.1-0.6,0-0.7,0-0.7c0,0-0.1-0.1-0.7-0.1c-5.4,0-10.8,0-16.2,0l-1,0c-0.9,0-1.9,0-2.8,0.1
			c0,0-0.2,0.1-0.2,0.2c0.1,0.1,0.3,0.2,0.4,0.3c0,0,0.2,0,0.3,0c0.1,0,0.2,0,0.3,0l19.2,0l0,0.9c0,0.2,0,0.4,0,0.6
			c-0.5,3.4-1.1,6.8-1.6,10.2c-0.3,1.7-0.8,2.2-2.5,2.2l-1.6,0c-2.7,0.1-5.3,0.1-8,0.2c-1.7,0-3.5,0-5.3,0l-2.8,0l-0.1-0.5
			c0-0.1,0-0.2-0.1-0.3l-0.7-4.3C7,12,6.4,8.6,5.9,5.3C5.5,3,3.9,1.8,1.6,1.9C0.9,1.9,0.9,2,0.9,2.2c0,0.2,0,0.2,0.7,0.3
			c2.4,0,3.5,1,3.9,3.3L6,9.1c0.8,4.8,1.5,9.6,2.3,14.3c0.1,0.7,0.3,0.9,1,0.9C11.7,24.2,14.1,24.2,16.5,24.2z"/>
	</g>
	<g>
		<path class="st0" d="M27.5,29.3c0,1.6-1.2,2.8-2.7,2.8c-1.5,0-2.8-1.2-2.8-2.8c0-1.5,1.2-2.7,2.7-2.8
			C26.2,26.5,27.5,27.7,27.5,29.3z M26,29.3c-0.1-0.7-0.5-1.2-1.2-1.1c-0.7,0-1.2,0.5-1.2,1.2c0,0.7,0.4,1.2,1.2,1.2
			C25.5,30.5,25.9,30,26,29.3z"/>
		<path class="st0" d="M24.8,32.6c-0.9,0-1.7-0.3-2.3-1c-0.6-0.6-1-1.4-1-2.3c0-1.8,1.4-3.2,3.2-3.3c0.9,0,1.7,0.3,2.4,0.9
			c0.6,0.6,1,1.4,1,2.3l0,0c0,0.9-0.3,1.7-0.9,2.4C26.5,32.2,25.7,32.6,24.8,32.6C24.8,32.6,24.8,32.6,24.8,32.6z M24.8,27.1
			C24.7,27.1,24.7,27.1,24.8,27.1c-1.3,0-2.3,1.1-2.3,2.3c0,0.6,0.2,1.2,0.7,1.6c0.4,0.4,1,0.7,1.6,0.7c0.6,0,1.2-0.2,1.6-0.7
			c0.4-0.4,0.6-1,0.6-1.6l0,0c0-0.6-0.3-1.2-0.7-1.6C25.9,27.3,25.3,27.1,24.8,27.1z M24.8,31L24.8,31c-1,0-1.7-0.7-1.7-1.7
			c0-1,0.7-1.7,1.7-1.7c0,0,0,0,0,0c0.9,0,1.5,0.6,1.7,1.6l0,0.1l0,0.1C26.3,30.4,25.7,31,24.8,31z M24.8,28.6
			C24.8,28.6,24.8,28.6,24.8,28.6c-0.5,0-0.7,0.2-0.7,0.7c0,0.5,0.2,0.7,0.7,0.7c0.3,0,0.6-0.1,0.7-0.7
			C25.4,28.7,25.1,28.6,24.8,28.6z"/>
	</g>
	<g>
		<path class="st0" d="M7.3,29.3c0-1.5,1.3-2.8,2.8-2.7c1.5,0,2.7,1.3,2.7,2.8c0,1.5-1.3,2.8-2.8,2.8C8.5,32.1,7.3,30.8,7.3,29.3z
			 M10.2,30.6c0.7-0.1,1.1-0.5,1.1-1.3c0-0.7-0.5-1.2-1.2-1.2c-0.7,0-1.2,0.5-1.1,1.2C8.9,30.1,9.4,30.5,10.2,30.6z"/>
		<path class="st0" d="M10.1,32.6C10.1,32.6,10.1,32.6,10.1,32.6c-0.9,0-1.7-0.4-2.3-1c-0.6-0.6-0.9-1.5-0.9-2.3l0,0
			c0-1.8,1.5-3.2,3.3-3.2c0,0,0,0,0,0c1.7,0,3.2,1.5,3.2,3.3c0,0.9-0.3,1.7-1,2.3C11.8,32.3,11,32.6,10.1,32.6z M7.8,29.3
			c0,0.6,0.2,1.2,0.6,1.6c0.4,0.4,1,0.7,1.6,0.7c0.6,0,1.2-0.2,1.6-0.7c0.4-0.4,0.7-1,0.7-1.6c0-1.2-1-2.3-2.2-2.3
			C8.8,27,7.8,28,7.8,29.3L7.8,29.3z M10.2,31.1L10.2,31.1c-1.5-0.2-1.8-1.1-1.8-1.7c0-1,0.6-1.7,1.6-1.8c0.5,0,0.9,0.1,1.2,0.4
			c0.3,0.3,0.5,0.7,0.5,1.2C11.8,30.2,11.3,30.9,10.2,31.1L10.2,31.1z M10.1,28.6C10.1,28.6,10.1,28.6,10.1,28.6
			c-0.5,0-0.7,0.3-0.7,0.7c0,0.3,0.1,0.6,0.8,0.7c0.7-0.2,0.6-0.6,0.6-0.7c0-0.2,0-0.4-0.2-0.5C10.5,28.7,10.3,28.6,10.1,28.6z"/>
	</g>
</g>
</svg>
