<?xml version="1.0" encoding="utf-8"?>
<!-- Generator: Adobe Illustrator 22.0.0, SVG Export Plug-In . SVG Version: 6.00 Build 0)  -->
<svg version="1.1" id="圖層_1" xmlns="http://www.w3.org/2000/svg" xmlns:xlink="http://www.w3.org/1999/xlink" x="0px" y="0px"
	 viewBox="0 0 38 28.5" style="enable-background:new 0 0 38 28.5;" xml:space="preserve">
<style type="text/css">
	.st0{fill:#606060;}
</style>
<path class="st0" d="M33.7,15c0.7-0.1,1.2-0.7,1.2-1.5c0-0.8-0.7-1.5-1.5-1.5c-0.8,0-1.5,0.7-1.5,1.5c0,0.8,0.6,1.4,1.3,1.5
	c-1.1,8.1-7.6,9.7-9.3,5.7c-1.8-4.3,3-5.5,3-5.5c-3.4-0.9-5.8,2.8-5.8,2.8c2.7-6.4-1.9-17.4-1.9-17.4s-4.6,11-1.9,17.4
	c0,0-1.9-4.4-5.8-2.8c0,0,5,1,3,5.5c-1.7,4-8.3,2.4-9.3-5.7c0.7-0.1,1.3-0.7,1.3-1.5C6.5,12.7,5.9,12,5,12c-0.8,0-1.5,0.7-1.5,1.5
	c0,0.7,0.5,1.3,1.2,1.5c-0.5,2.5-1.6,6.3-4.3,7.6v6h18.7h0.1H38v-6C35.3,21.3,34.2,17.5,33.7,15z M32.6,13.5c0-0.5,0.4-0.9,0.9-0.9
	c0.5,0,0.9,0.4,0.9,0.9c0,0.5-0.4,0.9-0.9,0.9C33,14.4,32.6,14,32.6,13.5z M4.1,13.5c0-0.5,0.4-0.9,0.9-0.9c0.5,0,0.9,0.4,0.9,0.9
	c0,0.5-0.4,0.9-0.9,0.9C4.5,14.4,4.1,14,4.1,13.5z M1.7,24.2c0.2-1.2,1.8-1.6,3.1-1.6c2.7-0.2,5.3,0.5,5.4,0.4
	c0.1,0,2.7,0.6,5.2,1.5c0.6,0.2,1.2,0.5,1.8,0.6c0.6,0.1,1.1-0.4,1-0.8c-0.3-1-1.3-0.4-1.2-0.5c0,0,0,0,0,0c0,0,0,0,0,0
	c0.1-0.1,1-0.5,1.4,0.5c0.2,0.6-0.5,1.2-1.1,1.1c-0.7-0.1-1.3-0.3-1.9-0.5c-2.5-0.8-5.1-1.3-5.2-1.3c-0.1,0-2.7-0.6-5.3-0.5
	c-1.3,0-2.7,0.4-2.9,1.4c-0.1,1,0.8,1.1,0.8,1.1C2.7,25.4,1.6,25.4,1.7,24.2z M4.5,24.4c-0.1,0.2-0.4,0.3-0.7,0.1
	c-0.3-0.1-0.5-0.4-0.4-0.6c0.1-0.2,0.4-0.3,0.7-0.1C4.4,23.9,4.6,24.1,4.5,24.4z M5.9,24.9c-0.1,0.2-0.4,0.3-0.8,0.2
	c-0.3-0.1-0.6-0.4-0.5-0.7c0.1-0.2,0.4-0.3,0.8-0.2C5.7,24.3,5.9,24.6,5.9,24.9z M7.4,25.3c-0.1,0.3-0.5,0.4-0.8,0.3
	c-0.4-0.1-0.7-0.4-0.6-0.7c0.1-0.3,0.5-0.4,0.8-0.3C7.2,24.7,7.5,25,7.4,25.3z M9.2,25.6C9.1,26,8.7,26.1,8.2,26
	c-0.4-0.1-0.7-0.4-0.7-0.7c0.1-0.3,0.5-0.5,0.9-0.4C8.9,25,9.2,25.3,9.2,25.6z M11.1,26c-0.1,0.3-0.5,0.6-1,0.5S9.3,26,9.3,25.7
	c0.1-0.3,0.5-0.6,1-0.5C10.8,25.3,11.2,25.6,11.1,26z M12.2,26.8c-0.6-0.1-1-0.5-0.9-0.8c0.1-0.4,0.5-0.6,1.1-0.6
	c0.6,0.1,1,0.5,0.9,0.8C13.3,26.6,12.8,26.9,12.2,26.8z M14.5,27.2c-0.6-0.1-1.1-0.5-1.1-0.9c0-0.4,0.6-0.7,1.2-0.7
	c0.6,0.1,1.1,0.5,1.1,0.9C15.7,26.9,15.1,27.2,14.5,27.2z M17.2,27.4c-0.7,0-1.3-0.4-1.3-0.9c0-0.5,0.6-0.9,1.3-0.9s1.3,0.4,1.3,0.9
	C18.4,27,17.9,27.4,17.2,27.4z M19.3,24l-1.7-3.5l1.7-1.7l1.7,1.7L19.3,24z M21,27.4c-0.7,0-1.3-0.4-1.3-0.9c0-0.5,0.6-0.9,1.3-0.9
	s1.3,0.4,1.3,0.9C22.3,27,21.7,27.4,21,27.4z M23.7,27.2c-0.6,0.1-1.2-0.3-1.2-0.7c0-0.4,0.4-0.8,1.1-0.9c0.6-0.1,1.2,0.3,1.2,0.7
	C24.8,26.7,24.3,27.1,23.7,27.2z M26,26.8c-0.6,0.1-1.1-0.2-1.1-0.6c-0.1-0.4,0.4-0.8,0.9-0.8c0.6-0.1,1.1,0.2,1.1,0.6
	C27,26.4,26.6,26.7,26,26.8z M28.1,26.5c-0.5,0.1-1-0.1-1-0.5c-0.1-0.3,0.3-0.7,0.8-0.8c0.5-0.1,1,0.1,1,0.5
	C28.9,26,28.6,26.4,28.1,26.5z M30,26c-0.4,0.1-0.9-0.1-0.9-0.4c-0.1-0.3,0.2-0.6,0.7-0.7c0.4-0.1,0.9,0.1,0.9,0.4
	C30.7,25.6,30.4,25.9,30,26z M31.6,25.6c-0.4,0.1-0.8,0-0.8-0.3c-0.1-0.3,0.2-0.6,0.6-0.7c0.4-0.1,0.8,0,0.8,0.3
	C32.3,25.2,32,25.5,31.6,25.6z M33.1,25.1c-0.3,0.1-0.7,0-0.8-0.2c-0.1-0.2,0.1-0.5,0.5-0.7c0.3-0.1,0.7,0,0.8,0.2
	C33.7,24.7,33.5,25,33.1,25.1z M34.4,24.5c-0.3,0.1-0.6,0.1-0.7-0.1c-0.1-0.2,0.1-0.5,0.4-0.6c0.3-0.1,0.6-0.1,0.7,0.1
	C34.9,24.1,34.7,24.3,34.4,24.5z M35.6,25.3c0.1,0,0.9-0.1,0.8-1.1c-0.2-1-1.7-1.4-2.9-1.4c-2.6-0.1-5.2,0.6-5.3,0.5
	c-0.1,0-2.7,0.5-5.2,1.3c-0.6,0.2-1.2,0.5-1.9,0.5c-0.7,0.1-1.3-0.5-1.1-1.1c0.4-1,1.3-0.6,1.4-0.5c0,0,0,0,0,0c0,0,0,0,0,0
	c0.1,0.1-0.9-0.5-1.2,0.5c-0.1,0.5,0.4,0.9,1,0.8c0.6-0.1,1.2-0.4,1.8-0.6c2.5-0.9,5.1-1.5,5.2-1.5c0.1,0,2.7-0.6,5.4-0.4
	c1.3,0.1,2.9,0.5,3.1,1.6C36.6,25.4,35.5,25.4,35.6,25.3z"/>
</svg>
