<?xml version="1.0" encoding="utf-8"?>
<!-- Generator: Adobe Illustrator 22.0.0, SVG Export Plug-In . SVG Version: 6.00 Build 0)  -->
<svg version="1.1" id="圖層_1" xmlns="http://www.w3.org/2000/svg" xmlns:xlink="http://www.w3.org/1999/xlink" x="0px" y="0px"
	 viewBox="0 0 177.9 82.8" style="enable-background:new 0 0 177.9 82.8;" xml:space="preserve">
<style type="text/css">
	.st0{enable-background:new    ;}
	.st1{fill:#E8AA67;}
	.st2{fill:none;stroke:#E8AA67;stroke-width:1.565;stroke-miterlimit:10;}
</style>
<g>
	<g>
		<g class="st0">
			<path class="st1" d="M34.9,18.4l-0.8,1c-1.2-1.2-2.7-2.3-4.4-3.5l0.8-1C32,15.8,33.5,17,34.9,18.4z M35.1,22.7
				c-1.5,3.5-3,6-4.3,7.7l-1.1-0.7c1.5-2,2.9-4.5,4.3-7.7L35.1,22.7z M35.1,12.3l-0.9,1c-0.9-1.2-2.1-2.5-3.7-3.8l0.9-0.9
				C32.9,9.8,34.2,11,35.1,12.3z M51.5,12h-3.4v3.4h-3.9v2h6.5v11.3c0,0.4-0.2,0.8-0.5,1.1c-0.3,0.3-0.9,0.5-1.8,0.5h-1.3l-0.5-1.3
				l2.3,0c0.4,0,0.6-0.2,0.6-0.5v-9.8h-5.3v11.6h-1.2V18.8h-5.4v11.6h-1.2V17.5h6.6v-2h-3.8V12h-3.4v-1.2h3.4V8.6h1.3v2.2h6.5V8.6
				h1.3v2.2h3.4V12z M42.5,27.1l-0.9,0.9c-0.5-1-1-2-1.2-3c-0.4,1.1-0.9,2.1-1.5,2.9L38,27.2c1-1.5,1.7-3.3,2-5.5h-1.3v-1.2h2.2
				C41,23.2,41.5,25.4,42.5,27.1z M46.8,14.3V12h-6.5v2.2H46.8z M49,27l-0.8,0.9c-0.6-0.9-1.1-2.1-1.4-3.3c-0.5,1.5-0.9,2.6-1.4,3.4
				L44.5,27c0.8-1.5,1.4-3.3,1.8-5.4h-1.1v-1.2h2.1C47.3,23.1,47.9,25.3,49,27z"/>
			<path class="st1" d="M67.5,31.9h-1.3v-2.8c-1.9,0-3.4-0.4-4.5-1.1v-2.2c0.5,0.4,1.2,0.8,2.1,1.1c0.9,0.3,1.7,0.5,2.4,0.4v-6.9
				c-2-1-3.2-1.8-3.8-2.6c-0.5-0.8-0.8-1.7-0.8-2.7c0-1.2,0.4-2.3,1.3-3.3c0.9-1,2-1.5,3.3-1.7V7.8h1.3v2.3c1.7,0,2.9,0.3,3.5,0.7
				V13c-0.9-0.7-2-1.1-3.5-1.1V19c1.6,0.8,2.8,1.6,3.6,2.4s1.1,1.7,1.1,2.9c0,1.3-0.4,2.3-1.3,3.2c-0.8,0.8-2,1.4-3.4,1.6V31.9z
				 M66.1,12c-0.8,0.2-1.4,0.5-1.8,1c-0.4,0.5-0.6,1.1-0.6,1.9c0,0.7,0.1,1.3,0.4,1.8c0.3,0.5,1,1,2,1.6V12z M67.5,27.3
				c1.7-0.4,2.6-1.3,2.6-2.8c0-1.2-0.9-2.3-2.6-3.3V27.3z"/>
			<path class="st1" d="M75.6,26.2c1.3,1,2.8,1.5,4.4,1.5c1.3,0,2.4-0.3,3.2-1c0.8-0.7,1.2-1.6,1.2-2.7c0-2.5-1.8-3.8-5.3-3.8h-1.6
				v-1.7H79c3.2,0,4.7-1.2,4.7-3.5c0-2.2-1.2-3.3-3.6-3.3c-1.3,0-2.6,0.5-3.8,1.4v-2c1.2-0.7,2.6-1.1,4.3-1.1c1.5,0,2.7,0.4,3.7,1.2
				c1,0.8,1.5,1.9,1.5,3.3c0,2.5-1.3,4.1-3.8,4.8v0c1.3,0.1,2.4,0.6,3.2,1.4c0.8,0.8,1.2,1.9,1.2,3.1c0,1.7-0.6,3.1-1.9,4.1
				c-1.2,1-2.8,1.5-4.8,1.5c-1.8,0-3.2-0.3-4.3-1V26.2z"/>
			<path class="st1" d="M89.6,20.1c0-3.3,0.5-5.9,1.6-7.6c1.1-1.7,2.7-2.6,4.7-2.6c3.9,0,5.9,3.2,5.9,9.7c0,3.1-0.5,5.6-1.6,7.3
				s-2.7,2.6-4.7,2.6c-1.9,0-3.4-0.8-4.4-2.5C90.1,25.3,89.6,23,89.6,20.1z M91.6,19.9c0,5.2,1.4,7.8,4.1,7.8c2.7,0,4-2.6,4-7.9
				c0-5.5-1.3-8.2-3.9-8.2C93,11.6,91.6,14.4,91.6,19.9z"/>
			<path class="st1" d="M104.1,20.1c0-3.3,0.5-5.9,1.6-7.6c1.1-1.7,2.7-2.6,4.7-2.6c3.9,0,5.9,3.2,5.9,9.7c0,3.1-0.5,5.6-1.6,7.3
				s-2.7,2.6-4.7,2.6c-1.9,0-3.4-0.8-4.4-2.5C104.6,25.3,104.1,23,104.1,20.1z M106.2,19.9c0,5.2,1.4,7.8,4.1,7.8c2.7,0,4-2.6,4-7.9
				c0-5.5-1.3-8.2-3.9-8.2C107.5,11.6,106.2,14.4,106.2,19.9z"/>
			<path class="st1" d="M118.6,20.1c0-3.3,0.5-5.9,1.6-7.6s2.7-2.6,4.7-2.6c3.9,0,5.9,3.2,5.9,9.7c0,3.1-0.5,5.6-1.6,7.3
				s-2.7,2.6-4.7,2.6c-1.9,0-3.4-0.8-4.4-2.5C119.1,25.3,118.6,23,118.6,20.1z M120.7,19.9c0,5.2,1.4,7.8,4.1,7.8c2.7,0,4-2.6,4-7.9
				c0-5.5-1.3-8.2-3.9-8.2C122.1,11.6,120.7,14.4,120.7,19.9z"/>
			<path class="st1" d="M161.7,23.9c0,1.1-0.2,2.3-0.4,3.5c-0.3,1.2-0.6,2-1.2,2.3c-0.5,0.3-1.6,0.5-3.3,0.5c-1.1,0-1.9,0-2.5-0.1
				c-0.5-0.1-0.9-0.2-1.2-0.6s-0.4-0.8-0.4-1.3V17.7h-4.6c-0.1,3.2-0.7,5.8-1.7,7.8c-1,2-2.9,3.6-5.5,5l-0.9-1.1
				c1.9-0.8,3.5-2.1,4.7-3.7c1.3-1.6,2-4.3,2-8h-6.3v-1.3h21v1.3h-7.3v10.3c0,0.3,0.2,0.5,0.5,0.6s0.9,0.2,1.7,0.2
				c1.6,0,2.5,0,2.7-0.1c0.2-0.1,0.4-0.2,0.6-0.4s0.4-0.8,0.5-1.9c0.2-1,0.2-2.1,0.2-3.1L161.7,23.9z M159.4,10.4h-17.2V9.1h17.2
				V10.4z"/>
		</g>
		<g class="st0">
			<path class="st1" d="M51.6,44.7h-2.8v18.4c0,0.5-0.2,1-0.6,1.2s-0.9,0.4-1.4,0.4c-2.2,0-3.7,0-4.5,0l-0.5-1.4
				c1,0.1,2.6,0.1,4.8,0.1c0.5,0,0.8-0.3,0.8-0.8v-18H29.8v-1.3h21.8V44.7z M43.1,59H32.5V48.9h10.6V59z M41.8,57.7v-7.5h-8v7.5
				H41.8z"/>
			<path class="st1" d="M76.6,60.2h-9.7v2.8c0,0.5-0.2,0.9-0.5,1.1c-0.3,0.3-0.7,0.4-1.2,0.4h-3.8l-0.6-1.3h4.1
				c0.2,0,0.3-0.1,0.5-0.2s0.2-0.3,0.2-0.5v-2.4H54.8V59h10.8v-1.3c2-0.5,3.7-1,5.1-1.6H56.4v-1.2h17.4v1.2
				c-2.1,0.8-4.4,1.6-6.9,2.4V59h9.7V60.2z M76.3,46.3H54.9V45H65c-0.3-0.5-0.7-1.1-1.3-1.8l1.2-0.6c0.5,0.6,1.1,1.4,1.7,2.4h9.7
				V46.3z M73.8,52.9H57.6v-4.7h16.2V52.9z M72.5,51.6v-2.2H58.9v2.2H72.5z"/>
			<path class="st1" d="M101.8,60c-0.2,1.8-0.4,2.9-0.7,3.3s-0.6,0.7-1,0.8c-0.4,0.2-1.6,0.3-3.5,0.3c-2.3,0-3.7-0.1-4.1-0.4
				s-0.7-0.8-0.7-1.6v-5.7h-1c-0.5,2.1-1.7,3.9-3.7,5.4c-2,1.5-4.2,2.4-6.8,2.8l-0.6-1.2c5.2-0.9,8.5-3.2,9.8-7h-7v-6.5
				c-0.5,0.3-1.2,0.7-2,1.2l-0.8-1.1c3-1.6,5.8-4.1,8.3-7.5l1.3,0.5C89,44,88.5,44.7,88,45.2h7.9v1.3c-1.4,1.6-2.4,2.6-3,3.2h6.5v7
				h-6.1v5.7c0,0.3,0.1,0.5,0.3,0.6c0.2,0.1,1.2,0.2,2.9,0.2c1.6,0,2.6,0,2.9-0.1c0.3-0.1,0.6-0.4,0.7-1.1s0.3-1.5,0.3-2.5L101.8,60
				z M94.2,46.5h-7.3c-1.1,1.1-2.3,2.2-3.6,3.2h7.7C92.3,48.5,93.3,47.4,94.2,46.5z M90.4,51H84v4.4h5.9
				C90.1,54.3,90.3,52.8,90.4,51z M98.1,55.5V51h-6.4c-0.1,1.7-0.2,3.2-0.5,4.4H98.1z"/>
			<path class="st1" d="M127,63.1l-0.4,1.2h-9.4c-3.9,0-6.7-0.9-8.5-2.8c-0.8,1.3-1.8,2.4-2.8,3.4l-1-0.9c2.5-2.2,4.1-4.9,4.7-8.3
				h-4.1v-1c1.4-1.8,2.6-3.6,3.8-5.4h-4.3v-1.2h5.8v1.2c-1.1,1.8-2.4,3.5-3.7,5.2h3.8v1.2c-0.4,1.8-0.9,3.3-1.6,4.6
				c0.8,0.9,1.8,1.6,3,2s3,0.7,5.2,0.7H127z M110,46.4l-0.9,0.9c-0.9-1.1-2-2.3-3.4-3.6l0.8-1C107.7,43.8,108.9,45,110,46.4z
				 M126.5,59.8h-6.8v2.3h-1.2v-2.3h-6.7v-1.1h6.7v-1.9h-5.5V50h5.5v-2h-4.2v-1h4.2v-1.5h1.2V47h4.3v1h-4.3v2h5.5v6.8h-5.5v1.9h6.8
				V59.8z M125.9,47.6h-1.2v-2.8h-11.3v2.8h-1.2v-4h13.8V47.6z M118.4,52.9v-1.8h-4.2v1.8H118.4z M118.4,55.8V54h-4.2v1.8H118.4z
				 M123.9,52.9v-1.8h-4.3v1.8H123.9z M123.9,55.8V54h-4.3v1.8H123.9z"/>
			<path class="st1" d="M136.3,61.1h-1.3V60h-3.2v2.2h-1.3V44.3h5.8V61.1z M135.1,58.7V45.6h-3.2v13.1H135.1z M151.8,64.3h-12.2
				v-1.2h5.5v-2.9h-4.6V59h4.6v-2.2c-2,0.2-3.3,0.3-3.9,0.4l-0.2-1c1.3-1.2,2.3-2.5,3-4.1h-4.1c0,5.9-1.1,10.2-3.1,12.9l-1-0.9
				c1.1-1.5,1.9-3.2,2.3-5.2c0.4-2,0.6-4.6,0.6-7.9v-7.4h12.3v5.2h-11.1v2.1h11.9v1.2h-6.5c-0.7,1.5-1.6,2.8-2.7,3.8
				c2-0.2,4.2-0.5,6.4-0.9c-0.4-0.5-0.7-1-1.1-1.5l1-0.7c1.1,1.2,2,2.6,2.7,3.9l-1.1,0.6c-0.3-0.5-0.5-1-0.7-1.3
				c-1.5,0.2-2.6,0.4-3.5,0.5V59h4.4v1.2h-4.4v2.9h5.5V64.3z M149.6,47.6v-2.8h-9.7v2.8H149.6z"/>
		</g>
	</g>
	<path class="st2" d="M3.3,80.4c0,0,72-13.6,172.2-7.3"/>
	<path class="st1" d="M3.5,81.2l-0.3-1.5c0.7-0.1,73.2-13.5,172.3-7.3l-0.1,1.6C76.5,67.7,4.2,81.1,3.5,81.2z"/>
</g>
</svg>
