<?xml version="1.0" encoding="utf-8"?>
<!-- Generator: Adobe Illustrator 16.0.0, SVG Export Plug-In . SVG Version: 6.00 Build 0)  -->
<!DOCTYPE svg PUBLIC "-//W3C//DTD SVG 1.1//EN" "http://www.w3.org/Graphics/SVG/1.1/DTD/svg11.dtd">
<svg version="1.1" id="圖層_1" xmlns="http://www.w3.org/2000/svg" xmlns:xlink="http://www.w3.org/1999/xlink" x="0px" y="0px"
	 width="150px" height="60px" viewBox="0 0 150 60" enable-background="new 0 0 150 60" xml:space="preserve">
<g>
	<g>
		<path fill-rule="evenodd" clip-rule="evenodd" fill="#FFFFFF" d="M32.212,20.365c-1.115,6.076-3.43,10.869-6.674,16.004
			l0.598,0.682c2.906-2.396,5.644-5.218,7.524-8.385l3.596,5.477l2.826-3.338l-5.389-4.022c1.022-1.624,2.736-4.707,3.677-6.418
			H32.212z"/>
		<path fill-rule="evenodd" clip-rule="evenodd" fill="#FFFFFF" d="M54.883,20.365c-0.599,3.254-2.224,8.131-5.986,12.321
			c0.426,0.346,0.598,0.517,1.025,0.944c1.715-1.286,5.394-4.535,6.675-6.25c1.023,1.456,4.62,5.651,4.62,5.651l2.82-2.826
			l-6.158-4.535c1.197-1.71,2.056-3.937,2.821-5.306H54.883z"/>
		<path fill-rule="evenodd" clip-rule="evenodd" fill="#FFFFFF" d="M42.474,36.452V51c1.89,0,4.88-0.341,4.88-3.849
			c0-5.394,0-6.847,0-12.238c1.543,2.737,13.521,13.349,13.78,13.091l3.594-5.476c-4.193-1.452-7.962-1.711-14.123-6.93
			l-3.251-2.996V18.567h14.803V17.37H47.354v-6.846h-4.88v6.846H27.76v1.198h14.714c0,3.083,0,8.215,0,10.699
			c0,1.198-7.615,11.038-17.793,18.055l0.684,0.341C31.779,45.183,37.512,41.246,42.474,36.452z"/>
	</g>
	<g>
		<path fill-rule="evenodd" clip-rule="evenodd" fill="#FFFFFF" d="M92.277,45.095c-0.85-0.258-1.885-0.512-2.739-1.027V35.17h3.771
			v-1.027h-3.771v-7.274h3.771v-1.282H89.37v-6.25h3.596v-1.196H89.37v-7.53h-4.535v7.53h-5.218v1.196h5.218v6.25h-6.158v1.282
			h6.158v15.147c-0.084-0.088-3.255-1.798-2.821-2.91c0.683-2.055,1.964-8.472,1.797-8.472h-5.227c0,3.508-0.083,5.305-0.252,7.786
			c-0.089,2.055-0.255,3.851-0.431,5.22c-0.258,1.795-0.599,3.763-1.022,5.902l0.34,0.345c1.541-2.567,2.057-3.595,3.254-6.333
			c0.252-0.599,0.851-1.968,1.107-2.909c1.283,2.223,3.68,4.107,5.651,5.306c1.365,0.77,6.499,2.821,10.611,3.591
			c6.499,1.198,8.896,1.286,16.597,1.457c0,0,4.534-2.226,6.763-6.247c-3.425,1.199-9.153,2.14-14.887,2.14
			C101.092,46.893,96.044,46.123,92.277,45.095z"/>
		<path fill-rule="evenodd" clip-rule="evenodd" fill="#FFFFFF" d="M118.29,23.274l0.433-5.133h-10.957v-4.022h2.228v-1.198h-7.79
			v1.198h1.282v4.022h-1.282v1.196h1.282v5.394h-1.282v1.198h1.282v8.385c-0.084,0-0.508,0.087-1.282,0.341v2.655
			c0.518-0.342,1.031-0.6,1.282-0.858v9.242h4.28V19.337h6.249c-0.085,1.627-0.425,6.421-0.771,8.389
			c-1.195-1.115-2.568-2.226-4.025-3.425l-0.424,0.514c1.54,2.224,2.821,4.28,3.852,6.076c-0.348,1.968-0.772,3.764-1.288,5.478
			c-0.683,2.139-1.45,4.36-2.563,6.587l0.424,0.599c2.14-2.139,4.025-4.707,5.478-7.786c0.091-0.087,0.091-0.258,0.174-0.345
			c0.425,1.027,0.601,1.116,1.281,3.254c0.343,1.198,0.343,0.854,0.343,0.854h5.136c-2.31-4.791-4.104-6.93-5.136-8.47
			C117.267,28.579,118.032,25.671,118.29,23.274z M102.203,12.921h-7.957v1.198h2.396v21.734c-1.029,0.171-2.137,0.343-3.078,0.429
			l1.964,4.964c0,0,4.277-2.397,6.675-3.937v-2.655c-0.341,0.087-0.764,0.171-1.281,0.258v-8.984h1.281V24.73h-1.281v-5.394h1.281
			v-1.196h-1.281v-4.022h1.281V12.921z"/>
	</g>
	<path fill-rule="evenodd" clip-rule="evenodd" fill="#FFFFFF" d="M126.938,0c1.365,0,2.822,0.429,4.104,1.111
		c1.372,0.77,2.396,1.797,3.171,3.167c0.765,1.285,1.106,2.738,1.106,4.194c0,1.452-0.342,2.821-1.106,4.19
		c-0.691,1.286-1.715,2.397-3.088,3.083c-1.365,0.77-2.738,1.111-4.188,1.111l0,0v-1.37l0,0c1.198,0,2.395-0.34,3.505-0.94
		c1.115-0.599,1.972-1.456,2.571-2.566c0.599-1.111,0.94-2.31,0.94-3.508s-0.342-2.397-0.94-3.508
		c-0.69-1.116-1.541-1.968-2.654-2.655c-1.116-0.6-2.224-0.854-3.422-0.854l0,0V0L126.938,0L126.938,0z M126.938,9.754
		c0.343,0.344,0.766,0.942,1.281,1.885l0.858,1.452h1.798l-1.115-1.797c-0.517-0.77-1.025-1.369-1.373-1.794
		c-0.168-0.174-0.425-0.345-0.767-0.428c0.767-0.087,1.457-0.343,1.881-0.857c0.516-0.512,0.683-1.028,0.683-1.711
		c0-0.514-0.084-0.94-0.424-1.369c-0.259-0.341-0.599-0.686-1.116-0.857c-0.341-0.083-0.94-0.171-1.706-0.256v1.283
		c0.425,0,0.683,0.086,0.85,0.086c0.258,0.171,0.516,0.342,0.691,0.513c0.082,0.258,0.165,0.429,0.165,0.682
		c0,0.429-0.165,0.772-0.425,1.028c-0.257,0.17-0.682,0.342-1.281,0.342V9.754z M126.938,16.857c-1.456,0-2.828-0.341-4.193-1.111
		c-1.374-0.687-2.396-1.798-3.08-3.083c-0.69-1.369-1.115-2.738-1.115-4.19c0-1.457,0.425-2.909,1.115-4.194
		c0.766-1.37,1.798-2.397,3.163-3.167C124.109,0.429,125.481,0,126.938,0v1.456c-1.198,0-2.313,0.254-3.428,0.854
		c-1.107,0.687-2.048,1.539-2.646,2.655c-0.599,1.111-0.945,2.31-0.945,3.508s0.347,2.397,0.945,3.508
		c0.599,1.11,1.447,1.968,2.563,2.566c1.115,0.6,2.313,0.94,3.512,0.94V16.857L126.938,16.857z M126.938,4.022
		c-0.175,0-0.346,0-0.6,0h-3.082v9.069h1.452V9.242h0.857c0.516,0,0.94,0.084,1.197,0.342c0,0,0.082,0.087,0.175,0.17V7.957
		c-0.175,0-0.346,0-0.432,0h-1.798V5.305h1.63c0.254,0,0.425,0,0.6,0V4.022z"/>
</g>
</svg>
