<?xml version="1.0" encoding="utf-8"?>
<!-- Generator: Adobe Illustrator 22.0.0, SVG Export Plug-In . SVG Version: 6.00 Build 0)  -->
<svg version="1.1" id="圖層_1" xmlns="http://www.w3.org/2000/svg" xmlns:xlink="http://www.w3.org/1999/xlink" x="0px" y="0px"
	 viewBox="0 0 793 379" style="enable-background:new 0 0 793 379;" xml:space="preserve">
<style type="text/css">
	.st0{fill:#FFFFFF;}
</style>
<path class="st0" d="M36.7,282.6c-0.9,5-5.4,7.6-13.4,7.8c-2.3,0-4.2-0.2-5.6-0.5c-1.4-0.4-2.1-0.6-2.1-0.8l0.8-4.7l0,0
	c0,0,0.2,0.2,0.7,0.6c0.5,0.4,1.3,0.7,2.2,1.1c1,0.3,2.2,0.5,3.6,0.5c2.3,0,4-0.5,5-1.4c1-0.9,1.7-2.3,2-4.1l3.7-21.3h6.9
	L36.7,282.6L36.7,282.6z M52.4,280.4c-0.1,1.1,0,2.6,0.4,4.3c0.4,1.8,1.5,2.7,3.3,2.8c2.2,0,4-0.3,5.4-0.9c1.4-0.6,2.3-1,2.7-1.4
	l-1.6,3.8c0,0.2-0.7,0.5-2.1,0.9c-1.3,0.4-3,0.6-4.9,0.6c-0.8,0-1.4,0-1.8-0.1c-3.1-0.2-5.3-1.1-6.5-2.7c-1.2-1.6-1.5-4.2-0.9-7.7
	c0.7-4,2.1-7,4.1-8.9c2-1.9,4.6-2.8,7.9-2.9c3.9,0,6.3,1,7.4,3.1c0.9,1.7,1.1,4,0.6,6.9c-0.1,0.5-0.2,1-0.3,1.4
	c-0.1,0.4-0.2,0.6-0.2,0.8H52.4L52.4,280.4z M58.5,271c-3,0.1-4.9,2.3-5.6,6.5h9.5C63.1,273.1,61.8,271,58.5,271L58.5,271z
	 M85.2,290.2l0.4-2.3c-0.2,0.4-0.9,0.9-2,1.5c-1.1,0.6-2.8,0.9-5.1,0.9c-2-0.1-3.5-0.6-4.7-1.5c-1.2-1-1.6-2.4-1.2-4.5
	c0.4-2.2,1.5-3.8,3.2-4.9c1.8-1.1,4.2-1.8,7.4-2c1.5-0.1,2.6-0.5,3.5-1.1c0.9-0.6,1.4-1.3,1.5-2.1c0.1-0.8-0.1-1.5-0.7-2
	c-0.6-0.6-1.5-0.8-2.8-0.8c-2.5,0-4.6,0.5-6.1,1.4c-1.6,0.9-2.6,1.7-3.2,2.3l1.7-4.3c0-0.1,0.4-0.3,1.1-0.7c0.7-0.4,1.7-0.8,3-1.1
	c1.2-0.3,2.7-0.5,4.4-0.5c3.4,0,5.7,0.6,7,1.7c1.3,1.1,1.8,2.6,1.5,4.5l-2.8,15.6L85.2,290.2L85.2,290.2z M82.8,286.8
	c2.1-0.5,3.2-1.4,3.5-2.6l0.9-5c0,0-0.1,0.2-0.3,0.5c-0.2,0.3-0.5,0.5-1.1,0.8c-0.5,0.3-1.3,0.5-2.3,0.6c-1.7,0.2-3.1,0.6-4.1,1.1
	c-1,0.5-1.6,1.4-1.8,2.7c-0.1,1.5,0.9,2.2,3.2,2.2C81.4,287.1,82.1,287,82.8,286.8L82.8,286.8z M122,273.4l-3,16.8h-4.6l2.8-16
	c0.3-1.8-0.9-2.8-3.7-2.8c-1.4,0.2-2.4,0.6-3.2,1.3c-0.7,0.7-1.2,1.3-1.4,1.7l-2.8,15.8h-6.2l3.8-21.8h6.1l-0.3,1.8
	c0.1-0.1,0.4-0.2,1-0.6c0.5-0.3,1.3-0.6,2.3-0.9c1-0.3,2-0.4,3.2-0.4c2.3,0,3.8,0.5,4.7,1.6C121.9,270.8,122.2,272,122,273.4
	L122,273.4z M159.4,288.5c0,0.2-0.9,0.6-2.6,1.1c-1.7,0.5-3.6,0.8-5.9,0.8c-5.3,0-8.7-1.3-10.3-4c-1.6-2.7-1.9-6.9-0.9-12.5
	c0.6-3.1,1.6-5.6,2.8-7.7c1.2-2.1,2.9-3.7,5-4.9c2.1-1.2,4.8-1.8,8-1.8c1.9,0,3.6,0.1,5.1,0.4c1.5,0.3,2.5,0.5,3.2,0.8l0.4,5.2
	c-0.5-0.4-1.4-0.9-2.8-1.5c-1.4-0.6-3.1-0.9-5.1-0.9c-2.8,0-4.9,1-6.2,3c-1.3,2-2.2,4.5-2.8,7.4c-0.4,2.3-0.6,4.3-0.7,6.1
	c0,1.7,0.3,3.2,0.9,4.5c0.7,1.2,1.9,1.9,3.5,2c2,0,3.7-0.2,5.1-0.6c1.4-0.4,2.5-0.8,3.3-1.3c0.7-0.4,1.1-0.7,1.1-0.7c0,0,0,0,0,0
	L159.4,288.5L159.4,288.5z M174.9,284c-0.2,0.9,0,1.7,0.6,2.3c0.6,0.6,1.3,0.9,2.3,0.9c1.6,0,2.8-0.4,3.7-1.2
	c0.8-0.7,1.3-1.3,1.6-1.8l2.8-15.8h4.6l-3.8,21.8H182l0.4-2c-0.5,0.4-1.5,0.8-2.9,1.3c-1.5,0.5-3.4,0.8-5.9,0.8
	c-1.8-0.1-3.1-0.6-4-1.6c-0.9-1-1.2-2.5-0.8-4.4l2.8-15.8h6.2L174.9,284L174.9,284z M195.8,290.2l5.4-30.5h6l-5.4,30.5H195.8
	L195.8,290.2z M223.4,271.1l-2.2,12.6c-0.2,1.3,0,2.1,0.6,2.7c0.5,0.4,1.4,0.6,2.9,0.6l-0.5,3.1c-0.1,0-0.4,0-0.7,0
	c-0.3,0-0.7,0-1.2,0c-2.8,0-4.8-0.5-5.9-1.4c-1.4-1.1-1.8-2.8-1.4-5.3l2.2-12.4h-4.1l0.5-2.8h4.1l1.5-8.7h6.2l-1.5,8.7h4.1l-0.5,2.8
	H223.4L223.4,271.1z M239,284c-0.2,0.9,0,1.7,0.6,2.3c0.6,0.6,1.3,0.9,2.3,0.9c1.6,0,2.8-0.4,3.7-1.2c0.8-0.7,1.3-1.3,1.6-1.8
	l2.8-15.8h4.6l-3.8,21.8H246l0.4-2c-0.5,0.4-1.5,0.8-2.9,1.3c-1.5,0.5-3.4,0.8-5.9,0.8c-1.8-0.1-3.1-0.6-4-1.6
	c-0.9-1-1.2-2.5-0.8-4.4l2.8-15.8h6.2L239,284L239,284z M259.7,290.2l3.8-21.8h6.2l-0.5,2.7c0,0,0.2-0.2,0.5-0.5
	c0.3-0.3,0.7-0.6,1.2-0.9c0.5-0.3,1.2-0.6,2-0.9c0.9-0.4,2-0.5,3.3-0.5c1,0,1.6,0,1.9,0.1l0,3.1c-0.7-0.2-1.4-0.3-2-0.3
	c-1.4,0-2.6,0.3-3.7,0.8c-1.1,0.5-2.1,1.2-2.8,2.1c-0.7,0.9-1.2,1.7-1.3,2.5l-2.4,13.4L259.7,290.2L259.7,290.2z M295.6,290.2
	l0.4-2.3c-0.2,0.4-0.9,0.9-2,1.5c-1.1,0.6-2.8,0.9-5.1,0.9c-2-0.1-3.5-0.6-4.7-1.5c-1.2-1-1.6-2.4-1.2-4.5c0.4-2.2,1.5-3.8,3.2-4.9
	c1.8-1.1,4.2-1.8,7.4-2c1.5-0.1,2.6-0.5,3.5-1.1c0.9-0.6,1.4-1.3,1.5-2.1c0.1-0.8-0.1-1.5-0.7-2c-0.6-0.6-1.5-0.8-2.8-0.8
	c-2.5,0-4.6,0.5-6.1,1.4c-1.6,0.9-2.6,1.7-3.2,2.3l1.7-4.3c0-0.1,0.4-0.3,1.1-0.7c0.7-0.4,1.7-0.8,3-1.1c1.2-0.3,2.7-0.5,4.4-0.5
	c3.4,0,5.7,0.6,7,1.7c1.3,1.1,1.8,2.6,1.5,4.5l-2.8,15.6L295.6,290.2L295.6,290.2z M293.2,286.8c2.1-0.5,3.2-1.4,3.5-2.6l0.9-5
	c0,0-0.1,0.2-0.3,0.5c-0.2,0.3-0.5,0.5-1.1,0.8c-0.5,0.3-1.3,0.5-2.3,0.6c-1.7,0.2-3.1,0.6-4.1,1.1c-1,0.5-1.6,1.4-1.8,2.7
	c-0.1,1.5,0.9,2.2,3.2,2.2C291.7,287.1,292.4,287,293.2,286.8L293.2,286.8z M310.6,290.2l5.4-30.5h6l-5.4,30.5H310.6L310.6,290.2z
	 M366.6,290.2h-8.5l-2-2.6c-0.1,0.1-0.4,0.3-0.8,0.6c-0.4,0.3-1.1,0.7-1.9,1.1c-0.8,0.4-1.9,0.7-3.2,1c-1.3,0.3-2.8,0.4-4.6,0.4
	c-1,0-1.7,0-2.2-0.1c-5.4-0.4-7.6-3.5-6.5-9.2c0.3-1.7,1.4-3.3,3.1-4.7c1.7-1.5,3.4-2.6,5-3.4c0,0-0.2-0.3-0.5-0.8
	c-0.3-0.5-0.6-1-0.8-1.3c-1-1.6-1.3-3.6-0.9-5.9c0.3-1.1,0.9-2.1,1.8-3.1c1-1,2.1-1.8,3.5-2.4c1.4-0.6,2.7-0.9,4-0.9
	c2.6,0,4.6,0.6,6.1,1.7c1.5,1.1,2.1,2.7,1.7,4.8c-0.4,2-1.4,3.6-3.1,4.8c-1.7,1.2-3.1,2-4.1,2.4l6.8,9.1c1.1-0.9,1.9-1.9,2.3-3
	c0.3-0.6,0.4-1.2,0.5-1.8c0.1-0.7,0.1-1.3,0-2h2.7c0,1.2,0,2-0.1,2.4c-0.1,0.8-0.4,1.5-0.7,2.3c-0.5,1-1.1,1.9-1.9,2.7
	c-0.7,0.8-1.2,1.2-1.3,1.3L366.6,290.2L366.6,290.2z M351.1,270c0.4,0,1.3-0.5,2.8-1.5c1.5-1,2.4-2.2,2.6-3.5c0.2-1.1-0.1-2-0.8-2.6
	c-0.7-0.7-1.8-1-3.2-1c-0.8,0-1.6,0.4-2.3,1.2c-0.7,0.8-1.1,1.6-1.3,2.4c-0.2,1,0.1,2,0.7,3L351.1,270L351.1,270z M346.4,275.5
	c-0.1,0-0.4,0.2-0.8,0.5c-0.4,0.3-0.9,0.7-1.3,1.2c-0.4,0.5-0.7,1.2-0.8,2c-0.3,1.7,0.1,3.3,1.2,4.9c1.1,1.6,2.6,2.6,4.5,3
	c1,0,1.9-0.1,2.5-0.4c0.7-0.2,1.4-0.6,2.3-1.1L346.4,275.5L346.4,275.5z M406.2,288.5c0,0.2-0.9,0.6-2.5,1.1
	c-1.7,0.5-3.6,0.8-5.9,0.8c-5.3,0-8.7-1.3-10.3-4c-1.6-2.7-1.9-6.9-0.9-12.5c0.6-3.1,1.6-5.6,2.8-7.7c1.2-2.1,2.9-3.7,5-4.9
	c2.1-1.2,4.8-1.8,8-1.8c1.9,0,3.6,0.1,5.1,0.4c1.5,0.3,2.5,0.5,3.2,0.8l0.4,5.2c-0.5-0.4-1.4-0.9-2.8-1.5c-1.4-0.6-3.1-0.9-5.1-0.9
	c-2.8,0-4.9,1-6.2,3c-1.3,2-2.2,4.5-2.8,7.4c-0.4,2.3-0.6,4.3-0.7,6.1c0,1.7,0.3,3.2,0.9,4.5c0.7,1.2,1.9,1.9,3.5,2
	c2,0,3.7-0.2,5.1-0.6c1.4-0.4,2.5-0.8,3.3-1.3c0.7-0.4,1.1-0.7,1.1-0.7c0,0,0,0,0,0L406.2,288.5L406.2,288.5z M414.5,290.2l3.8-21.8
	h6.2l-0.5,2.7c0,0,0.2-0.2,0.5-0.5c0.3-0.3,0.7-0.6,1.2-0.9c0.5-0.3,1.2-0.6,2-0.9c0.9-0.4,2-0.5,3.3-0.5c1,0,1.6,0,1.9,0.1l0,3.1
	c-0.7-0.2-1.4-0.3-2-0.3c-1.4,0-2.6,0.3-3.7,0.8c-1.1,0.5-2.1,1.2-2.8,2.1c-0.7,0.9-1.2,1.7-1.3,2.5l-2.4,13.4L414.5,290.2
	L414.5,290.2z M444.6,280.4c-0.1,1.1,0,2.6,0.4,4.3c0.4,1.8,1.5,2.7,3.3,2.8c2.2,0,4-0.3,5.4-0.9c1.4-0.6,2.3-1,2.7-1.4l-1.6,3.8
	c0,0.2-0.7,0.5-2.1,0.9c-1.3,0.4-3,0.6-4.9,0.6c-0.8,0-1.4,0-1.8-0.1c-3.1-0.2-5.3-1.1-6.5-2.7c-1.2-1.6-1.5-4.2-0.9-7.7
	c0.7-4,2.1-7,4.1-8.9c2-1.9,4.6-2.8,7.9-2.9c3.9,0,6.3,1,7.4,3.1c0.9,1.7,1.1,4,0.6,6.9c-0.1,0.5-0.2,1-0.3,1.4
	c-0.1,0.4-0.2,0.6-0.2,0.8H444.6L444.6,280.4z M450.7,271c-3,0.1-4.9,2.3-5.6,6.5h9.5C455.4,273.1,454.1,271,450.7,271L450.7,271z
	 M477.5,290.2l0.4-2.3c-0.2,0.4-0.9,0.9-2,1.5c-1.1,0.6-2.8,0.9-5.1,0.9c-2-0.1-3.5-0.6-4.7-1.5c-1.2-1-1.6-2.4-1.2-4.5
	c0.4-2.2,1.5-3.8,3.2-4.9c1.8-1.1,4.2-1.8,7.4-2c1.5-0.1,2.6-0.5,3.5-1.1c0.9-0.6,1.4-1.3,1.5-2.1c0.1-0.8-0.1-1.5-0.7-2
	c-0.6-0.6-1.5-0.8-2.8-0.8c-2.5,0-4.6,0.5-6.1,1.4c-1.6,0.9-2.6,1.7-3.2,2.3l1.7-4.3c0-0.1,0.4-0.3,1.1-0.7c0.7-0.4,1.7-0.8,3-1.1
	c1.2-0.3,2.7-0.5,4.4-0.5c3.4,0,5.7,0.6,7,1.7c1.3,1.1,1.8,2.6,1.5,4.5l-2.8,15.6L477.5,290.2L477.5,290.2z M475.1,286.8
	c2.1-0.5,3.2-1.4,3.5-2.6l0.9-5c0,0-0.1,0.2-0.3,0.5c-0.2,0.3-0.5,0.5-1.1,0.8c-0.5,0.3-1.3,0.5-2.3,0.6c-1.7,0.2-3.1,0.6-4.1,1.1
	c-1,0.5-1.6,1.4-1.8,2.7c-0.1,1.5,0.9,2.2,3.2,2.2C473.6,287.1,474.3,287,475.1,286.8L475.1,286.8z M504.9,271.1l-2.2,12.6
	c-0.2,1.3,0,2.1,0.6,2.7c0.4,0.4,1.4,0.6,2.9,0.6l-0.5,3.1c-0.1,0-0.4,0-0.7,0c-0.3,0-0.7,0-1.1,0c-2.8,0-4.8-0.5-5.9-1.4
	c-1.4-1.1-1.8-2.8-1.4-5.3l2.2-12.4h-4.1l0.5-2.8h4.1l1.5-8.7h6.2l-1.5,8.7h4.1l-0.5,2.8H504.9L504.9,271.1z M513.3,290.2l3.8-21.8
	h6.1l-3.8,21.8H513.3L513.3,290.2z M521.8,259.6c1.1,0,1.9,0.3,2.4,1c0.5,0.7,0.7,1.5,0.5,2.4c-0.2,1-0.6,1.8-1.4,2.5
	c-0.7,0.7-1.7,1-2.8,1c-1.1,0-1.8-0.4-2.4-1c-0.5-0.7-0.7-1.5-0.5-2.4c0.2-0.9,0.6-1.8,1.4-2.5C519.7,260,520.7,259.6,521.8,259.6
	L521.8,259.6z M536.6,291.1l-6.1-22.7h6l3.2,11.7l7.2-11.7h3.7L536.6,291.1L536.6,291.1z M561.4,280.4c-0.1,1.1,0,2.6,0.4,4.3
	c0.4,1.8,1.5,2.7,3.3,2.8c2.2,0,4-0.3,5.4-0.9c1.4-0.6,2.3-1,2.7-1.4l-1.6,3.8c0,0.2-0.7,0.5-2.1,0.9c-1.3,0.4-3,0.6-4.9,0.6
	c-0.8,0-1.4,0-1.8-0.1c-3.1-0.2-5.3-1.1-6.5-2.7c-1.2-1.6-1.5-4.2-0.9-7.7c0.7-4,2.1-7,4.1-8.9c2-1.9,4.6-2.8,7.9-2.9
	c3.9,0,6.3,1,7.4,3.1c0.9,1.7,1.1,4,0.6,6.9c-0.1,0.5-0.2,1-0.3,1.4c-0.1,0.4-0.2,0.6-0.2,0.8H561.4L561.4,280.4z M567.5,271
	c-3,0.1-4.9,2.3-5.6,6.5h9.5C572.2,273.1,570.8,271,567.5,271L567.5,271z M612.7,288.5c0,0.2-0.9,0.6-2.5,1.1
	c-1.7,0.5-3.6,0.8-5.9,0.8c-5.3,0-8.7-1.3-10.3-4c-1.6-2.7-1.9-6.9-0.9-12.5c0.6-3.1,1.6-5.6,2.8-7.7c1.2-2.1,2.9-3.7,5-4.9
	c2.1-1.2,4.8-1.8,8-1.8c1.9,0,3.6,0.1,5.1,0.4c1.5,0.3,2.5,0.5,3.2,0.8l0.4,5.2c-0.5-0.4-1.4-0.9-2.8-1.5c-1.4-0.6-3.1-0.9-5.1-0.9
	c-2.8,0-4.9,1-6.2,3c-1.3,2-2.2,4.5-2.8,7.4c-0.4,2.3-0.6,4.3-0.7,6.1s0.3,3.2,0.9,4.5c0.7,1.2,1.9,1.9,3.5,2c2,0,3.7-0.2,5.1-0.6
	c1.4-0.4,2.5-0.8,3.3-1.3c0.7-0.4,1.1-0.7,1.1-0.7c0,0,0,0,0,0L612.7,288.5L612.7,288.5z M634.7,268.2c2.5,0,4.5,0.4,5.9,1.2
	c1.4,0.8,2.2,2,2.6,3.6c0.4,1.6,0.4,3.6-0.1,6.1c-0.7,3.9-2,6.7-3.9,8.5c-2,1.8-4.8,2.7-8.5,2.7c-3.5,0-5.9-0.9-7.3-2.7
	c-1.4-1.8-1.7-4.6-1-8.4C623.7,271.9,627.8,268.2,634.7,268.2L634.7,268.2z M628.5,279.2c-0.3,1.9-0.4,3.3-0.4,4.3
	c0,1,0.2,1.9,0.7,2.6c0.5,0.8,1.4,1.2,2.7,1.2c1.8,0,3.1-0.7,3.8-2.1c0.7-1.4,1.3-3.4,1.8-5.9c0.4-2.5,0.5-4.5,0.3-5.9
	c-0.2-1.4-1.3-2.2-3.1-2.2c-1.9,0.1-3.2,0.8-4,2.2C629.5,274.8,628.9,276.8,628.5,279.2L628.5,279.2z M656.9,290.2H650l1.1-6.3h6.9
	L656.9,290.2L656.9,290.2z M667.7,283.9h7.1l-1.1,6.3c-0.4,2.5-1.4,4.4-3,5.8c-1,0.9-2,1.6-3.1,2.1c-1.1,0.5-2,0.9-2.5,1.1l0.7-3.7
	c0.2-0.1,0.6-0.3,1-0.5c0.5-0.2,0.9-0.5,1.4-0.8c0.7-0.5,1.1-1.3,1.3-2.5l0.3-1.5h-3.1L667.7,283.9L667.7,283.9z M700.8,286.4h14.8
	l-0.7,3.8h-21.7l5.4-30.5h6.9L700.8,286.4L700.8,286.4z M735,271.1l-2.2,12.6c-0.2,1.3,0,2.1,0.7,2.7c0.4,0.4,1.4,0.6,2.9,0.6
	l-0.5,3.1c-0.1,0-0.4,0-0.7,0c-0.3,0-0.7,0-1.1,0c-2.8,0-4.8-0.5-5.9-1.4c-1.4-1.1-1.8-2.8-1.4-5.3l2.2-12.4h-4.1l0.5-2.8h4.1
	l1.5-8.7h6.1l-1.5,8.7h4.1l-0.5,2.8H735L735,271.1z M768.2,259.7l-5.4,30.5h-6.1l0.2-1.3c-0.3,0.2-0.8,0.5-1.7,0.9
	c-0.9,0.4-2,0.5-3.5,0.5c-1.7,0-3.1-0.3-4.4-0.9c-1.2-0.6-2.2-1.7-2.7-3.4c-0.6-1.7-0.6-4.1,0-7.3c0.8-4.3,2.1-7.1,3.9-8.4
	c1.8-1.4,3.9-2,6.4-2c2.3,0,4.1,0.4,5.4,1.1l1.7-9.7H768.2L768.2,259.7z M757.6,285.5l2.3-13.2c0-0.1-0.3-0.3-0.9-0.7
	c-0.6-0.3-1.5-0.5-2.6-0.6c-2.2,0-3.7,0.7-4.7,2c-1,1.3-1.7,3.2-2.1,5.6c-0.3,2-0.5,3.6-0.3,4.8c0.1,1.3,0.5,2.2,1.2,2.9
	c0.7,0.6,1.7,1,3.1,1c1-0.1,1.9-0.4,2.7-0.8C757.1,286,757.5,285.7,757.6,285.5L757.6,285.5z M779.6,290.2h-6.9l1.1-6.3h6.9
	L779.6,290.2L779.6,290.2z"/>
<path class="st0" d="M721.8,226.2l5.5-31.2c0.2-0.9-0.3-1.3-1.2-1.4H679c-0.8,0-1.4,0.5-1.6,1.4l-5.5,31.2c-0.2,1.1,0.2,1.6,1.1,1.6
	h31.1l1.8-10.3h-22.2c-0.3,0-0.4-0.2-0.3-0.5l2.2-12.7c0.1-0.3,0.2-0.4,0.5-0.4h29.3c0.3,0,0.5,0.1,0.4,0.4
	c-1.4,7.8-2.8,15.7-4.1,23.5h8.4C721,227.7,721.6,227.2,721.8,226.2L721.8,226.2z M731.8,145.8H678c-2.3,0-3.7,1.2-4.1,3.6
	c-4.5,25.4-6.9,52.3-21.7,74.2l8.8,4.8c8.5-11.5,13.6-28.4,16.2-42.2h47.4c2.5,0,4-1.3,4.4-3.9l5.8-32.7
	C735.2,147.1,734.2,145.9,731.8,145.8L731.8,145.8z M549.9,133.4c0.6,21,5.3,42,18.4,59c-14.5,10.2-30.5,18.5-48.1,24.9l-2.3,12.9
	c23-9.1,42.1-19.1,57.2-30.1c12.6,12.5,28.3,22.2,47.2,29.1l2.3-12.8c-41.2-15-61.5-39.2-63.2-83h52.9
	c-8.5,20.4-19.4,36.6-32.8,48.4l7.6,7.1c14.5-13.5,26.9-32,37.1-55.4h19l2.1-11.8H595l2.6-14.5h-11.4l-2.6,14.5h-43l-11.6,11.8
	L549.9,133.4L549.9,133.4z M472.6,225.3l9.3-52.8c0.2-1-0.3-1.6-1.3-1.6h-71.3l-15.9,16.2l-6.7,38.1c-0.2,1.1,0.2,1.7,1.2,1.7h82.8
	C471.8,227,472.4,226.4,472.6,225.3L472.6,225.3z M473.5,153.3l7.1-14.7h16.9l1.9-10.8H394.6l-1.9,10.8h16.7l2.7,14.7h-28l-1.9,10.8
	h117.2l1.9-10.8H473.5L473.5,153.3z M344.6,223.1l18.7-106c0.3-1.9-0.5-2.9-2.5-3h-39.5c-1.8,0-3,1-3.4,3l-18.7,106
	c-0.4,2.1,0.4,3.1,2.3,3.1h24.1l2-11.3H312c-0.3,0-0.5-0.2-0.4-0.6l15.6-88.4c0.1-0.3,0.3-0.5,0.6-0.5h22.5c0.3,0,0.5,0.2,0.5,0.5
	l-14.2,80.4l0,0l-3.5,19.9h7.9C343.1,226.2,344.3,225.2,344.6,223.1L344.6,223.1z M776.3,107.6l-18.5,104.7
	c-0.3,1.8-0.9,3.1-1.8,3.8c-2.3,1.8-8.5,1-18.7-2.5l-2.6,11.7c12.3,3.9,20.9,4.4,25.6,1.4c4.2-2.6,6.8-6.4,7.8-11.4l19-107.7H776.3
	L776.3,107.6z M752.2,116.9L738,197.1h10.9l14.1-80.2H752.2L752.2,116.9z M688.6,129.9l-1.7,9.7h40.7l1.7-9.7H688.6L688.6,129.9z
	 M410.4,120.9H487l1.9-10.8h-68L410.4,120.9L410.4,120.9z M273.1,188.5c5.4,13.2,9.7,25.2,12.9,35.9l10.8-6.1
	c-5.4-14.9-11.5-29.3-18.2-43.3c0.2-0.9,0.5-1.6,0.8-2.3h24.1l2-11.3h-23.1c1.8-10.4,3.7-20.9,5.5-31.3h20.5l2-11.3h-34.1l-2.5-14.4
	L247,142.9l1.3,7.7L267,130h10.1c-1.8,10.4-3.7,20.9-5.5,31.3h-19.4l-11.1,11.3h27.5c-5.9,16-14.8,31.1-28.7,41.4l-2.5,14.2l0,0
	C253.5,218.1,265.4,204.9,273.1,188.5L273.1,188.5z M669,125.4l38.4-17.8l-2.3,13.1l-32.8,15.1L669,125.4L669,125.4z M715.1,106.9
	l32.4,14.4l-6.3,10.8l-28.3-12.6L715.1,106.9L715.1,106.9z M462.1,153.3h-38.3l-2.7-14.7H469L462.1,153.3L462.1,153.3z M463.5,215.6
	c-0.1,0.3-0.3,0.6-0.6,0.6h-63.3c-0.3-0.1-0.4-0.3-0.3-0.6l2-11.5H458l1.9-10.8h-56.6l1.9-11c0-0.3,0.1-0.5,0.5-0.5h63.3
	c0.3,0,0.5,0.2,0.4,0.5l-1,5.8h0C466.7,197.3,465.1,206.4,463.5,215.6L463.5,215.6z M720.3,175.4c-0.2,1-0.8,1.5-1.8,1.5h-39.6
	l1.2-6.6h33.6l1.5-8.7h-33.6l0.9-5.1c0.2-1,0.8-1.6,1.8-1.6h38c1.1,0,1.5,0.5,1.4,1.6l0,0.2h0C722.5,163,721.4,169.2,720.3,175.4
	L720.3,175.4z"/>
<polygon class="st0" points="62.7,90.8 7.8,143 70,103.2 "/>
<polygon class="st0" points="78.6,97.7 70,103.2 70.8,104.5 78.1,99.8 132.6,189.1 57.5,237.4 2.1,148.5 7.8,143 0,148 57,239.5 
	134.7,189.6 "/>
<polygon class="st0" points="70.8,104.5 70,103.2 7.8,143 2.1,148.5 "/>
<polygon class="st0" points="77.6,101.9 130.6,188.7 57.9,235.3 57.1,233.9 56.3,234.6 2.1,148.5 57.5,237.4 132.6,189.1 78.1,99.8 
	70.8,104.5 71.6,105.8 "/>
<polygon class="st0" points="56.3,234.6 57.1,233.9 4.1,148.9 71.6,105.8 70.8,104.5 2.1,148.5 "/>
<path class="st0" d="M117.9,216c0,1.7-0.1,3.1-0.3,4c-0.2,1-0.8,2-1.7,3.2c-0.9,1.1-2,2-3.3,2.6c-1.3,0.6-2.7,0.9-4.3,0.9
	c-2.6,0-4.9-0.9-6.7-2.6c-1.8-1.7-2.8-3.9-2.8-6.4l3.6,0c0,1.7,0.6,3,1.8,4c1.2,1,2.7,1.6,4.5,1.6c1.2,0,2.3-0.3,3.2-0.9
	c0.9-0.6,1.5-1.3,1.8-2.2l0.5-2.4c0-0.8,0.1-1.7,0.1-2.7l0-24.6h3.6L117.9,216L117.9,216z"/>
<path class="st0" d="M150.1,214.2l-23.9,0c0,2.4,1,4.5,3.1,6.4c2.1,1.8,4.3,2.7,6.9,2.7c2,0,3.9-0.5,5.6-1.5c1.8-1,3.1-2.4,3.9-4.2
	l3.7,0c-0.9,2.6-2.6,4.8-5,6.6c-2.4,1.7-5,2.6-7.9,2.6c-3.8,0-7.1-1.3-9.8-4c-2.7-2.7-4-5.9-4-9.8c0-3.8,1.3-7.1,4-9.8
	c2.7-2.7,5.9-4,9.8-4c4,0,7.3,1.4,9.9,4.2C148.8,206,150.1,209.7,150.1,214.2L150.1,214.2z M146.5,211c-0.5-2.4-1.6-4.4-3.6-6
	c-1.9-1.6-4.1-2.5-6.5-2.5c-2.5,0-4.7,0.8-6.7,2.4c-1.9,1.6-3.1,3.6-3.6,6.1L146.5,211L146.5,211z"/>
<path class="st0" d="M181.2,226.2l-3.4,0l0-5c-1,1.8-2.4,3.2-4.2,4.1c-1.9,1-3.9,1.4-6.1,1.4c-2.1,0-4.1-0.5-6.1-1.4
	c-2-0.9-3.6-2-4.7-3.3c-1.1-1.3-2-2.7-2.5-4.3c-0.6-1.6-0.9-3.3-0.9-5c0-1.8,0.3-3.4,1-5c0.7-1.6,1.6-3,2.9-4.3
	c1.3-1.3,2.8-2.4,4.4-3.2c1.7-0.8,3.6-1.2,5.8-1.2c2.2,0,4.2,0.5,6.1,1.4c1.9,1,3.2,2.4,4.2,4.2l0.1-5.1l3.4,0l0,24.7L181.2,226.2
	L181.2,226.2z M177.8,213.1c0-2.9-1-5.4-3-7.5c-2-2-4.4-3.1-7.4-3.1c-2.9,0-5.4,1-7.5,3.1c-2.1,2-3.1,4.5-3.1,7.4
	c0,2.9,1.1,5.3,3.2,7.3c2.1,2,4.6,3,7.5,3c2.7,0,5.1-1,7.2-3C176.8,218.3,177.8,215.9,177.8,213.1L177.8,213.1z"/>
<path class="st0" d="M209.6,226.2H206l0-13.9c0-1.7-0.1-3-0.4-3.9c-0.3-0.9-0.9-2.1-2-3.5s-3.1-2.2-6-2.2c-1.3,0-2.5,0.3-3.7,0.8
	c-1.1,0.6-2.1,1.3-2.7,2.2c-0.7,0.9-1.1,1.9-1.3,2.9c-0.2,1-0.2,2.3-0.2,3.7l0,13.9l-3.6,0l0-26.4h3.4l0,3.9c2.1-3,4.8-4.4,8.2-4.4
	c1.8,0,3.6,0.4,5.2,1.1c1.6,0.8,2.9,1.8,4,3.1c1.1,1.3,1.8,2.7,2.1,4.1c0.4,1.4,0.5,3,0.5,4.8L209.6,226.2L209.6,226.2z"/>
<path class="st0" d="M94.8,192.8l30.4-69.4c8.4,10,14.2,8,26.3,16.8c20.9,19.4-12.3,35.8-16.9,14l-2.9,0.8
	c6.3,23.9,41,12.4,29.7-12.5c-7.5-15.7-21.8-17-26.3-33.1c-0.3-1.9-0.6-3.4-1-4.6l0,0c-1.2-5.3-4.8-7.1-4.8-7.1l-35,78.5
	c-4.9-9.7-17.7-15.1-30.7-12.4c-14.9,3.1-24.5,15.5-21.6,27.8c3,12.3,17.4,19.8,32.3,16.7C84,206.1,91.5,200.2,94.8,192.8
	L94.8,192.8L94.8,192.8z"/>
</svg>
