<svg id="圖層_1" data-name="圖層 1" xmlns="http://www.w3.org/2000/svg" viewBox="0 0 32.22 32.75"><defs><style>.cls-1{fill:#e8aa67;}.cls-2{fill:none;stroke:#e8aa67;stroke-miterlimit:10;}</style></defs><title>buyitems</title><path class="cls-1" d="M14.4,22.49c0,1.21,0,2.41,0,3.61,0,.41-.05.87-.58.89s-.62-.44-.62-.85c0-2.52,0-5,0-7.55,0-.42.11-.88.63-.84s.57.49.57.91C14.4,19.94,14.4,21.21,14.4,22.49Z"/><path class="cls-1" d="M16.69,22.39V18.67c0-.42.07-.89.56-.92s.65.49.65.94c0,2.44,0,4.89,0,7.33,0,.44,0,1-.61,1s-.59-.54-.6-1C16.68,24.8,16.69,23.6,16.69,22.39Z"/><path class="cls-1" d="M10.84,26.22c0,.38-.07.76-.54.79s-.58-.28-.63-.63c-.39-2.59-.75-5.19-1.12-7.79-.06-.4,0-.77.48-.84s.63.29.69.67C10.1,21,10.46,23.62,10.84,26.22Z"/><path class="cls-1" d="M22.09,17.78c-.72-.14-.73.56-.8,1-.18,1.26-.62,3.43-.79,4.69.26-.09,1-.66,1.43-.71.19-1.27.37-2.55.56-3.83C22.55,18.5,22.72,17.89,22.09,17.78Z"/><path class="cls-1" d="M28.29,11.81c-1.53.06-3.07,0-4.6,0a1.22,1.22,0,0,1-1.28-.74q-2-3.66-4-7.26c-.3-.52-.45-1.67-1.34-1.17s0,1.17.3,1.69c.77,1.48,1.62,2.93,2.43,4.4.54,1,1.08,1.94,1.7,3.07H9.6l3.94-7.08c.23-.41.48-.82.68-1.25s.21-.67-.14-.87-.7,0-.91.34c-.12.18-.21.38-.32.57-1.39,2.52-2.81,5-4.18,7.56a1.22,1.22,0,0,1-1.27.74c-1.57-.05-3.14,0-4.71,0-.9,0-1.26.33-1.2,1.23s0,1.68,0,2.52c0,.39,0,.86.46.87.93,0,.93.7,1,1.32C3.61,21.17,4.25,24.57,4.81,28c.17,1.06.57,1.44,1.69,1.43,4.82-.05,9.64,0,14.46,0-.42-.22-.46-.7-.46-1.15q-6.83,0-13.66,0c-.62,0-.81-.23-.9-.77-.59-3.3-1.16-6.61-1.81-9.89-.19-1,.15-1,1-1,3.5,0,7,0,10.51,0s6.93,0,10.4,0c.8,0,1.15.07,1,1s-.4,2.1-.6,3.16c.29.52.53,1.27,1.06.82.26-1.41.51-2.82.78-4.22.05-.27-.13-.77.39-.77,1,0,1-.69,1-1.43a16.18,16.18,0,0,1,0-2C29.69,12.17,29.3,11.77,28.29,11.81Z"/><circle class="cls-2" cx="25.5" cy="26.5" r="5.5"/></svg>