<svg id="圖層_1" data-name="圖層 1" xmlns="http://www.w3.org/2000/svg" viewBox="0 0 220 78"><defs><style>.cls-1,.cls-2{fill:#e8aa67;}.cls-2,.cls-4{font-size:30.47px;font-family:MicrosoftJhengHeiBold, Microsoft JhengHei;font-weight:700;}.cls-3,.cls-4{fill:#dd9f62;}</style></defs><title>mapicon</title><path class="cls-1" d="M104.55,13.75a1.27,1.27,0,0,1,1.59-.86c.36.16.6.31.69.69a1.33,1.33,0,0,1,0,1c-.16.36-.31.6-.69.69a1.33,1.33,0,0,1-1,0c-.36-.16-.6-.31-.69-.69Zm0,4.26a2.14,2.14,0,0,0,.86.21,4.21,4.21,0,0,0,2.17-.42,4.39,4.39,0,0,0,2-2.32,4.19,4.19,0,0,0-.22-3,4.4,4.4,0,0,0-2.32-2A4.11,4.11,0,0,0,101.86,13a4.19,4.19,0,0,0,.22,3A5.13,5.13,0,0,0,104.53,18Z"/><path class="cls-1" d="M53.29,9.08l-.92.42L52,8.58a1.35,1.35,0,1,0-2.38,1.28l.42.92-.92.42A1.27,1.27,0,0,0,48.53,13a.94.94,0,0,0,.94.72,1.76,1.76,0,0,0,.77-.18l.92-.42.42.92a1.49,1.49,0,0,0,1.06.73,1.79,1.79,0,0,0,.77-.18,1.27,1.27,0,0,0,.55-1.83l-.42-.92.92-.42A1.27,1.27,0,0,0,55,9.62,1.21,1.21,0,0,0,53.29,9.08Z"/><path class="cls-1" d="M65.76,14a22.14,22.14,0,0,1-5-1.1A1.4,1.4,0,0,0,60,15.6a33.47,33.47,0,0,0,5.54,1.14h0A1.37,1.37,0,0,0,65.76,14Z"/><path class="cls-1" d="M76.4,10.23A10.17,10.17,0,0,1,73,12.93a13.84,13.84,0,0,1-1.44.62,1.43,1.43,0,0,0-.92,1.8,1.5,1.5,0,0,0,1.16,1,.75.75,0,0,0,.51-.08,6.64,6.64,0,0,0,1.7-.72,15.21,15.21,0,0,0,4.19-3.25,1.25,1.25,0,0,0-.07-1.89C77.83,9.62,77,9.66,76.4,10.23Z"/><path class="cls-1" d="M87.19,2.21a7.58,7.58,0,0,0-2.92.36,10.52,10.52,0,0,0-3.87,2.52,1.52,1.52,0,0,0-.06,2,1.35,1.35,0,0,0,.83.45,1.14,1.14,0,0,0,1-.4A8.88,8.88,0,0,1,85,5.27a8.14,8.14,0,0,1,1.91-.32,1.38,1.38,0,0,0,.26-2.74Z"/><path class="cls-1" d="M92.09,4.8a1.47,1.47,0,0,0,.57,1.93,27.86,27.86,0,0,1,4.59,3.19,1.79,1.79,0,0,0,.72.32,1.31,1.31,0,0,0,1.18-.52,1.37,1.37,0,0,0-.2-1.9,32.4,32.4,0,0,0-5.08-3.36A1.17,1.17,0,0,0,92.09,4.8Z"/><path class="cls-1" d="M82.14,65.44l-26.2,9.42L29.53,65.24c-.13,0-.4-.13-.53-.13a.8.8,0,0,0-.53.14L2.8,74.54,2.62,29.65l13.3-4.71v.13c.13.13.13.26.27.4l.4.8c.13.13.13.27.27.4l.4.8c.13.13.13.27.27.4a2.88,2.88,0,0,0,.4.66c.13.13.13.27.27.4s.27.4.4.66.13.27.27.4.27.4.4.66.13.27.27.4.27.4.4.67.13.27.27.4.27.4.4.66.13.27.27.27a1.81,1.81,0,0,0,.4.53c0,.13.13.13.13.27a1.86,1.86,0,0,0,.4.53l.13.13c.13.13.27.4.4.53l.13.13c.13.13.27.4.4.53h0l.4.4h0c.27.4.54.66.54.8a1.3,1.3,0,0,0,1.2.53,2.38,2.38,0,0,0,1.2-.54l.4-.4.13-.13.26-.27.13-.13c.13-.13.13-.27.27-.4s.13-.14.13-.27.27-.27.27-.4.13-.27.27-.4a1.84,1.84,0,0,0,.4-.53c.13-.13.13-.27.27-.4a1.84,1.84,0,0,0,.4-.53c.13-.13.27-.27.27-.4s.27-.4.4-.54.26-.4.4-.53.27-.4.4-.54.26-.4.4-.53.26-.4.4-.67.26-.4.4-.53.27-.4.4-.67.27-.4.4-.67.26-.4.4-.67.27-.4.4-.67.27-.4.4-.67.26-.4.4-.67.26-.4.4-.67.26-.4.4-.67a2.93,2.93,0,0,1,.4-.67c.13-.27.27-.4.26-.67v-.13l19.74,7.12a1.13,1.13,0,0,0,.93,0L82,20.29ZM25,2.66a9.66,9.66,0,0,1,7.2,3h0a9.87,9.87,0,0,1,3.09,7.18,19,19,0,0,1-2,7.33A81.28,81.28,0,0,1,25.15,33.7a5.67,5.67,0,0,1-.67-.93,73.81,73.81,0,0,1-6.57-10.5c-2-3.86-3-7-3-9.45A10.12,10.12,0,0,1,25,2.66ZM84.22,17.35a1.23,1.23,0,0,0-1.33-.13L55.76,27.05,36.68,20.2a19.58,19.58,0,0,0,1.57-7.06,12.87,12.87,0,0,0-3.9-9.31,13.18,13.18,0,0,0-22.47,9.41c0,2.53,1,5.59,2.57,9.31L.62,27.26A1.6,1.6,0,0,0-.31,28.6l.19,47.95a1.4,1.4,0,0,0,.67,1.2,1.91,1.91,0,0,0,.8.26.8.8,0,0,0,.53-.14L29,68.18,55.42,77.8a1.13,1.13,0,0,0,.93,0L84,67.83a1.61,1.61,0,0,0,.93-1.34l-.19-47.95A1.08,1.08,0,0,0,84.22,17.35Z"/><path class="cls-1" d="M25.06,10.39A1.6,1.6,0,1,1,23.47,12,1.84,1.84,0,0,1,25.06,10.39Zm0,6.13A4.53,4.53,0,1,0,20.54,12,4.58,4.58,0,0,0,25.08,16.52Z"/><text class="cls-2" transform="translate(8.57 61.66) rotate(-0.22)">MAP</text><path class="cls-3" d="M214.55,13.75a1.27,1.27,0,0,1,1.59-.86c.36.16.6.31.69.69a1.33,1.33,0,0,1,0,1c-.16.36-.31.6-.69.69a1.33,1.33,0,0,1-1,0c-.36-.16-.6-.31-.69-.69Zm0,4.26a2.14,2.14,0,0,0,.86.21,4.21,4.21,0,0,0,2.17-.42,4.39,4.39,0,0,0,2-2.32,4.19,4.19,0,0,0-.22-3,4.4,4.4,0,0,0-2.32-2A4.11,4.11,0,0,0,211.86,13a4.19,4.19,0,0,0,.22,3A5.13,5.13,0,0,0,214.53,18Z"/><path class="cls-3" d="M163.29,9.08l-.92.42L162,8.58a1.35,1.35,0,1,0-2.38,1.28l.42.92-.92.42a1.27,1.27,0,0,0-.55,1.83.94.94,0,0,0,.94.72,1.76,1.76,0,0,0,.77-.18l.92-.42.42.92a1.49,1.49,0,0,0,1.06.73,1.79,1.79,0,0,0,.77-.18,1.27,1.27,0,0,0,.55-1.83l-.42-.92.92-.42A1.27,1.27,0,0,0,165,9.62,1.21,1.21,0,0,0,163.29,9.08Z"/><path class="cls-3" d="M175.76,14a22.14,22.14,0,0,1-5-1.1A1.4,1.4,0,0,0,170,15.6a33.47,33.47,0,0,0,5.54,1.14h0a1.37,1.37,0,0,0,.26-2.73Z"/><path class="cls-3" d="M186.4,10.23A10.17,10.17,0,0,1,183,12.93a13.84,13.84,0,0,1-1.44.62,1.43,1.43,0,0,0-.92,1.8,1.5,1.5,0,0,0,1.16,1,.75.75,0,0,0,.51-.08,6.64,6.64,0,0,0,1.7-.72,15.21,15.21,0,0,0,4.19-3.25,1.25,1.25,0,0,0-.07-1.89C187.84,9.62,187,9.66,186.4,10.23Z"/><path class="cls-3" d="M197.19,2.21a7.58,7.58,0,0,0-2.92.36,10.52,10.52,0,0,0-3.87,2.52,1.52,1.52,0,0,0-.06,2,1.35,1.35,0,0,0,.84.45,1.14,1.14,0,0,0,1-.4A8.88,8.88,0,0,1,195,5.27a8.14,8.14,0,0,1,1.91-.32,1.38,1.38,0,0,0,.26-2.74Z"/><path class="cls-3" d="M202.09,4.8a1.47,1.47,0,0,0,.57,1.93,27.86,27.86,0,0,1,4.59,3.19,1.79,1.79,0,0,0,.72.32,1.31,1.31,0,0,0,1.18-.52,1.37,1.37,0,0,0-.2-1.9,32.4,32.4,0,0,0-5.08-3.36A1.17,1.17,0,0,0,202.09,4.8Z"/><path class="cls-3" d="M192.14,65.44l-26.2,9.42-26.41-9.62c-.13,0-.4-.13-.53-.13a.8.8,0,0,0-.53.14L112.8,74.54l-.17-44.88,13.3-4.71v.13c.13.13.13.26.27.4l.4.8c.13.13.13.27.27.4l.4.8c.13.13.13.27.27.4a2.88,2.88,0,0,0,.4.66c.13.13.13.27.27.4s.27.4.4.66.13.27.27.4.27.4.4.66.13.27.27.4.27.4.4.67.13.27.27.4.27.4.4.66.13.27.27.27a1.81,1.81,0,0,0,.4.53c0,.13.13.13.13.27a1.86,1.86,0,0,0,.4.53l.13.13c.13.13.27.4.4.53l.13.13c.13.13.27.4.4.53h0l.4.4h0c.27.4.54.66.54.8a1.3,1.3,0,0,0,1.2.53,2.38,2.38,0,0,0,1.2-.54l.4-.4.13-.13.26-.27.13-.13c.13-.13.13-.27.27-.4s.13-.14.13-.27.27-.27.27-.4.13-.27.27-.4a1.84,1.84,0,0,0,.4-.53c.13-.13.13-.27.27-.4a1.84,1.84,0,0,0,.4-.53c.13-.13.27-.27.27-.4s.27-.4.4-.54.26-.4.4-.53.27-.4.4-.54.26-.4.4-.53.26-.4.4-.67.26-.4.4-.53.27-.4.4-.67.27-.4.4-.67.26-.4.4-.67.27-.4.4-.67.27-.4.4-.67.26-.4.4-.67.26-.4.4-.67.26-.4.4-.67a2.93,2.93,0,0,1,.4-.67c.13-.27.27-.4.26-.67v-.13l19.74,7.12a1.13,1.13,0,0,0,.93,0L192,20.29ZM135,2.66a9.66,9.66,0,0,1,7.2,3h0a9.87,9.87,0,0,1,3.09,7.18,19,19,0,0,1-2,7.33,81.28,81.28,0,0,1-8.21,13.49,5.67,5.67,0,0,1-.67-.93,73.81,73.81,0,0,1-6.57-10.5c-2-3.86-3-7-3-9.45A10.12,10.12,0,0,1,135,2.66Zm59.19,14.69a1.23,1.23,0,0,0-1.33-.13l-27.13,9.83L146.68,20.2a19.58,19.58,0,0,0,1.57-7.06,12.87,12.87,0,0,0-3.9-9.31,13.18,13.18,0,0,0-22.47,9.41c0,2.53,1,5.59,2.57,9.31l-13.83,4.71a1.6,1.6,0,0,0-.93,1.33l.19,47.95a1.4,1.4,0,0,0,.67,1.2,1.91,1.91,0,0,0,.8.26.8.8,0,0,0,.53-.14L139,68.18l26.41,9.62a1.13,1.13,0,0,0,.93,0l27.66-10a1.61,1.61,0,0,0,.93-1.34l-.19-47.95A1.08,1.08,0,0,0,194.22,17.35Z"/><path class="cls-3" d="M135.06,10.39a1.6,1.6,0,1,1-1.59,1.6A1.84,1.84,0,0,1,135.06,10.39Zm0,6.13A4.53,4.53,0,1,0,130.54,12,4.58,4.58,0,0,0,135.08,16.52Z"/><text class="cls-4" transform="translate(118.57 61.66) rotate(-0.22)">MAP</text></svg>