<svg id="b37ae055-7c51-4181-a5ce-465b3232d48c" data-name="圖層 1" xmlns="http://www.w3.org/2000/svg" viewBox="0 0 18.9 14.55"><defs><style>.\32 2941443-66ab-4bf4-9594-9196294be8eb{fill:#6795ed;}.e19de905-8d54-4797-8062-c64d74a3bb3e{fill:#fff;}</style></defs><title>車車</title><path class="22941443-66ab-4bf4-9594-9196294be8eb" d="M14.75,2.69H11A1.52,1.52,0,0,0,10,4V11.4a1,1,0,0,0,1,1h5.83a1,1,0,0,0,1-1V5.16C17.81,4.2,16.26,2.69,14.75,2.69Z" transform="translate(-0.05 -0.3)"/><rect class="22941443-66ab-4bf4-9594-9196294be8eb" width="12.1" height="12.1" rx="1" ry="1"/><circle class="22941443-66ab-4bf4-9594-9196294be8eb" cx="4" cy="11.77" r="2.78"/><circle class="e19de905-8d54-4797-8062-c64d74a3bb3e" cx="4" cy="11.77" r="1.27"/><circle class="22941443-66ab-4bf4-9594-9196294be8eb" cx="14.09" cy="11.77" r="2.78"/><rect class="22941443-66ab-4bf4-9594-9196294be8eb" x="11.3" y="10.1" width="7.59" height="2" rx="1" ry="1"/><circle class="e19de905-8d54-4797-8062-c64d74a3bb3e" cx="14.09" cy="11.77" r="1.27"/><path class="e19de905-8d54-4797-8062-c64d74a3bb3e" d="M16.27,7H12.19V4.4h1.75c1.47,0,2.33.88,2.33,1.54V7Z" transform="translate(-0.05 -0.3)"/></svg>