<?xml version="1.0" encoding="utf-8"?>
<!-- Generator: Adobe Illustrator 22.0.0, SVG Export Plug-In . SVG Version: 6.00 Build 0)  -->
<svg version="1.1" id="圖層_1" xmlns="http://www.w3.org/2000/svg" xmlns:xlink="http://www.w3.org/1999/xlink" x="0px" y="0px"
	 viewBox="0 0 150 60" style="enable-background:new 0 0 150 60;" xml:space="preserve">
<style type="text/css">
	.st0{fill:#756E71;}
</style>
<g>
	<g>
		<path class="st0" d="M32.2,20.4c-1.1,6.1-3.4,10.9-6.7,16l0.6,0.7c2.9-2.4,5.6-5.2,7.5-8.4l3.6,5.5l2.8-3.3l-5.4-4
			c1-1.6,2.7-4.7,3.7-6.4C38.4,20.4,32.2,20.4,32.2,20.4z"/>
		<path class="st0" d="M54.9,20.4c-0.6,3.3-2.2,8.1-6,12.3c0.4,0.3,0.6,0.5,1,0.9c1.7-1.3,5.4-4.5,6.7-6.3c1,1.5,4.6,5.7,4.6,5.7
			l2.8-2.8l-6.2-4.5c1.2-1.7,2.1-3.9,2.8-5.3L54.9,20.4L54.9,20.4z"/>
		<path class="st0" d="M42.5,36.5V51c1.9,0,4.9-0.3,4.9-3.8c0-5.4,0-6.8,0-12.2c1.5,2.7,13.5,13.3,13.8,13.1l3.6-5.5
			c-4.2-1.5-8-1.7-14.1-6.9l-3.3-3v-14h14.8v-1.2H47.4v-6.8h-4.9v6.8H27.8v1.2h14.7c0,3.1,0,8.2,0,10.7c0,1.2-7.6,11-17.8,18.1
			l0.7,0.3C31.8,45.2,37.5,41.2,42.5,36.5z"/>
	</g>
	<g>
		<path class="st0" d="M92.3,45.1c-0.8-0.3-1.9-0.5-2.7-1v-8.9h3.8v-1h-3.8v-7.3h3.8v-1.3h-3.9v-6.3H93v-1.2h-3.6v-7.5h-4.5v7.5
			h-5.2v1.2h5.2v6.3h-6.2v1.3h6.2V42c-0.1-0.1-3.3-1.8-2.8-2.9c0.7-2.1,2-8.5,1.8-8.5h-5.2c0,3.5-0.1,5.3-0.3,7.8
			c-0.1,2.1-0.3,3.9-0.4,5.2c-0.3,1.8-0.6,3.8-1,5.9l0.3,0.3c1.5-2.6,2.1-3.6,3.3-6.3c0.3-0.6,0.9-2,1.1-2.9
			c1.3,2.2,3.7,4.1,5.7,5.3c1.4,0.8,6.5,2.8,10.6,3.6c6.5,1.2,8.9,1.3,16.6,1.5c0,0,4.5-2.2,6.8-6.2c-3.4,1.2-9.2,2.1-14.9,2.1
			C101.1,46.9,96,46.1,92.3,45.1z"/>
		<path class="st0" d="M118.3,23.3l0.4-5.1h-11v-4h2.2V13h-7.8v1.2h1.3v4h-1.3v1.2h1.3v5.4h-1.3V26h1.3v8.4c-0.1,0-0.5,0.1-1.3,0.3
			v2.7c0.5-0.3,1-0.6,1.3-0.9v9.2h4.3V19.3h6.2c-0.1,1.6-0.4,6.4-0.8,8.4c-1.2-1.1-2.6-2.2-4-3.4l-0.4,0.5c1.5,2.2,2.8,4.3,3.9,6.1
			c-0.3,2-0.8,3.8-1.3,5.5c-0.7,2.1-1.4,4.4-2.6,6.6l0.4,0.6c2.1-2.1,4-4.7,5.5-7.8c0.1-0.1,0.1-0.3,0.2-0.3c0.4,1,0.6,1.1,1.3,3.3
			c0.3,1.2,0.3,0.9,0.3,0.9h5.1c-2.3-4.8-4.1-6.9-5.1-8.5C117.3,28.6,118,25.7,118.3,23.3z M102.2,12.9h-8v1.2h2.4v21.7
			c-1,0.2-2.1,0.3-3.1,0.4l2,5c0,0,4.3-2.4,6.7-3.9v-2.7c-0.3,0.1-0.8,0.2-1.3,0.3v-9h1.3v-1.2h-1.3v-5.4h1.3v-1.2h-1.3v-4h1.3
			C102.2,14.1,102.2,12.9,102.2,12.9z"/>
	</g>
	<path class="st0" d="M126.9,0c1.4,0,2.8,0.4,4.1,1.1c1.4,0.8,2.4,1.8,3.2,3.2c0.8,1.3,1.1,2.7,1.1,4.2s-0.3,2.8-1.1,4.2
		c-0.7,1.3-1.7,2.4-3.1,3.1c-1.4,0.8-2.7,1.1-4.2,1.1l0,0v-1.4l0,0c1.2,0,2.4-0.3,3.5-0.9c1.1-0.6,2-1.5,2.6-2.6s0.9-2.3,0.9-3.5
		S133.6,6.1,133,5c-0.7-1.1-1.5-2-2.7-2.7c-1.1-0.6-2.2-0.9-3.4-0.9l0,0V0L126.9,0L126.9,0z M126.9,9.8c0.3,0.3,0.8,0.9,1.3,1.9
		l0.9,1.5h1.8l-1.1-1.8c-0.5-0.8-1-1.4-1.4-1.8c-0.2-0.2-0.4-0.3-0.8-0.4c0.8-0.1,1.5-0.3,1.9-0.9c0.5-0.5,0.7-1,0.7-1.7
		c0-0.5-0.1-0.9-0.4-1.4c-0.3-0.3-0.6-0.7-1.1-0.9c-0.3-0.1-0.9-0.2-1.7-0.3v1.3c0.4,0,0.7,0.1,0.8,0.1c0.3,0.2,0.5,0.3,0.7,0.5
		c0.1,0.3,0.2,0.4,0.2,0.7c0,0.4-0.2,0.8-0.4,1C128,7.8,127.5,8,126.9,8V9.8z M126.9,16.9c-1.5,0-2.8-0.3-4.2-1.1
		c-1.4-0.7-2.4-1.8-3.1-3.1c-0.7-1.4-1.1-2.7-1.1-4.2s0.4-2.9,1.1-4.2c0.8-1.4,1.8-2.4,3.2-3.2c1.3-0.7,2.7-1.1,4.1-1.1v1.5
		c-1.2,0-2.3,0.3-3.4,0.9c-1.1,0.7-2,1.5-2.6,2.7c-0.6,1.1-0.9,2.3-0.9,3.5s0.3,2.4,0.9,3.5s1.4,2,2.6,2.6c1.1,0.6,2.3,0.9,3.5,0.9
		L126.9,16.9L126.9,16.9z M126.9,4c-0.2,0-0.3,0-0.6,0h-3.1v9.1h1.5V9.2h0.9c0.5,0,0.9,0.1,1.2,0.3c0,0,0.1,0.1,0.2,0.2V8
		c-0.2,0-0.3,0-0.4,0h-1.8V5.3h1.6c0.3,0,0.4,0,0.6,0L126.9,4L126.9,4z"/>
</g>
</svg>
