<?xml version="1.0" encoding="utf-8"?>
<!-- Generator: Adobe Illustrator 21.1.0, SVG Export Plug-In . SVG Version: 6.00 Build 0)  -->
<svg version="1.1" id="圖層_1" xmlns="http://www.w3.org/2000/svg" xmlns:xlink="http://www.w3.org/1999/xlink" x="0px" y="0px"
	 viewBox="0 0 200 60" enable-background="new 0 0 200 60" xml:space="preserve">
<g>
	<path fill-rule="evenodd" clip-rule="evenodd" fill="#FFFFFF" d="M24.649,15.575h9.487v12.442
		c-1.244,3.887-6.608,5.287-6.608,5.287h-2.879V15.575z M24.649,5h9.487v7.464h-9.487V5z"/>
	<path fill="#FFFFFF" d="M170.606,33.305h-3.81V12.153h3.577v2.412c0.622-0.934,1.4-1.635,2.178-2.102
		c0.854-0.387,1.788-0.62,2.876-0.698v4.043c-1.71,0.077-2.954,0.621-3.732,1.477c-0.7,0.856-1.09,2.333-1.09,4.277V33.305z
		 M152.488,33.849v-3.731h0.078c1.244,0,2.411-0.312,3.422-0.934c1.087-0.623,1.865-1.478,2.488-2.566h4.277
		c-0.934,2.332-2.332,4.121-4.045,5.364c-1.787,1.244-3.809,1.866-6.143,1.866H152.488z M152.488,24.128v-3.42h6.767
		c-0.467-1.711-1.245-3.111-2.412-4.045c-1.165-0.933-2.565-1.477-4.198-1.477h-0.156v-3.655c1.867,0,3.578,0.388,5.21,1.243
		c1.557,0.934,2.879,2.101,3.966,3.655c0.623,1.011,1.09,2.023,1.323,3.188c0.312,1.166,0.466,2.488,0.466,3.889v0.621H152.488z
		 M152.488,11.532v3.655c-1.632,0.077-3.031,0.544-4.198,1.477c-1.244,1.011-2.101,2.333-2.566,4.045h6.765v3.42h-6.843
		c0.312,1.79,1.089,3.189,2.411,4.355c1.244,1.012,2.723,1.634,4.432,1.634v3.731c-1.556,0-2.954-0.232-4.198-0.777
		c-1.322-0.545-2.488-1.4-3.499-2.487c-1.012-1.089-1.788-2.256-2.334-3.655c-0.388-0.777-0.622-1.633-0.699-2.489v-3.576
		c0.077-0.778,0.312-1.556,0.623-2.333c0.467-1.322,1.243-2.489,2.254-3.5c1.011-1.166,2.178-2.1,3.5-2.644
		C149.457,11.766,150.933,11.532,152.488,11.532 M141.758,33.305h0.077l-0.077-0.156V33.305z M141.758,20.864v3.576
		c-0.079-0.544-0.156-1.166-0.156-1.71C141.602,22.107,141.679,21.485,141.758,20.864 M141.758,33.148l-9.099-10.963l7.777-10.032
		h-4.433l-7.465,9.798V5.31h-3.811v27.994h3.811v-10.73l8.476,10.73h4.743V33.148z M98.756,33.771v-3.577h0.077
		c1.866,0,3.577-0.777,4.979-2.177c1.397-1.478,2.176-3.189,2.176-5.133c0-2.1-0.778-3.888-2.176-5.366
		c-1.401-1.477-3.112-2.255-5.056-2.255v-3.655c1.322,0,2.566,0.312,3.654,0.778c1.245,0.466,2.333,1.245,3.344,2.333v-2.567h3.889
		v21.151h-3.889v-2.565c-0.933,1.011-2.021,1.787-3.265,2.255C101.322,33.537,100.078,33.771,98.756,33.771 M117.03,33.305h-3.811
		V12.153h3.577v2.412c0.622-0.934,1.401-1.635,2.178-2.102c0.856-0.387,1.788-0.62,2.878-0.698v4.043
		c-1.71,0.077-2.955,0.621-3.733,1.477c-0.7,0.856-1.088,2.333-1.088,4.277V33.305z M98.756,11.609v3.655
		c-2.022,0.078-3.731,0.778-5.133,2.177c-1.399,1.401-2.099,3.111-2.099,5.133c0,2.176,0.699,3.965,2.099,5.443
		c1.401,1.399,3.11,2.1,5.133,2.177v3.577h-0.077c-3.188,0-5.832-1.012-7.932-3.188c-2.1-2.101-3.189-4.744-3.189-7.932
		c0-1.478,0.312-2.956,0.778-4.277c0.544-1.323,1.321-2.489,2.255-3.499c1.089-1.089,2.256-1.945,3.499-2.489
		c1.322-0.543,2.722-0.778,4.355-0.778H98.756z M59.563,33.305h-3.887V5.31h5.986l8.165,21.696L77.915,5.31h5.989v27.994h-3.811
		l0.234-24.339l-9.099,24.339h-2.877L59.253,8.965L59.563,33.305z M51.477,24.517h-9.564v-3.498h9.564V24.517z"/>
	<path fill="#FFFFFF" d="M171.151,52.279V51.19h0.156c0.467,0,0.855-0.155,1.166-0.39c0.389-0.233,0.623-0.621,0.855-1.166
		l1.322,0.156c-0.232,0.776-0.622,1.399-1.166,1.787c-0.623,0.467-1.322,0.701-2.178,0.701H171.151z M171.151,48.624v-1.089h2.178
		c-0.077-0.621-0.232-1.166-0.467-1.478c-0.467-0.466-1.011-0.699-1.634-0.699h-0.077V44.27h0.077c1.011,0,1.868,0.31,2.489,1.011
		c0.622,0.7,1.011,1.711,1.011,2.954c0,0.078-0.077,0.234-0.077,0.39H171.151z M175.428,52.123v-7.698h1.168v1.167
		c0.311-0.545,0.544-0.934,0.777-1.089c0.311-0.155,0.544-0.233,0.855-0.233c0.467,0,0.855,0.155,1.322,0.389l-0.467,1.244
		c-0.311-0.232-0.622-0.31-0.934-0.31c-0.233,0-0.544,0.078-0.777,0.233c-0.233,0.232-0.39,0.466-0.467,0.777
		c-0.156,0.389-0.233,0.933-0.233,1.478v4.043H175.428z M171.151,44.27v1.089c-0.544,0-1.01,0.156-1.398,0.544
		c-0.468,0.389-0.701,0.933-0.701,1.633h2.1v1.089h-2.177c0.077,0.778,0.311,1.477,0.7,1.866c0.389,0.467,0.933,0.7,1.477,0.7v1.089
		c-1.01,0-1.866-0.39-2.566-1.089c-0.622-0.623-0.933-1.634-0.933-2.878c0-1.244,0.311-2.255,1.011-2.954
		C169.285,44.658,170.142,44.27,171.151,44.27 M163.92,52.279V51.19c0.622,0,1.089-0.233,1.477-0.7
		c0.389-0.544,0.623-1.244,0.623-2.332c0-0.934-0.156-1.633-0.623-2.178c-0.389-0.466-0.855-0.7-1.399-0.7h-0.078V44.27h0.155
		c0.699,0,1.245,0.155,1.789,0.467c0.467,0.389,0.856,0.856,1.088,1.477c0.312,0.622,0.39,1.244,0.39,2.021
		c0,0.779-0.155,1.479-0.39,2.102c-0.311,0.621-0.699,1.088-1.243,1.398c-0.544,0.389-1.088,0.545-1.711,0.545H163.92z
		 M163.92,44.27v1.011c-0.468,0-1.011,0.234-1.4,0.777c-0.389,0.545-0.622,1.244-0.622,2.255c0,1.012,0.155,1.711,0.622,2.178
		c0.389,0.467,0.855,0.7,1.4,0.7v1.089c-0.389,0-0.7-0.156-1.088-0.312c-0.312-0.155-0.623-0.39-0.856-0.7V55h-1.243V44.425h1.166
		v1.011c0.233-0.389,0.622-0.699,0.934-0.855C163.143,44.348,163.531,44.27,163.92,44.27 M156.299,52.201V51.19
		c0.311,0,0.623-0.155,0.855-0.312c0.391-0.156,0.701-0.466,0.856-0.855c0.157-0.31,0.234-0.699,0.234-1.322v-0.467
		c-0.467,0.157-1.09,0.312-1.945,0.467v-1.088c0.855-0.078,1.479-0.234,1.945-0.389v-0.311c0-0.545-0.156-0.934-0.389-1.167
		c-0.311-0.232-0.778-0.389-1.48-0.389h-0.077V44.27h0.311c0.623,0,1.167,0.078,1.557,0.233c0.389,0.155,0.7,0.311,0.932,0.544
		c0.155,0.233,0.312,0.545,0.388,0.934c0.079,0.155,0.079,0.622,0.079,1.166v1.711c0,1.244,0,2.021,0.078,2.333
		c0.076,0.31,0.154,0.622,0.31,0.933h-1.321c-0.155-0.31-0.232-0.623-0.311-1.012c-0.466,0.467-0.933,0.701-1.322,0.934
		C156.766,52.123,156.531,52.123,156.299,52.201 M156.299,44.27v1.089c-0.544,0-1.011,0.077-1.245,0.312
		c-0.309,0.232-0.543,0.543-0.621,1.087l-1.321-0.154c0.156-0.545,0.311-0.933,0.622-1.322c0.233-0.31,0.622-0.544,1.089-0.777
		C155.288,44.348,155.755,44.27,156.299,44.27 M156.299,47.613v1.088h-0.155c-0.544,0.078-0.935,0.234-1.166,0.313
		c-0.232,0.077-0.389,0.232-0.467,0.389c-0.155,0.232-0.232,0.389-0.232,0.621c0,0.39,0.154,0.623,0.388,0.855
		c0.312,0.232,0.701,0.389,1.166,0.389c0.155,0,0.312,0,0.467-0.077v1.011c-0.233,0.078-0.544,0.078-0.778,0.078
		c-0.854,0-1.475-0.234-1.942-0.623c-0.467-0.389-0.7-0.934-0.7-1.555c0-0.388,0.155-0.777,0.311-1.088
		c0.155-0.313,0.389-0.545,0.622-0.701c0.311-0.233,0.621-0.311,0.934-0.466c0.309-0.078,0.698-0.078,1.166-0.155L156.299,47.613z
		 M149.223,52.279V51.19c0.623,0,1.09-0.233,1.477-0.7c0.39-0.544,0.622-1.244,0.622-2.332c0-0.934-0.232-1.633-0.622-2.178
		c-0.388-0.466-0.854-0.7-1.399-0.7h-0.078V44.27h0.155c0.7,0,1.245,0.155,1.79,0.467c0.465,0.389,0.854,0.856,1.088,1.477
		c0.232,0.622,0.389,1.244,0.389,2.021c0,0.779-0.156,1.479-0.389,2.102c-0.312,0.621-0.7,1.088-1.245,1.398
		c-0.543,0.389-1.089,0.545-1.71,0.545H149.223z M149.223,44.27v1.011c-0.544,0-1.011,0.234-1.399,0.777
		c-0.467,0.545-0.622,1.244-0.622,2.255c0,1.012,0.155,1.711,0.545,2.178c0.389,0.467,0.933,0.7,1.477,0.7v1.089
		c-0.389,0-0.776-0.156-1.088-0.312c-0.312-0.155-0.623-0.39-0.856-0.7V55h-1.244V44.425h1.166v1.011
		c0.232-0.389,0.545-0.699,0.934-0.855C148.446,44.348,148.834,44.27,149.223,44.27 M138.492,52.279V51.19h0.078
		c0.466,0,0.855-0.155,1.244-0.39c0.31-0.233,0.621-0.621,0.776-1.166l1.322,0.156c-0.155,0.776-0.544,1.399-1.166,1.787
		c-0.544,0.467-1.322,0.701-2.177,0.701H138.492z M138.492,48.624v-1.089h2.099c0-0.621-0.234-1.166-0.467-1.478
		c-0.388-0.466-0.932-0.699-1.632-0.699V44.27c1.011,0,1.864,0.31,2.489,1.011c0.699,0.7,1.011,1.711,1.011,2.954v0.39H138.492z
		 M138.492,44.27v1.089c-0.621,0-1.089,0.156-1.477,0.544c-0.391,0.389-0.623,0.933-0.701,1.633h2.178v1.089h-2.255
		c0.077,0.778,0.312,1.477,0.778,1.866c0.388,0.467,0.855,0.7,1.477,0.7v1.089c-1.089,0-1.943-0.39-2.566-1.089
		c-0.467-0.468-0.777-1.089-0.934-1.944v-1.867c0.156-0.854,0.467-1.554,0.934-2.021C136.549,44.658,137.403,44.27,138.492,44.27
		 M134.992,44.658l0.078-0.233h-0.078V44.658z M134.992,44.425v0.233l-2.721,7.465h-1.246l-2.876-7.698h1.322l1.633,4.589
		c0.232,0.467,0.389,1.01,0.544,1.554c0.079-0.388,0.232-0.933,0.467-1.477l1.634-4.666H134.992z M134.992,47.379
		c-0.077,0.313-0.077,0.623-0.077,0.934c0,0.312,0,0.701,0.077,0.934V47.379z M115.708,52.279V51.19h0.077
		c0.544,0,0.934-0.155,1.245-0.39c0.312-0.233,0.622-0.621,0.776-1.166l1.4,0.156c-0.233,0.776-0.622,1.399-1.166,1.787
		c-0.623,0.467-1.322,0.701-2.256,0.701H115.708z M115.708,48.624v-1.089h2.178c-0.079-0.621-0.233-1.166-0.544-1.478
		c-0.389-0.466-0.935-0.699-1.557-0.699h-0.077V44.27c1.088,0,1.866,0.31,2.565,1.011c0.622,0.7,0.934,1.711,0.934,2.954v0.39
		H115.708z M119.44,49.791l1.243-0.156c0.078,0.467,0.313,0.855,0.623,1.166c0.312,0.234,0.778,0.39,1.4,0.39
		c0.621,0,1.01-0.155,1.321-0.39c0.311-0.233,0.467-0.465,0.467-0.854c0-0.233-0.156-0.466-0.389-0.7
		c-0.234-0.077-0.622-0.232-1.322-0.389c-1.011-0.233-1.633-0.466-2.022-0.623c-0.389-0.154-0.621-0.466-0.856-0.777
		c-0.155-0.311-0.232-0.622-0.232-1.01c0-0.311,0.077-0.622,0.232-0.933c0.156-0.312,0.312-0.545,0.623-0.701
		c0.233-0.155,0.467-0.311,0.856-0.389c0.31-0.077,0.7-0.155,1.088-0.155c0.623,0,1.088,0.078,1.556,0.233
		c0.467,0.155,0.778,0.39,1.011,0.7c0.234,0.312,0.39,0.699,0.467,1.166l-1.245,0.233c-0.077-0.39-0.232-0.7-0.544-0.933
		c-0.232-0.234-0.621-0.312-1.166-0.312c-0.544,0-1.011,0.077-1.244,0.233c-0.233,0.233-0.389,0.466-0.389,0.699
		c0,0.156,0.078,0.311,0.155,0.466c0.078,0.157,0.233,0.234,0.467,0.39c0.155,0,0.545,0.155,1.167,0.311
		c0.931,0.234,1.554,0.467,1.943,0.623c0.312,0.154,0.623,0.389,0.855,0.621c0.155,0.313,0.312,0.701,0.312,1.167
		c0,0.389-0.156,0.778-0.389,1.167c-0.234,0.389-0.622,0.699-1.09,0.933c-0.467,0.155-1.011,0.312-1.632,0.312
		c-1.012,0-1.789-0.234-2.256-0.623C119.906,51.19,119.596,50.646,119.44,49.791 M126.517,41.547h1.244v1.479h-1.244V41.547z
		 M126.517,44.425h1.244v7.698h-1.244V44.425z M115.708,44.27v1.089c-0.544,0-1.089,0.156-1.478,0.544
		c-0.389,0.389-0.622,0.933-0.622,1.633h2.1v1.089h-2.178c0,0.778,0.233,1.477,0.7,1.866c0.389,0.467,0.854,0.7,1.478,0.7v1.089
		c-1.089,0-1.944-0.39-2.565-1.089c-0.623-0.623-1.012-1.634-1.012-2.878c0-1.244,0.389-2.255,1.012-2.954
		C113.842,44.658,114.698,44.27,115.708,44.27 M100.778,52.279V51.19h0.077c0.544,0,1.011-0.233,1.398-0.7
		c0.391-0.467,0.623-1.166,0.623-2.099c0-1.09-0.232-1.866-0.623-2.334c-0.388-0.466-0.854-0.699-1.476-0.699V44.27
		c0.467,0,0.776,0.078,1.088,0.31c0.388,0.156,0.701,0.39,0.933,0.7v-3.733h1.245v10.576h-1.167v-1.012
		C102.41,51.89,101.711,52.201,100.778,52.279 M105.21,52.123V41.547h1.321v3.733c0.622-0.7,1.4-1.011,2.335-1.011
		c0.544,0,1.011,0.078,1.476,0.31c0.389,0.233,0.699,0.545,0.855,0.935c0.155,0.388,0.312,1.011,0.312,1.71v4.898h-1.322v-4.898
		c0-0.622-0.156-1.089-0.389-1.399c-0.312-0.311-0.699-0.467-1.243-0.467c-0.391,0-0.701,0.156-1.09,0.312
		c-0.312,0.232-0.544,0.466-0.699,0.855c-0.156,0.31-0.234,0.776-0.234,1.398v4.199H105.21z M100.778,44.27v1.089
		c-0.546,0-1.09,0.233-1.478,0.699c-0.391,0.468-0.545,1.167-0.545,2.177c0,1.012,0.234,1.712,0.621,2.256
		c0.389,0.467,0.855,0.7,1.401,0.7v1.089h-0.079c-0.622,0-1.166-0.156-1.633-0.545c-0.543-0.311-0.933-0.777-1.243-1.398
		c-0.234-0.622-0.389-1.322-0.389-2.102c0-0.699,0.076-1.399,0.389-2.021c0.232-0.621,0.622-1.088,1.087-1.477
		c0.544-0.312,1.09-0.467,1.713-0.467H100.778z M93.469,52.201V51.19c0.31,0,0.621-0.155,0.853-0.312
		c0.39-0.156,0.701-0.466,0.856-0.855c0.156-0.31,0.234-0.699,0.234-1.322v-0.467c-0.467,0.157-1.09,0.312-1.943,0.467v-1.088
		c0.853-0.078,1.476-0.234,1.943-0.389v-0.311c0-0.545-0.078-0.934-0.389-1.167c-0.312-0.232-0.777-0.389-1.478-0.389h-0.077V44.27
		h0.31c0.623,0,1.167,0.078,1.556,0.233c0.467,0.155,0.7,0.311,0.934,0.544c0.155,0.233,0.311,0.545,0.389,0.934
		c0.077,0.155,0.077,0.622,0.077,1.166v1.711c0,1.244,0,2.021,0.078,2.333c0.078,0.31,0.156,0.622,0.312,0.933h-1.322
		c-0.155-0.31-0.232-0.623-0.311-1.012c-0.467,0.467-0.934,0.701-1.321,0.934C93.935,52.123,93.702,52.123,93.469,52.201
		 M93.469,44.27v1.089c-0.545,0-0.934,0.077-1.245,0.312c-0.312,0.232-0.467,0.543-0.622,1.087l-1.322-0.154
		c0.155-0.545,0.312-0.933,0.623-1.322c0.233-0.31,0.622-0.544,1.089-0.777C92.456,44.348,92.924,44.27,93.469,44.27 M93.469,47.613
		v1.088h-0.155c-0.546,0.078-0.934,0.234-1.168,0.313c-0.233,0.077-0.389,0.232-0.466,0.389c-0.155,0.232-0.234,0.389-0.234,0.621
		c0,0.39,0.156,0.623,0.391,0.855c0.31,0.232,0.699,0.389,1.164,0.389c0.158,0,0.313,0,0.469-0.077v1.011
		c-0.234,0.078-0.545,0.078-0.778,0.078c-0.854,0-1.478-0.234-1.943-0.623c-0.468-0.389-0.623-0.934-0.623-1.555
		c0-0.388,0.078-0.777,0.233-1.088c0.156-0.313,0.39-0.545,0.623-0.701c0.31-0.233,0.621-0.311,0.932-0.466
		c0.312-0.078,0.7-0.078,1.167-0.155C93.234,47.691,93.313,47.613,93.469,47.613 M82.97,52.279V51.19h0.155
		c0.468,0,0.855-0.155,1.244-0.39c0.312-0.233,0.546-0.621,0.778-1.166l1.322,0.156c-0.233,0.776-0.623,1.399-1.167,1.787
		c-0.544,0.467-1.322,0.701-2.178,0.701H82.97z M82.97,48.624v-1.089h2.178c-0.077-0.621-0.232-1.166-0.467-1.478
		c-0.466-0.466-1.012-0.699-1.634-0.699H82.97V44.27h0.077c1.013,0,1.868,0.31,2.488,1.011c0.623,0.7,1.014,1.711,1.014,2.954v0.39
		H82.97z M82.97,44.27v1.089c-0.544,0-1.01,0.156-1.4,0.544c-0.467,0.389-0.621,0.933-0.699,1.633h2.099v1.089h-2.177
		c0.078,0.778,0.311,1.477,0.701,1.866c0.388,0.467,0.932,0.7,1.476,0.7v1.089c-1.01,0-1.866-0.39-2.489-1.089
		c-0.699-0.623-1.01-1.634-1.01-2.878c0-1.244,0.311-2.255,1.01-2.954C81.104,44.658,81.96,44.27,82.97,44.27 M73.327,52.279V51.19
		c0.623,0,1.09-0.233,1.479-0.7c0.388-0.544,0.62-1.244,0.62-2.256c0-1.01-0.232-1.709-0.62-2.177
		c-0.389-0.466-0.855-0.699-1.4-0.699h-0.078V44.27h0.156c0.467,0,0.934,0.078,1.322,0.31c0.467,0.156,0.776,0.39,1.088,0.778
		c0.234,0.312,0.467,0.777,0.622,1.244c0.156,0.466,0.234,1.011,0.234,1.556c0,1.322-0.313,2.332-1.013,3.032
		c-0.62,0.699-1.398,1.089-2.332,1.089H73.327z M77.45,41.547h1.322v10.576H77.45V41.547z M73.327,44.27v1.089
		c-0.544,0-1.011,0.233-1.399,0.699c-0.468,0.468-0.622,1.244-0.622,2.177c0,0.856,0.078,1.557,0.389,1.945
		c0.389,0.699,0.934,1.011,1.633,1.011v1.089c-0.854-0.078-1.555-0.39-2.021-1.168v1.012h-1.167V41.547h1.245v3.733
		C71.928,44.658,72.55,44.27,73.327,44.27 M65.707,52.201V51.19c0.312,0,0.622-0.155,0.856-0.312
		c0.387-0.156,0.698-0.466,0.854-0.855c0.155-0.31,0.234-0.699,0.234-1.322v-0.467c-0.468,0.157-1.089,0.312-1.945,0.467v-1.088
		c0.856-0.078,1.478-0.234,1.945-0.389v-0.311c0-0.545-0.156-0.934-0.391-1.167c-0.312-0.232-0.777-0.389-1.477-0.389h-0.078V44.27
		h0.312c0.62,0,1.166,0.078,1.555,0.233c0.39,0.155,0.699,0.311,0.933,0.544c0.157,0.233,0.313,0.545,0.39,0.934
		c0,0.155,0.079,0.622,0.079,1.166v1.711c0,1.244,0,2.021,0.076,2.333c0.077,0.31,0.156,0.622,0.311,0.933H68.04
		c-0.155-0.31-0.234-0.623-0.312-1.012c-0.467,0.467-0.934,0.701-1.399,0.934C66.174,52.123,65.94,52.123,65.707,52.201
		 M65.707,44.27v1.089c-0.544,0-1.01,0.077-1.243,0.312c-0.313,0.232-0.545,0.543-0.623,1.087l-1.32-0.154
		c0.153-0.545,0.31-0.933,0.621-1.322c0.232-0.31,0.621-0.544,1.088-0.777C64.697,44.348,65.163,44.27,65.707,44.27 M65.707,47.613
		v1.088h-0.154c-0.545,0.078-0.935,0.234-1.168,0.313c-0.233,0.077-0.39,0.232-0.544,0.389c-0.078,0.232-0.155,0.389-0.155,0.621
		c0,0.39,0.155,0.623,0.388,0.855c0.312,0.232,0.701,0.389,1.168,0.389c0.155,0,0.312,0,0.466-0.077v1.011
		c-0.311,0.078-0.544,0.078-0.777,0.078c-0.856,0-1.479-0.234-1.944-0.623c-0.312-0.311-0.465-0.621-0.621-1.01V49.48
		c0.077-0.156,0.156-0.312,0.233-0.467c0.154-0.313,0.388-0.545,0.621-0.701c0.31-0.233,0.622-0.311,0.933-0.466
		c0.313-0.078,0.623-0.078,1.167-0.155C65.475,47.691,65.553,47.613,65.707,47.613 M62.364,44.658v-0.233h0.077L62.364,44.658z
		 M62.364,44.425v0.233l-2.802,7.465H58.32l-2.8-7.543v-0.155h1.322l1.633,4.589c0.155,0.467,0.311,1.01,0.466,1.554
		c0.156-0.388,0.312-0.933,0.468-1.477l1.71-4.666H62.364z M62.364,49.48c0,0.233-0.078,0.388-0.078,0.621
		c0,0.155,0.078,0.389,0.078,0.545V49.48z M55.521,49.169c0-0.312,0.077-0.623,0.077-1.011c0-0.312-0.077-0.623-0.077-0.856V49.169z
		 M55.521,44.425v0.155l-0.077-0.155H55.521z M55.521,47.302c-0.155-0.855-0.467-1.477-0.934-2.022
		c-0.7-0.7-1.555-1.011-2.643-1.011v1.089c0.699,0,1.243,0.233,1.632,0.699c0.467,0.468,0.622,1.244,0.622,2.177
		c0,1.012-0.155,1.712-0.622,2.256c-0.389,0.467-0.933,0.7-1.632,0.7v1.089c0.699,0,1.322-0.156,1.866-0.467
		c0.544-0.313,1.01-0.777,1.321-1.322c0.154-0.389,0.312-0.776,0.389-1.321V47.302z M51.944,44.27v1.089
		c-0.623,0-1.167,0.233-1.556,0.699c-0.467,0.468-0.7,1.244-0.7,2.177c0,1.012,0.233,1.712,0.7,2.256
		c0.389,0.467,0.933,0.7,1.556,0.7v1.089c-1.012,0-1.867-0.39-2.567-1.012c-0.699-0.7-1.011-1.711-1.011-3.033
		c0-1.399,0.39-2.409,1.167-3.109C50.233,44.58,51.01,44.27,51.944,44.27 M33.203,52.279V51.19h0.077
		c0.467,0,0.857-0.155,1.245-0.39c0.31-0.233,0.621-0.621,0.776-1.166l1.322,0.156c-0.155,0.776-0.544,1.399-1.166,1.787
		c-0.544,0.467-1.321,0.701-2.178,0.701H33.203z M33.203,48.624v-1.089h2.099c0-0.621-0.232-1.166-0.467-1.478
		c-0.388-0.466-0.932-0.699-1.632-0.699V44.27c1.011,0,1.866,0.31,2.487,1.011c0.701,0.7,1.013,1.711,1.013,2.954v0.39H33.203z
		 M37.402,52.123v-7.698h1.167v1.09c0.232-0.39,0.544-0.701,1.009-0.935c0.391-0.232,0.855-0.31,1.323-0.31
		c0.544,0,1.011,0.078,1.399,0.31c0.389,0.233,0.622,0.623,0.777,1.012c0.623-0.856,1.399-1.322,2.333-1.322
		c0.778,0,1.399,0.233,1.789,0.623c0.388,0.388,0.622,1.088,0.622,1.942v5.288h-1.321v-4.821c0-0.545,0-0.933-0.079-1.166
		c-0.155-0.233-0.309-0.389-0.467-0.544c-0.232-0.156-0.544-0.233-0.776-0.233c-0.546,0-1.011,0.233-1.401,0.544
		c-0.311,0.389-0.543,0.933-0.543,1.711v4.51H41.99v-4.977c0-0.621-0.156-1.011-0.312-1.321c-0.233-0.311-0.545-0.467-1.089-0.467
		c-0.311,0-0.7,0.156-1.012,0.312c-0.311,0.232-0.544,0.466-0.621,0.855c-0.155,0.389-0.233,0.932-0.233,1.555v4.043H37.402z
		 M29.703,51.968l0.079,0.155h-0.079V51.968z M33.203,44.27c-1.09,0-1.945,0.389-2.566,1.089c-0.466,0.467-0.777,1.167-0.934,2.021
		v1.867c0.156,0.777,0.468,1.477,0.934,1.944c0.621,0.699,1.476,1.089,2.566,1.089V51.19c-0.623,0-1.09-0.233-1.478-0.7
		c-0.468-0.389-0.701-1.088-0.777-1.866h2.255v-1.089h-2.179c0.078-0.7,0.313-1.244,0.701-1.633
		c0.388-0.388,0.854-0.544,1.478-0.544V44.27z M24.649,41.547h0.467c0.933,0,1.71,0.078,2.177,0.234
		c0.466,0.233,0.856,0.545,1.167,1.01c0.312,0.467,0.467,1.012,0.467,1.634c0,0.7-0.234,1.322-0.778,1.866
		c-0.467,0.544-1.245,0.855-2.255,1.011c0.388,0.155,0.7,0.311,0.855,0.467c0.389,0.39,0.777,0.856,1.165,1.478l1.789,2.722v0.155
		h-1.71l-1.399-2.255c-0.389-0.622-0.7-1.089-1.012-1.399c-0.233-0.389-0.466-0.622-0.699-0.777c-0.077,0-0.156-0.078-0.233-0.078
		v-1.4h0.233c0.622,0,1.088-0.077,1.477-0.232c0.39-0.155,0.623-0.311,0.778-0.622c0.233-0.312,0.312-0.622,0.312-0.934
		c0-0.544-0.156-0.933-0.546-1.244c-0.388-0.312-0.933-0.466-1.71-0.466h-0.544V41.547z M29.703,47.379
		c-0.076,0.313-0.076,0.623-0.076,0.934c0,0.312,0,0.623,0.076,0.934V47.379z M20.449,52.123V41.547h4.2v1.168h-2.799v3.498h2.799
		v1.4c-0.155-0.078-0.234-0.156-0.39-0.156c-0.155-0.078-0.466-0.078-0.777-0.078h-1.632v4.744H20.449z"/>
	<path fill-rule="evenodd" clip-rule="evenodd" fill="#FFFFFF" d="M28.381,29.572c0.156,1.244-0.467,2.1-1.166,3.5
		c0,0,5.365-1.4,6.611-5.287C33.826,27.785,32.191,29.572,28.381,29.572"/>
	<path fill="#FFFFFF" stroke="#000000" stroke-width="0.216" stroke-miterlimit="10" d="M28.381,29.572
		c0.156,1.244-0.467,2.1-1.166,3.5c0,0,5.365-1.4,6.611-5.287C33.826,27.785,32.191,29.572,28.381,29.572z"/>
</g>
</svg>
