<?xml version="1.0" encoding="utf-8"?>
<!-- Generator: Adobe Illustrator 16.0.0, SVG Export Plug-In . SVG Version: 6.00 Build 0)  -->
<!DOCTYPE svg PUBLIC "-//W3C//DTD SVG 1.1//EN" "http://www.w3.org/Graphics/SVG/1.1/DTD/svg11.dtd">
<svg version="1.1" id="圖層_1" xmlns="http://www.w3.org/2000/svg" xmlns:xlink="http://www.w3.org/1999/xlink" x="0px" y="0px"
	 width="200px" height="60px" viewBox="0 0 200 60" enable-background="new 0 0 200 60" xml:space="preserve">
<g>
	<path fill-rule="evenodd" clip-rule="evenodd" fill="#FFFFFF" d="M139.603,52.896v-0.817c0.205,0.035,0.408,0.069,0.645,0.035
		c0.582,0.034,1.094-0.035,1.601-0.205l-0.065,0.783c-0.376,0.171-0.92,0.238-1.601,0.238
		C139.977,52.93,139.773,52.93,139.603,52.896 M139.603,50.208v-0.647l1.432-0.034c0-1.056-0.41-1.567-1.294-1.567h-0.138v-0.714
		h0.171c0.715,0,1.261,0.205,1.669,0.647c0.34,0.442,0.509,0.952,0.543,1.599c0,0.171,0,0.409-0.067,0.682L139.603,50.208z
		 M151.313,45.543l-0.031,0.816c-0.987-0.034-2.112-0.034-3.37-0.067c0.067,0.611,0.099,1.498,0.067,2.552
		c0.92,0,1.733-0.033,2.552-0.033l0.034,0.817c-0.853-0.068-1.666-0.068-2.555-0.068c-0.031,1.465,0,2.519,0.07,3.234h-1.021
		c0.034-1.158,0.067-2.417,0.067-3.813c-0.033-1.293-0.033-2.485-0.104-3.438H151.313z M158.496,52.794l-0.848,0.034
		c-0.07-0.202-0.07-0.374-0.104-0.51l-0.034-0.035c-0.476,0.442-1.125,0.646-1.84,0.646c-0.61,0-1.089-0.136-1.393-0.442
		c-0.275-0.34-0.408-0.953-0.408-1.904v-0.581v-0.544c0.031-0.545,0-1.191-0.07-1.907l1.021-0.067
		c-0.036,0.749-0.067,1.327-0.036,1.837c-0.031,1.158,0.036,1.941,0.172,2.315c0.171,0.34,0.512,0.511,1.055,0.511
		c0.579-0.034,1.055-0.171,1.463-0.443c0-2.076-0.031-3.472-0.031-4.188l0.951-0.033v2.927
		C158.395,51.194,158.395,51.977,158.496,52.794 M166.124,52.794h-1.021c0.065-0.986,0.133-2.042,0.102-3.201
		c0.031-0.578-0.102-0.986-0.305-1.191c-0.241-0.205-0.579-0.305-1.023-0.272c-0.512-0.033-0.987,0.17-1.463,0.545
		c0.031,1.26,0.031,2.621,0.031,4.119h-1.019c0.067-1.293,0.102-2.178,0.102-2.723c0.033-0.885-0.07-1.736-0.239-2.554l0.987-0.136
		l0.102,0.681h0.036c0.577-0.511,1.12-0.714,1.804-0.749c0.579,0,1.091,0.137,1.397,0.409c0.338,0.273,0.509,0.749,0.509,1.464
		v0.407v0.409C166.091,50.617,166.124,51.569,166.124,52.794 M139.603,47.246v0.714c-0.818,0.069-1.294,0.579-1.463,1.634
		l1.463-0.033v0.647h-1.463c0.033,0.544,0.205,1.021,0.613,1.395c0.236,0.205,0.509,0.374,0.85,0.476v0.817
		c-0.681-0.102-1.227-0.34-1.635-0.749c-0.476-0.545-0.748-1.157-0.782-1.906c0.034-0.817,0.273-1.533,0.715-2.111
		C138.345,47.586,138.888,47.313,139.603,47.246 M126.462,53v-0.716h0.036c0.51,0.035,0.918-0.205,1.224-0.647
		c0.271-0.407,0.408-0.918,0.408-1.463c0-0.58-0.137-1.088-0.441-1.566c-0.307-0.443-0.681-0.681-1.227-0.647v-0.714h0.102
		c0.683-0.035,1.294,0.238,1.806,0.714c0.439,0.478,0.715,1.125,0.748,2.009c-0.033,0.954-0.309,1.703-0.815,2.248
		C127.756,52.726,127.143,53,126.462,53 M135.211,47.484l-0.236,0.918c-0.275-0.135-0.546-0.205-0.785-0.169
		c-0.714-0.036-1.192,0.306-1.397,0.987c0,1.667,0.036,2.894,0.07,3.541l-0.987,0.034c0.067-1.191,0.067-2.111,0.104-2.756
		c-0.036-0.887-0.104-1.703-0.275-2.521l0.987-0.136c0.07,0.374,0.102,0.647,0.102,0.816h0.036c0.41-0.578,0.884-0.884,1.361-0.884
		C134.53,47.28,134.837,47.381,135.211,47.484 M126.462,47.246v0.714c-0.543-0.034-0.953,0.204-1.227,0.647
		c-0.34,0.409-0.441,0.919-0.476,1.464c0.034,0.579,0.172,1.089,0.442,1.532c0.307,0.476,0.717,0.681,1.26,0.681V53h-0.104
		c-0.715,0-1.292-0.239-1.804-0.716c-0.476-0.476-0.748-1.123-0.715-2.007c-0.033-0.921,0.239-1.704,0.816-2.248
		C125.168,47.518,125.747,47.28,126.462,47.246 M99.396,52.863v-0.818c0.239,0.069,0.476,0.103,0.717,0.103
		c0.51-0.034,1.055-0.103,1.531-0.205l-0.102,0.783c-0.341,0.137-0.853,0.204-1.497,0.204C99.805,52.93,99.602,52.896,99.396,52.863
		 M99.396,50.208v-0.681l1.432-0.035c0.031-1.021-0.444-1.532-1.263-1.532h-0.169v-0.714h0.239c0.645-0.035,1.192,0.17,1.601,0.612
		c0.374,0.442,0.543,0.986,0.543,1.668v0.612L99.396,50.208z M108.044,51.263c0.034,1.056-0.681,1.634-2.042,1.601
		c-0.613,0.033-1.159-0.035-1.7-0.171l0.167-0.816c0.478,0.203,1.023,0.306,1.566,0.306c0.785-0.034,1.159-0.272,1.19-0.714
		c0-0.206-0.067-0.409-0.272-0.512c-0.203-0.136-0.476-0.306-0.848-0.476c-0.546-0.203-0.956-0.409-1.159-0.58
		c-0.34-0.307-0.545-0.646-0.545-1.056c0-0.407,0.169-0.748,0.512-1.054c0.307-0.306,0.782-0.477,1.396-0.443
		c0.681-0.034,1.192,0,1.566,0.137l-0.171,0.816c-0.408-0.17-0.884-0.239-1.396-0.272c-0.681,0-1.021,0.238-1.021,0.614
		c-0.034,0.237,0.067,0.407,0.205,0.509c0.169,0.137,0.476,0.273,0.92,0.478c0.476,0.17,0.884,0.374,1.12,0.579
		C107.875,50.48,108.044,50.854,108.044,51.263 M120.845,52.761l-1.056,0.034c0-0.851-0.031-2.042-0.171-3.608
		c-0.102-1.566-0.136-2.485-0.167-2.827h-0.036c-0.374,1.227-0.884,2.52-1.432,3.95c-0.577,1.396-0.85,2.247-0.85,2.485
		l-0.749-0.034c0-0.238-0.309-1.089-0.815-2.519c-0.512-1.397-0.853-2.349-0.987-2.86c-0.172-0.477-0.273-0.851-0.307-1.021h-0.034
		c0,0.511-0.104,1.566-0.272,3.065c-0.102,1.566-0.205,2.654-0.172,3.336h-0.987c0-0.035,0.136-1.056,0.377-3.064
		c0.271-2.008,0.441-3.403,0.405-4.186h1.499c-0.033,0.442,0.273,1.462,0.853,3.063c0.613,1.669,0.884,2.622,0.884,2.997h0.104
		c-0.036-0.375,0.271-1.361,0.987-2.997c0.647-1.634,0.985-2.655,0.985-3.063l1.463,0.033c-0.031,0.783,0.07,2.145,0.207,4.119
		C120.776,51.672,120.845,52.726,120.845,52.761 M99.396,47.246v0.714c-0.782,0.035-1.258,0.579-1.427,1.601l1.427-0.034v0.681
		H97.97c0.031,0.577,0.271,0.986,0.645,1.361c0.205,0.206,0.476,0.374,0.782,0.476v0.818c-0.645-0.069-1.19-0.34-1.566-0.715
		c-0.51-0.545-0.78-1.192-0.749-1.94c-0.031-0.816,0.205-1.532,0.684-2.111C98.173,47.586,98.718,47.28,99.396,47.246 M81.218,53
		v-0.716c0.548-0.033,0.953-0.205,1.227-0.647c0.307-0.407,0.441-0.918,0.441-1.498c0-0.545-0.135-1.054-0.408-1.531
		c-0.307-0.443-0.712-0.681-1.26-0.714v-0.682h0.104c0.715,0,1.292,0.24,1.804,0.749c0.476,0.478,0.748,1.125,0.715,2.009
		c0,0.918-0.239,1.703-0.816,2.213C82.514,52.66,81.898,52.93,81.218,53 M87.618,52.761l-0.985,0.034
		c0.031-0.749,0.102-1.6,0.067-2.586c0.034-1.057-0.067-1.975-0.169-2.724l1.087-0.103c-0.07,0.749-0.07,1.704-0.07,2.827
		C87.548,51.127,87.584,51.943,87.618,52.761 M87.891,45.815c0,0.171-0.102,0.341-0.203,0.444c-0.14,0.169-0.272,0.238-0.512,0.238
		c-0.205,0-0.374-0.035-0.441-0.171c-0.102-0.102-0.138-0.271-0.172-0.442c0-0.171,0.07-0.341,0.205-0.477
		c0.102-0.137,0.307-0.204,0.512-0.204c0.203-0.035,0.339,0.033,0.442,0.169C87.823,45.475,87.891,45.646,87.891,45.815
		 M94.667,51.91l-0.07,0.75c-0.306,0.204-0.714,0.271-1.224,0.237c-0.92,0.034-1.668-0.237-2.216-0.782
		c-0.474-0.545-0.744-1.191-0.744-1.906c0.031-0.783,0.271-1.499,0.813-2.078c0.546-0.579,1.261-0.817,2.11-0.851
		c0.476,0,0.818,0.068,1.091,0.136l-0.137,0.885c-0.375-0.137-0.816-0.239-1.227-0.204c-0.476,0-0.918,0.17-1.258,0.51
		c-0.307,0.409-0.442,0.851-0.442,1.396c0,0.614,0.169,1.124,0.541,1.498c0.41,0.409,0.922,0.613,1.601,0.647
		C93.781,52.148,94.189,52.079,94.667,51.91 M81.218,47.211v0.682h-0.034c-0.512,0.033-0.917,0.237-1.224,0.646
		c-0.275,0.477-0.444,0.953-0.408,1.532c0,0.579,0.133,1.089,0.439,1.532c0.275,0.442,0.681,0.681,1.227,0.681V53h-0.136
		c-0.683-0.034-1.26-0.274-1.77-0.716c-0.512-0.476-0.717-1.157-0.748-2.007c0.031-0.988,0.271-1.704,0.815-2.248
		C79.924,47.518,80.503,47.246,81.218,47.211 M56.229,52.863v-0.818c0.169,0.034,0.408,0.069,0.649,0.034
		c0.577,0.035,1.089-0.034,1.601-0.203l-0.104,0.784c-0.341,0.168-0.884,0.237-1.567,0.271
		C56.603,52.896,56.397,52.896,56.229,52.863 M56.229,50.173v-0.646l1.432-0.035c-0.036-1.054-0.444-1.565-1.294-1.565h-0.138
		v-0.715h0.138c0.746,0,1.294,0.205,1.634,0.647c0.375,0.442,0.58,0.953,0.611,1.6c0,0.17-0.031,0.409-0.067,0.68L56.229,50.173z
		 M68.551,51.876l-0.031,0.85c-0.479,0.137-0.985,0.204-1.533,0.204c-1.258-0.034-2.212-0.374-2.893-1.088
		c-0.646-0.681-0.92-1.532-0.953-2.553c0.033-1.055,0.376-1.941,1.122-2.725c0.715-0.783,1.637-1.191,2.861-1.157
		c0.34,0,0.714,0.068,1.055,0.136l-0.138,0.885c-0.441-0.102-0.813-0.204-1.156-0.204c-0.92,0.035-1.564,0.272-2.076,0.851
		c-0.408,0.544-0.681,1.26-0.647,2.042c-0.033,0.817,0.239,1.532,0.783,2.111c0.545,0.612,1.26,0.885,2.213,0.85
		C67.498,52.114,67.974,52.045,68.551,51.876 M75.839,52.761h-1.023c0.104-0.986,0.104-2.042,0.104-3.167
		c0-0.578-0.104-0.986-0.338-1.191c-0.241-0.238-0.546-0.305-0.922-0.34c-0.577,0-1.087,0.205-1.564,0.581
		c-0.034,2.008,0.031,3.403,0.065,4.083l-0.985,0.035c0-0.986,0.034-2.383,0.034-4.153c0-1.565-0.068-2.826-0.172-3.71l1.058-0.034
		c0,1.156-0.034,2.179-0.034,3.132h0.034c0.545-0.478,1.192-0.715,1.837-0.682c0.579-0.034,1.058,0.137,1.397,0.375
		c0.305,0.271,0.51,0.783,0.476,1.43v0.442v0.544C75.773,50.65,75.805,51.535,75.839,52.761 M56.229,47.211v0.715
		c-0.816,0.069-1.294,0.579-1.463,1.634l1.463-0.034v0.646h-1.499c0.036,0.545,0.241,1.021,0.615,1.396
		c0.239,0.206,0.544,0.374,0.884,0.476v0.818c-0.715-0.103-1.227-0.34-1.632-0.749c-0.546-0.545-0.751-1.158-0.785-1.906
		c0.034-0.816,0.273-1.532,0.715-2.111C54.971,47.551,55.514,47.28,56.229,47.211 M43.057,52.966V52.25
		c0.543,0.033,0.985-0.205,1.258-0.614c0.307-0.442,0.408-0.954,0.444-1.498c0-0.578-0.138-1.089-0.444-1.566
		c-0.307-0.442-0.715-0.68-1.258-0.646v-0.715h0.133c0.681-0.034,1.294,0.24,1.806,0.715c0.444,0.476,0.715,1.124,0.681,2.009
		c0.034,0.952-0.272,1.701-0.782,2.247C44.349,52.692,43.769,52.966,43.057,52.966 M51.837,47.451l-0.272,0.918
		c-0.271-0.135-0.543-0.205-0.746-0.171c-0.717-0.034-1.19,0.307-1.396,0.989c0,1.667,0,2.893,0.031,3.54l-0.951,0.035
		c0.034-1.191,0.065-2.11,0.065-2.723c0-0.92-0.065-1.737-0.271-2.554l0.987-0.137c0.067,0.375,0.102,0.647,0.102,0.816h0.036
		c0.408-0.578,0.884-0.884,1.396-0.884C51.089,47.246,51.429,47.348,51.837,47.451 M37.473,52.726l-1.058,0.035
		c0-0.851-0.067-2.042-0.169-3.609c-0.102-1.565-0.171-2.484-0.205-2.825h-0.034c-0.374,1.225-0.85,2.554-1.393,3.951
		c-0.582,1.395-0.853,2.246-0.889,2.484l-0.712-0.035c-0.036-0.238-0.307-1.089-0.818-2.518c-0.546-1.396-0.853-2.35-1.021-2.86
		c-0.138-0.477-0.239-0.817-0.272-1.021H30.8c0,0.511-0.067,1.567-0.205,3.065c-0.104,1.564-0.203,2.654-0.169,3.334l-0.987,0.035
		c0-0.068,0.135-1.056,0.374-3.098c0.271-1.974,0.374-3.403,0.41-4.188h1.461c0,0.443,0.307,1.464,0.886,3.064
		c0.577,1.669,0.884,2.655,0.884,2.996h0.067c-0.031-0.34,0.309-1.361,0.99-2.996c0.681-1.635,1.021-2.655,1.021-3.064l1.432,0.035
		c0,0.783,0.1,2.143,0.234,4.152C37.371,51.637,37.473,52.66,37.473,52.726 M43.057,47.211v0.715c-0.548,0-0.92,0.204-1.227,0.646
		c-0.307,0.409-0.444,0.886-0.444,1.465c0,0.579,0.138,1.089,0.444,1.531c0.307,0.476,0.715,0.681,1.227,0.681v0.716h-0.104
		c-0.684,0-1.261-0.24-1.772-0.716c-0.507-0.476-0.748-1.124-0.748-2.009c0-0.92,0.272-1.703,0.818-2.247
		C41.763,47.484,42.373,47.246,43.057,47.211"/>
	<path fill-rule="evenodd" clip-rule="evenodd" fill="#FFFFFF" d="M107.397,33.9l-1.666-1.396l1.12-0.783l-1.359-0.884l1.123-0.818
		l-0.987-0.374c0.171-0.204,0.478-1.193,0.784-1.668c-3.713,0.34-6.847,2.144-6.945-2.35L99.295,7.653L94.8,8.095
		c-0.577,6.06-1.873,12.868-1.873,18.997c0,4.119,1.873,5.889,4.461,6.638C99.942,34.514,104.879,34.582,107.397,33.9"/>
	<path fill="#FFFFFF" stroke="#000000" stroke-width="0.216" stroke-miterlimit="10" d="M107.397,33.9l-1.666-1.396l1.12-0.783
		l-1.359-0.884l1.123-0.818l-0.987-0.374c0.171-0.204,0.478-1.193,0.784-1.668c-3.713,0.34-6.847,2.144-6.945-2.35L99.295,7.653
		L94.8,8.095c-0.577,6.06-1.873,12.868-1.873,18.997c0,4.119,1.873,5.889,4.461,6.638C99.942,34.514,104.879,34.582,107.397,33.9z"
		/>
	<path fill-rule="evenodd" clip-rule="evenodd" fill="#FFFFFF" d="M140.351,32.743l0.988-0.851l-1.02-0.816l0.949-0.682
		l-1.053-0.918l0.886-0.716l-0.92-0.918l0.577-0.238l-0.681-1.396c4.256,1.191,5.825,0.271,6.03-1.158
		c0.476-3.779-3.339-6.571-6.88-6.604l0.135,4.732l0.102,2.893l0.104,2.86l0.136,2.895l0.104,2.858l0.104,2.894l0.1,2.86
		l0.102,2.894l-0.884-0.953l-0.611,0.988l-0.649-1.089l-0.886,1.156l-0.746-0.407l-0.751,0.442l-0.543-1.26l-0.987,1.327
		c-0.138-9.293-0.203-19.779-0.169-29.005l5.14-0.169l0.031,0.306c8.614-0.646,19.85,11.132,8.65,17.635
		C146.14,33.185,143.009,32.981,140.351,32.743"/>
	<path fill-rule="evenodd" clip-rule="evenodd" fill="#FFFFFF" d="M138.854,14.359l0.441,7.251h0.036l-0.104-3.167
		c3.541,0.034,7.355,2.826,6.878,6.605c-0.203,1.43-1.772,2.349-6.028,1.158l0.681,1.396l-0.579,0.238l0.922,0.918l-0.886,0.716
		l1.055,0.918l-0.951,0.682l1.02,0.816l-0.988,0.851c2.658,0.238,5.789,0.443,7.356-0.442c11.201-6.502-0.036-18.281-8.65-17.634
		l-0.033-0.307H138.854z"/>
	<path fill-rule="evenodd" clip-rule="evenodd" fill="#FFFFFF" d="M163.503,21.645c0.852-0.169,1.735-0.34,2.895-0.408
		c0.577-0.58-0.512-3.098-2.726-2.758c-0.065,0-0.136,0-0.169,0.034v-3.506c3.846,0.033,7.421,3.132,7.455,9.668l-7.455,0.511
		V21.645z M163.503,36.759v-6.74c1.53,0.238,3.269-0.34,4.664-1.839c0,0,0,2.179,0.476,2.213c0.444,0,1.361-0.85,1.361-0.85
		c0.07,0-0.307,1.701,0.07,1.736c0.408,0,1.053-1.022,1.053-1.022c0,0.646-0.067,1.771-0.067,1.771
		c0.478-0.17,1.499-0.749,2.011-0.954C171.399,35.705,167.416,37.305,163.503,36.759 M160.541,22.053
		c1.192-0.102,2.076-0.272,2.962-0.409v3.541l-3.472,0.204c-0.07,2.724,1.497,4.323,3.472,4.63v6.74
		c-4.357-0.611-8.58-3.881-9.396-8.646v-3.472c0.271-1.634,0.92-3.404,2.076-5.242c1.804-2.929,4.597-4.426,7.32-4.392v3.506
		C160.845,19.056,160.2,21.339,160.541,22.053"/>
	<path fill-rule="evenodd" clip-rule="evenodd" fill="#FFFFFF" d="M118.121,33.186c2.315,0.17,4.561-0.307,6.096-1.124l1.427,4.324
		l0.613-1.191l1.294,1.327l0.205-1.499l2.383,1.363l-0.41-2.111l2.009,1.227l-7.931-22.913l-4.867,1.635l0.236,0.816
		c-0.372,0.034-0.712,0.034-1.055,0.069v3.983c0.646-0.17,1.432-0.375,2.315-0.544l1.977,7.591
		c-1.127,0.851-2.759,1.465-4.292,1.499V33.186z M109.031,25.356c1.058,5.447,5.143,7.558,9.09,7.83v-5.548
		c-2.315,0.102-4.426-0.988-4.324-4.017c0.172-2.485,1.125-3.61,4.324-4.528v-3.983c-4.901,0.511-8.816,2.724-9.09,8.783v1.362
		V25.356z"/>
	<polygon fill-rule="evenodd" clip-rule="evenodd" fill="#FFFFFF" points="119.108,14.835 119.313,15.006 120.197,18.615 
		120.437,18.546 122.377,26.036 122.411,26.036 124.794,33.798 124.794,33.832 125.644,36.385 126.257,35.194 127.551,36.522 
		127.756,35.023 130.139,36.385 129.729,34.274 131.739,35.501 123.807,12.588 118.939,14.223 	"/>
	<polygon fill-rule="evenodd" clip-rule="evenodd" fill="#FFFFFF" points="32.134,14.604 36.798,14.435 41.39,14.299 40.883,14.979 
		41.426,15.693 40.678,16.409 41.39,17.157 40.678,18.009 41.39,18.554 40.576,19.234 41.39,19.983 32.267,19.847 32.339,42.554 
		31.554,41.26 30.806,42.349 29.987,41.193 29.444,42.111 28.423,41.226 28.08,42.249 27.093,40.989 25.528,42.554 26.414,9.362 
		25.697,9.429 25.289,4.425 26.311,4.119 26.173,0.307 31.726,0 31.827,3.983 44.422,3.642 44.422,9.736 32.063,9.531 	"/>
	<polygon fill-rule="evenodd" clip-rule="evenodd" fill="#FFFFFF" points="32.406,14.57 32.1,14.775 32.235,19.983 32.269,20.052 
		32.269,19.847 41.395,19.983 40.578,19.234 41.395,18.554 40.678,18.009 41.395,17.158 40.678,16.409 41.426,15.693 40.883,14.979 
		41.395,14.297 36.798,14.435 	"/>
	<path fill-rule="evenodd" clip-rule="evenodd" fill="#FFFFFF" d="M44.146,13.746c-0.377,4.154-0.479,15.048,5.072,15.763
		c4.561,0.613,6.296-2.621,8.034-4.391l-0.241,10.894l1.33-1.362l0.681,1.225l0.749-1.191l1.296,1.294l0.915-1.429l1.058,1.123
		L62.46,13.235l-4.969,0.272l-0.138,6.571c-1.601,1.565-6.197,5.924-6.979,3.201c-0.953-3.303-0.307-7.831-0.102-9.942
		L44.146,13.746z"/>
	<polygon fill-rule="evenodd" clip-rule="evenodd" fill="#FFFFFF" points="57.354,20.113 57.354,20.215 57.252,25.118 
		57.252,25.287 57.011,36.012 58.339,34.65 59.021,35.875 59.771,34.683 61.064,35.977 61.981,34.547 63.039,35.67 62.46,13.235 
		57.491,13.508 57.354,20.079 	"/>
	<path fill-rule="evenodd" clip-rule="evenodd" fill="#FFFFFF" d="M67.734,13.27c-0.304,6.604-0.748,14.571-0.917,21.209
		l1.021-2.043l0.682,1.805l0.815-1.565l0.649,1.532l1.053-1.566l0.476,1.735l0.818-1.293l0.853,1.498l-0.102-12.018
		c1.396-0.817,3.913-1.939,5.958-1.122c3.098,1.225,1.089,10.382,0.818,12.492c0.613-0.476,0.884-0.851,1.12-1.056l0.444,1.432
		l1.089-1.567l1.055,1.976l1.058-1.567l0.884,1.532c1.227-4.152,1.566-15.763-1.227-18.042c-4.116-3.337-8.034,0.204-11.27,1.939
		l-0.033-5.515L67.734,13.27z"/>
	<polygon fill-rule="evenodd" clip-rule="evenodd" fill="#FFFFFF" points="87.753,13.577 88.811,14.461 87.891,15.244 
		88.537,16.128 88.06,16.947 88.776,17.832 88.163,18.615 88.811,19.501 88.299,20.317 105.253,19.194 103.855,14.291 	"/>
</g>
</svg>
