<?xml version="1.0" encoding="utf-8"?>
<!-- Generator: Adobe Illustrator 16.0.0, SVG Export Plug-In . SVG Version: 6.00 Build 0)  -->
<!DOCTYPE svg PUBLIC "-//W3C//DTD SVG 1.1//EN" "http://www.w3.org/Graphics/SVG/1.1/DTD/svg11.dtd">
<svg version="1.1" id="圖層_1" xmlns="http://www.w3.org/2000/svg" xmlns:xlink="http://www.w3.org/1999/xlink" x="0px" y="0px"
	 width="240px" height="60px" viewBox="0 0 240 60" enable-background="new 0 0 240 60" xml:space="preserve">
<path fill-rule="evenodd" clip-rule="evenodd" fill="#FFFFFF" d="M201.977,40.401v-1.777c1.521-0.283,3.095-1.397,4.48-3.652
	c1.833-2.979,4.311-12.491-0.979-13.665c-1.229-0.272-2.407-0.205-3.501,0.12v-2.397c2.981-0.18,6.119,0.57,7.552,2.825
	c0.158-0.591,0.307-1.183,0.492-1.766c0.143-0.532,0.351-0.479,1.014-0.478c1.345,0.002,2.977,0,4.161-0.002
	c0.651,0,0.554,0.151,0.347,0.869c-1.173,4.088-2.288,9.299-3.001,13.409c-0.754,4.598,0.401,6.006,1.982,4.967
	c0.887-0.582,1.585-1.599,1.945-2.998c0.143-0.555,0.142-0.922,0.384-0.531c0.283,0.46,0.571,0.958,0.786,1.444
	c0.134,0.308,0.092,0.517-0.017,0.796c-1.683,4.344-8.71,4.228-9.917-0.413C206.315,38.756,204.216,39.882,201.977,40.401z
	 M187.556,17.745c1.729,0,3.13-1.353,3.13-3.022s-1.401-3.023-3.13-3.023l0,0V17.745L187.556,17.745L187.556,17.745z
	 M201.977,19.029v2.397c-5.046,1.504-8.257,8.551-5.903,13.524c0.449,0.948,1.102,1.816,1.984,2.543
	c1.131,0.934,2.502,1.392,3.919,1.13v1.777c-4.094,0.95-8.657-0.128-10.227-4.039c-0.701,1.578-2.274,2.766-4.194,3.501v-1.239
	c1.763-1.207,2.413-3.482,2.755-5.079c-0.267-5.889,2.268-10.741,6.609-13.178C198.217,19.64,200.064,19.143,201.977,19.029
	L201.977,19.029z M187.556,32.199l2.248-11.037c0.301-1.329,0.449-1.332-0.898-1.2c-0.469,0.047-0.921,0.092-1.35,0.136V32.199z
	 M187.556,11.699c-1.73,0-3.133,1.354-3.133,3.023s1.402,3.022,3.133,3.022V11.699L187.556,11.699z M187.556,20.098v12.102
	l-1.128,5.53c-0.199,1.123-0.316,1.588,0.246,1.364c0.32-0.128,0.613-0.288,0.882-0.47v1.239
	c-4.349,1.667-10.484,1.017-12.353-2.701c-1.336,1.207-3.106,2.266-4.799,2.882c-0.65,0.238-1.324,0.419-1.999,0.533V37.96
	c0.553-0.03,1.104-0.102,1.629-0.208c1.18-0.238,3.556-1.194,4.436-2.321c-0.573-3.065-2.437-4.912-5.473-5.4
	c-0.193-0.031-0.392-0.052-0.592-0.064v-3.237c3.345-0.16,6.769,2.054,7.482,6.997c2.133-4.272,0.765-10.093-4.086-11.84
	c-1.061-0.382-2.244-0.482-3.396-0.324v-2.89c6.505-1.992,12.165,3.106,11.435,9.561c-0.29,2.56-1.622,5.411-3.212,7.411
	c0.471,1.412,1.625,2.468,2.985,3.067c0.608,0.269,0.649-0.246,0.775-0.814c1.188-5.339,2.239-11.095,3.489-16.571
	c0.107-0.467,0.144-0.844,0.67-0.905C185.333,20.33,186.359,20.219,187.556,20.098z M168.405,18.672v2.89
	c-2.385,0.325-4.634,1.764-5.348,4.112c-0.609,2.004-0.781,4.044-1.081,5.805c1.149-2.979,3.764-4.62,6.429-4.75v3.237
	c-3.668-0.24-8.127,2.51-5.012,6.266c1.169,1.407,3.107,1.83,5.012,1.729v2.617c-3.29,0.569-6.63-0.391-7.563-3.85
	c-1.151,6.262-1.782,12.337-3.995,18.438c-0.226,0.626-0.286,0.496-0.95,0.466c-1.049-0.049-2.32-0.12-4.234-0.006
	c-0.757,0.044-0.645,0.091-0.391-0.61c2.216-6.128,4.099-15.674,5.457-25.311c-0.973,1.302-1.759,2.698-2.586,4.134
	c-0.144,0.248-0.262,0.448-0.359,0.595c-0.91,1.488-2.097,2.812-3.488,3.878c-1.212,0.925-2.611,1.648-4.184,2.057v-1.986
	c1.276-0.418,2.416-1.256,3.378-2.349c4.342-4.939,5.041-15.076-1.854-15.126c-0.535-0.004-1.042,0.058-1.524,0.173v-2.091
	c0.549-0.018,1.107,0,1.672,0.056c4.31,0.421,7.725,3.132,8.03,7.51c0.04,0.514,0.031,1.028-0.008,1.543
	c0.342-0.29,0.816-0.8,1.337-1.19l0.533-2.219l1.062-4.946c0.146-0.603,0.115-0.574,0.642-0.574l4.013-0.194
	c0.71,0,0.705-0.126,0.582,0.569l-0.365,1.903C165.206,20.05,166.83,19.153,168.405,18.672z M146.111,18.989v2.091
	c-4.659,1.131-6.893,7.519-6.657,11.441c0.223,3.709,1.857,5.824,4.081,6.106c0.905,0.115,1.77,0.019,2.576-0.246v1.986
	c-0.985,0.256-2.038,0.387-3.155,0.365c-2.156-0.043-4.293-0.661-5.945-1.745c-1.259-0.826-2.218-1.966-2.646-3.454
	c-1.052,1.97-1.73,3.243-2.863,4.048c-1.424,1.013-4.062,1.642-5.658,0.679c-0.929-0.56-1.692-1.539-2.078-2.525
	c-1.533,2.286-4.367,3.313-7.031,2.937c-1.751-0.248-3.145-1.335-3.193-3.693c-0.07-3.485,1.615-8.843,1.648-11.073
	c0.088-5.7-6.857-3.032-8.591-1.149c-1.885,2.562-2.659,9.403-3.033,12.534c-0.123,1.051-0.103,2.232-0.62,3.188
	c-0.101,0.188-0.166,0.194-0.463,0.194h-5.273c-0.321,0-0.395,0.086-0.271-0.232c0.259-0.677,0.452-1.301,0.641-2.426
	c-2.028,3.669-6.59,3.579-7.81-0.513c-1.323,1.374-3.189,2.354-5.184,2.829v-1.8c1.343-0.302,2.706-1.252,3.911-3.044
	c1.885-2.81,4.02-9.597,1.548-12.83c-1.337-1.749-3.483-1.892-5.459-1.267v-2.347c2.049-0.173,4.133,0.125,5.746,1.124
	c0.649,0.4,1.196,0.945,1.625,1.623c0.177-0.573,0.328-1.239,0.486-1.718c0.188-0.575,0.295-0.521,0.937-0.521
	c1.572,0,3.29-0.017,4.328-0.006c0.559,0.006,0.457,0.242,0.305,0.764c-1.403,4.805-2.427,9.741-3.188,14.686
	c-0.153,1-0.487,3.997,1.472,2.801c0.659-0.402,1.315-1.163,1.49-1.775c1.027-4.623,2.258-12.328,3.811-15.871
	c0.241-0.556,0.202-0.596,0.757-0.601l4.479,0.001c0.527-0.006,0.515,0.132,0.352,0.599c-0.248,0.71-0.599,1.558-0.74,2.068
	c3.444-4.376,13.617-4.708,13.391,2.584c-0.118,3.823-2.06,9.795-2.284,13.076c-0.116,1.69,1.194,1.673,2.346,1.088
	c1.979-1.005,2.967-3.931,3.653-5.939c0.469-5.039,1.081-6.742,2.089-11.085c-1.151,0.087-3.081,0.235-4.301,0.327
	c-0.566,0.026-0.499-0.231-0.203-0.839c0.333-0.687,0.53-1.347,0.784-2.065c0.193-0.555,0.273-0.527,0.885-0.533l3.52-0.004
	c1.043-3.899,1.963-7.641,2.605-11.593c0.128-0.792,0.121-0.929,0.937-0.975c1.676-0.094,3.295-0.229,4.457-0.254
	c1.063-0.026,0.86,0.048,0.644,1.045c-0.862,3.967-1.818,7.817-2.788,11.776l4.307-0.001c0.354,0.003,0.364,0.005,0.356,0.378
	l-0.01,1.552c-0.008,0.317-0.011,0.342-0.524,0.374l-4.648,0.357c-0.247,1.107-4.595,16.144-2.223,17.493
	c2.377,1.354,3.956-7.052,4.104-8.151C134.401,24.423,139.618,19.207,146.111,18.989z M84.585,19.043v2.347
	c-1.414,0.448-2.738,1.289-3.615,2.217c-1.68,1.778-2.734,4.302-2.933,6.886c-0.32,4.205,2.013,7.8,5.122,8.124
	c0.467,0.047,0.945,0.023,1.426-0.086v1.8c-3.965,0.943-8.434-0.114-10.146-4.079c-2.4,2.251-6.545,3.943-10.326,4.373v-2.068
	c0.905-0.216,1.834-0.645,2.713-1.279c2.229-1.609,5.191-4.428,6.506-6.129c0.285-4.774,2.445-8.678,6.184-10.662
	C80.929,19.735,82.741,19.198,84.585,19.043L84.585,19.043z M64.112,31.338c3.488-0.343,8.029-1.671,9.06-5.313
	c1.024-3.624-2.589-6.521-6.102-6.886c-0.996-0.105-1.987-0.095-2.958,0.015v1.906c0.672-0.225,1.428-0.343,2.278-0.323
	c2.485,0.382,3.581,2.633,2.802,4.632c-0.786,2.022-2.905,3.523-5.08,4.02V31.338z M64.112,19.154v1.906
	c-4.969,1.646-5.328,9.018-5.328,9.018c1.081-0.543,3.151-0.303,4.945-0.613c0.128-0.021,0.256-0.048,0.383-0.076v1.949
	l-0.124,0.012c-1.396,0.129-3.397-0.147-4.667,0.442c-0.746,0.347-0.959,1.229-0.937,2.188c0.09,3.772,2.792,5.278,5.728,4.576
	v2.068c-0.743,0.084-1.473,0.119-2.173,0.101c-1.681-0.044-3.353-0.455-4.841-1.175c-2.986-1.443-5.237-4.126-5.345-7.582
	c-1.851,2.164-4.06,3.715-6.69,4.762c-0.266,0.105-0.532,0.201-0.803,0.288c-1.523,6.745-3.691,17.538-11.867,18.852v-2.462
	c3.462-3.119,4.999-11.771,5.715-14.672c-0.182,0.071-0.364,0.147-0.55,0.224c-2.022,0.93-4.198,2.22-4.198,2.22h-0.001
	c-0.328,0.214-0.651,0.438-0.966,0.669v-2.495c1.937-0.819,3.938-1.475,5.801-2.068l5.146-24.253
	c-2.208,0.17-4.37,0.323-6.574,0.501c-0.071,0.005-0.143,0.012-0.214,0.017c-0.128,0.009-0.252-0.004-0.322-0.052
	c-0.177-0.116-0.041-0.379,0.03-0.553c0.115-0.29,0.265-0.567,0.384-0.857c0.277-0.665,0.519-1.391,0.768-2.06
	c0.083-0.226,0.321-0.252,0.538-0.252h17.286c0.223,0,0.198,0.089,0.198,0.384l-0.015,1.404c0.003,0.465-0.009,0.548-0.396,0.579
	c-1.227,0.102-2.857,0.213-5.145,0.396l-5.257,22.529c1.273-0.627,2.485-1.408,3.614-2.455c0.462-0.447,0.928-0.933,1.387-1.442
	c1.036-1.183,1.93-2.421,2.793-3.697c0.875-1.411,1.61-2.797,2.859-4.017C57.692,21.102,60.795,19.533,64.112,19.154z
	 M32.394,39.353v2.495c-1.725,1.264-3.257,2.785-4.301,4.553c-1.217,2.058-2.796,7.278,0.801,8.056
	c1.345,0.292,2.502-0.148,3.5-1.049v2.462c-1.188,0.189-2.504,0.181-3.961-0.07c-5.982-1.03-6.977-7.581-3.303-11.674
	C27.035,42.002,29.649,40.512,32.394,39.353z"/>
</svg>
