<svg xmlns="http://www.w3.org/2000/svg" viewBox="0 0 314 113"><defs><style>.cls-1{isolation:isolate;}.cls-2{fill:#f4ae69;mix-blend-mode:multiply;}.cls-3{fill:#fff;}</style></defs><title>LOGO_orange</title><g class="cls-1"><g id="圖層_1" data-name="圖層 1"><polygon class="cls-2" points="314 89.13 6.55 112.61 14.38 107.51 5.91 104.15 13.65 98.06 5.08 93.21 12.7 85.62 4.13 80.78 11.9 75.18 3.17 68.35 10.84 61.26 2.33 57.41 10.08 51.31 1.47 45.96 9.21 39.87 0.63 35.03 8.34 28.43 -0.28 23.08 299 0.22 307.47 3.59 299.62 8.19 308.2 13.04 300.49 19.63 309.03 23.98 301.21 29.08 309.79 33.93 302.05 40.02 310.82 47.36 303.26 55.93 312.07 63.77 304.4 70.85 312.98 75.7 305.31 82.79 314 89.13"/><path class="cls-3" d="M36.39,95.48c-.18,1.79-1.68,2.82-4.5,3.09a8.62,8.62,0,0,1-2,0c-.51-.09-.76-.17-.75-.24l.17-1.66a1.45,1.45,0,0,0,.28.19,2.69,2.69,0,0,0,.82.31,4.08,4.08,0,0,0,1.27.07,2.62,2.62,0,0,0,1.74-.63,2.5,2.5,0,0,0,.6-1.5l.75-7.57,2.44-.19Zm5.46-1.2a5.29,5.29,0,0,0,.26,1.52,1.14,1.14,0,0,0,1.24.88,5,5,0,0,0,1.87-.44,4,4,0,0,0,.92-.57L45.67,97c0,.08-.24.2-.7.36a6.44,6.44,0,0,1-1.72.33l-.64,0A3,3,0,0,1,40.27,97a3.56,3.56,0,0,1-.52-2.67,5.49,5.49,0,0,1,1.19-3.22,4,4,0,0,1,2.69-1.21c1.37-.1,2.25.19,2.67.88a3.81,3.81,0,0,1,.38,2.4c0,.19,0,.35-.06.49s-.05.23-.06.29Zm1.9-3.46c-1.05.12-1.65.92-1.8,2.43L45.28,93c.15-1.54-.36-2.26-1.54-2.17m9.92,6,.08-.81a1.93,1.93,0,0,1-.66.57,3.92,3.92,0,0,1-1.77.45,2.69,2.69,0,0,1-1.7-.42,1.58,1.58,0,0,1-.56-1.54,2.45,2.45,0,0,1,1-1.82,5.71,5.71,0,0,1,2.55-.9,2.53,2.53,0,0,0,1.22-.49,1.18,1.18,0,0,0,.48-.78A.74.74,0,0,0,54,90.4a1.4,1.4,0,0,0-1-.22,4.19,4.19,0,0,0-2.12.66,4.93,4.93,0,0,0-1.05.91l.48-1.57a1.35,1.35,0,0,1,.37-.27,4.7,4.7,0,0,1,1-.46,5.93,5.93,0,0,1,1.52-.3,3.79,3.79,0,0,1,2.5.41,1.61,1.61,0,0,1,.64,1.54l-.55,5.57Zm-.94-1.13c.72-.25,1.1-.59,1.15-1L54,92.92l-.1.17a1,1,0,0,1-.36.31,2.52,2.52,0,0,1-.81.26,4.48,4.48,0,0,0-1.41.51,1.27,1.27,0,0,0-.56,1c0,.52.39.76,1.17.7a2.9,2.9,0,0,0,.75-.17M66.13,90l-.59,6-1.61.12.56-5.68q.1-1-1.37-.87A1.87,1.87,0,0,0,62,90a2.35,2.35,0,0,0-.43.63l-.55,5.62-2.16.16.77-7.76,2.16-.16-.06.63.33-.23a3.49,3.49,0,0,1,.77-.38A4.22,4.22,0,0,1,64,88.31a2.11,2.11,0,0,1,1.7.42A1.46,1.46,0,0,1,66.13,90m13.54,4.29c0,.08-.29.23-.87.46a7.69,7.69,0,0,1-2.05.46Q74,95.38,73,94t-.66-4.38a9.32,9.32,0,0,1,.77-2.79A4.46,4.46,0,0,1,74.73,85a6,6,0,0,1,2.77-.85,9.33,9.33,0,0,1,1.81,0,10.19,10.19,0,0,1,1.13.18l.28,1.8a4.49,4.49,0,0,0-1-.44,4.53,4.53,0,0,0-1.82-.17,2.44,2.44,0,0,0-2.11,1.21A6.9,6.9,0,0,0,75,89.45a15,15,0,0,0-.08,2.15,3.17,3.17,0,0,0,.45,1.55,1.41,1.41,0,0,0,1.3.62,7.24,7.24,0,0,0,1.79-.34,4.79,4.79,0,0,0,1.13-.54,2.7,2.7,0,0,0,.38-.28h0Zm5.33-2a.88.88,0,0,0,.27.78,1.07,1.07,0,0,0,.84.25,2,2,0,0,0,1.26-.5,2.16,2.16,0,0,0,.5-.68l.56-5.64L90,86.37l-.76,7.76-1.61.12.07-.72a4.57,4.57,0,0,1-1,.54,6.28,6.28,0,0,1-2,.43A1.85,1.85,0,0,1,83.24,94a1.8,1.8,0,0,1-.41-1.51l.56-5.64,2.16-.17Zm7.5,1.6L93.58,83l2.11-.16L94.63,93.72Zm9.19-7.43-.45,4.5a.93.93,0,0,0,.3.92,1.6,1.6,0,0,0,1,.15l-.11,1.1-.24,0-.4,0a3.26,3.26,0,0,1-2.11-.35A1.79,1.79,0,0,1,99.11,91l.43-4.4-1.45.11.1-1,1.45-.11.31-3.1,2.16-.17-.31,3.1,1.45-.11-.1,1Zm5.83,4.11a.88.88,0,0,0,.27.78,1.07,1.07,0,0,0,.83.25,2,2,0,0,0,1.26-.5,2.24,2.24,0,0,0,.5-.68l.56-5.64,1.61-.12-.77,7.76-1.61.12.07-.72a4.53,4.53,0,0,1-1,.54,6.34,6.34,0,0,1-2,.43,1.85,1.85,0,0,1-1.46-.47,1.81,1.81,0,0,1-.41-1.51l.56-5.64,2.16-.16ZM115,92.16l.77-7.76,2.16-.17-.09,1L118,85a2,2,0,0,1,.4-.34,3.68,3.68,0,0,1,.69-.36A3.24,3.24,0,0,1,120.2,84a2.88,2.88,0,0,1,.66,0l.08,1.1a3.19,3.19,0,0,0-.72,0,2.74,2.74,0,0,0-1.27.38,2.65,2.65,0,0,0-.93.83,2,2,0,0,0-.39.91L117.15,92Zm12.61-1,.08-.81A1.91,1.91,0,0,1,127,91a3.94,3.94,0,0,1-1.77.45,2.69,2.69,0,0,1-1.69-.41,1.58,1.58,0,0,1-.56-1.54,2.46,2.46,0,0,1,1-1.82,5.72,5.72,0,0,1,2.56-.9,2.52,2.52,0,0,0,1.21-.49,1.2,1.2,0,0,0,.49-.78.74.74,0,0,0-.31-.69,1.4,1.4,0,0,0-1-.22,4.17,4.17,0,0,0-2.12.66,4.93,4.93,0,0,0-1.05.91l.48-1.57a1.38,1.38,0,0,1,.37-.27,4.69,4.69,0,0,1,1-.46,5.91,5.91,0,0,1,1.52-.3,3.79,3.79,0,0,1,2.5.41,1.61,1.61,0,0,1,.64,1.54L129.76,91Zm-.93-1.13c.72-.25,1.1-.58,1.15-1l.17-1.77-.1.17a1,1,0,0,1-.36.31,2.57,2.57,0,0,1-.81.26,4.43,4.43,0,0,0-1.41.51,1.26,1.26,0,0,0-.57,1c0,.52.39.76,1.17.7a2.92,2.92,0,0,0,.75-.17m6.22.73L134,79.94l2.12-.16L135,90.64Zm19.68-1.5-3,.23-.79-.86-.26.23a4.18,4.18,0,0,1-.63.42,5.62,5.62,0,0,1-1.11.44,7.64,7.64,0,0,1-1.59.27c-.34,0-.6,0-.78,0q-2.85,0-2.55-3.07a3,3,0,0,1,.95-1.75,8,8,0,0,1,1.68-1.32,1.89,1.89,0,0,0-.19-.29L144,83.2a2.91,2.91,0,0,1-.46-2,2.39,2.39,0,0,1,.56-1.14,4.08,4.08,0,0,1,1.15-1,3.46,3.46,0,0,1,1.39-.43,3.58,3.58,0,0,1,2.2.42,1.57,1.57,0,0,1,.72,1.63,2.53,2.53,0,0,1-1,1.77,6.87,6.87,0,0,1-1.39.95l2.65,3a2.73,2.73,0,0,0,.72-1.11,3.5,3.5,0,0,0,.14-.64,2.19,2.19,0,0,0-.05-.71l.95-.07a5.2,5.2,0,0,1,0,.86,3,3,0,0,1-.19.82,4.58,4.58,0,0,1-.59,1,2.61,2.61,0,0,1-.43.49Zm-6-6.67a3.05,3.05,0,0,0,.94-.6,1.9,1.9,0,0,0,.82-1.29,1,1,0,0,0-.34-.9,1.72,1.72,0,0,0-1.17-.27,1,1,0,0,0-.76.49,1.81,1.81,0,0,0-.38.88,1.53,1.53,0,0,0,.33,1Zm-1.52,2.06-.27.2a2,2,0,0,0-.41.47,1.62,1.62,0,0,0-.23.74,2.3,2.3,0,0,0,.54,1.68,2.44,2.44,0,0,0,1.67.93,2.5,2.5,0,0,0,.88-.2A5.93,5.93,0,0,0,148,88Zm21.39,3c0,.08-.3.23-.87.46a7.66,7.66,0,0,1-2.05.46q-2.78.21-3.75-1.13T159.12,83a9.21,9.21,0,0,1,.77-2.79,4.45,4.45,0,0,1,1.61-1.84,6,6,0,0,1,2.77-.85,9.38,9.38,0,0,1,1.81,0,10.08,10.08,0,0,1,1.13.18l.28,1.8a4.72,4.72,0,0,0-1-.44,4.58,4.58,0,0,0-1.83-.17,2.43,2.43,0,0,0-2.1,1.21,6.82,6.82,0,0,0-.77,2.68,14.66,14.66,0,0,0-.07,2.15,3.12,3.12,0,0,0,.45,1.55,1.41,1.41,0,0,0,1.3.62,7.18,7.18,0,0,0,1.79-.34,4.86,4.86,0,0,0,1.14-.54,2.93,2.93,0,0,0,.37-.28h0Zm3,.38.77-7.76,2.16-.16-.09,1,.15-.17a2.15,2.15,0,0,1,.4-.34,3.74,3.74,0,0,1,.69-.36,3.23,3.23,0,0,1,1.14-.27,2.87,2.87,0,0,1,.66,0l.08,1.1a3.15,3.15,0,0,0-.72,0,2.76,2.76,0,0,0-1.27.38,2.62,2.62,0,0,0-.92.83,2,2,0,0,0-.39.91l-.47,4.78Zm10.32-4.25a5.23,5.23,0,0,0,.26,1.52,1.14,1.14,0,0,0,1.23.88,5,5,0,0,0,1.88-.44,4.08,4.08,0,0,0,.92-.57l-.46,1.37c0,.08-.24.2-.7.36a6.49,6.49,0,0,1-1.72.33l-.64,0a3,3,0,0,1-2.35-.79,3.55,3.55,0,0,1-.52-2.67,5.45,5.45,0,0,1,1.19-3.22,4,4,0,0,1,2.69-1.21q2-.16,2.67.88a3.82,3.82,0,0,1,.38,2.4c0,.19,0,.35-.06.49s0,.23-.06.29Zm1.9-3.46q-1.57.17-1.79,2.43l3.33-.25q.23-2.31-1.54-2.17m9.92,6,.08-.81a1.86,1.86,0,0,1-.65.57,3.94,3.94,0,0,1-1.78.45,2.69,2.69,0,0,1-1.69-.42,1.58,1.58,0,0,1-.56-1.54,2.45,2.45,0,0,1,1-1.82,5.73,5.73,0,0,1,2.55-.9,2.54,2.54,0,0,0,1.22-.49,1.19,1.19,0,0,0,.49-.78.74.74,0,0,0-.31-.69,1.41,1.41,0,0,0-1-.22,4.2,4.2,0,0,0-2.12.66,4.92,4.92,0,0,0-1,.91l.47-1.57a1.32,1.32,0,0,1,.37-.27,4.78,4.78,0,0,1,1-.46,5.92,5.92,0,0,1,1.52-.3,3.8,3.8,0,0,1,2.5.41,1.61,1.61,0,0,1,.63,1.55l-.55,5.57Zm-.93-1.13c.72-.25,1.1-.59,1.15-1l.18-1.77-.1.17a1,1,0,0,1-.36.31,2.58,2.58,0,0,1-.81.26,4.4,4.4,0,0,0-1.41.51,1.26,1.26,0,0,0-.56,1c0,.52.38.76,1.17.7a2.91,2.91,0,0,0,.75-.17m10.05-6.29-.44,4.5a.93.93,0,0,0,.3.92,1.6,1.6,0,0,0,1,.15l-.11,1.1-.24,0-.4,0a3.25,3.25,0,0,1-2.11-.35,1.8,1.8,0,0,1-.62-1.83l.43-4.4-1.45.11.1-1,1.45-.11.3-3.1,2.17-.16-.31,3.1,1.45-.11-.1,1Zm3.48,6.46.76-7.76,2.14-.16-.77,7.76Zm2.16-11a.94.94,0,0,1,.85.29,1.1,1.1,0,0,1,.24.85,1.53,1.53,0,0,1-.41.91,1.39,1.39,0,0,1-1,.44,1,1,0,0,1-.85-.3,1.07,1.07,0,0,1-.24-.83,1.54,1.54,0,0,1,.42-.91,1.38,1.38,0,0,1,1-.44m6.06,10.66-2.74-7.81,2.09-.16,1.43,4,2.23-4.31,1.31-.1Zm8.42-4.43a5.22,5.22,0,0,0,.26,1.52,1.14,1.14,0,0,0,1.24.88,5,5,0,0,0,1.87-.44,4.05,4.05,0,0,0,.92-.57l-.46,1.37c0,.08-.24.2-.7.36a6.51,6.51,0,0,1-1.72.33l-.64,0a3,3,0,0,1-2.35-.79,3.55,3.55,0,0,1-.52-2.67,5.47,5.47,0,0,1,1.19-3.22,4,4,0,0,1,2.69-1.21c1.37-.1,2.25.19,2.67.88a3.77,3.77,0,0,1,.38,2.4c0,.19,0,.35-.06.49s0,.23-.06.29Zm1.9-3.46q-1.57.17-1.8,2.43l3.34-.25c.15-1.54-.37-2.26-1.54-2.17M239,82.11c0,.08-.3.23-.87.46a7.66,7.66,0,0,1-2.05.46q-2.78.21-3.75-1.13t-.66-4.38a9.22,9.22,0,0,1,.77-2.79,4.44,4.44,0,0,1,1.61-1.84,6,6,0,0,1,2.77-.85,9.39,9.39,0,0,1,1.81,0,10.19,10.19,0,0,1,1.13.18l.28,1.8a4.68,4.68,0,0,0-1-.44,4.56,4.56,0,0,0-1.82-.18,2.44,2.44,0,0,0-2.1,1.21,6.85,6.85,0,0,0-.77,2.68,15.62,15.62,0,0,0-.08,2.15,3.14,3.14,0,0,0,.45,1.55,1.42,1.42,0,0,0,1.3.62,7.28,7.28,0,0,0,1.79-.34,4.87,4.87,0,0,0,1.13-.54,2.71,2.71,0,0,0,.37-.28h0Zm7.2-7.69a4.05,4.05,0,0,1,2.09.27,1.94,1.94,0,0,1,1,1.21,5.49,5.49,0,0,1,.13,2.15,5.16,5.16,0,0,1-1.16,3.09,4.28,4.28,0,0,1-2.92,1.17,3.08,3.08,0,0,1-2.63-.75,3.76,3.76,0,0,1-.58-2.93q.42-3.94,4-4.22m-1.91,4c0,.67-.05,1.18,0,1.52a1.68,1.68,0,0,0,.31.91,1,1,0,0,0,1,.34,1.39,1.39,0,0,0,1.29-.83,7.44,7.44,0,0,0,.46-2.12,6.61,6.61,0,0,0,0-2.09c-.12-.5-.5-.73-1.13-.68a1.54,1.54,0,0,0-1.34.87,6.85,6.85,0,0,0-.48,2.09m10.31,3.08-2.44.19.22-2.24,2.44-.19Zm3.61-2.5,2.48-.19-.22,2.24a3.5,3.5,0,0,1-.89,2.13,4.6,4.6,0,0,1-1,.83,7.66,7.66,0,0,1-.86.44l.13-1.33a3.94,3.94,0,0,0,.35-.2c.16-.1.32-.2.48-.32a1.3,1.3,0,0,0,.4-.91l.05-.54-1.1.08Zm11.69,0,5.2-.4L275,80l-7.64.58,1.07-10.86,2.44-.19Zm11.61-6.27-.45,4.5a.93.93,0,0,0,.3.92,1.58,1.58,0,0,0,1,.15l-.11,1.1-.24,0-.4,0a3.26,3.26,0,0,1-2.11-.35,1.8,1.8,0,0,1-.62-1.83l.44-4.4-1.45.11.1-1,1.45-.11.3-3.1,2.16-.17-.31,3.1,1.45-.11-.1,1Zm11.38-4.92-1.07,10.86-2.14.16,0-.47a2.56,2.56,0,0,1-.57.36A3.24,3.24,0,0,1,288,79a3.91,3.91,0,0,1-1.56-.19,1.87,1.87,0,0,1-1-1.12,5.44,5.44,0,0,1-.2-2.57,4.77,4.77,0,0,1,1.15-3.06,3.66,3.66,0,0,1,2.19-.89,4,4,0,0,1,1.94.24l.34-3.44Zm-3,9.37.46-4.71s-.1-.11-.32-.21a2.61,2.61,0,0,0-.95-.14,1.94,1.94,0,0,0-1.6.81,4.82,4.82,0,0,0-.58,2,6.53,6.53,0,0,0,0,1.7,1.49,1.49,0,0,0,.51,1,1.59,1.59,0,0,0,1.12.26,2.16,2.16,0,0,0,.93-.37c.26-.18.4-.3.41-.36m7.87,1-2.44.19.22-2.24L298,76Z"/><path class="cls-3" d="M275.7,57.3l1.1-11.11c0-.31-.13-.46-.48-.46L259.78,47c-.29,0-.47.2-.53.54l-1.1,11.11c0,.37.1.54.42.52l10.94-.83.36-3.66-7.81.6c-.09,0-.13-.06-.12-.17l.45-4.53a.15.15,0,0,1,.15-.16l10.29-.78c.11,0,.17,0,.16.13q-.41,4.18-.83,8.37l3-.22a.58.58,0,0,0,.58-.59m1.37-28.54-18.9,1.44a1.37,1.37,0,0,0-1.36,1.39c-.89,9-1,18.56-5.64,26.66l3.22,1.46c2.69-4.28,4-10.33,4.56-15.28l16.66-1.27a1.46,1.46,0,0,0,1.46-1.49L278.21,30c.08-.86-.3-1.28-1.15-1.25m-64.26.53c.77,7.38,3,14.63,8,20.24a71.33,71.33,0,0,1-16.25,10.05l-.46,4.61a90.94,90.94,0,0,0,19.29-12.1,45.39,45.39,0,0,0,17.35,9l.48-4.58c-14.89-4.17-22.67-12.12-24.45-27.5l18.6-1.42q-3.64,11.12-10.22,17.88l2.87,2.28q7.1-7.71,11.57-20.48l6.68-.51.42-4.21-18.38,1.4.51-5.18-4,.3-.51,5.18-15.12,1.15-3.74,4.46ZM188.09,63.66,190,44.86c0-.37-.13-.54-.52-.51l-25.07,1.91-5.14,6.12L157.89,66c0,.4.11.58.46.56l29.11-2.22a.63.63,0,0,0,.63-.64m-1.64-25.32,2.1-5.36,5.94-.45.38-3.84-36.81,2.81-.38,3.84,5.88-.45L164.9,40l-9.84.75-.38,3.84,41.2-3.14.38-3.84ZM143,66.31l3.73-37.77c.07-.68-.25-1-1-1l-13.89,1.06a1.16,1.16,0,0,0-1.12,1.14l-3.73,37.77c-.08.74.23,1.09.9,1l8.48-.65.4-4-5.48.42c-.11,0-.16-.07-.15-.22l3.11-31.48a.2.2,0,0,1,.19-.2l7.91-.6a.17.17,0,0,1,.2.17l-2.83,28.65-.7,7.08,2.77-.21A1.17,1.17,0,0,0,143,66.31M291.7,14.13,288,51.44a2.12,2.12,0,0,1-.53,1.37q-1.14,1.05-6.64-.37l-.59,4.18q6.66,1.56,9.05-.19a5.82,5.82,0,0,0,2.43-4.22l3.79-38.37Zm-8.25,3.94-2.82,28.56,3.83-.29,2.82-28.56Zm-22,6.27-.35,3.47,14.29-1.09.34-3.47Zm-98,4.3,27-2.06.38-3.84-23.91,1.82ZM117,56.08q3.37,6.76,5.49,12.26l3.65-2.43a154.55,154.55,0,0,0-7.57-14.72,6.68,6.68,0,0,1,.22-.84l8.48-.65.4-4-8.14.62q.55-5.58,1.1-11.15l7.22-.55.4-4-12,.91-1.27-5-8.38,14.29.67,2.66,6-7.72,3.55-.27q-.55,5.58-1.1,11.16l-6.83.52-3.58,4.27,9.67-.74c-1.66,5.8-4.37,11.34-9,15.31l-.5,5.07h0A32.77,32.77,0,0,0,117,56.08M254.45,23.29l13-7.27L267,20.66l-11.11,6.2Zm15.71-7.74,11.77,4.2-1.94,4L269.71,20Zm-87.7,23.09-13.47,1-1.33-5.1,16.85-1.29Zm2.16,21.84a.27.27,0,0,1-.2.24l-22.25,1.7c-.11,0-.15-.1-.11-.22l.4-4.08,19.91-1.52.38-3.84-19.91,1.52.39-3.93a.15.15,0,0,1,.15-.19l22.25-1.7c.11,0,.17,0,.16.17l-.21,2.08h0q-.49,4.89-1,9.78m89.22-21a.58.58,0,0,1-.58.59l-13.94,1.06.23-2.36,11.82-.9.31-3.1-11.82.9.18-1.81a.58.58,0,0,1,.58-.59l13.36-1c.38,0,.55.14.52.51v.08q-.33,3.32-.66,6.64"/><polygon class="cls-3" points="40.38 27.38 22.5 47.19 43.3 31.53 40.38 27.38"/><polygon class="cls-3" points="46.17 29.37 43.3 31.53 43.61 31.97 46.06 30.12 67.61 60.06 42.49 79.04 20.63 49.26 22.5 47.19 19.89 49.15 42.38 79.78 68.34 60.17 46.17 29.37"/><polygon class="cls-3" points="43.61 31.97 43.3 31.53 22.5 47.19 20.63 49.26 43.61 31.97"/><polygon class="cls-3" points="45.95 30.87 66.87 59.95 42.6 78.29 42.25 77.81 42.01 78.1 20.63 49.26 42.49 79.04 67.61 60.06 46.06 30.12 43.61 31.97 43.91 32.4 45.95 30.87"/><polygon class="cls-3" points="42.01 78.1 42.25 77.81 21.37 49.37 43.91 32.4 43.61 31.97 20.63 49.26 42.01 78.1"/><path class="cls-3" d="M63.17,69.91a7.25,7.25,0,0,1,0,1.43,2.79,2.79,0,0,1-.5,1.15,3.05,3.05,0,0,1-1.09,1,3.71,3.71,0,0,1-1.48.42,3.34,3.34,0,0,1-2.43-.73A3,3,0,0,1,56.5,71l1.26-.09a1.79,1.79,0,0,0,.75,1.37,2.34,2.34,0,0,0,1.61.43,2,2,0,0,0,1.1-.4,1.57,1.57,0,0,0,.58-.83l.12-.87c0-.27,0-.59,0-1L61.23,61l1.26-.1Z"/><path class="cls-3" d="M74.41,68.41,66,69a2.9,2.9,0,0,0,1.26,2.15,3.56,3.56,0,0,0,2.48.77,3.83,3.83,0,0,0,1.94-.69,3.25,3.25,0,0,0,1.25-1.57l1.3-.1A4.76,4.76,0,0,1,72.64,72a4.68,4.68,0,0,1-2.7,1.12A4.73,4.73,0,0,1,66.39,72a4.65,4.65,0,0,1-1.68-3.33,4.73,4.73,0,0,1,1.14-3.54,4.66,4.66,0,0,1,3.32-1.68,4.54,4.54,0,0,1,3.58,1.2,5.43,5.43,0,0,1,1.65,3.75m-1.34-1a3.56,3.56,0,0,0-1.43-2,3.49,3.49,0,0,0-2.36-.69,3.6,3.6,0,0,0-2.28,1,3.52,3.52,0,0,0-1.09,2.23Z"/><path class="cls-3" d="M85.69,71.77l-1.2.09-.13-1.75A3.48,3.48,0,0,1,83,71.68a4.6,4.6,0,0,1-2.09.66A5.12,5.12,0,0,1,78.7,72,4.87,4.87,0,0,1,77,71a4.71,4.71,0,0,1-1-1.43,5.2,5.2,0,0,1-.44-1.75A4.48,4.48,0,0,1,75.73,66a5.07,5.07,0,0,1,.91-1.6,5,5,0,0,1,1.48-1.23,4.91,4.91,0,0,1,2-.56,4.64,4.64,0,0,1,2.18.34,3.27,3.27,0,0,1,1.58,1.37l-.1-1.78,1.2-.09.65,8.68Zm-1.55-4.5a3.63,3.63,0,0,0-1.24-2.54,3.49,3.49,0,0,0-2.68-.88,3.62,3.62,0,0,0-2.54,1.27,3.51,3.51,0,0,0-.9,2.68,3.39,3.39,0,0,0,1.32,2.48,3.71,3.71,0,0,0,2.7.85,3.49,3.49,0,0,0,2.45-1.26,3.44,3.44,0,0,0,.9-2.61"/><path class="cls-3" d="M95.67,71l-1.25.1L94,66.22a5.29,5.29,0,0,0-.24-1.37A4.7,4.7,0,0,0,93,63.67,2.45,2.45,0,0,0,90.84,63a2.9,2.9,0,0,0-1.26.39,2.59,2.59,0,0,0-.9.85,2.32,2.32,0,0,0-.37,1.06,8.48,8.48,0,0,0,0,1.3l.37,4.89-1.25.1-.7-9.29,1.18-.09.1,1.35a3.37,3.37,0,0,1,2.77-1.78,4.2,4.2,0,0,1,1.84.26,4,4,0,0,1,1.49,1A3.73,3.73,0,0,1,95,64.45a6.81,6.81,0,0,1,.32,1.68Z"/><path class="cls-3" d="M54.4,62.37l8.84-25.21c3.2,3.3,5.21,2.43,9.7,5.21,7.87,6.26-3.35,12.91-5.56,5.37l-1,.34c2.86,8.24,14.75,3.27,10.12-5.2-3.05-5.34-8.11-5.39-10.14-10.93a12.38,12.38,0,0,0-.49-1.6h0A3.78,3.78,0,0,0,64,28L53.81,56.51c-2-3.27-6.62-4.85-11.14-3.55-5.15,1.48-8.2,6.11-6.83,10.35s6.65,6.48,11.8,5a9.87,9.87,0,0,0,6.75-5.93Z"/></g></g></svg>