<?xml version="1.0" encoding="utf-8"?>
<!-- Generator: Adobe Illustrator 16.0.0, SVG Export Plug-In . SVG Version: 6.00 Build 0)  -->
<!DOCTYPE svg PUBLIC "-//W3C//DTD SVG 1.1//EN" "http://www.w3.org/Graphics/SVG/1.1/DTD/svg11.dtd">
<svg version="1.1" id="圖層_1" xmlns="http://www.w3.org/2000/svg" xmlns:xlink="http://www.w3.org/1999/xlink" x="0px" y="0px"
	 width="272.222px" height="60px" viewBox="0 0 272.222 60" enable-background="new 0 0 272.222 60" xml:space="preserve">
<path fill="#FFFFFF" d="M70.909,49.553h-0.004c-1.275,0-3.413-0.268-5.233-1.768c-1.796-1.488-3.288-4.173-3.288-9.001h-0.002
	v-0.015v-0.002h0.002c0-3.216,0.708-6.706,2.42-9.396c1.714-2.722,4.451-4.625,8.481-4.633h0.002h0.002
	c2.581,0,4.646,1.025,6.062,2.903c1.403,1.848,2.163,4.535,2.163,7.875h0.001v0.012v0.003h-0.001c0,4.162-1.051,7.665-2.902,10.114
	c-1.854,2.48-4.518,3.908-7.7,3.908H70.909z M100.146,41.271l-0.025,0.126l-0.002,0.005l-0.018,0.133l-0.05,0.295l-0.03,0.122
	l-0.018,0.022c-0.087,0.31-0.19,0.63-0.324,0.941c-0.142,0.35-0.319,0.696-0.511,1.033c-1.01,1.736-2.682,3.348-4.834,4.471H94.33
	l-0.017,0.003c-0.639,0.329-1.297,0.604-1.95,0.808c-0.658,0.223-1.312,0.371-1.958,0.465c-3.36,0.496-6.388-0.562-7.669-2.972
	V46.72l-0.006-0.013c-0.849-1.657-0.655-3.641,0.334-5.508c0.975-1.837,2.734-3.573,5.03-4.759l0.049-0.03l0.023-0.012
	c0.549-0.285,1.107-0.531,1.663-0.728c0.547-0.203,1.104-0.362,1.655-0.468c2.611-0.542,5.067-0.134,6.733,1.133l3.83-22.904
	l-0.001-0.001l0.031-0.182l1.071-6.62l0.086-0.531l0.398,0.347c6.007,5.113,6.749,5.723,7.361,6.235
	c0.445,0.361,0.822,0.679,3.232,2.731l0.006,0.01v0.001c0.182,0.14,0.36,0.278,0.544,0.404c0.178,0.136,0.339,0.255,0.49,0.367
	c0.823,0.568,1.487,0.946,2.005,1.148c0.758,0.266,1.548,0.318,2.373,0.153c0.84-0.163,1.705-0.55,2.632-1.163v-0.007h0.002
	c0.18-0.125,0.364-0.261,0.535-0.408h0.014c0.172-0.146,0.361-0.309,0.565-0.489c0.988-0.912,2.034-2.151,3.151-3.712l0.486-0.697
	l0.063,0.848l0.112,1.797l0.006,0.103l-0.055,0.086v0.001c-0.234,0.357-0.475,0.708-0.717,1.051
	c-0.255,0.332-0.498,0.653-0.741,0.945c-1.277,1.544-2.621,2.615-3.992,3.258v0.002l-0.031,0.015c-0.335,0.159-0.672,0.3-1.018,0.41
	c-0.334,0.116-0.674,0.217-1.033,0.293c-1.785,0.398-3.638,0.265-5.56-0.416c-0.253-0.081-0.548-0.192-0.887-0.328
	c-0.33-0.125-0.73-0.291-1.17-0.478c-2.092-0.886-5.024-2.265-7.32-3.536L100.146,41.271z M189.088,49.084H182.5h-0.341l0.034-0.331
	l2.752-31.41h-3.662h-0.343l0.035-0.332l0.241-2.717l0.029-0.278h0.281h6.944h0.328l-0.034,0.331l-2.797,31.41h3.376h0.331
	l-0.034,0.332l-0.245,2.715l-0.031,0.279H189.088z M162.546,49.547c-2.241,0-3.369-1.168-3.933-2.521
	c-0.535-1.315-0.535-2.779-0.535-3.514v-0.006h0.004c0-1.751,0.372-5.352,0.778-8.89c0.216-1.815,0.438-3.541,0.607-5.018
	l0.135-1.077h-3.237h-0.329l0.034-0.328l0.247-2.719l0.031-0.275h0.262h6.745h0.357l-0.051,0.35l-0.075,0.463
	c-0.247,1.646-0.76,4.976-1.196,8.35c-0.444,3.407-0.824,6.938-0.824,9.039c0,1.198,0.217,1.859,0.514,2.215
	c0.271,0.316,0.645,0.376,0.984,0.376v0.003c0.552,0,1.402-0.285,2.393-1.062v0.005c0.418-0.325,0.848-0.729,1.305-1.241
	c2.341-2.636,4.941-7.931,6.203-17.883l0.042-0.354l0.041-0.261h0.269h2.958h0.342l-0.048,0.345L176.508,26l-0.002,0.013
	c-0.048,0.334-0.093,0.677-0.141,1.022c-0.049,0.395-0.1,0.785-0.161,1.161c-0.257,2.07-0.561,4.676-0.799,7.498v0.006
	l-0.909,10.059h3.664h0.329l-0.035,0.332l-0.239,2.715l-0.023,0.279h-0.273h-6.969h-0.337l0.04-0.336l0.749-6.395
	c-0.271,0.514-0.569,1.037-0.9,1.567C168.686,46.792,166.001,49.547,162.546,49.547 M226.855,54.097
	c-0.546,0-1.153-0.069-1.83-0.194c-0.685-0.135-1.437-0.328-2.258-0.594l-0.314-0.1l-0.231-0.071l0.029-0.24l0.242-2.743
	l0.044-0.391l0.351,0.132l0.496,0.167c0.694,0.239,1.309,0.423,1.854,0.54s1.019,0.171,1.441,0.171c2.156,0,3.596-0.716,4.582-2.678
	c1.03-2.041,1.599-5.412,1.975-10.654v-0.003l0.79-9h-3.145h-0.33l0.021-0.328l0.257-2.718l0.021-0.271h0.273h3.134
	c0.28-3.396,0.942-6.232,2.503-8.248c1.624-2.087,4.172-3.28,8.23-3.28h0.005c0.441,0.001,1.276,0.08,2.063,0.205
	c0.116,0.016,0.251,0.039,0.373,0.057c0.659,0.12,1.23,0.274,1.476,0.438l0.208,0.128l0.145,0.104l-0.01,0.174l-0.254,2.675
	l-0.025,0.392l-0.374-0.138l-0.5-0.185h-0.002l-0.004-0.002c-0.105-0.042-0.233-0.081-0.374-0.12
	c-0.141-0.043-0.287-0.078-0.448-0.114c-0.775-0.182-1.708-0.29-2.278-0.29c-2.974,0-4.634,0.817-5.603,2.26
	c-0.942,1.42-1.237,3.461-1.414,5.943h6.125h0.331l-0.038,0.329l-0.241,2.718l-0.03,0.27h-0.276h-6.147l-0.702,8.978
	c-0.338,4.676-0.801,8.804-2.199,11.787C233.372,52.25,230.998,54.097,226.855,54.097 M137.86,54.097
	c-0.532,0-1.141-0.069-1.832-0.194c-0.674-0.135-1.422-0.328-2.257-0.594l-0.301-0.1l-0.234-0.071l0.019-0.24l0.244-2.743
	l0.041-0.391l0.364,0.132l0.482,0.167c0.691,0.239,1.308,0.423,1.864,0.54c0.548,0.117,1.021,0.171,1.444,0.171
	c2.153,0,3.582-0.716,4.57-2.678c1.031-2.041,1.597-5.412,1.99-10.654v-0.003l0.776-9h-3.149h-0.328l0.034-0.328l0.243-2.718
	l0.031-0.271h0.278h3.118c0.283-3.396,0.946-6.232,2.516-8.248c1.609-2.087,4.173-3.28,8.222-3.28
	c0.453,0.001,1.29,0.08,2.064,0.205c0.132,0.016,0.263,0.039,0.375,0.057c0.654,0.12,1.244,0.274,1.484,0.438l0.197,0.128
	l0.149,0.104l-0.014,0.174l-0.243,2.675l-0.038,0.392l-0.37-0.138l-0.489-0.185h-0.003l-0.016-0.002
	c-0.104-0.042-0.232-0.081-0.36-0.12c-0.153-0.043-0.298-0.078-0.451-0.114c-0.787-0.182-1.72-0.29-2.286-0.29v-0.011
	c-2.964,0-4.637,0.821-5.591,2.271c-0.944,1.42-1.25,3.461-1.419,5.943h6.114h0.33l-0.023,0.329l-0.251,2.718l-0.02,0.27h-0.277
	h-6.146l-0.702,8.978c-0.354,4.676-0.805,8.804-2.205,11.787C144.376,52.25,142.012,54.097,137.86,54.097 M129.422,49.084h-2.953
	h-0.33l0.036-0.333l0.042-0.439l0.002-0.012c0.043-0.414,0.093-0.887,0.149-1.453l0.027-0.176l0.005-0.048
	c0.241-2.244,0.611-5.609,0.912-10.051v-0.002l0.64-8.048h-3.325h-0.329l0.035-0.328l0.239-2.719l0.02-0.275h0.275h6.555h0.332
	l-0.038,0.331l-0.419,3.955c0.493-0.956,1.097-1.871,1.856-2.63c1.256-1.262,2.926-2.121,5.239-2.121h0.005
	c0.297,0.002,0.635,0.036,0.955,0.085l0.146,0.025h0.003c0.271,0.044,0.511,0.099,0.699,0.149l0.351,0.102l0.256,0.074l-0.046,0.265
	l-0.479,2.881l-0.055,0.335l-0.326-0.094l-0.428-0.124c-0.191-0.053-0.377-0.103-0.582-0.145c-0.188-0.038-0.402-0.059-0.675-0.059
	c-6.52,0-7.95,14.881-8.419,19.8l-0.004,0.018l-0.066,0.759l-0.03,0.277H129.422z M113.133,49.547c-3.738,0-5.837-1.473-6.987-3.49
	c-1.152-1.992-1.358-4.504-1.358-6.657v-0.002c0-3.631,0.858-7.281,2.694-10.027c1.859-2.773,4.687-4.635,8.606-4.637h0.001h0.003
	c1.863,0.002,3.376,0.53,4.426,1.477c1.066,0.96,1.664,2.34,1.664,4.033v0.008v0.013c-0.004,1.042-0.218,1.973-0.586,2.814
	c-0.355,0.838-0.89,1.581-1.514,2.239c-3.086,3.21-8.808,4.368-11.574,4.759c0.023,1.131,0.12,2.606,0.731,3.823
	c0.634,1.272,1.878,2.269,4.237,2.269c1.041,0,2.072-0.246,3.077-0.603c1-0.368,1.968-0.853,2.84-1.338l0.654-0.353l0.492-0.274
	l-0.042,0.559l-0.246,3.142l-0.018,0.156l-0.124,0.08l-0.176,0.109c-0.703,0.431-1.635,0.905-2.77,1.271
	C116.019,49.291,114.677,49.547,113.133,49.547 M115.624,28.055h-0.01c-0.534,0.002-1.033,0.071-1.524,0.208
	c-0.482,0.131-0.945,0.333-1.376,0.593c-2.203,1.311-3.74,4.15-4.135,7.904c0.73-0.08,1.435-0.197,2.117-0.339
	c0.77-0.166,1.511-0.369,2.201-0.6c3.448-1.173,5.618-3.142,5.618-5.398v-0.004c0-0.28-0.062-0.878-0.438-1.392
	c-0.379-0.518-1.091-0.968-2.44-0.972v0.004h-0.013V28.055z M30.691,49.169h-3.322h-0.235h-0.063l-0.022-0.065l-0.053-0.231
	l-4.401-17.796l-7.663,17.859l-0.081,0.186l-0.019,0.048h-0.067H14.57h-3.296h-0.235h-0.074l-0.013-0.065l-0.055-0.231l-7.06-28.434
	H0.422H0.095H0l0.02-0.092l0.021-0.33l0.243-2.717l0.032-0.277l0.003-0.076h0.083h0.275h9.668h0.328h0.095l-0.006,0.093
	l-0.033,0.329l-0.242,2.715l-0.032,0.281l-0.007,0.074h-0.071h-0.276H7.728l5.711,23.048V43.5l0.009-0.038h0.002l0.004-0.007
	l7.616-18.084l-1.179-4.932h-3.414h-0.328h-0.095l0.008-0.092l0.033-0.33l0.243-2.717l0.019-0.277l0.005-0.076h0.083h0.278h9.608
	h0.331h0.094l-0.005,0.093l-0.034,0.329l-0.244,2.715l-0.033,0.281l-0.004,0.074h-0.07h-0.274h-2.309l5.598,22.359l0.001,0.004
	v0.004l0.033,0.109l0.018,0.099l0.052,0.237l0.039-0.106c0.047-0.139,0.095-0.282,0.142-0.414v-0.002v-0.002L37.8,20.439h-3.078
	h-0.329h-0.096l0.005-0.092l0.035-0.33l0.243-2.717l0.031-0.275l0.007-0.078h0.071h0.275h9.789h0.329h0.094l-0.006,0.093
	l-0.033,0.328l-0.243,2.715l-0.032,0.281l-0.005,0.074h-0.069H44.51h-2.946L31.058,48.916l-0.079,0.196l-0.015,0.057h-0.058H30.691z
	 M251.69,49.547c-3.771,0-5.877-1.47-7.05-3.49c-1.146-1.992-1.366-4.504-1.366-6.657v-0.002c0.003-3.631,0.876-7.281,2.718-10.027
	c1.865-2.773,4.718-4.635,8.649-4.637h0.005c1.855,0.002,3.384,0.53,4.427,1.477c1.067,0.96,1.662,2.34,1.665,4.033v0.008v0.013
	c-0.003,1.045-0.217,1.983-0.589,2.814c-0.368,0.843-0.892,1.586-1.516,2.242c-3.099,3.208-8.85,4.367-11.624,4.756
	c0.009,1.131,0.111,2.606,0.724,3.82c0.655,1.272,1.908,2.271,4.302,2.271c1.041,0,2.074-0.246,3.076-0.603
	c0.996-0.368,1.969-0.853,2.836-1.338l0.658-0.353l0.494-0.274l-0.043,0.559l-0.244,3.142l-0.025,0.156l-0.133,0.08l-0.163,0.109
	l-0.003,0.002c-0.208,0.121-0.417,0.246-0.646,0.372c-0.228,0.124-0.474,0.242-0.744,0.365
	C255.731,49.01,253.906,49.547,251.69,49.547 M254.181,28.059h-0.009v-0.004c-0.605,0.002-1.171,0.093-1.701,0.254
	c-0.523,0.162-1.001,0.39-1.455,0.688c-2.25,1.5-3.543,4.574-3.938,7.763c0.74-0.08,1.452-0.197,2.137-0.339
	c0.773-0.166,1.515-0.369,2.21-0.6c3.473-1.173,5.636-3.142,5.636-5.398v-0.004c0-0.28-0.05-0.878-0.425-1.392
	c-0.379-0.518-1.092-0.968-2.439-0.972v0.004H254.181z M224.714,49.084h-6.656h-0.328l0.033-0.331l1.824-20.231h-3.374h-0.333
	l0.023-0.328l0.255-2.719l0.019-0.275h0.276h6.604h0.33l-0.035,0.327l-1.826,20.231h3.445h0.329l-0.036,0.332l-0.241,2.715
	l-0.029,0.279H224.714z M221.856,19.195L221.856,19.195v-0.002c-0.704,0-1.316-0.275-1.75-0.735c-0.428-0.451-0.69-1.085-0.69-1.815
	v-0.012c0-0.961,0.358-1.699,0.879-2.195c0.521-0.507,1.219-0.762,1.913-0.765h0.005c0.727,0.003,1.359,0.282,1.798,0.765
	c0.443,0.471,0.695,1.134,0.697,1.906v0.006v0.001c0,0.833-0.292,1.542-0.803,2.049c-0.505,0.501-1.212,0.796-2.046,0.796v0.002
	H221.856z M212.611,49.084h-6.601h-0.33l0.032-0.331l2.756-31.41h-3.73h-0.329l0.03-0.332l0.247-2.717l0.017-0.278h0.278h6.956h0.33
	l-0.033,0.331l-2.756,31.41h3.377h0.329l-0.023,0.332l-0.254,2.715l-0.022,0.279H212.611z M49.87,49.547h-0.003
	c-1.275,0-3.415-0.272-5.22-1.762c-1.811-1.49-3.288-4.182-3.302-9.01h-0.001v-0.01v-0.002h0.001c0-3.221,0.718-6.703,2.419-9.396
	c1.725-2.721,4.452-4.63,8.484-4.632h0.002h0.001c2.582,0.002,4.645,1.026,6.063,2.901c1.402,1.851,2.174,4.532,2.174,7.88v0.002
	c0,4.17-1.064,7.672-2.904,10.123c-1.866,2.481-4.528,3.906-7.711,3.906H49.87z M51.842,28.059h-0.007v-0.004
	c-2.667,0.004-4.363,1.675-5.394,3.844c-1.047,2.213-1.42,4.947-1.422,6.979h0.002v0.003v0.006H45.02
	c0.002,1.117,0.118,2.97,0.814,4.524c0.667,1.514,1.887,2.749,4.083,2.758h0.021h0.003c2.513,0,4.227-1.393,5.31-3.367
	c1.112-2.02,1.563-4.666,1.563-7.104v-0.006V35.69c0-2.461-0.454-4.392-1.327-5.69c-0.843-1.265-2.069-1.943-3.644-1.945
	L51.842,28.059L51.842,28.059z M72.879,28.061h-0.003v-0.002c-2.671,0.002-4.365,1.681-5.396,3.841
	c-1.063,2.223-1.433,4.948-1.433,6.978v0.005v0.007c0,1.116,0.127,2.968,0.827,4.527c0.662,1.513,1.884,2.755,4.08,2.757h0.011
	h0.001c2.523,0,4.239-1.387,5.322-3.368c1.1-2.021,1.563-4.665,1.564-7.102h-0.005v-0.005h0.005c0-2.461-0.467-4.388-1.328-5.698
	c-0.842-1.264-2.084-1.94-3.646-1.942V28.061z"/>
<path fill="#FFFFFF" d="M261.924,18.983c0-2.847,2.302-5.149,5.15-5.149c2.834,0,5.147,2.302,5.147,5.149
	c0,2.839-2.313,5.142-5.147,5.144C264.226,24.125,261.924,21.823,261.924,18.983 M262.908,18.983
	c0.004,2.297,1.866,4.155,4.166,4.158c2.297-0.003,4.147-1.861,4.163-4.158c-0.016-2.299-1.866-4.162-4.163-4.165
	C264.774,14.821,262.912,16.685,262.908,18.983"/>
<path fill="#FFFFFF" d="M265.009,21.71v-5.231h2.314c0.467,0,0.826,0.046,1.067,0.141c0.238,0.093,0.432,0.26,0.576,0.496
	c0.144,0.237,0.222,0.505,0.222,0.79c0,0.374-0.126,0.684-0.364,0.939c-0.238,0.256-0.61,0.417-1.105,0.487
	c0.174,0.084,0.313,0.173,0.408,0.26c0.21,0.186,0.4,0.419,0.584,0.692l0.905,1.426h-0.865l-0.696-1.085
	c-0.209-0.318-0.368-0.558-0.502-0.723c-0.132-0.166-0.244-0.283-0.346-0.351c-0.113-0.068-0.215-0.114-0.319-0.139
	c-0.082-0.019-0.214-0.025-0.382-0.025h-0.815v2.323H265.009z M265.69,18.786h1.492c0.32,0,0.563-0.031,0.744-0.098
	c0.18-0.06,0.318-0.168,0.412-0.311c0.092-0.143,0.139-0.302,0.139-0.47c0-0.249-0.091-0.449-0.272-0.609
	c-0.181-0.16-0.464-0.238-0.85-0.238h-1.665V18.786z"/>
</svg>
