<svg id="圖層_1" data-name="圖層 1" xmlns="http://www.w3.org/2000/svg" viewBox="0 0 131 130"><defs><style>.cls-1{fill:#eee;}.cls-2{fill:#31c139;}.cls-2,.cls-3{fill-rule:evenodd;}.cls-3{fill:#fff;}</style></defs><title>LINE_color</title><circle class="cls-1" cx="65.52" cy="65.35" r="65.02"/><path class="cls-2" d="M66,36.61c8.21.07,15.77,2.23,22.34,7.3A24.47,24.47,0,0,1,97.51,57.1a21,21,0,0,1-3.2,17.85,48,48,0,0,1-9.66,9.92A112.43,112.43,0,0,1,66.16,97.3a9.27,9.27,0,0,1-1.82.77,1.18,1.18,0,0,1-1.58-1.44c.09-.51.35-1,.46-1.5.33-1.56.71-3.11.89-4.69.13-1.2-.5-1.73-1.71-1.84a34.86,34.86,0,0,1-20-8.06,23.29,23.29,0,0,1-8.61-16.12,21.51,21.51,0,0,1,4.66-15.3c4.69-6.12,11-9.64,18.43-11.46A36.46,36.46,0,0,1,66,36.61Z"/><path class="cls-3" d="M56.33,62.42h0c0,2,0,4.08,0,6.12A1.73,1.73,0,0,0,58,70.46a1.69,1.69,0,0,0,1.7-1.9q0-6.16,0-12.32a2.06,2.06,0,0,0-.26-1,1.55,1.55,0,0,0-1.86-.7,1.67,1.67,0,0,0-1.2,1.77C56.32,58.34,56.33,60.38,56.33,62.42Z"/><path class="cls-3" d="M48.46,67.11V66c0-3.23,0-6.45,0-9.68a1.71,1.71,0,0,0-1.7-1.93,1.73,1.73,0,0,0-1.68,2q0,6.07,0,12.16A1.71,1.71,0,0,0,47,70.48h5.87c1.18,0,1.94-.65,2-1.66s-.8-1.7-2-1.71Z"/><path class="cls-3" d="M80.7,57.82c1.46,0,2.89,0,4.31,0,1.19,0,2-.66,2-1.65A1.74,1.74,0,0,0,85,54.4q-2.9,0-5.79,0c-1.38,0-2,.65-2,2.05,0,1.22,0,2.43,0,3.64,0,2.81,0,5.63,0,8.44a1.7,1.7,0,0,0,1.92,1.94c2,0,4.08,0,6.13,0a1.64,1.64,0,0,0,1.66-1.13,1.73,1.73,0,0,0-1.7-2.26c-1.51,0-3,0-4.55,0V64.17c1.53,0,3,0,4.5,0a1.7,1.7,0,1,0,0-3.39c-.47,0-.94,0-1.41,0H80.7Z"/><path class="cls-3" d="M65.48,61.07c.23.28.33.4.43.53q2.94,4,5.89,8a1.84,1.84,0,0,0,2.07.85A1.72,1.72,0,0,0,75,68.62q0-6.21,0-12.42a1.69,1.69,0,1,0-3.37.07c0,2.26,0,4.53,0,6.79,0,.19,0,.39-.07.73l-.45-.57-5.74-7.79c-.66-.9-1.3-1.17-2.1-.92s-1.19.88-1.2,2q0,6,0,11.93c0,1.24.67,2,1.7,2s1.72-.72,1.73-2c0-1.52,0-3,0-4.56C65.48,63.07,65.48,62.16,65.48,61.07Z"/></svg>