<svg id="圖層_1" data-name="圖層 1" xmlns="http://www.w3.org/2000/svg" viewBox="0 0 162 168"><defs><style>.cls-1{fill:#c2bdb6;}.cls-2{fill:#fcfcfc;}.cls-3{fill:#cf0925;}.cls-4{fill:#1b1b18;}.cls-5{fill:#f0e9cf;}.cls-6{fill:#d74940;}.cls-7{fill:#119381;}</style></defs><title>CC2</title><path class="cls-1" d="M132.1,61.61a6.64,6.64,0,0,0-2.27-2.4,23.88,23.88,0,0,1-.37-9.58c.32-1.79-.36-2.69-1.79-3.54-6-3.56-11.85-7.21-17.77-10.83.4-1.67,1.77-1,2.74-1A40.54,40.54,0,0,0,126.72,32c2.49-.88,2.9-3,1.14-5.06l-.26-1.65c.66-.47.68-.78.26-1a2.38,2.38,0,0,0-.55-.16l-.18-1.67a6,6,0,0,0,.14-3.27,3.85,3.85,0,0,0-1.11-1.73c-.77-3.3-1-4.13-3-4.05l-.35,0c-.64,0-1.4.14-2.42.29a38.46,38.46,0,0,0-4.46.68c-1.47.3-2.93.67-4.39,1L97.68,18.83l-2.15.34c-2.19.12-4.51-.57-6.53.58a12.89,12.89,0,0,1-6.3,1.48c-4.65.1-9-1.41-13.11-3.29-2.26-1-4.44-2.21-6.61-3.44S58.67,12,56.5,10.81c-.51-.37-1.05-.68-1.58-1A38.16,38.16,0,0,0,49.77,7c-.55-.34-1.08-.72-1.65-1C45.2,4.51,44.44,4.78,43,7.64S40.27,13.31,38.66,16a3.45,3.45,0,0,0,.67,4.88c.53.5,1,1.06,1.52,1.59-.07,1.19.83,1.8,1.58,2.39,1.63,1.28,3.36,2.42,5,3.61l0,.21a80.88,80.88,0,0,1-8.24.37c-1.83-.09-2.75.34-3,1.29a2.39,2.39,0,0,0-.07.63,6,6,0,0,0,.3,1.63c-.27,1.38-1.36,1.47-2.35,1.71a3.3,3.3,0,0,0-.93.34c-1.46.88-3.55.55-4.55,2.32A54.82,54.82,0,0,0,23,53.09a1,1,0,0,0,.18.9,1.2,1.2,0,0,0,.91.28h0c.46.87,1,1.07,1.53,1a2.32,2.32,0,0,0,.42-.1,9.14,9.14,0,0,0,.86-.37l.44-.19c2.06-.82,4.09-1.75,6.17-2.53a33.46,33.46,0,0,1,3.55-1.14A21.57,21.57,0,0,1,40,50.37a66.45,66.45,0,0,0-9,9.06,65.67,65.67,0,0,0-13.9,51,61.17,61.17,0,0,0,9.49,24.3c8,12.32,18.36,21.5,32.35,26a62.76,62.76,0,0,0,33.52,1.72c17.29-3.83,31.1-12.41,40.64-27.39C148,111.75,147.54,83.28,132.1,61.61Z"/><path class="cls-2" d="M48.36,30l0,.2a78.18,78.18,0,0,1-8,.36c-2.83-.14-3.41,1-2.67,3.43-.35,1.78-2.1,1.35-3.17,2-1.41.85-3.44.54-4.4,2.24a53,53,0,0,0-5.45,15.58c-.16.79.27,1.16,1,1.14.89,1.69,2,.77,3.14.32,4-1.58,7.85-3.59,12.2-4.09a62.82,62.82,0,0,0-15.44,19,62.11,62.11,0,0,0-6.66,39,59.14,59.14,0,0,0,9.18,23.5c7.73,11.92,17.75,20.79,31.28,25.17a60.68,60.68,0,0,0,32.41,1.67c16.72-3.7,30.07-12,39.29-26.48,14.38-22.58,13.91-50.11-1-71.06A6.34,6.34,0,0,0,128,59.68a23.09,23.09,0,0,1-.36-9.27c.31-1.73-.35-2.6-1.73-3.42-5.75-3.45-11.46-7-17.18-10.47.39-1.61,1.71-1,2.65-1A39.19,39.19,0,0,0,125,33.35c2.41-.85,2.8-2.86,1.1-4.89l-.25-1.6c.86-.61.59-.93-.28-1.1l-.18-1.62c.47-1.76.55-3.45-.93-4.84-1-4.26-1-4.26-5.59-3.61a52.16,52.16,0,0,0-8.55,1.67L96.9,20.62l-2.08.32c-2.12.11-4.36-.55-6.31.56a12.46,12.46,0,0,1-6.09,1.44c-4.49.1-8.7-1.36-12.67-3.18-4.36-2-8.46-4.57-12.67-6.9a35.67,35.67,0,0,0-6.5-3.72c-.53-.33-1-.7-1.6-1C46.16,6.78,45.42,7,44,9.81s-2.64,5.48-4.19,8.09a3.34,3.34,0,0,0,.65,4.72c.52.48,1,1,1.46,1.54-.07,1.15.81,1.74,1.53,2.31C45,27.69,46.72,28.8,48.36,30Z"/><path class="cls-3" d="M110.29,17.37a52.17,52.17,0,0,1,8.55-1.67c-.11,1.45.46,2.15,2,2,.75-.07,1.63-.18,1.87,1,.85,4.16,2.07,8.24,2.44,12.49-6.37,3.21-13.42,2.32-20.8,3.15l4.34,2.21c5.72,3.5,11.43,7,17.18,10.47,1.38.83,2,1.69,1.73,3.42a23.14,23.14,0,0,0,.36,9.26,17.66,17.66,0,0,0,.18,3.09c.49,2.16-.15,2.69-2.11,1.71l-3.2-2.66c-3-1.82-5.73-4.14-8.85-5.87a80.44,80.44,0,0,1-8.22-4.78c-4.35-3.16-9.21-5.09-13.89-7.46-2-2.05-5.09-2-7.29-3.62-1.71-1.28-3.68-1.4-5.69-1.43s-4.06.27-5.92-1a1.63,1.63,0,0,0-1.75-.25c-7.05,4-14.77,6.24-22.42,8.7-7.85,2.45-15.68,5-23,8.76-.78,0-1.21-.35-1-1.14a53,53,0,0,1,5.45-15.58c1-1.7,3-1.39,4.4-2.24,1.07-.64,2.82-.21,3.17-2,2.23-1.16,4.78-1.08,7.1-1.85,1.28-.42,2.89-.32,3.53-1.94l0-.2c.82-.39,1.87-.66.25-1.55s-2.82-1.84-4.23-2.78c-.64-1.08-.06-2.07.21-3.09.84-3.22,3.11-6,2.78-9.6,0-.47.39-1.06.74-1,2.55.53,3-.68,2.45-2.79a35.66,35.66,0,0,1,6.5,3.72c-1.11,1.85-.36,2.78,1.44,3.69,4.61,2.32,9.91,2.85,14,6.74,2,1.92,6,2,9.25,1.73,4.61-.45,8.74-2.59,13-4.08l2.08-.32c.28.21.58.62.85.6A54.84,54.84,0,0,0,110,19.11C110.95,18.82,110.71,18,110.29,17.37Z"/><path class="cls-4" d="M126,64.47c2,1,2.6.45,2.11-1.71a17.66,17.66,0,0,1-.18-3.09,6.41,6.41,0,0,1,2.2,2.32c14.93,20.94,15.4,48.48,1,71.06-9.22,14.48-22.57,22.78-39.29,26.48a60.68,60.68,0,0,1-32.41-1.67C46,153.49,35.94,144.61,28.21,132.7A59.14,59.14,0,0,1,19,109.2a62.11,62.11,0,0,1,6.66-39,62.82,62.82,0,0,1,15.44-19l7.68-5c7.64-2.46,15.36-4.72,22.42-8.7a1.63,1.63,0,0,1,1.75.25c1.86,1.24,3.9.93,5.92,1s4,.15,5.69,1.43c2.21,1.65,5.28,1.57,7.3,3.62-3.63-.43-7.3-.63-10.84-1.69a5.11,5.11,0,0,0-2.91.14c-2.28.65-4.64,1.08-6.87,1.88-2,.73-4-.53-5.89.24-6.76,2.75-13.56,5.21-19.44,10A55.06,55.06,0,0,0,31.47,71.45c-3.85,7.35-6.88,15-7.2,23.5a64.6,64.6,0,0,0,4,25.23c-.17.55,0,.7.55.51,1.46,4.77,4.31,8.79,7,12.91l-.06.1.11,0,1,.48c.73,3.24,3.53,4.73,5.72,6.74l.57.48c.56.93,1.08,1.91,2.36,2l.94.72c0,.6.3.56.69.3a46.12,46.12,0,0,0,19.23,9.16l.11.17.14-.17,2,.45c-.18.61.26.66.67.87,1.74.9,3.71.19,5.48.84,1.67,1,3.17-.5,4.89-.27a15.57,15.57,0,0,0,9.42-1.2l1.61-.42c.43.71.8.52,1.14-.07l1.56-.23a23.68,23.68,0,0,0,11.29-4.07,1.35,1.35,0,0,0-.1-.23c4.46-1.49,7.89-4.65,11.53-7.37,7.7-5.76,13-13.67,16.44-22.4a55.44,55.44,0,0,0,2.39-34.14c-.7-4.52-1.85-8.88-4.67-12.61l-.61-1.51A12.74,12.74,0,0,0,126.37,66L126,65.7Z"/><path class="cls-4" d="M50.57,9.15c.53,2.11.1,3.33-2.45,2.79-.35-.07-.79.51-.74,1,.33,3.57-1.94,6.38-2.78,9.6-.27,1-.85,2-.21,3.09l-2.43-1.47c-.49-.51-.95-1.05-1.46-1.54a3.34,3.34,0,0,1-.65-4.72c1.55-2.61,2.83-5.37,4.19-8.09s2.13-3,4.94-1.63C49.53,8.45,50,8.82,50.57,9.15Z"/><path class="cls-4" d="M94.82,20.95c-4.31,1.5-8.44,3.63-13,4.08-3.24.31-7.22.19-9.25-1.73-4.1-3.89-9.41-4.42-14-6.74-1.8-.9-2.55-1.83-1.44-3.69,4.21,2.32,8.31,4.9,12.67,6.9,4,1.81,8.18,3.28,12.67,3.18a12.46,12.46,0,0,0,6.09-1.44C90.46,20.4,92.71,21.06,94.82,20.95Z"/><path class="cls-5" d="M108.71,36.52l-4.34-2.21c7.38-.83,14.43.06,20.81-3.15,1.54-.49.58-1.81.9-2.7,1.7,2,1.31,4-1.1,4.89a39.19,39.19,0,0,1-13.62,2.17C110.42,35.51,109.09,34.9,108.71,36.52Z"/><path class="cls-5" d="M48.8,46.12l-7.68,5c-4.36.5-8.21,2.5-12.2,4.09-1.13.45-2.25,1.37-3.14-.32C33.12,51.09,41,48.58,48.8,46.12Z"/><path class="cls-4" d="M126.07,28.46c-.32.89.63,2.21-.9,2.7-.38-4.25-1.59-8.33-2.45-12.49-.24-1.16-1.12-1.05-1.87-1-1.55.15-2.12-.54-2-2,4.61-.65,4.61-.65,5.59,3.61-.12,1.7-.5,3.44.93,4.84l.18,1.62a.83.83,0,0,0,.28,1.1Z"/><path class="cls-4" d="M110.29,17.37c.42.67.66,1.45-.29,1.74a54.84,54.84,0,0,1-12.25,2.12c-.27,0-.56-.39-.85-.6Z"/><path class="cls-4" d="M48.39,30.15c-.64,1.62-2.25,1.52-3.53,1.94-2.32.77-4.88.68-7.1,1.85-.74-2.41-.16-3.57,2.67-3.43A78.18,78.18,0,0,0,48.39,30.15Z"/><path class="cls-5" d="M41.95,24.15l2.43,1.47c1.41.94,2.76,2,4.23,2.78s.56,1.16-.25,1.55c-1.63-1.16-3.31-2.26-4.88-3.49C42.75,25.89,41.88,25.3,41.95,24.15Z"/><path class="cls-5" d="M125.37,24.14c-1.44-1.39-1.06-3.14-.93-4.84C125.92,20.69,125.84,22.38,125.37,24.14Z"/><path class="cls-5" d="M125.83,26.86a.83.83,0,0,1-.28-1.1C126.42,25.93,126.68,26.25,125.83,26.86Z"/><path class="cls-5" d="M46.45,144.05l-.94-.71c.06-1.67-1.29-1.65-2.36-2l-.57-.48a.81.81,0,0,0,.06-1.18c-1.91-1.87-3.86-3.71-5.79-5.56l-1-.48.07-.11-.12,0c-2.66-4.12-5.51-8.14-7-12.91,0-.37-.07-.66-.55-.51a64.6,64.6,0,0,1-4-25.23c.32-8.55,3.35-16.15,7.2-23.5A55.06,55.06,0,0,1,45.93,54.26c5.88-4.79,12.67-7.24,19.44-10,1.87-.76,3.89.49,5.89-.24,2.22-.81,4.58-1.23,6.87-1.88A5.11,5.11,0,0,1,81,42c3.54,1.06,7.21,1.26,10.84,1.69,4.68,2.37,9.54,4.3,13.89,7.46A80.44,80.44,0,0,0,114,55.94c3.12,1.73,5.81,4,8.85,5.87.73,1.56,1.25,3.29,3.15,3.9l.38.35c-.24,1.54,1.28,2.54,1.29,3.93,0,1.71,1,1.24,2,1.19l.61,1.51c-.12.42-.44.92-.31,1.24,1.51,3.61,3.67,7,3.84,11.08,0,.45.69.43,1.14.3a55.44,55.44,0,0,1-2.39,34.14c-3.42,8.72-8.74,16.63-16.44,22.4-3.64,2.72-7.07,5.88-11.52,7.37a34.8,34.8,0,0,0-11.19,4.3l-1.55.23c-.4-.34-.79-.42-1.15.07l-1.6.42c-.66-.46-1.37-.18-2.07-.16l-12.14.38c-2.11.17-4.13-.83-6.25-.46l-2-.45-.13-.17-.12.17a46.16,46.16,0,0,1-19.23-9.16C47.15,143.73,46.88,143.72,46.45,144.05Zm52.64-33.13c2.59,1.19,1.52-1.39,2.89-2.31l-3.3.18c-.7-2.35,0-3,2.89-2.5A6.12,6.12,0,0,1,101,104c.09-1.07-.75-.69-1.3-.5s-1.48-.75-1.33.38c.39,2.8-1.44,2.3-3.29,2.19,1.14.8.46,1.78.68,2.62-1,0-2,.4-3.29-.39.11,1.23,1.26,2.56-.14,2.83s-2,1.32-2.94,2.11a6.52,6.52,0,0,0-2.46,3c-.17.54-.72.67-1.33.58-2.35-.35-.34,1.4-.87,2.15-.7,1,.72.4,1.24.46,1,.1,1.83.49,1.56-1.32-.18-1.18,1-1.85,2.2-.78.7,1.42,1.47,2.75,3.45,2.48l-.16-3.11c1,.25,2.31,1.41,2.35-1a1.52,1.52,0,0,1,2.2-1.17c.21.11.63-.16.95-.26C96.75,112.85,99.47,112.13,99.09,110.92ZM52.71,124.27a3.86,3.86,0,0,1,0-.8c.32-1.64-.7-2-2-2.21-1.82-.27-.7,1-.91,1.63a1.8,1.8,0,0,1-1.61,1.21c-.68.08-.8.35-.93,1.15-.55,3.19,1.95,1,2.77,1.71.43.86-.28,1.68-.06,2.89.85-1.2,3.16.3,3-2.24,0-.18.88-.49,1.38-.57.65-.11.92-.05.94-1C55.37,123.75,53.76,124.54,52.71,124.27Zm28-54.17a16.13,16.13,0,0,1-6-1c2.32,2.53.9,5,1.75,7.24.65-.4,1.31-1.13,2.08-.32.87-.88,3.87,1.67,3.08-1.9L81.8,71c1-1.84,2.25-.75,2.46.18.45,2,1.79,1.88,3.12,1.91,2.7.07,5.41,0,8.17,0,.07-.49-.94-1.31-.05-2,1.17-.86,3.18-.88,2.83-3.14a1.24,1.24,0,0,1,.89-.41c1.06.28,1.53.36,1.27-1.11-.21-1.19-.36-1.68-1.71-1.5-2.52.33-5.06-.42-7.6,0-1,.17-1.41-.73-1.43-1.55-.06-3.33,0-6.66,0-10.67-1.08,1.52-3.14.46-3,1.3.52,2.77-2.47,2.82-3.35,4.62a22.79,22.79,0,0,0-2,4.83c-.49,2.09.7,4.22-.21,6.29A.67.67,0,0,0,80.76,70.1ZM60.27,107.94c-.81,1.2-1.72-.53-3,.3,1.53.38.12,2.27,1.74,2.53,2.12.35,1.71,1.78,1.4,3.42,2.17-1.09,2.84-.15,2.68,1.81,0,.32-.24.91.26.76,3.48-1.07,2.15,1.72,2.41,3,2.84.44,3.33-1.25,3.33-3.38.78,0,1.71.46,1.74,1,.12,2.34,1.82,2,3.52,2.19-1.34-.87.15-2.88-.72-2.84-2.56.13-2.23-1.37-2.12-2.84-.83-.36-2,.81-2.06.18-.13-2.36-1.63-3.12-3.46-3.75-.16-.06-.37-.55-.3-.63.88-1.1-.09-1.21-.76-1.56s-1.5-.79-1.4-1.74c.13-1.36-.73-.84-1.37-.84s-1.54-.17-1.29,1C61,107.15,60.5,107.48,60.27,107.94ZM98.49,89.26c.21,1.11-.95,2.14-.17,3.28.93-.68,2,0,2.82-.16s-.14-1.15,0-1.8c.1-.45.74-.89.17-1.4l-2.88.13q0-1,.06-2c.63-.21,1.12-1,1.93-.38.43.31,1.07-.26,1-.32-1.11-.59,1.34-3.2-1.89-3-1,.07-2.29-3.09-4-4.35-.11-.08.26-1.18-.55-1-2.74.71-2-1.28-2.13-2.63C91.44,76,89,74.81,89.57,78c-1,.4-2.31.38-2.25-.87.11-2.49-1.68-.65-2.43-1.06-.94-.52-.09,1.24-.64,1.78,1.65.69,3.26,1.42,3.34,3.58,2.57-1.62,2.09.65,2.21,1.83.22,2,2.85-.08,3,1.85,0,.25-.12.53-.06.76.42,1.74,3.3,1.51,3,3.8.16-.08.37-.12.46-.24C97,88.52,97.78,89.7,98.49,89.26Zm19.21,13.51c0-.56.43-1.25-.43-1.58h-1.54l-2.66-.18a7.58,7.58,0,0,0-4.35-.34c-2.62,0-1.33-1.83-1.64-3.11-.65-2.69.63-2.58,2.53-2.47,2.21.13,4.43,0,6.64,0,.48,0,1.31.32,1.37-.37.14-1.77,1.08-1.81,2.53-1.83.36,0,.31-2.25,1.09-3.24a1.9,1.9,0,0,1,.86-.59,3.33,3.33,0,0,1,1,0,1.75,1.75,0,0,0-.85-1,7.38,7.38,0,0,0-6-.63c-1.8.49-4.43-.72-4.08-2.07s-.76-2.71,0-4.29c.53-1.11-.11-2.77-.19-4.18-.1-1.79-.92-.95-1.65-.48-.79-.11-1.17.19-1,1a.32.32,0,0,0-.08.4l-1,1.16c-.67.26-2-1.26-1.94.23.07,1.8-.72,1.93-2,2-.37,0-.79-.18-.78.62,0,2.41.06,4.85.14,7.24,0,.9-.13,3.1,1.08,3.19s1.83.55,1.85,1.29c0,1.21-1.12,1-2,1.08-3.62.13-3.62.15-3.47,3.59.11,2.45.29,2.66,2.69,2.83a3.39,3.39,0,0,0,1.24-.36c.68-.24,1.17-.17,1.5.6a1.53,1.53,0,0,1-.28,1.7c-.75,1.05-1.74.32-2.61.35a20.46,20.46,0,0,1,.32,4.68c-.51,3.11-.49,5.82,2.74,7.55,1.24.66,2.85,1.89,2.64,3-.52,2.79,2.77-.28,2.34,1.77l.63-.35c-1.48-2.72.35-5.54-.05-8.19s.77-2.39,2.4-2.21l.23.06.22-.07,1.18-.52a1.83,1.83,0,0,0,.5.11c1.61.87,3.34-.11,4.86.18,2.44.47,1.77-1.57,1.72-2.15-.15-1.63-1.24,0-1.88-.26-.89-1.5-1.35-3.38-3.45-3.79C117.89,103.15,117.8,102.91,117.69,102.77ZM68.82,78.07c-.58-1.26-1.3-3.76-2.61-2.41-1.11,1.15-2.84,2.2-3.31,3.29-.91,2.1-3.21,2.73-3.91,4.75,0,0-.18.08-.25.05-1.42-.53-1.16.18-1.13,1.21.06,2.17,1.88,1.61,3,2.2.1,2.31-1.52,1.8-2.89,1.56.54,3,.54,3,3,3.5.22-1.1-.87-3,1.45-2.9s.19-2.74,2-2.82a3,3,0,0,1,1,.27c.91.31,1.24,0,.86-.87-.73-1.65.39-2,1.5-1.87,2.82.33.49-1.51.91-2.25.79-1.39,2.83.5,2.77-1.08-.09-2.44.75-2.8,2.77-1.84,0-.36.2-.68.1-.86-.43-.79.83-2.27-.7-2.43-1-.1-2.45-.11-2.43,1.89C70.92,78.67,69.7,78.41,68.82,78.07Zm-7.48-13c-1.06-1.4-2.55.18-3.7-.53a12.09,12.09,0,0,0-.94,3c0,.57.71.75,1.46.36,1.09-.56,1.88-.16,1.68,1.19-.12.83.29.93.87.89,2.47-.14,2.35,1.39,1.91,3H74c-.13-2.27-4.67-2.39-2.9-5.72l-2.62.35c-.17-.85-1-1.67-.11-2.56.51-.26.56-1.5,1.6-.65,1.24,1,2.91,1.35,4,2.62s2,.95,2.34-.68c.86-4.08-2.72-9.66-6.78-10.66-1.11-.27-2.13-.08-1.84,1.19.59,2.52-.18,5.11.63,7.58-.78-.09-1.14,1-2.16.59A9.52,9.52,0,0,0,61.34,65.07ZM49.28,107.86c-1.51-.12-2.47-.47-1.45-2.3a10.26,10.26,0,0,1,2-2.79c2-1.74.54-2.4-.95-3a3.17,3.17,0,0,0-2.58.31c-.33.15-.6.56-1.14.24-1.25-.75-1.89-.71-1.94.12-.09,1.62-1.43,1.35-2.22,1.87-.41.27-1.4.08-1.33.63.32,2.48-1.47,2.1-3.51,2.23,2.43,1,.75,1.8.34,2.68a28.27,28.27,0,0,1,8.17.24l0,.1-.06-.08c.74-1.49,1.52-1.41,2.14,0a7.76,7.76,0,0,1,.36,4.7c-1,5.09-.8,5.58,2.79,6.36.12-1.48-.35-3.48,2.31-3,.21,0,.63-.1.46-.45-1.05-2.18.6-1.85,1.79-2,.83-.09.84-.57.84-1.31,0-3.14.08-6.27.19-9.41,0-.78-.32-1.11-.87-.68s-2-1.1-2,.68c0,2.64-1.35,2.34-3.34,1.39.62,1.17,1,2.16.29,3.14A.39.39,0,0,0,49.28,107.86Zm.82-16.46.76-3.18,4.87,4.11c-.59-3.12-.29-5.76-.42-8.4-.07-1.52-.52-2.83-2.28-3.07-2.41-.33-4.06-1.24-3.69-4.09.12-.9-.58-1.2-1.37-1.3-1.38-.18-.65.88-.84,1.4-.88,2.37-.15,4.8-.25,7.2-.06,1.5-.44,1.8-1.9,1.89-2.54.14-5-.3-7.56-.22-.54,0-1.73,0-1.1.77.8,1-.72,1.84.27,2.81,1.55-2,2.31-.45,2.72.81a1.61,1.61,0,0,0,1.32,1.28c1.54.48,2,1.57,1,3.2,3.39,0,6.54-.05,9.69,0,.93,0,1.59.4,1.23,1.75-.42,1.59,0,2.84,2.06,3.28,1.32.28,2.57-.28,4,.64a5.58,5.58,0,0,1-.11-3.81c.23-.86,1-2.48-1.59-2.17-1.24.15-4.95,1.36-4.16-2.75l-2.18.36ZM81.7,83.8c2.75-1.48-.76-3.74,1.27-5.57a8.62,8.62,0,0,1-2.43.48c-1.72-.31-4.44-2.19-2.7,2,0,0-.09.15-.16.18-3.16,1.4-1.07,2.75,0,4.11-.14.1-.28.29-.43.3-2.72.19-2.64,4.4-5.79,4-.42-.05-.27.47-.27.82,0,1.24-.4,1.88-2,1.71-2-.21-.24,1.41-.75,2.13s0,.85.89.74c2-.24,3.93.5,5.94.1a.88.88,0,0,1,1,1c0,.56.11,1.34-.84,1.39-.53,0-1.08,0-1.6.07-1.14.16-3.22-1.23-2.71,1.73.12.72-.95.74-1.58,1-1.51.66-1.52,3.36-3.9,3,.07.16.21.32.2.48-.19,2.63,1.88,2.16,3.32,2.29,2.37.21,4.78-.35,7.13.32-.09,1.79.91,3.53-.16,5.55a4.74,4.74,0,0,1,2.86-.39c1.6.29,3.62.58,2.83-2.4-.22-.82.34-1.84.54-2.76a2,2,0,0,1,1.64-.47c2.57.12,5.14.25,7.74.12,2.11-.1,1.32-1.5,1.47-2.09.43-1.68-.79-.58-1.38-.62s-1-.58-1.45-1.08c-1.73-2.14-2.6-5.38-6.44-4.77a1.4,1.4,0,0,1-1.49-1.51c.11-.81.89-.74,1.69-.76a42.82,42.82,0,0,1,6.67-.11c-1.54-.72.32-2.76-1-2.79-1.75,0-2-.66-2.21-2.09-.23-1.65-1.54-.75-2.49-.88-1.57-.22.7-2.6-.93-2.49C81.83,86.77,81.94,85.28,81.7,83.8Zm10.85,38.91a18.71,18.71,0,0,0-6.77-.73c-1.08,0-1.43.09-1.21,1.26a1.21,1.21,0,0,1-1.09,1.53c-.91,0-1.21-.73-1.23-1.7q-.07-4.44-4.29-4c-.64.07-1.54-.32-1.34,1.46.47,4.18,0,4.36-3.48,3.71l0,0c-.31-1,1.13-1.33,1-2-3.7-1.46-7.33,1.68-11.14-.78,1.09,2.39.13,3-1.73,2.93-.4,0-1-.19-.81.57.71,2.71-1.14,2.28-2.71,2.23,1,3.6,4.08,2.27,6.46,2.75,1.61.32,4.37-1.19,4.55,2.06.17,3.07,0,6.16,0,9.23,2.68,0,3.94-2.37,5.11-3.75s1.75-1.95,3.14-1.58A46.76,46.76,0,0,1,77,127c.13-1.21,0-2.81,1.27-2.38s4.43-.74,3.93,2.69a46.84,46.84,0,0,0-.59,5.27c0,1.18.69,3.28,1.09,3.19,3.25-.71,2,1.69,2.37,3.36,1.06-1.26,2.28-.9,2.5.27.4,2.08,1.79,1.93,3.08,2.23-.11-3.34-.56-6.47-.24-9.63.1-1,.47-1.71,1.7-1.4a36.49,36.49,0,0,0,7.5.6c.62,0,2.33,1,1.93-1.05-.17-.88,1.21-3-1.59-2.23-.58.17-1.34-.68-1.32-1.46,0-1.72-1.18-1.16-2.05-1.26l-.15-.15c-.39-1.82-.66-3.8-3.35-2.39A.48.48,0,0,0,92.55,122.72Zm16.58-49c-.13-1.61-.46-3.27,2-2.79.83.16.57-.6.58-1.1,0-1.48-2.49-4.58-4.22-5-1.07-.28-2-.42-1.57,1.32.22.9-.23,2-1.44,1.53-1.69-.64-1.74-.06-1.2,1.25.3.73-1,2.93,1.54,1.74.16-.07.92.53.91.8C105.69,74,107.63,73.33,109.13,73.69Zm-63.7-6.78c2,1.1.29,3.45,1.39,3.19,3.6-.86,1.87,1.7,2.26,3.12,1.08-.88,2.15-.46,3.31-.18-.69-1-.27-2.47-1.78-2.88-.8-.22-1.5-.75-1.3-1.7a1.6,1.6,0,0,1,1.56-1.26c.87.06,1.25.78,1.26,1.73,0,1.67,1.56.82,2.19.91,1.06.15.21-.87.27-1.37.09-.7.82-1.75-.9-1.38-1.47.32-1.49-.67-1.49-1.79,0-1.93-1.36,0-1.95-.59-.3-.3-1.32-.5-1.14.22C49.83,67.82,48,67.18,45.43,66.92ZM106.57,131c1.75.1,3.49.49,3.49-2a.83.83,0,0,1,1-.75c.54,0,1.44.65,1.28-.48-.1-.67,0-1.65-.94-2.06s-1.83-.7-1.75-1.78c.16-2-1.37-.86-2.08-1.21-.29-.14-1.14,0-.7.59s-.9,2.45,1.33,2c.57-.11,1.67.56,1.41,1.54s-.95,1.53-2,.86a1.12,1.12,0,0,0-1.37.13C107.63,128.67,107,129.88,106.57,131ZM57.07,105.71c2.48-.18,3.32-1.14,3.49-2.62.08-.7-.71-.53-1.11-.53C57.2,102.52,58.56,104.6,57.07,105.71Z"/><path class="cls-6" d="M126,65.7c-1.9-.61-2.42-2.34-3.15-3.9L126,64.47Q126,65.08,126,65.7Z"/><path class="cls-6" d="M74.85,154.43,87,154c.7,0,1.42-.3,2.07.16a15.58,15.58,0,0,1-9.43,1.2c-1.72-.23-3.23,1.29-4.89.26Z"/><path class="cls-6" d="M134.9,85.28c-.45.14-1.12.15-1.14-.3-.17-4.09-2.32-7.47-3.84-11.08-.13-.32.2-.82.31-1.24C133,76.41,134.2,80.76,134.9,85.28Z"/><path class="cls-6" d="M93.36,153.49a34.8,34.8,0,0,1,11.19-4.3,1.7,1.7,0,0,1,.1.23A23.68,23.68,0,0,1,93.36,153.49Z"/><path class="cls-6" d="M36.85,134.15c1.93,1.85,3.88,3.69,5.79,5.56a.81.81,0,0,1-.06,1.18C40.39,138.88,37.59,137.39,36.85,134.15Z"/><path class="cls-7" d="M74.85,154.43l-.1,1.24c-1.77-.65-3.74.07-5.48-.84-.41-.21-.85-.26-.67-.87C70.72,153.6,72.74,154.6,74.85,154.43Z"/><path class="cls-6" d="M129.61,71.16c-.92.05-2,.52-2-1.19,0-1.39-1.53-2.39-1.29-3.93A12.74,12.74,0,0,1,129.61,71.16Z"/><path class="cls-6" d="M43.15,141.37c1.07.32,2.42.3,2.36,2C44.22,143.28,43.71,142.3,43.15,141.37Z"/><path class="cls-6" d="M90.66,153.79c.35-.5.74-.42,1.15-.07C91.46,154.31,91.09,154.51,90.66,153.79Z"/><path class="cls-6" d="M28.28,120.19c.48-.14.55.15.55.51C28.31,120.88,28.11,120.73,28.28,120.19Z"/><path class="cls-6" d="M46.45,144.05c.42-.33.7-.32.69.31C46.76,144.61,46.46,144.66,46.45,144.05Z"/><polygon class="cls-6" points="35.8 133.61 35.92 133.57 35.85 133.68 35.74 133.71 35.8 133.61"/><polygon class="cls-7" points="66.37 153.52 66.49 153.35 66.62 153.52 66.48 153.69 66.37 153.52"/><path class="cls-6" d="M96.55,125.24c.87.1,2.1-.47,2.05,1.26,0,.78.73,1.62,1.32,1.46,2.8-.79,1.42,1.35,1.59,2.23.4,2-1.31,1.08-1.93,1.05a36.49,36.49,0,0,1-7.5-.6c-1.23-.31-1.6.42-1.7,1.4-.32,3.16.13,6.29.24,9.63-1.29-.3-2.68-.15-3.08-2.23-.22-1.17-1.44-1.53-2.5-.27-.38-1.66.88-4.07-2.37-3.36-.4.09-1.12-2-1.09-3.19a46.84,46.84,0,0,1,.59-5.27c.5-3.43-2.56-2.24-3.93-2.69S77.1,125.83,77,127a46.76,46.76,0,0,0,.12,8.94c-1.39-.37-2,.27-3.14,1.58s-2.43,3.72-5.11,3.75c0-3.08.13-6.16,0-9.23-.18-3.26-2.94-1.74-4.55-2.06-2.39-.47-5.42.85-6.46-2.75,1.57.05,3.42.48,2.71-2.23-.2-.76.41-.58.81-.57,1.87.07,2.82-.54,1.73-2.93,3.81,2.46,7.44-.68,11.14.78.13.66-1.32,1-1,2-3.07-.24-1.72,1.8-1.64,3.19-.34.35-.59.12-.87-.1-1-.79-1.65-.26-1.91.77-.18.73-.46,1.73.68,1.92s2,0,2-1.42c0-.4-.4-.82.11-1.16.77-.2,1.75.52,2.33-.44.69-1.14-.46-1.87-.73-2.8,3.49.66,3.95.48,3.48-3.71-.2-1.78.7-1.39,1.34-1.46q4.22-.47,4.29,4c0,1,.32,1.67,1.23,1.7a1.21,1.21,0,0,0,1.09-1.53c-.22-1.16.13-1.25,1.21-1.26a18.71,18.71,0,0,1,6.77.73c-.9,1.38.06,3-.24,4.17-1,3.86,2.72.73,3,2.3.63-.57,2-.79.46-2.05-1.35-1.11-2.8-2.35-2.76-4.42,2.69-1.41,3,.57,3.35,2.39a4,4,0,0,0-.31.31C96.38,125.75,96.38,125.26,96.55,125.24ZM85.64,128c.65-.48,1.81-.59,1.93-1.5a1.44,1.44,0,1,0-2.82.13C84.81,127.14,84.63,127.94,85.64,128Zm.88,1c1.39.49,2,2,3.39.89a.82.82,0,0,0,.1-1.37C88.88,127.42,87.91,128.21,86.52,129Z"/><path class="cls-7" d="M76.4,106.14c-2.36-.67-4.77-.11-7.13-.32-1.44-.13-3.51.34-3.32-2.29,0-.15-.13-.32-.2-.48,2.38.35,2.39-2.35,3.9-3,.64-.28,1.71-.3,1.58-1-.51-3,1.57-1.58,2.71-1.73.53-.07,1.07,0,1.6-.07.94-.05.81-.82.84-1.39a.88.88,0,0,0-1-1c-2,.4-4-.33-5.94-.1-.92.11-1.38-.06-.89-.74s-1.24-2.35.75-2.13c1.56.17,1.93-.47,2-1.71,0-.35-.15-.87.27-.82,3.15.38,3.07-3.83,5.79-4,.15,0,.29-.2.43-.3,2,1.87,2.47-1.4,4-1.24.23,1.47.12,3,2.54,2.8,1.64-.11-.63,2.28.93,2.49,1,.13,2.26-.77,2.49.88.2,1.43.46,2.06,2.21,2.09,1.36,0-.5,2.07,1,2.79a42.82,42.82,0,0,0-6.67.11c-.8,0-1.58,0-1.69.76A1.4,1.4,0,0,0,84,97.24c3.84-.61,4.72,2.63,6.44,4.77.4.49.77,1,1.45,1.08s1.82-1.06,1.38.62c-.15.59.64,2-1.47,2.09-2.6.13-5.17,0-7.74-.12a2,2,0,0,0-1.64.47C80.45,106.56,78.42,104.78,76.4,106.14Zm-.35-4.89c-1.33-.08-1.42,1.21-2.15,1.73.44.54.92,1.33,1.6,1.2s1.68-.37,1.54-1.46C77,102.09,77.08,101.18,76.05,101.25Zm6.1-9c1.07,0,1.81,1.92,3,.54a.91.91,0,0,0-.11-1.22C83.77,90.14,83.17,92.23,82.15,92.27ZM71.32,104.32c.29-.39,1.19-.27,1.07-1.15s-.8-1.09-1.5-1.26-.9.38-.94.91C69.9,103.65,70.44,104.06,71.32,104.32ZM84.84,101A1.34,1.34,0,0,0,86,99.66c0-.5-.26-.94-.76-.84a1.57,1.57,0,0,0-1.45,1.35C83.7,100.67,84.11,100.93,84.84,101Zm-6.41-8c.54,0,1.19-.19,1.23-.77s-.6-1-1.24-1.17a.92.92,0,0,0-1.2.77C77.15,92.61,77.7,93,78.43,93.07Zm.89,5.44c-.64,0-1.11.13-1.17.81s.49,1.08,1.11,1.18a1,1,0,0,0,1.19-.82C80.56,98.91,79.91,98.67,79.32,98.51Zm3.37-9.4a4.73,4.73,0,0,0-1-1c-.48-.28-.82.16-.9.57-.12.6.3,1,.83,1.09S82.52,89.8,82.7,89.11Z"/><path class="cls-6" d="M109.18,77.82a.32.32,0,0,1,.08-.4.91.91,0,0,0,1-1c.73-.47,1.55-1.31,1.65.48.08,1.41.72,3.07.19,4.18-.75,1.58.39,2.82,0,4.29s2.28,2.57,4.08,2.07a7.38,7.38,0,0,1,6,.63,1.75,1.75,0,0,1,.85,1,3.33,3.33,0,0,0-1,0,1.9,1.9,0,0,0-.86.59c-.78,1-.74,3.24-1.09,3.24-1.46,0-2.39.06-2.53,1.83-.06.69-.88.36-1.37.37-2.21,0-4.44.17-6.64,0-1.9-.12-3.18-.22-2.53,2.47.31,1.29-1,3.1,1.64,3.11a3.55,3.55,0,0,0-.52,2.48c-.78.65-2,.94-1.78,2.38s1.28.84,2,1c.56.11.57.52.75.92,1.21,2.65,1.44,2.65,3.34.12,1.33,0,1.57,1.21,2.12,2.05-1.63-.17-2.81-.51-2.4,2.21s-1.43,5.47.05,8.19l-.63.35c.42-2-2.87,1-2.34-1.77.21-1.14-1.4-2.36-2.64-3-3.23-1.73-3.24-4.44-2.74-7.55a20.46,20.46,0,0,0-.32-4.68c.87,0,1.86.7,2.61-.35a1.53,1.53,0,0,0,.28-1.7c-.33-.76-.82-.84-1.5-.6a3.39,3.39,0,0,1-1.24.36c-2.41-.17-2.59-.38-2.69-2.83-.15-3.44-.15-3.46,3.47-3.59.91,0,2.05.14,2-1.08,0-.73-.65-1.2-1.85-1.29s-1-2.29-1.08-3.19c-.08-2.4-.09-4.83-.14-7.24,0-.8.41-.6.78-.62,1.27-.08,2.05-.22,2-2-.05-1.5,1.28,0,1.94-.23-.77.85.15,1.81-.22,2.77s.59.7,1.13.77c.88.12,1.36-.62.93-1C108.88,80.38,109.91,78.91,109.18,77.82Zm3.23,10.37c-.7-.45-.87-1.48-2-1.53s-1.14.62-1.07,1.39c.09,1,.45,1.71,1.58,1.74C111.93,89.81,111.88,88.88,112.41,88.19Zm-4.56,1.34c-.64.22-1.29.43-1.19,1.23a1.82,1.82,0,0,0,1.6,1.81c.86.12,1-.49,1.05-1.15A1.86,1.86,0,0,0,107.84,89.53Zm-1.21-2.11c.86-.62,0-1.27,0-1.9s.85-1.28-.05-1.87C105.15,84.94,105.15,84.94,106.64,87.42Z"/><path class="cls-6" d="M50.57,91.94l2.18-.36c-.79,4.11,2.92,2.9,4.16,2.75,2.62-.31,1.82,1.31,1.59,2.17a5.58,5.58,0,0,0,.11,3.81c-1.48-.92-2.73-.36-4-.64-2.1-.45-2.49-1.69-2.06-3.28.36-1.35-.31-1.73-1.23-1.75-3.15-.08-6.3,0-9.69,0,1-1.63.59-2.72-1-3.2a1.61,1.61,0,0,1-1.32-1.28c-.4-1.26-1.17-2.8-2.72-.81-1-1,.54-1.78-.27-2.81-.63-.81.57-.75,1.1-.77,2.52-.09,5,.36,7.56.22,1.45-.08,1.83-.39,1.9-1.89.1-2.4-.64-4.84.25-7.2.19-.52-.53-1.58.84-1.4.79.1,1.49.41,1.37,1.3C49,79.62,50.62,80.53,53,80.85c1.75.24,2.2,1.55,2.28,3.07.13,2.64-.17,5.29.42,8.4l-4.87-4.11-.76,3.18a4.6,4.6,0,0,1-1.81.19c-2.83-1-1.86.9-1.68,2.32C47.34,91.9,49.47,93,50.57,91.94ZM48.43,85.5A2.87,2.87,0,0,0,47,87.65c-.05.78.21,1.32,1.22,1.32s1.66-.61,1.63-1.35A2.37,2.37,0,0,0,48.43,85.5Z"/><path class="cls-6" d="M81.16,69.86c.91-2.07-.28-4.2.21-6.29a22.79,22.79,0,0,1,2-4.83c.88-1.8,3.87-1.85,3.35-4.62-.16-.84,1.9.22,3-1.3,0,4,0,7.34,0,10.67,0,.81.39,1.72,1.43,1.55,2.55-.42,5.08.33,7.6,0,1.35-.18,1.5.31,1.71,1.5.26,1.47-.21,1.4-1.27,1.11a1.24,1.24,0,0,0-.89.41c.35,2.26-1.67,2.28-2.83,3.14-.89.65.12,1.47.05,2-2.76,0-5.47,0-8.17,0-1.33,0-2.67,0-3.12-1.91-.21-.93-1.49-2-2.46-.18C81.71,70.58,81.7,70.08,81.16,69.86Zm4.2-2.54c-.77.14-1.35.55-1.15,1.21.28.92.42,2.19,1.89,2a1.13,1.13,0,0,0,1.14-1.43A2.37,2.37,0,0,0,85.36,67.33Zm2.86.53a2.48,2.48,0,0,0,1.34-1.46c.25-.93-.49-1.31-1.17-1.3a1.48,1.48,0,0,0-1.5,1.2C86.75,67.19,87.68,67.28,88.22,67.86Z"/><path class="cls-6" d="M49.55,107.63c.76-1,.33-2-.29-3.14,2,.94,3.35,1.24,3.34-1.39,0-1.78,1.38-.17,2-.68s.89-.1.87.68c-.11,3.13-.2,6.27-.19,9.41,0,.74,0,1.23-.84,1.31-1.19.12-2.84-.21-1.79,2,.17.35-.25.49-.46.45-2.66-.51-2.19,1.49-2.31,3-3.58-.77-3.82-1.27-2.79-6.36a7.76,7.76,0,0,0-.36-4.7c-.62-1.45-1.4-1.54-2.14,0l0,0a28.29,28.29,0,0,0-8.17-.24c.41-.88,2.09-1.64-.34-2.68,2-.12,3.82.25,3.51-2.23-.07-.55.92-.36,1.33-.63.79-.52,2.13-.25,2.22-1.87,0-.82.69-.86,1.94-.12.54.32.82-.08,1.14-.24a3.17,3.17,0,0,1,2.58-.31c1.49.59,2.9,1.25.95,3a10.26,10.26,0,0,0-2,2.79c-1,1.83-.06,2.18,1.45,2.3.45,1.79,1.69,1.44,2.9,1,.48-.16,1.18-.47.92-1.06-.62-1.37-1.66.13-2.49-.21A2.85,2.85,0,0,0,49.55,107.63Zm.07,5.52a2,2,0,0,0,.57-2c-.14-.36-.68-.31-.89-.05A1.32,1.32,0,0,0,49.62,113.15Z"/><path class="cls-6" d="M68.29,64.46c-.81-2.47,0-5.06-.63-7.58-.29-1.26.73-1.46,1.84-1.19,4.06,1,7.64,6.57,6.78,10.66-.34,1.63-1.2,2-2.34.68s-2.78-1.61-4-2.62c-1-.85-1.09.39-1.6.65Z"/><path class="cls-6" d="M68.42,67.63,71,67.28C69.28,70.61,73.82,70.73,74,73H62.62c.43-1.65.56-3.17-1.91-3-.58,0-1-.07-.87-.89.2-1.35-.59-1.75-1.68-1.19-.76.39-1.5.2-1.46-.36a12.09,12.09,0,0,1,.94-3c1.16.71,2.65-.87,3.7.53.56,1.1-.34,2.46,1.71,3.44C65.5,69.68,66.7,68.16,68.42,67.63Z"/><path class="cls-7" d="M68.82,78.07c.88.34,2.1.6,2.09-.62,0-2,1.42-2,2.43-1.89,1.53.16.27,1.64.7,2.43.1.18,0,.5-.1.86-2-1-2.86-.6-2.77,1.84.06,1.58-2-.31-2.77,1.08-.42.74,1.92,2.58-.91,2.25-1.12-.13-2.23.22-1.5,1.87.38.85,0,1.18-.86.87a3,3,0,0,0-1-.27c-1.82.08.38,2.95-2,2.82s-1.22,1.8-1.45,2.9c-2.47-.5-2.47-.5-3-3.5,1.37.23,3,.75,2.89-1.56l.28-.75c2,.5,2.49-.36,2-2.15l.78-.83c1.54.54,2.41.26,2-1.62l.77-.83c1.93.45,2.36-.36,1.76-2.07Z"/><path class="cls-3" d="M114.64,109.61c-.55-.84-.79-2-2.12-2.05l-.54-1c1.21.76,2.41-1,3.56,0,.37.32.46,1.12,1,.28.34-.54.37-1.59-.24-1.61-1.68,0-3.55-1.76-5.07.37-1.69.07-1.29-2.54-3-2.39a3.55,3.55,0,0,1,.52-2.48,7.58,7.58,0,0,1,4.35.34c-.23.64-1.49.83-.66,2,1.12,1.52,2.14-.28,3.32,0,.75.16-.22-1.12,0-1.76h1.54c0,.56-.17,1.18.43,1.58.11.14.2.38.33.4,2.1.41,2.56,2.3,3.45,3.79-1.21,1.28-3.51.35-4.45,2.19,0,0-.16,0-.25,0a1.83,1.83,0,0,1-.5-.11c0-.36-.18-.79-.57-.74-.74.09-.51.78-.61,1.26l-.22.07Z"/><path class="cls-7" d="M98.49,89.26c-.71.44-1.52-.74-2.21.15-.1.13-.31.16-.46.24.25-2.29-2.63-2.06-3-3.8-.06-.24.08-.51.06-.76-.18-1.93-2.8.19-3-1.85-.13-1.19.35-3.45-2.21-1.83-.08-2.16-1.69-2.89-3.34-3.58.54-.54-.31-2.29.64-1.78.75.41,2.54-1.43,2.43,1.06-.06,1.26,1.22,1.27,2.26.87l.85.84c-.77,1.94,0,2.51,1.87,2.1l.45.88c-.09,1.59.37,2.56,2.22,2l.76.85c-.25,1.63.26,2.46,2,1.92l.73.82-.06,2Z"/><path class="cls-7" d="M60.27,107.94c.24-.46.78-.79.65-1.41-.25-1.2.57-1,1.29-1s1.51-.52,1.37.84c-.09.95.7,1.38,1.4,1.74s1.64.45.76,1.56c-.07.09.13.58.3.63,1.83.63,3.32,1.39,3.46,3.75,0,.63,1.22-.54,2.06-.18-.11,1.47-.44,3,2.12,2.84.87,0-.62,2,.72,2.84-1.7-.19-3.4.15-3.52-2.19,0-.52-1-1-1.74-1l-3.53-2.88c.33-2.09-.26-2.71-2-2.09l-.65-.54c1.2-2.3-.2-2.61-2-2.61Z"/><path class="cls-7" d="M109.13,73.69c-1.5-.37-3.44.26-3.35-2.29,0-.27-.75-.88-.91-.8-2.57,1.19-1.23-1-1.54-1.74-.54-1.3-.49-1.88,1.2-1.25,1.21.45,1.66-.63,1.44-1.53-.42-1.74.5-1.59,1.57-1.32,1.73.45,4.26,3.55,4.22,5,0,.51.25,1.26-.58,1.1C108.66,70.42,109,72.09,109.13,73.69Zm-2-5.91a1.43,1.43,0,0,0-1,1.43,1.71,1.71,0,0,0,1.71,1.67c1.09,0,.68-1.09.72-1.5C108.65,68.59,107.84,68.12,107.1,67.79Z"/><path class="cls-6" d="M65.61,113.47l3.53,2.88c0,2.13-.5,3.82-3.34,3.38-.26-1.25,1.07-4-2.41-3-.5.15-.29-.43-.26-.76.16-2-.52-2.9-2.68-1.81.32-1.64.73-3.07-1.4-3.42-1.62-.27-.21-2.15-1.74-2.53,1.24-.83,2.15.91,3-.3l.71.29c-.23,1.56-.68,3.28,2,2.61l.65.54C63.31,113,63.25,114.39,65.61,113.47Z"/><path class="cls-6" d="M95.72,84.61,95,83.76c.36-2.62.12-2.84-2.22-2l-.45-.88c.57-1.77.22-2.72-1.88-2.1L89.57,78c-.55-3.17,1.87-2,3.3-2.24.13,1.34-.61,3.33,2.13,2.63.8-.21.44.89.55,1,1.67,1.26,3,4.43,4,4.35,3.23-.24.78,2.37,1.89,3,.11.06-.52.63-1,.32-.82-.59-1.31.17-1.93.38l-.73-.82a1.92,1.92,0,0,0-.48-2.76C96.35,83.09,96.32,84.45,95.72,84.61Z"/><path class="cls-6" d="M66.32,81l-.77.83c-.71-.12-1.27-1.1-2.15-.22s-.25,1.26.17,1.84l-.78.84c-1.12-1-2.16-.23-2.81.45s.62,1.08.85,1.7l-.28.75c-1.07-.59-2.9,0-3-2.2,0-1-.29-1.75,1.13-1.21.07,0,.23,0,.25-.05.7-2,3-2.65,3.91-4.75.47-1.09,2.21-2.14,3.31-3.29,1.31-1.36,2,1.15,2.61,2.41l-.73.85c-.55-.4-1.09-1-1.75-.16S65.4,80.24,66.32,81Z"/><path class="cls-6" d="M81.7,83.8c-1.51-.16-1.94,3.11-4,1.24-1.11-1.36-3.2-2.71,0-4.11.07,0,.17-.15.16-.18-1.74-4.22,1-2.35,2.7-2A8.62,8.62,0,0,0,83,78.24C80.94,80.07,84.45,82.32,81.7,83.8Z"/><path class="cls-7" d="M45.43,66.92c2.58.26,4.4.9,3.69-2-.18-.72.84-.52,1.14-.22.59.59,1.94-1.34,1.95.59,0,1.12,0,2.1,1.49,1.79,1.72-.37,1,.68.9,1.38-.07.5.79,1.52-.27,1.37-.63-.09-2.15.76-2.19-.91,0-.95-.39-1.67-1.26-1.73a1.6,1.6,0,0,0-1.56,1.26c-.2,1,.49,1.48,1.3,1.7,1.51.42,1.09,1.91,1.78,2.88-1.16-.28-2.23-.7-3.31.18-.39-1.42,1.34-4-2.26-3.12C45.72,70.37,47.46,68,45.43,66.92Z"/><path class="cls-7" d="M89.77,117.35c-1.23-1.07-2.37-.4-2.2.78.27,1.81-.6,1.43-1.56,1.32-.52-.06-1.93.53-1.24-.46.53-.75-1.48-2.5.87-2.15.61.09,1.16,0,1.33-.58a6.52,6.52,0,0,1,2.46-3c.94-.8,1.42-1.82,2.94-2.11s.25-1.6.14-2.83c1.24.79,2.27.4,3.29.39l0,0,.08,3.09-.61.15c-1.08-.89-1.69-.08-2.46.57-.6.5,1.32,1.93-.75,1.75a2.22,2.22,0,0,0-2.3,1.28c-.1.23.59.8.91,1.22Z"/><path class="cls-6" d="M81.65,74.17c.78,3.57-2.21,1-3.08,1.9-.77-.81-1.43-.08-2.08.32-.86-2.27.57-4.71-1.75-7.24a16.13,16.13,0,0,0,6,1C80.51,71.58,79.57,73.2,81.65,74.17Z"/><path class="cls-6" d="M76.4,106.14c2-1.36,4,.42,6.07,0-.2.93-.76,1.95-.54,2.76.79,3-1.23,2.69-2.83,2.4a4.74,4.74,0,0,0-2.86.39C77.31,109.67,76.31,107.93,76.4,106.14Z"/><path class="cls-7" d="M106.57,131c.39-1.13,1.06-2.34-.42-3.16a1.12,1.12,0,0,1,1.37-.13c1.1.67,1.8.06,2-.86s-.85-1.64-1.41-1.54c-2.23.42-.82-1.41-1.33-2s.41-.73.7-.59c.71.34,2.24-.76,2.08,1.21-.09,1.08.94,1.42,1.75,1.78s.84,1.4.94,2.06c.17,1.13-.74.53-1.28.48a.83.83,0,0,0-1,.75C110.05,131.5,108.31,131.1,106.57,131Z"/><path class="cls-3" d="M68.42,67.63c-1.72.53-2.93,2.06-5.38.88-2-1-1.15-2.34-1.71-3.44a9.52,9.52,0,0,1,4.8,0c1,.37,1.38-.67,2.16-.59l0,.61C67.44,66,68.25,66.78,68.42,67.63Z"/><path class="cls-7" d="M50,127c-.83-.68-3.32,1.48-2.77-1.71.14-.79.25-1.07.93-1.15a1.8,1.8,0,0,0,1.61-1.21c.22-.6-.9-1.89.91-1.63,1.3.19,2.32.56,2,2.21a3.86,3.86,0,0,0,0,.8l0,0c-2.58-.78-2.83.76-2.69,2.69Z"/><path class="cls-7" d="M95.79,108.68c-.21-.84.47-1.81-.68-2.62,1.86.11,3.68.61,3.29-2.19-.16-1.12.87-.22,1.33-.38s1.39-.58,1.3.5a6.12,6.12,0,0,0,.55,2.29c-2.89-.51-3.6.15-2.89,2.5l-.84.24-2.1-.39Z"/><path class="cls-7" d="M52.71,124.27c1.05.28,2.66-.52,2.61,1.74,0,1-.29.93-.94,1-.5.08-1.39.39-1.38.57.12,2.54-2.19,1-3,2.24-.23-1.21.49-2,.06-2.89v0c1.86.06,2.83-.75,2.69-2.69Z"/><path class="cls-3" d="M93.05,122.71c0,2.07,1.41,3.32,2.76,4.42,1.54,1.26.16,1.48-.46,2.05-.32-1.57-4,1.56-3-2.3.3-1.17-.65-2.78.24-4.17A.48.48,0,0,1,93.05,122.71Z"/><path class="cls-6" d="M95.21,111.88l.61-.15c1.28.47,1.92-1.09,3.08-1l.19.17c.38,1.21-2.34,1.93-.54,3.37-.32.1-.73.37-.95.26a1.52,1.52,0,0,0-2.2,1.17c0,2.41-1.34,1.25-2.35,1l0,0c-.19-1.15-1.06-2.46,1.3-2.51C95.68,114.22,95.87,113,95.21,111.88Z"/><path class="cls-6" d="M116.77,109.19c.09,0,.23,0,.25,0,.94-1.84,3.24-.91,4.45-2.19.64.27,1.72-1.37,1.88.26.05.57.72,2.62-1.72,2.15C120.11,109.08,118.38,110.06,116.77,109.19Z"/><path class="cls-7" d="M98.44,89.3l2.88-.13c.57.51-.07,1-.17,1.4-.14.65,1,1.61,0,1.8s-1.89-.52-2.82.16c-.78-1.13.37-2.17.17-3.28Z"/><path class="cls-7" d="M57.07,105.71c1.48-1.11.13-3.19,2.38-3.15.41,0,1.19-.17,1.11.53C60.4,104.57,59.55,105.53,57.07,105.71Z"/><path class="cls-6" d="M89.77,117.35l.85-.66c.8,1.08,1.66-.18,2.48.07l0,0,.16,3.11C91.23,120.1,90.47,118.77,89.77,117.35Z"/><path class="cls-6" d="M115.72,101.2c-.22.63.75,1.92,0,1.76-1.17-.26-2.2,1.54-3.32,0-.84-1.13.43-1.32.66-2Z"/><path class="cls-3" d="M109.18,77.82c.73,1.1-.3,2.56.88,3.67.44.41,0,1.15-.93,1-.54-.07-1.53.28-1.13-.77s-.55-1.92.22-2.77Z"/><path class="cls-6" d="M97.84,109l.84-.24,3.3-.18c-1.36.92-.3,3.49-2.89,2.31l-.19-.17Z"/><path class="cls-3" d="M50.57,91.94c-1.1,1.1-3.23,0-4,2-.18-1.43-1.15-3.29,1.68-2.32a4.6,4.6,0,0,0,1.81-.19Z"/><path class="cls-3" d="M49.55,107.63a2.85,2.85,0,0,1,1,0c.84.34,1.87-1.16,2.49.21.27.59-.43.9-.92,1.06-1.21.41-2.45.76-2.9-1A.38.38,0,0,1,49.55,107.63Z"/><path class="cls-3" d="M81.65,74.17c-2.08-1-1.14-2.6-.89-4.07a.67.67,0,0,1,.41-.24c.54.22.55.72.64,1.18Z"/><path class="cls-6" d="M115.09,109.6c.1-.48-.12-1.17.61-1.26.39,0,.52.38.57.74Z"/><path class="cls-3" d="M110.28,76.4a.91.91,0,0,1-1,1C109.11,76.59,109.48,76.29,110.28,76.4Z"/><path class="cls-6" d="M117.69,102.77c-.6-.4-.43-1-.43-1.58C118.12,101.52,117.68,102.21,117.69,102.77Z"/><polygon class="cls-6" points="44.63 108.11 44.69 108.19 44.65 108.09 44.63 108.11"/><path class="cls-5" d="M73.15,124.27c.27.93,1.42,1.66.73,2.8-.58,1-1.56.24-2.33.44h0c-.08-1.39-1.43-3.43,1.64-3.19Z"/><path class="cls-5" d="M71.55,127.51c-.51.35-.13.76-.11,1.16,0,1.42-1,1.59-2,1.42s-.86-1.19-.68-1.92c.26-1,.86-1.56,1.91-.77.29.22.54.45.87.1Z"/><path class="cls-5" d="M85.64,128c-1,0-.83-.85-.89-1.38a1.44,1.44,0,1,1,2.82-.13C87.45,127.4,86.29,127.5,85.64,128Z"/><path class="cls-5" d="M86.52,129c1.39-.83,2.36-1.61,3.49-.48a.82.82,0,0,1-.1,1.37C88.55,131,87.91,129.52,86.52,129Z"/><path class="cls-3" d="M96.55,125.24c-.17,0-.17.51-.45.16a4,4,0,0,1,.31-.31Z"/><path class="cls-6" d="M76.05,101.25c1-.06.91.84,1,1.47.14,1.09-.89,1.33-1.54,1.46s-1.16-.66-1.6-1.2C74.64,102.46,74.73,101.17,76.05,101.25Z"/><path class="cls-6" d="M82.15,92.27c1,0,1.62-2.12,2.91-.68a.91.91,0,0,1,.11,1.22C84,94.18,83.22,92.26,82.15,92.27Z"/><path class="cls-6" d="M71.32,104.32c-.88-.26-1.42-.66-1.36-1.51,0-.53.18-1.09.94-.91s1.39.43,1.5,1.26S71.61,103.93,71.32,104.32Z"/><path class="cls-6" d="M84.84,101c-.73-.09-1.14-.35-1.1-.84a1.57,1.57,0,0,1,1.45-1.35c.5-.1.79.33.76.84A1.34,1.34,0,0,1,84.84,101Z"/><path class="cls-6" d="M78.43,93.07c-.73-.09-1.28-.45-1.21-1.18a.92.92,0,0,1,1.2-.77c.64.14,1.3.46,1.24,1.17S79,93,78.43,93.07Z"/><path class="cls-6" d="M79.32,98.51c.58.16,1.24.4,1.13,1.16a1,1,0,0,1-1.19.82c-.62-.09-1.17-.4-1.11-1.18S78.69,98.47,79.32,98.51Z"/><path class="cls-6" d="M82.7,89.11c-.18.68-.6.77-1,.67s-1-.49-.83-1.09c.08-.41.42-.85.9-.57A4.73,4.73,0,0,1,82.7,89.11Z"/><path class="cls-5" d="M112,106.54l.54,1c-1.9,2.53-2.13,2.53-3.34-.12-.19-.41-.19-.81-.75-.92-.74-.15-1.84.48-2-1s1-1.73,1.78-2.38c1.76-.15,1.36,2.45,3,2.39Z"/><path class="cls-5" d="M112.41,88.19c-.53.69-.47,1.61-1.45,1.59-1.13,0-1.49-.78-1.58-1.74-.07-.77,0-1.44,1.07-1.39S111.7,87.74,112.41,88.19Z"/><path class="cls-5" d="M107.84,89.53a1.86,1.86,0,0,1,1.47,1.88c0,.67-.19,1.27-1.05,1.15a1.82,1.82,0,0,1-1.6-1.81C106.56,90,107.2,89.75,107.84,89.53Z"/><path class="cls-3" d="M106.64,87.42c-1.49-2.48-1.49-2.48,0-3.77.91.59.06,1.25.05,1.87S107.5,86.79,106.64,87.42Z"/><path class="cls-5" d="M48.43,85.5a2.37,2.37,0,0,1,1.46,2.12c0,.74-.6,1.36-1.63,1.35S47,88.43,47,87.65A2.87,2.87,0,0,1,48.43,85.5Z"/><path class="cls-5" d="M85.36,67.33a2.37,2.37,0,0,1,1.88,1.83,1.13,1.13,0,0,1-1.14,1.43c-1.47.14-1.61-1.12-1.89-2C84,67.88,84.59,67.47,85.36,67.33Z"/><path class="cls-5" d="M88.22,67.86c-.54-.57-1.47-.67-1.34-1.56a1.48,1.48,0,0,1,1.5-1.2c.69,0,1.42.37,1.17,1.3A2.48,2.48,0,0,1,88.22,67.86Z"/><path class="cls-3" d="M49.62,113.15a1.32,1.32,0,0,1-.31-2.07c.21-.25.75-.31.89.05A2,2,0,0,1,49.62,113.15Z"/><path class="cls-5" d="M60.84,86.42c-.23-.62-1.48-1-.85-1.7s1.69-1.47,2.81-.45C63.32,86.05,62.83,86.92,60.84,86.42Z"/><path class="cls-5" d="M66.32,81c-.93-.75-.58-1.49,0-2.23s1.2-.24,1.75.16C68.69,80.62,68.25,81.44,66.32,81Z"/><path class="cls-5" d="M63.58,83.43c-.42-.58-.92-1.09-.17-1.84s1.44.1,2.15.22C66,83.69,65.12,84,63.58,83.43Z"/><path class="cls-6" d="M112,106.54l-.75-1c1.52-2.13,3.39-.42,5.07-.37.61,0,.58,1.07.24,1.61-.54.85-.64,0-1-.28C114.39,105.51,113.19,107.3,112,106.54Z"/><path class="cls-5" d="M95.72,84.61c.6-.16.63-1.52,1.57-.84a1.92,1.92,0,0,1,.48,2.76C96,87.07,95.48,86.24,95.72,84.61Z"/><path class="cls-5" d="M90.42,78.82c2.1-.62,2.44.33,1.88,2.1C90.43,81.33,89.65,80.76,90.42,78.82Z"/><path class="cls-5" d="M92.75,81.81c2.33-.89,2.58-.67,2.22,2C93.12,84.36,92.66,83.39,92.75,81.81Z"/><path class="cls-5" d="M63,110.84c-2.68.67-2.23-1.06-2-2.61C62.77,108.23,64.17,108.54,63,110.84Z"/><path class="cls-5" d="M65.61,113.47c-2.36.92-2.3-.47-2-2.09C65.35,110.75,65.94,111.38,65.61,113.47Z"/><path class="cls-5" d="M107.1,67.79c.74.33,1.55.8,1.47,1.6,0,.41.37,1.54-.72,1.5a1.71,1.71,0,0,1-1.71-1.67A1.43,1.43,0,0,1,107.1,67.79Z"/><path class="cls-5" d="M93.1,116.76c-.82-.25-1.69,1-2.48-.07-.33-.42-1-1-.91-1.22A2.22,2.22,0,0,1,92,114.2c2.07.17.15-1.25.75-1.75.77-.65,1.38-1.46,2.46-.57.66,1.12.47,2.34-.8,2.37C92,114.31,92.91,115.61,93.1,116.76Z"/><path class="cls-5" d="M97.84,109l1.06,1.72c-1.17-.11-1.8,1.45-3.08,1l-.08-3.09Z"/><path class="cls-5" d="M52.69,124.29c.14,1.94-.83,2.75-2.69,2.69C49.86,125,50.12,123.5,52.69,124.29Z"/></svg>