<svg id="圖層_1" data-name="圖層 1" xmlns="http://www.w3.org/2000/svg" viewBox="0 0 162 168"><defs><style>.cls-1{fill:#c2bdb6;}.cls-2{fill:#1c1513;}.cls-3{fill:#d9cdc5;}.cls-4{fill:#cda580;}.cls-5{fill:#676161;}.cls-6{fill:#ad1a16;}.cls-7{fill:#fdfdfd;}</style></defs><title>CC5</title><path class="cls-1" d="M119.35,45.29a59.51,59.51,0,0,1,10.62,5c1,.65,1.88,1.75,3.33,1.34l5.24,5.07A7.79,7.79,0,0,0,143.78,62c1.49.73,1.44,3,3.51,3.68l-1.7-6.93c0-1.54.19-3.17-1.35-4.22a1.15,1.15,0,0,0,0-.51c.23-1.57.92-3.37-1.74-3.51h0l-.1-.56c-3.18-2.71-5.94-5.89-9.38-8.33-.49-.35-1.55.11-1.49-.86.12-1.95-1.57-2.28-2.7-3-2.2-1.36-4.52-2.52-6.79-3.77a1.89,1.89,0,0,1,1.39-1.32c3.84-.74,6.81-2.89,7.11-6.78a28,28,0,0,0-.89-10.66c-.08-.26-.58-.4-.89-.59-.22-1.82-1.81-1.89-3.06-2.4-.53-.87-1.08-1.69-2.3-1.06-3-1.89-6.13-.72-9.22-.41-1.77,1.26-4,1.35-5.9,2.24-3.11.07-5.69,1.67-8.17,3.19a16.18,16.18,0,0,1-11.56,2.39c-1.59-.28-1.73.48-2,1.59-.61,2.52-3.13,3.33-4.26,1.11-1.79-3.54-4.71-2.86-7.47-3.07a6,6,0,0,1-4.6-2.4A30.06,30.06,0,0,0,57.15,6.66a14.36,14.36,0,0,0-9.06-.59c-2.23.62-4.19,1.6-4.23,4.38h0L43.58,13l-.18,1.67-.51,1.12c-1.27,2.52.93,4.22,1.47,6.32h0c-.34,1.38,1.58,1.54,1.51,2.78L42.26,25a.84.84,0,0,0-1.44.05c-.84.14-.75.72-.6,1.31-.53.51-.71,1-.09,1.61-.19,1.23-1.1,1.34-2.11,1.43-3.34.28-6.67.67-10,.91-1.24.09-2.06.39-2,1.81h0a1.6,1.6,0,0,0-.95,1.79c-.27.88-1,1.62-.76,2.65L23.3,39l-1,2.25-.72,2.95.6-.13-.6.13c-.3.68-.38,1.29.51,1.6.19,1.66,1,1.76,2.6,1.57,6.39-.79,12.72-2.31,19.23-2-1.08,1-2.14,1.93-3.23,2.88C26.45,60.53,18.89,76,18.57,94.79c-.23,13.4,4.2,25.47,11.09,36.76.19,1.91.73,3.57,2.93,4h0a2.54,2.54,0,0,0,.64,2.12A58.09,58.09,0,0,0,52.44,153a65.16,65.16,0,0,0,38.79,6.37c12.64-1.72,23.36-7.26,32.78-15.53,7.33-6.44,12.48-14.46,16.23-23.46a58.72,58.72,0,0,0,5-23.48,60.93,60.93,0,0,0-4.59-22.1c-1-2.58-1.18-5.69-3.83-7.48a.56.56,0,0,1-.17-.46,1,1,0,0,0-1-1.28c-.69-.16-.51-.75-.61-1.21.17-.92-.06-1.57-1.11-1.69a82.64,82.64,0,0,0-11.33-13.28c-1.58-1.44-3.85-2-5-4a19.86,19.86,0,0,1-2-1,19.87,19.87,0,0,0,2,1C118.13,44.54,118.77,45.05,119.35,45.29Zm20.24,5.82-.06.06ZM143,55.19h0a3,3,0,0,0,.69-.14A3,3,0,0,1,143,55.19ZM137.19,105a.63.63,0,0,1-.1.26A.63.63,0,0,0,137.19,105ZM42.39,41.31l.1-1.82h0l-.1,1.82,3-.11L45,39.33h0l.38,1.87,6.2-.7,0-1.79h0l0,1.79-6.2.7Zm58.4-22.15A3.63,3.63,0,0,0,104,17.71a3.63,3.63,0,0,1-3.19,1.45,1.79,1.79,0,0,1-1,.69A1.79,1.79,0,0,0,100.79,19.16ZM29.95,36.46a2.26,2.26,0,0,1,.39,1.43h0A2.26,2.26,0,0,0,29.95,36.46Zm16.71-17c-.15-.06-.13-.28-.16-.46C46.52,19.2,46.51,19.42,46.66,19.48Zm.37-.07.71.48a.47.47,0,0,0,0,.38.47.47,0,0,1,0-.38L47,19.42Zm59.61,11.9c.49.07,1,.07,1.47.14a2.79,2.79,0,0,1,1.38.52,2.79,2.79,0,0,0-1.38-.52c-.49-.07-1-.07-1.47-.13-3-1.19-6.07-1.57-9.35-2.16C100.56,29.74,103.68,30.13,106.64,31.31Zm7.09-13.48h0c-.91-.71-1.13-.87-.84-1.11C112.6,17,112.82,17.13,113.73,17.83Zm3.16,1.42a5.77,5.77,0,0,0,2.77,1.31,5.78,5.78,0,0,1-2.77-1.31ZM106.77,33h0c.91.13,1.58,1.08,2.62.75,1.7.31,3.39.69,5.18,1-1.79-.3-3.48-.68-5.18-1-1,.34-1.71-.62-2.62-.75-2.47-.84-5.07-1.17-7.59-1.85C101.69,31.8,104.3,32.12,106.77,33Zm-18.7,67.72a3.11,3.11,0,0,0-.08-1h0A3.11,3.11,0,0,1,88.07,100.68Zm17.59-56-.27-.17.27.17ZM85.32,93.24c.21-.66-.72-1.82-.56-2.63h0C84.6,91.42,85.53,92.58,85.32,93.24Zm13.16,9.34a1.7,1.7,0,0,1-1.54-.38,1.89,1.89,0,0,1-.43-.78,1.89,1.89,0,0,0,.43.78,1.7,1.7,0,0,0,1.54.38c.12-.4.33-.77.47-1.16C98.82,101.81,98.6,102.18,98.48,102.58Zm-21.66,5.77a2.15,2.15,0,0,1-.18-.53A2.15,2.15,0,0,0,76.82,108.36Zm-.05-1.58a3.3,3.3,0,0,1-.35-1.22,3.3,3.3,0,0,0,.35,1.22ZM74.15,80h0c-.73-.64-1.68-.1-2.51-.21C72.47,79.86,73.42,79.32,74.15,80Zm-1.73,5.37a.48.48,0,0,0,0,.42.48.48,0,0,1,0-.42l-1.72-.58Zm-.12,1.59.1,0Zm.19.1a1.06,1.06,0,0,1-.22-.62,1.06,1.06,0,0,0,.22.62l1.7,0,.12-1.21.11-.25-.11.25L74.19,87l.57.38L74.19,87l-1.7,0Zm7.12,8.06c-.09-.52-.2-1-.25-1.54C79.41,94,79.51,94.56,79.61,95.07ZM77.88,88.8c.34.38-.09.58-.24.84.16-.26.58-.46.24-.84-.06-.59.27-.59.61-.59C78.15,88.21,77.82,88.21,77.88,88.8Zm-2.55,1.27h0ZM78,85.6c-.65-.89-1.67-1.27-3.27-.83h0C76.37,84.33,77.39,84.71,78,85.6Zm-7.17-6.24c.13-1,.39-1.52.74-1.71-.35.19-.61.7-.74,1.71a.9.9,0,0,0-.93.24A.9.9,0,0,1,70.87,79.36Zm1.05,9.36h0a1.16,1.16,0,0,1-.66.59A1.16,1.16,0,0,0,71.92,88.72Zm3.47,23.38a2,2,0,0,0-.58.58A2,2,0,0,1,75.39,112.11Zm1-2.47c.09.51.71,1.08.42,1.54a2.7,2.7,0,0,1-.33.23,2.69,2.69,0,0,0,.33-.23C77.1,110.72,76.48,110.14,76.39,109.63Zm8.9-29.93a1.21,1.21,0,0,0,.49.68A1.21,1.21,0,0,1,85.29,79.7Zm-.1-1.86c0,.47,0,1,0,1.41,0-.45,0-.94,0-1.41a3,3,0,0,1,1.6-.39A3,3,0,0,0,85.19,77.85Zm-.83-.47-2.7.12,2.7-.12c.3-.11.53-.1.64.11C84.89,77.28,84.66,77.27,84.36,77.38ZM66.09,95.08a1.57,1.57,0,0,1-.28-.46,1.56,1.56,0,0,0,.28.46l.59-5.26Zm2.67-1a2.14,2.14,0,0,1-.37-1.26A2.14,2.14,0,0,0,68.76,94.06ZM68.85,90h0a1.12,1.12,0,0,1,.34-.31A1.11,1.11,0,0,0,68.85,90Zm19.59.57h0a3,3,0,0,1,1.75,0A3,3,0,0,0,88.44,90.54Zm3.17,3.53.05-.08,0-.12,0,.12.1.08-.1-.08-.05.08a4.13,4.13,0,0,0-.6,1.18A4.14,4.14,0,0,1,91.61,94.06Zm2.21,1.83c-.35-.34-.72-.66-1.09-1C93.1,95.23,93.47,95.56,93.82,95.9Zm3.86-54.15-.35-.19-1-.3-.3-.09.3.09.95.3.35.19c1.56.16,3.25,0,4.36,1.25C100.93,41.71,99.24,41.91,97.68,41.75Zm-42.6,60.84a5.29,5.29,0,0,0-.66-.23,5.29,5.29,0,0,1,.66.23,2.3,2.3,0,0,1,.69,1.44A2.3,2.3,0,0,0,55.08,102.59Zm15.09-7.54h0l-.05.08Zm12.06,20.89c1.35-.52,2.62-1.23,2.78-2.47-.16,1.24-1.44,1.94-2.78,2.47-.59.85-2.32,1.55-4.1,1.89C79.91,117.5,81.64,116.8,82.23,115.95Zm6-17.61c-.13-.69-.35-1.4.27-1.84C87.87,96.94,88.09,97.65,88.22,98.34Zm1.56-3.69-.65,1.58h0Zm20.4-47.49-.63-.41a5.42,5.42,0,0,0-2.76-1.83,5.42,5.42,0,0,1,2.76,1.83l.63.41ZM99.58,34.89a6,6,0,0,1-2.33-1.17L97,33.65l.26.07A6,6,0,0,0,99.58,34.89ZM81.77,37.67h0a3.66,3.66,0,0,1,2.44-.61A3.67,3.67,0,0,0,81.77,37.67Zm-48.56,0,0,0h0Zm0-3.38s0,0,0,0S33.24,34.3,33.24,34.31Zm2.88-1.63h0l-.2,2.37Zm.24,2.52L39.52,35l-3.15.25ZM59.78,33a12.09,12.09,0,0,0-1.67.26A12.09,12.09,0,0,1,59.78,33Zm-9.46-12.7h0l1.39.13Zm4.07,1.77.68.08Zm3.14.81a10.79,10.79,0,0,0,1.35,0c.24.64.58.85,1,.88-.38,0-.72-.24-1-.88A10.79,10.79,0,0,1,57.53,22.93Zm7,9.82,0,2.12h0Q64.48,33.8,64.5,32.74ZM66.18,35h0Zm-4.7-1.8a2.17,2.17,0,0,1,.72-.36,2.17,2.17,0,0,0-.72.36,5.32,5.32,0,0,0-.85-.12A5.34,5.34,0,0,1,61.47,33.16Zm-3.9,5h0A2.57,2.57,0,0,0,56.26,38,2.57,2.57,0,0,1,57.58,38.12Zm0,1.84h0a3,3,0,0,1-.61.21A3,3,0,0,0,57.58,40Zm3.31-2.14a4.28,4.28,0,0,0-.87-.44,2.33,2.33,0,0,0-.85-.14,2.33,2.33,0,0,1,.85.14,4.28,4.28,0,0,1,.87.44L61,39.66ZM59.32,40a6.94,6.94,0,0,1-.86.05A7,7,0,0,0,59.32,40Zm4.88-.46a6,6,0,0,1-1.17.14A6,6,0,0,0,64.19,39.53Zm.79-.25a1,1,0,0,1-.71-.87,1,1,0,0,0,.71.87Zm5.23-.91c.46,0,.93-.07,1.39-.07-.46,0-.93,0-1.39.07A4.65,4.65,0,0,1,68,39,4.65,4.65,0,0,0,70.21,38.37Zm2.27-2.83a2.76,2.76,0,0,0,.38.27,2.77,2.77,0,0,1-.38-.27l-1.05.08-1.17,1.17h0l1.17-1.17,1.05-.08a2.51,2.51,0,0,1,1.32-1.34A2.5,2.5,0,0,0,72.48,35.54ZM56.06,20.69h0a3,3,0,0,1,.79,0A3,3,0,0,0,56.06,20.69Zm-7.34-2.06a1.39,1.39,0,0,1-.45-.54A1.39,1.39,0,0,0,48.72,18.63Zm.31.22a2.73,2.73,0,0,1,.84.73l0,.67h0l0-.67A2.73,2.73,0,0,0,49,18.85Zm9.52,10.85a2.21,2.21,0,0,1,.43.7,2.2,2.2,0,0,0-.43-.7c-.4-.66-1-.59-1.53-.5C57.58,29.1,58.15,29,58.55,29.69Zm-22.46,9a1.78,1.78,0,0,0-.16-.69A1.78,1.78,0,0,1,36.1,38.67Zm6.86-2h0l2.95-.06Zm7,2.11-.84,0Zm5.73,6.28a39.78,39.78,0,0,1,14.35-4.82c1.67-.26,3.36-.45,5.06-.59-1.7.14-3.39.33-5.06.59A39.78,39.78,0,0,0,55.7,45.07l-.35.15Zm-9.12,28a1.1,1.1,0,0,0,.81-.94A1.1,1.1,0,0,1,46.58,73.07ZM112.7,47.8a2.18,2.18,0,0,1,.59.88A2.18,2.18,0,0,0,112.7,47.8Zm14.14-26.18h0ZM91,29.23l6.2,2.91L91,29.23a1.48,1.48,0,0,0-.4-.34A1.48,1.48,0,0,1,91,29.23Zm-6.3.77a3.12,3.12,0,0,0-.12.32A3.1,3.1,0,0,1,84.72,30Zm-.3.83a8,8,0,0,1,.79.33,7.85,7.85,0,0,0-.79-.33Zm-4.34.33a2.91,2.91,0,0,0-.67.86h0A2.92,2.92,0,0,1,80.08,31.16ZM29.79,33.32h0l-.69-.23q0-.65,0-1.3h0q0,.65,0,1.3Zm9.67,6.53L36,39.79a2.86,2.86,0,0,1-1.38.38A2.86,2.86,0,0,0,36,39.79l3.47.05q0,.83,0,1.66Zm13.76,6.68a2.23,2.23,0,0,1,1.3-1.21,2.23,2.23,0,0,0-1.3,1.21A11.43,11.43,0,0,0,48.66,49,11.45,11.45,0,0,1,53.22,46.53Zm71.81,0a7.76,7.76,0,0,0,2.91.68h0A7.77,7.77,0,0,1,125,46.53Zm.71-17.71h0l0,0Zm.75-.13a3.15,3.15,0,0,0,1.91-2A3.15,3.15,0,0,1,126.5,28.69Zm2.57-7-2.17-.06,2.17.06v0ZM98.32,19h0a2.58,2.58,0,0,1,1-.71A2.58,2.58,0,0,0,98.32,19Zm-2.86,1.11a9.36,9.36,0,0,1,1.11-.62A9.39,9.39,0,0,0,95.46,20.09Zm-.47.3h0l-4.58,2.19Zm-5.82,8.15c.33.06.67.08,1,.17-.32-.09-.66-.11-1-.17A2.06,2.06,0,0,0,88.07,30c-.48.38-1.13,0-1.76-.26.63.27,1.28.64,1.76.26a2.07,2.07,0,0,1,1.1-1.49c-1-.37-2-.77-3.09-1.1C87.12,27.77,88.14,28.17,89.17,28.54Zm-10.46.74-.36.37.36-.37c0-.09.09-.2.06-.27S78.73,29.18,78.71,29.28Zm-1-1.3.82.56L77.68,28,75,27.88Zm-9.61-9.09c-1.83-.46-3.67-.86-5.51-1.29l-6.26-1q0,.68,0,1.36h0q0-.68,0-1.36l6.26,1C64.41,18,66.25,18.42,68.08,18.88ZM46.63,23.34a1.58,1.58,0,0,0,1.44.41L47.47,25l.6-1.25A1.57,1.57,0,0,1,46.63,23.34ZM49.9,26.8h0l-.13,1.11h0ZM26.85,40.85l-.22-2.32h0l.22,2.32a1,1,0,0,0-.32.29A1,1,0,0,1,26.85,40.85Zm108.88,38.9v0Z"/><path class="cls-2" d="M135,68.07a.54.54,0,0,0,.16.44c.25.68.45,1.38.75,2,9,20.38,7.25,39.93-4.91,58.45-15.05,22.93-44.33,31.93-70.59,22.07a61.4,61.4,0,0,1-24.7-17.42h0a15.06,15.06,0,0,0-2.8-3.82C26.28,119.06,22,107.54,22.27,94.75c.31-18,7.52-32.7,21.08-44.41,1-.9,2.06-1.83,3.09-2.75l3.94-2.65c-2.26.19-4,.29-5.7.49-6.37.75-12.81,1-19.08,2.52-.85-.29-.78-.87-.49-1.52l5-1.07,12.11-1.48L45,43.69l2.88-.11,5.92-.67,3.34-.33a3.71,3.71,0,0,0,2.37-.17,8.14,8.14,0,0,0,3.28-.29c1.27-.06,2.57.2,3.79-.36l2.09-.35a4.34,4.34,0,0,0,2.9-.52c.44,0,.89-.07,1.33-.07.86,0,2,.34,2.31-.74s-.86-1.35-1.47-1.9c.57-1.34,1.78-1.46,3-1.87s3.09.54,3.62-1.49l0,0,5-.31c.31,0,.84.2.66-.41-.07-.22-.57-.31-.88-.46.61-2.75,2.45.06,3.48-.76.91.34,1.73,1,2.8.8,1.66,1.62,3.82,2.17,6,2.73,1.3,1.17,3.1,1.15,4.63,2,3.38,1.88,6.63,4.56,10.93,4.14l0,0v1.12c-.08,1.6.84,2.52,3.85,3.87,1.06,1.91,3.22,2.48,4.73,3.86a78.9,78.9,0,0,1,10.82,12.68,1.63,1.63,0,0,0,1.06,1.61c.09.44-.07,1,.59,1.15Q133.78,68,135,68.07ZM96.56,43.64l-.29-.08a2.85,2.85,0,0,0-2.62-.33l-1.23-.05c-.74-.85-1.83-.78-2.77-1-1.26-.26-2.78-.29-3.44-1.4-1.09-1.85-2.27-1.21-3.6-.58l-.52.57c-1.8,1.1-3.82,1.14-5.84,1.31-6.5.55-12.82,1.8-18.54,5.17l-.33.14a2,2,0,0,0-2,1.25c-2.24.48-4,2-5.63,3.32C40.3,59.34,33.14,68.35,29.79,80.07A48.44,48.44,0,0,0,27.51,94.4c.18,7.86,1.28,15.48,5,22.8a81.85,81.85,0,0,0,5.58,10.19c8,11.45,19.21,18.16,32.67,21.06a54.82,54.82,0,0,0,18.8.42,53.24,53.24,0,0,0,17.1-5.23,49.43,49.43,0,0,0,17.29-13.9c5.75-7.41,10.08-15.37,11.25-24.82a.75.75,0,0,0,.22-1l.07-.76.23,0-.12-.35.42-1.67c1-1.25.62-2.61.33-4l.09-1.4-.12-.82L136,93a1,1,0,0,0,.23-1.42l-.1-.78c.58-.92.2-1.6-.56-2.17a49.42,49.42,0,0,0-6.95-21,55.39,55.39,0,0,0-13.57-15.2,1,1,0,0,0-1.1-.78l-1.1-.3c-.31-1.8-1.62-2.08-3.13-2.06l-.6-.39a5.19,5.19,0,0,0-3.72-1.94l-.26-.17a1.72,1.72,0,0,0-1.65-.62l-1.12-.24c-1-1.91-2.88-1.64-4.58-1.81l-.34-.18Z"/><path class="cls-2" d="M143.54,60.35,145.16,67c-2-.68-1.93-2.81-3.36-3.51a22.42,22.42,0,0,0-5-5.05l-5-4.84c-.26-.82-1.37-1.11-1.29-2.13,2.08-.2,2.82,2.41,4.91,2.23-3-2.93-6-6-10.69-6.8.31,1.45,2.1,1.1,1.95,2.47a7.3,7.3,0,0,1-5.1-2.32c.69-.47,1.74-.33,2.43-1.46-1.91,0-3.1-1.34-4.74-1.52l-1.91-.68c-1.35-1-2.74-1.8-4.45-.78l0,0c0-.62-.29-1.11-1-1.06-1.86.13-3.22-.94-4.75-1.73-3.25-1.7-6.12-4.2-9.88-4.86l-5.92-2.78a2.55,2.55,0,0,0-1.77-.66c-1-.35-2-.73-2.95-1-3.12-1-3.53-.59-2.88,2.83-1.4,0-2.77.13-3.52,1.58l0,0c-3.72-.14-7.35,1.29-11.1.56a7.47,7.47,0,0,0-3.15.13c-1,0-2-.29-2.89.39a7.45,7.45,0,0,0-3.21.14l-3.1.19c-1.06-.43-2,.47-3,.31l-2.81.18L48.27,37c-.91.12-1.92-.22-2.71.53a5.34,5.34,0,0,0-3.29.07l-3,.24a2.81,2.81,0,0,1-.42-.15L39,35.46c7-.6,14-.88,20.86-2,.11.34.32.76.68.5.59-.43.21-.92-.13-1.34-.51-.85-1.31-.44-2-.4-8.73.49-17.44,1.22-26.11,2.4l-2.95.28c-.09-1.35.7-1.64,1.88-1.73,3.19-.24,6.37-.6,9.56-.87,1-.08,1.83-.19,2-1.36l9.21,0h1.31l3.56-.25c2,.35,4,.38,5.69-1.5-2.22-.38-3.89-2.31-6.07-.88-1.11,0-2.3-.51-3.23.55-.32.15-.37.35-.13.62l-.1.74-.9-.33-9.24-.46c-.14-.57-.23-1.12.58-1.25l1.37-.05L48.33,28l1.53.12c1.19.59,2.09-.78,3.3-.47a.67.67,0,0,0,.64-.94c-.66-1.21-2-1.47-3.15-1.83-.88-.28-1.89-.25-1.8,1.19-.85.32-1.22-.7-2-.72-.52-2-2.62-3.63-1.41-6,1,1.06,1.78,2.45,3.35,2.89.23.16-.09.89.6.58l.68.46c-.08.33,0,.51.37.35l1.7,0,.19.11h.21l1.32.12c1,1.8,2.81,1.47,4.38,1.82a3.11,3.11,0,0,0,2.46.54c.61,1.64,1.91.32,2.82.66.93,1.16,2.48.64,3.59,1.33l2.58.51a29,29,0,0,0,3.28.17c.63,0,1.45-.5.62-1.21s-1.87-1.66-3.25-1a5.28,5.28,0,0,0-3.31-.81,5.18,5.18,0,0,0-3-.37c-.87-.92-2.06-.64-3.12-.84A6.07,6.07,0,0,0,58.07,24a1.09,1.09,0,0,1-.35-.23l0-2.19.57-.21c2,.49,3.91,1.58,6.08,1.39,1.58.38,3.14.79,4.73,1.11.49.1,1.17.12,1.26-.63a.93.93,0,0,0-.8-1c-1.75-.44-3.51-.82-5.26-1.23l-6-1-3.35-.69a3.29,3.29,0,0,0-2.71-.6c-1-.72-2.45-.12-3.36-1.12s-2.08-2-2.46-3.44c0-2.65,1.91-3.59,4-4.18a13.71,13.71,0,0,1,8.65.57,28.7,28.7,0,0,1,12.47,8.77A5.72,5.72,0,0,0,76,21.67c2.64.2,5.42-.44,7.13,2.93,1.08,2.12,3.48,1.34,4.06-1.06.26-1.06.4-1.78,1.91-1.52a15.45,15.45,0,0,0,11-2.28c2.37-1.45,4.84-3,7.8-3-.05,1.11.82,1.37,1.42,1,1.43-1,4.19-.22,4.21-3.1,3-.29,5.94-1.42,8.8.39-.68.26-1.71-.31-2.14,1,1.52-.14,2.86,1.45,4.34,0,1.2.48,2.71.55,2.92,2.29l.3,5.51c-.58.61-1.16.39-1.69,0-2.92-2.38-6.25-2.84-9.84-2.18-1-.54-2.08-.11-3.11-.26-1.16-.9-1.15-.88-.36-1.33,1.52-.86,3.21-.5,4.82-.65.48,0,1-.18,1.09-.65.06-.65-.54-.76-1.1-.89-1.53-.37-2.76.78-4.19.74-4.47-.13-6.36,1.58-6.27,6,1.92-1.27,3.82-1.66,5.65,0,.34.32.81.56,1.15.06s-.15-.84-.34-1.23l2.57-.68a4.72,4.72,0,0,0,5.59.66c1-.51,2.1.19,2.6,1.42.35.86.2,1.52-.7,1.71-3.1.66-6.23,1.88-9.4,1.06-2.24-.58-4.58.27-6.74-.89-.76-.41-1.33.31-1.54,1.12s.25,1,.87,1c4.55.38,9.14,1.14,13.64.33,2.14-.38,5-.91,5.16-4.18h0l2.13.05v1a2.56,2.56,0,0,0,0,2.37c-.67,1.49-1,3.27-3.15,3.42-.16-.88-.16-1.88-1.58-1.43a27.56,27.56,0,0,1-11.11,1.14c-.61-.06-1.45-.1-1.54.76s.75.87,1.36.9A37.65,37.65,0,0,0,122.64,32c.61-.16,1.12-1.6,1.91-.23-.68,1.76-2.38,1.57-3.75,1.86-1.66.36-3.38.45-5.74.74l6,2.31c2.17,1.19,4.38,2.3,6.48,3.6,1.08.67,2.69,1,2.57,2.84-.06.93,1,.49,1.42.82,3.29,2.33,5.92,5.37,9,8-.21.09-.6.2-.59.26.05.44.41.29.69.27h0a5.48,5.48,0,0,0,1.66,3.35,1.1,1.1,0,0,1,0,.49c-.22.53-.7.56-1.16.62l-.21-.14.23.13C141.24,58.55,142.32,59.51,143.54,60.35ZM137.85,53l-.32-.2.21.3c.13.84.47,1.45,1.49,1.53C139.31,53.5,138.72,53.13,137.85,53Zm-37.4-31.64a3.63,3.63,0,0,0-2,1,6.88,6.88,0,0,0-3.17,1.34l-4.38,2.09c-.58.28-1.69.3-1.27,1.27s1.41.78,2.16.38c1.41-.76,2.75-1.64,4.13-2.47a4.77,4.77,0,0,0,2.88-1.55,2.6,2.6,0,0,0,2-.88c1.8.09,2.87-.9,3.74-2.41C102.75,19.6,101.68,20.73,100.44,21.35Zm8.63,13.43c-.81-.62-1.8-.49-2.73-.63-3.77-1.51-7.8-1.66-12.11-2.74a4.39,4.39,0,0,0,2.61,1.76c3.1,1.29,6.48,1.48,9.62,2.55.87.12,1.51,1,2.5.71a53.46,53.46,0,0,0,10.47,1.45C115.87,35.48,112.37,35.49,109.08,34.78ZM79.34,32.56l.34-.35c0-.09.09-.19.06-.26a3.27,3.27,0,0,0-.26-.45L78.71,31c-1.73,0-3.45-.16-5.18-.09C72.58,30.91,71,30.3,71,32s1.66,1.42,2.78,1.33C75.66,33.16,77.49,32.82,79.34,32.56Zm26.9,5.34c5.63,2.78,12.09,2.9,17.83,5.46C119.12,38.35,112.31,39.41,106.24,37.9Zm-43.73-19c-3.37-3-7-5.3-11.73-4.42C55,15.18,58.14,18.61,62.51,18.86ZM53,11.48c2.16,1.68,4.6,1,6.2,2.45.61.56,1.17.55,1.61-.08.67-.95-.17-1.35-.81-1.59C57.89,11.48,55.77,10.76,53,11.48ZM69.51,33c-2.29-2.05-4.75-.32-7.13-.85a.5.5,0,0,0-.64.6c0,.39.21.75.64.73C64.76,33.36,67.13,33.18,69.51,33Zm30.79-2.66-.14.78a21.89,21.89,0,0,1,6.72,1.4.74.74,0,0,0,1-.64c.12-.74-.46-1-1-1C104.7,30.64,102.5,30.51,100.3,30.36Zm20.34-12v.44c1.41.61,2.81,1.25,4.24,1.83.52.21,1.26.87,1.59-.09.23-.67-.44-1.28-1-1.42C123.84,18.78,122.23,18.6,120.64,18.36Zm-54.48-1.1a4.1,4.1,0,0,0,3,3.21c.51.13.82-.5.63-.93A3.45,3.45,0,0,0,66.16,17.25ZM91.94,28.93c1.77,1,3.71,1.17,6.19,1.25C96,28,93.87,29.09,91.94,28.93ZM81.65,27a4.32,4.32,0,0,0-1.29,3.46c0,.49.1.83.74.87s1-.23.93-.91C81.84,29.4,82.44,28.29,81.65,27Zm50.7,20.8a4.43,4.43,0,0,0-2.9-2.3c-.12,0-.51.39-.47.49C129.5,47.32,130.55,47.82,132.35,47.81Zm3.58,3.66c-.41-2-1.41-2.73-3.27-3.35A7.48,7.48,0,0,0,135.93,51.47Zm1,3.71c0,1.49.84,2,1.92,2.73C138.89,56.38,138.11,55.79,136.89,55.18ZM125.17,43.84c.72.91,1.24,1.73,2.69,1C127.13,44.25,126.66,43.52,125.17,43.84ZM105.51,24.51c.1.11.18.27.27.28a1.1,1.1,0,0,0,.41-.16c-.08-.1-.16-.27-.24-.28A1.18,1.18,0,0,0,105.51,24.51Z"/><path class="cls-3" d="M35.66,133.66a61.4,61.4,0,0,0,24.7,17.42c26.26,9.86,55.54.86,70.59-22.07,12.15-18.52,13.95-38.07,4.91-58.45-.29-.66-.5-1.36-.75-2,2.52,1.7,2.65,4.67,3.65,7.14a58.17,58.17,0,0,1,4.39,21.09,56.06,56.06,0,0,1-4.73,22.41c-3.58,8.6-8.49,16.25-15.49,22.4-9,7.89-19.22,13.19-31.29,14.83a62.2,62.2,0,0,1-37-6.08,55.45,55.45,0,0,1-18.34-14.61A2.42,2.42,0,0,1,35.66,133.66Z"/><path class="cls-3" d="M25.6,48c6.27-1.51,12.71-1.77,19.08-2.52,1.72-.2,3.44-.3,5.7-.49l-3.94,2.65c-6.21-.34-12.25,1.11-18.36,1.86C26.6,49.64,25.78,49.55,25.6,48Z"/><path class="cls-3" d="M124.59,31.77c2.13-.14,2.47-1.93,3.15-3.41a2.88,2.88,0,0,0,0-2.37V23.76l-.3-5.51c.29.19.77.31.85.57A26.78,26.78,0,0,1,129.16,29c-.29,3.71-3.12,5.76-6.79,6.47A1.81,1.81,0,0,0,121,36.72l-6-2.31c2.36-.29,4.08-.38,5.74-.74,1.37-.3,3.07-.11,3.75-1.86Z"/><path class="cls-3" d="M117.37,43.35l1.91.68c-1,1.24-1.09,2.19.78,2.56.51.1,1,.28,1.52.42a7.3,7.3,0,0,0,5.1,2.32v-.08c-.1.43.25.49.51.62l3.32,1.56c-.09,1,1,1.32,1.29,2.13-1.39.4-2.24-.66-3.18-1.28a56.81,56.81,0,0,0-10.14-4.79c-.55-.23-1.16-.71-1.7.06-3-1.35-3.93-2.27-3.85-3.87.73.92,1.94.74,2.86,1.24.59.32,1.32.84,2,.23S116.94,44.08,117.37,43.35Z"/><path class="cls-4" d="M42.93,29.38l9.24.46-.13,1.06-9.21,0C42.25,30.38,42.43,29.87,42.93,29.38Z"/><path class="cls-5" d="M30.12,45.37l-5,1.07.69-2.82,4.07-.09Z"/><path class="cls-2" d="M29.87,43.53l-4.07.09,1-2.14L30,41l.21,2.22A.9.9,0,0,0,29.87,43.53Z"/><path class="cls-5" d="M113.55,14.56c0,2.87-2.78,2.11-4.21,3.1-.61.42-1.47.16-1.42-1C109.74,15.85,111.86,15.77,113.55,14.56Z"/><path class="cls-3" d="M136.8,58.4a22.42,22.42,0,0,1,5,5.05A7.44,7.44,0,0,1,136.8,58.4Z"/><path class="cls-5" d="M48.84,22.21c-1.57-.44-2.31-1.84-3.35-2.89L46,18.25c1.33.7,1.78,3,3.92,2.19.22.72-.42,1.15-.58,1.74Z"/><path class="cls-5" d="M143.54,60.35c-1.23-.85-2.3-1.8-2.44-3.43h0c.46-.06.95-.09,1.16-.62C143.73,57.33,143.52,58.88,143.54,60.35Z"/><path class="cls-5" d="M124.54,16c-1.48,1.47-2.82-.12-4.34,0,.44-1.34,1.46-.76,2.14-1C123.51,14.35,124,15.13,124.54,16Z"/><path class="cls-2" d="M27.78,39.13c-.27-1,.46-1.69.72-2.53a1.69,1.69,0,0,1,1.53,0l.11,2.18-.34.45Z"/><path class="cls-2" d="M49.9,20.44c-2.14.76-2.59-1.5-3.92-2.19l.17-1.6,2.67,2.21Z"/><path class="cls-3" d="M30,36.6a1.69,1.69,0,0,0-1.53,0,1.53,1.53,0,0,1,.9-1.71l2.95-.28q0,.62,0,1.24Z"/><path class="cls-5" d="M27.78,39.13l2,.1.37,1.61L30,41l-3.18.44Z"/><path class="cls-4" d="M49.86,28.13,48.33,28c.07-1.18-1.76-1.33-1.44-2.65.73,0,1.1,1,2,.72l0-.05c.21.88.87,1,1.61.92Z"/><path class="cls-5" d="M48.83,18.86l-2.67-2.21.26-2.42c.37,1.46,1.57,2.34,2.46,3.44Z"/><path class="cls-5" d="M142.25,55.84a5.48,5.48,0,0,1-1.66-3.35C143.13,52.61,142.47,54.33,142.25,55.84Z"/><path class="cls-3" d="M32.86,129.84a15.06,15.06,0,0,1,2.8,3.82C33.55,133.24,33,131.66,32.86,129.84Z"/><path class="cls-3" d="M133.39,65.7a1.63,1.63,0,0,1-1.06-1.61C133.33,64.2,133.55,64.82,133.39,65.7Z"/><path class="cls-3" d="M135,68.07q-1.17-.06-1-1.22A.94.94,0,0,1,135,68.07Z"/><path class="cls-4" d="M44.88,28.08l-1.37.05A.81.81,0,0,1,44.88,28.08Z"/><path class="cls-5" d="M140.57,52.47c-.28,0-.63.17-.69-.27,0-.06.39-.18.59-.26Z"/><path class="cls-4" d="M135.48,103.13l-.07.76a.67.67,0,0,0-.22,1c-1.17,9.44-5.5,17.4-11.25,24.82a49.43,49.43,0,0,1-17.29,13.9,53.24,53.24,0,0,1-17.1,5.23,54.82,54.82,0,0,1-18.8-.42c-13.46-2.9-24.65-9.61-32.67-21.06A81.85,81.85,0,0,1,32.5,117.2c-3.71-7.32-4.81-14.94-5-22.8a48.44,48.44,0,0,1,2.28-14.33C33.14,68.35,40.3,59.34,49.73,52c1.67-1.3,3.39-2.84,5.63-3.32.88-.09,2.28.66,2-1.25l.33-.14a2.24,2.24,0,0,0,1.6-.07c3-.81,6-1.79,9-2.36C72.74,44,77,42.28,81.63,43a4.87,4.87,0,0,0,1.91-.54L82.1,40.79l.51-.57a44.24,44.24,0,0,0,4.44,2.53c1.69.73,3.48,1.51,5.37.43l1.23.05c.58,2.41,1.84-.56,2.62.33l.29.08a.54.54,0,0,0,.91.29l.34.18c.06.44-1.49.73-.31,1.11,1.55.49,3.16,1.23,4.89.7l1.12.23c.33.8.94.86,1.65.62l.26.17c0,2.94,2.06,2.09,3.72,1.94l.6.39a2.34,2.34,0,0,0,3.13,2.06l1.1.3a.89.89,0,0,0,1.1.78,55.39,55.39,0,0,1,13.57,15.2,49.42,49.42,0,0,1,6.95,21c-.05.78-.31,1.63.56,2.18l.1.78c-.82.35-.92.82-.24,1.42l.29,1.91-.53.47.65.35q0,.7-.08,1.4c-1.1,1.24-.62,2.61-.33,4l-.41,1.66A.31.31,0,0,0,135.48,103.13ZM48.31,74.07c-.78-1.88,1.06-3.9-.17-5.74-1.27.36-.45,2.29-1.62,2.25-1.85-.07-1.84,1.63-1.86,2.28,0,1,1.48.87,2.33,1.19a3.85,3.85,0,0,0,1.35,0c.14,1.42-.94,1.07-1.67,1.1-1.32,0-2.65,0-4.67,0,2.91,1.55,4.61,3.26,5.57,6a12.22,12.22,0,0,1,.23-1.54c.15-.51.39-1,.65-1.62.7.88.48,2.86,1.35,2.36,1.13-.65,3.28-.66,3.3-2.33s1.3-1.54,2.42-2.15L50.39,75c1.38-1.63,3.37-.33,5-1.22-1-.82-2.18-.88-2.46-2.23-.18-.9-1.32-.89-2.13-.82-1,.09-1,1-1,1.68C49.86,73.46,49.57,74.18,48.31,74.07ZM75,79.25c-1.28-1-2.52-1.79-2.85.77-.74-.29-1,.71-1.84.54-2.1-.43-2.7.18-2.28,2.21.51,2.41-.08,4.83.13,7.23l-.57,5c-.78-.78-.93-5.14-2.7-.47-.13.33-.8.42-1.11.73-1.48,1.5-3.57,2.4-4.47,4.43-.43,1-1.07.77-1.78.66-.37-1.33,1.13-3.61-1.84-3.61.3-2.42-3.35-2.16-3.08-4.56,0-.09.06-.2,0-.27-.12-.22-.29-.62-.39-.61-3.34.42-2-1.79-1.92-3.33,0-1,.35-1.89-1.5-2.06-2.12-.2-1.26,1-1.54,1.86-.42,1.3.7,3.63-2.31,3.32-.94-.1-.42,1.19-.56,1.81-.22,1,.64.56,1.09.79,1.37.68,4.05-.55,4,1,0,3.3,2.28,1.93,3.46,2.11s1.9.78,1.68,1.23c-.69,1.41.74,2.76-.24,4.22a2.49,2.49,0,0,1,2.63-.12c1.24,1.44.64,2.28-1,2.63-1.09.24-1.81.51-1.81,1.89A126.55,126.55,0,0,1,54,119.83c-.09.93.31,2,.29,3.05,2,0,2.69,2.32,3,3.06,1.4,3.58,3.73,6.08,6.53,8.56a5.82,5.82,0,0,0,3.72,1.81c2.23.14,4.86-.61,6.58,0,3.77,1.26,7.5,0,11.07.84,3.83.92,5.65-2,7.17-4,1.91-2.55,5.11-2.93,7-5.37.49-.64,1.45-.89,1.5-2.06.22-5.32.18-10.65.74-16a2.19,2.19,0,0,0-2.5-2.59c.45-1-.43-3.21,2.11-2.4.47.15.72-.16.63-.57-.37-1.71.57-2,2-2,1,0,.66-.78.83-1.35.36-1.23-.51-2.35,0-3.69.37-1,.59-2.87-1.48-3.09-2.39-.25-1.44,1.8-1.49,2.69-.08,1.5.41,2.94-2,2.28-.67-.19-.79.42-.62.85.36.91-.25,1.58-.47,2.34-1.93.26-1.93-1.32-2.14-2.45-.51-2.68-2.53-4.13-4.37-5.76-.44-1.65-.12-4-3.08-3.29a.53.53,0,0,1-.4-.15c.12-2.24.3-4.47.34-6.71,0-1,.13-2.44-1.36-2.53-2.06-.13-1.61-1.53-1.69-2.74,1-.6,2-.3,3.11-.25.9,0,2.82.49,3-1.41.15-2.1-1.5-1.33-2.5-1.25-1.84.15-2.86-.27-2.33-2.39a13.69,13.69,0,0,0,0-1.91c.29-3-.24-3.69-3.1-3.93-3.1-.26-6.21-.43-9.32-.63-3.28-.21-5.18,2.39-4,5.51.56,1.51.06,2.19-1.46,2s-2.93-.71-4.51-.44c-1,.16-1.55.14-1.68,1.43-.17,1.6.83,1.37,1.66,1.43,3.9.28,7.81.51,11.71.76C76.43,78.43,75.36,78.54,75,79.25Zm34.42,56.54c-.44-.85-.93-1.35-.87-2.35.44-7,.81-13.91,1-20.87.2-6.44.2-12.89.24-19.34,0-.52.89-1.54-.62-1.54-1,0-2-.13-2.06,1.39s-.44,3.13-.57,4.7c-.5,6,.31,12-.16,18-.43,5.37-.53,10.76-1,16.13C105.21,135.42,105.54,135.92,109.47,135.79ZM93.92,57.33c-1.14,0-2,0-2.77,0s-2-.48-1.41,1c.24.64-1.1,2.66,1.33,1.91a1.3,1.3,0,0,1,1.72,1c.12.81-.48,1.27-1.41,1.27-.6,0-1.74-.5-1.55.8a2.15,2.15,0,0,0,1.63,2c1.23.2.78-.89,1.06-1.47.5-1,.75-2.92,2.49-1.06.84.91,1.65,1.15,2.46,0,.92-1.31.58-1.94-1-2.11-.91-.1-.85-1.09-.93-1.77s.47-1,1-1.18c1-.35.76.67,1.09,1.11a5.17,5.17,0,0,0,4.59,1.89c.76,0,1.12-.46,1.17-1.24S103.19,58,102.17,58c-.86,0-1.85-.07-1.89-1.11s.94-1.21,1.81-1.19c1.18,0,1.2-.45,1.05-1.54-.18-1.37-.87-2.05-2-2.07s-.63.89-.56,1.58a1.67,1.67,0,0,1-1.34,1.82c-1,.27-1.1-.84-1.06-1.17.25-2.3-1.71-2.29-2.78-2.17-1.34.16.16,1.58-.31,2.46-.15.29.22,1.07-.37,1.36s-.9-.36-1.19-.77-1-.6-1-1.26c.19-1.64-1.22-1.43-2-1.45-1.46,0-.07,1-.42,1.62-.87,1.48.42,1.06,1.16,1.16A3.38,3.38,0,0,1,93.92,57.33Zm30.55,27.16c2.35.56,3-1.54,3.83-2.78s-.07-2.37-1.48-2.94a1,1,0,0,1-.49-.89c.61-1.93-.74-1.5-1.79-1.61-1.29-.14-1.59.14-1.2,1.47.19.64-.62,1.47-1.41,1.31-1.93-.4-1.5,1-1.67,2-.26,1.5.65,1,1.47,1s1.63.62,1.38,1.32C122.45,85.2,123.4,84.84,124.47,84.48ZM59.33,61.16a4.17,4.17,0,0,0-1.36.47c-.42.33.51,1-.47,1.55-2,1.07-1.95,1.24,0,2.65a1.61,1.61,0,0,1,.82,1.35c-.16,2.11,1.75,1.36,2.56,1.59,1.08.31.92-.85.8-1.72s.53-1,1.28-.85c1.68.43.82-1,1.08-1.55.39-.84-.08-1.17-.94-1.06s-1.62-.18-1.73-1.25S60.23,61.39,59.33,61.16ZM109,86.44a10.87,10.87,0,0,1,2.52.41c1.29.46,2.31-.93,3.54-.32a6.76,6.76,0,0,0,.23-1.56c-.1-1.17-1.06-1.14-1.86-1.08-3.54.29-7.05-.32-10.58-.31-1.55,0-.2,1.44-.89,2.07-.38.35-.15,1,1,.86A45.07,45.07,0,0,1,109,86.44ZM77,59c-.83-1-1.26-2.58-2.77-2.63a2.5,2.5,0,1,0-.06,5C75.59,61.5,76.33,60.32,77,59Zm22.57,7.23c2.46-.22,3.72-.69,3.54-2.62-.15-1.54-1.43-.66-1.89-.58C99.22,63.38,101.15,65.23,99.57,66.26ZM119.91,102c.93,1-1.07,2.56.56,3,.44.12,1.94,1,2.25,0C123.26,103.07,121.12,102.93,119.91,102Zm-3.64-2.32c.64.22,1.43.8,1.45-.36a1.94,1.94,0,0,0-1.78-2.08c-1.33-.22-1.15.69-1.28,1.5C114.35,100.67,115.67,99.6,116.27,99.7Zm6.83.31c-.5-1.58-1.27-2.58-2.7-2.55-.62,0-.37.9-.27,1.39C120.5,100.74,121.92,99.66,123.1,100Zm-5.69,3.83c0-1.35-1.3-1.16-1.93-1.37-.78-.27-.54.84-.7,1.39-.39,1.32.48,1,1.2,1S117.49,105,117.4,103.85Z"/><path class="cls-5" d="M82.1,40.79l1.45,1.63a4.87,4.87,0,0,1-1.91.54C77,42.28,72.74,44,68.35,44.85c-3.05.56-6,1.54-9,2.36a2.24,2.24,0,0,1-1.6.07c5.72-3.37,12-4.62,18.54-5.17C78.28,41.94,80.3,41.89,82.1,40.79Z"/><path class="cls-4" d="M29.87,43.53a.91.91,0,0,1,.3-.28L33,42.94a5.51,5.51,0,0,0,3.2-.28,5.91,5.91,0,0,0,2.68-.41l3.31.05v1.59L30.12,45.36Z"/><path class="cls-5" d="M97.35,34.94c3.76.66,6.63,3.16,9.88,4.86,1.53.8,2.89,1.87,4.75,1.73.67,0,.93.44,1,1.06-4.31.42-7.55-2.26-10.93-4.14-1.52-.85-3.32-.84-4.62-2Q97.37,35.69,97.35,34.94Z"/><path class="cls-5" d="M69.27,35.38c3.74.74,7.38-.7,11.1-.56-.54,2-2.41,1.09-3.62,1.49s-2.43.53-3,1.87l-1,.08c-.72-1.57-2.1-1.12-3.34-1.08Z"/><path class="cls-4" d="M83.84,33.28c-.64-3.42-.23-3.82,2.88-2.83,1,.32,2,.7,2.95,1a2,2,0,0,0-1.05,1.42c-1,.82-2.87-2-3.48.77Z"/><path class="cls-4" d="M53.81,42.91l-5.92.67-.36-1.78c2-1.07,4.22-.28,6.31-.59Z"/><path class="cls-5" d="M92.42,43.18c-1.88,1.08-3.68.3-5.37-.43a44.24,44.24,0,0,1-4.44-2.53c1.33-.63,2.51-1.27,3.6.58.66,1.11,2.18,1.14,3.44,1.4C90.6,42.4,91.69,42.33,92.42,43.18Z"/><path class="cls-4" d="M97.35,34.94q0,.76,0,1.51c-2.15-.56-4.3-1.11-6-2.73q0-.78,0-1.56Z"/><path class="cls-5" d="M117.37,43.35c-.43.73,1.16,1.09.39,1.81s-1.38.08-2-.23c-.92-.5-2.13-.32-2.86-1.24V42.57C114.63,41.55,116,42.33,117.37,43.35Z"/><path class="cls-4" d="M72.74,38.26l1-.08c.62.55,1.85.77,1.47,1.9s-1.45.74-2.31.74c-.44,0-.89,0-1.33.07a1.06,1.06,0,0,1,0-1.51Z"/><path class="cls-3" d="M62.8,42.12a8.14,8.14,0,0,1-3.28.29q0-.88,0-1.76c1-1.13,2-1,3.16-.28Z"/><path class="cls-5" d="M102.38,45.92c-1.73.52-3.34-.21-4.89-.7-1.18-.37.37-.67.31-1.11C99.5,44.28,101.37,44,102.38,45.92Z"/><path class="cls-3" d="M53.81,42.91l0-1.71A4.48,4.48,0,0,1,57.09,41l.06,1.59Z"/><path class="cls-5" d="M62.8,42.12l-.13-1.75a7.6,7.6,0,0,1,3.37-.5c-.14.72-.4,1.47.54,1.89C65.37,42.32,64.07,42.06,62.8,42.12Z"/><path class="cls-5" d="M83.84,33.28l1.3.41c.31.15.81.24.88.46.18.61-.35.39-.66.41l-5,.31C81.07,33.4,82.44,33.29,83.84,33.28Z"/><path class="cls-5" d="M109.13,48.89c-1.65.15-3.68,1-3.72-1.94A5.19,5.19,0,0,1,109.13,48.89Z"/><path class="cls-5" d="M71.62,39.38a1.06,1.06,0,0,0,0,1.51,4.33,4.33,0,0,1-2.89.52l.11-1.8A5.16,5.16,0,0,1,71.62,39.38Z"/><path class="cls-3" d="M91.44,32.16q0,.78,0,1.56c-1.06.19-1.88-.46-2.8-.8a2,2,0,0,1,1.05-1.42A2.54,2.54,0,0,1,91.44,32.16Z"/><path class="cls-5" d="M112.86,51.34a2.34,2.34,0,0,1-3.13-2.06C111.24,49.25,112.55,49.54,112.86,51.34Z"/><path class="cls-3" d="M42.23,43.88q0-.79,0-1.59A4.6,4.6,0,0,1,45.1,42L45,43.69Z"/><path class="cls-3" d="M68.79,39.6l-.11,1.8-2.09.35c-.94-.41-.68-1.17-.54-1.89Z"/><path class="cls-5" d="M57.15,42.58,57.09,41a2.51,2.51,0,0,1,2.42-.34q0,.88,0,1.76A3.71,3.71,0,0,1,57.15,42.58Z"/><path class="cls-5" d="M45,43.69,45.1,42l2.42-.15.36,1.79Z"/><path class="cls-5" d="M136,101.07c-.29-1.36-.77-2.73.33-4C136.62,98.46,137,99.82,136,101.07Z"/><path class="cls-5" d="M57.39,47.42c.25,1.92-1.16,1.16-2,1.25A2,2,0,0,1,57.39,47.42Z"/><path class="cls-5" d="M96.27,43.56c-.78-.89-2,2.09-2.62-.33A2.85,2.85,0,0,1,96.27,43.56Z"/><path class="cls-5" d="M136.14,90.77c-.87-.55-.61-1.39-.56-2.18C136.35,89.18,136.72,89.85,136.14,90.77Z"/><path class="cls-5" d="M136,93c-.68-.6-.58-1.07.24-1.42A1,1,0,0,1,136,93Z"/><path class="cls-5" d="M105.15,46.78c-.72.24-1.32.18-1.65-.62A1.72,1.72,0,0,1,105.15,46.78Z"/><path class="cls-5" d="M115.06,52.42a.89.89,0,0,1-1.1-.78A1,1,0,0,1,115.06,52.42Z"/><path class="cls-5" d="M136.42,95.7l-.65-.35.53-.47Z"/><path class="cls-5" d="M97.46,43.93a.54.54,0,0,1-.91-.29Z"/><path class="cls-5" d="M135.2,104.93a.67.67,0,0,1,.22-1A.75.75,0,0,1,135.2,104.93Z"/><path class="cls-5" d="M135.48,103.13a.31.31,0,0,1,.11-.4l.11.35Z"/><path class="cls-5" d="M127.76,23.76V25l-2.13-.05-.24-.26c0,.06,0,.14,0,.17a.71.71,0,0,0,.21.1c-.17,3.27-3,3.8-5.16,4.18-4.5.81-9.1,0-13.64-.33-.62-.05-1.06-.3-.87-1s.77-1.53,1.54-1.12c2.15,1.17,4.5.32,6.74.89,3.16.81,6.29-.4,9.4-1.06.9-.19,1-.85.7-1.71-.5-1.23-1.59-1.93-2.6-1.42a4.72,4.72,0,0,1-5.59-.66l.09-1.09c3.59-.66,6.92-.21,9.84,2.18C126.6,24.15,127.18,24.37,127.76,23.76Z"/><path class="cls-4" d="M32.33,35.84q0-.62,0-1.24c8.67-1.19,17.38-1.92,26.11-2.4.67,0,1.47-.44,2,.4l-.55.84C53,34.58,46,34.86,39,35.46L36.09,36,33,36.06Z"/><path class="cls-5" d="M113.57,23.31c.19.39.67.76.34,1.23s-.81.26-1.15-.06c-1.83-1.69-3.73-1.29-5.65,0-.09-4.38,1.8-6.09,6.27-6,1.43,0,2.67-1.11,4.19-.74.56.14,1.16.25,1.1.89,0,.47-.61.6-1.09.65-1.62.15-3.3-.21-4.82.65-.8.45-.81.43.36,1.33A1.63,1.63,0,0,0,113.57,23.31Z"/><path class="cls-5" d="M106.24,37.9c6.07,1.51,12.88.45,17.83,5.46C118.33,40.8,111.87,40.68,106.24,37.9Z"/><path class="cls-5" d="M124.55,31.81c-.8-1.37-1.3.07-1.91.23a37.65,37.65,0,0,1-10.91,1.09c-.61,0-1.47.05-1.36-.9s.94-.81,1.54-.76A27.56,27.56,0,0,0,123,30.34c1.41-.45,1.42.55,1.58,1.43Z"/><path class="cls-5" d="M62.51,18.86c-4.37-.25-7.53-3.68-11.73-4.42C55.54,13.57,59.14,15.89,62.51,18.86Z"/><path class="cls-5" d="M106.47,35.73c-3.14-1.07-6.52-1.27-9.62-2.55a4.39,4.39,0,0,1-2.61-1.76c4.31,1.08,8.34,1.23,12.11,2.74Z"/><path class="cls-5" d="M130.51,51.42l-3.32-1.56.39-.52-.9-.1v.08c.15-1.37-1.64-1-1.95-2.47,4.68.82,7.64,3.87,10.69,6.8C133.33,53.84,132.59,51.22,130.51,51.42Z"/><path class="cls-5" d="M79.49,31.5a3.27,3.27,0,0,1,.26.45c0,.07,0,.17-.06.26l-.34.35c-1.85.26-3.68.6-5.54.76-1.13.1-2.73.33-2.78-1.33s1.56-1.08,2.51-1.12c1.72-.07,3.45.05,5.18.09Z"/><path class="cls-5" d="M109.08,34.78c3.3.71,6.8.71,10.37,3.12A53.45,53.45,0,0,1,109,36.44Z"/><path class="cls-5" d="M56.54,28.27c2.19-1.44,3.85.49,6.07.88C60.89,31,58.95,31,56.92,30.65,57.12,29.81,56.15,29.15,56.54,28.27Z"/><path class="cls-5" d="M53,11.48c2.81-.72,4.92,0,7,.79.64.24,1.48.64.81,1.59-.44.63-1,.64-1.61.08C57.56,12.46,55.13,13.16,53,11.48Z"/><path class="cls-4" d="M69.51,33c-2.38.17-4.75.34-7.13.48-.43,0-.6-.34-.64-.73a.5.5,0,0,1,.64-.6C64.76,32.7,67.22,31,69.51,33Z"/><path class="cls-3" d="M48.83,18.86l0-1.2c.91,1,2.35.41,3.36,1.12v1.39c-.67-.2-1.38-.07-1.59.56-.43,1.28,1,1.43,1.51,2.2l0,.64h.06l-1.7,0-.37-.35-.68-.46-.12-.61c.16-.59.8-1,.58-1.74Z"/><path class="cls-4" d="M64.35,22.76c-2.18.19-4.06-.9-6.08-1.39q0-.65,0-1.3l6,1Z"/><path class="cls-5" d="M95.87,25c-1.37.83-2.72,1.71-4.13,2.47-.75.4-1.78.48-2.16-.38s.69-1,1.27-1.27l4.38-2.09Z"/><path class="cls-5" d="M100.3,30.36c2.2.15,4.4.28,6.6.48.52,0,1.1.31,1,1a.74.74,0,0,1-1,.64,21.89,21.89,0,0,0-6.72-1.4Z"/><path class="cls-3" d="M56.54,28.27c-.39.88.58,1.53.39,2.38l-3.56.25-.28-.72.1-.74.13-.62C54.24,27.77,55.43,28.27,56.54,28.27Z"/><path class="cls-5" d="M64.35,22.76l-.08-1.71c1.75.4,3.52.79,5.26,1.23a.93.93,0,0,1,.8,1c-.09.75-.76.73-1.26.63C67.5,23.55,65.93,23.14,64.35,22.76Z"/><path class="cls-5" d="M49.86,28.13l.57-1.19c-.16-1-1-.81-1.61-.92l0,.05c-.08-1.43.92-1.46,1.8-1.19,1.16.36,2.49.63,3.15,1.83a.67.67,0,0,1-.64.94C52,27.34,51.05,28.71,49.86,28.13Z"/><path class="cls-5" d="M121.58,47c-.51-.14-1-.32-1.52-.42-1.87-.37-1.8-1.31-.78-2.56,1.64.17,2.83,1.51,4.74,1.52C123.33,46.67,122.27,46.54,121.58,47Z"/><path class="cls-5" d="M52.13,23.59l0-.64c.33-.64.8-.47,1.35-.32,1.44.4,1.77-.29,1.41-1.56l.2-.18,2.59.7,0,2.19c-1.27,0-2.54-.82-3.81,0l-1.32-.12Z"/><path class="cls-3" d="M53.89,36.55c1,.16,2-.73,3-.31l.32,2a6.69,6.69,0,0,1-3.33.42Z"/><path class="cls-5" d="M120.64,18.36c1.59.25,3.2.42,4.77.77.6.13,1.27.74,1,1.42-.33,1-1.07.3-1.59.09-1.43-.58-2.83-1.22-4.24-1.83Z"/><path class="cls-3" d="M38.84,37.72a2.8,2.8,0,0,0,.42.15l.26,2-.86.31-2.37.1,0,0,.05-1.95C37.15,38.09,38.09,38.33,38.84,37.72Z"/><path class="cls-5" d="M70.4,26.6c1.38-.65,2.37.26,3.25,1s0,1.18-.62,1.21a29,29,0,0,1-3.28-.17Z"/><path class="cls-3" d="M60,36.05a7.45,7.45,0,0,1,3.21-.14l.09,1.76c-1,.81-2.26.4-3.4.49Z"/><path class="cls-5" d="M64.07,25.42a5.18,5.18,0,0,1,3,.37l.07,2.36c-1.11-.68-2.66-.17-3.59-1.33Z"/><path class="cls-4" d="M69.27,35.38l.13,1.8c-1,.92-2.22.18-3.32.36l0-2A7.47,7.47,0,0,1,69.27,35.38Z"/><path class="cls-3" d="M67.16,28.14l-.07-2.36a5.28,5.28,0,0,1,3.31.81l-.65,2.05Z"/><path class="cls-5" d="M66.16,17.25a3.45,3.45,0,0,1,3.65,2.28c.18.43-.12,1.06-.63.93A4.1,4.1,0,0,1,66.16,17.25Z"/><path class="cls-5" d="M91.94,28.93c1.93.16,4.1-.93,6.19,1.25C95.65,30.1,93.71,29.94,91.94,28.93Z"/><path class="cls-3" d="M53.91,23.8c1.26-.84,2.54,0,3.81,0a1.09,1.09,0,0,0,.35.23l.23,1.61C56.73,25.28,54.88,25.6,53.91,23.8Z"/><path class="cls-3" d="M42.27,37.63a5.34,5.34,0,0,1,3.29-.07v1.71a6.78,6.78,0,0,1-3.2.41Z"/><path class="cls-5" d="M38.84,37.72c-.75.61-1.69.37-2.54.57l-.24-.24a2.79,2.79,0,0,0,0-2.08L39,35.46Z"/><path class="cls-5" d="M45.56,39.27V37.56c.79-.76,1.8-.41,2.71-.53l.1,2.19Z"/><path class="cls-5" d="M81.65,27c.79,1.28.19,2.39.38,3.43.12.68-.18,1-.93.91s-.76-.39-.74-.87A4.32,4.32,0,0,1,81.65,27Z"/><path class="cls-5" d="M66.12,35.52q0,1,0,2l-2.76.13-.09-1.76C64.12,35.23,65.14,35.51,66.12,35.52Z"/><path class="cls-5" d="M53.89,36.55v2.09l-2.8.1,0-2Z"/><path class="cls-4" d="M95.87,25l-.64-1.26a6.89,6.89,0,0,1,3.17-1.34l.34,1A4.79,4.79,0,0,1,95.87,25Z"/><path class="cls-3" d="M64.07,25.42l-.49,1.4c-.91-.34-2.21,1-2.82-.66l.19-1.58C62,24.78,63.2,24.5,64.07,25.42Z"/><path class="cls-5" d="M60,36.05l-.1,2.1-2.69.06-.32-2Z"/><path class="cls-5" d="M42.27,37.63l.08,2.05-2.83.17-.26-2Z"/><path class="cls-3" d="M51.08,36.73l0,2-2.74.47L48.27,37Z"/><path class="cls-3" d="M57.7,21.58l-2.59-.7-.17-1.5,3.35.69q0,.65,0,1.3Z"/><path class="cls-4" d="M109.08,34.78l-.1,1.66c-1,.32-1.63-.59-2.5-.71l-.12-1.58C107.27,34.28,108.26,34.15,109.08,34.78Z"/><path class="cls-4" d="M100.44,21.35c1.23-.62,2.31-1.74,4.06-1.21-.87,1.51-1.93,2.51-3.74,2.41Z"/><path class="cls-5" d="M54.94,19.39l.17,1.5-.2.18a4.3,4.3,0,0,1-2.68-.89V18.79A3.29,3.29,0,0,1,54.94,19.39Z"/><path class="cls-5" d="M60.95,24.58l-.19,1.58a3.11,3.11,0,0,1-2.46-.54L58.07,24A6.07,6.07,0,0,1,60.95,24.58Z"/><path class="cls-4" d="M113.57,23.31a1.63,1.63,0,0,1-.45-2c1,.15,2.11-.28,3.11.26l-.1,1.09Z"/><path class="cls-5" d="M132.35,47.81c-1.8,0-2.85-.49-3.37-1.82,0-.1.35-.52.47-.49A4.43,4.43,0,0,1,132.35,47.81Z"/><path class="cls-5" d="M135.93,51.47a7.48,7.48,0,0,1-3.27-3.35C134.53,48.73,135.52,49.43,135.93,51.47Z"/><path class="cls-5" d="M136.89,55.18c1.23.61,2,1.2,1.92,2.73C137.73,57.21,136.89,56.67,136.89,55.18Z"/><path class="cls-5" d="M100.44,21.35l.32,1.2a2.61,2.61,0,0,1-2,.88l-.34-1A3.63,3.63,0,0,1,100.44,21.35Z"/><path class="cls-5" d="M125.17,43.84c1.49-.32,2,.41,2.69,1C126.41,45.57,125.89,44.74,125.17,43.84Z"/><path class="cls-5" d="M137.85,53c.87.14,1.46.51,1.39,1.64-1-.08-1.37-.69-1.49-1.53Z"/><path class="cls-5" d="M59.89,33.44l.55-.84c.34.42.72.92.13,1.34C60.22,34.21,60,33.78,59.89,33.44Z"/><path class="cls-5" d="M127.77,26a2.88,2.88,0,0,1,0,2.37A2.57,2.57,0,0,1,127.77,26Z"/><path class="cls-5" d="M53.08,30.17l.28.72H52.05l.13-1.06Z"/><path class="cls-5" d="M105.51,24.51a1.18,1.18,0,0,1,.43-.16c.09,0,.16.18.24.28a1.1,1.1,0,0,1-.41.16C105.69,24.78,105.61,24.62,105.51,24.51Z"/><path class="cls-4" d="M49.32,22.18l.12.61c-.69.31-.37-.42-.6-.58Z"/><path class="cls-4" d="M50.12,23.25l.37.35C50.1,23.76,50,23.58,50.12,23.25Z"/><path class="cls-5" d="M137.74,53.1l-.21-.3.32.2Z"/><path class="cls-5" d="M53.31,28.82l-.13.62C52.93,29.17,53,29,53.31,28.82Z"/><path class="cls-4" d="M52.13,23.59l.46.09h-.21l-.19-.11Z"/><path class="cls-5" d="M141.1,56.93l-.23-.13.21.14Z"/><path class="cls-4" d="M79.49,31.5,78.71,31Z"/><path class="cls-4" d="M79.34,32.56l.34-.35Z"/><path class="cls-2" d="M126.69,49.25l.9.1-.39.52C126.93,49.74,126.59,49.67,126.69,49.25Z"/><path class="cls-5" d="M33,42.94l-2.84.31L30,41l.21-.21,2.47-.05Z"/><path class="cls-5" d="M36.31,38.29l-.05,1.95-2.75.2c0-2.72-2.1-1.39-3.36-1.66L30,36.6l2.29-.75.66.22c-.86,3.58,1.87,1.61,3.08,2Z"/><path class="cls-3" d="M30.14,38.77c1.26.28,3.31-1.06,3.36,1.66l-.86.34-2.47.05-.37-1.61Z"/><path class="cls-2" d="M48.83,26c.65.11,1.45,0,1.61.92C49.7,27,49,26.9,48.83,26Z"/><path class="cls-3" d="M99.05,107.13a2.19,2.19,0,0,1,2.5,2.59c-.56,5.32-.52,10.65-.74,16,0,1.18-1,1.42-1.5,2.06-1.85,2.44-5.05,2.82-7,5.37-1.52,2-3.34,4.92-7.17,4-3.57-.85-7.3.41-11.07-.84-1.72-.57-4.35.17-6.58,0a5.82,5.82,0,0,1-3.72-1.81c-2.8-2.48-5.13-5-6.53-8.56-.29-.75-1-3.1-3-3.06,0-1-.38-2.12-.29-3.05a126.55,126.55,0,0,0,.36-13.12c0-1.38.71-1.65,1.81-1.89,1.6-.35,2.19-1.19,1-2.63.12-.61-.25-1.35.46-1.81.71.11,1.35.3,1.78-.66.9-2,3-2.94,4.47-4.43.31-.31,1-.4,1.11-.73,1.76-4.68,1.92-.32,2.7.47,1.25,2.53,2.57-.44,3.84.05a5,5,0,0,0,2.62,1c2.16.53,4.69-.58,6.51,1.44l-.32.86-1,1.22c-.58,1.37-1.92,2.47-1.5,4.19a2.37,2.37,0,0,0,.05,2.35,1.84,1.84,0,0,0,.33,2c-1.62.55.16,1.53-.29,2.23-.76.73-2.13.88-2.13,2.31-2,.73-1.8,2.45-1,3.56,1.13,1.51,7.09.39,8.27-1.31,1.71-.67,3.3-1.64,2.42-3.72-.45-1.06.16-1.7.12-2.33-.15-2.57-.16-5,1.27-7.24,1.48,0,2-.81,1.68-2.22,1-.9-1-2.79,1.1-3.31,1.83.5,1.65-1.29,2.36-2.07l0-.08c1.84,1.62,3.86,3.07,4.37,5.76.21,1.13.21,2.71,2.14,2.45.37.77.64,1.86-.35,2-1.37.19-2.14.78-1.87,2C96.65,107.57,98.15,106.75,99.05,107.13ZM64.5,110.3l0,0c-.08,1.36,1.12,2,1.48,3.1,1.06-.48-.73-2.47,1.2-1.91.28.08.7.91,1.22.28s.11-1.17-.62-1.43c-.46-1,.34-2.69-2-2.63s-.62,1.74-1.36,2.31l-1.24.1C63.62,110.76,64.08,110.3,64.5,110.3Zm6-7.92c-.31-1.07.28-2.38-1.5-2.18-.94.11-1.67-.18-1.76,1.26-.13,1.94,1.44,1.2,2.21,1.6S70.61,103,70.5,102.38Zm-.58,22.09c.11-.9-.76-1.17-2-1.3s-1.69.57-1.66,1.54c0,1.84,1.82,1,2.74,1.53S69.88,125.71,69.92,124.47Zm-4.32-8.4c-.36.32-1.39-.77-1.3.81s.91,1.47,1.89,1.54c.78.06,1.53,0,1.41-1.09S66.63,115.93,65.6,116.07Zm5,17.51a4.28,4.28,0,0,0-.3-1.22c-.45-.72,1.49-2.18-.41-2.14-1,0-.35,1.7-.46,2.62C69.36,133.22,69.62,133.51,70.56,133.58Z"/><path class="cls-2" d="M76.43,77.48c-3.9-.25-7.81-.48-11.71-.76-.84-.06-1.83.16-1.66-1.43.13-1.29.73-1.27,1.68-1.43,1.58-.27,3,.24,4.51.44s2-.47,1.46-2c-1.16-3.12.74-5.72,4-5.51,3.11.2,6.22.37,9.32.63,2.87.24,3.4,1,3.1,3.93a13.69,13.69,0,0,1,0,1.91c-.53,2.12.49,2.54,2.33,2.39,1-.08,2.65-.85,2.5,1.25-.13,1.9-2.06,1.45-3,1.41-1.09-.05-2.1-.35-3.11.25l-.11-.06c0-.47-.3-.52-.68-.39l-2.58.12c-1.54-1-3.28-.83-5-.8Z"/><path class="cls-2" d="M75.74,112.7c0-1.43,1.37-1.58,2.13-2.31,1.81.86,3.32-.54,5.62-.34-1.92-1.62-4.15-.21-5.33-1.89a1.84,1.84,0,0,1-.33-2c1.1-.08,2.2-.13,3.29-.24a1.34,1.34,0,0,0,1.21-1.56,1,1,0,0,0-1.41-.9c-1,.28-2.16-.3-3.14.35-.42-1.73.93-2.82,1.5-4.19,1.62,1.83,3.3,1.37,5,.09-1.55.12-2.73-.78-4-1.31l.32-.86c1.16-.57.14-1.21.06-1.82-.26-1.93-1.14-4,1.13-5.39l1.89.37c0,1.36.07,3.26,1.68,3s-.09-1.91.11-2.94l3.11-.22a.53.53,0,0,0,.4.15c-.29,1.54-.45,3,1.28,3.92l-.62,1.51c-2.11.53-.11,2.42-1.1,3.31-2.29.93-2.29.93-1.68,2.22-1.42,2.25-1.42,4.67-1.27,7.24,0,.63-.57,1.27-.12,2.33.88,2.08-.71,3.05-2.42,3.72a5.73,5.73,0,0,1-2.49-.69C79,113.22,76.58,115.34,75.74,112.7Z"/><path class="cls-3" d="M88.58,90.54l-3.11.22-1.79,0-1.88-.37c-.9-1.94-2.15.37-3.16-.26-.17-.42.69-.6.26-1.08-.08-.75.51-.5.88-.59a4.08,4.08,0,0,0,5.14-.89c.89-.9-1-1.32-1.35-2.21-.5-1.33-.85-.74-1.63,0s-.71,2.31-2.09,2.58c-.46-2.12-1.48-3.46-3.92-2.78l-2.1-.07-1.8,0c-.85-.16-1.17.24-1.14,1l-.37.62c-.1.82.15,1.23,1,.88l.55.14A1.66,1.66,0,0,0,73.2,89c-.64,1.23-2.2.18-2.93,1.19L68.21,90c-.21-2.41.38-4.82-.13-7.23-.43-2,.18-2.64,2.28-2.21.83.17,1.11-.83,1.84-.54.91,1,2.2-.24,3.14.58.29.76-.41,2,1,2.19.34,0,1,0,.83-.41a2.55,2.55,0,0,0-1.59-1.7l-.25-.11c-.62-.33-.2-.88-.3-1.32.32-.7,1.39-.82,1.39-1.77l1.08,0c.53,1.18,3.54.83,2,3.27a3,3,0,0,0,.92.47c2.47.28,2.39-1.25,2-2.94l2.58-.11.68.39.11.06c.07,1.21-.37,2.61,1.69,2.74,1.49.09,1.38,1.49,1.36,2.53C88.87,86.07,88.7,88.31,88.58,90.54Z"/><path class="cls-2" d="M109.47,135.79c-3.92.14-4.26-.37-4-3.86.44-5.37.54-10.76,1-16.13.48-6-.33-12,.16-18,.13-1.57.49-3.13.57-4.7s1.05-1.39,2.06-1.39c1.5,0,.62,1,.62,1.54,0,6.45,0,12.9-.24,19.34-.22,7-.59,13.92-1,20.87C108.53,134.43,109,134.94,109.47,135.79Z"/><path class="cls-6" d="M93.92,57.33a3.38,3.38,0,0,0-2.6-2c-.73-.1-2,.32-1.16-1.16.35-.59-1-1.67.42-1.62.73,0,2.15-.19,2,1.45-.08.66.65.82,1,1.26s.49,1.12,1.19.77.21-1.07.37-1.36c.47-.88-1-2.3.31-2.46,1.07-.13,3-.13,2.78,2.17,0,.34.06,1.45,1.06,1.17a1.67,1.67,0,0,0,1.34-1.82c-.06-.69-.72-1.6.56-1.58s1.86.7,2,2.07c.15,1.08.13,1.56-1.05,1.54-.87,0-1.85.14-1.81,1.19s1,1.13,1.89,1.11c1,0,1.21.55,1.15,1.42s-.41,1.23-1.17,1.24a5.17,5.17,0,0,1-4.59-1.89c-.32-.44,0-1.46-1.09-1.11-.5.17-1.06.53-1,1.18s0,1.67.93,1.77c1.62.18,2,.8,1,2.11-.81,1.14-1.61.9-2.46,0-1.74-1.86-2,0-2.49,1.06-.28.57.17,1.67-1.06,1.47a2.15,2.15,0,0,1-1.63-2c-.2-1.3,1-.79,1.55-.8.93,0,1.53-.47,1.41-1.27a1.3,1.3,0,0,0-1.72-1C88.64,61,90,59,89.74,58.33c-.57-1.49.65-1,1.41-1S92.78,57.33,93.92,57.33Z"/><path class="cls-2" d="M57.59,100.38c-.71.46-.34,1.2-.46,1.81a2.49,2.49,0,0,0-2.63.12c1-1.46-.45-2.81.24-4.22.22-.44-.65-1.07-1.68-1.23S49.54,98,49.59,94.75c0-1.56-2.66-.33-4-1-.45-.23-1.32.2-1.09-.79.14-.62-.39-1.91.56-1.81,3,.31,1.89-2,2.31-3.32.27-.84-.58-2.06,1.54-1.86,1.85.17,1.54,1.05,1.5,2.06-.07,1.54-1.42,3.75,1.92,3.33.11,0,.28.39.39.61,0,.07,0,.18,0,.27-.26,2.39,3.38,2.14,3.08,4.56C58.72,96.77,57.22,99.05,57.59,100.38Z"/><path class="cls-6" d="M48.31,74.07c1.26.12,1.55-.6,1.53-1.69,0-.72,0-1.59,1-1.68.82-.07,2-.08,2.13.82.28,1.35,1.5,1.41,2.46,2.23-1.64.89-3.62-.41-5,1.22l5.13.93c-1.12.61-2.39.45-2.42,2.15s-2.17,1.68-3.3,2.33c-.87.5-.65-1.48-1.35-2.36-.26.64-.5,1.11-.65,1.62a12.22,12.22,0,0,0-.23,1.54c-1-2.78-2.66-4.49-5.57-6,2,0,3.35,0,4.67,0,.74,0,1.81.32,1.67-1.1ZM48.47,76a4.33,4.33,0,0,0-.06.88c0,.28.22.31.32.08a1,1,0,0,0,0-.52C48.75,76.27,48.62,76.16,48.47,76Z"/><path class="cls-2" d="M99.05,107.13c-.9-.39-2.4.43-2.71-1-.27-1.2.5-1.8,1.87-2,1-.13.72-1.23.35-2,.22-.76.83-1.42.47-2.34-.17-.43-.06-1,.62-.85,2.4.66,1.91-.78,2-2.28,0-.88-.9-2.94,1.49-2.69,2.07.22,1.84,2.11,1.48,3.09-.5,1.35.37,2.46,0,3.69-.17.57.17,1.38-.83,1.35-1.41,0-2.35.28-2,2,.09.41-.16.72-.63.57C98.62,103.93,99.5,106.11,99.05,107.13Z"/><path class="cls-6" d="M124.47,84.48c-1.06.36-2,.72-1.35-1.18.25-.7-.59-1.36-1.38-1.32s-1.72.54-1.47-1c.17-1-.27-2.37,1.67-2,.79.17,1.6-.67,1.41-1.31-.4-1.33-.09-1.61,1.2-1.47,1.05.11,2.39-.32,1.79,1.61a1,1,0,0,0,.49.89c1.41.57,2.34,1.71,1.48,2.94S126.82,85,124.47,84.48Zm1.19-4c-.13-.62-.07-1.44-1-1.4s-1.22.75-1.22,1.55A1.24,1.24,0,0,0,124.87,82C125.77,82,125.5,81.07,125.65,80.51Z"/><path class="cls-6" d="M59.33,61.16c.9.22,1.91,0,2,1.18s.78,1.37,1.73,1.25,1.33.22.94,1.06c-.25.55.6,2-1.08,1.55-.74-.19-1.4,0-1.28.85s.29,2-.8,1.72c-.81-.23-2.72.52-2.56-1.59a1.61,1.61,0,0,0-.82-1.35c-1.94-1.41-2-1.58,0-2.65,1-.52,0-1.23.47-1.55A4.17,4.17,0,0,1,59.33,61.16Zm.54,4.95c.68-.19,1.28-.59,1.3-1.24A1.17,1.17,0,0,0,60,63.65c-.78,0-1.2.33-1.15,1.12S59.11,66,59.87,66.11Z"/><path class="cls-6" d="M109,86.44a45.07,45.07,0,0,0-6.09.07c-1.1.16-1.33-.5-1-.86.69-.63-.67-2.07.89-2.07,3.53,0,7,.59,10.58.31.8-.07,1.76-.09,1.86,1.08a6.76,6.76,0,0,1-.23,1.56c-1.23-.61-2.25.78-3.54.32A10.87,10.87,0,0,0,109,86.44Z"/><path class="cls-3" d="M77,59c-.67,1.29-1.41,2.47-2.84,2.37a2.5,2.5,0,1,1,.06-5C75.74,56.45,76.17,58,77,59Z"/><path class="cls-6" d="M68.21,90l2.07.15C70.09,91.92,68.87,94,71.53,95l-.05.08c-1.27-.49-2.6,2.48-3.84-.05Z"/><path class="cls-6" d="M48.34,74A3.85,3.85,0,0,1,47,74c-.85-.32-2.36-.16-2.33-1.19,0-.65,0-2.34,1.86-2.28,1.17,0,.36-1.88,1.62-2.25,1.23,1.84-.61,3.86.17,5.74Z"/><path class="cls-6" d="M90.26,94.61c-1.74-.88-1.57-2.38-1.28-3.92,3-.71,2.64,1.64,3.08,3.29l0,.08C91.39,94.14,90.7,94,90.26,94.61Z"/><path class="cls-6" d="M99.57,66.26c1.59-1-.35-2.88,1.64-3.21.46-.08,1.74-1,1.89.58C103.29,65.57,102,66,99.57,66.26Z"/><path class="cls-6" d="M119.91,102c1.2.91,3.35,1.05,2.8,3-.31,1.08-1.81.16-2.25,0C118.84,104.58,120.84,103,119.91,102Z"/><path class="cls-6" d="M116.27,99.7c-.6-.09-1.92,1-1.62-.95.13-.81,0-1.72,1.28-1.5a1.94,1.94,0,0,1,1.78,2.08C117.7,100.5,116.91,99.92,116.27,99.7Z"/><path class="cls-2" d="M75.33,80.59c-.93-.81-2.23.38-3.14-.57.32-2.57,1.56-1.75,2.85-.77.1.44-.32,1,.3,1.32Z"/><path class="cls-6" d="M123.1,100c-1.18-.35-2.6.73-3-1.16-.1-.49-.34-1.38.27-1.39C121.83,97.43,122.6,98.43,123.1,100Z"/><path class="cls-6" d="M117.4,103.85c.09,1.15-.66,1.06-1.43,1s-1.59.3-1.2-1c.16-.55-.08-1.65.7-1.39C116.1,102.69,117.45,102.5,117.4,103.85Z"/><path class="cls-2" d="M48.37,39.21l2.74-.47,2.8-.1a6.69,6.69,0,0,0,3.33-.42l2.69-.06c1.14-.09,2.36.32,3.4-.49l2.76-.13c1.1-.18,2.3.56,3.32-.36,1.24,0,2.62-.49,3.34,1.08l-1.12,1.12a5.16,5.16,0,0,0-2.83.22L66,39.87a7.6,7.6,0,0,0-3.37.5c-1.13-.71-2.2-.85-3.16.28a2.51,2.51,0,0,0-2.42.34,4.48,4.48,0,0,0-3.26.22c-2.09.31-4.29-.47-6.31.59L45.1,42a4.6,4.6,0,0,0-2.89.35l-3.31-.05c.07-.71.29-1.45-.25-2.09l.87-.31,2.83-.17a6.78,6.78,0,0,0,3.2-.41Z"/><path class="cls-2" d="M32.64,40.78l.86-.34,2.75-.2,0,0-.07,2.4a5.51,5.51,0,0,1-3.2.28Z"/><path class="cls-5" d="M36.22,42.66l.07-2.4,2.37-.1c.53.64.31,1.37.25,2.09A5.9,5.9,0,0,1,36.22,42.66Z"/><path class="cls-2" d="M125.63,24.91a.71.71,0,0,1-.21-.1s0-.11,0-.17l.24.26Z"/><path class="cls-2" d="M36.06,38.05c-1.21-.38-3.94,1.59-3.08-2L36.09,36A2.79,2.79,0,0,1,36.06,38.05Z"/><path class="cls-2" d="M52.23,20.18a4.3,4.3,0,0,0,2.68.89c.36,1.27,0,2-1.41,1.56-.55-.15-1-.32-1.35.32-.47-.77-1.94-.93-1.51-2.2C50.85,20.11,51.56,20,52.23,20.18Z"/><path class="cls-6" d="M78.63,90.11c1,.63,2.26-1.68,3.16.26-2.27,1.4-1.39,3.45-1.13,5.38.08.61,1.1,1.25-.06,1.82-1.81-2-4.35-.91-6.51-1.45a5,5,0,0,1-2.62-1l.05-.08c2.61-1,1.89-3.46,2.24-5.44l2.06.68c-.18.88-.37,1.76-.53,2.64-.27,1.46.71,2,1.84,2.14,1.34.15,1.17-1.24,1.38-2a9.68,9.68,0,0,0,0-2.88Z"/><path class="cls-6" d="M75.74,112.7c.84,2.64,3.3.52,4.81,1.56a5.73,5.73,0,0,0,2.49.69c-1.18,1.7-7.14,2.83-8.27,1.31C73.94,115.14,73.74,113.42,75.74,112.7Z"/><path class="cls-6" d="M77.78,103.84c1-.65,2.1-.07,3.14-.35a1,1,0,0,1,1.41.9A1.34,1.34,0,0,1,81.12,106c-1.09.11-2.19.16-3.29.24A2.37,2.37,0,0,1,77.78,103.84Z"/><path class="cls-2" d="M70.5,102.38c.11.57-.28,1.09-1,.69s-2.34.33-2.21-1.6c.1-1.44.83-1.16,1.76-1.26C70.78,100,70.19,101.32,70.5,102.38Z"/><path class="cls-2" d="M69.92,124.47c0,1.24-.17,2.2-1,1.77s-2.7.31-2.74-1.53c0-1,.34-1.68,1.66-1.54S70,123.57,69.92,124.47Z"/><path class="cls-2" d="M64.49,110.08c.74-.57-.8-2.25,1.36-2.31s1.5,1.63,2,2.63l-3.27-.05,0,0Z"/><path class="cls-6" d="M78.16,108.16c1.18,1.68,3.41.27,5.33,1.89-2.3-.2-3.81,1.2-5.62.34C78.31,109.69,76.54,108.7,78.16,108.16Z"/><path class="cls-6" d="M80.29,98.43c1.3.53,2.48,1.43,4,1.31-1.74,1.28-3.42,1.74-5-.09Z"/><path class="cls-4" d="M64.54,110.35l3.27.05c.73.25,1.14.8.62,1.43s-.93-.2-1.22-.28c-1.93-.56-.14,1.43-1.2,1.91C65.66,112.36,64.46,111.71,64.54,110.35Z"/><path class="cls-2" d="M65.6,116.07c1-.14,1.86.07,2,1.26s-.63,1.15-1.41,1.09c-1-.07-1.8,0-1.89-1.54S65.24,116.39,65.6,116.07Z"/><path class="cls-7" d="M70.56,133.58c-.94-.07-1.2-.36-1.16-.74.11-.92-.54-2.6.46-2.62,1.9,0,0,1.42.41,2.14A4.28,4.28,0,0,1,70.56,133.58Z"/><path class="cls-6" d="M86.86,101.66c-.61-1.29-.61-1.29,1.68-2.22C88.86,100.84,88.34,101.62,86.86,101.66Z"/><path class="cls-4" d="M90.26,94.61c.44-.62,1.13-.47,1.74-.56-.71.78-.53,2.57-2.36,2.07Z"/><path class="cls-4" d="M64.49,110.08v.22c-.42,0-.88.46-1.25-.12Z"/><path class="cls-5" d="M82.5,78.24c.34,1.69.43,3.23-2,2.94a3,3,0,0,1-.92-.47c1.52-2.45-1.49-2.09-2-3.27C79.23,77.41,81,77.21,82.5,78.24Z"/><path class="cls-4" d="M85.76,78.51l-.68-.39C85.46,78,85.73,78,85.76,78.51Z"/><path class="cls-6" d="M83.67,90.73l1.79,0c-.2,1,1.44,2.66-.11,2.94S83.67,92.09,83.67,90.73Z"/><path class="cls-2" d="M73.77,89.56c-.35,2,.37,4.39-2.24,5.44-2.66-1-1.44-3.08-1.26-4.86.73-1,2.29,0,2.93-1.19Z"/><path class="cls-2" d="M79.85,88c1.37-.27,1.29-1.77,2.09-2.58s1.12-1.36,1.63,0c.34.89,2.24,1.31,1.35,2.21a4.08,4.08,0,0,1-5.14.89A.7.7,0,0,0,79.85,88Z"/><path class="cls-5" d="M79.85,88a.7.7,0,0,1-.08.48c-.37.08-1-.16-.88.59l-.68.2-2.84-1.87.12-1.15.44-1C78.37,84.51,79.38,85.84,79.85,88Z"/><path class="cls-4" d="M75.37,87.34l2.84,1.87.08.77c-.78.47-1.63.17-2.45.25l-2.06-.68L73.2,89a1.67,1.67,0,0,1-1.09-1.11h1c.42,0,.64-.15.4-.6l.14-.05.08.13Z"/><path class="cls-2" d="M73.12,87.85h-1l-.55-.14L71,86.76a.5.5,0,0,0,0-.19,2.92,2.92,0,0,0-.13-.36c0-.8.3-1.2,1.14-1l1.64.56a.46.46,0,0,0,0,.4,1,1,0,0,0,0,1.2l-.08-.13-.14.05Z"/><path class="cls-4" d="M75.34,80.57l.25.11a2.55,2.55,0,0,1,1.59,1.7c.13.42-.49.46-.83.41-1.44-.2-.73-1.43-1-2.19Z"/><path class="cls-4" d="M73.72,86.12a.46.46,0,0,1,0-.4l.15-.6,2.1.07-.44,1Z"/><path class="cls-5" d="M71,86.76l.59.94c-.89.36-1.13-.06-1-.87A2.22,2.22,0,0,1,71,86.76Z"/><path class="cls-6" d="M78.29,90l-.08-.77.68-.19c.43.48-.43.66-.26,1.08l-.1.08A.54.54,0,0,1,78.29,90Z"/><path class="cls-5" d="M73.83,85.12l-.15.6L72,85.16Z"/><path class="cls-4" d="M71,86.76a2.22,2.22,0,0,0-.45.07l.37-.62a2.93,2.93,0,0,1,.13.36A.5.5,0,0,1,71,86.76Z"/><path class="cls-4" d="M48.47,76c.15.21.28.31.3.43a1,1,0,0,1,0,.52c-.1.23-.28.2-.32-.08A4.33,4.33,0,0,1,48.47,76Z"/><path class="cls-4" d="M125.65,80.51c-.15.56.12,1.44-.79,1.5a1.24,1.24,0,0,1-1.39-1.35c0-.79.36-1.5,1.22-1.55S125.53,79.89,125.65,80.51Z"/><path class="cls-4" d="M59.87,66.11c-.77-.1-1-.67-1.05-1.34s.36-1.16,1.15-1.12a1.17,1.17,0,0,1,1.2,1.22C61.16,65.52,60.55,65.92,59.87,66.11Z"/><path class="cls-2" d="M78.29,90a.54.54,0,0,0,.24.2,9.7,9.7,0,0,1,0,2.88c-.21.71,0,2.1-1.38,2C76,94.9,75,94.34,75.31,92.88c.16-.88.35-1.76.53-2.64C76.66,90.16,77.51,90.46,78.29,90Z"/><path class="cls-3" d="M73.72,86.12l1.77.07-.12,1.15-1.62,0A1,1,0,0,1,73.72,86.12Z"/><path class="cls-5" d="M73.12,87.85l.4-.6C73.75,87.7,73.54,87.84,73.12,87.85Z"/></svg>