<svg id="圖層_1" data-name="圖層 1" xmlns="http://www.w3.org/2000/svg" viewBox="0 0 162 168"><defs><style>.cls-1{fill:#c2bdb6;}.cls-2{fill:#1e1d22;}.cls-3{fill:#efebd2;}.cls-4{fill:#bd261e;}.cls-5{fill:#794d37;}.cls-6{fill:#0c723c;}.cls-7{fill:#fdfdfd;}</style></defs><title>CC6</title><path class="cls-1" d="M143,79.36c-.21-.6-.44-1-1.08-1l-4-8.85-2.54-4.27,2.54,4.27a10.33,10.33,0,0,0,2.14,0c1.63-.37,1.9-1.14.48-2.23l-.21-.75-.44-.89a.55.55,0,0,1-.16-.38l0,.09-.57-.79-9.4-5.43a3.09,3.09,0,0,0-.26,2.5,3.09,3.09,0,0,1,.26-2.5l9.4,5.43a5.29,5.29,0,0,0-1.34-2.74c-.22-2.73-2.08-4.78-3-7.23.06-1.27-1-1.78-1.75-2.47.54-1.67-.63-2.23-1.79-2.88-6.62-3.72-13.46-7.06-19.75-11.36.24-.13.48-.38.71-.38,5,0,9.77-1.34,14.5-2.85,2.48-.79,4.15-1.92,3.61-4.86-.26-1.44-.25-2.94-.62-4.35-.85-3.22-.13-6.86-2.59-9.64l-.06,5.59.42,1.24-.42-1.24.06-5.59-.63-.59c-.69-1-1.7-.62-2.62-.63-7.65-1.19-14.88.55-22,3.19L91.06,21.76a5,5,0,0,1-2.18,1.61,5,5,0,0,0,2.18-1.61c-3.06-.28-5.92-.11-7.21,3.38-1.33.94-2.68-.53-4,0-1.61-.8-3.68-.77-4.58-2.81-.33-.75-1.24-.58-1.95-.61a60.05,60.05,0,0,0-11.08-7.86A30.22,30.22,0,0,1,55,9.1c-1.65-2.17-4-3.35-6.4-4.42C45.72,3.38,44.82,4,44.33,7.32l.67,1,2.21.82L45,8.31l-.67-1c-2,1.79-2.73,4.34-3.85,6.64-1.76,2.28-2.87,4.56.11,6.77a1.22,1.22,0,0,1,.53,0,1.63,1.63,0,0,0,0-.89,1.63,1.63,0,0,1,0,.89,1.21,1.21,0,0,0-.53,0c.08,2,1.84,2.44,3.08,3.13,2.49,1.39,4.89,2.61,3.6,6.13a6.59,6.59,0,0,1-1.59.39c-6.17-.06-12.34-.19-18.51-.21-.66,0-1.68-.83-2.07.5h0c-.17.81-1.64,1-1.06,2.18-1.51.66-1.78,1.93-1.65,3.39q1.8-.11,3.59-.18a106.3,106.3,0,0,1,10.79.09l.78,0,.23-.88c-.34-.15-.85,0-1.14-.25.29.2.8.1,1.14.25l-.23.88-.78,0A106.17,106.17,0,0,0,26,36.07q-1.8.07-3.59.18l-1.22.3c.77.43,1.75,0,2.56.22-.81-.25-1.79.21-2.56-.22l-.54.64-.63.68A1.18,1.18,0,0,0,19.54,39h0l-.56.7,1.29.48h0L19,39.75c-.61,1.62-2.29,2.58-2.68,4.33l4.46-.18h0l-4.46.18a7.26,7.26,0,0,0-2.38,3.32c4.5.72,8.75-.38,13-.13a51.61,51.61,0,0,0,10.47-.43c3-.44,6.15-1.3,9.26-.2-2.12,1.57-4.36,3-6.34,4.74-19.5,17.11-27.57,43-19.43,68.56,2.55,8,7,14.93,11.92,21.58,0,1.55.64,2.55,2.32,2.64l3.29,3.3c-.16,1.23.8,1.81,1.52,2.47A61.17,61.17,0,0,0,57.7,160.86,62.18,62.18,0,0,0,93.34,165c19.08-3.33,34.11-13.14,44.17-30A66.81,66.81,0,0,0,147,103.14,63.74,63.74,0,0,0,143,79.36ZM23.58,95.56h0l-.09,1.06ZM41,36.7h0l.23.18-.09.55h0l.09-.55Zm9.12-2.23h0l-.54.18h0ZM54.89,14h0c.5.54,1.34.74,1.81,1.31-.47-.58-1.3-.77-1.81-1.31l-.6.8h0Zm56.33,5.59c.11.19.42.18.65.23h0C111.64,19.76,111.33,19.77,111.22,19.58Zm.57-.61.84.53-.84-.53ZM127,54.45h0Zm3,1.12.12-.07-.12.07h0Zm-2.42,2.27h0l-.09,0Zm12.26,50.72a9.73,9.73,0,0,0,.42-3.1A9.72,9.72,0,0,1,139.9,108.56Zm.4-4.73s0,0,0,.06S140.3,103.86,140.3,103.84Zm-1.79,8.82a.28.28,0,0,0,.16-.15A.28.28,0,0,1,138.51,112.66ZM67.32,31.52c1-.43,1.39-1.32.85-3.07l-.49-.32.49.32C68.71,30.2,68.28,31.08,67.32,31.52ZM58.2,23.59l0-.15,0,.15c.62,1.81,1.58,3,3.15,3C59.78,26.57,58.83,25.4,58.2,23.59ZM60,20.73a.9.9,0,0,1,.34.17A.9.9,0,0,0,60,20.73Zm-3.17-1.62a1.32,1.32,0,0,0,.58,0h0A1.32,1.32,0,0,1,56.86,19.11Zm-5.3,0,1.93-.7c0-.31-.35-.81.27-.79-.61,0-.29.48-.27.79ZM55,23.68c.21-1.34-.69-1.84-1.69-2.35,1,.51,1.9,1,1.69,2.35Zm1.55.22-.4-.07Zm6.56,2.32h0c1.17-.14,2,.65,2.81,1.25C65.09,26.86,64.31,26.07,63.14,26.22Zm-4.08-3.71h0a1.08,1.08,0,0,0-.55-.66,1.08,1.08,0,0,1,.55.66h0l.28,1Zm-3.58-4.2.28.2-.28-.2c.12-.52.07-1.12.64-1.45h0C55.54,17.18,55.59,17.78,55.48,18.31ZM54.61,29a5.1,5.1,0,0,1,2.63.57A5.1,5.1,0,0,0,54.61,29a3.75,3.75,0,0,1-.85-.06A3.75,3.75,0,0,0,54.61,29Zm-.22.43a1.17,1.17,0,0,1-.52.21A1.17,1.17,0,0,0,54.39,29.41Zm-.81.28a.77.77,0,0,0-.36.21,9.2,9.2,0,0,1-1.41.59,9.18,9.18,0,0,0,1.41-.59A.78.78,0,0,1,53.58,29.69Zm18,2.8c.06-.8.65-.67,1.16-.69l.34-.7-.34.7h0c-.51,0-1.11-.11-1.16.7l.1,2.18.05.26-.05-.26-.1-2.18c-5.52,1.81-11.25,2.26-17,2.86C60.28,34.76,66,34.31,71.53,32.49Zm15.8-3.08a3,3,0,0,1,.43.52A3,3,0,0,0,87.34,29.41Zm.31,1.08a54.76,54.76,0,0,1,5.19,2.28A7.73,7.73,0,0,1,94.35,34l1.55.51,0,.67h0l0-.67L94.35,34a7.73,7.73,0,0,0-1.51-1.19,54.52,54.52,0,0,0-5.19-2.28ZM103.19,26,103,25h0l.18.91Zm-4.86-.73a7.47,7.47,0,0,1-1,.48,7.49,7.49,0,0,0,1-.48,3.66,3.66,0,0,0,1.21-.34A3.66,3.66,0,0,1,98.33,25.23Zm8.2.51,1.56-1,2.63-.86-2.63.86-1.56,1a7,7,0,0,0-2.86,1.17h0A7,7,0,0,1,106.53,25.73Zm.84-1.57a2.17,2.17,0,0,0,1.73-1A2.17,2.17,0,0,1,107.37,24.16ZM69,133.65h0l.37-2.19Zm34.48-19c-.17.13-.22.37-.18.76C103.31,115,103.35,114.8,103.53,114.67Zm-8.67,13.38a.74.74,0,0,1-.41-.41A.74.74,0,0,0,94.85,128.06Zm-8.69-3.18h0c-.16-.78-.57-1.57-.2-2C85.6,123.31,86,124.09,86.17,124.88ZM62.8,73.39c.3-.11.6-.24.89-.32-.3.08-.6.2-.89.32L62,73.07Zm37.74,5.22a2.2,2.2,0,0,1-1.08-.14A2.21,2.21,0,0,0,100.54,78.61Zm-13.83-6a2.52,2.52,0,0,1,.46-.52A2.52,2.52,0,0,0,86.71,72.61Zm14.73,7.55v0Zm.11-1.76h-.23l-.23,0a1.4,1.4,0,0,1-.41.17,1.4,1.4,0,0,0,.41-.17l.23,0h.23ZM103.9,75a2.52,2.52,0,0,0,.18-1A2.52,2.52,0,0,1,103.9,75Zm.09-1.63a2.42,2.42,0,0,1,.1.56,2.42,2.42,0,0,0-.1-.56Zm.17-.52a6.85,6.85,0,0,0,.08-1.16A6.85,6.85,0,0,1,104.16,72.86Zm-5.32.46a28.15,28.15,0,0,0-5.25-.4,28.17,28.17,0,0,1,5.25.4h0ZM88.74,62.79c.11-.09.22-.19.33-.29C89,62.6,88.85,62.7,88.74,62.79Zm-.86,1.53a1.06,1.06,0,0,0-.38.09,1.06,1.06,0,0,1,.38-.1Zm-1,1.49a.76.76,0,0,1-.37.47h0a.76.76,0,0,0,.37-.47,2.37,2.37,0,0,0,.08-.34A2.4,2.4,0,0,1,86.91,65.81Zm-26.32,9.9h0a5,5,0,0,1-.7-2.51A4.94,4.94,0,0,0,60.59,75.71Zm1.59,2.87c0-.07,0-.14,0-.21s0,.14,0,.21Zm2.93-1.45c0,.13,0,.26-.06.39C65.06,77.4,65.08,77.27,65.11,77.14Zm-2.39-1.57a2.48,2.48,0,0,1-.09,1.34,2.48,2.48,0,0,0,.09-1.34Zm8.46,35.06h0l-.17-.22ZM60,72.3v0ZM60,76.43a1.43,1.43,0,0,0,0,1.85A1.43,1.43,0,0,1,60,76.43Zm-5.94,38.16a1,1,0,0,0-.58.39A1,1,0,0,1,54.08,114.59Zm.72,0a1.73,1.73,0,0,0-.58,0A1.73,1.73,0,0,1,54.8,114.59Zm8.34,8c.29,0,.58.1.85.12-.28,0-.57-.07-.85-.12a4.4,4.4,0,0,0-.83-.07A4.4,4.4,0,0,1,63.14,122.54Zm2.11-.07c.73-.07,1.11.17,1.3.58C66.36,122.64,66,122.4,65.25,122.47Zm0-38a7.76,7.76,0,0,1,1.07-.19,7.74,7.74,0,0,0-1.07.19Zm38.09,31c0,.37.16.86.31,1.5a3.38,3.38,0,0,0-.38.65,3.38,3.38,0,0,1,.38-.65C103.52,116.4,103.42,115.92,103.37,115.54ZM77,64.47h0c.35,0,.7,0,1,.08C77.68,64.52,77.33,64.49,77,64.47ZM60.1,68.3h0Zm-.44,1.55c-.74.48-2,.25-2.78.69.78-.44,2-.21,2.78-.69Zm23.11,66.28c0-2.25-.41-4.5-.35-6.76-.06,2.26.32,4.51.35,6.76ZM88,125.36a1.93,1.93,0,0,1,.74.86A1.93,1.93,0,0,0,88,125.36Zm-1.45-88h0l.12-.15Zm32.77,13.2h0ZM121,53.74h0Zm-1.77-3.19h0a5.44,5.44,0,0,1,2.64,1A5.44,5.44,0,0,0,119.27,50.54Zm-2.84.84h0a1.18,1.18,0,0,1,.73.88A1.18,1.18,0,0,0,116.44,51.38ZM98,42.21a1.61,1.61,0,0,1,.08-.33l0,0,0,0A1.59,1.59,0,0,0,98,42.21ZM94,41.5l0,0h0ZM92.1,36.77l-.2-.53.2.53Zm6.06.75a5.4,5.4,0,0,0-.72-.29,5.4,5.4,0,0,1,.72.29,2.29,2.29,0,0,0,.7.22A2.3,2.3,0,0,1,98.16,37.52Zm0,4.3h0a2,2,0,0,1-1.59-.07A2,2,0,0,0,98.16,41.82Zm-.39-2.23a.36.36,0,0,0-.16.18.36.36,0,0,1,.16-.18c.39-.11.78.25,1.18.32C98.55,39.85,98.16,39.49,97.77,39.6ZM99,37.76a1,1,0,0,0,.82-.44l-.6-.47h0l.6.47A1,1,0,0,1,99,37.76Zm4.59.93h0c-1,.26-1.64-.35-2.35-.83C101.94,38.35,102.6,39,103.58,38.69Zm-2-1.47c.2.08.42.14.64.21C102,37.36,101.74,37.3,101.53,37.22Zm-.58-1,0-.14h0Zm-1.78.7,0-.09h0Zm-5.29,1.94-.14.15h0Zm0,1.13h0L91,39.67Zm4.08,3.36,0,0Zm.2-.61h0a1.57,1.57,0,0,1,0-.39c3.57,2.44,7.09,5,11.73,4.92h0c-4.64.11-8.16-2.48-11.73-4.92A1.56,1.56,0,0,0,98.11,42.75Zm12.58,6.05a1.57,1.57,0,0,1-.8-.74A1.57,1.57,0,0,0,110.69,48.8Zm.64.26a5.49,5.49,0,0,0,.68.52,5.5,5.5,0,0,1-.68-.52Zm2.21,1.24a7.12,7.12,0,0,1-1.09-.48A7.12,7.12,0,0,0,113.55,50.3Zm-8.46-11.84h0a2.7,2.7,0,0,1-.33.46A2.7,2.7,0,0,0,105.09,38.46Zm-5.82-6.58a2.5,2.5,0,0,0,.65.43A2.5,2.5,0,0,1,99.27,31.88Zm.48,3.33h0Zm-8.13,6.25h0C91.14,40.92,90,41,90.1,40,90,41,91.14,40.92,91.61,41.45Zm4.81,2.65-1.61-.7.25-1.51h0l-.26,1.52,1.61.7a110.13,110.13,0,0,0,11.67,5.82A110.3,110.3,0,0,1,96.43,44.1ZM118.06,54l0,0a2.9,2.9,0,0,0,1.37,1.12A2.9,2.9,0,0,1,118,54Zm3.13.19a.62.62,0,0,1-.1-.47h0A.62.62,0,0,0,121.19,54.16Zm1.43-1.93h0l0-.12ZM121.46,49a.55.55,0,0,1,.27-.13.55.55,0,0,0-.27.13l.35,1Zm-.5-1.18c-.22.26-.16.4,0,.51-.15-.11-.22-.25,0-.51l1.08.37Zm.26.67-.2-.11Zm.22.5h0a2.76,2.76,0,0,1-.94.13A2.76,2.76,0,0,0,121.44,49Zm-.22,1.13a3.59,3.59,0,0,1-1.58-.58h0A3.58,3.58,0,0,0,121.22,50.09Zm-6.13-3.71h0c-.4.2-.54.39-.5.57,0-.18.1-.37.5-.57h0c-.28.19-.5.26-.66.19.16.07.38,0,.66-.19l.9-.3Zm.79-1a2.63,2.63,0,0,0-.3-.15,2.65,2.65,0,0,1,.3.15.6.6,0,0,0,.11.07A.6.6,0,0,1,115.88,45.35Zm-1.76.6-2.37-1.27-.36-.25.36.25,2.37,1.27c.21-.82.62-1,1.16-.88C114.74,44.91,114.32,45.12,114.11,45.95Zm-3.81-3.15c-.74-1.14-2.12-1.62-3.07-2.54,1,.92,2.33,1.39,3.07,2.54a1,1,0,0,1,.53.45A1,1,0,0,0,110.31,42.8Zm-5.13-4.17,0-.09,0,.09a.75.75,0,0,0,.22.37A.75.75,0,0,1,105.18,38.62Zm-2.38-3.28a1.45,1.45,0,0,1,1,0A1.45,1.45,0,0,0,102.8,35.34Zm1.37.26s.08,0,.11.08S104.21,35.64,104.17,35.6Zm3-6.06-.25,0,.25,0Zm-2.33-.13-.38-.15a9,9,0,0,0-1.23.29,9,9,0,0,1,1.23-.29Zm.08,1.26h0a3.47,3.47,0,0,0-1.71,1.1A3.47,3.47,0,0,1,105,30.68Zm5.84,3.42a1.59,1.59,0,0,0,.26.81,1.59,1.59,0,0,1-.27-.81l-3.71,0ZM116.46,24l2,.17.2-1-1.07.08h0l1.07-.07h0l-.2,1a17.62,17.62,0,0,0,4.93.52,17.63,17.63,0,0,1-4.93-.52Zm1.15-1,0-.63h0Zm-.13-3.39a8.9,8.9,0,0,1,1.11-.16,8.89,8.89,0,0,0-1.11.16Zm1.64,1h0l.06.22ZM116,18c.41,0,.83,0,1.24,0C116.85,18,116.43,18,116,18Zm0,1h0Zm-1,2.8a6.2,6.2,0,0,1-2.08.25A6.2,6.2,0,0,0,115,21.75Zm.33,1a1.63,1.63,0,0,1,1.15-.37,1.63,1.63,0,0,0-1.15.37,21.61,21.61,0,0,0-2.89.61A21.61,21.61,0,0,1,115.31,22.74Zm-13.7,6.53v0Zm-1.88.87c-.55.69-.8,1.12-.63,1.48-.16-.37.08-.79.63-1.48l.22-.13Zm-8.66,3.22h0Zm-5,2.86,2.86.55a1,1,0,0,1,1.22-.27,1,1,0,0,0-1.22.27L86,36.22h0a8.52,8.52,0,0,1-.19-1.2A8.52,8.52,0,0,0,86,36.22ZM82.6,39.76c.37-.22.75-.5,1.14-.77L83,38.76l.73.23h.05l2.87,1.11,2.54,1.18a3.8,3.8,0,0,0,2.28,1.07,3.8,3.8,0,0,1-2.28-1.07l-2.54-1.18L83.79,39h-.05c-.39.27-.77.55-1.14.77a2.71,2.71,0,0,1-1.07.42A2.71,2.71,0,0,0,82.6,39.76Zm-10,2.36a3.24,3.24,0,0,0,0-1.88,1.48,1.48,0,0,0-.41-.12,1.51,1.51,0,0,1,.41.12A3.24,3.24,0,0,1,72.63,42.12ZM72.77,38h0l1.12-.06h0Zm1.16-.06h0ZM47.31,39.51A3.18,3.18,0,0,0,45,38.89a3.18,3.18,0,0,1,2.28.62,2.27,2.27,0,0,0,.74.18A2.27,2.27,0,0,1,47.31,39.51ZM49.62,39a3.7,3.7,0,0,1,.83-.18A3.71,3.71,0,0,0,49.62,39ZM72.7,33.73l0-1.91h0l0,1.91,0,1.28h0q0,.58,0,1.15,0-.58,0-1.15Zm.19,1.18,0,0Zm-10.71,1.9h0l1.1-.08Zm1.09,1.67h0Zm.8,0h0ZM61.6,36.81h0l-.51.42h0Zm7.15,1.66a6.25,6.25,0,0,0,1.56.12,6.27,6.27,0,0,1-1.56-.12,16.88,16.88,0,0,0-3,.46A16.9,16.9,0,0,1,68.75,38.47Zm4.48-6.73.87.2a1,1,0,0,1,.53,0,1,1,0,0,0-.53,0Zm-21,5.14a4.1,4.1,0,0,1-.72,0A4.13,4.13,0,0,0,52.21,36.88Zm-2.14-.06a1.05,1.05,0,0,1-.4.32,1.05,1.05,0,0,0,.4-.32Zm-1,.38a1.62,1.62,0,0,1-.38-.15h0A1.61,1.61,0,0,0,49.08,37.2Zm-4.35-2.41a.68.68,0,0,1,.27.1A.68.68,0,0,0,44.73,34.78Zm.07,2.42h0ZM35.17,41.9h0ZM36.57,40Zm.45.83h1.11a.88.88,0,0,0,1,.45.88.88,0,0,1-1-.45Zm5.26-.11a2.72,2.72,0,0,0,1.08.18,2.73,2.73,0,0,1-1.08-.18,1.64,1.64,0,0,0-.71-.12A1.63,1.63,0,0,1,42.29,40.7Zm6,0A2.84,2.84,0,0,0,50,40.22l1,0a13.84,13.84,0,0,0,2.87.4,13.83,13.83,0,0,1-2.87-.4l-1,0A2.84,2.84,0,0,1,48.31,40.71Zm23.86-.6h0a17,17,0,0,1-5.48.61A17,17,0,0,0,72.17,40.11Zm-1.06,93.63a.9.9,0,0,1,.57.3A.9.9,0,0,0,71.11,133.74Zm6.31,5.88a5.64,5.64,0,0,1-.94-.2A5.65,5.65,0,0,0,77.43,139.61Zm.08,0a2.1,2.1,0,0,0,1.54-.45c3.42.16,6.85.34,10.27.48-3.42-.14-6.85-.32-10.27-.48A2.1,2.1,0,0,1,77.51,139.63Zm44.62-83.35a6.63,6.63,0,0,0,1.2.43A6.63,6.63,0,0,1,122.13,56.27Zm.76-3.75c.11,0,.24-.14.37-.33s.44-.1.69-.08c-.25,0-.58-.08-.69.08S123,52.52,122.88,52.53Zm1.35-.43a.14.14,0,0,1-.1,0A.14.14,0,0,0,124.23,52.1ZM123.61,49a.6.6,0,0,1-.81.28.6.6,0,0,0,.81-.28l.32.1Zm-6-2.22a1.16,1.16,0,0,1-.7.33,1.16,1.16,0,0,0,.69-.33l.45-.51ZM107.51,35.93l-.16,0Zm3-.08c-.27,0-.55,0-.81,0C109.94,35.82,110.21,35.84,110.49,35.84Zm.4,0h0Zm17.78-7.4,0-.37c-1.83-1.27-3.95-1.45-6-1.71,2.09.25,4.21.44,6,1.71Zm-7.48-6.5c.74-.06,1.47-.1,2.21-.09C122.66,21.84,121.93,21.88,121.19,21.94Zm3-.66h0Zm-2.1-4.57-1.43.36,1.43-.36Zm-7.17,3.53h0l-.16-.12Zm-5.61,2.26,2.79-.73-2.79.73h0l-6.16,2.22h0ZM98.19,28c.41.63.86.47,1.31.29a1.54,1.54,0,0,1,.81-.17,11.42,11.42,0,0,1,3-1.2,11.41,11.41,0,0,0-3,1.2l.15.85,1.19.41h0L100.46,29l-.15-.85a1.54,1.54,0,0,0-.81.17c-.45.18-.9.34-1.31-.29l-5.65.39ZM74.3,39.68c1.18-.46.94-.73,0-1.8h0C75.25,38.95,75.49,39.22,74.3,39.68Zm.06-3a1.35,1.35,0,0,0-.51-1.07l0-1.35,0,1.35A1.35,1.35,0,0,1,74.36,36.7Zm-2.19-9.86h0c-.32.69-.58,1.42-.88,2.13C71.59,28.27,71.86,27.54,72.18,26.84ZM57.55,16.64a10.12,10.12,0,0,0,1,.33A10.08,10.08,0,0,1,57.55,16.64Zm-6.32-3.52.06,0h0ZM51,14.56a5,5,0,0,1-2-.71A5,5,0,0,0,51,14.56ZM53,28.7a5.92,5.92,0,0,1-1.38-.82A5.92,5.92,0,0,0,53,28.7Zm2.58,4.7-2.75.17-2.33.92,2.33-.92ZM37.49,38h0ZM22.81,39c-.49,0-1,.06-1.46.12C21.84,39.06,22.32,39,22.81,39Zm2,4.67-.17.09Zm25-2.49a3.52,3.52,0,0,0-.74,0A3.5,3.5,0,0,1,49.84,41.18ZM63.5,44.43l.9-.13-.91.13a66.11,66.11,0,0,0-9.71.49A66.23,66.23,0,0,1,63.5,44.43ZM43.16,144.12a1.19,1.19,0,0,1-.35-.21A1.19,1.19,0,0,0,43.16,144.12Zm-.45-.27a1.4,1.4,0,0,1-.3-.44A1.4,1.4,0,0,0,42.72,143.85Zm1.06.36a2.44,2.44,0,0,1,1.35,1.09,2.44,2.44,0,0,0-1.35-1.09ZM49,148.58a10.54,10.54,0,0,1-2.45-1.72A10.53,10.53,0,0,0,49,148.58Zm1.41.6.68.38-.68-.38Zm3.68,2.62a3.81,3.81,0,0,1-.48-.23A3.84,3.84,0,0,0,54.09,151.8Zm7.71,3c1.7.57,3.41,1.08,5.13,1.53-1.72-.45-3.43-1-5.14-1.53-.44-.12-.89-.22-1.33-.32C60.91,154.62,61.36,154.72,61.8,154.84Zm-1.36-.33a9.27,9.27,0,0,1-2.6-.93A9.27,9.27,0,0,0,60.44,154.51Zm17,3.62a55.57,55.57,0,0,1-10.34-1.72A55.56,55.56,0,0,0,77.41,158.13Zm62.46-58.69a1,1,0,0,1,0-1.24,1,1,0,0,0,0,1.24c.52.43.9.88.78,1.45C140.78,100.32,140.39,99.87,139.87,99.44Zm-1.95-16.83a1.79,1.79,0,0,1,.19.5A1.79,1.79,0,0,0,137.93,82.61ZM129.77,62.4c1,1,2.39,1.08,3.66,1.47-1.27-.39-2.71-.45-3.66-1.47-1.18-.21-2.22-1-3.39-1.22C127.55,61.43,128.59,62.19,129.77,62.4Zm-2.86-5.67h0l-.35,0a9.55,9.55,0,0,0-3.35-2,9.56,9.56,0,0,1,3.35,2l.35,0c2.39,0,4.19,1.32,6,2.52C131.09,58.05,129.29,56.76,126.9,56.73ZM125,49.52l.69.34Zm1.78-17.09a.53.53,0,0,0,.34-.46h0A.53.53,0,0,1,126.77,32.43ZM125.34,22h0v0Zm-11.08-3.5h0a5.14,5.14,0,0,1-1.27.08A5.13,5.13,0,0,0,114.25,18.45Zm-4.75,1.75,1.6-.27-1.6.27c-.21-1-.64-1.51-1.45-1.48C108.86,18.7,109.29,19.16,109.51,20.2ZM92.09,25.48c1.17-.52,2.34-1,3.49-1.58-1.15.55-2.33,1.05-3.5,1.58a12.41,12.41,0,0,1-2.93,1.6A12.4,12.4,0,0,0,92.09,25.48ZM75.57,32.22l-.06.17v0Zm.22-.6a2.68,2.68,0,0,0-.17.44A2.68,2.68,0,0,1,75.79,31.62Zm-.24.84h0l-.6-.11Zm-4.66-9c-.43,0-.85.07-1.28.13.68.76.44,2.25,1.27,2.9-.83-.65-.58-2.14-1.27-2.9C70,23.53,70.46,23.48,70.88,23.46ZM59.48,16.78h0l-.41.59h0l.41-.59-.54-.64,0-.11,0,.1ZM46.13,7.24c0,.68.91,1.12,1.23,1.71A36.18,36.18,0,0,1,55,13.31c.63.27,1.33.43,2,.68-.64-.25-1.35-.41-2-.68a36.11,36.11,0,0,0-7.68-4.36C47,8.36,46.1,7.92,46.13,7.24Zm-.75,3.26.19.81-.19-.81a2.53,2.53,0,0,1-.45-1.61A2.53,2.53,0,0,0,45.37,10.5Zm-2.23,1.43a4.61,4.61,0,0,0-.41,1.67,1.22,1.22,0,0,1-.45.8,1.22,1.22,0,0,0,.45-.8A4.61,4.61,0,0,1,43.14,11.93Zm3,19.31c-.25.54,0,1.15.68,1.8h0C46.13,32.39,45.88,31.79,46.13,31.24ZM36.25,38a29.87,29.87,0,0,1-5.85.39A29.87,29.87,0,0,0,36.24,38ZM24.89,40.24h0a5.28,5.28,0,0,1-3.47.36A5.29,5.29,0,0,0,24.89,40.24Zm-4,2.29a.92.92,0,0,0-.21.41A.92.92,0,0,1,20.88,42.53ZM23,44h0Zm.08,53.35a1.84,1.84,0,0,1,.18-.39A1.84,1.84,0,0,0,23.1,97.39Zm0,2.84a.34.34,0,0,0-.08.25A.34.34,0,0,1,23.08,100.24Z"/><path class="cls-2" d="M135,71.23l3.87,8.48c.25.93.47,1.87.76,2.78,2,6.19,3.31,12.53,2.85,19-1.52,21.05-9.56,38.48-28,50.32C98.76,162,81.9,164,64.06,159.31,54.88,156.9,46.94,152,39.7,145.94l-3.15-3.16a6.75,6.75,0,0,0-2.22-2.53c-4.75-6.37-9-13-11.42-20.67-7.81-24.51-.07-49.29,18.61-65.67,1.9-1.66,4-3,6.07-4.54,1.1-.48,2-1.44,3.3-1.46,4.28-.05,8.53-.93,12.82-.66l-.19.63a59.62,59.62,0,0,0-10.48,4.69c-6.59,3.91-12.56,8.52-16.9,14.91-5.7,8.37-10.09,17.29-10.76,27.64l.09,1.11-.08,1c-.23.49-.74,1-.09,1.51l0,1.71c-.55.33-.43.63,0,.93l0,1.19c-.57.9-.79,1.79.16,2.6.13.69.3,1.37.37,2.06a55.49,55.49,0,0,0,9.5,24.83,80.91,80.91,0,0,0,8,9.44,1.36,1.36,0,0,0,1.47,1.32c.83.17,1.13,1,1.67,1.46a10.24,10.24,0,0,0,4.68,3.3l.65.36c1.12,1.24,2.29,2.39,4.15,2.29l1.24.7c1.3,1.44,3.14,1.61,4.86,2.07,6.52,2.17,13.2,3.57,20.08,3.17,3.48-.2,7,.32,10.44-.72,2.41-.73,4.75-1.68,7.15-2.46a56.54,56.54,0,0,0,18.46-10.27c3.09-2.54,5.54-5.93,7.95-9.12,4.7-6.21,8.23-13.14,9.4-21a.23.23,0,0,0,.12-.35l.2-2.27c.86,0,.82-.74,1-1.3.66-2,.29-4,.4-6l0-.79c.65-.84.22-1.44-.44-2a.93.93,0,0,1,0-1.19,4.71,4.71,0,0,0-.62-5.23c-.43-2.46-.4-5-1.29-7.39.35-1.29.52-2.53-1-3.21a54.32,54.32,0,0,0-7.18-14.4c-1.28-1.87-3.21-3.17-4.18-5.25,1.73-.4,3,.9,4.59,1.18,1.46,1.56,4.11.76,5.39,2.69Z"/><path class="cls-3" d="M39.7,145.94c7.24,6.06,15.18,11,24.36,13.37,17.84,4.69,34.71,2.66,50.49-7.5,18.39-11.83,26.44-29.26,28-50.32.47-6.48-.89-12.82-2.85-19-.29-.92-.51-1.85-.76-2.78.62,0,.84.41,1,1a61.06,61.06,0,0,1,3.74,22.78,64,64,0,0,1-9,30.56c-9.64,16.12-24,25.52-42.32,28.71a59.57,59.57,0,0,1-34.14-4,58.6,58.6,0,0,1-17-10.47C40.47,147.67,39.54,147.11,39.7,145.94Z"/><path class="cls-4" d="M63.72,47.24c-4.3-.27-8.54.61-12.83.66-1.32,0-2.2,1-3.3,1.46-3-1.06-5.95-.24-8.87.19a49.43,49.43,0,0,1-10,.41c-4.09-.24-8.16.82-12.47.13a7,7,0,0,1,2.28-3.19l4.27-.17c1.43,0,2.91.5,4.26-.4,2.35,0,4.7.05,7,0,2.93,0,5.88,0,8.69-1a5.66,5.66,0,0,0,2.56,1c1.71.46,3.11.68,3.23-1.72a2.81,2.81,0,0,1,2.75-.35c5.24,1.51,10.34.41,15.46-.59A16.29,16.29,0,0,0,72,43.09a1.42,1.42,0,0,1,.43.13,2.83,2.83,0,0,1-1.08,3.23,24.23,24.23,0,0,1-6.79.66Zm-18.57.95a2.43,2.43,0,0,0-2.5.06A2.34,2.34,0,0,0,45.16,48.18Z"/><path class="cls-4" d="M109.71,40.9c6,4.12,12.57,7.32,18.92,10.88,1.11.62,2.24,1.16,1.72,2.76-1,.47-1.73-.45-2.64-.33l0,0c-1.08-2.25-3.29-2.85-5.33-3.69a5.13,5.13,0,0,0-2.82-1.08c-.62-1-1.85-.92-2.76-1.58a57.72,57.72,0,0,0-11.55-6c-.07,0-.25.21-.39.32-.46-.05-1,.16-1.23-.51l.11-.69c-.74-2.72-1.71-3.17-3.71-1.74a.85.85,0,0,1-.42,0,1.64,1.64,0,0,0-1.73-.86c-1.07-.14-1.76-2-3.14-.69l-1.49-.49c-1.77-1.82-4.24-2.29-6.42-3.33.83-.71-1.68-1.41,0-2.12l1.14,0,.17.08.19,0,3.19.07,5.41-.37c.63,1,1.36,0,2,.11l.15.81L99,33.2l-.57.35c-1.15,1.45-1,1.68,1.83,2.74a3.55,3.55,0,0,0,2.51,1,7.62,7.62,0,0,0,4.09,2.08Z"/><path class="cls-2" d="M73.11,25.52c.68,0,1.55-.14,1.87.58.86,2,2.85,1.93,4.39,2.69.4.56,1.52.65,1.44,1.4-.24,2.31-.31,4.76-1.7,6.72a1.49,1.49,0,0,1-2.7-.13l-.26-1c0-.42.07-.93-.54-.89-.14,0-.25.54-.37.83l0,.07-.57-.11c-.11-.46-.45-.46-.82-.39L73,35.08l-.18-.61-.34.69,0,0c-.49,0-1.08-.11-1.14.66-6,2-12.35,2.27-18.59,3l.66-.86c-.33,0-.66,0-1,0s-.84-.13-1.26-.2l2.23-.88,2.64-.16,4.21-.6c1.51.51,2.87-.42,4.32-.47,1.94,0,4.14.69,5.54-1.25a22.83,22.83,0,0,0,1.86-4l.21-.24-.25.2c-2.25.11-1.54-2.1-2.42-3.07a9.23,9.23,0,0,1,5.27.56Z"/><path class="cls-4" d="M90.12,25.52l10.38-3.88c6.8-2.53,13.72-4.19,21.06-3.05l-2.26.17.53,1.92-2.91.73-.37-.15c.22-2.24-1.64-2.11-2.87-2.2-1.6-.11-1.25,1.33-1.26,2.35l-.08.94c-.78.22-1.68-.19-2.36.49-.2.11-.56.2-.58.33-.06.46.36.41.66.48l-2.27.38c-.27-1.33-.91-1.68-2.28-1.22a7.83,7.83,0,0,0-3.4,2.37c-.92,1-1.55.93-2.27-.17-.34-.52-.49-1.54-1.49-1.07-.84.39-2.34.58-2.17,1.6.28,1.67-.86,1.64-1.72,2-1.11.52-2.23,1-3.35,1.51A9.3,9.3,0,0,1,86.78,31l-2.54-.61a4.05,4.05,0,0,1,1.52-2C87.07,27.14,89.07,27,90.12,25.52Z"/><path class="cls-5" d="M84.25,30.39l2.54.61.06.77c-1.67.71.84,1.41,0,2.12-.92.42-1.48,1.58-.33,1.58,1.68,0,1.27,1.23,1.86,1.81-.15.77-.79.73-1.19.49-2.33-1.38-2.27-.07-1.9,1.63-.47.2-1,.36-1,1l-2.38-.8c-1-.34-1.46,0-1.32,1.07A4.45,4.45,0,0,0,83.11,42c-1.49,1-2.86,2.21-3.9-.63-.32-.87-1.87-1.15-2.82-.74-1.31.56.05,1.19.18,1.82a24.3,24.3,0,0,1,.25,2.84c-1.55,1.63-3.54,1.15-5.44,1.15a2.83,2.83,0,0,0,1.08-3.24c2.82-.89,2.82-.89,1.61-2.26,0-.75.3-1.55-.43-2.15l0-1.55,0,0c.94-.15.61-1.16,1.1-1.62l.57.11c.43.88-.87,1.7-.09,2.6,0,.25,0,.63.1.74.52.41.47-.24.55-.42a11.29,11.29,0,0,0,.44-1.45.49.49,0,0,1,.14-.45,1.49,1.49,0,0,0,2.7.13c1.39-2,1.46-4.4,1.7-6.72.08-.75-1-.84-1.44-1.4,1.28-.55,2.57.86,3.85,0C83.51,29.33,83.56,30.06,84.25,30.39Zm-2.56.15c.18.88.3,1.54.45,2.2A1.64,1.64,0,0,0,83.63,34a1.06,1.06,0,0,0,.91-.31c.48-.86-.44-1.18-.81-1.7S82.94,30.59,81.69,30.54Z"/><path class="cls-4" d="M73.11,25.52l1.73,2.31a9.23,9.23,0,0,0-5.27-.56c-1.5-.36-.26-3-2.4-2.85a14.36,14.36,0,0,0-5.59-3l-1.71-.65-.52-.61-.09-.21C58.78,18,57,18,55.62,17.42a34.65,34.65,0,0,0-7.36-4.17c-.42-.75-1.86-1.25-.81-2.38.79-.85,1.75-.55,2.6.13a16.12,16.12,0,0,0,5.49,2.39A28.94,28.94,0,0,0,62.49,18,57.53,57.53,0,0,1,73.11,25.52Z"/><path class="cls-5" d="M132,56.91c.85,2.35,2.64,4.31,2.85,6.93-1.12-.08-1.9-.87-2.83-1.34-2.49-1.25-4.54-3.44-7.59-3.48l-.34,0a7.46,7.46,0,0,0-4.48-2.07c-.42-.12-.83-.24-.74-.81l1.66.09c-.71-.59-1.65-.5-1.88-1.4l1.68-.08,0-.12c.14.59.37.44.63.08s1.34.25.8-.36-.94-1.86-2.19-1.74l-.34-1c.7-.58,1.34,1,2.05.05,2.28.53,4,2.49,6.43,2.6l0,0A9.11,9.11,0,0,0,132,56.91Zm-5.82.44-.05-.05c.25.62.78.64,1.33.62l.12-.06.1.09.3.67.34-.36,1,0c-1.94-.85-3.33-3-5.88-2.4.14,1.06.91,1.06,1.71,1l-.07,0C125.29,57.31,125.72,57.38,126.2,57.34Z"/><path class="cls-3" d="M109.71,40.9l-2.86-1.55c.91-.72,2.06,0,3-.55a50.81,50.81,0,0,0,13.93-3.09c.4.09.77.11.87-.41l0,.08c1.62-.19,2.69-.71,1.56-2.57l-.16-1.25c.53-1.06.09-2-.26-3a1.86,1.86,0,0,0-.76-2.09L125,26.3l-.4-1.19.06-5.36c2.35,2.66,1.67,6.16,2.48,9.24.36,1.35.34,2.78.59,4.16.51,2.82-1.08,3.9-3.46,4.66-4.53,1.45-9.07,2.77-13.89,2.73C110.17,40.54,109.94,40.78,109.71,40.9Z"/><path class="cls-2" d="M41.77,24.53c-2.86-2.12-1.8-4.29-.1-6.48.7-.24,1.71,1.42,2.16-.35,1.4,3,4.84,3.6,7,5.71.69.67,1-.11,1.45-.43-.33,1.42.84,1.69,1.7,2.13s1.82,1,1.62,2.25l-1.1.41c-.78-1.08-2.12-1.07-3.18-1.62l-1.22-1c-1-2.12-3.24-2.56-5-3.62-.46-.28-1.15-1.07-1.71,0-2.26.31-.71,2-1.12,3A1.17,1.17,0,0,0,41.77,24.53Z"/><path class="cls-5" d="M26.94,34.06c.37-1.28,1.35-.49,2-.48,5.91,0,11.82.14,17.73.2a6.31,6.31,0,0,0,1.52-.37.52.52,0,0,0-.12.33c-1.35.71-1.36,1.59-.32,2.6-.11.55-.36,1.1-1,.81-1.54-.72-3-.1-4.45.16-1-1.13-2.21-.38-3.33-.44l-1.45-.08c.72-2.1-.65-2.59-2.22-2.65C32.52,34,29.73,34.07,26.94,34.06Z"/><path class="cls-2" d="M37.53,36.77l1.45.08c-.21.57-1.36.16-1.17,1,.13.61.85.36,1.29.55l-.22.84-.75,0a110.58,110.58,0,0,0-13.77.08c-.12-1.4.13-2.62,1.58-3.25a3.67,3.67,0,0,0,2.46.65C31.43,36.76,34.48,36.78,37.53,36.77Z"/><path class="cls-3" d="M21.61,42.07A1.13,1.13,0,0,1,22.06,41c1.41.89,2.89.34,4.34.19,3.74.25,7.48.6,11.21-.06a10.54,10.54,0,0,0,4.69-.55l2.7-.19c1.08-.12,2.2.22,3.25-.28l.66,0,.65.08a.93.93,0,0,0,1.3-.23,5.51,5.51,0,0,0,2.77-.14c1.09-.45,2.38-.44,3,1-4.77.21-9.56.07-14.29.82L38,41.8c-3.68.64-7.41,0-11.11.37a13.57,13.57,0,0,0-4.28.06Z"/><path class="cls-3" d="M41.77,24.53a1.17,1.17,0,0,1,.5,0c2.19,2.26,5.32,3.08,7.83,5,1.38,1,2.81,3.08,5.09,3-.12.78-1,.47-1.33.88-.76.23-1.32,1-2.35.24s-2.34-.45-3.47.18a.52.52,0,0,1,.12-.33c1.23-3.37-1.07-4.54-3.45-5.87C43.54,26.87,41.85,26.4,41.77,24.53Z"/><path class="cls-5" d="M22.78,46.72l-4.27.17c.37-1.68,2-2.6,2.57-4.15l1.24.46a5.28,5.28,0,0,0,4.42,0L27,43,37.93,43l.17.18.26.62c-.66,1.37-2,1-3,1-4-.15-8.06-1.26-12,.37C22.57,45.46,22.58,46.06,22.78,46.72Z"/><path class="cls-4" d="M37.53,36.77c-3,0-6.09,0-9.14,0a3.67,3.67,0,0,1-2.46-.65c-.56-1.13.85-1.31,1-2.09,2.79,0,5.58,0,8.36.06C36.88,34.18,38.25,34.67,37.53,36.77Z"/><path class="cls-5" d="M132.59,67.14c-1.28-1.93-3.92-1.13-5.39-2.69a3.28,3.28,0,0,1,0-3.19l9,5.2.55.75,0-.09a.53.53,0,0,0,.16.37.75.75,0,0,0,.43.85l.2.72c-.21.92-.75.77-1.33.39Z"/><path class="cls-2" d="M124.67,19.75l-.06,5.36-1.67,0h0c-.38-.78,1.12-2.22-.74-2.44-1.53-.18-3.12-.68-4.6.27l-2.1.07a4.35,4.35,0,0,0-2.9.22l-1.8.16-.81-.51c.68-.68,1.59-.27,2.36-.49,1.38-1,3.19.07,4.57-.95l2.91-.73c1.46-.36,3.91,2.08,4.24-1.49Z"/><path class="cls-5" d="M42.3,40.53a10.54,10.54,0,0,1-4.69.55,1.41,1.41,0,0,0-1.37-.6l-9.74.09-.16-.15c-.85-1.14-2.19-.18-3.17-.73l1.17-.29a110.45,110.45,0,0,1,13.77-.08c1.15,1.76,2.73.1,4,.51l.22.18Z"/><path class="cls-5" d="M55.55,13.38A16.12,16.12,0,0,1,50.06,11c-.86-.68-1.81-1-2.6-.13-1.05,1.13.39,1.63.8,2.38l-.14.17L46,12.63l-.64-.94c.47-3.17,1.33-3.77,4.07-2.54C51.71,10.18,54,11.31,55.55,13.38Z"/><path class="cls-2" d="M136.16,66.46l-9-5.2c-.68-.37-1.1-1.16-2-1.17L124.46,59c3,0,5.1,2.23,7.59,3.48.93.47,1.71,1.26,2.83,1.34A5.07,5.07,0,0,1,136.16,66.46Z"/><path class="cls-6" d="M45.36,11.69l.64.94a2.56,2.56,0,0,0,.35,2.1l.19.78c-2-.67-2.56.54-2.72,2.2-.45,1.77-1.46.11-2.16.35C42.75,15.84,43.42,13.4,45.36,11.69Z"/><path class="cls-2" d="M84.25,30.39c-.69-.33-.74-1.06-1-1.63,1.24-3.35,4-3.51,6.91-3.24-1.06,1.53-3,1.63-4.35,2.85A4.05,4.05,0,0,0,84.25,30.39Z"/><path class="cls-3" d="M132.59,67.14l3.61,2.31c.59.37,1.12.53,1.33-.39,1.36,1,1.1,1.78-.46,2.13a9.89,9.89,0,0,1-2.05,0Z"/><path class="cls-5" d="M124.07,19.18c-.33,3.57-2.78,1.13-4.24,1.49l-.53-1.92,2.26-.17C122.44,18.59,123.4,18.27,124.07,19.18Z"/><path class="cls-2" d="M132,56.91a9.11,9.11,0,0,1-4.32-2.69c.91-.12,1.69.8,2.64.33C131.09,55.21,132.08,55.69,132,56.91Z"/><path class="cls-5" d="M26.4,41.14c-1.46.16-2.93.7-4.34-.19l.6-.65,3.69.12.16.15Z"/><path class="cls-3" d="M34.33,140.25a6.75,6.75,0,0,1,2.22,2.53C34.94,142.69,34.33,141.74,34.33,140.25Z"/><path class="cls-6" d="M26.35,40.42l-3.69-.12.51-.61C24.16,40.24,25.5,39.28,26.35,40.42Z"/><path class="cls-4" d="M22.31,43.21l-1.24-.46.54-.67,1,.16.06.83Z"/><path class="cls-3" d="M137.33,68.34a.75.75,0,0,1-.43-.85Z"/><path class="cls-3" d="M136.75,67.12l0,.09Z"/><path class="cls-3" d="M71.38,46.45c1.89,0,3.89.49,5.44-1.15A5.26,5.26,0,0,1,80.9,45a87.34,87.34,0,0,1,8.79,3.32c5.58,2.75,11.11,5.61,16.84,8,5.39,2.25,10.94,4.12,16.08,6.95,1,2.08,2.9,3.38,4.18,5.25A54.32,54.32,0,0,1,134,82.91c-.14,1.22-.64,2.57,1,3.21.89,2.38.87,4.93,1.29,7.39-.14,1.78-.65,3.61.62,5.23a.93.93,0,0,0,0,1.18c-1,.91.15,1.35.45,2l0,.79c-1.07-.14-1.4.65-1.41,1.41,0,2-.45,3.91,0,5.86l-.2,2.26-.3.23.18.12c-1.17,7.88-4.7,14.8-9.4,21-2.41,3.19-4.85,6.57-7.95,9.12A56.54,56.54,0,0,1,99.76,153c-2.4.78-4.74,1.72-7.15,2.46-3.41,1-7,.52-10.44.72-6.88.4-13.56-1-20.08-3.17-1.15-1.78-3-1.93-4.86-2.07l-1.24-.7c-.57-2.24-2.7-1.65-4.15-2.29l-.65-.36c-.75-2.25-3-2.36-4.69-3.3-.55-.5-.84-1.29-1.67-1.46a1.81,1.81,0,0,0-1.47-1.32,80.91,80.91,0,0,1-8-9.44,55.49,55.49,0,0,1-9.5-24.83c-.08-.69-.25-1.37-.37-2.05.28-.89.66-1.78-.16-2.6l0-1.19c.28-.32.57-.64,0-.94q0-.86,0-1.71c.85-.46.63-1,.09-1.51l.08-1c1-.45.76-.81-.09-1.12.67-10.35,5.06-19.27,10.76-27.64,4.35-6.38,10.31-11,16.9-14.91a59.62,59.62,0,0,1,10.48-4.69c.1.63.16,1.22,1.1.76,1.22-.59-.41-1,0-1.51A24.23,24.23,0,0,0,71.38,46.45ZM85.79,68.16c-.86-.83-1.31-1.94-3.08-1.59-1.94.38-4-.06-6.08-.15-.88-.81.6-1.6,0-2.42-1.5.09-3.31.52-2.55-2.11.19-.65-.18-.87-.66-.71-3.27,1.12-1.4-1.65-1.91-2.61l-3.09.62c.93,3.5-2.06,1.26-3,2,.63,2.23.63,2.44-.84,2.55-1.2.08-1.85.16-1.54,1.58a1,1,0,0,1-.93,1.08c-2.92-.28-1.67,2.09-1.68,3.1,0,.78.12,1.42-.41,2-1.13.74-3.57-.28-3.29,2.42,0,.11-.43.4-.64.38-1.12-.1-.92.77-1.32,1.3-1,1.32-3,1.86-3.15,3.94a5.42,5.42,0,0,1-1,0c-2-.1-.88,4.12-3.84,2.89-.1,0,.25.48.3.77a.81.81,0,0,1,0,.5c-.78,1.32,1,4.48-2.69,3.75-.24,0-.19.55-.12.91.56,2.94-.8,5.83-.22,8.79.47,2.39-.53,4.73-.33,7.17.27,3.23.07,6.51.07,9.76,2.59,0,4.48,1.35,4.66,3.92a16.15,16.15,0,0,1-.29,3.23c-.09.68-.29,1.07.83,1,2-.17,2.56.94,1.54,3,3.12-1.25,3.51.15,2.49,3.25,2.48-2.64,2.69-.72,2.89.5.08.52-.24,1.54.35,1.4,2.59-.59,2,1.22,2.14,3.19,1.15-2.89,2.3.18,3.5-.67s1.81.58,2.1,1.19c.71,1.51,1.65,2,3.22,1.07a1.51,1.51,0,0,1,1-.19c.19.71,1.09,1,.87,2-.36,1.65,1.53-.34,1.62.86,0,0,.56.74.66.13a14.11,14.11,0,0,0,.34-4.74c-.18-1-1.73-.47-2.65-.67l.36-2.1c1-.52,2.71-.09,2.49-2.34-.09-1,1.94-1.24,2.15-.27.65,2.91,2.57,2.15,4.4,2,.52,0,1.07.06,1.16.77s0,1.21-.83,1.36c-.59.11-1.19.52-1.74.45-2.85-.34-3.24,1.25-2.74,3.44.15.64-.91,1.8.41,1.85s2.61,1.12,3.93.1c3.28.16,6.56.33,9.84.46,1.21,0,2.37,0,2-1.83-.22-1,.73-1.37,1.53-1.27a2.71,2.71,0,0,0,2-.26c1.75-1.21,3.29-3,5.79-2.17.62-2.16,3.41-2,4.32-4.26.43-1.07,2.39-1.78,3.43-3.17.51-.68,2.14-.83,2.38-2.36a.93.93,0,0,1,1.21-.75c1.75.73,1-.7,1.25-1.33.5-1.17-.72-2.95-.19-3.15,1.92-.73,2.56-3.07,4.19-3.48a2,2,0,0,0,1.61-2.4c-1.44-2.43-.12-5,0-7.26.24-5.68.4-11.36.56-17.05-3,.39-3.17.17-3-2.94.06-.93,1.37-2.95-1.42-2.56-.63.09-1.11-.69-.94-1.33.33-1.2.13-1.32-1.08-1-2.39.61-.52-4.49-3.78-2.95-.1-.31-.36-.69-.26-.92.59-1.5.13-1.88-1.39-1.58-.34.07-1.21-.65-1.17-.87.45-2.17-1.23-1.48-2.2-1.72-.12-.23-.34-.46-.34-.69.05-2,1.21-4.33-1.74-5.39-.15-.05-.1-.65-.14-1-.07-.56-.16-.88-.95-.84-1.83.08-4.67-2.66-4.54-4.46.07-1-.14-1.2-.9-.86s-1.94-1.06-2,.53c-.13,2.62-3.17,2.6-4,4.77-.43,1.07-1.53,1-1.56,2.38C85.88,66.39,86.55,67.77,85.79,68.16ZM66.5,48.77c.16-.06.37-.08.44-.19a.44.44,0,0,0-.11-.42.31.31,0,0,0-.53.2C66.27,48.47,66.42,48.62,66.5,48.77Z"/><path class="cls-4" d="M122.61,63.27c-5.14-2.83-10.69-4.69-16.08-6.95-5.73-2.39-11.26-5.25-16.84-8A87.34,87.34,0,0,0,80.9,45a5.26,5.26,0,0,0-4.07.3,24.14,24.14,0,0,0-.25-2.84c-.13-.63-1.49-1.26-.18-1.82,1-.41,2.5-.13,2.82.74,1,2.83,2.41,1.67,3.9.63h0l2.75,1.07,2.43,1.13a3.64,3.64,0,0,0,2.18,1,4.15,4.15,0,0,0,3.2,1l1.54.67a146.5,146.5,0,0,0,15,7.27c1.44.52,2.34,2.45,4.28,1.64l.17,0h.17l.57.16.54.41,0,0c.67,1.08,1.88,1.22,2.9,1.69a7.17,7.17,0,0,0,3,1c1.06.52,1.93,1.67,3.34,1,.89,0,1.31.81,2,1.17a3.28,3.28,0,0,0,0,3.19C125.64,64.17,124.34,62.87,122.61,63.27Z"/><path class="cls-5" d="M135.9,110c-.45-2,0-3.91,0-5.86,0-.76.34-1.54,1.41-1.41-.11,2,.26,4-.4,6C136.72,109.23,136.76,109.94,135.9,110Z"/><path class="cls-5" d="M51.84,147.94c1.45.64,3.59.05,4.15,2.29C54.13,150.33,53,149.18,51.84,147.94Z"/><path class="cls-5" d="M46.5,144.28c1.67.94,3.93,1.05,4.69,3.3A10.25,10.25,0,0,1,46.5,144.28Z"/><path class="cls-5" d="M57.23,150.93c1.86.14,3.71.28,4.86,2.07C60.37,152.54,58.53,152.37,57.23,150.93Z"/><path class="cls-5" d="M136.92,98.75c-1.27-1.62-.76-3.45-.62-5.23A4.71,4.71,0,0,1,136.92,98.75Z"/><path class="cls-5" d="M135,86.13c-1.67-.65-1.17-2-1-3.21C135.52,83.6,135.35,84.84,135,86.13Z"/><path class="cls-5" d="M25.34,102.58c.81.82.44,1.71.16,2.6C24.55,104.37,24.77,103.48,25.34,102.58Z"/><path class="cls-5" d="M64.59,47.12c-.37.51,1.26.92,0,1.51-.94.46-1-.14-1.1-.76l.19-.63Z"/><path class="cls-5" d="M137.33,101.91c-.3-.63-1.41-1.07-.45-2C137.55,100.48,138,101.07,137.33,101.91Z"/><path class="cls-5" d="M43.36,141.5a1.81,1.81,0,0,1,1.47,1.32A1.37,1.37,0,0,1,43.36,141.5Z"/><path class="cls-5" d="M25.4,97.23c.54.54.76,1.05-.09,1.51C24.65,98.2,25.16,97.72,25.4,97.23Z"/><path class="cls-5" d="M25.39,95.1c.86.3,1.07.66.09,1.12Z"/><path class="cls-5" d="M25.3,100.45c.6.3.3.62,0,.94C24.86,101.09,24.75,100.78,25.3,100.45Z"/><path class="cls-5" d="M135.58,112.59l-.18-.12.3-.23A.24.24,0,0,1,135.58,112.59Z"/><path class="cls-2" d="M23.32,45.11c4-1.63,8-.52,12-.37,1.05,0,2.36.39,3-1h1.07c.35.61.87.5,1.4.32.86-.13,1.63-.8,2.58-.42a3,3,0,0,0,2.07,0l2-.1c1.14.05,2.31.41,3.37-.34l1,0c3.71.93,7.23.1,10.69-1.17,2.15.56,4.16-.5,6.25-.53A3,3,0,0,0,71.62,41h1L73.68,41h.2l.19,0c1.21,1.37,1.21,1.37-1.61,2.26a1.44,1.44,0,0,0-.43-.13c-2-2.18-3.54,0-5.25.59-5.12,1-10.23,2.11-15.46.59a2.8,2.8,0,0,0-2.75.35l-5.79.68c-2.81,1.07-5.76,1-8.69,1-2.35,0-4.7,0-7,0C26.31,44.35,24.5,45.68,23.32,45.11Z"/><path class="cls-5" d="M42.78,45.31l5.79-.68c-.12,2.39-1.52,2.17-3.23,1.72A5.66,5.66,0,0,1,42.78,45.31Z"/><path class="cls-6" d="M23.32,45.11c1.19.57,3-.76,3.72,1.21-1.35.9-2.83.41-4.26.4C22.58,46.06,22.57,45.46,23.32,45.11Z"/><path class="cls-5" d="M66.78,43.68c1.71-.54,3.23-2.76,5.25-.59A16.29,16.29,0,0,1,66.78,43.68Z"/><path class="cls-5" d="M45.16,48.18a2.34,2.34,0,0,1-2.5.06A2.43,2.43,0,0,1,45.16,48.18Z"/><path class="cls-2" d="M104.88,42.18c.13-.11.31-.35.39-.32a57.72,57.72,0,0,1,11.55,6c.91.65,2.14.59,2.76,1.58l.23,1.34-1-.35c-.61-1.11-1.76-1.17-2.8-1.44l-1,0c0-.67-.74-.52-1.05-.86-.8-.5-1.42-.49-1.69.57l-2.27-1.21-.81-.56a.94.94,0,0,0-.57-1.24C107.61,44.22,105.59,43.89,104.88,42.18Z"/><path class="cls-3" d="M99,31.64c-.67-.12-1.4.85-2-.11l4.79-2a12.26,12.26,0,0,0,2.61-1.21c1-.8,3-.18,3.24-2.1l2.67-.7a4.78,4.78,0,0,0,3.1-.09,9.57,9.57,0,0,0,3.81-.39h5.78v.63a25.37,25.37,0,0,0-7.36.45c-.76.06-1.56-.28-2.25.31a37.28,37.28,0,0,0-6.92,1.88l-1.49,1a6.73,6.73,0,0,0-2.74,1.12A8.74,8.74,0,0,0,99,31.64Z"/><path class="cls-5" d="M104.94,29.32l1.49-1c.17,1.15.8.76,1.51.52,1.8-.61,3.62-1.12,5.44-1.68l.19.19-.09.56c-1,.76-2.89-.24-3.28,1.68-1.39,1.33-4.22.67-4.61,3.36l-1.61.11-1-.38c.19-.53,1.17-.34,1.07-1.27-1,.21-1.74,1.25-2.86.94-.51-.44-.82-.3-1,.33l0,.13-1.14-.39L99,31.64a8.74,8.74,0,0,1,3.22-1.2C103.6,31.25,104.4,30.6,104.94,29.32Z"/><path class="cls-2" d="M86.85,31.77,86.79,31a9.31,9.31,0,0,0,4.32-1.91c1.73.38,3.17-.46,4.68-1.08,1.09-.44,2.17-1.18,3.38-.27a2.87,2.87,0,0,1-2.08,1.1c-1.83,1.06-4.27,1-5.55,3.07l-3.19-.07-.16-.19-.21.13Z"/><path class="cls-5" d="M91.54,31.91c1.28-2.05,3.72-2,5.55-3.07.35.77,1,.17,1.5.33,1.09.41,2-.28,3-.5l.17.87-4.79,2Z"/><path class="cls-3" d="M104.88,42.18c.71,1.71,2.73,2,3.69,3.49-2.88-1.6-6.5-1.86-8.69-4.73.68.47,1.31,1.05,2.25.8l0-.1c.56.91,1,.57,1.43-.13l.09.16C103.85,42.34,104.42,42.13,104.88,42.18Z"/><path class="cls-2" d="M103,32.71l1,.37-.54,1c-1.38.29-1.92,1.77-3.18,2.24-2.83-1.07-3-1.29-1.83-2.74.45,1,1.08.67,1.74.26A6,6,0,0,1,103,32.71Z"/><path class="cls-2" d="M88.38,37.28c-.59-.59-.18-1.83-1.86-1.82-1.15,0-.59-1.15.33-1.58,2.18,1,4.65,1.51,6.42,3.33l-.44.45C91.38,37.28,90,35.76,88.38,37.28Z"/><path class="cls-2" d="M127.73,54.23c-2.45-.11-4.15-2.07-6.43-2.6l-.86-.5c.67-.14,1.44.08,1.95-.59C124.44,51.39,126.66,52,127.73,54.23Z"/><path class="cls-5" d="M109.86,38.81c-.95.5-2.11-.17-3,.55a7.62,7.62,0,0,1-4.09-2.08l0,0,2.7,0,3.55,0A2.26,2.26,0,0,0,109.86,38.81Z"/><path class="cls-5" d="M100.26,36.3c1.26-.47,1.8-1.94,3.18-2.24,1.23,1.36-1,2-.65,3.2l0,0A3.55,3.55,0,0,1,100.26,36.3Z"/><path class="cls-5" d="M100.06,39.24c2-1.44,3-1,3.71,1.74Z"/><path class="cls-6" d="M100.06,39.24,103.77,41l-.11.69-.09-.16-1.43.13,0,.09c-.25-1.51-2-1-2.65-1.92l.16-.56A.85.85,0,0,0,100.06,39.24Z"/><path class="cls-6" d="M94.77,37.71c1.38-1.3,2.07.55,3.14.69l-.08.64c-1-.13-1.94-.86-3-.68l0,.08Z"/><path class="cls-6" d="M122.4,50.54c-.51.67-1.28.45-1.95.59-.3.07-.56,0-.65-.33l-.23-1.34A5.13,5.13,0,0,1,122.4,50.54Z"/><path class="cls-5" d="M97.82,39l.09-.64a1.64,1.64,0,0,1,1.73.86l-.16.56L97.92,40l0,.08Z"/><path class="cls-2" d="M94.77,37.71l0,.72a2.17,2.17,0,0,1-2-.76l.44-.45Z"/><path class="cls-5" d="M100.16,33.81c-.65.41-1.29.7-1.74-.26L99,33.2l.65-.1Z"/><path class="cls-6" d="M99.64,33.1l-.65.1.14-.74,1.14.39Z"/><polygon class="cls-5" points="87.99 31.78 88.19 31.65 88.35 31.84 88.16 31.87 87.99 31.78"/><path class="cls-4" d="M55.2,32.44c-2.28.11-3.71-1.93-5.09-3-2.51-1.88-5.64-2.7-7.83-5,.41-1-1.14-2.72,1.12-3,2.17,1.33,4.24,2.86,6.71,3.62l1.22,1c-.86,1.61.5,2.16,1.45,2.74,1.12.68,1.53-.16,1.73-1.12l1.1-.41c1,0,2,.66,2.87-.2l.14,0,0,.14c.79,2.31,2.16,3.54,4.72,2.51,1.8-.22,2.64,1.85,4.35,1.83l.47.31c.83,2.69-.73,3.25-2.9,3.31-.22,0-.44.24-.65.37-1.45.06-2.81,1-4.32.48C60,34.07,57.45,32.27,55.2,32.44Z"/><path class="cls-5" d="M62.5,42.06c-3.47,1.26-7,2.09-10.69,1.17a3.53,3.53,0,0,0,.45-.21c.58-.37.17-.37-.15-.39l-2.48-.16c1.5-1.07,3.2-.32,4.8-.52.84-.11,2.06.46,2.16-1.11-.58-1.48-1.87-1.49-3-1a5.51,5.51,0,0,1-2.77.14c-.9-.5-1.8-1.17-2.61.12-1,.5-2.17.16-3.25.28-.8-.68-1.73-.28-2.61-.33l-.22-.18c-1-.84-2.24-.13-3.3-.55l.22-.84,2.29-.27,1.94.12c.64,1.16,1.27.52,1.9,0,.36-.46.7-.31,1,0,1,1.14,1.64.42,2.27-.42h1.85c.39,1.42,1.78.21,2.45.93,6.24-.74,12.56-1,18.59-3l.1,2.09c-2.23.91-4.81.37-7,1.66l-2.08,0-.58.41,0,0-.54.44c1,1.28,2.44.34,3.65.56l.26.34C64.53,42,63.21,41,62.5,42.06Z"/><path class="cls-5" d="M64.64,35.59c.22-.13.43-.36.65-.37,2.17-.06,3.74-.62,2.91-3.31.07-.42.86-.9.22-1.2s-.57.49-.69.9c-1.71,0-2.55-2-4.35-1.83-.7-1.58-2.12-2.16-3.64-2.6l-.27-.95,1.93-.44.36-.52L60.84,25l.05,0c0-.7-.89-.4-1.09-.9-.25-1-1-1.19-1.87-1.21-.81.22-1.31-.36-1.89-.74.11-.5.06-1.08.61-1.39,2,.5,3.37,2.51,5.59,2.66,1.89-.44,2.57,1.48,4,2,.37.15.81.72,1.1.33s-.06-.93-.11-1.41c2.14-.18.91,2.48,2.4,2.85.87,1,.17,3.18,2.42,3.07l0,0a22.84,22.84,0,0,1-1.86,4C68.78,36.28,66.58,35.56,64.64,35.59Z"/><path class="cls-4" d="M48.05,33.73c1.13-.63,2.42-1,3.47-.18s1.59,0,2.35-.24c.16,1.51,3.05,1.2,2.23,3.35l-2.64.16-3.2-.49H47.73C46.69,35.32,46.7,34.44,48.05,33.73Z"/><path class="cls-5" d="M56.1,36.67c.82-2.16-2.08-1.84-2.23-3.35.37-.4,1.21-.1,1.33-.88,2.25-.17,4.79,1.63,5.12,3.63Z"/><path class="cls-6" d="M75.17,38.37c-.78-.89.52-1.71.09-2.6l0-.07.91.06.26,1a.48.48,0,0,0-.14.45Z"/><path class="cls-5" d="M73,35.08l.83.19c0,.69-.94,1.24-.28,2l0,0c-1-.41-.52.83-1.05,1l0-1.22,0-1.85,0,0Z"/><path class="cls-6" d="M72.55,35.13l0,1.85-1,1.16-.05-.25-.1-2.09C71.47,35,72.06,35.16,72.55,35.13Z"/><path class="cls-3" d="M52.83,38.8c-.66-.72-2.05.49-2.45-.93l.52-.17.16.08.17-.07c.42.07.84.16,1.26.2s.66,0,1,0Z"/><path class="cls-6" d="M51.23,37.71l-.17.07-.16-.08-.64-1.36,3.2.49Z"/><path class="cls-3" d="M73.59,37.28c-.66-.77.32-1.32.28-2,.37-.08.7-.07.82.39C74.21,36.12,74.53,37.13,73.59,37.28Z"/><path class="cls-5" d="M76.14,35.76l-.91-.06c.12-.29.23-.82.37-.83C76.21,34.83,76.14,35.35,76.14,35.76Z"/><path class="cls-6" d="M73,35.08l-.52.07.34-.69Z"/><path class="cls-5" d="M72,30.34l.25-.2-.21.24Z"/><path class="cls-5" d="M99.16,27.74c-1.2-.91-2.29-.18-3.38.27-1.5.61-2.95,1.46-4.68,1.08,1.12-.5,2.24-1,3.35-1.51.86-.41,2-.38,1.72-2-.17-1,1.33-1.2,2.17-1.6,1-.47,1.15.55,1.49,1.07.72,1.1,1.36,1.2,2.27.17a7.83,7.83,0,0,1,3.4-2.37c1.37-.46,2-.11,2.28,1.22.13.35-1.6,1.33.27,1,1.59-.26,3.05-1.17,4.74-1.11l.15.11c1.26,1,2.73.08,4.06.44l.16.55a9.58,9.58,0,0,1-3.81.39,2.89,2.89,0,0,0-3.1.09l-2.67.7-5.9,2.13-1.49-.08C100.13,27.56,99.56,27.81,99.16,27.74Z"/><path class="cls-5" d="M112.42,21.41c0-1-.34-2.46,1.26-2.35,1.22.09,3.09,0,2.87,2.2Z"/><path class="cls-3" d="M112.8,23.94c-1.68-.06-3.15.85-4.74,1.11-1.87.3-.14-.68-.27-1l2.27-.38.73-.3,1.8-.16Z"/><path class="cls-6" d="M112.42,21.41l4.13-.15.37.15c-1.38,1-3.19,0-4.57.95Z"/><path class="cls-5" d="M110.79,23.35l-.73.3c-.3-.06-.72,0-.66-.48,0-.13.38-.22.58-.33Z"/><path class="cls-3" d="M92.84,37.67a2.17,2.17,0,0,0,2,.76l0-.08c.66,1.25,2,1.23,3.11,1.71l0-.09.58.45c-1,1.23-2.1-.73-3.15,0h0a7.45,7.45,0,0,0-4.16-2.66c-1.47-.36-.69.54-.46,1.07l.41,1.07c-1,1-2.06-1.22-3.11,0l-2.78-.54,0,0c-.37-1.71-.44-3,1.9-1.63.4.24,1,.28,1.19-.49C90,35.76,91.38,37.28,92.84,37.67Z"/><path class="cls-2" d="M81.69,30.54c1.25.06,1.61.81,2,1.43s1.29.84.81,1.7a1.06,1.06,0,0,1-.91.31,1.64,1.64,0,0,1-1.5-1.25C82,32.08,81.86,31.41,81.69,30.54Z"/><path class="cls-2" d="M80.56,40.67c-.14-1.08.31-1.41,1.32-1.07l2.38.8v0l-.58.61C82.61,41.21,81.67,40.2,80.56,40.67Z"/><path class="cls-6" d="M80.56,40.67c1.11-.47,2,.54,3.13.36l-.53,1h0A4.45,4.45,0,0,1,80.56,40.67Z"/><path class="cls-3" d="M72.56,38.2c.53-.12.05-1.36,1.05-1l0,1.56-.16.72-.92-.22Z"/><path class="cls-3" d="M75.17,38.37l1.09-1.13a11.29,11.29,0,0,1-.44,1.45c-.08.19,0,.83-.55.42C75.13,39,75.2,38.62,75.17,38.37Z"/><path class="cls-3" d="M84.25,40.4c0-.64.56-.8,1-1l0,0,.63,1-.11.14-1.5-.08Z"/><path class="cls-4" d="M73.48,39.53l.16-.72c.73.6.43,1.41.43,2.15l-.2,0h-.2Z"/><path class="cls-5" d="M46.54,15.5l-.18-.77,3.89,1.6c.11-1.85-2.11-1.52-2.13-2.92l.14-.17a34.59,34.59,0,0,1,7.36,4.17l-.14.65-.57.76L54,18.72,52,17.21c-.17-.37-.09-.93-.68-1a.44.44,0,0,0-.32.29c0,.62.64.45.94.71a1.45,1.45,0,0,0,.29,1.31c-1.5.42-2.53-1.11-4-.93C46.66,17.82,46.34,16.85,46.54,15.5Z"/><path class="cls-2" d="M67.17,24.43c.05.48.32,1.12.11,1.41s-.72-.18-1.1-.33c-1.38-.55-2.06-2.46-4-2l-.84-1.12.19-1A14.36,14.36,0,0,1,67.17,24.43Z"/><path class="cls-6" d="M55.48,18.07l.14-.65c1.38.6,3.17.59,3.64,2.5a2.26,2.26,0,0,0-1.81.21l.07-.1C57.33,18.87,56.12,18.76,55.48,18.07Z"/><path class="cls-5" d="M61.58,21.4l-.19,1a2.49,2.49,0,0,1-1.91-1.05l.39-.57Z"/><path class="cls-2" d="M57.45,20.13a2.27,2.27,0,0,1,1.81-.21l.09.21.1,1.06C58.85,20.71,57.9,20.89,57.45,20.13Z"/><path class="cls-5" d="M59.45,21.2l-.1-1.06.52.61-.39.56Z"/><path class="cls-2" d="M121.82,59.11a7.17,7.17,0,0,1-3-1,1,1,0,0,0,.78-1.17A7.45,7.45,0,0,1,124.12,59Z"/><path class="cls-3" d="M119.58,52.57c1.25-.12,1.63,1.11,2.19,1.74s-.59,0-.8.36l-.63-.08,0,.12a4.78,4.78,0,0,0-3.23-1.62l0,.06,0-1.06,0,0,.21,0,.2,0A2.52,2.52,0,0,0,119.58,52.57Z"/><path class="cls-3" d="M123.44,55.81c2.55-.64,3.94,1.54,5.88,2.4l-1,0-.65-.31-.1-.09-.12.06a1.29,1.29,0,0,0-1.33-.62l.05.05c-.2-.54-.69-.49-1.13-.56l.07,0C124.76,56.18,124.05,56.07,123.44,55.81Z"/><path class="cls-6" d="M119.64,56.91a1,1,0,0,1-.78,1.17c-1-.47-2.23-.61-2.9-1.69l2.88-.24.05-.05C118.81,56.68,119.22,56.8,119.64,56.91Z"/><path class="cls-3" d="M118.68,54.79c.23.9,1.17.81,1.88,1.4l-1.66-.09-.06.05-2.56-1.68c.88,0,1.57.71,2.4.32Z"/><path class="cls-6" d="M121.82,59.11l2.3-.13.34,0,.71,1.07C123.76,60.78,122.88,59.63,121.82,59.11Z"/><path class="cls-4" d="M117.13,53.09a4.78,4.78,0,0,1,3.23,1.62l-1.68.08h0C118.46,53.94,117.2,54.06,117.13,53.09Z"/><path class="cls-3" d="M119.8,50.8c.09.36.34.39.65.33l.86.5c-.71,1-1.35-.63-2.05-.05h0c.37-.59-1-.45-.46-1.12Z"/><path class="cls-4" d="M119.58,52.57a2.51,2.51,0,0,1-2.08-.47c.43-.63,1.17-.28,1.72-.53h0Z"/><path class="cls-4" d="M123.44,55.81c.62.26,1.32.38,1.71,1C124.35,56.87,123.58,56.86,123.44,55.81Z"/><path class="cls-4" d="M126.15,57.29a1.29,1.29,0,0,1,1.33.62C126.93,57.93,126.4,57.92,126.15,57.29Z"/><path class="cls-4" d="M127.69,57.94l.65.31-.34.36Z"/><path class="cls-4" d="M125.08,56.79c.44.06.92,0,1.13.56C125.72,57.38,125.29,57.31,125.08,56.79Z"/><path class="cls-4" d="M120.34,54.59l.63.08C120.71,55,120.48,55.19,120.34,54.59Z"/><path class="cls-4" d="M102.79,37.26c-.4-1.19,1.88-1.84.65-3.2l.55-1,1.61-.11c2.57-.47,4.83-1.8,7.27-2.65,2.18.93,4.18-.18,6.24-.58,2.39.38,4.9.34,7,1.8l.16,1.25c-1.43.7-3.24-.42-4.56.84.7,1.25,3.13-.89,3,1.73l-.05-.08-.87.41a50.81,50.81,0,0,1-13.93,3.09,2.26,2.26,0,0,1-.83-1.47A8.81,8.81,0,0,1,115,35.28a12.25,12.25,0,0,0,5.18-1.61c-.07-.27-.08-.42-.11-.43-5.34-.92-9.8,1.77-14.47,3.55-.07,0,0,.33-.06.5Z"/><path class="cls-2" d="M112.86,30.33c-2.44.84-4.7,2.18-7.27,2.65.4-2.69,3.23-2,4.61-3.36,1.31-.89,3.35-.13,4.26-1.91l1.92.16c3.11.89,6.33.21,9.47.67.35,1,.79,2,.26,3-2.12-1.46-4.62-1.42-7-1.8A7,7,0,0,0,112.86,30.33Z"/><path class="cls-5" d="M125.85,28.53c-3.14-.45-6.36.22-9.47-.67l.19-1c2.81-.69,5.7.09,8.52-.47A1.86,1.86,0,0,1,125.85,28.53Z"/><path class="cls-4" d="M125.1,26.44c-2.82.56-5.71-.21-8.52.47l-1,.07,0-.83A25.37,25.37,0,0,1,123,25.7c.54.7,1.39.34,2.06.59Z"/><path class="cls-5" d="M124.71,35.38c.14-2.62-2.29-.48-3-1.73,1.31-1.26,3.13-.14,4.56-.84C127.4,34.67,126.33,35.19,124.71,35.38Z"/><path class="cls-5" d="M125,26.3c-.67-.26-1.52.1-2.06-.59v-.63l1.67,0Z"/><path class="cls-5" d="M123.79,35.71l.87-.41C124.55,35.82,124.18,35.8,123.79,35.71Z"/><path class="cls-4" d="M46.54,15.5c-.2,1.35.11,2.32,1.73,2.12,1.46-.18,2.49,1.35,4,.93v0a3.76,3.76,0,0,0,4.33,2.23l0,0c-.55.31-.5.88-.61,1.39-.28,0-.63-.43-.75.18l-.49,0c.35-.52.11-.87-.4-.89s-.28.46-.26.76L52.29,23c-.43.32-.76,1.1-1.45.43-2.17-2.11-5.61-2.66-7-5.71C44,16,44.51,14.84,46.54,15.5Z"/><path class="cls-5" d="M52.29,23l1.84-.67.66.13.49,0c.25.94,1.32.93,1.83,1.56-.12,1.68,2,1.08,2.33,2.29.06.71-2-.82-1,.92-.9.86-1.91.16-2.87.2.2-1.28-.66-1.76-1.62-2.25S52,24.4,52.29,23Z"/><path class="cls-5" d="M50.11,25.1c-2.48-.76-4.54-2.29-6.71-3.62.56-1.07,1.24-.28,1.71,0C46.87,22.54,49.11,23,50.11,25.1Z"/><path class="cls-5" d="M54.51,27.76c-.2,1-.6,1.8-1.73,1.12-1-.58-2.31-1.12-1.45-2.74C52.39,26.69,53.73,26.68,54.51,27.76Z"/><path class="cls-2" d="M50.26,36.34l.64,1.36-.52.17H48.53l-2.27.42c-.34-.33-.69-.48-1,0h-1.9l-1.94-.12c.09-.52.51-.7.93-.87,1.47-.26,2.91-.89,4.45-.16.62.29.87-.26,1-.81Z"/><path class="cls-6" d="M42.3,37.3c-.42.17-.84.35-.93.87l-2.29.27c-.43-.19-1.16.06-1.29-.55-.18-.87,1-.47,1.17-1C40.09,36.92,41.33,36.17,42.3,37.3Z"/><path class="cls-6" d="M38.87,39.28c1.06.42,2.31-.29,3.3.55-1.32-.42-2.9,1.24-4-.51Z"/><path class="cls-4" d="M56.58,40.84c-.1,1.57-1.32,1-2.16,1.11-1.6.2-3.29-.56-4.79.52a1.37,1.37,0,0,1-1.41,0c-1.81-1.44-4.08.32-5.92-.86C47,40.91,51.81,41.05,56.58,40.84Z"/><path class="cls-5" d="M42.29,41.66c1.84,1.18,4.12-.59,5.92.86-.81.63-2.52-1-2.74,1.12a3,3,0,0,1-2.07,0c-1-.85-1.89-.75-2.58.42-.53.17-1,.28-1.4-.32-.12-.9-.82-.55-1.33-.62L37.93,43,38,41.8Z"/><path class="cls-4" d="M38,41.8,37.93,43,27,43l-.11-.86C30.58,41.77,34.31,42.44,38,41.8Z"/><path class="cls-4" d="M26.4,41.14l.1-.57,9.74-.09a1.41,1.41,0,0,1,1.37.6C33.88,41.74,30.14,41.39,26.4,41.14Z"/><path class="cls-5" d="M26.89,42.17,27,43l-.26.19-4.07-.16-.06-.83A13.57,13.57,0,0,1,26.89,42.17Z"/><path class="cls-4" d="M48.25,40.06c.81-1.29,1.71-.63,2.61-.12a.93.93,0,0,1-1.3.23l-.65-.08Z"/><path class="cls-4" d="M42.39,40c.88.05,1.81-.34,2.61.33l-2.69.19Z"/><path class="cls-5" d="M48.9,40.08l.65.08Z"/><path class="cls-6" d="M22.67,43.06l4.07.16a5.28,5.28,0,0,1-4.43,0Z"/><path class="cls-6" d="M38.1,43.14c.51.07,1.21-.28,1.33.62H38.36Z"/><path class="cls-5" d="M122.92,25.06h-1.09c-.93-1-2.32-.2-3.34-.83,0-.67-.57-.54-.94-.7l0-.63c1.48-.94,3.08-.44,4.6-.27C124,22.84,122.55,24.28,122.92,25.06Z"/><path class="cls-5" d="M112.8,23.94l-.22-.76a4.35,4.35,0,0,1,2.9-.22l0,.54c-.72.65-1.65.41-2.48.55Z"/><path class="cls-3" d="M115.44,23.5l0-.54,2.1-.07q0,.32,0,.63A3.54,3.54,0,0,0,115.44,23.5Z"/><path class="cls-2" d="M48.12,13.42c0,1.39,2.24,1.06,2.13,2.92l-3.89-1.6a2.56,2.56,0,0,1-.36-2.1Z"/><path class="cls-4" d="M87.08,66.29c0-1.38,1.13-1.31,1.56-2.38.86-2.18,3.9-2.15,4-4.77.08-1.59,1.34-.22,2-.53s1-.1.9.86c-.13,1.8,2.71,4.54,4.54,4.46.78,0,.88.28.95.84,0,.34,0,.94.14,1,3,1.06,1.79,3.39,1.74,5.39,0,.23.22.46.34.69-.92.88-.26,2.15-.78,3.13-.77-.05-1.54-.59-2.3,0l-2.63-.1c-3.34-.64-6.72-.24-10.08-.43-.24-.47-.34-1.43-1.11-.76s-1.11,1.54.22,2.12c-.6,1.71.62,1.47,1.66,1.73s2.91-.74,3.42.49c1.39,3.39,3.78,1.86,6,1.59.68.23,1.36.57,2.08.1l.22,0h.22c-.67.87.79,2.64-1.22,2.94-2.17.32-2.15,1.64-1.51,3.26-1.81-.63-3.4-1-2.66,1.93A8.07,8.07,0,0,1,94.62,90c0,.46.06.94-.64.7-2.2-.74-1.73,1.15-2,2.13-.4,1.41-2.91-.82-2.54,1.53S87.75,95.86,87,96c-1.81.21.12-1-.35-1.51-.64-.74-1.08-1.65-2.32-1.23a3.44,3.44,0,0,1-.74.09c.06-.14.19-.3.17-.42-.26-1.64.85-3.35-.28-4.94,1-.46-.55-2.39,1.41-2.37A1.47,1.47,0,0,0,86.31,84a2,2,0,0,0-.75-1.34c-.8-.59-1.42.33-2.15.47-.37.07-.16,1.53-.71.6-.8-1.34-4-1-2.26-4-1.41.61-2.44.94-1.75,2.41.56,1.18.23,1.52-1,1-1-.45-1.2.43-1.46,1s.1,1.36.53,1.27c2.53-.53,1.45,1.54,1.52,2.31.16,1.73.38,3.83-1.36,4.89-1.48.91-1.6,2-1.45,3.74-1-.76-3,.32-2.72-2.06,0-.32-1-1.13-1.36-1-1.47.41-1.43-.12-1.15-1.26.08-.35-.5-1.24-.77-1.23-2.88.07-1.9-2.16-1.77-3.35.26-2.25-.82-2.12-2.3-1.78-.18-2.38-2-3.58-3.53-5l.56-.64,2.76-.38c1.21.2,2.42.42,3.63.59.73.1,1.85-.11,1.72-.78-.64-3.22,1.58-1.65,2.78-1.79.61-.07,1.23-.1,1.84-.18,1.09-.15,1-1,1.1-1.82.12-1.32-.84-.82-1.42-.78-3.12.22-6.26-.27-9.36.35-.75-.94-1.61-.5-2.45-.18l-2.72-1L60,71.59c.53-.62.41-1.26.41-2,0-1-1.24-3.38,1.68-3.1a1,1,0,0,0,.93-1.08c-.3-1.42.34-1.5,1.54-1.58,1.47-.1,1.47-.32.84-2.55.93-.77,3.91,1.46,3-2l3.09-.62c.5,1-1.37,3.73,1.91,2.61.48-.16.84.06.66.71-.76,2.63,1.05,2.2,2.55,2.11.59.82-.89,1.61,0,2.42-.15,2.82,2.14,4.08,3.88,5.44,1.13.89,2.95.78,3.23-1.44a1.36,1.36,0,0,1,1.35-1.31c.35,1,.41,2.15,1.42,3.1A12.73,12.73,0,0,0,87.08,66.29Z"/><path class="cls-6" d="M102.51,75c.52-1-.14-2.25.78-3.13,1,.24,2.65-.45,2.2,1.72,0,.22.83.94,1.17.87,1.52-.29,2,.08,1.39,1.58-.09.24.17.61.26.92,3.26-1.54,1.4,3.56,3.78,2.95,1.21-.31,1.41-.19,1.08,1-.17.64.31,1.42.94,1.33,2.79-.39,1.48,1.63,1.42,2.56-.21,3.11-.08,3.33,3,2.94-.16,5.69-.32,11.38-.56,17.05-.1,2.26-1.42,4.83,0,7.26a2,2,0,0,1-1.61,2.4c-1.63.42-2.27,2.76-4.19,3.48-.53.2.68,2,.19,3.15-.27.63.5,2.06-1.25,1.33a.93.93,0,0,0-1.21.75c-.24,1.53-1.87,1.68-2.38,2.36-1,1.39-3,2.09-3.43,3.17-.91,2.25-3.69,2.1-4.32,4.26-2.5-.81-4,1-5.79,2.17a2.71,2.71,0,0,1-2,.26c-.81-.1-1.76.23-1.53,1.27.4,1.88-.75,1.88-2,1.83-3.28-.13-6.56-.3-9.84-.46a3.92,3.92,0,0,1,3.57-2.92,5.13,5.13,0,0,0,2.3.36c2.34.23,3.64-.16,3.27-3.1a11.69,11.69,0,0,1,.09-4.08c.46-1.93.38-3.85-2.41-4-.24-1.2-1.1-2.41,1.47-2.28.89,0,4.7,1.51,3.88-2.5-.08-.38.72-.23,1.12-.12,3.19.91,4.62-2.23,7-3.09.41-.14.27-.78.2-1.34-.18-1.38-1.29-3.44,1.68-3.46.48,0,1.36-.67,1.37-1.06.13-3.53,3.43-6.18,2.67-10-.13-.67-.86-1.55-.2-2.43,1.26-1.67-.45-2.26-1.26-2.09-1.76.37-1.14-.5-1.09-1.36.14-2.18.61-4.7-3.36-3.66.65-1.44.86-2.88-.75-3-1.9-.19-.28-1.38-.78-1.88-.64-1.62-.66-2.94,1.51-3.26,2-.3.56-2.07,1.22-2.94,2.29.25,2.21-1.23,2-2.78A2.49,2.49,0,0,0,102.51,75ZM109.65,94h0c-2.43.37-1.37,2.9-2.9,4.19a12,12,0,0,0,3.88-.17c3,.87,1.59-1.24,1.62-2.38.54-.58,1-1.72.47-1.91C111.84,93.44,110.54,92.62,109.65,94Zm-4.78,20.77c-3.29-.71-3.29-.71-2.66,2-.58.8-.81,1.76-.05,2.41.94.81,1.72.06,2.4-.68.4-.44.86-1,1.37-1.13,1.36-.27,1.1-1.29.93-2C106.61,114.23,105.76,114.21,104.87,114.8ZM93.42,125.62c-.62,2.5,1.23,1.72,2.41,1.82,3.14.26,3.6-.28,2.71-3.24.43-2.31.09-2.55-2.72-2C92.58,121.64,93.1,123.7,93.42,125.62Zm16.72-21.91c-2.14-.72-3.52.36-3.81,2.26-.33,2.12,1.37,3.22,3.68,3.41,2.6.22,2.26-1.61,2.58-3.07.47-.59,1.14-1.21.59-2C112.4,103.2,111.21,103.61,110.14,103.72Zm.59-19.29c.32-2.36-1.13-2.25-2.72-1.94-1.08.73-2.53-.78-3.38.37-1.24,1.68.55,5.06,2.61,5.19C110.44,88.26,110.44,88.26,110.73,84.43Z"/><path class="cls-6" d="M61.9,80.59c1.5,1.45,3.35,2.66,3.53,5,0,.81,0,1.62,0,2.78-1-1-2-1.13-2.76-.41s0,1.76.09,2.66c-1.42.08-2.73-.17-2.58,2.14.09,1.44.11,3.85-2.72,3.5-.47-.06-1,.2-.76.7,1,1.92-.12,3.82.1,5.63.18,1.46-.78,4.08,2.28,4.31.13,0,1.16,1.57.37,2.48a1.23,1.23,0,0,0,.91,2.17c3.1-.68,1.82,2.16,1.8,2.76,0,1.67-.56,3.1,2,2.5.11,0,.41.18.4.26-.43,4.07,3,1.33,4.37,2.4.22.18,1.18-.33,1,.68-.39,1.74.64,2,1.93,1.93a2,2,0,0,1,2.36,2.14c-2.52.54-3.39,3-5.15,4.46-.44.37-.29,1.34.36,1.87L69,132.7l-.84,2.38a1.51,1.51,0,0,0-1,.19c-1.58.93-2.52.45-3.22-1.07-.28-.61-.77-2.12-2.1-1.19s-2.35-2.22-3.5.67c-.09-2,.46-3.79-2.14-3.19-.59.14-.27-.89-.35-1.4-.2-1.23-.41-3.14-2.89-.5,1-3.11.63-4.5-2.49-3.25,1-2.08.42-3.19-1.54-3-1.11.09-.92-.3-.83-1a16.15,16.15,0,0,0,.29-3.23c-.18-2.57-2.07-4-4.66-3.92,0-3.25.2-6.52-.07-9.76-.2-2.44.8-4.78.33-7.17-.58-3,.78-5.85.22-8.79-.07-.36-.13-1,.12-.91,3.7.73,1.91-2.43,2.69-3.75a.81.81,0,0,0,0-.5c-.05-.29-.4-.81-.3-.77,3,1.24,1.8-3,3.84-2.89a5.42,5.42,0,0,0,1,0c.18-2.09,2.16-2.63,3.15-3.94.4-.53.19-1.4,1.32-1.3.21,0,.65-.27.64-.38-.28-2.7,2.15-1.68,3.29-2.42l.29,2.35a4.74,4.74,0,0,0,.6,3.26C59.32,78.88,60,79.91,61.9,80.59Zm-8.28,36.13c.09,1.07-.93,2.61.76,3,1.89.46,4.26-1.71,4.35-3.72.1-2.27-1.63-1.1-2.61-1.33C53.92,113.69,53.88,115.35,53.62,116.73Zm13.2,7.92c0-1.52.26-3.23-2.24-2.47-1,.09-2.31-.62-2.94.3a3.76,3.76,0,0,0,0,4.36c1,1.26,2.77.86,4.16.56S67,125.78,66.82,124.64ZM48.55,106.18c-.08,1.66.19,3.06,2.3,3.11,3.72.56,3.83.34,3.48-3.18-.23-2.27-1.47-2.5-3.3-2.61C48.9,103.36,48.47,104.46,48.55,106.18Zm5.77-18.45c3,.18,3.42-.1,3.56-2.37s-1.12-3-5.16-3.33c-2.54-.22-1.05,1.8-1.1,2.29C51.45,86.24,51.39,88.65,54.32,87.73ZM50.49,98.22c1-.24,1.91-.7,2.94-.27-.6-1.38.91-2.21.9-3.44,0-.92-.16-1.49-1.32-1.32a9.4,9.4,0,0,0-4.8,2.74C49.49,96.15,48.52,98.65,50.49,98.22Z"/><path class="cls-4" d="M69.39,130.6c-.65-.53-.8-1.51-.36-1.87,1.75-1.45,2.62-3.93,5.15-4.46,2.29,1.19,4.78.59,7.17.69,1.79.08,1.09.7.72,1.48-.55,2.89.07,5.76.12,8.64A3.92,3.92,0,0,0,78.62,138c-1.32,1-2.63,0-3.93-.1s-.26-1.22-.41-1.85c-.5-2.19-.1-3.78,2.74-3.44.55.07,1.15-.34,1.74-.45.82-.16.91-.68.83-1.36S79,130,78.44,130c-1.83.12-3.76.88-4.4-2-.21-1-2.25-.73-2.15.27C72.1,130.51,70.43,130.08,69.39,130.6Z"/><path class="cls-6" d="M85.09,69.12a1.36,1.36,0,0,0-1.35,1.31c-.28,2.22-2.1,2.33-3.23,1.44-1.73-1.36-4-2.62-3.88-5.44,2,.08,4.14.53,6.08.15,1.77-.35,2.22.76,3.08,1.59A.89.89,0,0,1,85.09,69.12Z"/><path class="cls-4" d="M68.19,135.08,69,132.7c.93.2,2.48-.29,2.65.67a14.11,14.11,0,0,1-.34,4.74c-.1.6-.66-.11-.66-.13-.09-1.2-2,.79-1.62-.86C69.29,136.09,68.38,135.79,68.19,135.08Z"/><path class="cls-2" d="M85.09,69.12a.89.89,0,0,0,.7-1c.76-.4.09-1.78,1.28-1.87a12.78,12.78,0,0,1-.56,5.93C85.51,71.27,85.44,70.13,85.09,69.12Z"/><path class="cls-5" d="M66.5,48.77c-.08-.15-.23-.3-.2-.42a.31.31,0,0,1,.53-.2.44.44,0,0,1,.11.42C66.86,48.68,66.65,48.71,66.5,48.77Z"/><path class="cls-2" d="M110.25,54.19a146.28,146.28,0,0,1-15-7.27c.7-.23,1.52-.3,1.61-1.29a1.49,1.49,0,0,1,0-.38c3.42,2.34,6.79,4.82,11.24,4.72l0,.75a2,2,0,0,0,1.38,1,6.51,6.51,0,0,0,2.91,1.42l2,.81c.9.46.82,1.15.44,1.91h-.17l-.17,0C113.42,54.45,112.11,53.6,110.25,54.19Z"/><path class="cls-5" d="M84.26,40.42l1.5.08a5.49,5.49,0,0,0,3.76,1.41,5.09,5.09,0,0,0-3.65-1.55l-.63-1L88,39.9c1.59.63,2.91,1.86,4.66,2.15l.09.94-2.71-.32c-.3.1-.84.19-.85.31-.07,1,1,.89,1.45,1.4l-.13.84a3.64,3.64,0,0,1-2.18-1c-.3-1.48-1-2-2.43-1.13L83.16,42l.53-1Z"/><path class="cls-5" d="M114.88,55.8c.38-.76.46-1.45-.44-1.91-.45-.78-.94-1.46-2-.81a6.5,6.5,0,0,1-2.91-1.42l.48-.55c.65-.16,1.45.06,1.9-.67a9.53,9.53,0,0,1,3.62,1.68c.06,1.08.8,1.11,1.6,1l0-.06c.07,1,1.33.86,1.55,1.7-.82.39-1.52-.35-2.4-.32l2.56,1.68-2.88.24,0,0-.17-.72-.37.31Z"/><path class="cls-6" d="M110.25,54.19c1.86-.59,3.18.26,4.28,1.64C112.58,56.64,111.68,54.71,110.25,54.19Z"/><path class="cls-6" d="M90.52,45.22l.13-.84,1.29-.24L92,44a.72.72,0,0,0,.85.45l0,0c.06.78.44.77,1,.4l.09,0-.24,1.45A4.15,4.15,0,0,1,90.52,45.22Z"/><path class="cls-5" d="M93.72,46.25,94,44.8c1.07-.07,1.79,1.08,2.91.82-.09,1-.91,1.07-1.61,1.29Z"/><path class="cls-6" d="M85.9,43.07c1.4-.89,2.13-.35,2.43,1.13Z"/><path class="cls-2" d="M115.45,56l.37-.31.17.72Z"/><path class="cls-5" d="M73.48,39.53l.2,1.44L72.6,41c-.36-.86-1.11-.36-1.69-.47,0,.11,0,.31,0,.31.23.07.48.11.72.16a3,3,0,0,1-2.87.49c-1.05-1.15-2.3-.07-3.43-.29l-.26-.34a48.21,48.21,0,0,1,7.5-1.59Z"/><path class="cls-3" d="M45.47,43.64c.22-2.07,1.93-.49,2.74-1.12a1.38,1.38,0,0,0,1.41,0l2.48.16c.32,0,.73,0,.15.39a3.53,3.53,0,0,1-.45.21l-1,0c-1.15-.19-2.33-.59-3.37.34Z"/><path class="cls-3" d="M65.32,41.24c1.13.22,2.38-.86,3.43.29-2.1,0-4.11,1.09-6.25.53C63.21,41,64.53,42,65.32,41.24Z"/><path class="cls-5" d="M47.46,43.54c1-.93,2.22-.52,3.37-.34C49.77,43.95,48.6,43.59,47.46,43.54Z"/><path class="cls-3" d="M40.82,44.08c.69-1.17,1.56-1.27,2.58-.42C42.46,43.28,41.69,44,40.82,44.08Z"/><path class="cls-3" d="M71.62,41c-.24,0-.48-.09-.72-.16,0,0,0-.21,0-.31.58.11,1.32-.39,1.69.47Z"/><path class="cls-5" d="M108.15,50c-4.45.1-7.81-2.38-11.24-4.72,0,0-.12-.1-.12-.14a1.52,1.52,0,0,1,.08-.31c1.93-1.15,0-1.27-.47-1.79a.31.31,0,0,1,.15-.4c.59-.17,1.21.82,1.83,0-.54-1.41-2.45-.82-3-2.12,1-.76,2.11,1.21,3.15,0l1.37.51c2.19,2.88,5.81,3.13,8.69,4.73a.94.94,0,0,1,.57,1.24,18.16,18.16,0,0,1-5.62-1.65c-.53-.24-1.2-.5-1.49.4-.22.69.25,1,.75,1.16,1.45.47,2.6,2,4.38,1.35l-.1.15.09-.16C106.81,49.15,108.65,48.9,108.15,50Z"/><path class="cls-4" d="M107.15,48.18c-1.78.62-2.93-.88-4.38-1.35-.5-.16-1-.47-.75-1.16.29-.91,1-.64,1.49-.4a18.16,18.16,0,0,0,5.62,1.65l.81.56c-.78.76-1.32,1.45.22,2a11.76,11.76,0,0,1,1.77,1c-.45.73-1.25.51-1.9.67l-1.86-.41,0-.75c.51-1.07-1.34-.82-1-1.79.25-.13.74.11.72-.39,0-.16-.37-.45-.5-.42C106.91,47.49,107.2,47.89,107.15,48.18Z"/><path class="cls-3" d="M111.93,50.45a11.76,11.76,0,0,0-1.77-1c-1.54-.54-1-1.23-.22-2l2.27,1.21c.08.66.4.78.93.41h0c-.77.38-.53.74,0,1,1.29.67,2.6,1.32,3.9,2l0,0c-.51.71-1.05,0-1.58,0A9.53,9.53,0,0,0,111.93,50.45Z"/><path class="cls-5" d="M117.09,52.13c-1.3-.66-2.6-1.31-3.9-2-.58-.3-.82-.65,0-1,.79.14,1.43,1.25,2.39.39L116,49c1,.27,2.19.33,2.8,1.44-.57.67.83.53.46,1.12-.55.25-1.29-.1-1.72.53l-.21,0Z"/><path class="cls-5" d="M113.14,49.1c-.53.37-.85.24-.93-.41.27-1.07.89-1.08,1.69-.57l.1.7Z"/><path class="cls-3" d="M116,49l-.43.49-.54-.59,0,.06Z"/><path class="cls-3" d="M114,48.81l-.1-.7c.31.34,1,.19,1.05.86l0-.06Z"/><path class="cls-4" d="M113.38,27.18c-1.81.55-3.64,1.07-5.44,1.68-.71.24-1.34.63-1.51-.52a37.27,37.27,0,0,1,6.92-1.88Z"/><path class="cls-4" d="M101.69,28.36l5.9-2.13c-.27,1.92-2.21,1.3-3.24,2.1a12.26,12.26,0,0,1-2.61,1.21l-.17-.87A1.25,1.25,0,0,0,101.69,28.36Z"/><path class="cls-4" d="M104.94,29.32c-.55,1.27-1.35,1.93-2.74,1.12A6.73,6.73,0,0,1,104.94,29.32Z"/><path class="cls-4" d="M118.5,24.22c1,.64,2.41-.18,3.34.83h-4.67l-.16-.55.07,0,.62-.23Z"/><path class="cls-5" d="M113.38,27.18l0-.72c.68-.58,1.49-.25,2.25-.31,0,.28,0,.55,0,.83l-2,.39Z"/><path class="cls-4" d="M110.26,25.53a2.89,2.89,0,0,1,3.1-.09A4.78,4.78,0,0,1,110.26,25.53Z"/><path class="cls-3" d="M99.64,33.1l.63-.26,0-.13c.42.17.69-.1,1-.33,1.12.32,1.84-.72,2.86-.94.1.92-.88.74-1.07,1.27a6,6,0,0,0-2.83,1.1Z"/><path class="cls-3" d="M114.46,27.7c-.91,1.78-3,1-4.26,1.91.39-1.92,2.29-.93,3.28-1.69Z"/><path class="cls-6" d="M114.46,27.7l-1,.23.09-.56,2-.39,1-.07-.19,1Z"/><path class="cls-6" d="M101.2,32.39c-.29.23-.56.49-1,.33C100.37,32.09,100.69,31.94,101.2,32.39Z"/><path class="cls-3" d="M99.16,27.74c.4.07,1-.18,1,.53a2.87,2.87,0,0,0-1.62.89c-.49-.15-1.14.45-1.5-.33A2.87,2.87,0,0,0,99.16,27.74Z"/><path class="cls-6" d="M98.58,29.16a2.87,2.87,0,0,1,1.62-.89l1.49.08a1.27,1.27,0,0,1-.12.31C100.58,28.89,99.67,29.58,98.58,29.16Z"/><path class="cls-2" d="M99.87,40.94l-1.37-.51L97.93,40l1.55-.15c.64,1,2.39.41,2.65,1.92C101.18,42,100.55,41.41,99.87,40.94Z"/><path class="cls-2" d="M102.14,41.64l1.43-.13C103.15,42.21,102.7,42.55,102.14,41.64Z"/><path class="cls-2" d="M105.48,37.3c0-.17,0-.48.06-.5,4.68-1.79,9.14-4.47,14.47-3.55,0,0,0,.16.11.43A12.25,12.25,0,0,1,115,35.28,8.81,8.81,0,0,0,109,37.34Z"/><path class="cls-2" d="M97.89,40.06c-1.09-.48-2.45-.46-3.11-1.71,1.11-.18,2,.55,3,.68Q97.85,39.55,97.89,40.06Z"/><path class="cls-2" d="M59.74,27.18c1.52.44,2.93,1,3.64,2.6-2.57,1-3.93-.21-4.72-2.51Z"/><path class="cls-3" d="M59.74,27.18l-1.09.09,0-.14-.14,0c-1-1.74,1-.21,1-.92h0Z"/><path class="cls-2" d="M67.72,31.61c.12-.4,0-1.23.69-.9s-.15.78-.22,1.2Z"/><path class="cls-4" d="M72.56,39.31a48.21,48.21,0,0,0-7.5,1.59c-1.21-.22-2.6.72-3.65-.56.28,0,.67.09.54-.44l0,0h.55l2.11-.15c2.33-.59,4.91-.06,7-1.64l1-1.16,0,1.22Q72.56,38.76,72.56,39.31Z"/><path class="cls-3" d="M71.57,38.14c-2.09,1.58-4.68,1.06-7,1.64v-.23c2.14-1.29,4.72-.74,7-1.66Z"/><path class="cls-3" d="M46.26,38.3l2.27-.42C47.9,38.72,47.26,39.44,46.26,38.3Z"/><path class="cls-7" d="M64.56,39.55v.23l-2.11.15a.83.83,0,0,0,0-.41Z"/><path class="cls-3" d="M43.31,38.29h1.9C44.59,38.81,44,39.45,43.31,38.29Z"/><path class="cls-3" d="M62,39.9c.13.53-.26.42-.54.44Z"/><path class="cls-3" d="M62.48,39.53a.83.83,0,0,1,0,.41H61.9Z"/><path class="cls-3" d="M59.45,21.2l0,.11a2.49,2.49,0,0,0,1.91,1.06l.84,1.12c-2.21-.15-3.54-2.16-5.59-2.66l0,0c-.53-1.13-2.25-.8-2.62-2.13l0,0,.94.12A4.85,4.85,0,0,0,57.52,20l-.07.1C57.9,20.89,58.85,20.71,59.45,21.2Z"/><path class="cls-3" d="M57.12,23.94c-.52-.63-1.58-.62-1.83-1.56.12-.61.47-.23.75-.18.58.38,1.07,1,1.89.74a2.81,2.81,0,0,0,1.87,1.21c.21.49,1.06.19,1.09.9C59.4,25.46,58.45,24.07,57.12,23.94Z"/><path class="cls-4" d="M57.12,23.94c1.33.12,2.28,1.52,3.77,1.12l-.05,0c-.07.44.3.55.56.75l-1.93.44h0C59.11,25,57,25.62,57.12,23.94Z"/><path class="cls-4" d="M59.8,24.17A2.81,2.81,0,0,1,57.92,23C58.79,23,59.55,23.18,59.8,24.17Z"/><path class="cls-3" d="M61.4,25.79c-.25-.2-.62-.31-.56-.75l.92.23Z"/><path class="cls-6" d="M118.5,24.22h-.8c-.33-.26-.52-.13-.62.23l-.07,0c-1.33-.36-2.8.61-4.06-.44.84-.15,1.76.1,2.48-.55a3.54,3.54,0,0,1,2.12,0C117.92,23.68,118.51,23.55,118.5,24.22Z"/><path class="cls-4" d="M95.35,40.45c.57,1.3,2.49.72,3,2.12-.62.85-1.24-.14-1.83,0-1.1-1-2.23-1.92-3.87-1.64l0,0a1.49,1.49,0,0,0-1.64-1.11l.05,0-.41-1.07c1.64.24,2.89,1.6,4.62,1.59Z"/><path class="cls-5" d="M95.34,40.45c-1.72,0-3-1.35-4.62-1.59-.22-.53-1-1.43.46-1.07A7.45,7.45,0,0,1,95.34,40.45Z"/><path class="cls-4" d="M92.68,42.05c-1.75-.29-3.07-1.52-4.66-2.15,1-1.19,2.06,1,3.11,0l-.05,0A1.36,1.36,0,0,0,92.72,41l0,0,.28.81Z"/><path class="cls-2" d="M57.52,20a4.85,4.85,0,0,1-2.61-1.2l.57-.76C56.12,18.76,57.33,18.87,57.52,20Z"/><path class="cls-3" d="M52.27,18.58v0A1.45,1.45,0,0,1,52,17.24l.06,0L54,18.72l0,0Z"/><path class="cls-2" d="M52,17.24c-.3-.26-.94-.09-.94-.71a.44.44,0,0,1,.32-.29c.59,0,.51.6.68,1Z"/><path class="cls-4" d="M115.55,52.12c.53,0,1.07.67,1.58,0l0,1.06C116.34,53.24,115.61,53.21,115.55,52.12Z"/><path class="cls-6" d="M112.86,30.33a7,7,0,0,1,6.24-.58C117,30.15,115,31.26,112.86,30.33Z"/><path class="cls-5" d="M52.27,18.58l1.72.1c.37,1.33,2.09,1,2.62,2.13A3.76,3.76,0,0,1,52.27,18.58Z"/><path class="cls-3" d="M54.79,22.43l-.66-.13c0-.3-.33-.78.26-.76S55.15,21.91,54.79,22.43Z"/><path class="cls-3" d="M82.07,126.44c.36-.78,1.07-1.41-.72-1.48-2.38-.1-4.88.5-7.17-.69a2,2,0,0,0-2.36-2.14c-1.29,0-2.32-.19-1.93-1.93.22-1-.74-.5-1-.68-1.33-1.07-4.8,1.67-4.37-2.4,0-.08-.29-.28-.4-.26-2.56.6-2-.83-2-2.5,0-.6,1.3-3.44-1.8-2.76a1.23,1.23,0,0,1-.91-2.17c.79-.91-.23-2.47-.37-2.48-3.06-.23-2.11-2.85-2.28-4.31-.22-1.81.95-3.71-.1-5.63-.28-.5.29-.76.76-.7,2.84.35,2.82-2.06,2.72-3.5-.15-2.31,1.16-2.06,2.58-2.14-.14-.9-.9-1.9-.09-2.66s1.77-.55,2.76.41c0-1.15,0-2,0-2.78,1.48-.35,2.56-.47,2.3,1.78-.14,1.19-1.12,3.43,1.77,3.35.26,0,.85.89.77,1.23-.28,1.14-.32,1.67,1.15,1.26.35-.1,1.39.72,1.36,1-.24,2.38,1.68,1.3,2.72,2.06-.15-1.7,0-2.84,1.45-3.74,1.73-1.06,1.51-3.16,1.36-4.89-.07-.77,1-2.84-1.52-2.31-.43.09-.78-.72-.53-1.27s.48-1.46,1.46-1c1.22.56,1.55.21,1-1-.69-1.47.34-1.8,1.75-2.41-1.73,3,1.47,2.66,2.26,4,.55.93.34-.53.71-.6.73-.14,1.35-1.06,2.15-.47A2,2,0,0,1,86.31,84a1.47,1.47,0,0,1-1.45,1.57c-2,0-.42,1.9-1.41,2.37,1.12,1.58,0,3.3.28,4.94,0,.13-.11.28-.17.42a3.44,3.44,0,0,0,.74-.09c1.23-.43,1.68.49,2.32,1.23.46.53-1.46,1.72.35,1.51.79-.09,2.87.83,2.48-1.61s2.14-.11,2.54-1.53c.27-1-.2-2.87,2-2.13.7.24.63-.24.64-.7a8.07,8.07,0,0,0,.15-2.07c-.74-3,.85-2.57,2.66-1.93.5.5-1.12,1.69.78,1.88,1.61.16,1.4,1.6.75,3,4-1,3.5,1.48,3.36,3.66-.05.86-.68,1.73,1.09,1.36.81-.17,2.52.42,1.26,2.09-.67.89.07,1.76.2,2.43.75,3.83-2.54,6.48-2.67,10,0,.39-.89,1.06-1.37,1.06-3,0-1.86,2.08-1.68,3.46.08.57.21,1.2-.2,1.34-2.43.86-3.86,4-7,3.09-.41-.12-1.2-.27-1.12.12.82,4-3,2.55-3.88,2.5-2.56-.12-1.71,1.08-1.47,2.28C84.45,125.23,84,127,82.07,126.44Zm-11.15-16c-1.52.55-2-1.55-3.52-1.23,1.69.66,1.71,2.84,3.39,3.53.11-.75.2-1.42.29-2.1l2.39-1.81A2.81,2.81,0,0,0,70.92,110.44ZM85.48,102c.45.36-.29,1.61.81,1.32,1.59-.42,3-1.32,3.15-3.31.1-1.2-.19-1.69-1.52-1.78C84.68,98,86.37,100.62,85.48,102Zm-4.92,2.11c.64-1.24,1.78-1.57,2.55-2.36a2.11,2.11,0,0,0,.58-2.54c-.45-.87-1.6-.35-2.45-.39-1.24-.05-1,1-1.1,1.7A5.13,5.13,0,0,0,80.56,104.06ZM78,98.31c-1.15.15-2.56-.74-3,.72a6.64,6.64,0,0,0,.13,4.66c.51,1.05,1.78.54,2.92.2-.84-.71-2.4,0-2.29-1.56s1.71-.29,2.23-1.15c-.56-.72-2,.08-2.11-1.14C75.68,98.58,77.47,99.44,78,98.31ZM70.31,104c1-1.23,2.56-2.33.55-4.11-.28-.24.28-1.19-.57-1.12-1.12.1-1,1.5-1.89,2-.25.15-.24.72-.35,1.09C70.19,101.12,69,103.71,70.31,104Zm10,9.85a1.4,1.4,0,0,0,.34,0c.49-2.72.24-3.06-1.86-2.45-.44.13-.37-.18-.51-.34-1.55-1.81-.74,1.6-1.83.83-.06,0-.17,0-.26,0a3.27,3.27,0,0,1,1.14.44c1,1,1.67-.3,2.56-.4Zm5.54-4.89c-.61,2-2.62,3.22-2.69,5.46.65-.66,1.16-1.64,1.88-1.84C87.65,111.87,86.69,110.42,85.86,108.95Zm5,.26c-.37,1.47-.86,3,1.49,3,1,0,1.15.68.61,1.47-.21.31-.43.61,0,.87a.88.88,0,0,0,.72.07c.84-.41.41-1.24.53-1.89s-.1-1.47-.85-1.31C91.5,111.82,91.31,110.53,90.91,109.2Zm3.21-5.34c-.58-1.32,2.88-3.69-1.52-4.18C93.8,101,93.38,102.58,94.12,103.86Zm2-4.55.05.19.05-.2Z"/><path class="cls-6" d="M97.65,79.66c-2.18.27-4.57,1.79-6-1.59-.51-1.23-2.25-.19-3.42-.49s-2.26,0-1.66-1.73l.89-1.36c3.36.18,6.74-.21,10.08.43,0,.87-1.18,1.67-.15,2.6Z"/><path class="cls-6" d="M65.5,75.15c3.1-.62,6.24-.12,9.36-.35.58,0,1.54-.54,1.42.78-.07.78,0,1.66-1.1,1.82-.61.09-1.23.11-1.84.18-1.2.14-3.42-1.42-2.78,1.79.13.67-1,.88-1.72.78-1.21-.16-2.42-.39-3.63-.59-.22-.83.53-1.74-.23-2.52Z"/><path class="cls-5" d="M97.42,77.51c-1-.93.15-1.73.15-2.6l2.63.09c-.38,1.69.22,2.41,2,2,.19,1.55.27,3-2,2.78H100l-.22,0c.08-1,.46-2.19-.55-2.92C98.43,76.28,98.18,77.69,97.42,77.51Z"/><path class="cls-3" d="M61.9,80.59c-1.89-.69-2.59-1.71-1-3.4L63,77.06l0,0c.28,1.05-.44,1.93-.52,2.92Z"/><path class="cls-5" d="M63,77.06l-2.07.14a4.74,4.74,0,0,1-.6-3.26L63,75Z"/><path class="cls-3" d="M63,77.06,63,75c.85-.32,1.7-.76,2.46.18L65,77.06a2.88,2.88,0,0,1-2,0Z"/><path class="cls-5" d="M63,77a2.88,2.88,0,0,0,2,0c.76.78,0,1.69.23,2.52L62.46,80C62.54,79,63.26,78.09,63,77Z"/><path class="cls-3" d="M97.42,77.51c.76.18,1-1.23,1.76-.68,1,.74.63,1.89.55,2.92-.72.47-1.4.13-2.08-.1Z"/><path class="cls-3" d="M102.19,77c-1.75.42-2.36-.3-2-2,.75-.63,1.53-.1,2.3,0A2.49,2.49,0,0,1,102.19,77Z"/><path class="cls-2" d="M87.5,74.49l-.89,1.36c-1.33-.58-.89-1.53-.21-2.12S87.26,74,87.5,74.49Z"/><path class="cls-5" d="M82.07,126.44c1.92.54,2.38-1.21,3.37-2.14,2.79.1,2.87,2,2.41,4a11.69,11.69,0,0,0-.09,4.08c.37,2.94-.93,3.34-3.27,3.1a5.13,5.13,0,0,1-2.3-.36C82.14,132.2,81.52,129.33,82.07,126.44Z"/><path class="cls-4" d="M110.73,84.43c-.3,3.83-.3,3.83-3.49,3.62-2.06-.14-3.85-3.52-2.61-5.19.85-1.15,2.31.36,3.38-.37C108,84.45,108.76,85.28,110.73,84.43Z"/><path class="cls-4" d="M112.59,106.31c-.33,1.46,0,3.29-2.58,3.07-2.31-.19-4-1.29-3.68-3.41.3-1.9,1.67-3,3.81-2.26C110.24,105.26,110.39,106.75,112.59,106.31Z"/><path class="cls-4" d="M98.55,124.21c.88,3,.43,3.5-2.71,3.24-.32-1.25,0-3.3-2.41-1.82-.32-1.92-.84-4,2.4-3.37C96,124,96.29,125.44,98.55,124.21Z"/><path class="cls-3" d="M104.87,114.8c.89-.59,1.74-.57,2,.57.17.74.43,1.75-.93,2-.51.1-1,.69-1.37,1.13-.68.74-1.46,1.49-2.4.68-.76-.65-.53-1.61.05-2.41C104,117.34,104,117.34,104.87,114.8Z"/><path class="cls-3" d="M110.66,98a12,12,0,0,1-3.88.17c1.53-1.29.47-3.82,2.9-4.19C109.1,95.58,111,96.54,110.66,98Z"/><path class="cls-5" d="M112.59,106.31c-2.19.43-2.35-1.06-2.45-2.6,1.07-.1,2.26-.52,3,.6C113.73,105.1,113.05,105.72,112.59,106.31Z"/><path class="cls-5" d="M104.87,114.8c-.89,2.54-.89,2.54-2.66,2C101.57,114.1,101.57,114.1,104.87,114.8Z"/><path class="cls-5" d="M98.55,124.21c-2.26,1.24-2.57-.25-2.72-2C98.64,121.66,99,121.9,98.55,124.21Z"/><path class="cls-5" d="M110.66,98c.36-1.51-1.56-2.46-1-4h0c1.29-.11.78,2.66,2.63,1.63C112.25,96.81,113.64,98.92,110.66,98Z"/><path class="cls-5" d="M110.73,84.43c-2,.85-2.76,0-2.72-1.95C109.6,82.18,111.05,82.07,110.73,84.43Z"/><path class="cls-5" d="M93.42,125.62c2.38-1.48,2.09.58,2.41,1.82C94.65,127.34,92.8,128.12,93.42,125.62Z"/><path class="cls-3" d="M112.29,95.67c-1.85,1-1.35-1.75-2.63-1.63.89-1.42,2.19-.6,3.1-.27C113.27,93.94,112.82,95.09,112.29,95.67Z"/><path class="cls-4" d="M54.32,87.73c-2.93.92-2.87-1.49-2.7-3.41,0-.49-1.44-2.51,1.1-2.29,4,.35,5.31,1,5.16,3.33S57.36,87.91,54.32,87.73Z"/><path class="cls-3" d="M50.49,98.22c-2,.43-1-2.07-2.29-2.29A9.4,9.4,0,0,1,53,93.19c1.17-.18,1.31.4,1.32,1.32,0,1.24-1.5,2.07-.9,3.44C52.4,97.52,51.45,98,50.49,98.22Z"/><path class="cls-4" d="M48.55,106.18c-.08-1.72.35-2.82,2.47-2.69,1.83.11,3.07.34,3.3,2.61.35,3.52.24,3.75-3.48,3.19C51.77,107,50.82,106.1,48.55,106.18Z"/><path class="cls-4" d="M66.82,124.64c.19,1.14.36,2.45-1.05,2.75s-3.17.7-4.16-.56a3.76,3.76,0,0,1,0-4.36c.62-.93,1.94-.21,2.94-.3C63.71,124.46,64.83,124.95,66.82,124.64Z"/><path class="cls-3" d="M56.12,114.7c1,.23,2.71-.94,2.61,1.33-.09,2-2.45,4.19-4.35,3.72-1.69-.41-.66-2-.76-3C54.61,116.24,57.19,117.71,56.12,114.7Z"/><path class="cls-5" d="M48.55,106.18c2.27-.08,3.23.82,2.3,3.11C48.74,109.24,48.47,107.84,48.55,106.18Z"/><path class="cls-5" d="M66.82,124.64c-2,.3-3.11-.18-2.24-2.47C67.08,121.41,66.84,123.12,66.82,124.64Z"/><path class="cls-5" d="M56.12,114.7c1.07,3-1.51,1.55-2.49,2C53.88,115.35,53.92,113.69,56.12,114.7Z"/><path class="cls-3" d="M96.87,44.79a1.54,1.54,0,0,0-.08.31s.07.09.12.14a1.5,1.5,0,0,0,0,.38c-1.12.25-1.84-.89-2.91-.83l-.09,0-1-.4,0,0A.69.69,0,0,0,92,44l-.09.14c-.29-.91-1.27-1-1.88-1.47l2.71.32,0,0c.28.73.83.78,1.48.61h0c.67.87,1.44,1.5,2.64,1.09Z"/><path class="cls-3" d="M108.17,50.71l1.86.41-.48.55A2,2,0,0,1,108.17,50.71Z"/><path class="cls-3" d="M112.45,53.08c1-.65,1.53,0,2,.81Z"/><path class="cls-4" d="M96.4,43c.43.52,2.4.64.47,1.79l0-.05a2.67,2.67,0,0,0-2.64-1.09h0C94,42.88,93.4,43,92.8,43l0,0-.09-.94.27-.28C94.14,42.08,95.09,43.05,96.4,43Z"/><path class="cls-2" d="M90.06,42.67c.61.51,1.58.55,1.88,1.47l-1.29.24c-.45-.51-1.52-.41-1.45-1.4C89.22,42.86,89.76,42.77,90.06,42.67Z"/><path class="cls-3" d="M85.87,40.36a5.09,5.09,0,0,1,3.65,1.55,5.49,5.49,0,0,1-3.76-1.41Z"/><path class="cls-5" d="M92.91,44.43l1,.4C93.35,45.2,93,45.21,92.91,44.43Z"/><path class="cls-5" d="M92,44a.69.69,0,0,1,.85.45A.72.72,0,0,1,92,44Z"/><path class="cls-3" d="M96.4,43c-1.31.05-2.26-.92-3.44-1.23L92.68,41c1.64-.28,2.77.65,3.87,1.64A.31.31,0,0,0,96.4,43Z"/><path class="cls-3" d="M107.15,48.18c0-.28-.24-.69.2-.81.13,0,.49.26.5.42,0,.51-.47.26-.72.39l-.09.15Z"/><path class="cls-6" d="M114,48.81l1,.1.54.59c-1,.86-1.59-.25-2.39-.39h0Z"/><path class="cls-5" d="M117.08,24.45c.1-.36.29-.49.62-.23Z"/><path class="cls-3" d="M92.72,41a1.36,1.36,0,0,1-1.64-1.11A1.49,1.49,0,0,1,92.72,41Z"/><path class="cls-4" d="M85.48,102c.88-1.33-.8-4,2.44-3.78,1.33.09,1.62.58,1.52,1.78-.17,2-1.56,2.89-3.15,3.31C85.19,103.56,85.93,102.31,85.48,102Z"/><path class="cls-4" d="M80.56,104.06a5.13,5.13,0,0,1-.41-3.58c.09-.74-.14-1.76,1.1-1.7.84,0,2-.48,2.45.39a2.11,2.11,0,0,1-.58,2.54C82.34,102.49,81.2,102.82,80.56,104.06Z"/><path class="cls-4" d="M78,98.31c-.48,1.13-2.28.27-2.12,1.73.13,1.23,1.55.42,2.11,1.14-.53.86-2.13-.33-2.23,1.15s1.45.85,2.29,1.56c-1.14.34-2.4.85-2.92-.2A6.64,6.64,0,0,1,75,99C75.39,97.56,76.81,98.46,78,98.31Z"/><path class="cls-4" d="M70.31,104c-1.31-.28-.11-2.87-2.26-2.13.11-.38.1-.95.35-1.09.84-.51.77-1.91,1.89-2,.85-.07.29.88.57,1.12C72.87,101.66,71.28,102.76,70.31,104Z"/><path class="cls-4" d="M80.32,113.84l-.43-2c-.89.1-1.51,1.41-2.56.4a3.27,3.27,0,0,0-1.14-.44c.09,0,.2,0,.26,0,1.09.77.28-2.64,1.83-.83.14.16.07.47.51.34,2.11-.61,2.35-.27,1.86,2.45A1.4,1.4,0,0,1,80.32,113.84Z"/><path class="cls-4" d="M85.86,108.95c.82,1.47,1.79,2.92-.81,3.63-.72.19-1.23,1.17-1.88,1.84C83.25,112.16,85.25,110.94,85.86,108.95Z"/><path class="cls-4" d="M90.91,109.2c.4,1.33.59,2.61,2.49,2.2.75-.16,1,.64.85,1.31s.3,1.47-.53,1.89a.88.88,0,0,1-.72-.07c-.42-.26-.2-.56,0-.87.55-.79.35-1.46-.61-1.47C90.05,112.17,90.55,110.67,90.91,109.2Z"/><path class="cls-4" d="M94.12,103.86c-.74-1.28-.32-2.87-1.52-4.18C97,100.17,93.54,102.54,94.12,103.86Z"/><path class="cls-4" d="M71.09,110.65l-.29,2.1c-1.69-.69-1.7-2.87-3.39-3.53,1.54-.33,2,1.77,3.52,1.23Z"/><path class="cls-4" d="M70.92,110.44a2.81,2.81,0,0,1,2.55-1.6l-2.39,1.81Z"/><polygon class="cls-4" points="96.07 99.31 96.17 99.3 96.12 99.5 96.07 99.31"/><path class="cls-5" d="M94.28,43.65a2.67,2.67,0,0,1,2.64,1.09C95.72,45.15,95,44.52,94.28,43.65Z"/><path class="cls-5" d="M92.8,43c.6-.06,1.22-.16,1.48.61C93.63,43.82,93.08,43.77,92.8,43Z"/></svg>