<svg id="圖層_1" data-name="圖層 1" xmlns="http://www.w3.org/2000/svg" viewBox="0 0 162 168"><defs><style>.cls-1{fill:#d49d99;}.cls-2{fill:#e8674d;}.cls-3{fill:#c2bdb6;}.cls-4{fill:#fdcaa4;}.cls-5{fill:#e9d2d5;}.cls-6{fill:#fdbc9e;}.cls-7{fill:#fdc5a0;}.cls-8{fill:#fde3cc;}.cls-9{fill:#fcd1af;}.cls-10{fill:#fcc2aa;}.cls-11{fill:#dad3d8;}.cls-12{fill:#fdb28f;}.cls-13{fill:#dcd6db;}.cls-14{fill:#a39195;}.cls-15{fill:#75514e;}.cls-16{fill:#d3cbd1;}</style></defs><title>PP2</title><path class="cls-1" d="M153,57.85c1.72-.3.52-1.69.9-2.48.85,1.59.69,3.4,1,5.1-.71-.39-1.08-.25-1.07.63,0,1.73,0,3.46,0,5.69l1-1.57a9.47,9.47,0,0,1-1,5.7c-.11-.92,0-1.91-.95-2.51C153.34,64.89,153.7,61.37,153,57.85Z"/><path class="cls-2" d="M155,65.22l-1,1.57c0-2.23,0-4,0-5.69,0-.89.36-1,1.07-.63Z"/><path class="cls-2" d="M153,68.41c.94.6.84,1.6.95,2.51l-.15,1.43c-.76.13-1.59.45-1.23-1A27,27,0,0,0,153,68.41Z"/><path class="cls-3" d="M152.59,73.8a29.91,29.91,0,0,0,.43-3.13c.32-3.71.68-7.42,0-11.12,1.72-.32.52-1.78.9-2.61-1.87-8-5.93-14.2-12.91-18.05l-5.61-1.8,5.61,1.8c-3.7-3.29-7.44-6.52-11.81-8.78-5.82-4.28-12.38-4.45-19.07-3.82-5.39,1-10.38,3-14.49,7h0c-1.41.15-2.16,1.31-3.06,2.24-4.37,3.12-7.46,7.46-10.23,12.12a1.14,1.14,0,0,0-.56,1.07l.3,0-.3,0a3.38,3.38,0,0,0-1.1,2.15l-1.49,2.78c-1.23,2.78-2.48,5.56-2.6,8.71h0C75,64.62,75.7,67.42,75.33,70a29.3,29.3,0,0,0,1.08,12.39c.89,3,2.15,5.94,2.89,9a26.57,26.57,0,0,1-2.59,12c-1.46,3.62-4.58,5.78-6.8,8.73a28.64,28.64,0,0,1,6.5,1.83,28.63,28.63,0,0,0-6.5-1.83l-4.09,2.22h0c-.76,0-1.43.09-1.69,1l-5.52,2.28c-.57,0-1.17-.07-1.55.55q-9.93,4-19.6,8.72c-2,.72-4.09,1.16-5.71,2.74a1.15,1.15,0,0,0-.45,0,3.28,3.28,0,0,0-1,.11q-9.94,4.52-19.86,9.08c-4.48,2.06-4.52,2.41-.85,6.15a44.55,44.55,0,0,0,5.66,8.86c.57,1.68,1.45,2.61,3.27,1.76Q30,150.32,41.59,145a7.47,7.47,0,0,0,3.19-1.53l1-.59h0c.83-.09,1.79.1,2.1-1.11l1,0c1.11-.91,2.95-.41,3.65-2.12h0c1.14,0,2.33.11,3.06-1.13h0l2.54-1.13,25.78-11.54a4.1,4.1,0,0,0,0-.68,4.11,4.11,0,0,1,0,.68,1.07,1.07,0,0,0,1-.49,23.42,23.42,0,0,0,3-.91,19.6,19.6,0,0,0,2.53-3.73,2.38,2.38,0,0,0,1-1.06c.38-.68.36-1.09.15-1.39.32-.76.6-1.54.87-2.33a11.13,11.13,0,0,1-2.17-1.39,9.31,9.31,0,0,1-.92-.87,9.31,9.31,0,0,0,.92.87,11.13,11.13,0,0,0,2.17,1.39l.21.11A2.71,2.71,0,0,0,94,114.12c.34-1,.27-1.8-.16-2.25a20.64,20.64,0,0,0,1.35-6.48c0-.13,0-.27,0-.4l-.49-.54-4.5-9.82a69.61,69.61,0,0,1-.67-11.71,69.56,69.56,0,0,0,.67,11.71l4.5,9.82.54.59h0v0c1,.12,1.55.88,2,1.72A8,8,0,0,1,99,108.52c5.18,3,10.66,3.87,16.21,5.21l.49-.08c.09-.65-.05-1-.33-1.22.28.2.42.57.33,1.22A26.51,26.51,0,0,0,123,111a1,1,0,0,0,1.08-.45l2-.62a5.54,5.54,0,0,1,3.53-1.15l0,0,.5-.47h0l.52-.52v0c1.39-1.9,4.15-1.88,5.25-4.19l-.64-.73h0l.64.73c3.58-2.2,5.72-6,8.58-8.94l1.84-2.75c2.22-4,4.55-7.95,5.64-12.53,1.51-1.1,1.48-2.89,1.79-4.53C153.07,75,152.23,75.29,152.59,73.8ZM101,106.54l-.15.07ZM94.44,83.17c0-.47,0-.94.08-1.4,0,.47-.07.93-.08,1.4q0,.35,0,.7Q94.43,83.52,94.44,83.17Zm7.51-35a5.71,5.71,0,0,0-.82-.52,5.71,5.71,0,0,1,.82.52,3.69,3.69,0,0,0,2.59,1.12l2-1.76h0l-2,1.76h0A3.69,3.69,0,0,1,102,48.17ZM104,44.31l0,0Zm32.4,48.63V91.49a.56.56,0,0,1-.23-.37.56.56,0,0,0,.23.37Q136.41,92.22,136.41,92.94ZM135,91.74l-.21.08Zm-29.64-20a1.39,1.39,0,0,1-.29-.62A1.39,1.39,0,0,0,105.33,71.75ZM105,57.46h0a33.12,33.12,0,0,1,15.08-12.63,28.89,28.89,0,0,1,5.07-1.49,28.89,28.89,0,0,0-5.07,1.49A33.12,33.12,0,0,0,105,57.46ZM100.26,59a.75.75,0,0,0,0,.09A.74.74,0,0,1,100.26,59Zm.07.45a2.67,2.67,0,0,0-.05-.31A2.67,2.67,0,0,1,100.34,59.44Zm1.43-2.13h0Zm-.48.53h0Zm-.93.67a1,1,0,0,1,.12-.35A1,1,0,0,0,100.36,58.5Zm.26-.5s0,0,.06-.07Zm.32-.16h0Zm1.43-1.58h0Zm28.26,16.24c-.06,0-.12.14-.18.14s.12-.09.18-.14ZM115.29,59.59a6.55,6.55,0,0,1-1-.12,6.55,6.55,0,0,0,1,.12Zm8.24,6.58h0a15,15,0,0,0-4.35,1A15,15,0,0,1,123.53,66.17ZM120.19,52.6c-1.19-.09-2.47.6-3.87,2.06l-1.19,1.79,1.19-1.79c1.4-1.46,2.68-2.15,3.86-2.06a2.82,2.82,0,0,1,.88.22A2.82,2.82,0,0,0,120.19,52.6Zm-6.41,5.88c-.12,0-.25.06-.38.09.13,0,.26-.05.38-.09Zm7.68,12.06h0l-.51.55Zm8.8-16.84-1,.17,1-.18.86-.13Zm-.52-1.21h0l-.54.5-1,1.11a1.8,1.8,0,0,0-1.12.68,1.81,1.81,0,0,1,1.12-.68l1-1.11.54-.5a1.82,1.82,0,0,1,.57-1.37A1.82,1.82,0,0,0,129.73,52.49Zm-2.89,2.77a1.94,1.94,0,0,1,.16-.34A1.94,1.94,0,0,0,126.84,55.26Zm-12,15.82h0a1.27,1.27,0,0,1-.64-.14A1.27,1.27,0,0,0,114.8,71.08Zm6.13,0h0a7.79,7.79,0,0,1-3.16,1.74A7.79,7.79,0,0,0,120.94,71.08Zm19.54,1.62c.18.1.39.19.58.28-.19-.1-.4-.18-.58-.28ZM128.2,94.14v0Zm-11.87-4.41a4,4,0,0,1,0,.48,4,4,0,0,0,0-.48Zm1-.55.53,0-.53,0Zm2.06-.55h0ZM124.05,87h0Zm.32,0h0Zm-.12,0h0Zm-1.75.56h0Zm3.26-1.07c-.23,0-.45,0-.68,0C125.31,86.45,125.54,86.46,125.77,86.47Zm1.38-.57h0Zm1.55-.55h0Zm0,0h0Zm-2.79,1.12h0Zm-4.66,1.65h0Zm-.82,0,.68,0Zm9.29,5.51-.08-.1h0l.08.1a5,5,0,0,0,.84,0,5,5,0,0,1-.84,0,1.19,1.19,0,0,1-1.12.53A1.19,1.19,0,0,0,129.75,93.6Zm1.47-.65.05.06Zm-11.64-4.32h0Zm-1.58.58h0Zm-1.34.5h0Zm-.14,0h0Zm.79,8.17A3.55,3.55,0,0,1,120,96.82a3.55,3.55,0,0,0-2.67,1.08l.08.1h0l-.08-.1a6.88,6.88,0,0,0-2.18.4A6.88,6.88,0,0,1,117.32,97.9Zm-.35,5.46h0l-3.18.06Zm13.27-18.55h0Zm-30-26.13h0Zm12.2,32.41-.09-.1.09.1Zm-.13-.14,0,0Zm1.84,5.15c-1.12.8-2.59,1.29-2.4,3.24h0C111.6,97.38,113.08,96.89,114.19,96.09Zm20.1-.89a2.41,2.41,0,0,1,.94-1.82,2.41,2.41,0,0,0-.94,1.82l-2.58.58Zm-22.1-52.05-3.53,2.38a6.08,6.08,0,0,1-1.51,1.62,6.07,6.07,0,0,0,1.51-1.62Zm-9.89-.6.67.66Zm-3.17-5,.38-.11ZM83.82,55.12a1.83,1.83,0,0,0-.09-.38,1.83,1.83,0,0,1,.09.38,8.17,8.17,0,0,1,0,1.2h0l.36.16.72.33-.72-.33-.36-.16h0A8.18,8.18,0,0,0,83.82,55.12Zm-1.09-6.45h0a1.61,1.61,0,0,1,.44.06A1.61,1.61,0,0,0,82.73,48.67Zm7.59,25.14h0Zm4.51-11.17a7.49,7.49,0,0,0,1.47-3c.9-.4,1.09-1.39,1.56-2.15l2.35-2.89L97.86,57.5c-.47.76-.65,1.75-1.56,2.15a7.55,7.55,0,0,1-1.47,3L90.64,73.86h0Zm6.34,43.59a.74.74,0,0,0,0-.16A.74.74,0,0,1,101.17,106.23Zm11.07,4.89,3,.09-3-.09-1.6-.05Zm34-40.52-.59.49a2.05,2.05,0,0,0-1.21.21,2,2,0,0,1,1.21-.21l.59-.49.23,0Zm1-1.15h0Zm-50.49-33a.32.32,0,0,1-.14,0A.32.32,0,0,0,96.74,36.39ZM83.59,124.59a.91.91,0,0,0-.42-.29.91.91,0,0,1,.42.29,1,1,0,0,1,.16.31A1,1,0,0,0,83.59,124.59Zm26-13.4a29.63,29.63,0,0,1-6.5-1.95,12.38,12.38,0,0,1-1.19-.66,12.38,12.38,0,0,0,1.19.66,29.62,29.62,0,0,0,6.5,1.95,8.85,8.85,0,0,0,3.41,1A8.85,8.85,0,0,1,109.58,111.18ZM142,95.88q1-1.2,1.88-2.46Q143,94.68,142,95.88Zm8.87-16.46a55,55,0,0,1-5.28,11.42,55,55,0,0,0,5.28-11.42c.19,0,.37-.28.55-.39C151.25,79.14,151.07,79.37,150.89,79.42Zm1.38-8.34c.21-1.16.73-2.64-1.34-2.72a3.89,3.89,0,0,1-.4.36,3.89,3.89,0,0,0,.4-.36,11.79,11.79,0,0,0,.08-3.64,11.81,11.81,0,0,1-.08,3.64C153,68.44,152.47,69.92,152.27,71.08Zm-3.07-1.71.06,0Zm.46-.15.17-.08Zm.44-.21.24-.16Z"/><path class="cls-4" d="M37.46,123.21q9.67-4.46,19.6-8.28l.65.78c.56.7,2.34-.41,2.08,1.07-.24,1.32-1.64.15-2.41.44s-2.09-.11-2.31,1.19c-.13.8-.28,1.61.68,2.27,1.55,1.06.53,1.85-.6,1.95-1.37.11-2,.43-2.47,1.89-1.08,3.59-5.41,3.26-7.41,5.84-.05.07-.35,0-.48-.07-1.43-.85-2.92,1.26-4.45-.14-.38-.35-.71.46-.49,1s.12,1.2-.12,1.14c-2.25-.58-1.13,1.36-1.6,2.08s-.83,1.84.09,2.55,1.81-.1,2.49-.66c2.13-1.74,4.41-2.9,7.26-2.66,1.39.11,2.74-.06,2.12-2.11-.25-.85.39-1.2.92-1.26,2.14-.25,3-1.65,3.52-3.52.37-1.36,1.62-1.06,2.33-.75,1.2.52.2,1.3-.2,1.81a4.52,4.52,0,0,0-.64,5.32,1.06,1.06,0,0,0-.51,1.06h0c-1,.37-2.61-.93-3.06,1.08h0c-2.7-1.14-3-1-3.65,2l-1,0c-.83.09-2-.45-2.1,1.05h0c-.28.25-1.23-.64-1,.56a7.64,7.64,0,0,1-3.19,1.46c-.17-1.16-.72-.91-1.4-.42s-1.4.72-1.59-.3c-.32-1.72-1.22-1.33-2.21-.79-2.49,1.39-4.5,3.94-7.85,3.28-.16,0-.53.26-.57.45-.64,3-2.22,3.55-4.76,2-.27-.16-.81.12-1.23.22a1.4,1.4,0,0,1-1.87-.86c-.29-1,.82-.84,1.31-1.21s1.1-.27.63-1.31c-1.13,1.35-3.22-.24-4.23,1.7-.77,1.47,1,2.8.36,3.88-.5.85-2.64-.07-2.94,1.8a42.09,42.09,0,0,1-5.66-8.41c.85,0,1.71,0,2.56,0,3.45-.34,4-.89,4.4-4.41A5,5,0,0,1,17,134.5c.81-1.71,2.38-1.27,3.8-1.39,1.62-.14,1.39.71,1.37,1.88s.85.46,1.32.23c1.23-.6,1.48-1.78,1.67-3a4.86,4.86,0,0,1,4-4c2.16-.11,2.18-.91,2.17-2.39a1.21,1.21,0,0,1,.45,0c1.89-.57.67,1.57,1.94,2-.25-1.92,1.36-2.11,2.45-2.75C36.93,124.6,37.65,124.3,37.46,123.21Zm-10,17.67a3.38,3.38,0,0,0-2-1.4c-.64-.14-1,.35-.8,1,.22.88.62,1.65,1.75,1.47A1.07,1.07,0,0,0,27.5,140.88Z"/><path class="cls-5" d="M101.76,57.12h0Z"/><path class="cls-5" d="M102.34,56.12h0Z"/><path class="cls-5" d="M101.28,57.65h0v0Z"/><path class="cls-5" d="M152.59,72.76a27,27,0,0,0,.43-3c.32-3.52.68-7,0-10.56C149.75,42.79,135.56,37,121.08,42a37.81,37.81,0,0,0-16.63,11.53l-.49.58h0c0,.44-.11.83-.58,1,.06.72-.28,1.06-1,1,0,.46,0,.87-.57,1l-.51.53c-.11.5-.5.59-.93.6a.42.42,0,0,0-.07.35c-.13.23.43,1-.48.63-6.6,9-10,19-8.61,30.11.72,5.91,3.33,11.19,8.5,14.73.7-.18,2.11.2,1.14-1.35a4.62,4.62,0,0,1-.52-1.7c-.42-2.24-.74-4.39-2.41-6.32-2-2.26-2.11-5.46-2.72-8.35-1.34-3.55-.66-7.18.23-10.57A42.53,42.53,0,0,1,105,57.27l0,0c5.86-8.2,14-13.17,23.73-13.87,11.91-.85,20.73,5.82,22.11,19.62a14.15,14.15,0,0,1,0,4.6c2.21.08,1.47,1.67,1.3,2.8-.37,2.58-.89,5.13-1.34,7.7.38-.09.71-.89,1.14-.06,1.51-1,1.48-2.75,1.79-4.3C153.07,73.86,152.23,74.18,152.59,72.76Z"/><path class="cls-5" d="M103.35,55.09h0s0,0,0,0Z"/><path class="cls-6" d="M91.89,108.5c-3,.37-6.08-2.77-5.29-5.67.53-1.94.05-3.93.75-5.85.46-1.25-.86-1.93-1.59-2.73S84.51,92.85,85.1,92s1.23,0,1.8.27a9.37,9.37,0,0,0,3.29.27,53,53,0,0,1,.45-19.73c-.43-.05-.92-.11-1-.61-.59-3-3.74-4.28-4.52-7.18-.28-1-1.38-1.54-2.56-1.83C81.64,63,80,63.27,80,62c.06-1.61.13-3.5,1.66-4.65a15.34,15.34,0,0,1,2.19-1.18c0-1.29.07-2.55-1.88-1.7-1.11.49-1.7-1-2.76-.9-1.23,2.64-2.48,5.27-2.6,8.27q0,1.43,0,2.86c0,1.1-.14,2,1.4,2.59,1.15.42,2.62,1.71.36,3.2-1,.64-2,1.88-.31,3.12a.87.87,0,0,1,.24,1.34c-.88,1.19-.59,1.38.8,1.22.79-.09.68.93.56,1.44-.48,1.94.47,3.21,1.49,4.75s1.43,3.76,2.08,5.68c0,.13-.07.46-.12.46-3.64.3-.89,2.73-1.34,4.08a1.09,1.09,0,0,0,.52,1c1.35.07,1.6,1,1.55,2.08v1c1.63,1.11,2,2.61.72,4.06-1,1.15-.17,2.73-1.23,3.74,0,1.2.94,1.56,1.78,1.93a8.2,8.2,0,0,1,3.43,3.22,9.72,9.72,0,0,0,3.85,3.07c.47-1.3.87-2.64,1.24-4A2.54,2.54,0,0,0,91.89,108.5Z"/><path class="cls-6" d="M93.65,108.77c-.37,1.33-.77,2.66-1.24,4l.21.1A2.58,2.58,0,0,0,94,111C94.35,109.93,94.22,109.17,93.65,108.77Z"/><path class="cls-2" d="M101.79,57.11h0Z"/><path class="cls-2" d="M101.3,57.61h0s0,0,0,0Z"/><path class="cls-2" d="M153.92,56.75C152.06,49.17,148,43.27,141,39.61l-5.61-1.7-1.55,0-.52,0-1,0c-7.31-.13-13.93,2.13-20.14,5.86l-3.53,2.26a5.54,5.54,0,0,1-2.14,1.9l-2,1.67-6.69,7.79c-.47.72-.65,1.66-1.56,2a7,7,0,0,1-1.47,2.84L90.64,72.82a53,53,0,0,0-.45,19.73l4.5,9.32.54.57v0a2.75,2.75,0,0,1,2,1.63A7.75,7.75,0,0,1,99,105.72c5.18,2.81,10.66,3.68,16.21,4.94l.49-.08c.18-1.23-.55-1.4-1.52-1.37a9.47,9.47,0,0,1-4.6-1c-3.56-.76-7.16-1.42-9.88-4.2-5.17-3.54-7.78-8.81-8.5-14.73-1.36-11.15,2-21.15,8.61-30.11l.48-.63a.42.42,0,0,1,.07-.35c.1-.53.45-.68.93-.63,0-.32.14-.5.48-.5-.12-.53.17-.81.6-1h0a1.27,1.27,0,0,1,1-1.08v.05a1.05,1.05,0,0,1,.59-1h0l.49-.58A37.81,37.81,0,0,1,121.08,42c14.48-5,28.68.81,31.95,17.26C154.74,58.93,153.54,57.55,153.92,56.75Z"/><path class="cls-7" d="M56,133.12a4.52,4.52,0,0,1,.64-5.32c.4-.52,1.39-1.29.2-1.81-.71-.31-2-.61-2.33.75C54,128.59,53.15,130,51,130.25c-.53.06-1.18.42-.92,1.26.62,2-.74,2.22-2.12,2.11-2.85-.23-5.13.92-7.26,2.66-.68.56-1.52,1.41-2.49.66s-.64-1.69-.09-2.55-.65-2.67,1.6-2.08c.24.06.29-.71.12-1.14s.12-1.37.49-1c1.53,1.4,3-.71,4.45.14.14.08.43.14.48.07,2-2.58,6.33-2.24,7.41-5.84.44-1.47,1.1-1.78,2.47-1.89,1.13-.09,2.15-.89.6-1.95-1-.66-.82-1.47-.68-2.27.22-1.3,1.51-.88,2.31-1.19s2.17.88,2.41-.44c.27-1.48-1.52-.38-2.08-1.07l-.65-.78c.38-.59,1-.51,1.55-.52,1.2,0,2.4,0,3.6,0A1.82,1.82,0,0,1,64,115.67c.29.92-.71.75-1.13,1.05s-.6,1-.8,1.57c-.14.4-.39.91.12,1.13s1-.13,1-.75a1.41,1.41,0,0,1,1.49-1.47c1.84.21,3.51-.45,5.26-.69.84-.11,1.73-.16,2.21.85.27.58.45,1.13,0,1.69-.71.85-1.42,0-2.12,0-.33,0-.65-.27-1-.29a1.46,1.46,0,0,0-1.5.79c-.34.8.27,1,.93,1.13s.95.41.8,1.05a1.2,1.2,0,0,1-1.09.95,2.64,2.64,0,0,1-2.73-.89c-.88-1.05-1.7-.2-2.25.6-.71,1-.09,1.32.86,1.45.64.09,1.39.67,1,1.17-1,1.11-1.73,3.49-2.11,3.51C59.56,128.61,58.19,131.42,56,133.12Z"/><path class="cls-6" d="M82.86,120.64c-.4-.05-1.13-.34-1.11-.45.3-2.54-2-2-3.17-2.53A12.83,12.83,0,0,1,74.13,114c-2.06-2.54-5.38-2.26-8.3-2.75h0c-.11,1.15-.9,1.05-1.69,1l-5.52,2.16c1.2,0,2.4,0,3.6,0A1.82,1.82,0,0,1,64,115.67c.29.92-.71.75-1.13,1.05s-.6,1-.8,1.57c-.14.4-.39.91.12,1.13s1-.13,1-.75c.08-1,.72-1.56,1.49-1.47,1.84.21,3.51-.45,5.26-.69.84-.11,1.73-.16,2.21.85.27.58.45,1.13,0,1.69-.71.85-1.42,0-2.12,0-.33,0-.65-.27-1-.29a1.46,1.46,0,0,0-1.5.79c-.34.8.27,1,.93,1.13s.95.41.8,1.05a1.2,1.2,0,0,1-1.09.95,2.64,2.64,0,0,1-2.73-.89c-.88-1.05-1.7-.2-2.25.6-.71,1-.09,1.32.86,1.45.64.09,1.39.67,1,1.17-1,1.11-1.73,3.49-2.11,3.51-3.36.12-4.73,2.93-6.9,4.62a1.06,1.06,0,0,0-.51,1.06l2.54-1.07,25.78-11C83.85,121.42,83.82,120.76,82.86,120.64Z"/><path class="cls-8" d="M104.54,49.5l-6.69,7.79c-1.86-1-1.39-2,.37-2.81-1.78-.77-3.6.28-4.76-.74s-1-2.92-3-2.92c-.1-2.58-3.77-1.27-4-3.72-.24.05-.54,0-.7.17-1,.91-2.29.48-3.45.62,2.76-4.42,5.86-8.54,10.23-11.5,1.61,1.74,1.43,5,4.63,5.42.18,0,.42.33.46.53.3,1.63,2.93,2.38,1.72,4.61-.07.13.34.76.49.75C101.74,47.54,102.69,49.71,104.54,49.5Z"/><path class="cls-8" d="M90.24,114c-2.14-1.87-4-4-6-6.07a6.26,6.26,0,0,0-2.66-1.9c-2-.59-2.23-2.75-3.26-4.18-.48-.66-.84-1-1.58-.94-1.46,3.44-4.58,5.49-6.8,8.29a23.5,23.5,0,0,1,10.85,4.2,1,1,0,0,1,1.05,1l2,0a.92.92,0,0,1,1,1c.89-.07,1.37.72,2.07,1a5.06,5.06,0,0,1,1.21.37,2.4,2.4,0,0,0,2.23.42c.42-.75.8-1.53,1.15-2.33C91.27,114.58,90.7,114.37,90.24,114Z"/><path class="cls-8" d="M90.39,117.28a2.32,2.32,0,0,0,1-1c.38-.65.36-1,.15-1.32C91.19,115.75,90.8,116.53,90.39,117.28Z"/><path class="cls-9" d="M88.15,116.86a5.06,5.06,0,0,0-1.21-.37c.6,2.25-1.3,3.49-2.06,5.2a24.36,24.36,0,0,0,3-.87,18.59,18.59,0,0,0,2.53-3.54A2.4,2.4,0,0,1,88.15,116.86Z"/><path class="cls-9" d="M88.55,109.67a8.2,8.2,0,0,0-3.43-3.22c-.84-.37-1.79-.72-1.78-1.93-1.54-1.14-1.44-3.18-2.45-4.62a.81.81,0,0,1,.3-1.12c1.18-.34,1.5-1.75,2.66-2.06q0-.51,0-1c-1.21-.17-1.37-1.14-1.55-2.08a1.09,1.09,0,0,1-.52-1c-1.48-.5-1.14-2.49-2.49-3.1a24.16,24.16,0,0,1-2.59,11.42c.74,0,1.1.28,1.58.94,1,1.43,1.25,3.59,3.26,4.18a6.26,6.26,0,0,1,2.66,1.9c2,2,3.89,4.2,6,6.07.46.4,1,.61,1.29,1,.32-.72.6-1.46.87-2.21A9.72,9.72,0,0,1,88.55,109.67Z"/><path class="cls-9" d="M31.29,125.85c0,1.48,0,2.28-2.17,2.39a4.86,4.86,0,0,0-4,4c-.2,1.22-.44,2.4-1.67,3-.47.23-1.35.8-1.32-.23s.26-2-1.37-1.88c-1.41.12-3-.31-3.8,1.39a5,5,0,0,0-.47,1.47c-.44,3.51-1,4.06-4.4,4.41-.85.08-1.71,0-2.56,0-3.68-3.55-3.64-3.88.85-5.83q9.92-4.33,19.86-8.62A3.44,3.44,0,0,1,31.29,125.85Z"/><path class="cls-7" d="M15.24,148.83c.29-1.87,2.44-.95,2.94-1.8.63-1.08-1.13-2.41-.36-3.88,1-1.94,3.1-.35,4.23-1.7.48,1-.28,1.05-.63,1.31s-1.6.19-1.31,1.21a1.4,1.4,0,0,0,1.87.86c.41-.1,1-.38,1.23-.22,2.54,1.55,4.12,1,4.76-2,0-.19.41-.48.57-.45,3.35.66,5.36-1.89,7.85-3.28,1-.55,1.89-.93,2.21.79.19,1,1,.74,1.59.3s1.23-.74,1.4.42Q30,145.43,18.51,150.5C16.69,151.3,15.81,150.43,15.24,148.83Z"/><path class="cls-10" d="M81.79,92.57c-1.48-.5-1.14-2.49-2.49-3.1-.75-2.93-2-5.7-2.89-8.57a26.47,26.47,0,0,1-1.08-11.76c.37-2.43-.33-5.09,1.29-7.29q0,1.43,0,2.86c0,1.1-.14,2,1.4,2.59,1.15.42,2.62,1.71.36,3.2-1,.64-2,1.88-.31,3.12a.87.87,0,0,1,.24,1.34c-.88,1.19-.59,1.38.8,1.22.79-.09.68.93.56,1.44-.48,1.94.47,3.21,1.49,4.75S82.6,86.12,83.25,88c0,.13-.07.46-.12.46C79.49,88.79,82.24,91.22,81.79,92.57Z"/><path class="cls-4" d="M81.74,120.19c0,.11.71.39,1.11.45,1,.13,1,.79,1,1.51a1.09,1.09,0,0,0,1-.46c.75-1.71,2.66-2.95,2.06-5.2-.7-.33-1.17-1.11-2.07-1a1,1,0,0,1-1-1l-2,0a.93.93,0,0,1-1.05-1,23.5,23.5,0,0,0-10.85-4.2l-4.09,2.11c2.92.49,6.25.21,8.3,2.75a12.83,12.83,0,0,0,4.45,3.62C79.7,118.21,82,117.65,81.74,120.19Z"/><path class="cls-7" d="M95.64,34.24c4.11-3.8,9.1-5.65,14.49-6.6q0,.23,0,.46c-.39.32-.73.79-1.17.95-3.15,1.12-4.95,3.51-6.18,6.48a.78.78,0,0,0,.07.93c.35.39.87.45,1.11.07,1.42-2.2,3.24-.47,5.08-.6-1.76.74-1.42,2.15-1.49,3.43,0,.86.42,2-1,2.26-.08-.55-.21-1-.95-.81-1.18.37-1.93-.29-2.59-1.13a3.34,3.34,0,0,0-4.2-1.17c-.6-.38-.49-1-.51-1.56.67-.55.41-1.13-.2-1.27-1.07-.24-.72.72-.83,1.27-.51.53-.92.4-1-.3A5,5,0,0,0,95.64,34.24Z"/><path class="cls-9" d="M82.36,47.88c1.16-.14,2.41.28,3.45-.62.16-.14.47-.12.7-.17.22,2.45,3.89,1.14,4,3.72,2,0,1.94,2,3,2.92s3,0,4.76.74c-1.76.85-2.22,1.82-.37,2.81-.47.72-.65,1.66-1.56,2-3,.48-4.81-1.48-6.78-3.15.69-1.26.7-2.14-1.1-2.09-1.17,0-2.4-.78-2.08-1.66.64-1.73-.22-1.83-1.31-1.71-.81.09-1.08-.11-1.2-.85-.21-1.28-1.25-.87-2-1A1.07,1.07,0,0,1,82.36,47.88Z"/><path class="cls-9" d="M98.28,36.93c0,.57-.09,1.19.51,1.56-.13.68-1.43.22-1.24,1.25,1.4,0,7.29,5.33,9,8.07l-2,1.67c-1.85.21-2.8-2-4.66-1.81-.15,0-.56-.62-.49-.75,1.21-2.23-1.42-3-1.72-4.61,0-.21-.28-.51-.46-.53-3.2-.38-3-3.68-4.63-5.42.9-.89,1.65-2,3.06-2.13a5,5,0,0,1,.64,2.39c.06.7.46.82,1,.3Z"/><path class="cls-10" d="M110.13,28.1q0-.23,0-.46c6.69-.59,13.25-.44,19.07,3.63,0,.93.5,1.4,1.14,2.07,1.58,1.66,4.47,1.84,5.06,4.57l-1.55,0c-.16-.24-.34-.25-.52,0l-1,0c-1.25-1.46-3.9-1.36-4.21-3.95-.07-.59-1-.56-1.55-.56h-3c-.38-.33-1-.59-1.11-1-1-2.73-2.55-4.37-5.69-3.19A.87.87,0,0,1,116,29C114.21,27.5,112.1,28.28,110.13,28.1Z"/><path class="cls-7" d="M89.52,56.17c2,1.68,3.82,3.63,6.78,3.15a7,7,0,0,1-1.47,2.84c-1-1.66-3.32,0-4.31-1.64-.79-1.35-1.67-.44-2.54-.21-.11-2.67-2.21-3.32-4.12-4.15h0c0-1.29.07-2.55-1.88-1.7-1.11.49-1.7-1-2.76-.9l1.49-2.64C83.06,53.67,86.3,54.9,89.52,56.17Z"/><path class="cls-2" d="M146.39,89.93l-1.84,2.61c-2.86,2.83-5,6.4-8.58,8.49l-.64-.69c.8-.77,1.57-1.57,2.4-2.3A46.36,46.36,0,0,0,150.89,78.1c.38-.09.71-.89,1.14-.06C150.94,82.38,148.61,86.13,146.39,89.93Z"/><path class="cls-1" d="M135.33,100.33A67.71,67.71,0,0,1,123,107.1c-2.57.61-5.06,1.77-7.81,1.17l-3-.08-1.6-.05-1.06.12a9.47,9.47,0,0,0,4.6,1c1,0,1.7.14,1.52,1.37a27.45,27.45,0,0,0,7.29-2.47,1,1,0,0,1,1.08-.43l2-.59a5.74,5.74,0,0,1,3.53-1.09l0,0,.5-.44h0l.52-.5v0c1.39-1.81,4.15-1.78,5.25-4Z"/><path class="cls-4" d="M89.52,56.17c-3.21-1.27-6.45-2.5-8.81-5.24a3.15,3.15,0,0,1,1.1-2c.78.1,1.82-.32,2,1,.12.73.39.93,1.2.85,1.09-.12,2,0,1.31,1.71-.33.88.91,1.7,2.08,1.66C90.22,54,90.21,54.91,89.52,56.17Z"/><path class="cls-9" d="M135.4,37.91c-.59-2.73-3.48-2.9-5.06-4.57-.64-.67-1.16-1.14-1.14-2.07,4.38,2.15,8.11,5.22,11.81,8.34Z"/><path class="cls-9" d="M37.46,123.21c.2,1.1-.53,1.39-1.33,1.86-1.09.63-2.69.83-2.45,2.75-1.27-.44,0-2.58-1.94-2C33.36,124.31,35.47,123.9,37.46,123.21Z"/><path class="cls-7" d="M48.81,137.26c.61-3,.95-3.15,3.65-2C51.76,136.88,49.92,136.4,48.81,137.26Z"/><path class="cls-7" d="M52.46,135.25c.45-2,2-.71,3.06-1.08C54.79,135.36,53.6,135.23,52.46,135.25Z"/><path class="cls-7" d="M45.75,138.36c.14-1.5,1.27-1,2.1-1.05C47.54,138.45,46.58,138.28,45.75,138.36Z"/><path class="cls-4" d="M65.82,111.29c-.11,1.15-.9,1.05-1.69,1C64.38,111.37,65.06,111.25,65.82,111.29Z"/><path class="cls-7" d="M44.78,138.92c-.26-1.2.68-.31,1-.56Z"/><path class="cls-5" d="M123,108.12a1,1,0,0,1,1.08-.43A1,1,0,0,1,123,108.12Z"/><path class="cls-8" d="M135.39,103.47l.51-.49Z"/><path class="cls-7" d="M27.5,140.88a1.07,1.07,0,0,1-1,1c-1.13.19-1.52-.59-1.75-1.47-.15-.6.16-1.09.8-1A3.38,3.38,0,0,1,27.5,140.88Z"/><path class="cls-1" d="M95.19,86.34c-1.34-3.55-.66-7.18.23-10.57A42.54,42.54,0,0,1,105,57.27c0,3.86,0,7.71,0,11.57,0,.92-.23,2,1,2.4l2.57,1.57c.3.54.66,1.09,1.36.92.94-.22.7-1.07.68-1.7-.13-4-.39-8-.45-12-.06-3.58,0-3.56-3.36-2.85a11.62,11.62,0,0,1-1.78.11c5.86-8.2,14-13.17,23.73-13.87,11.91-.85,20.73,5.82,22.11,19.62a14.12,14.12,0,0,1,0,4.6,4.26,4.26,0,0,1-3.71,1c1.46-1,.23-2.23.29-3.34,0-.43-.52-.53-1-.39-1.9.51-3.57,1.21-3.08,3.83-2.33-1.35-2.33-1.35-3.46,1.32,4.44-1.86,5.44-2.06,7.28-1.42.07.75-.39,1-1,1.1l-.59.47c-.57,0-1.14,0-1.53.5l-1.47.1-2.14.93c-6.69,1.67-13.17,4-19.71,6.13-7.2,2.34-14.4,4.65-21.44,7.44C97.79,85,96.59,86.09,95.19,86.34Zm26.27-16.68h0c.51-.22.54-.67.52-1.14l1.46-2c.54-.15.62-.57.62-1,1.87-1.37,2.29-8.23.58-9.76-.11-.1-.32-.07-.49-.1l-.6-.54c-2.12-3.14-4.42-3.31-7.22-.53l-2.55,3.63c-.24.08-.57.08-.71.24-1.6,1.79-1.88,8.37-.4,10.26.21.27.76.27,1.15.39l0,0c0,.74.35,1,1,1h0c1.87,2.24,3.07,2.24,6.15,0h0ZM129.19,53l-1,1.06c-1.42.3-1.58,1.44-1.54,2.56.08,1.95.42,3.89.42,5.83,0,1.59.58,2.41,2.14,2.52h0c2,2.41,4.83,2.44,7.25.25,4-3.6,4.8-8.21,4-13.16-.38-2.31-2.74-3.45-4.66-4A4.25,4.25,0,0,0,131.28,50l-.53,1a1.61,1.61,0,0,0-1,1.57Zm-3.77,21.22c-1.33-3.55-3.63-1.12-5.14-.88s-.76,2.13-.23,3.49c1.13-1.76,1.63-2,2.32-1.9,1.41.2,2.93.87,4.13-.64.66-.83,1.09-2.79,2.54-.57.27.41,1.12.08,1.5-.51-1.4-.23-.56-2.53-2.36-2.51C126,70.74,125.13,71.79,125.41,74.22ZM100.64,80.1c-.92,0-1.62.09-2.06.7s0,1,.29,1.38c.61.71,1.15.41,1.63-.27.25-.35.52-.15.82.11s3.51-1.1,3.56-1.52c.07-.59-.36-.4-.67-.57C102.84,79.17,101.7,81.36,100.64,80.1Zm30.54-8.68c.21.46,0,1.68.69,1.2.87-.58,2.49-.66,2.37-2.48-.07-1-.52-1.12-1.26-1.07C131.5,69.16,131.28,70.24,131.18,71.42Zm-.55.12c-.05-.06-.11-.16-.16-.16s-.12.09-.18.14.11.15.17.16S130.57,71.59,130.63,71.54Z"/><path class="cls-11" d="M119.4,86.85h0Z"/><path class="cls-11" d="M122.49,85.81h0Z"/><path class="cls-11" d="M120.43,86.33h0v0Z"/><path class="cls-11" d="M117.34,87.37h0v0Z"/><path class="cls-11" d="M124,85.3h0v0Z"/><path class="cls-11" d="M116.31,87.89h0v0Z"/><path class="cls-11" d="M130.22,83.22h0l0,0Z"/><polygon class="cls-11" points="147.22 68.63 147.22 68.63 147.22 68.62 147.22 68.63"/><path class="cls-11" d="M150.93,67.61a4.26,4.26,0,0,1-3.7,1c.06.74-.4,1-1,1.09l-.59.47c-.57,0-1.14,0-1.53.5.51.15,1.4-.2,1.36.71,0,.7-.73.87-1.37.85a1.4,1.4,0,0,1-1.46-1.46l-2.14.93c.36.2.83.31,1.06.61,1.38,1.77,1.4,1.81,3,2-.77,2-3.52.92-4.15,2.47S139.29,80,137.8,81c-.12.09-.33,0-.5.06-2.3.89-4.55,1.95-7.06,2.12-.38.58-1,.52-1.55.52-.38.59-1,.53-1.55.52-.54.74-1.33.51-2.06.52-.17.53-.61.5-1,.52-.37.6-1,.53-1.55.52-.54.75-1.33.52-2.06.52-.17.52-.61.52-1,.52-.55.72-1.32.53-2.06.52-.17.53-.6.51-1,.52a3.65,3.65,0,0,1,0,.46c.56,1.28-.4,3.8-1.42,5s-3.33,1.39-3.09,3.67c1.89-.26,3.57-1.37,5.52-1.36a4,4,0,0,1,3.1-1c1.34-1.13,3-1.3,4.64-1.57a3.87,3.87,0,0,1,3.09-1c.36-.62,1-.5,1.52-.54.38-.59,1-.51,1.55-.52a6.61,6.61,0,0,1,.56-.36,1.91,1.91,0,0,1,.2.26l-.67.19c-.38.59-1,.5-1.56.52-.38.58-1,.5-1.55.51a3.9,3.9,0,0,1-3.09,1c-1.3,1.27-3,1.39-4.65,1.55a3.91,3.91,0,0,1-3.07,1.06c-2.15,1.06-4.24,2.34-6.8,2-7.33-.87-9.54-6.46-11.29-12.47-1.53-.26-2.72.8-4.12,1,.61,2.89.74,6.08,2.72,8.35,1.67,1.92,2,4.08,2.41,6.32a4.62,4.62,0,0,0,.52,1.7c1,1.56-.44,1.17-1.14,1.35,2.72,2.78,6.32,3.43,9.88,4.2l1.06-.12c.55-.64,1.09-.62,1.6.05l3,.08c2-1.09,4.43-.6,6.35-2,.3-.22,1.09.3,1.45.82a67.74,67.74,0,0,0,12.32-6.77c.8-.77,1.57-1.57,2.4-2.3A46.35,46.35,0,0,0,150.89,78.1c.46-2.56,1-5.12,1.34-7.7C152.39,69.28,153.13,67.69,150.93,67.61ZM135,89.55s.11.1.16.16a2.4,2.4,0,0,1-.4.16s-.11-.1-.16-.16A2.41,2.41,0,0,1,135,89.55Zm-1.77.53a2.23,2.23,0,0,1,.39.17l-.18.15-.38-.18C133.11,90.17,133.19,90.06,133.23,90.07ZM123,96.82a1.66,1.66,0,0,1,1.54-1.69c.84-.07.89.56.94,1.12a2.12,2.12,0,0,1-1.8,1.92C123,98.25,123,97.41,123,96.82Zm18.09-5.14c-1.81,1.19-2.05,4.12-4.26,5.31-4.54,2.44-8.9,5.41-14.07,6.26-2.86.47-5.39,2.1-8.46,2-.91,0-.61-.65-1.13-.74a29.66,29.66,0,0,1-3.67-1.14c-1.51-.46-3-1.21-2.32-3s2.22-1,3.49-.52c1.33-.58,2.63-1.08,3.09,1l3.18-.06c0-.6,0-1.21,0-1.81-.08-1.52,1-2.2,2.09-1.92,1.32.33.63,1.65.53,2.59,3,2.12,7.23-.76,9.1-4,.23-2.59.77-3,3-2.06l2.58-.55a2.21,2.21,0,0,1,2.12-2.14V89.56c-.2-.17-.38-.4-.07-.55a.63.63,0,0,1,1,.39c1.54-.1,2.11-1.52,2.74-2.47a7.48,7.48,0,0,1,6.62-3.48C145.07,86.52,144.19,89.66,141.12,91.68Z"/><path class="cls-11" d="M127.13,84.25h0Z"/><path class="cls-11" d="M128.68,83.73h0Z"/><path class="cls-11" d="M125.06,84.77h0v0Z"/><path class="cls-8" d="M102.34,56.12a1.27,1.27,0,0,1,1-1.08C103.44,55.81,103.09,56.16,102.34,56.12Z"/><path class="cls-8" d="M99.81,59.22l.48-.63C100.15,58.82,100.72,59.59,99.81,59.22Z"/><path class="cls-8" d="M100.36,58.24c.1-.54.45-.69.94-.63C101.19,58.14,100.8,58.23,100.36,58.24Z"/><path class="cls-8" d="M101.76,57.12c-.12-.53.16-.81.6-1C102.38,56.58,102.34,57,101.76,57.12Z"/><path class="cls-8" d="M103.35,55.09a1.05,1.05,0,0,1,.59-1C103.93,54.53,103.84,54.93,103.35,55.09Z"/><path class="cls-8" d="M101.28,57.65c0-.35.14-.56.51-.54Z"/><path class="cls-8" d="M104,54.08l.49-.58Z"/><path class="cls-12" d="M95.22,102.4v0h0Z"/><path class="cls-12" d="M93.65,108.77l.16.14a18.74,18.74,0,0,0,1.35-6.16C94.69,104.67,94.21,106.72,93.65,108.77Z"/><path class="cls-12" d="M95.17,102.38l-.49-.51-4.5-9.32a9.37,9.37,0,0,1-3.29-.27c-.57-.23-1.25-1.06-1.8-.27s.06,1.59.67,2.25,2,1.48,1.59,2.73c-.7,1.92-.22,3.91-.75,5.85-.8,2.9,2.27,6,5.29,5.67a2.54,2.54,0,0,1,1.75.27c.57-2.06,1-4.11,1.51-6C95.16,102.63,95.17,102.5,95.17,102.38Z"/><path class="cls-12" d="M88,60.32c.87-.23,1.75-1.13,2.54.21,1,1.67,3.28,0,4.31,1.64L90.64,72.82c-.43-.05-.92-.11-1-.61-.59-3-3.74-4.28-4.52-7.18-.28-1-1.38-1.54-2.56-1.83C81.64,63,80,63.27,80,62c.06-1.61.13-3.5,1.66-4.65a15.34,15.34,0,0,1,2.19-1.18h0C83.26,59.07,84.5,60.32,88,60.32Z"/><path class="cls-7" d="M83.34,104.53c1.05-1,.19-2.59,1.23-3.74,1.32-1.46.91-3-.72-4.06-1.16.31-1.48,1.72-2.66,2.06a.81.81,0,0,0-.3,1.12C81.9,101.35,81.8,103.38,83.34,104.53Z"/><path class="cls-7" d="M83.85,95.69c-1.21-.17-1.37-1.14-1.55-2.08C83.65,93.68,83.9,94.57,83.85,95.69Z"/><path class="cls-6" d="M110.13,28.1c2,.19,4.09-.6,5.86.92a.87.87,0,0,0,.74.08c3.15-1.18,4.68.46,5.69,3.19.15.42.73.68,1.11,1-1.66.69-2.35,3.4-4.93,2.08.7,2.4.7,2.4-1.45,2.8-.44-.66.72-1.67-.26-2.08-1.17-.48-1,.86-1.42,1.38-.59.73-1,1.58-2.15,1.64-.64,0-1.21.58-.89,1.27.57,1.19-.42,2.18-.25,3.28l-3.53,2.26c-.17-.9.23-2-1.26-2.29-1.17-.19-.78-1.25-.86-2,1.44-.25,1-1.4,1-2.26.07-1.28-.27-2.69,1.49-3.43-1.84.13-3.66-1.6-5.08.6-.24.37-.77.32-1.11-.07a.78.78,0,0,1-.07-.93c1.23-3,3-5.36,6.18-6.48C109.4,28.89,109.74,28.42,110.13,28.1Z"/><path class="cls-12" d="M112.19,43.66c-.17-1.11.82-2.09.25-3.28-.33-.69.24-1.23.89-1.27,1.14-.06,1.56-.91,2.15-1.64.42-.52.25-1.87,1.42-1.38,1,.41-.18,1.42.26,2.08,2.15-.4,2.15-.4,1.45-2.8,2.57,1.32,3.27-1.38,4.93-2.08h3c.6,0,1.48,0,1.55.56.3,2.59,3,2.49,4.21,3.95C125,37.67,118.4,39.94,112.19,43.66Z"/><path class="cls-4" d="M106.53,41.61c.09.77-.3,1.84.86,2,1.5.24,1.1,1.39,1.26,2.29a5.53,5.53,0,0,1-2.14,1.9c-1.67-2.74-7.57-8.07-9-8.07-.19-1,1.1-.57,1.24-1.25a3.34,3.34,0,0,1,4.2,1.17c.65.84,1.41,1.5,2.59,1.13C106.32,40.58,106.45,41.06,106.53,41.61Z"/><path class="cls-12" d="M133.33,37.85c.18-.23.36-.22.52,0Z"/><path class="cls-10" d="M95.23,102.43l-.54-.57Z"/><path class="cls-9" d="M84.88,115.45a.92.92,0,0,0-1-1A1,1,0,0,0,84.88,115.45Z"/><path class="cls-9" d="M80.76,113.37a.93.93,0,0,0,1.05,1A1,1,0,0,0,80.76,113.37Z"/><path class="cls-4" d="M98.28,36.93h-1c.11-.55-.24-1.51.83-1.27C98.7,35.8,99,36.39,98.28,36.93Z"/><path class="cls-6" d="M88,60.32c-3.48,0-4.72-1.25-4.12-4.15C85.78,57,87.87,57.65,88,60.32Z"/><path class="cls-5" d="M123,107.1c-.36-.53-1.15-1-1.45-.82-1.92,1.39-4.38.9-6.35,2C118,108.87,120.45,107.71,123,107.1Z"/><path class="cls-5" d="M110.64,108.14l1.6.05C111.72,107.52,111.19,107.49,110.64,108.14Z"/><path class="cls-5" d="M130.73,105l-.52.5Z"/><path class="cls-13" d="M116.3,88.35c.56,1.28-.4,3.8-1.42,5s-3.33,1.39-3.09,3.67l-1.19.76c-7.33-.87-9.54-6.46-11.29-12.47,7-2.79,14.24-5.1,21.44-7.44,6.55-2.13,13-4.46,19.71-6.13.36.2.82.31,1.06.61,1.38,1.77,1.4,1.81,3,2-.77,2-3.52.92-4.15,2.47S139.29,80,137.8,81c-.12.09-.33,0-.5.06-2.74-.57-4.83,1.06-7.09,2.12l0,0c-.58,0-1.23-.16-1.58.54h0c-.59,0-1.22-.17-1.57.53h0c-.75,0-1.52-.15-2.09.53l0,0c-.43,0-.88,0-1.06.54l0,0c-.58,0-1.22-.17-1.57.54h0c-.75,0-1.52-.16-2.09.53l0,0c-.43,0-.89,0-1.06.54h0c-.74,0-1.53-.18-2.09.53l0,0c-.43,0-.88,0-1.06.54l0,0c-.4.06-.9-.24-1.17.32Zm10-7.5c-1.68,0-2.53,1.4-4,1.17-.59-.1-.33.64-.16,1s.37,1.26,1,.9A14.59,14.59,0,0,1,126.81,82c.15,0,.3-.65.22-.91A.44.44,0,0,0,126.32,80.85Zm9.91-3.06c-1.61.44-2.82.76-4,1.1-.4.11-.9.25-.73.82a1.76,1.76,0,0,0,.66,1C133,81.2,135.68,79.42,136.23,77.8Zm-19,7.09c.06-1.76-1.15-.66-1.69-.86-1.24-.45-1.39,1-1.73,1.75s.66,1,1.15,1A2.35,2.35,0,0,0,117.21,84.89Zm-6.28,4.71a3.31,3.31,0,0,0-.75-.07c-.24,0-.27.2-.06.3a.82.82,0,0,0,.46.06C110.67,89.87,110.76,89.75,110.93,89.6Zm1.55-.43c-.06-.05-.12-.16-.17-.15a2.38,2.38,0,0,0-.41.16c.06.05.13.16.17.15A2.27,2.27,0,0,0,112.48,89.18Zm1.37-.34.18-.15a2.29,2.29,0,0,0-.4-.17s-.12.09-.18.14Z"/><path class="cls-14" d="M131.28,50a4.25,4.25,0,0,1,4.51-1.91c1.92.55,4.28,1.69,4.66,4,.82,5,0,9.56-4,13.16-2.42,2.2-5.29,2.16-7.25-.25a2.22,2.22,0,0,1,.76,0c4,1.69,7,.17,8.09-4.31-2.81.8-5.48,1.67-8.2,2.31-1.55.36-1.08,1.09-.65,2-1.57-.1-2.14-.93-2.14-2.52,0-1.94-.34-3.89-.42-5.83,0-1.12.12-2.27,1.54-2.56.52.75.83.41,1.09-.21l1-.17,1-.15c1.71-.38,3.38-1,5.25-1-1,2-.45,3.95-.53,5.85,0,.66-.4,1.83.81,1.75.94-.07,2.11-.15,2.64-1.25,1-2-.4-7.21-2-8.77C135.36,48,133.34,49.91,131.28,50Zm0,8.36a2.88,2.88,0,0,0,0-.94c-.38-.85,1-2.54-1-2.54-1.64,0-3,.68-2.65,2.87a18,18,0,0,1,0,3.62c-.08,1.44.51,1.4,1.7,1.15C132.12,61.93,131,59.8,131.25,58.35Zm4.12-.65a16.58,16.58,0,0,0,0-1.78c-.11-.83.39-2.08-1.22-2-1.3.08-2,.6-1.89,2.1s0,2.76,0,4.14c0,1,.45,1.08,1.33.81C135.68,60.36,135.42,58.76,135.37,57.7Z"/><path class="cls-11" d="M108.58,72.81,106,71.24c0-3.88,0-7.75,0-11.63,0-1.92,1.48-2.06,2.61-2.18,1.54-.16,1,1.3,1,2.07.08,3.7.09,7.41.07,11.11C109.6,71.45,110.08,72.63,108.58,72.81Z"/><path class="cls-14" d="M124.14,55.66c.16,0,.38,0,.49.1,1.71,1.53,1.3,8.4-.58,9.76l-.06,0c-.2-.38-.36-.37-.47.06l0,0c-3.05.17-5.73,1.65-8.59,2.48-.59.17-1.2.29-1.15,1.12-.39-.12-.94-.12-1.15-.39-1.48-1.89-1.2-8.47.4-10.26.15-.16.47-.17.71-.24-.06,1.2.86.95,1.53,1.06-2.2.7-3,2.2-2.57,4.45a11.13,11.13,0,0,1,0,2.33c-.06,1.55.59,1.7,1.91,1.23,1.11-.4,1.93-.89,1.66-2.16-.41-1.93,1.1-4.23-1.06-5.83.32-.87,1.13-.85,1.83-1.09C119.47,57.39,121.8,56.51,124.14,55.66Zm.43,5.12c0-1.29,0-2.14,0-3,0-.53-.13-1.11-.86-.88-1.32.42-3,.49-2.73,2.64a37.48,37.48,0,0,1,0,4.11c0,1,.29,1.22,1.38,1C125.26,64.24,124.51,62.13,124.57,60.79Zm-4.15,1.34c0-.82,0-1.5,0-2.19s.16-1.58-.84-1.54c-.8,0-2,.15-2.1,1.09a39.21,39.21,0,0,0,0,5.9c0,.61.68.58,1.23.48C121.16,65.42,120.26,63.47,120.43,62.13Z"/><path class="cls-13" d="M131.28,50c2.06-.08,4.08-2,6.21.17,1.56,1.56,2.94,6.76,2,8.77-.53,1.1-1.7,1.18-2.64,1.25-1.22.09-.84-1.09-.81-1.75.09-1.9-.47-3.87.53-5.85a19.69,19.69,0,0,0-5.25,1,4.27,4.27,0,0,0-.52-2.57Z"/><path class="cls-14" d="M108.58,72.81c1.5-.18,1-1.36,1-2.2,0-3.7,0-7.41-.07-11.11,0-.78.57-2.23-1-2.07-1.12.12-2.64.26-2.61,2.18.07,3.88,0,7.75,0,11.63-1.23-.42-1-1.48-1-2.4,0-3.86,0-7.71,0-11.57l0,0a11.58,11.58,0,0,0,1.78-.11c3.38-.72,3.3-.73,3.36,2.85.07,4,.32,8,.45,12,0,.63.26,1.48-.68,1.7C109.24,73.89,108.89,73.35,108.58,72.81Z"/><path class="cls-13" d="M113.81,69.12c-.05-.83.56-.95,1.15-1.12,2.86-.83,5.54-2.32,8.59-2.48l-.11,1.06-1.46,2a1.06,1.06,0,0,0-.52,1.14h0a.5.5,0,0,0-.52.53h0c-2.05.32-4.1.82-6.15,0h0c.06-.76-.37-1-1-1Z"/><path class="cls-11" d="M124.14,55.66c-2.34.85-4.67,1.73-7,2.54-.71.24-1.51.23-1.83,1.09l0,0c-.68-.11-1.6.15-1.53-1.06l2.55-3.63c2.47-.68,4.94-1.36,7.22.53Z"/><path class="cls-15" d="M125.41,74.22c-.29-2.44.57-3.48,2.76-3.51,1.8,0,1,2.27,2.36,2.51-.38.58-1.23.92-1.5.51-1.46-2.22-1.89-.26-2.54.57-1.19,1.51-2.72.84-4.13.64-.69-.1-1.19.14-2.32,1.9-.53-1.37-1.26-3.25.23-3.49S124.09,70.67,125.41,74.22Z"/><path class="cls-15" d="M147.22,68.62c-1.83-.63-2.83-.44-7.28,1.42,1.13-2.67,1.13-2.67,3.46-1.32-.49-2.62,1.18-3.31,3.08-3.83.5-.14,1,0,1,.39-.06,1.11,1.18,2.36-.29,3.34Z"/><path class="cls-15" d="M100.64,80.1c1.06,1.26,2.21-.93,3.57-.17.31.17.73,0,.67.57,0,.42-3.21,1.82-3.56,1.52s-.57-.46-.82-.11c-.48.67-1,1-1.63.27-.3-.35-.68-.85-.29-1.38S99.71,80.11,100.64,80.1Z"/><path class="cls-15" d="M131.18,71.42c.1-1.18.32-2.26,1.8-2.35.74,0,1.19,0,1.26,1.07.12,1.81-1.5,1.9-2.37,2.48C131.15,73.1,131.38,71.88,131.18,71.42Z"/><path class="cls-14" d="M123.54,55.12c-2.28-1.89-4.75-1.21-7.22-.53C119.12,51.81,121.42,52,123.54,55.12Z"/><path class="cls-14" d="M114.79,70.18c2.05.82,4.1.32,6.15,0C117.87,72.43,116.67,72.43,114.79,70.18Z"/><path class="cls-13" d="M144.08,70.69c.51.15,1.4-.2,1.36.71,0,.7-.73.87-1.37.85a1.4,1.4,0,0,1-1.46-1.46Z"/><path class="cls-11" d="M130.75,51a4.27,4.27,0,0,1,.52,2.57l-1,.15a1.17,1.17,0,0,0-.52-1.15A1.61,1.61,0,0,1,130.75,51Z"/><path class="cls-11" d="M129.29,53.85c-.26.63-.57,1-1.09.21l1-1.06Z"/><path class="cls-14" d="M113.77,69.14c.66,0,1.1.28,1,1C114.11,70.18,113.72,69.88,113.77,69.14Z"/><path class="cls-13" d="M129.29,53.85l-.11-.84.54-.47a1.17,1.17,0,0,1,.52,1.15Z"/><path class="cls-14" d="M121.45,69.68a1.06,1.06,0,0,1,.52-1.14C122,69,122,69.46,121.45,69.68Z"/><path class="cls-14" d="M123.43,66.58l.11-1.06,0,0a3.33,3.33,0,0,0,.47-.06l.06,0C124.05,66,124,66.42,123.43,66.58Z"/><path class="cls-14" d="M120.93,70.19a.5.5,0,0,1,.52-.53Z"/><path class="cls-13" d="M146.2,69.72l-.59.47Z"/><path class="cls-15" d="M130.63,71.54c-.06,0-.12.14-.18.14s-.11-.1-.17-.16.13-.14.18-.14S130.57,71.48,130.63,71.54Z"/><path class="cls-16" d="M140,86.93c-.63,1-1.2,2.38-2.74,2.47l-.91.16q0,.69,0,1.37c.64.9,1.55,1.87.21,2.82-.88.62-2,1-2.33-.67l-2.58.55c0,2.24-1,2.86-3,2.06-1.86,3.24-6.13,6.12-9.1,4L117,100.83l-3.18.05a3.1,3.1,0,0,1-.56.45c-.7.34-1.27,1.4-2.13.84s-.4-1.5-.4-2.31c-1.28-.51-2.83-1.32-3.49.52s.81,2.56,2.32,3a29.66,29.66,0,0,0,3.67,1.14c.52.09.22.72,1.13.74,3.07.07,5.59-1.55,8.46-2,5.17-.85,9.53-3.82,14.07-6.26,2.2-1.19,2.45-4.12,4.26-5.31,3.07-2,4-5.16,5.56-8.23A7.48,7.48,0,0,0,140,86.93Z"/><path class="cls-15" d="M119.59,99.69,117,100.83c0-.6,0-1.21,0-1.81-.08-1.52,1-2.2,2.09-1.92C120.39,97.43,119.7,98.75,119.59,99.69Z"/><path class="cls-15" d="M113.79,100.88a3.1,3.1,0,0,1-.56.45c-.7.34-1.27,1.4-2.13.84s-.4-1.5-.4-2.31C112,99.29,113.33,98.78,113.79,100.88Z"/><path class="cls-14" d="M136.41,90.94c.64.9,1.55,1.87.21,2.82-.88.62-2,1-2.33-.67A2.21,2.21,0,0,1,136.41,90.94Z"/><path class="cls-14" d="M131.71,93.63c0,2.24-1,2.86-3,2.06C128.92,93.1,129.46,92.73,131.71,93.63Z"/><path class="cls-15" d="M125.51,96.25a2.12,2.12,0,0,1-1.8,1.92c-.76.08-.75-.77-.69-1.35a1.66,1.66,0,0,1,1.54-1.69C125.41,95.06,125.46,95.69,125.51,96.25Z"/><path class="cls-14" d="M130.22,83.22c2.26-1.06,4.35-2.69,7.09-2.12C135,82,132.74,83.05,130.22,83.22Z"/><path class="cls-14" d="M110.6,97.76,111.8,97c1.89-.26,3.57-1.37,5.52-1.36l.08.1C115.25,96.8,113.16,98.08,110.6,97.76Z"/><path class="cls-14" d="M125.12,93.12c-1.31,1.27-3,1.39-4.65,1.55l0-.06c1.35-1.13,3-1.3,4.64-1.57Z"/><path class="cls-14" d="M120.47,94.68a3.91,3.91,0,0,1-3.07,1.06l-.08-.1a4,4,0,0,1,3.1-1Z"/><path class="cls-14" d="M125.06,93.05a3.87,3.87,0,0,1,3.09-1l.05.07a3.91,3.91,0,0,1-3.09,1Z"/><path class="cls-14" d="M117.34,87.37c.56-.71,1.35-.54,2.09-.53C118.87,87.59,118.08,87.38,117.34,87.37Z"/><path class="cls-14" d="M125.06,84.77c.57-.69,1.35-.55,2.09-.53C126.61,85,125.8,84.76,125.06,84.77Z"/><path class="cls-14" d="M120.43,86.33c.57-.69,1.35-.55,2.09-.53C122,86.58,121.17,86.33,120.43,86.33Z"/><path class="cls-14" d="M127.13,84.25c.35-.7,1-.56,1.57-.53C128.32,84.34,127.71,84.26,127.13,84.25Z"/><path class="cls-14" d="M129.67,91.47c.38-.59,1-.51,1.55-.52l.08.1c-.38.59-1,.5-1.56.52Z"/><path class="cls-14" d="M137.31,89.4l-.91.16c-.2-.17-.38-.4-.07-.55A.63.63,0,0,1,137.31,89.4Z"/><path class="cls-14" d="M128.15,92c.36-.62,1-.5,1.52-.54l.08.09c-.38.58-1,.5-1.55.51Z"/><path class="cls-14" d="M116.3,88.35l-1.14-.15c.26-.57.76-.27,1.17-.32A3.66,3.66,0,0,1,116.3,88.35Z"/><path class="cls-14" d="M128.68,83.73c.35-.7,1-.53,1.58-.54C129.87,83.81,129.26,83.73,128.68,83.73Z"/><path class="cls-14" d="M122.49,85.81c.35-.7,1-.54,1.57-.54C123.69,85.91,123.08,85.82,122.49,85.81Z"/><path class="cls-14" d="M131.22,91a6.61,6.61,0,0,1,.56-.36,1.91,1.91,0,0,1,.2.26l-.67.19Z"/><path class="cls-14" d="M124,85.3c.18-.53.63-.52,1.06-.54C124.93,85.31,124.47,85.28,124,85.3Z"/><path class="cls-14" d="M119.4,86.85c.17-.54.63-.51,1.06-.54C120.29,86.86,119.84,86.85,119.4,86.85Z"/><path class="cls-14" d="M133.44,90.4l-.38-.18c.06-.05.13-.15.17-.14a2.24,2.24,0,0,1,.39.17Z"/><path class="cls-14" d="M116.31,87.89c.17-.54.63-.52,1.06-.54C117.2,87.91,116.74,87.88,116.31,87.89Z"/><path class="cls-14" d="M135.17,89.71a2.41,2.41,0,0,1-.4.16s-.11-.1-.16-.16a2.41,2.41,0,0,1,.4-.16S135.11,89.65,135.17,89.71Z"/><path class="cls-14" d="M126.32,80.85a.44.44,0,0,1,.71.27c.08.27-.07.87-.22.91a14.59,14.59,0,0,0-3.66,1.85c-.58.35-.74-.51-1-.9s-.43-1.06.16-1C123.79,82.26,124.64,80.81,126.32,80.85Z"/><path class="cls-14" d="M136.23,77.8c-.54,1.62-3.2,3.4-4.1,3a1.76,1.76,0,0,1-.66-1c-.17-.57.33-.71.73-.82C133.41,78.55,134.62,78.24,136.23,77.8Z"/><path class="cls-14" d="M117.21,84.89a2.35,2.35,0,0,1-2.27,1.85c-.49,0-1.45-.3-1.15-1s.49-2.2,1.73-1.75C116.06,84.23,117.27,83.13,117.21,84.89Z"/><path class="cls-14" d="M110.93,89.6c-.17.15-.26.27-.36.29a.82.82,0,0,1-.46-.06c-.2-.09-.18-.26.06-.3A3.31,3.31,0,0,1,110.93,89.6Z"/><path class="cls-14" d="M112.48,89.18a2.3,2.3,0,0,1-.4.15s-.11-.09-.17-.15a2.38,2.38,0,0,1,.41-.16S112.43,89.12,112.48,89.18Z"/><path class="cls-14" d="M113.85,88.83l-.4-.18c.06,0,.14-.15.18-.14a2.29,2.29,0,0,1,.4.17Z"/><path class="cls-13" d="M129.23,65c-.43-.87-.9-1.59.65-2,2.72-.64,5.4-1.51,8.2-2.31-1.12,4.47-4.14,6-8.09,4.31a2.22,2.22,0,0,0-.76,0Z"/><path class="cls-13" d="M131.25,58.35c-.21,1.45.87,3.58-1.91,4.15-1.19.25-1.77.29-1.7-1.15a18,18,0,0,0,0-3.62c-.33-2.19,1-2.87,2.65-2.87,1.93,0,.6,1.7,1,2.54A2.88,2.88,0,0,1,131.25,58.35Z"/><path class="cls-1" d="M135.37,57.7c.06,1.07.31,2.66-1.74,3.29-.89.27-1.32.16-1.33-.81,0-1.38.08-2.77,0-4.14s.58-2,1.89-2.1c1.6-.1,1.1,1.15,1.22,2A16.58,16.58,0,0,1,135.37,57.7Z"/><path class="cls-13" d="M115.28,59.29c2.15,1.6.64,3.9,1.06,5.83.27,1.26-.55,1.76-1.66,2.16-1.32.47-2,.32-1.91-1.23a11.13,11.13,0,0,0,0-2.33c-.39-2.25.38-3.76,2.57-4.45Z"/><path class="cls-13" d="M124.57,60.79c-.06,1.34.69,3.45-2.18,3.91-1.09.18-1.39,0-1.38-1a37.48,37.48,0,0,0,0-4.11c-.22-2.16,1.41-2.23,2.73-2.64.73-.23.84.35.86.88C124.59,58.64,124.57,59.5,124.57,60.79Z"/><path class="cls-1" d="M120.43,62.13c-.16,1.35.73,3.3-1.73,3.74-.55.1-1.2.13-1.23-.48a39.21,39.21,0,0,1,0-5.9c.1-.94,1.3-1.05,2.1-1.09,1,0,.81.89.84,1.54S120.43,61.31,120.43,62.13Z"/><path class="cls-13" d="M124,65.48a3.33,3.33,0,0,1-.47.06C123.63,65.11,123.79,65.1,124,65.48Z"/></svg>