<?xml version="1.0" encoding="utf-8"?>
<!-- Generator: Adobe Illustrator 22.0.0, SVG Export Plug-In . SVG Version: 6.00 Build 0)  -->
<svg version="1.1" id="圖層_1" xmlns="http://www.w3.org/2000/svg" xmlns:xlink="http://www.w3.org/1999/xlink" x="0px" y="0px"
	 viewBox="0 0 345 99" style="enable-background:new 0 0 345 99;" xml:space="preserve">
<style type="text/css">
	.st0{opacity:0.85;}
	.st1{fill:#8AD7DB;}
	.st2{fill:#FE818C;}
	.st3{fill:#FBBF8E;}
	.st4{fill:#FABFA1;}
	.st5{fill:#C0C538;}
	.st6{fill:#AA3D62;}
	.st7{fill:#E15A26;}
	.st8{fill:#FABEA0;}
	.st9{fill:#F9BEA0;}
	.st10{fill:#E25E2B;}
	.st11{fill:#BFC339;}
	.st12{fill:#A45A60;}
	.st13{fill:#E15B28;}
	.st14{fill:#E05B28;}
	.st15{fill:#A35961;}
	.st16{fill:#BFC239;}
	.st17{fill:#4E8EAE;}
	.st18{fill:#F7BB9E;}
	.st19{fill:#A35662;}
	.st20{fill:#BFC13A;}
	.st21{fill:#4D8FB2;}
	.st22{fill:#A35B61;}
	.st23{fill:#BEBC3F;}
	.st24{fill:#E46130;}
	.st25{fill:#AC4366;}
	.st26{fill:#E15E2B;}
	.st27{fill:#498FAE;}
	.st28{fill:#F9BD9F;}
	.st29{fill:#408CAF;}
	.st30{fill:#BEBC3E;}
	.st31{fill:#F8BEA2;}
	.st32{fill:#BEBB47;}
	.st33{fill:#B07650;}
	.st34{fill:#E15F2D;}
	.st35{fill:#AF486D;}
	.st36{fill:#5291AF;}
	.st37{fill:#418CAF;}
	.st38{fill:#F8BFA2;}
	.st39{fill:#DE6435;}
	.st40{fill:#AA656E;}
	.st41{fill:#E05A28;}
	.st42{fill:#C1BC51;}
	.st43{fill:#C1BB3F;}
	.st44{fill:#CC94A7;}
	.st45{fill:#4491AC;}
	.st46{fill:#D2523A;}
	.st47{fill:#C47B93;}
	.st48{fill:#BF7E92;}
	.st49{fill:#C8869B;}
	.st50{fill:#C06F87;}
	.st51{fill:#C7859B;}
	.st52{fill:#E7744D;}
	.st53{fill:#C6869F;}
	.st54{fill:#C7879E;}
	.st55{fill:#849AB6;}
	.st56{fill:#BA718B;}
	.st57{fill:#AF7A8B;}
	.st58{fill:#B87489;}
	.st59{fill:#AF7C72;}
	.st60{fill:#B87988;}
	.st61{fill:#9C7C9B;}
	.st62{fill:#A06588;}
	.st63{fill:#9A8395;}
	.st64{fill:#D15F74;}
	.st65{fill:#D15A6F;}
	.st66{fill:#D45D76;}
	.st67{fill:#C97472;}
	.st68{fill:#C4696F;}
	.st69{fill:#BE656F;}
	.st70{fill:#BB5A66;}
	.st71{fill:#DA6176;}
	.st72{fill:#C75064;}
	.st73{fill:#C64F6B;}
	.st74{fill:#C34F68;}
	.st75{fill:#D2827F;}
	.st76{fill:#C8777B;}
	.st77{fill:#BF6977;}
	.st78{fill:#BC606C;}
	.st79{fill:#B2774D;}
	.st80{fill:#AF7256;}
	.st81{fill:#B07E4C;}
	.st82{fill:#B46952;}
	.st83{fill:#CF4F3C;}
	.st84{fill:#5B7C99;}
	.st85{fill:#DD5629;}
	.st86{fill:#DD5C26;}
	.st87{fill:#4A89A7;}
	.st88{fill:#E05725;}
	.st89{fill:#408CB3;}
	.st90{fill:#4094B3;}
	.st91{fill:#5C7B9A;}
	.st92{fill:#438CB3;}
	.st93{fill:#488CAC;}
	.st94{fill:#C64E43;}
	.st95{fill:#4390B4;}
	.st96{fill:#E15E22;}
	.st97{fill:#DE5D26;}
	.st98{fill:#E75B21;}
	.st99{fill:#9F426A;}
	.st100{fill:#E26431;}
	.st101{fill:#F5CFBE;}
	.st102{fill:#F8E0D3;}
	.st103{fill:#B24158;}
	.st104{fill:#A53866;}
	.st105{fill:#F8D7CA;}
	.st106{fill:#F7E2D7;}
	.st107{fill:#B2415A;}
	.st108{fill:#C0474B;}
	.st109{fill:#B8454E;}
	.st110{fill:#BD4551;}
	.st111{fill:#BD4454;}
	.st112{fill:#C14649;}
	.st113{fill:#BC5565;}
	.st114{fill:#F7DDD3;}
	.st115{fill:#A73C62;}
	.st116{fill:#428CA7;}
	.st117{fill:#AB6478;}
	.st118{fill:#885882;}
	.st119{fill:#BA6472;}
	.st120{fill:#CE7678;}
	.st121{fill:#C66D79;}
	.st122{fill:#B96B66;}
	.st123{fill:#AB6657;}
	.st124{fill:#D65431;}
	.st125{fill:#418BB2;}
	.st126{enable-background:new    ;}
	.st127{fill:#EEEEEE;}
</style>
<title>play</title>
<g class="st0">
	<path class="st1" d="M269.9,61.8c-4.3-2.4-8.2-4.4-12-6.6c-1.6-1-2.4-1-3.3,0.9c-1.8,3.9-3.9,7.6-6.3,12.1
		c-1.4-4.6-2.7-8.5-3.9-12.4c-1.7-5.6-3.2-11.3-5.1-16.8c-0.7-2.2-0.1-3.1,1.8-3.6c5.6-1.6,11.3-3.2,16.9-5c1.9-0.6,2.7,0,3.2,1.6
		C264,41.7,266.9,51.5,269.9,61.8z"/>
	<path class="st2" d="M297.3,51.3c-3.8-1.8-7.6-3.6-11.3-5.5c-1.8-1-2.7-0.8-3.5,1.2c-1.6,3.9-3.6,7.8-5.7,12.3
		c-2.3-6.3-4.4-12-6.4-17.7c-1.4-4-2.7-8-4.2-11.9c-0.5-1.4-0.3-2.2,1.1-2.6c5.9-2,11.8-4,17.7-6.1c1-0.3,1.8-0.8,2.3,0.6
		c3.5,9.8,6.9,19.5,10.4,29.2L297.3,51.3z"/>
	<path class="st3" d="M182.4,83.3c-3.8-2.8-7.1-5.2-10.3-7.8c-1.7-1.4-2.6-1.8-4.2,0.6c-2.2,3.5-5.2,6.5-7.8,9.7
		c-0.1-0.1-0.2-0.3-0.2-0.5c-1.5-9.6-3-19.2-4.5-28.7c-0.3-2,0.1-2.8,2.2-3.1c5.8-0.8,11.6-1.8,17.4-2.8c1.7-0.3,2.7-0.1,2.9,2
		c0.6,5.2,1.6,10.3,2.3,15.4C180.7,72.8,182.3,77.5,182.4,83.3z"/>
	<path class="st2" d="M122.1,90.3c-3.3-3.1-6.5-5.9-9.5-8.9c-1.5-1.5-2.4-1.3-3.7,0.3c-2.6,3.2-5.4,6.1-8.6,9.6
		c-1.2-3.8-0.6-7.2-0.9-10.4c-0.5-6-0.5-12.1-0.8-18.2c-0.2-4.3-0.1-4.5,4.4-4.7c5.2-0.2,10.4-0.2,15.5-0.5c2.1-0.1,2.8,0.4,2.9,2.5
		c0.2,7.2,0.6,14.4,0.8,21.7C122.2,84.3,122.9,87.1,122.1,90.3z"/>
	<path class="st4" d="M212,77.1c-3.3-1.3-5.6-3.5-8.2-5.1c-6.5-3.9-4.4-4.6-8.8,2.1c-1.6,2.5-3.3,5-5.2,7.9
		c-1.3-6.3-2.6-12-3.7-17.7c-0.8-4.1-1.5-8.3-2.4-12.4c-0.4-2,0.1-3.1,2.3-3.4c5.5-0.8,11-1.9,16.3-3.3c2.1-0.5,3.1-0.1,3.5,2.3
		C207.8,57.2,209.9,66.9,212,77.1z"/>
	<path class="st5" d="M60.3,90c-2.7-3.3-5.3-6.1-7.7-9.3c-1.6-2.2-2.8-2.7-5-0.6c-2.8,2.7-5.9,5.1-9.2,8c-0.5-3.8,0.3-7,0.5-10.2
		c0.5-6.8,1.2-13.6,1.7-20.5c0.1-2.1,0.9-2.4,2.8-2.2c5.7,0.6,11.5,1.1,17.3,1.5c1.8,0.1,2.7,0.1,2.5,2.7C62.6,69,61.5,78.5,60.9,88
		C60.8,88.8,60.6,89.4,60.3,90z"/>
	<path class="st6" d="M91.9,69.6c0.2,2.2,0.1,4.5-0.2,6.7c-0.8,0.4-0.9,0.9-0.1,1.5l-0.2,13.1l-0.7,0.3L80.6,80
		c-0.2-0.1-0.3-0.3-0.4-0.4c-0.4-0.3-0.4,0.2-0.6,0.3c-1.6,2-3.9,2.4-6.2,2.5c-3.7,0.2-4,0-4.1-3.4c-0.3-2.4-0.3-4.8,0.2-7.2
		c0.5-0.6,1.2-1,2-1.1c6-0.9,11.9-1.7,17.9-2.4C90.3,68.3,91.6,68,91.9,69.6z"/>
	<path class="st6" d="M69.5,68.1c0-3,0.1-6,0.1-9c0-1.3,0.6-1.6,1.8-1.5c6.2,0.3,12.5,0.5,18.7,0.6c1.6,0,2.3,0.5,2.2,2.2
		c-0.2,2-0.3,4.1-0.4,6.1c-0.3,1-0.1,2.2-1.9,2.4c-5.8,0.6-11.6,1.5-17.4,2.3C69.6,71.5,69.6,71.5,69.5,68.1z"/>
	<path class="st7" d="M237.2,55.3l4.1,14.9c-4.1-2.5-7.5-4.3-10.7-6.5c-2.2-1.5-3.8-1.8-5.1,1c-0.7,0.4-1.6,0.3-2.3-0.2
		c-0.9-0.7-1.4-1.8-1.5-2.9c-0.3-2.6-0.8-5.2-1.4-7.8c-0.8-3.2,0.2-4.2,3.5-4.4s6.3-1.1,9.6-1.1c1.4,0,2.1,0.3,2.1,1.7
		c0,1.8,1.1,3.3,0.9,5.2C236.3,55.7,236.9,55,237.2,55.3z"/>
	<path class="st7" d="M233.4,41c0.7,1.6,1.2,3.3,1.3,5c0.7,1.3,0.5,2.3-1.2,2.5c-4,0.4-7.9,1.2-11.9,1.5c-1.1,0.1-1.9-0.1-1.7-1.3
		c0.2-1.5-0.6-2.9-0.4-4.3c-0.1-0.5,0.5-0.7,0.4-1.1c-0.2,0-0.5,0-0.7,0.1c-0.5,0.5,0.5,0.8,0.3,1.3c-0.1,0.8,0.5,1.5,0.4,2.3
		c-0.1,1.4,0.8,3.4-1.4,3.9c-2,0.4-4.4,1.8-5.9-1.1c-2.4-6.2-2.4-6.2,4-7.7l11-2.7c0.8-0.5,1.7-0.6,2.6-0.3c-0.6,2.4,1.3,0.5,1.8,1
		C232.6,40.1,233.1,40.5,233.4,41z"/>
	<path class="st8" d="M35.5,57.9c-0.1,1.9-0.4,3.7-1,5.5C28,63.9,21.7,65,15.3,65.8c-1.4,0.2-2.9,0.6-4.3-0.4
		c-0.2-1.9,0.6-3.7,0.9-5.5c6.7-0.4,13.4-1.8,20.1-2.3C33.2,57.4,34.4,57.1,35.5,57.9z"/>
	<path class="st9" d="M34.1,65.7l-1,5c-3.1,1.3-6.5,1.2-9.8,1.7s-6.6,0.9-9.9,1.3c-1.3,0.2-2.6,0.4-3.7-0.5
		c-0.1-2.1,0.2-4.1,0.9-6.1c2.1,0.4,4.3,0.4,6.4,0c4.4-0.6,8.7-1.2,13.1-1.7C31.5,65.3,32.8,64.9,34.1,65.7z"/>
	<path class="st10" d="M9.7,73.3c6.8-0.9,13.5-1.8,20.3-2.6c1-0.1,2.1-0.6,3.1,0.1l-0.8,3.6c-2.7,2.1-7.9,2.6-10.5,1
		c-2.1-2.1-2.9,1.2-4.5,1.2c-1.9,1.2-4.1,1.8-6.4,1.6c-1,0-2.4,0-1.9-1.7L9.7,73.3z"/>
	<path class="st11" d="M306.8,44.9l-1.5,3.9c-1.1-1.8-2-3.8-2.5-5.9c-1.7-7.4-2.5-14.9-3.4-22.4c-0.4-3.1,0.4-3.9,3.4-3.9
		c0.8,1,1.3,2.2,1.3,3.5c0.9,6.7,1.8,13.4,2.7,20C307,41.8,306.7,43.4,306.8,44.9z"/>
	<path class="st12" d="M313.4,34.8c-0.8-0.1-1.5-0.7-2.4-0.4c-1.4-1-1.3-2.5-1.5-4c-0.7-4.4-1.1-8.9-2.1-13.4
		c-0.5,0.8-0.6,1.9-0.3,2.8c0.6,4.6,1.2,9.1,1.8,13.7c0.4,2.1,0.4,4.3-0.1,6.4l-0.5,1.1c-0.7-0.5-1.1-1.2-1.1-2
		c-1.1-8-2.6-16-3.1-24.2c0.1-0.8,0.4-1.4,1.5-1.3c1.1,0.2,2.1-0.5,2.4-1.6c0.7-0.5,1.5-0.9,2.4-1c1.1,0.5,3.5-0.4,2.5,2.3
		c-0.8,1.8-0.4,3.6-0.1,5.4c0.7,4.1,1.3,8.2,1.6,12.4C314.4,32.3,314.9,33.9,313.4,34.8z"/>
	<path class="st13" d="M34.1,65.7c-7.3,1-14.5,2.1-21.7,3.1c-1.4,0.2-1.6-0.6-1.7-1.7l0.4-1.8c6.9-0.9,13.9-1.9,20.8-2.8
		c1-0.1,2.2-0.8,2.7,0.8L34.1,65.7z"/>
	<path class="st14" d="M35.5,57.9l-21.2,2.9c-1,0.1-2,0.5-2.3-0.9l0.5-2.3c0.8-1.2,2.1-1.3,3.3-1.5c3.1-0.5,6.2-0.6,9.2-1.2
		c1.3-0.1,2.7,0.4,4-0.3c2-0.7,4.1,0,6.1-0.2C36.8,55.4,35.3,56.7,35.5,57.9z"/>
	<path class="st7" d="M216.2,63.5c-1.1-3.1-2-6.3-2.5-9.6c-1.1-2.1-0.4-2.9,2-3c4.2-0.2,4.1-0.3,5.1,3.7c0.7,2.8,0.9,5.8,1.3,8.6
		c0,0.3,0,0.7,0,1c-0.1,0.5-0.3,0.9-0.7,1.1c-0.8,0.4-1.5-0.7-2.6,0C217.6,66.1,217,64.2,216.2,63.5z"/>
	<path class="st15" d="M304.6,13.7l3.7,27.4l-1.5,3.9c-1-1.8-0.9-3.8-1.1-5.7c-1.1-7.4-2-14.9-3-22.3c-0.3-0.3-0.6-0.7-0.7-1.1
		c-0.1-0.6,0-1.2,0.4-1.7l2.2-0.9c0.2,0.1,0.3,0.2,0.3,0.3S304.7,13.7,304.6,13.7z"/>
	<path class="st2" d="M128.5,77c-0.4-1.3-0.6-2.7-0.4-4.1c6.2-0.3,12.3-1.5,18.5-2.2c1.3-0.1,2.7-0.6,4,0.2L151,74
		c-0.7,0.7-1.6,1.1-2.6,1.1c-5.7,0.8-11.4,1.6-17.1,2.3C130.4,77.7,129.3,77.5,128.5,77z"/>
	<path class="st2" d="M127.5,65.3l-0.4-3.4c0.9-0.6,1.9-0.9,3-0.9c5.2-0.7,10.4-1.4,15.6-2.1c1.3-0.2,2.7-0.5,4,0.3l0.4,3.1
		c-0.6,0.7-1.6,1.2-2.6,1.2l-17.1,2.3C129.3,66,128.3,65.8,127.5,65.3z"/>
	<path class="st16" d="M308.8,39.9c-1-7.5-2-15-3.1-22.4c-0.2-1.6,0.3-2.6,1.7-2.8s1.1,1.4,1.2,2.1c0.9,5.8,1.6,11.6,2.5,17.5
		C310.6,36.3,309.8,38.2,308.8,39.9z"/>
	<path class="st2" d="M128.2,71.1l-0.3-3.1c0.4-0.4,0.8-0.7,1.4-0.8c0.4-0.1,0.7-0.2,1.1-0.2c5.4-0.7,10.8-1.5,16.3-2.2
		c1.1-0.2,2.3-0.5,3.4,0.3l0.4,3c-0.7,0.8-1.8,1.2-2.9,1.3c-5.4,0.7-10.8,1.5-16.2,2.2C130.2,71.8,129.1,71.6,128.2,71.1z"/>
	<path class="st17" d="M149.6,59.1c-7.5,0.9-14.9,2.5-22.5,2.7l-0.2-2c0.2-0.6,0.6-1.1,1.2-1.3c1-0.3,2.1-0.5,3.2-0.6
		c0.8-0.1,1.6-0.2,2.3-0.3c1.1-0.1,2.2-0.3,3.3-0.5c0.8-0.2,1.6-0.3,2.4-0.3c0.9-0.1,1.9-0.2,2.8-0.3c0.7-0.1,1.5-0.2,2.3-0.1
		c1.3,0.3,2.5,0.1,3.7-0.3c0.4-0.1,0.9,0,1.2,0.3L149.6,59.1z"/>
	<path class="st18" d="M25.6,55.6l-13.2,2c0-1.7,0.3-3.4,0.9-5c0.5-0.1,1.1-0.1,1.6,0.1c0.8,0.5,1.8,0.3,2.3-0.4
		c1-0.7,2.1,0.2,3.1-0.5c5,0.6,9.9,1.5,14.7,2.6l-6.4,1C27.7,55.8,26.6,54.9,25.6,55.6z"/>
	<path class="st19" d="M319.8,37.5l-2.8-1.2c-0.7-0.8-1.1-1.9-1.1-2.9c-0.9-6.3-1.7-12.5-2.5-18.8c-0.2-1.4-0.6-2.9,0.6-4.1l4,10.1
		c0.8,3.9,1.5,7.9,2,11.8C320.3,34.1,320.8,35.9,319.8,37.5z"/>
	<path class="st20" d="M313.4,34.8c0.2-5.5-1.1-10.9-1.8-16.3c-0.2-1.4-0.3-2.9-0.5-4.3c-0.1-1.2,0.7-1.5,1.6-1.6
		c1.1-0.2,1,0.7,1,1.3c0.9,6.6,1.8,13.1,2.6,19.7c0.1,1.1,0.4,2.3-1.4,2C314.4,35.5,313.8,35.3,313.4,34.8z"/>
	<path class="st21" d="M149.9,65.1l-20.3,2.5c0.1-0.5,0.4-0.6,0.8-0.6c5.2-0.7,10.4-1.4,15.6-2.1l-15.1,2c-0.8,0-1.5,0.3-2.2,0.8
		l-1,0.4l-0.4-2.7l22.5-3C150.1,63.2,150.4,64.2,149.9,65.1z"/>
	<path class="st22" d="M296.6,16.5c0.6-0.6,1.5-0.9,2.3-0.9c1.5,1.2,0.6,3,0.8,4.4c0.9,6,1.7,12,2.4,18.1c0.1,0.8,0.9,1.9-0.3,2.6
		l-3.2-7.9c-1.3-4.3-2.2-8.8-2.5-13.3c0-0.5-0.1-1.1-0.1-1.6C296.2,17.4,296.3,16.9,296.6,16.5z"/>
	<path class="st23" d="M319.8,37.5c-0.6-4.6-1.2-9.2-1.8-13.8c-0.1-1-0.6-2.1,0.1-3.1c1.9,3.6,3.4,7.4,4.5,11.3
		c0.3,2.4,2.3,4.6,0.8,7.2C322,38.9,320.8,38.4,319.8,37.5z"/>
	<path class="st24" d="M221.6,63.9c-0.5-3.6-1-7.2-1.4-10.8c-0.2-1.9-0.7-3.1-2.9-2c-0.4,0.2-1,0.3-1.4,0.2
		c-2.3-0.5-2.4,0.9-2.2,2.5c-0.7-1.3-1.1-2.7-1.1-4.1c2,1.7,4.2,0.5,6.3,0.2c0.9-0.1,0.7-1,0.6-1.7c-0.2-1.5-0.4-3.1-0.6-4.6
		c0.1-0.3,0.5-0.5,0.9-0.4c0.1,0,0.2,0.1,0.3,0.2c-0.6,1.8,0.8,3.5,0.3,5.4c-0.2,0.8,0.9,0.8,1.6,0.7c3.8-0.5,7.6-1,11.4-1.5
		c1.4-0.2,1.4-1.1,1.4-2.1c1.1,3,1.9,6.1,2.4,9.3l-0.9,1.5c-0.6-1.8-1-3.7-1.2-5.6c0-1.8,0.2-1.9-2.1-2c-3.6-0.1-6.9,1.5-10.4,1
		c-1.4-0.2-2,0.7-1.7,2.3c0.7,2.9,1.1,5.9,1.6,8.9C221.7,62.1,223.3,63.6,221.6,63.9z"/>
	<path class="st25" d="M80.5,79.2l0.1,0.8c-2,0.9-3.1,2.8-4.8,4c-0.7,0.3-1.2,0.8-1.5,1.4l-5.4,5.4c-0.3-1.6-0.3-3.2,0.1-4.7
		c1.1-0.6,0.5-1.1,0-1.7c-0.2-1.8-0.1-3.6,0.3-5.4c0.5,2.5,2,3,4.4,2.7c2.2-0.3,4.3-0.5,5.8-2.3C79.7,79,80.1,78.9,80.5,79.2z"/>
	<path class="st26" d="M216.2,63.5c1.2,0.1,2.2,3,3.7,0.3l1.3,1.4c0.7-0.1,1.4-0.4,1.9-0.8l0.3-0.1l2,0.4c-1.6,3.7-3.9,7-6.2,11.2
		l-1.2-5.1c0.3-0.6,0.9-1.1,0.9-1.9c-0.2-0.3-0.5-0.2-0.8-0.1c-0.2,0-0.4,0-0.6-0.1C216.8,67,216.4,65.3,216.2,63.5z"/>
	<path class="st2" d="M133.6,58.4l-2.3,0.3c-1.2-0.2-2.4-0.1-3.4,0.4l-1,0.7c-0.8-2-0.2-3,2.1-3.2c6.1-0.5,12.2-1.2,18.2-1.8
		c1.2-0.1,2.2-0.1,2.1,1.5l-1,0.2c-1.1,0.5-2.3,0.7-3.5,0.5l-2.3,0.2c-1.1-0.2-2.2-0.1-3.2,0.4l-2.2,0.3
		C135.9,57.7,134.7,57.9,133.6,58.4z"/>
	<path class="st27" d="M128.2,71.1l22.2-3l0.3,2.8c-6.4,0.9-12.9,1.7-19.3,2.6c-1.1,0.1-2.3,0.8-3.2-0.5l0.2-0.7
		c3.9-1.1,8-1.3,12.1-1.8c0.7,1.3-0.5,1.1-1.1,1.2c-2.9,0.4-5.8,0.8-8.8,1.2c6-0.8,12-1.7,17.6-2.3c0.8-0.2,0.2-0.7,0.4-0.4
		c0.1,0.1,0,0.2-0.2,0.2c-1.8,0.4-3.6,0.7-5.5,0.8c-0.6,0.1-1.2,0.1-1.3-0.7c1.8-0.8,3.8-0.6,5.3-0.9c-5.9,0.6-12.2,2-18.7,2.2V71.1
		z"/>
	<path class="st28" d="M21.8,75.3c3.6,0.3,7-0.8,10.5-1c-0.1,1.9,0,3.8-0.9,5.6c-2.2-0.1-4.5,0.7-6.7-0.3
		C23.5,78.3,22.5,76.9,21.8,75.3z"/>
	<path class="st29" d="M139.2,78c0,0.1,0,0.2-0.1,0.3c-0.3,0.9-1.1,1-1.9,1c-2.1,0.1-4.2,0.3-6.3,0.8c-1,0.3-1.9,0-2.1-1.3
		c-0.2-1.1,0.2-1.6,1.3-1.8c6.4-0.8,12.8-1.7,19.2-2.6c1-0.1,1.5,0.2,1.6,1.2c0,0.4-0.1,0.7-0.3,1c-3.4,1.2-6.8,1.9-10.3,1l0,0
		c-0.3-0.4,0-0.6,0.2-0.8C140,77,139.5,77.4,139.2,78z"/>
	<path class="st2" d="M129.3,79.3l9.9-1c-0.3,1.8-1.6,2.7-2.9,3.6c-2.2,1.4-4.5,2.2-7.1,0.9l-0.4-3.4C128.8,79.1,129,79,129.3,79.3z
		"/>
	<path class="st2" d="M151.4,76.4l0.4,3.4c-2.2,1.7-5.1,2.1-7.7,1l-3-2.6c3.2-1.2,6.7-0.7,9.9-1.9l0,0
		C151.1,76.1,151.2,76.1,151.4,76.4z"/>
	<path class="st30" d="M296.9,19l1.8,13.9c-2-4.2-3.7-8.5-5.2-12.9l0.2-0.4C294.7,19,295.6,18.1,296.9,19z"/>
	<path class="st31" d="M8.9,76.4c0.5,1.4,1.6,0.8,2.5,0.7c1.9-0.2,3.9-0.4,5.8-0.6c-2,2.2-4.4,3.9-7.2,5c-0.8-0.2-1.4,0.8-2.2,0.4
		L8.9,76.4z"/>
	<path class="st32" d="M315,35.5c1.1-0.3,1.3-1,1.1-2c-0.9-6.7-1.8-13.4-2.8-20c0-0.3-0.4-0.6-0.6-0.9c-0.3-1.4-2.7,0.5-2.5-1.6
		c1.2-0.3,2.3-2.4,3.8-0.4c0.1,5.7,1.3,11.2,1.9,16.8c0.3,3,0.7,6,1.1,9C316.3,36.4,315.5,36.1,315,35.5z"/>
	<path class="st33" d="M301.9,40.7c0.5-2.8-0.4-5.4-0.7-8.1c-0.7-5.7-1.5-11.4-2.3-17l0.1-0.1c1.1,0.3,2.3-0.2,3.5,0.2l0.2,1.3
		c-2.4,0.1-2.8,1.4-2.5,3.6c1,6.4,1.8,12.8,2.6,19.2c0.1,1,0.5,2.1,0.1,3.2L301.9,40.7z"/>
	<path class="st34" d="M24.8,79.6c1.6-0.3,3.2-0.5,4.8-0.8c1-0.2,1.7,0,1.9,1.1L31,82.2c-1.1,1.4-2.5,1.5-4,0.7L24.8,79.6z"/>
	<path class="st35" d="M69.5,68.1c0,2.4,1.1,3.1,3.5,2.7c5.7-1,11.4-1.7,17.1-2.3c1.4-0.2,1.1-1.5,1.8-2c0.3,1,0.2,2.1-0.1,3.2
		c-0.9-1-2-0.5-3-0.3c-6.5,0.8-12.9,1.7-19.4,2.6C69.1,70.6,69.2,69.3,69.5,68.1z"/>
	<path class="st36" d="M151.4,76.4c-0.2,0-0.3,0-0.5,0c-0.1-1.4-0.9-1.7-2.2-1.5c-5.9,0.8-11.8,1.6-17.6,2.4c-1.3,0.2-2,0.6-1.7,2
		c-0.2,0.1-0.3,0.1-0.5,0.2l-0.3-2.4l22.5-3L151.4,76.4z"/>
	<path class="st37" d="M140.6,70.6l-12.3,1.6v-0.6l20.8-2.8l0.1,0.6l-7.4,1c-0.2,0.4-0.7,0.5-1.1,0.3
		C140.7,70.7,140.6,70.7,140.6,70.6z"/>
	<path class="st38" d="M27,82.9l4-0.7c-0.2,1.5,0.3,3.8-1.3,4.1C28.3,86.5,27.6,84.3,27,82.9z"/>
	<path class="st39" d="M20.4,51.7c-1,1-2.3,0.6-3.4,1c-0.7,0.7-1.6,0.5-2.4,0.4l-1.2-0.5c0-1.4,0.5-2.2,2.2-1.8S18.8,51.4,20.4,51.7
		z"/>
	<path class="st40" d="M323.3,39.2l-0.8-7.2c1.5,2.5,2.3,5.2,3.5,8C325,40.1,324.1,39.8,323.3,39.2z"/>
	<path class="st41" d="M233.4,41l-1.3-0.4c-0.5-0.6-1.5-0.1-1.9-0.9c-0.8-0.8-1.7-0.3-2.6-0.3l2.2-0.8
		C232.2,37.6,233.6,38.2,233.4,41z"/>
	<path class="st36" d="M150.9,76.4c-3.1,1.4-6.6,1-9.9,1.9l-0.6-0.5L150.9,76.4z"/>
	<path class="st42" d="M302.4,15.6c-1.2,0.5-2.4,1.6-3.5-0.2c1-0.7,2.1-1.2,3.3-1.4L302.4,15.6z"/>
	<path class="st16" d="M304.6,13.7l-0.1-0.5l3.3-1.3C307.9,14.7,306.5,14.6,304.6,13.7z"/>
	<path class="st43" d="M296.6,16.5l0.2,1.2c-0.9,1-1.7,2.6-3.3,0.7c0-0.3,0.1-0.6,0.3-0.8C294.7,17,295.6,16.6,296.6,16.5z"/>
	<path class="st44" d="M182.4,51.5c-1.4,0.8-2.3,1.2-3.6,0.6C179.8,51,180.7,50.9,182.4,51.5z"/>
	<path class="st45" d="M91.6,77.7c-0.7,0.1-1.7,0.4-1.6-0.8s1-0.8,1.7-0.7C91.7,76.7,91.6,77.2,91.6,77.7z"/>
	<path class="st46" d="M68.9,84.4c0.8,0,1.7,0.2,1.5,1.3c-0.2,0.8-0.8,1.1-1.5,0.4V84.4z"/>
	<path class="st36" d="M139.2,78c-0.4-2.8,1.9-0.6,2.7-1.3l-1.6,1.2L139.2,78z"/>
	<path class="st47" d="M209.8,45.6c-0.9,0.5-1.6,1.3-2.8,0.7C207.7,45.5,208.8,45.2,209.8,45.6z"/>
	<path class="st48" d="M234.8,39.5c0.9-1.4,1.8-1.2,2.8-1.4C237.1,39.5,236.1,39.3,234.8,39.5z"/>
	<path class="st49" d="M262.2,30.9c0.5-0.9,1.6-1.4,2.6-1.1C264.3,30.9,263.5,31,262.2,30.9z"/>
	<path class="st50" d="M154.3,56.2l-3.7,0.5C151.8,55.5,152.6,55.5,154.3,56.2z"/>
	<path class="st51" d="M93.6,60.4c1.3-1,2.2-0.6,3.3-0.2C95.9,60.8,94.7,60.9,93.6,60.4z"/>
	<path class="st52" d="M7.9,81.8c0.7-0.4,1.3-1.2,2.2-0.4C9.4,81.7,9,84.1,7.9,81.8z"/>
	<path class="st53" d="M67.8,59.6c-0.7,0.7-1.8,0.7-2.4,0.1l-0.1-0.1C66,58.9,67.1,59,67.8,59.6z"/>
	<path class="st54" d="M122.5,59c0.9-0.6,2-0.6,2.9,0C124.6,59.6,123.4,59.6,122.5,59z"/>
	<path class="st55" d="M74.3,85.5c-0.2-1.2,0.2-1.9,1.5-1.4C75.6,84.7,75,85.3,74.3,85.5z"/>
	<path class="st56" d="M9.3,51.8c1-0.8,1.5,0,2.5,0C10.6,53,10.1,52.2,9.3,51.8z"/>
	<path class="st57" d="M318.3,9.7c-0.6,0.8-1.1,1.2-1.9,0.9C316.6,9.6,317.2,9.5,318.3,9.7z"/>
	<path class="st58" d="M290.5,21.2c-0.3,0.1-0.6,0.2-0.9,0.3c-0.2,0-0.3-0.1-0.4-0.2c0-0.1,0-0.2,0.1-0.3c0.2-0.2,0.4-0.3,0.7-0.4
		C290.4,20.5,290.6,20.7,290.5,21.2z"/>
	<path class="st59" d="M293.8,17.5v0.6c-0.4,0.5,0.2,1.1-0.2,1.7l-0.1,0.2C293,19.1,291.9,18.1,293.8,17.5z"/>
	<path class="st60" d="M38.5,57c-0.4,0.2-0.6,0.5-0.8,0.4S37.3,57.1,37,57c0.2-0.1,0.4-0.4,0.6-0.4S38.1,56.8,38.5,57z"/>
	<path class="st61" d="M245.5,36.1c0.8-1,1.5-1.3,2.3-0.4C247.2,36.4,246.5,36.4,245.5,36.1z"/>
	<path class="st62" d="M251.2,34.3c0.7-0.7,1.7-0.9,2.6-0.6C253.1,34.3,252.2,34.5,251.2,34.3z"/>
	<path class="st63" d="M258.8,32.3c-0.9,0.4-1.2,0.6-1.4,0.6s-0.4-0.3-0.5-0.5c0.2-0.1,0.4-0.4,0.6-0.4
		C257.9,32.1,258.3,32.2,258.8,32.3z"/>
	<path class="st64" d="M286.4,22.3c-0.5,1.3-1.5,1.2-2.8,1.1C284.2,22.4,285.4,22,286.4,22.3z"/>
	<path class="st65" d="M270.6,28c-0.7,1.3-1.6,1-2.5,1C268.6,28.1,269.6,27.7,270.6,28z"/>
	<path class="st66" d="M280.8,24.7c-0.1,0.1-0.3,0.4-0.5,0.4c-0.4,0.1-0.8-0.1-0.7-0.6c0-0.2,0.4-0.3,0.6-0.4S280.8,24.2,280.8,24.7
		z"/>
	<path class="st67" d="M167.9,54.1c0.7-1.1,1.7-1.1,2.9-0.8C170,54.6,168.9,54.2,167.9,54.1z"/>
	<path class="st68" d="M162.5,54.4l2.3-0.3C164.2,55.1,163.4,55.2,162.5,54.4z"/>
	<path class="st69" d="M159.9,55.2c-1,0.6-2.1,0.8-3.2,0.5C157.4,54.4,158.3,54.8,159.9,55.2z"/>
	<path class="st70" d="M173.7,52.9c0.7-0.6,1.6-0.8,2.5-0.5C175.5,53.3,174.6,53.1,173.7,52.9z"/>
	<path class="st71" d="M119.4,59.2c-0.7,0.8-1.9,1.1-2.8,0.5C117.2,58.8,118.4,58.5,119.4,59.2C119.4,59.1,119.4,59.1,119.4,59.2z"
		/>
	<path class="st72" d="M113.6,59.9l-2.3,0.3c-0.1-0.2-0.2-0.5-0.2-0.5C111.9,58.7,112.8,59.5,113.6,59.9z"/>
	<path class="st73" d="M102.3,60.2l-2.7,0.4C100.3,59.8,101.4,59.7,102.3,60.2z"/>
	<path class="st74" d="M105.7,60.1c0.6-0.5,1.5-0.6,2.2-0.3C107.3,60.4,106.4,60.5,105.7,60.1z"/>
	<path class="st75" d="M189.8,50c0.9-1,2.3-1.4,3.6-0.9C192.6,50.5,191.5,50.2,189.8,50z"/>
	<path class="st76" d="M199.6,48.4l-4,0.7C197.1,48.1,197.7,47.4,199.6,48.4z"/>
	<path class="st77" d="M184.8,51.1c0.9-1.1,1.7-0.8,2.8-1.1C186.9,50.8,185.9,51.2,184.8,51.1z"/>
	<path class="st78" d="M202.2,47.4c0.4-0.6,1.1-0.8,1.8-0.5C203.6,47.9,202.8,47.3,202.2,47.4z"/>
	<path class="st79" d="M56.8,59c-1.1,0.5-2,0.7-3-0.2C54.9,58.1,55.8,58,56.8,59z"/>
	<path class="st80" d="M60.4,58.8c0.5,0.1,1.1-0.1,1.2,0.5c0,0.2-0.3,0.5-0.5,0.5c-0.5,0.1-1,0-1.1-0.6
		C59.9,59.1,60.3,58.9,60.4,58.8z"/>
	<path class="st81" d="M44.7,58.5c-0.2-0.2-0.5-0.4-0.5-0.6c0-0.5,0.4-0.6,0.8-0.5c0.2,0.1,0.3,0.4,0.5,0.6L44.7,58.5z"/>
	<path class="st82" d="M48.5,58.3c0.5-0.5,1.3-0.6,1.5-0.2c0.5,0.9-0.4,0.7-0.8,0.6C48.9,58.6,48.7,58.4,48.5,58.3z"/>
	<path class="st83" d="M74.3,78.4c0.4,0,0.7,0.4,0.7,0.8s-0.4,0.7-0.8,0.7l0,0c-0.4,0-0.7-0.4-0.6-0.8c0,0,0,0,0-0.1
		C73.6,78.6,73.9,78.5,74.3,78.4z"/>
	<path class="st84" d="M85.5,72.3c0,0.6-0.3,0.9-0.9,0.9c-0.4,0-0.7-0.3-0.8-0.7l0,0c-0.1-0.4,0.2-0.8,0.6-0.9c0.1,0,0.1,0,0.2,0
		C85.2,71.6,85.4,71.9,85.5,72.3z"/>
	<path class="st85" d="M90.7,71.5c0,0.4,0.1,0.9-0.5,0.8c-0.4,0-0.7-0.2-0.9-0.5c-0.2-0.4,0-0.7,0.5-0.8
		C90.2,70.9,90.6,71.1,90.7,71.5L90.7,71.5z"/>
	<path class="st86" d="M85.3,76.9c0.4,0,0.8,0.1,0.9,0.5s0,0.8-0.5,0.8c-0.4,0-0.7-0.2-0.9-0.5S84.8,77,85.3,76.9z"/>
	<path class="st87" d="M73.7,74.6c-0.2-0.2-0.6-0.4-0.6-0.7c0.1-0.4,0.3-0.7,0.6-0.8c0.4-0.1,0.7,0.2,0.8,0.6S74.3,74.5,73.7,74.6z"
		/>
	<path class="st88" d="M79.7,73c0,0.4-0.1,0.8-0.5,0.8c-0.4,0.1-0.7-0.2-0.8-0.6v-0.1c0-0.3,0.2-0.5,0.5-0.6
		C79.3,72.4,79.6,72.6,79.7,73z"/>
	<path class="st89" d="M86.1,82.6c0.4,0,0.8,0.2,0.8,0.6s-0.4,0.6-0.6,0.8c-0.3-0.2-0.7-0.4-0.8-0.7S85.7,82.8,86.1,82.6z"/>
	<path class="st90" d="M80.5,79.2l-1.1,0.2c-0.4-0.6-0.8-1.3,0.2-1.6S80.4,78.6,80.5,79.2z"/>
	<path class="st91" d="M88.3,65.2c0.6-0.1,1.5-0.4,1.6,0.6c0.2,1.2-0.8,1-1.5,1.1C87.9,66.4,87.7,65.8,88.3,65.2z"/>
	<path class="st92" d="M84,61.6c-0.1,0.4-0.5,0.6-0.9,0.6s-0.7-0.4-0.7-0.7c0-0.1,0-0.2,0.1-0.3c0.1-0.4,0.6-0.6,0.9-0.4l0,0
		C83.9,60.8,84.1,61.2,84,61.6z"/>
	<path class="st93" d="M78.4,68.2c-0.4,0-0.8,0-0.9-0.5c-0.1-0.4,0.1-0.8,0.5-1c0.1,0,0.1,0,0.2,0c0.4-0.1,0.7,0.3,0.7,0.6
		C79,67.7,78.8,68.1,78.4,68.2L78.4,68.2z"/>
	<path class="st94" d="M88.6,60c0.2,0.2,0.5,0.4,0.6,0.7c0.1,0.5-0.3,0.6-0.7,0.7s-0.7-0.3-0.7-0.7S87.9,60.1,88.6,60z"/>
	<path class="st95" d="M73,62.8c0,0.4-0.3,0.7-0.6,0.8h-0.1c-0.3,0.1-0.7-0.2-0.7-0.5c0-0.1,0-0.1,0-0.2c0-0.4,0.3-0.7,0.8-0.8
		C72.8,62.1,72.9,62.5,73,62.8z"/>
	<path class="st96" d="M83.3,66.8c0.1-0.4,0.3-0.7,0.7-0.7c0.3,0,0.6,0.2,0.6,0.6c0,0.1,0,0.1,0,0.2c-0.1,0.2-0.3,0.4-0.6,0.5
		c-0.3,0.1-0.6-0.1-0.7-0.4C83.3,66.9,83.3,66.9,83.3,66.8z"/>
	<path class="st97" d="M77.4,61.5c0.3-0.1,0.7,0.1,0.8,0.4c0,0.1,0,0.1,0,0.2c0,0.3-0.1,0.5-0.3,0.7c-0.3,0.2-0.7,0.1-0.8-0.2
		c0-0.1-0.1-0.1-0.1-0.2C76.8,61.9,77,61.6,77.4,61.5z"/>
	<path class="st98" d="M73,67.6c0.2,0.2,0.4,0.3,0.5,0.6c0.1,0.4-0.2,0.7-0.6,0.8s-0.6-0.1-0.6-0.4S72.5,67.7,73,67.6z"/>
	<path class="st99" d="M88.3,65.2l0.1,1.7c-0.5-0.2-1.1-0.3-1.1-1S87.9,65.3,88.3,65.2z"/>
	<path class="st100" d="M232.6,64.2c1.8-1.6,3.3-3.4,4.4-5.5c0.2,2.6,1.2,4.9,0.6,7.7C237.4,62.7,235,64.1,232.6,64.2z"/>
	<path class="st101" d="M234.1,59.6c0,0.8-0.3,1.4-1.1,1.5c-0.7,0.1-1.4-0.4-1.5-1.1c-0.1-0.7,0.4-1.4,1.1-1.5c0,0,0,0,0.1,0
		C233.3,58.4,233.9,58.9,234.1,59.6z"/>
	<path class="st102" d="M224.7,54.7c-0.8,0.1-1.3-0.2-1.4-1c-0.1-0.6,0.3-1.2,0.9-1.4c0.1,0,0.1,0,0.2,0c0.6-0.1,1.1,0.3,1.2,0.9
		C225.9,54,225.5,54.5,224.7,54.7z"/>
	<path class="st103" d="M226.5,60.6c0.1,0.6-0.3,1.2-0.8,1.3c-0.8,0.2-1.3-0.3-1.4-1.1s0.4-1,1-1.2C226.1,59.5,226.4,60,226.5,60.6z
		"/>
	<path class="st104" d="M232,53.5c-0.4,0.1-0.9-0.1-1-0.6c0-0.1,0-0.1,0-0.2c-0.1-0.5,0.2-1,0.6-1.2c0.6-0.2,0.9,0.2,1,0.7
		C232.8,52.9,232.5,53.4,232,53.5L232,53.5z"/>
	<path class="st26" d="M221.6,63.9l0.9-2.5c0,1,0.4,2,1,2.8l0,0c-0.4,0.5-1.2,0.7-1.7,0.2l0,0L221.6,63.9z"/>
	<path class="st105" d="M232,44.7c0.1,0.7-0.3,1.3-1,1.4l0,0c-0.6,0.2-1.3-0.1-1.5-0.8c0-0.1,0-0.1,0-0.2c-0.2-0.6,0.2-1.3,0.8-1.4
		c0.1,0,0.2,0,0.2,0C231.2,43.6,231.8,44,232,44.7L232,44.7z"/>
	<path class="st106" d="M217.1,46.9c0.1,0.6-0.3,1.2-0.9,1.3c-0.1,0-0.2,0-0.3,0c-0.6,0.1-1.1-0.4-1.2-1l0,0
		c-0.2-0.6,0.2-1.2,0.8-1.4c0.1,0,0.1,0,0.2,0C216.6,45.7,217,46.1,217.1,46.9z"/>
	<path class="st107" d="M223.2,44.9c0.6-0.1,1.1,0.2,1.2,0.8s-0.2,1.1-0.8,1.2l0,0c-0.5,0.1-1-0.1-1.1-0.6l0,0
		C222.2,45.6,222.6,45.2,223.2,44.9z"/>
	<path class="st108" d="M223.2,42l3.2-0.9C225.8,42,225.2,42.9,223.2,42z"/>
	<path class="st109" d="M230.3,39.6c0.5,0.5,1.8-0.4,1.9,0.9l-2.9,0.4C229.2,40.1,230.2,40.2,230.3,39.6z"/>
	<path class="st110" d="M220.1,43.5l-1.2,0.2l-0.6-0.4c0.7-0.4,1.6-0.5,2.3-0.3L220.1,43.5z"/>
	<path class="st111" d="M215.3,44.3c-1,0.5-1.5,1.1-2.4,0.5C213.4,44,214.1,44.1,215.3,44.3z"/>
	<path class="st112" d="M34,56.5c-0.9,0.6-1.6,0.1-2.4-0.2c0.1-0.9,0.7-0.9,1.3-0.7C33.3,55.8,33.8,55.9,34,56.5z"/>
	<path class="st113" d="M25.6,55.6c0.9-1.2,2-0.5,3.1-0.3C27.8,56.6,26.6,55.4,25.6,55.6z"/>
	<path class="st114" d="M219.1,61.8c-0.1,0.7-0.4,1.3-1.3,1.2c-0.7,0-1.2-0.5-1.2-1.2c0-0.1,0-0.1,0-0.2c0-0.6,0.5-1.1,1.1-1.1
		C218.6,60.5,219,61,219.1,61.8z"/>
	<path class="st115" d="M217.9,54.2c0.2,0.8,0,1.2-0.6,1.3c-0.6,0.2-1.2-0.1-1.4-0.7l0,0c-0.2-0.5,0-1,0.5-1.2
		c0.1,0,0.2-0.1,0.3-0.1C217.2,53.5,217.7,53.7,217.9,54.2z"/>
	<path class="st24" d="M221.7,64.5l1.8-0.2c-0.2,1.7-1.1,1.6-2.3,0.9L221.7,64.5z"/>
	<path class="st116" d="M128.8,67.6c-0.2-0.4-0.1-0.8,0.4-0.8c6.1-0.8,12.1-1.6,18.3-2.2c-5.9,1.5-11.9,1.5-17.8,3H128.8z"/>
	<path class="st117" d="M127.9,59.2c1-1.6,2.2-0.9,3.5-0.4L127.9,59.2z"/>
	<path class="st118" d="M144.8,57.1l3.5-0.5C147.4,57.5,145.9,57.7,144.8,57.1z"/>
	<path class="st119" d="M133.6,58.4c0.9-1,2.4-1.1,3.5-0.5L133.6,58.4z"/>
	<path class="st120" d="M139.3,57.6c0.8-0.9,2.2-1,3.2-0.4L139.3,57.6z"/>
	<path class="st121" d="M20.1,54.3c1-0.7,1.9-0.4,3.1,0.3C21.8,55.2,21,54.5,20.1,54.3z"/>
	<path class="st122" d="M14.5,53.1l2.4-0.4c0.1,0.3,0.2,0.7,0.3,1C16.2,54.1,15.4,53.5,14.5,53.1z"/>
	<path class="st123" d="M293.7,19.8c-0.1-0.6-0.4-1.2,0.2-1.7c1.2,1.3,2,0,3-0.5L297,19L293.7,19.8z"/>
	<path class="st124" d="M219.9,68.4l-1.8,0.2C218.5,66.7,219.2,67.5,219.9,68.4z"/>
	<path class="st125" d="M140.6,70.6l1.2-0.2c2.6,1,5.1-0.6,7.6,0L129.8,73C133.2,71.6,137.2,72.5,140.6,70.6z"/>
</g>
<g class="st126">
	<path class="st127" d="M137.8,71.6c-1.1,0.6-2.1,1.2-3.3,1.6l-0.4-0.9c0.5-0.2,0.9-0.4,1.3-0.6l0-2.7l-1.1,0l0-0.9l1.1,0l0-2.1
		l-1.2,0l0-0.9l3.3,0l0,0.9l-1.1,0l0,2.1l0.9,0l0,0.9l-0.9,0l0,2.2c0.5-0.3,0.9-0.5,1.2-0.6L137.8,71.6z M143.8,71.6
		c0,0.6,0,1.1-0.1,1.4c-0.1,0.3-0.2,0.6-0.4,0.7c-0.2,0.1-0.5,0.2-1,0.2c-0.4,0-0.7,0-0.8-0.1c-0.1,0-0.2-0.1-0.3-0.3
		c-0.1-0.1-0.1-0.3-0.1-0.6l0-4.3l-0.9,0c0,1.2-0.1,2.2-0.4,3.1c-0.3,0.9-1,1.7-2,2.3l-0.8-0.7c0.8-0.4,1.3-0.9,1.7-1.6
		c0.4-0.7,0.5-1.7,0.5-3.1l-1.4,0l0-0.9l5.9-0.1l0,0.9l-1.7,0l0,4.1c0,0.1,0.1,0.2,0.3,0.2c0.2,0,0.4-0.1,0.4-0.2
		c0-0.1,0.1-0.3,0.1-0.7c0-0.4,0-0.7,0-0.9L143.8,71.6z M143.1,65.8l-5.1,0.1l0-0.9l5.1-0.1L143.1,65.8z"/>
</g>
<g class="st126">
	<path class="st127" d="M166.3,67.7c-1.1,0.6-2.1,1.2-3.2,1.7l-0.4-0.9c0.5-0.2,0.9-0.4,1.3-0.6l-0.1-2.7l-1.1,0l0-0.9l1.1,0
		l-0.1-2.1l-1.2,0l0-0.9l3.3-0.1l0,0.9l-1.1,0l0.1,2.1l0.9,0l0,0.9l-0.9,0l0.1,2.2c0.5-0.3,0.9-0.5,1.2-0.7L166.3,67.7z M172.3,67.6
		c0,0.6,0,1.1-0.1,1.4c-0.1,0.3-0.2,0.6-0.4,0.7c-0.2,0.1-0.5,0.2-1,0.2c-0.4,0-0.7,0-0.8,0c-0.1,0-0.2-0.1-0.3-0.3
		c-0.1-0.1-0.1-0.3-0.2-0.6l-0.1-4.3l-0.9,0c0.1,1.2,0,2.2-0.3,3.1c-0.3,0.9-0.9,1.7-1.9,2.3l-0.8-0.7c0.7-0.4,1.3-0.9,1.7-1.6
		s0.5-1.7,0.4-3.1l-1.4,0l0-0.9l5.9-0.2l0,0.9l-1.7,0.1l0.1,4.1c0,0.1,0.1,0.2,0.3,0.2c0.2,0,0.4-0.1,0.4-0.2c0-0.1,0-0.3,0.1-0.7
		c0-0.4,0-0.7,0-0.9L172.3,67.6z M171.6,61.7l-5.1,0.2l0-0.9l5.1-0.2L171.6,61.7z"/>
</g>
<g class="st126">
	<path class="st127" d="M196.9,62.2l-2,0c0,0.2-0.1,0.3-0.1,0.4c0.9,0.9,1.5,1.8,1.9,2.5l-0.7,0.6c-0.5-0.9-1-1.6-1.5-2.2
		c-0.6,1.3-1.3,2.2-2.1,3l-0.6-0.7c1.2-1.2,2-2.4,2.2-3.6l-2.1,0l0-0.9l2.3,0c0.1-0.6,0.1-1.3,0.1-2.1l-0.7,0c-0.3,0.6-0.7,1-1,1.4
		l-0.7-0.7c0.8-1,1.4-2,1.8-3.1l0.9,0.2c-0.1,0.4-0.3,0.8-0.5,1.3l2.7,0l0,0.9l-1.5,0c0,0.5,0,1.2-0.1,2.1l1.9,0L196.9,62.2z
		 M200.8,66.2l-1,0l0-0.8l-1.8,0l0,0.8l-0.9,0l0.1-8.4l3.7,0L200.8,66.2z M199.9,64.5l0.1-5.8l-1.8,0l-0.1,5.8L199.9,64.5z"/>
</g>
<g class="st126">
	<path class="st127" d="M230,53.2l-9.4-0.1l0-0.9l2.6,0c-0.2-0.4-0.4-0.8-0.7-1.3l-1.5,0l0-0.9l3.8,0c-0.1-0.2-0.3-0.5-0.5-0.8
		l1-0.2c0.2,0.3,0.4,0.7,0.6,1l3.8,0l0,0.9l-1.7,0c-0.2,0.4-0.4,0.8-0.6,1.2l2.6,0L230,53.2z M228.6,58.7l-1,0l0-0.5l-4.7-0.1l0,0.5
		l-1,0l0.1-4.8l6.7,0.1L228.6,58.7z M227.6,57.4l0-0.9l-4.7-0.1l0,0.9L227.6,57.4z M227.6,55.6l0-0.9l-4.7-0.1l0,0.9L227.6,55.6z
		 M226.9,51l-3.3,0c0.3,0.4,0.5,0.9,0.6,1.3l2.1,0C226.6,51.7,226.8,51.3,226.9,51z"/>
</g>
</svg>
