<svg id="圖層_1" data-name="圖層 1" xmlns="http://www.w3.org/2000/svg" xmlns:xlink="http://www.w3.org/1999/xlink" viewBox="0 0 131 130"><defs><style>.cls-1{fill:#eee;}.cls-2{fill:url(#radial-gradient);}.cls-3{fill:#fff;}</style><radialGradient id="radial-gradient" cx="30" cy="128.55" r="114.66" gradientUnits="userSpaceOnUse"><stop offset="0" stop-color="#ff8100"/><stop offset="0.19" stop-color="#ff7209"/><stop offset="0.32" stop-color="#f55e16"/><stop offset="0.48" stop-color="#d92938"/><stop offset="1" stop-color="#9100ff"/></radialGradient></defs><title>IG_color</title><circle class="cls-1" cx="66.33" cy="65.35" r="65.02"/><circle class="cls-2" cx="66.33" cy="65.35" r="34.92"/><path class="cls-3" d="M74.78,44.51q-8.45,0-16.92,0A12.71,12.71,0,0,0,45.49,56.89q0,8.45,0,16.92A12.72,12.72,0,0,0,57.87,86.19H74.79A12.72,12.72,0,0,0,87.16,73.8q0-8.45,0-16.91A12.72,12.72,0,0,0,74.78,44.51ZM57.9,81.79a8.23,8.23,0,0,1-8-8q0-8.43,0-16.86a8.33,8.33,0,0,1,8.06-8h16.8a8.33,8.33,0,0,1,8,8q0,8.43,0,16.86a8.23,8.23,0,0,1-8,8Q66.33,81.81,57.9,81.79Z"/><path class="cls-3" d="M66.32,54.5A10.86,10.86,0,0,0,62.6,75.56a10.59,10.59,0,0,0,3.65.64A10.83,10.83,0,0,0,77,63.37,11.19,11.19,0,0,0,66.32,54.5Zm0,3.56v.85a6.57,6.57,0,0,1,2.75.6,6.71,6.71,0,0,1,3.08,8.69,6.72,6.72,0,0,1-6,3.57,6,6,0,0,1-2.33-.46,6.45,6.45,0,0,1,2.47-12.4l0-.85Z"/></svg>