<?xml version="1.0" encoding="utf-8"?>
<!-- Generator: Adobe Illustrator 22.0.0, SVG Export Plug-In . SVG Version: 6.00 Build 0)  -->
<svg version="1.1" id="圖層_1" xmlns="http://www.w3.org/2000/svg" xmlns:xlink="http://www.w3.org/1999/xlink" x="0px" y="0px"
	 viewBox="0 0 39.5 40.8" style="enable-background:new 0 0 39.5 40.8;" xml:space="preserve">
<style type="text/css">
	.st0{fill-rule:evenodd;clip-rule:evenodd;fill:#606060;}
</style>
<g>
	<path class="st0" d="M2.7,12"/>
	<path class="st0" d="M18,30.6c0,1.2-0.9,2.2-1.9,2.2l0,0c-1.1,0-1.9-1-1.9-2.2v-11c0-1.2,0.9-2.2,1.9-2.2l0,0c1.1,0,1.9,1,1.9,2.2
		V30.6z"/>
	<path class="st0" d="M25.6,30.6c0,1.2-0.9,2.2-1.9,2.2l0,0c-1.1,0-1.9-1-1.9-2.2v-11c0-1.2,0.9-2.2,1.9-2.2l0,0
		c1.1,0,1.9,1,1.9,2.2V30.6z"/>
	<path class="st0" d="M36.6,12c0-1.3-1-2.4-2.3-2.4h-6.6c-0.2-4.2-3.5-7.6-7.4-7.6s-7,3.4-7.4,7.6H5.2C4,9.6,3,10.6,3,12
		c0,1.3,1,2.4,2.3,2.4h2v21.8c0,1.3,1,2.4,2.3,2.4h21.5c1.2,0,2.3-1.1,2.3-2.4V14.4h1.1C35.7,14.4,36.8,13.3,36.6,12z M20.5,5.1
		c2.2,0,3.9,1.8,4.2,3.9h-8.4C16.6,6.7,18.3,5.1,20.5,5.1z M29.9,33.7c0,1.1-0.8,1.9-1.8,1.9H12.5c-1,0-1.8-0.8-1.8-1.9V15.9
		c0-0.6,0.2-1.1,0.6-1.3h18.1c0.3,0.2,0.6,0.7,0.6,1.3V33.7z"/>
</g>
</svg>
