<svg id="圖層_1" data-name="圖層 1" xmlns="http://www.w3.org/2000/svg" viewBox="0 0 27.35 26.87"><defs><style>.cls-1{fill:#e8aa67;}</style></defs><title>members</title><g id="會員"><path class="cls-1" d="M13.73,17.45A8.4,8.4,0,1,1,22.16,9.1,8.4,8.4,0,0,1,13.73,17.45Z"/><path class="cls-1" d="M13.76,27.05H1c-.2,0-.44.08-.41-.29a14,14,0,0,1,3-8.15A9.84,9.84,0,0,1,5.6,16.77a.43.43,0,0,1,.65.05,10.74,10.74,0,0,0,5.86,2.95,10.54,10.54,0,0,0,9.21-2.91c.26-.25.42-.26.69-.05a12.82,12.82,0,0,1,4.62,7.66,17.36,17.36,0,0,1,.31,2.28c0,.3-.05.38-.36.38-3.72,0-7.44,0-11.16,0H13.76Z"/></g></svg>