<svg id="圖層_1" data-name="圖層 1" xmlns="http://www.w3.org/2000/svg" viewBox="0 0 54 42"><defs><style>.cls-1{fill:#e8aa67;}</style></defs><title>muise_box</title><path class="cls-1" d="M54,31.22a5,5,0,0,0-2.62-2.38c-.67-.22-.48-.73-.48-1.17q0-7.64,0-15.28c0-.47,0-.95,0-1.58l-7,2.11c-6.47,2-12.93,4-19.41,5.93-1,.3-1.42.7-1.41,1.84.07,5.48,0,11,0,16.45,0,.38,0,.76,0,1.27l11.66-3.59c1.33-.41,2.76-1.26,4-1s2.16,1.47,3.54,1.94c-2.18.69-4.37,1.38-6.56,2.06-4.27,1.32-8.54,2.61-12.8,3.94a3.5,3.5,0,0,1-2.51-.1Q11.08,37.9,1.67,34.27A2.34,2.34,0,0,1,0,31.73Q0,21.42,0,11.1A2.18,2.18,0,0,1,1.73,8.64q13.55-4,27.07-8a4.8,4.8,0,0,1,3,0C38.55,2.84,45.3,5,52,7.1c1.78.57,1.93.79,1.94,2.7C54,16.8,54,23.81,54,31.22ZM3.23,12.51c-.08.18-.14.25-.14.33,0,6,0,11.92,0,17.88,0,.68.34.89.86,1.09,5.17,2,10.34,4,15.49,6.1.81.32.93.12.92-.65q0-8.55,0-17.1a1.19,1.19,0,0,0-.92-1.3c-3.84-1.48-7.67-3-11.5-4.5Zm3.11-2c2.34.67,4.25,3,7,1.79.4-.17.76.14,1.11.28,2.67,1,5.37,2,8,3.17,1.25.56,2.22.24,3.52-.3L16.2,11.59c2-1,3.75-1.25,5.7-.25s4,1.57,6,2.47a3.75,3.75,0,0,0,3.83-.19L22.12,9.8c1.95-.9,3.69-1.29,5.67-.25s4.14,1.56,6.14,2.49a3.78,3.78,0,0,0,3.72-.21L28.06,8a5.81,5.81,0,0,1,4.85-.3c2.62,1,5.36,1.74,8,2.59a2.33,2.33,0,0,0,1.51.16C44,10,45.58,9.51,47.27,9a3.27,3.27,0,0,0-.54-.33L31,3.66a2,2,0,0,0-1.25-.07Q18,7.09,6.33,10.52Z"/><path class="cls-1" d="M44.11,25.7c0,2.34,0,2.34,2.31,3.1,1.36.45,2.72.87,4.07,1.34A3.1,3.1,0,1,1,48.55,36q-3.35-1-6.67-2.18c-2.56-.88-3.18-3.38-1.32-5.33.9-.94.42-2.06.43-3.08,0-.78-.91-.65-1.43-.85-1-.41-2.14-.7-3.2-1.07a1.44,1.44,0,0,1-1.1-1.91,1.46,1.46,0,0,1,2.05-1c1.77.58,3.53,1.18,5.32,1.71a1.83,1.83,0,0,1,1.48,2.11C44.08,24.83,44.11,25.26,44.11,25.7Z"/></svg>