<svg id="圖層_1" data-name="圖層 1" xmlns="http://www.w3.org/2000/svg" viewBox="0 0 345 99"><defs><style>.cls-1{opacity:0.7;}.cls-2{fill:#8ad7db;}.cls-3{fill:#fe818c;}.cls-4{fill:#fc9f59;}.cls-5{fill:#fabfa1;}.cls-6{fill:#c0c538;}.cls-7{fill:#aa3d62;}.cls-8{fill:#e15a26;}.cls-9{fill:#fabea0;}.cls-10{fill:#f9bea0;}.cls-11{fill:#e25e2b;}.cls-12{fill:#bfc339;}.cls-13{fill:#a45a60;}.cls-14{fill:#e15b28;}.cls-15{fill:#e05b28;}.cls-16{fill:#a35961;}.cls-17{fill:#d37739;}.cls-18{fill:#bfc239;}.cls-19{fill:#4e8eae;}.cls-20{fill:#f7bb9e;}.cls-21{fill:#a35662;}.cls-22{fill:#bfc13a;}.cls-23{fill:#4d8fb2;}.cls-24{fill:#a35b61;}.cls-25{fill:#bebc3f;}.cls-26{fill:#e46130;}.cls-27{fill:#ac4366;}.cls-28{fill:#e15e2b;}.cls-29{fill:#498fae;}.cls-30{fill:#f9bd9f;}.cls-31{fill:#408caf;}.cls-32{fill:#bebc3e;}.cls-33{fill:#f8bea2;}.cls-34{fill:#bebb47;}.cls-35{fill:#b07650;}.cls-36{fill:#e15f2d;}.cls-37{fill:#af486d;}.cls-38{fill:#5291af;}.cls-39{fill:#418caf;}.cls-40{fill:#f8bfa2;}.cls-41{fill:#de6435;}.cls-42{fill:#aa656e;}.cls-43{fill:#e05a28;}.cls-44{fill:#c1bc51;}.cls-45{fill:#c1bb3f;}.cls-46{fill:#cc94a7;}.cls-47{fill:#4491ac;}.cls-48{fill:#d2523a;}.cls-49{fill:#c47b93;}.cls-50{fill:#bf7e92;}.cls-51{fill:#c8869b;}.cls-52{fill:#c06f87;}.cls-53{fill:#c7859b;}.cls-54{fill:#e7744d;}.cls-55{fill:#c6869f;}.cls-56{fill:#c7879e;}.cls-57{fill:#849ab6;}.cls-58{fill:#ba718b;}.cls-59{fill:#af7a8b;}.cls-60{fill:#b87489;}.cls-61{fill:#af7c72;}.cls-62{fill:#b87988;}.cls-63{fill:#9c7c9b;}.cls-64{fill:#a06588;}.cls-65{fill:#9a8395;}.cls-66{fill:#d15f74;}.cls-67{fill:#d15a6f;}.cls-68{fill:#d45d76;}.cls-69{fill:#c97472;}.cls-70{fill:#c4696f;}.cls-71{fill:#be656f;}.cls-72{fill:#bb5a66;}.cls-73{fill:#da6176;}.cls-74{fill:#c75064;}.cls-75{fill:#c64f6b;}.cls-76{fill:#c34f68;}.cls-77{fill:#d2827f;}.cls-78{fill:#c8777b;}.cls-79{fill:#bf6977;}.cls-80{fill:#bc606c;}.cls-81{fill:#b2774d;}.cls-82{fill:#af7256;}.cls-83{fill:#b07e4c;}.cls-84{fill:#b46952;}.cls-85{fill:#cf4f3c;}.cls-86{fill:#5b7c99;}.cls-87{fill:#dd5629;}.cls-88{fill:#dd5c26;}.cls-89{fill:#4a89a7;}.cls-90{fill:#e05725;}.cls-91{fill:#408cb3;}.cls-92{fill:#4094b3;}.cls-93{fill:#5c7b9a;}.cls-94{fill:#438cb3;}.cls-95{fill:#488cac;}.cls-96{fill:#c64e43;}.cls-97{fill:#4390b4;}.cls-98{fill:#e15e22;}.cls-99{fill:#de5d26;}.cls-100{fill:#e75b21;}.cls-101{fill:#9f426a;}.cls-102{fill:#e26431;}.cls-103{fill:#f5cfbe;}.cls-104{fill:#f8e0d3;}.cls-105{fill:#b24158;}.cls-106{fill:#a53866;}.cls-107{fill:#f8d7ca;}.cls-108{fill:#f7e2d7;}.cls-109{fill:#b2415a;}.cls-110{fill:#c0474b;}.cls-111{fill:#b8454e;}.cls-112{fill:#bd4551;}.cls-113{fill:#bd4454;}.cls-114{fill:#c14649;}.cls-115{fill:#bc5565;}.cls-116{fill:#f7ddd3;}.cls-117{fill:#a73c62;}.cls-118{fill:#428ca7;}.cls-119{fill:#ab6478;}.cls-120{fill:#885882;}.cls-121{fill:#ba6472;}.cls-122{fill:#ce7678;}.cls-123{fill:#c66d79;}.cls-124{fill:#b96b66;}.cls-125{fill:#ab6657;}.cls-126{fill:#d65431;}.cls-127{fill:#418bb2;}.cls-128{font-size:11.47px;letter-spacing:0.03em;}.cls-128,.cls-129,.cls-130{fill:#eee;font-family:MicrosoftJhengHeiBold, Microsoft JhengHei;font-weight:700;}.cls-129{font-size:11.47px;letter-spacing:0.03em;}.cls-130{font-size:11.47px;letter-spacing:0.03em;}</style></defs><title>new</title><g class="cls-1"><path class="cls-2" d="M280.48,78.65c-4-3.37-7.66-6.28-11.14-9.36-1.49-1.32-2.31-1.51-3.63.29-2.68,3.65-5.65,7.09-9.06,11.3-.56-5.13-1.06-9.39-1.49-13.66-.62-6.19-1-12.4-1.84-18.57-.31-2.41.51-3.23,2.66-3.42,6.2-.56,12.4-1.06,18.58-1.76,2-.23,2.81.5,3,2.37C278.49,56.55,279.46,67.27,280.48,78.65Z"/><path class="cls-3" d="M311.19,73.33c-3.54-2.68-7.15-5.29-10.61-8.08-1.68-1.36-2.62-1.34-3.89.57-2.52,3.77-5.31,7.35-8.43,11.61-1.09-7-2.09-13.36-3-19.69-.66-4.41-1.18-8.85-1.93-13.25-.28-1.61.12-2.31,1.72-2.53q9.87-1.35,19.74-2.79c1.07-.16,2.05-.44,2.29,1.14q2.43,16.29,4.92,32.58Z"/><path class="cls-4" d="M185,83.23c-3.37-3.74-6.35-6.9-9.13-10.21-1.53-1.82-2.38-2.45-4.47-.28-3,3.16-6.72,5.68-10.11,8.46a1.38,1.38,0,0,1-.15-.57c.38-10.28.81-20.55,1.13-30.83.06-2.1.67-2.87,2.92-2.74,6.22.34,12.45.45,18.67.58,1.88,0,2.79.44,2.62,2.69-.42,5.49-.43,11-.77,16.5C185.36,72,186.13,77.2,185,83.23Z"/><path class="cls-3" d="M120.73,78.21c-2.82-3.89-5.55-7.5-8.11-11.23-1.25-1.83-2.21-1.86-3.91-.46-3.35,2.76-6.91,5.26-10.9,8.26-.44-4.14.82-7.59,1.21-11.06C99.75,57.33,101,51,101.9,44.65c.67-4.56.83-4.75,5.5-4,5.43.86,10.83,1.91,16.28,2.61,2.16.28,2.85,1,2.49,3.13-1.26,7.57-2.34,15.17-3.62,22.74C122.05,72,122.23,75.08,120.73,78.21Z"/><path class="cls-5" d="M217.12,82.8c-3.15-2.05-5.08-4.79-7.49-7-6-5.4-3.62-5.63-9.55.38-2.22,2.25-4.42,4.51-7,7.19-.11-6.87-.24-13-.29-19.21,0-4.45.11-8.91.07-13.36,0-2.2.7-3.24,3.09-3.08a145.89,145.89,0,0,0,17.7-.15c2.28-.12,3.21.47,3.19,3.12C216.73,61.25,217,71.78,217.12,82.8Z"/><path class="cls-6" d="M56.51,65.4c-2.17-4-4.32-7.49-6.08-11.21-1.25-2.64-2.42-3.36-5.09-1.59C41.9,54.88,38.18,56.73,34.1,59c.27-4,1.68-7.21,2.56-10.5,1.89-7,4.07-14,5.93-21,.57-2.13,1.43-2.28,3.31-1.7,5.86,1.79,11.75,3.46,17.66,5.06,1.89.51,2.8.61,2.09,3.36C63.12,44.12,60,53.81,57.45,63.64A10.56,10.56,0,0,1,56.51,65.4Z"/><path class="cls-7" d="M93.49,50.53A32.86,32.86,0,0,1,92,57.42c-.92.3-1.15.77-.38,1.5L88.66,72.56l-.76.15L79.66,59.07c-.13-.17-.25-.34-.36-.51-.37-.39-.48.07-.69.22-2.08,1.78-4.51,1.7-7,1.34-3.93-.57-4.12-.81-3.6-4.41a24.7,24.7,0,0,1,1.65-7.44A3.55,3.55,0,0,1,72,47.57c6.39.31,12.78.67,19.16,1.18C92.19,48.83,93.58,48.8,93.49,50.53Z"/><path class="cls-7" d="M70.53,44.48c.64-3.14,1.31-6.27,1.92-9.41.26-1.37.92-1.52,2.21-1.21,6.44,1.54,12.89,3,19.36,4.41,1.68.36,2.33,1,1.84,2.71-.6,2.08-1.09,4.19-1.62,6.29-.53,1-.56,2.25-2.42,2.1-6.2-.52-12.42-.79-18.63-1.17C69.86,48,69.86,48,70.53,44.48Z"/><path class="cls-8" d="M247.78,65.25,249,81.63c-3.78-3.42-7-6-9.83-9-2-2.06-3.64-2.64-5.49,0a2.22,2.22,0,0,1-2.34-.65,4.18,4.18,0,0,1-1-3.32,80.32,80.32,0,0,0,.18-8.41c-.23-3.45,1.09-4.29,4.59-3.9s6.8.19,10.18.84c1.42.28,2.08.72,1.79,2.19-.35,1.83.49,3.69-.13,5.55C246.8,65.52,247.59,64.89,247.78,65.25Z"/><path class="cls-8" d="M246.77,49.56a16,16,0,0,1,.37,5.5c.47,1.54.07,2.48-1.71,2.31-4.21-.4-8.45-.34-12.66-.81-1.14-.13-1.91-.53-1.53-1.7.49-1.53-.05-3.11.43-4.59,0-.51.65-.64.63-1.11a1.22,1.22,0,0,0-.78,0c-.61.41.41.9,0,1.39-.29.83.19,1.67,0,2.46-.38,1.47.13,3.71-2.26,3.75-2.19,0-4.93.93-5.92-2.32-1.26-6.89-1.24-6.92,5.74-7.21l12.06-.54a3.44,3.44,0,0,1,2.75.21c-1.07,2.42,1.26.8,1.71,1.43C246.2,48.49,246.47,49,246.77,49.56Z"/><path class="cls-9" d="M37.13,26.85A24.23,24.23,0,0,1,35,32.43c-6.81-.79-13.67-.92-20.49-1.45-1.52-.12-3.16.06-4.35-1.25.21-2,1.37-3.74,2.08-5.59,7.11,1,14.29.87,21.41,1.65C34.88,25.92,36.18,25.83,37.13,26.85Z"/><path class="cls-10" d="M34.11,34.76l-2.05,5c-3.54.7-7-.11-10.57-.22s-7.07-.36-10.6-.64c-1.33-.1-2.74-.06-3.73-1.24a15.93,15.93,0,0,1,2.2-6.16A18,18,0,0,0,16,32.77c4.66.25,9.33.53,14,.85C31.45,33.71,33,33.62,34.11,34.76Z"/><path class="cls-11" d="M7.16,37.67c7.22.46,14.44.9,21.66,1.38,1.1.07,2.31-.21,3.23.71L30.5,43.33c-3.26,1.62-8.69,1.07-11.16-1.11-1.8-2.62-3.28.7-5,.27a11,11,0,0,1-7,.41c-1-.25-2.45-.45-1.66-2.19Z"/><path class="cls-12" d="M322.39,68.6l-2.34,3.75a22.82,22.82,0,0,1-1.4-6.62c-.32-8,.47-16,1-24,.22-3.33,1.26-4,4.32-3.31.87,1.18.75,2.56.68,3.89-.38,7.14-.86,14.28-1.26,21.42C323.29,65.42,322.62,67,322.39,68.6Z"/><path class="cls-13" d="M331.33,59.38c-.82-.25-1.41-1.08-2.39-.88-1.27-1.29-.87-2.91-.81-4.43.21-4.76.61-9.51.49-14.34-.86.77-.82,1.84-.89,2.84-.32,4.87-.63,9.74-.87,14.61a17.33,17.33,0,0,1-1.41,6.64l-.73,1.07a2.77,2.77,0,0,1-.79-2.27c.51-8.66.6-17.35,1.7-26,.31-.81.74-1.35,1.78-1.06a2.24,2.24,0,0,0,2.79-1.13,5.41,5.41,0,0,1,2.69-.53c1,.74,3.75.26,2.09,2.92-1.15,1.73-1.14,3.7-1.18,5.65-.1,4.43-.32,8.85-.81,13.24C332.85,57.06,333.13,58.75,331.33,59.38Z"/><path class="cls-14" d="M34.11,34.76c-7.76-.39-15.52-.81-23.28-1.16-1.54-.07-1.57-1-1.48-2.09l.81-1.78c7.41.44,14.82.86,22.23,1.34,1,.07,2.43-.4,2.62,1.36Z"/><path class="cls-15" d="M37.13,26.85,14.49,25.59c-1-.06-2.17.07-2.25-1.45l1-2.31c1.08-1.07,2.45-.93,3.79-.89,3.3.11,6.57.61,9.87.66,1.39.21,2.73.93,4.2.46,2.23-.26,4.25.79,6.4,1C39,24.5,37.19,25.6,37.13,26.85Z"/><path class="cls-8" d="M224.25,69.48a54.76,54.76,0,0,1-.62-10.53c-.67-2.43.18-3.1,2.66-2.74,4.4.64,4.37.51,4.59,4.89.16,3.1-.28,6.17-.38,9.25a5.87,5.87,0,0,1-.14,1,1.91,1.91,0,0,1-1,1c-.93.27-1.39-1-2.68-.49C225.12,72.53,225,70.45,224.25,69.48Z"/><path class="cls-16" d="M326.48,35.64l-1.75,29.25-2.34,3.72c-.72-2-.12-4.1,0-6.13.41-8,.91-15.9,1.38-23.84a2.84,2.84,0,0,1-.53-1.34,2.12,2.12,0,0,1,.76-1.73l2.51-.46q.35.18.23.36C326.64,35.58,326.56,35.64,326.48,35.64Z"/><path class="cls-17" d="M130.17,65.73a10.23,10.23,0,0,1,.42-4.32c6.54,1,13.16.91,19.73,1.49,1.41.12,2.93-.1,4.12,1l-.23,3.33a3.69,3.69,0,0,1-2.94.65q-9.14-.5-18.28-1.1A3.53,3.53,0,0,1,130.17,65.73Z"/><path class="cls-17" d="M131.45,53.31l.31-3.66a5.66,5.66,0,0,1,3.32-.35c5.54.33,11.09.64,16.63,1,1.42.09,2.91,0,4.07,1.1l-.24,3.36a3.62,3.62,0,0,1-2.93.7c-6.11-.38-12.22-.74-18.33-1.11A3.73,3.73,0,0,1,131.45,53.31Z"/><path class="cls-18" d="M325.46,63.82c.44-8,.92-16,1.29-24,.08-1.71.81-2.65,2.38-2.52s.85,1.63.82,2.49c-.28,6.23-.65,12.46-1,18.69A18.5,18.5,0,0,1,325.46,63.82Z"/><path class="cls-17" d="M131,59.5l.28-3.29a3,3,0,0,1,1.59-.55,11.52,11.52,0,0,1,1.15,0q8.69.49,17.38,1c1.22.08,2.52-.07,3.5,1l-.19,3.24a4.23,4.23,0,0,1-3.24.72q-8.67-.49-17.33-1A4.31,4.31,0,0,1,131,59.5Z"/><path class="cls-19" d="M155.78,51.42c-8-.56-16.07-.46-24-1.76l.16-2.13a2,2,0,0,1,1.54-1.1,31.58,31.58,0,0,1,3.44,0c.83,0,1.67.06,2.5.15,1.18.13,2.36.2,3.55.21a19.1,19.1,0,0,1,2.54.17c1,.09,2,.14,3,.2a9.63,9.63,0,0,1,2.37.37,7.07,7.07,0,0,0,4,.44,1.55,1.55,0,0,1,1.21.54Z"/><path class="cls-20" d="M27.32,22.47,13.2,21.83a16.73,16.73,0,0,1,2-5,3.37,3.37,0,0,1,1.62.39,2,2,0,0,0,2.52.09c1.13-.51,2.21.59,3.34.09,5,1.65,9.95,3.62,14.8,5.73l-6.88-.31C29.44,23.16,28.47,21.91,27.32,22.47Z"/><path class="cls-21" d="M337.4,63.56l-2.57-1.77a5.13,5.13,0,0,1-.59-3.28c.39-6.69.76-13.38,1.24-20.06.11-1.47-.07-3.13,1.43-4.17l2.15,11.31c.06,4.24-.09,8.47-.29,12.7C338.68,60.13,338.81,62.05,337.4,63.56Z"/><path class="cls-22" d="M331.33,59.38c1.37-5.69,1.09-11.52,1.47-17.3.1-1.54.26-3.08.4-4.62.12-1.28,1-1.41,2-1.36,1.19.06.86,1,.82,1.61q-.6,10.52-1.26,21c-.07,1.17,0,2.5-1.9,1.74A2.48,2.48,0,0,1,331.33,59.38Z"/><path class="cls-23" d="M154.91,57.66l-21.64-1.53c.17-.48.55-.52,1-.5,5.57.32,11.13.67,16.7,1l-16.18-1a4.06,4.06,0,0,0-2.41.38l-1.08.19.16-2.9,24.09,1.47C155.44,55.76,155.59,56.8,154.91,57.66Z"/><path class="cls-24" d="M317.6,36.9a3.69,3.69,0,0,1,2.57-.46c1.33,1.59,0,3.2,0,4.78-.25,6.44-.69,12.88-1.14,19.32-.06.9.55,2.14-.85,2.67l-1.69-8.83A62.72,62.72,0,0,1,316.55,40c.06-.56.1-1.12.22-1.68A3.24,3.24,0,0,1,317.6,36.9Z"/><path class="cls-25" d="M337.4,63.56c.3-4.92.59-9.84.92-14.75.07-1.1-.16-2.3.73-3.22a69.81,69.81,0,0,1,2.42,12.69c-.18,2.56,1.46,5.28-.66,7.68A8.08,8.08,0,0,1,337.4,63.56Z"/><path class="cls-26" d="M229.84,71.08c.23-3.84.4-7.69.72-11.53.17-2-.06-3.37-2.6-2.7a2.56,2.56,0,0,1-1.54-.1c-2.33-1-2.7.4-2.78,2.2-.64-1.48-.39-3-.32-4.54,1.77,2.23,4.28,1.39,6.52,1.48.91,0,.95-.93,1-1.64.12-1.63.21-3.26.31-4.9a.72.72,0,0,1,1.25.07c-1,1.79.12,3.85-.75,5.73-.38.82.76,1,1.48,1.08,4,.26,8.1.47,12.15.75,1.47.1,1.73-.81,1.86-1.92a55.08,55.08,0,0,1,.64,10.19l-1.18,1.35c-.08-2.14-.46-4.16-.14-6.07s.58-2-1.81-2.49c-3.72-.81-7.47.11-11.09-1.06-1.37-.44-2.26.34-2.21,2.09.09,3.19-.06,6.39-.11,9.59C230.29,69.19,231.65,71,229.84,71.08Z"/><path class="cls-27" d="M79.73,58.19l-.07.88c-2.23.54-3.76,2.34-5.79,3.24A3.23,3.23,0,0,0,72,63.52L65.23,68a12.4,12.4,0,0,1,1-4.88c1.25-.37.78-1.08.36-1.78A17.9,17.9,0,0,1,68,55.7c0,2.69,1.5,3.55,4,3.69,2.31.14,4.52.39,6.47-1.19A.86.86,0,0,1,79.73,58.19Z"/><path class="cls-28" d="M224.25,69.48c1.26.4,1.71,3.58,3.8,1.11l1.08,1.69a4.78,4.78,0,0,0,2.17-.4l.37-.07,2,.84c-2.39,3.53-5.44,6.49-8.78,10.44l-.23-5.51c.47-.58,1.21-1,1.28-1.81-.14-.4-.49-.29-.79-.3a.85.85,0,0,1-.61-.26A18.81,18.81,0,0,1,224.25,69.48Z"/><path class="cls-17" d="M139.25,47.39l-2.44-.15a5.64,5.64,0,0,0-3.69-.24l-1.21.53c-.4-2.3.42-3.17,2.85-2.9,6.44.72,12.91,1.27,19.37,1.85,1.28.12,2.3.37,1.88,2h-1.09a6.41,6.41,0,0,1-3.75-.22L148.74,48a5.06,5.06,0,0,0-3.37-.24L143,47.63A6.14,6.14,0,0,0,139.25,47.39Z"/><path class="cls-29" d="M131,59.5l23.7,1.4-.27,3c-6.88-.41-13.77-.81-20.65-1.26-1.15-.08-2.57.34-3.2-1.2l.31-.67c4.34-.37,8.63.31,12.95.54.45,1.49-.71,1.09-1.36,1.07-3.12-.13-6.25-.35-9.37-.53,6.43.41,12.87.73,18.8,1.15.92,0,.34-.68.55-.32.07.12,0,.17-.25.19a49.29,49.29,0,0,1-5.86-.25c-.63,0-1.28-.12-1.16-1,2.07-.46,4.12.19,5.67.09-6.29-.56-13.14-.42-19.89-1.53Z"/><path class="cls-30" d="M19.34,42.22c3.65,1.07,7.45.64,11.16,1.11-.5,1.94-.83,4-2,5.64-2.3-.59-4.84-.17-6.9-1.7A14.82,14.82,0,0,1,19.34,42.22Z"/><path class="cls-31" d="M141.1,68.89l-.13.34c-.48.92-1.4.81-2.15.72a41.18,41.18,0,0,0-6.71-.47c-1.13,0-2-.39-1.9-1.79,0-1.19.56-1.64,1.75-1.56,6.85.43,13.71.83,20.56,1.25,1,.06,1.5.56,1.36,1.6a1.28,1.28,0,0,1-.56,1c-3.74.55-7.45.63-11-1h0c-.24-.47.14-.63.42-.84A2.11,2.11,0,0,0,141.1,68.89Z"/><path class="cls-17" d="M130.48,68.24l10.49,1c-.67,1.76-2.25,2.44-3.78,3.18-2.6,1.06-5.14,1.35-7.54-.52l.28-3.59Q130.15,67.75,130.48,68.24Z"/><path class="cls-17" d="M154.07,69.75l-.33,3.64a7.89,7.89,0,0,1-8.19-.5l-2.65-3.29c3.56-.64,7.11.69,10.67,0h0Q153.95,69.18,154.07,69.75Z"/><path class="cls-32" d="M317.43,39.55l-1,14.82a128,128,0,0,1-2.83-14.42l.28-.39C315.09,39.1,316.25,38.37,317.43,39.55Z"/><path class="cls-33" d="M5.72,40.7c.23,1.56,1.5,1.15,2.44,1.25,2.07.22,4.14.36,6.21.54a19.81,19.81,0,0,1-8.48,3.77c-.78-.33-1.59.55-2.36-.05Z"/><path class="cls-34" d="M332.89,60.48c1.17-.08,1.55-.8,1.61-1.87.4-7.14.83-14.28,1.22-21.42,0-.35-.32-.73-.49-1.09-.05-1.5-2.87,0-2.32-2.17,1.36-.09,2.88-2.09,4,.36-1.08,5.92-.88,11.94-1.4,17.91-.28,3.19-.46,6.4-.68,9.6A3.3,3.3,0,0,1,332.89,60.48Z"/><path class="cls-35" d="M318.16,63.21c1.07-2.76.67-5.69.89-8.54.47-6.07.76-12.15,1.12-18.22l.08-.11c1.13.56,2.48.23,3.58.9l-.08,1.39c-2.5-.36-3.22.9-3.33,3.22-.31,6.86-.77,13.71-1.21,20.56-.07,1.12.12,2.31-.56,3.33Z"/><path class="cls-36" d="M21.56,47.27c1.71.06,3.42.13,5.14.17,1,0,1.77.34,1.77,1.53l-1,2.3c-1.46,1.25-2.89,1-4.28-.12Z"/><path class="cls-37" d="M70.53,44.48c-.46,2.52.53,3.42,3.14,3.49,6.1.16,12.19.58,18.27,1,1.49.11,1.43-1.31,2.29-1.74a5.8,5.8,0,0,1-.75,3.27c-.76-1.18-2-.9-3.09-1-6.91-.45-13.82-.86-20.73-1.29A7.17,7.17,0,0,1,70.53,44.48Z"/><path class="cls-38" d="M154.07,69.75a2.58,2.58,0,0,1-.5-.12c.18-1.51-.62-1.95-2-2q-9.44-.51-18.87-1.14c-1.38-.09-2.23.24-2.22,1.77a3.89,3.89,0,0,1-.54.06l.24-2.57,24,1.48Z"/><path class="cls-39" d="M144,61.53l-13.14-.79.08-.62,22.23,1.34,0,.63-7.91-.48A.82.82,0,0,1,144,61.53Z"/><path class="cls-40" d="M23.22,51.15l4.28.12c-.48,1.52-.45,4-2.15,4C23.86,55.19,23.59,52.75,23.22,51.15Z"/><path class="cls-41" d="M22.66,17.37c-1.2.88-2.52.15-3.78.31-.88.62-1.72.24-2.57-.09l-1.13-.8c.33-1.48,1-2.21,2.63-1.43S21,16.71,22.66,17.37Z"/><path class="cls-42" d="M340.8,66l.66-7.68c1,2.87,1.29,5.89,2,9.08A3.35,3.35,0,0,1,340.8,66Z"/><path class="cls-43" d="M246.77,49.56l-1.21-.7c-.41-.69-1.55-.41-1.77-1.34-.67-1-1.76-.64-2.67-.86l2.42-.41C246.19,45.8,247.48,46.7,246.77,49.56Z"/><path class="cls-38" d="M153.57,69.63c-3.56.86-7.11-.36-10.67,0l-.56-.65Z"/><path class="cls-44" d="M323.83,37.23c-1.33.26-2.83,1.18-3.58-.9a8.54,8.54,0,0,1,3.73-.77Z"/><path class="cls-18" d="M326.48,35.64q0-.27,0-.54l3.72-.64C329.75,37.32,328.28,37,326.48,35.64Z"/><path class="cls-45" d="M317.6,36.9l0,1.25c-1.16.91-2.31,2.35-3.54.08a1.58,1.58,0,0,1,.44-.81A6.91,6.91,0,0,1,317.6,36.9Z"/><path class="cls-46" d="M191.47,50.07c-1.65.56-2.66.74-3.83-.12C188.84,49,189.84,49.17,191.47,50.07Z"/><path class="cls-47" d="M91.57,58.92c-.78,0-1.84,0-1.56-1.12s1.21-.63,1.94-.38Z"/><path class="cls-48" d="M66.6,61.29c.86.21,1.74.53,1.31,1.62-.33.84-1,1-1.67.16Z"/><path class="cls-38" d="M141.1,68.89c.19-2.94,2.16-.27,3.11-.86l-1.88.9Z"/><path class="cls-49" d="M221.2,49.58c-1,.4-1.91,1.08-3,.12A2.72,2.72,0,0,1,221.2,49.58Z"/><path class="cls-50" d="M248.52,48.28c1.25-1.3,2.11-.9,3.22-.91C250.89,48.72,250,48.34,248.52,48.28Z"/><path class="cls-51" d="M278.8,45a2.42,2.42,0,0,1,3-.58C281,45.33,280.18,45.34,278.8,45Z"/><path class="cls-52" d="M161.23,49.28,157.31,49C158.74,48.11,159.61,48.19,161.23,49.28Z"/><path class="cls-53" d="M97.16,41.34c1.56-.83,2.41-.19,3.49.43A3.82,3.82,0,0,1,97.16,41.34Z"/><path class="cls-54" d="M3.54,46.2c.79-.24,1.59-1,2.36.05C5.11,46.36,4.27,48.76,3.54,46.2Z"/><path class="cls-55" d="M70.46,35.26a1.84,1.84,0,0,1-2.66-.61A2.16,2.16,0,0,1,70.46,35.26Z"/><path class="cls-56" d="M127.61,45.74a2.82,2.82,0,0,1,3.08.54A2.66,2.66,0,0,1,127.61,45.74Z"/><path class="cls-57" d="M72,63.52c.08-1.25.54-1.91,1.88-1.2A2.34,2.34,0,0,1,72,63.52Z"/><path class="cls-58" d="M11.05,15.23c1.23-.67,1.6.34,2.58.48C12.2,16.73,11.83,15.72,11.05,15.23Z"/><path class="cls-59" d="M341.53,34.23c-.76.75-1.35,1-2.13.59C339.8,33.82,340.49,33.84,341.53,34.23Z"/><path class="cls-60" d="M310.29,40.61a3.92,3.92,0,0,1-1,.13.32.32,0,0,1-.17-.59,1.45,1.45,0,0,1,.82-.29C310.27,39.85,310.46,40.07,310.29,40.61Z"/><path class="cls-61" d="M314.46,37.42l-.09.63c-.5.47-.06,1.22-.53,1.7l-.2.21C313.3,38.91,312.29,37.65,314.46,37.42Z"/><path class="cls-62" d="M40.45,26.54c-.44.15-.72.34-.91.27s-.4-.39-.59-.61c.23-.11.49-.32.7-.29S40.07,26.23,40.45,26.54Z"/><path class="cls-63" d="M260.34,46.9c1.09-.91,1.82-1.07,2.46.07C262,47.6,261.31,47.41,260.34,46.9Z"/><path class="cls-64" d="M266.71,46.19a2.69,2.69,0,0,1,2.82-.12A2.83,2.83,0,0,1,266.71,46.19Z"/><path class="cls-65" d="M274.93,45.71c-1.06.24-1.36.4-1.57.33s-.31-.4-.46-.61c.24-.1.49-.3.73-.29A5.78,5.78,0,0,1,274.93,45.71Z"/><path class="cls-66" d="M305.81,40.87c-.83,1.23-1.82.94-3.09.61A2.51,2.51,0,0,1,305.81,40.87Z"/><path class="cls-67" d="M288.15,43.57c-1,1.19-1.94.75-2.85.54A2.25,2.25,0,0,1,288.15,43.57Z"/><path class="cls-68" d="M299.48,42.26c-.15.08-.39.3-.62.31-.43,0-.78-.26-.59-.73.07-.17.49-.27.76-.27S299.57,41.76,299.48,42.26Z"/><path class="cls-69" d="M175.87,49.86c1-1,2-.82,3.15-.2C177.93,50.88,176.87,50.16,175.87,49.86Z"/><path class="cls-70" d="M170.13,49.07l2.47.15C171.78,50.17,170.92,50.11,170.13,49.07Z"/><path class="cls-71" d="M167.25,49.42a4.64,4.64,0,0,1-3.41-.11C164.85,48.09,165.75,48.64,167.25,49.42Z"/><path class="cls-72" d="M182.14,49.81a2.93,2.93,0,0,1,2.71,0C183.9,50.54,183.08,50.2,182.14,49.81Z"/><path class="cls-73" d="M124.33,45.28c-1.2.84-2,.59-3.07,0C122.36,44.38,123.17,44.46,124.33,45.28Z"/><path class="cls-74" d="M118.12,44.87l-2.42-.15c0-.26-.13-.53-.05-.59C116.61,43.32,117.32,44.24,118.12,44.87Z"/><path class="cls-75" d="M106.25,42.87l-2.85-.17A2.23,2.23,0,0,1,106.25,42.87Z"/><path class="cls-76" d="M109.82,43.49a2.46,2.46,0,0,1,2.36.14A2.15,2.15,0,0,1,109.82,43.49Z"/><path class="cls-77" d="M199.46,50.1a3.63,3.63,0,0,1,3.94-.23C202.28,51.11,201.21,50.57,199.46,50.1Z"/><path class="cls-78" d="M210.07,50.37l-4.33-.07C207.48,49.55,208.31,48.95,210.07,50.37Z"/><path class="cls-79" d="M194,50.24c1.2-1,2-.52,3.17-.55C196.05,50.57,195.25,50.39,194,50.24Z"/><path class="cls-80" d="M212.93,49.87a1.62,1.62,0,0,1,2-.18C214.32,50.66,213.6,49.86,212.93,49.87Z"/><path class="cls-81" d="M59.12,32.38c-1.22.31-2.23.36-3.07-.82C57.33,31.07,58.31,31.11,59.12,32.38Z"/><path class="cls-82" d="M62.93,32.85c.52.16,1.14.09,1.09.8,0,.15-.43.41-.64.39-.49,0-1-.2-1-.81C62.34,33.1,62.75,33,62.93,32.85Z"/><path class="cls-83" d="M46.6,29.36c-.17-.27-.46-.52-.43-.71.09-.5.54-.55.91-.34.19.11.26.45.38.69Z"/><path class="cls-84" d="M50.6,29.9c.65-.37,1.49-.37,1.62.15.28,1.07-.52.67-1,.44C51,30.38,50.82,30.11,50.6,29.9Z"/><path class="cls-85" d="M73.44,56.16A.81.81,0,1,1,73,57.71a.74.74,0,0,1-.48-1C72.63,56.25,73,56.13,73.44,56.16Z"/><path class="cls-86" d="M86.34,52.06a.87.87,0,0,1-1.08.77A.76.76,0,0,1,84.6,52a.82.82,0,0,1,1.06-.77C86.14,51.27,86.28,51.64,86.34,52.06Z"/><path class="cls-87" d="M91.89,52.29c0,.41-.12.9-.65.77a1.32,1.32,0,0,1-.8-.75c-.14-.42.15-.77.65-.75A.74.74,0,0,1,91.89,52.29Z"/><path class="cls-88" d="M85.11,56.85c.43.06.79.24.81.72s-.14.88-.65.76a1.31,1.31,0,0,1-.81-.73C84.32,57.19,84.6,56.86,85.11,56.85Z"/><path class="cls-89" d="M73.5,52.09c-.14-.21-.54-.56-.49-.83a1.15,1.15,0,0,1,.8-.72c.43-.06.72.37.69.81S74.19,52.08,73.5,52.09Z"/><path class="cls-90" d="M80.11,51.63c-.05.45-.25.82-.74.77a.7.7,0,0,1-.66-.84,1,1,0,0,1,.61-.57C79.79,50.86,80.09,51.13,80.11,51.63Z"/><path class="cls-91" d="M84.79,62.94c.42.11.83.36.7.8s-.53.5-.81.75c-.24-.28-.65-.54-.7-.85S84.36,63,84.79,62.94Z"/><path class="cls-92" d="M79.73,58.19l-1.21,0c-.28-.7-.57-1.57.53-1.62S79.74,57.54,79.73,58.19Z"/><path class="cls-93" d="M90.72,45.26c.68.06,1.61-.11,1.59.92,0,1.27-1,.92-1.81.86C90.05,46.37,89.95,45.76,90.72,45.26Z"/><path class="cls-94" d="M86.89,40.58a.77.77,0,0,1-1,.41.75.75,0,0,1-.4-1.21.76.76,0,0,1,1.07-.23A.77.77,0,0,1,86.89,40.58Z"/><path class="cls-95" d="M79.75,46.34c-.41-.06-.8-.18-.8-.68a.82.82,0,0,1,.92-.89c.49,0,.67.42.64.82A.76.76,0,0,1,79.75,46.34Z"/><path class="cls-96" d="M92,39.93a2.48,2.48,0,0,1,.43.89c0,.54-.43.6-.84.54a.73.73,0,0,1-.61-.88C91,40,91.34,39.84,92,39.93Z"/><path class="cls-97" d="M75.18,39.64a.77.77,0,0,1-.93.67.65.65,0,0,1-.6-.88.83.83,0,0,1,.93-.64C75.14,38.84,75.15,39.29,75.18,39.64Z"/><path class="cls-98" d="M85.11,45.88c.15-.43.45-.69.9-.57a.64.64,0,0,1,.47.93.93.93,0,0,1-.7.42A.64.64,0,0,1,85.11,45.88Z"/><path class="cls-99" d="M80.09,39.13a.65.65,0,0,1,.7.76.92.92,0,0,1-.5.64.65.65,0,0,1-.87-.57C79.35,39.49,79.66,39.24,80.09,39.13Z"/><path class="cls-100" d="M74.28,44.61c.13.2.39.43.41.68,0,.48-.32.7-.76.67s-.6-.18-.49-.58S73.69,44.63,74.28,44.61Z"/><path class="cls-101" d="M90.72,45.26,90.5,47c-.52-.28-1.08-.59-1-1.28S90.25,45.25,90.72,45.26Z"/><path class="cls-102" d="M241.14,73.56a22.69,22.69,0,0,0,5.72-4.8c-.3,2.79.28,5.36-1,8.19C246.5,72.94,243.7,73.94,241.14,73.56Z"/><path class="cls-103" d="M243.65,69.07c-.17.87-.65,1.4-1.47,1.36a1.41,1.41,0,1,1,.2-2.8A1.41,1.41,0,0,1,243.65,69.07Z"/><path class="cls-104" d="M234.91,62.12c-.8-.1-1.34-.49-1.25-1.36a1.23,1.23,0,0,1,1.44-1.21,1.17,1.17,0,0,1,1.11,1.22C236.26,61.63,235.76,62,234.91,62.12Z"/><path class="cls-105" d="M235.58,68.62c-.1.68-.46,1.21-1.15,1.23-.89,0-1.27-.61-1.19-1.42s.68-1,1.31-1C235.36,67.36,235.54,68,235.58,68.62Z"/><path class="cls-106" d="M242.71,62.33a.84.84,0,0,1-.91-1,1.06,1.06,0,0,1,.92-1.08c.67-.1.86.4.85,1A1,1,0,0,1,242.71,62.33Z"/><path class="cls-28" d="M229.84,71.08l1.39-2.42a5.22,5.22,0,0,0,.44,3.16h0a1.31,1.31,0,0,1-1.87-.12Z"/><path class="cls-107" d="M244.54,53.17a1.3,1.3,0,0,1-1.34,1.3,1.24,1.24,0,0,1-1.38-1.27,1.22,1.22,0,0,1,1.31-1.34C244,51.83,244.41,52.32,244.54,53.17Z"/><path class="cls-108" d="M228.54,52.38a1.18,1.18,0,0,1-1.5,1.08,1.13,1.13,0,0,1-1-1.27,1.21,1.21,0,0,1,1.38-1.25C228.26,51,228.59,51.56,228.54,52.38Z"/><path class="cls-109" d="M235.32,51.58a1.06,1.06,0,0,1,0,2.13,1,1,0,0,1-1.06-.89C234.19,52.11,234.62,51.7,235.32,51.58Z"/><path class="cls-110" d="M235.92,48.55l3.53-.3C238.6,49.05,237.79,49.86,235.92,48.55Z"/><path class="cls-111" d="M243.78,47.52c.47.61,1.93-.1,1.77,1.34l-3.05-.18C242.55,47.77,243.59,48.14,243.78,47.52Z"/><path class="cls-112" d="M232.39,49.43l-1.25-.07-.58-.55a3,3,0,0,1,2.5.17Z"/><path class="cls-113" d="M227.24,49.31c-1.14.28-1.77.82-2.64,0C225.34,48.68,226.06,48.88,227.24,49.31Z"/><path class="cls-114" d="M35.84,25.13c-1,.4-1.7-.19-2.44-.64.33-.87.9-.77,1.49-.46C35.33,24.25,35.8,24.48,35.84,25.13Z"/><path class="cls-115" d="M27.32,22.47c1.2-1,2.21-.15,3.26.32C29.36,24,28.41,22.51,27.32,22.47Z"/><path class="cls-116" d="M227.59,68.36c-.2.74-.72,1.26-1.55,1a1.26,1.26,0,0,1-1-1.67,1.22,1.22,0,0,1,1.4-1C227.32,66.87,227.7,67.43,227.59,68.36Z"/><path class="cls-117" d="M227.87,60.17c0,.83-.29,1.22-.86,1.24a1.15,1.15,0,0,1-1.27-1,1,1,0,0,1,1-1.16A1.14,1.14,0,0,1,227.87,60.17Z"/><path class="cls-26" d="M229.8,71.7l1.87.12c-.56,1.68-1.49,1.4-2.53.47Z"/><path class="cls-118" d="M132.37,56c-.15-.5,0-.82.57-.79,6.49.38,13,.77,19.47,1.4-6.4.37-12.74-.83-19.13-.5Z"/><path class="cls-119" d="M133.13,47c1.33-1.45,2.5-.5,3.69.24Z"/><path class="cls-120" d="M151.18,48.26l3.75.22A3.1,3.1,0,0,1,151.18,48.26Z"/><path class="cls-121" d="M139.25,47.39a3,3,0,0,1,3.74.24Z"/><path class="cls-122" d="M145.38,47.75a2.64,2.64,0,0,1,3.37.24Z"/><path class="cls-123" d="M21.83,20c1.23-.52,2.1-.05,3.18,1C23.42,21.3,22.71,20.4,21.83,20Z"/><path class="cls-124" d="M16.31,17.6l2.57.09a7.21,7.21,0,0,1,.07,1C17.83,19,17.09,18.21,16.31,17.6Z"/><path class="cls-125" d="M313.84,39.74c0-.63-.14-1.29.53-1.7,1,1.6,2.11.46,3.18.11l-.13,1.4Z"/><path class="cls-126" d="M227.07,75.34l-1.86-.2C226,73.31,226.55,74.28,227.07,75.34Z"/><path class="cls-127" d="M144,61.53l1.25.08c2.45,1.56,5.4.4,7.94,1.58l-21-1.26C136.15,61,140.13,62.8,144,61.53Z"/></g><g class="cls-1"><path class="cls-2" d="M280.48,78.65c-4-3.37-7.66-6.28-11.14-9.36-1.49-1.32-2.31-1.51-3.63.29-2.68,3.65-5.65,7.09-9.06,11.3-.56-5.13-1.06-9.39-1.49-13.66-.62-6.19-1-12.4-1.84-18.57-.31-2.41.51-3.23,2.66-3.42,6.2-.56,12.4-1.06,18.58-1.76,2-.23,2.81.5,3,2.37C278.49,56.55,279.46,67.27,280.48,78.65Z"/><path class="cls-3" d="M311.19,73.33c-3.54-2.68-7.15-5.29-10.61-8.08-1.68-1.36-2.62-1.34-3.89.57-2.52,3.77-5.31,7.35-8.43,11.61-1.09-7-2.09-13.36-3-19.69-.66-4.41-1.18-8.85-1.93-13.25-.28-1.61.12-2.31,1.72-2.53q9.87-1.35,19.74-2.79c1.07-.16,2.05-.44,2.29,1.14q2.43,16.29,4.92,32.58Z"/><path class="cls-4" d="M185,83.23c-3.37-3.74-6.35-6.9-9.13-10.21-1.53-1.82-2.38-2.45-4.47-.28-3,3.16-6.72,5.68-10.11,8.46a1.38,1.38,0,0,1-.15-.57c.38-10.28.81-20.55,1.13-30.83.06-2.1.67-2.87,2.92-2.74,6.22.34,12.45.45,18.67.58,1.88,0,2.79.44,2.62,2.69-.42,5.49-.43,11-.77,16.5C185.36,72,186.13,77.2,185,83.23Z"/><path class="cls-3" d="M120.73,78.21c-2.82-3.89-5.55-7.5-8.11-11.23-1.25-1.83-2.21-1.86-3.91-.46-3.35,2.76-6.91,5.26-10.9,8.26-.44-4.14.82-7.59,1.21-11.06C99.75,57.33,101,51,101.9,44.65c.67-4.56.83-4.75,5.5-4,5.43.86,10.83,1.91,16.28,2.61,2.16.28,2.85,1,2.49,3.13-1.26,7.57-2.34,15.17-3.62,22.74C122.05,72,122.23,75.08,120.73,78.21Z"/><path class="cls-5" d="M217.12,82.8c-3.15-2.05-5.08-4.79-7.49-7-6-5.4-3.62-5.63-9.55.38-2.22,2.25-4.42,4.51-7,7.19-.11-6.87-.24-13-.29-19.21,0-4.45.11-8.91.07-13.36,0-2.2.7-3.24,3.09-3.08a145.89,145.89,0,0,0,17.7-.15c2.28-.12,3.21.47,3.19,3.12C216.73,61.25,217,71.78,217.12,82.8Z"/><path class="cls-6" d="M56.51,65.4c-2.17-4-4.32-7.49-6.08-11.21-1.25-2.64-2.42-3.36-5.09-1.59C41.9,54.88,38.18,56.73,34.1,59c.27-4,1.68-7.21,2.56-10.5,1.89-7,4.07-14,5.93-21,.57-2.13,1.43-2.28,3.31-1.7,5.86,1.79,11.75,3.46,17.66,5.06,1.89.51,2.8.61,2.09,3.36C63.12,44.12,60,53.81,57.45,63.64A10.56,10.56,0,0,1,56.51,65.4Z"/><path class="cls-7" d="M93.49,50.53A32.86,32.86,0,0,1,92,57.42c-.92.3-1.15.77-.38,1.5L88.66,72.56l-.76.15L79.66,59.07c-.13-.17-.25-.34-.36-.51-.37-.39-.48.07-.69.22-2.08,1.78-4.51,1.7-7,1.34-3.93-.57-4.12-.81-3.6-4.41a24.7,24.7,0,0,1,1.65-7.44A3.55,3.55,0,0,1,72,47.57c6.39.31,12.78.67,19.16,1.18C92.19,48.83,93.58,48.8,93.49,50.53Z"/><path class="cls-7" d="M70.53,44.48c.64-3.14,1.31-6.27,1.92-9.41.26-1.37.92-1.52,2.21-1.21,6.44,1.54,12.89,3,19.36,4.41,1.68.36,2.33,1,1.84,2.71-.6,2.08-1.09,4.19-1.62,6.29-.53,1-.56,2.25-2.42,2.1-6.2-.52-12.42-.79-18.63-1.17C69.86,48,69.86,48,70.53,44.48Z"/><path class="cls-8" d="M247.78,65.25,249,81.63c-3.78-3.42-7-6-9.83-9-2-2.06-3.64-2.64-5.49,0a2.22,2.22,0,0,1-2.34-.65,4.18,4.18,0,0,1-1-3.32,80.32,80.32,0,0,0,.18-8.41c-.23-3.45,1.09-4.29,4.59-3.9s6.8.19,10.18.84c1.42.28,2.08.72,1.79,2.19-.35,1.83.49,3.69-.13,5.55C246.8,65.52,247.59,64.89,247.78,65.25Z"/><path class="cls-8" d="M246.77,49.56a16,16,0,0,1,.37,5.5c.47,1.54.07,2.48-1.71,2.31-4.21-.4-8.45-.34-12.66-.81-1.14-.13-1.91-.53-1.53-1.7.49-1.53-.05-3.11.43-4.59,0-.51.65-.64.63-1.11a1.22,1.22,0,0,0-.78,0c-.61.41.41.9,0,1.39-.29.83.19,1.67,0,2.46-.38,1.47.13,3.71-2.26,3.75-2.19,0-4.93.93-5.92-2.32-1.26-6.89-1.24-6.92,5.74-7.21l12.06-.54a3.44,3.44,0,0,1,2.75.21c-1.07,2.42,1.26.8,1.71,1.43C246.2,48.49,246.47,49,246.77,49.56Z"/><path class="cls-9" d="M37.13,26.85A24.23,24.23,0,0,1,35,32.43c-6.81-.79-13.67-.92-20.49-1.45-1.52-.12-3.16.06-4.35-1.25.21-2,1.37-3.74,2.08-5.59,7.11,1,14.29.87,21.41,1.65C34.88,25.92,36.18,25.83,37.13,26.85Z"/><path class="cls-10" d="M34.11,34.76l-2.05,5c-3.54.7-7-.11-10.57-.22s-7.07-.36-10.6-.64c-1.33-.1-2.74-.06-3.73-1.24a15.93,15.93,0,0,1,2.2-6.16A18,18,0,0,0,16,32.77c4.66.25,9.33.53,14,.85C31.45,33.71,33,33.62,34.11,34.76Z"/><path class="cls-11" d="M7.16,37.67c7.22.46,14.44.9,21.66,1.38,1.1.07,2.31-.21,3.23.71L30.5,43.33c-3.26,1.62-8.69,1.07-11.16-1.11-1.8-2.62-3.28.7-5,.27a11,11,0,0,1-7,.41c-1-.25-2.45-.45-1.66-2.19Z"/><path class="cls-12" d="M322.39,68.6l-2.34,3.75a22.82,22.82,0,0,1-1.4-6.62c-.32-8,.47-16,1-24,.22-3.33,1.26-4,4.32-3.31.87,1.18.75,2.56.68,3.89-.38,7.14-.86,14.28-1.26,21.42C323.29,65.42,322.62,67,322.39,68.6Z"/><path class="cls-13" d="M331.33,59.38c-.82-.25-1.41-1.08-2.39-.88-1.27-1.29-.87-2.91-.81-4.43.21-4.76.61-9.51.49-14.34-.86.77-.82,1.84-.89,2.84-.32,4.87-.63,9.74-.87,14.61a17.33,17.33,0,0,1-1.41,6.64l-.73,1.07a2.77,2.77,0,0,1-.79-2.27c.51-8.66.6-17.35,1.7-26,.31-.81.74-1.35,1.78-1.06a2.24,2.24,0,0,0,2.79-1.13,5.41,5.41,0,0,1,2.69-.53c1,.74,3.75.26,2.09,2.92-1.15,1.73-1.14,3.7-1.18,5.65-.1,4.43-.32,8.85-.81,13.24C332.85,57.06,333.13,58.75,331.33,59.38Z"/><path class="cls-14" d="M34.11,34.76c-7.76-.39-15.52-.81-23.28-1.16-1.54-.07-1.57-1-1.48-2.09l.81-1.78c7.41.44,14.82.86,22.23,1.34,1,.07,2.43-.4,2.62,1.36Z"/><path class="cls-15" d="M37.13,26.85,14.49,25.59c-1-.06-2.17.07-2.25-1.45l1-2.31c1.08-1.07,2.45-.93,3.79-.89,3.3.11,6.57.61,9.87.66,1.39.21,2.73.93,4.2.46,2.23-.26,4.25.79,6.4,1C39,24.5,37.19,25.6,37.13,26.85Z"/><path class="cls-8" d="M224.25,69.48a54.76,54.76,0,0,1-.62-10.53c-.67-2.43.18-3.1,2.66-2.74,4.4.64,4.37.51,4.59,4.89.16,3.1-.28,6.17-.38,9.25a5.87,5.87,0,0,1-.14,1,1.91,1.91,0,0,1-1,1c-.93.27-1.39-1-2.68-.49C225.12,72.53,225,70.45,224.25,69.48Z"/><path class="cls-16" d="M326.48,35.64l-1.75,29.25-2.34,3.72c-.72-2-.12-4.1,0-6.13.41-8,.91-15.9,1.38-23.84a2.84,2.84,0,0,1-.53-1.34,2.12,2.12,0,0,1,.76-1.73l2.51-.46q.35.18.23.36C326.64,35.58,326.56,35.64,326.48,35.64Z"/><path class="cls-17" d="M130.17,65.73a10.23,10.23,0,0,1,.42-4.32c6.54,1,13.16.91,19.73,1.49,1.41.12,2.93-.1,4.12,1l-.23,3.33a3.69,3.69,0,0,1-2.94.65q-9.14-.5-18.28-1.1A3.53,3.53,0,0,1,130.17,65.73Z"/><path class="cls-17" d="M131.45,53.31l.31-3.66a5.66,5.66,0,0,1,3.32-.35c5.54.33,11.09.64,16.63,1,1.42.09,2.91,0,4.07,1.1l-.24,3.36a3.62,3.62,0,0,1-2.93.7c-6.11-.38-12.22-.74-18.33-1.11A3.73,3.73,0,0,1,131.45,53.31Z"/><path class="cls-18" d="M325.46,63.82c.44-8,.92-16,1.29-24,.08-1.71.81-2.65,2.38-2.52s.85,1.63.82,2.49c-.28,6.23-.65,12.46-1,18.69A18.5,18.5,0,0,1,325.46,63.82Z"/><path class="cls-17" d="M131,59.5l.28-3.29a3,3,0,0,1,1.59-.55,11.52,11.52,0,0,1,1.15,0q8.69.49,17.38,1c1.22.08,2.52-.07,3.5,1l-.19,3.24a4.23,4.23,0,0,1-3.24.72q-8.67-.49-17.33-1A4.31,4.31,0,0,1,131,59.5Z"/><path class="cls-19" d="M155.78,51.42c-8-.56-16.07-.46-24-1.76l.16-2.13a2,2,0,0,1,1.54-1.1,31.58,31.58,0,0,1,3.44,0c.83,0,1.67.06,2.5.15,1.18.13,2.36.2,3.55.21a19.1,19.1,0,0,1,2.54.17c1,.09,2,.14,3,.2a9.63,9.63,0,0,1,2.37.37,7.07,7.07,0,0,0,4,.44,1.55,1.55,0,0,1,1.21.54Z"/><path class="cls-20" d="M27.32,22.47,13.2,21.83a16.73,16.73,0,0,1,2-5,3.37,3.37,0,0,1,1.62.39,2,2,0,0,0,2.52.09c1.13-.51,2.21.59,3.34.09,5,1.65,9.95,3.62,14.8,5.73l-6.88-.31C29.44,23.16,28.47,21.91,27.32,22.47Z"/><path class="cls-21" d="M337.4,63.56l-2.57-1.77a5.13,5.13,0,0,1-.59-3.28c.39-6.69.76-13.38,1.24-20.06.11-1.47-.07-3.13,1.43-4.17l2.15,11.31c.06,4.24-.09,8.47-.29,12.7C338.68,60.13,338.81,62.05,337.4,63.56Z"/><path class="cls-22" d="M331.33,59.38c1.37-5.69,1.09-11.52,1.47-17.3.1-1.54.26-3.08.4-4.62.12-1.28,1-1.41,2-1.36,1.19.06.86,1,.82,1.61q-.6,10.52-1.26,21c-.07,1.17,0,2.5-1.9,1.74A2.48,2.48,0,0,1,331.33,59.38Z"/><path class="cls-23" d="M154.91,57.66l-21.64-1.53c.17-.48.55-.52,1-.5,5.57.32,11.13.67,16.7,1l-16.18-1a4.06,4.06,0,0,0-2.41.38l-1.08.19.16-2.9,24.09,1.47C155.44,55.76,155.59,56.8,154.91,57.66Z"/><path class="cls-24" d="M317.6,36.9a3.69,3.69,0,0,1,2.57-.46c1.33,1.59,0,3.2,0,4.78-.25,6.44-.69,12.88-1.14,19.32-.06.9.55,2.14-.85,2.67l-1.69-8.83A62.72,62.72,0,0,1,316.55,40c.06-.56.1-1.12.22-1.68A3.24,3.24,0,0,1,317.6,36.9Z"/><path class="cls-25" d="M337.4,63.56c.3-4.92.59-9.84.92-14.75.07-1.1-.16-2.3.73-3.22a69.81,69.81,0,0,1,2.42,12.69c-.18,2.56,1.46,5.28-.66,7.68A8.08,8.08,0,0,1,337.4,63.56Z"/><path class="cls-26" d="M229.84,71.08c.23-3.84.4-7.69.72-11.53.17-2-.06-3.37-2.6-2.7a2.56,2.56,0,0,1-1.54-.1c-2.33-1-2.7.4-2.78,2.2-.64-1.48-.39-3-.32-4.54,1.77,2.23,4.28,1.39,6.52,1.48.91,0,.95-.93,1-1.64.12-1.63.21-3.26.31-4.9a.72.72,0,0,1,1.25.07c-1,1.79.12,3.85-.75,5.73-.38.82.76,1,1.48,1.08,4,.26,8.1.47,12.15.75,1.47.1,1.73-.81,1.86-1.92a55.08,55.08,0,0,1,.64,10.19l-1.18,1.35c-.08-2.14-.46-4.16-.14-6.07s.58-2-1.81-2.49c-3.72-.81-7.47.11-11.09-1.06-1.37-.44-2.26.34-2.21,2.09.09,3.19-.06,6.39-.11,9.59C230.29,69.19,231.65,71,229.84,71.08Z"/><path class="cls-27" d="M79.73,58.19l-.07.88c-2.23.54-3.76,2.34-5.79,3.24A3.23,3.23,0,0,0,72,63.52L65.23,68a12.4,12.4,0,0,1,1-4.88c1.25-.37.78-1.08.36-1.78A17.9,17.9,0,0,1,68,55.7c0,2.69,1.5,3.55,4,3.69,2.31.14,4.52.39,6.47-1.19A.86.86,0,0,1,79.73,58.19Z"/><path class="cls-28" d="M224.25,69.48c1.26.4,1.71,3.58,3.8,1.11l1.08,1.69a4.78,4.78,0,0,0,2.17-.4l.37-.07,2,.84c-2.39,3.53-5.44,6.49-8.78,10.44l-.23-5.51c.47-.58,1.21-1,1.28-1.81-.14-.4-.49-.29-.79-.3a.85.85,0,0,1-.61-.26A18.81,18.81,0,0,1,224.25,69.48Z"/><path class="cls-17" d="M139.25,47.39l-2.44-.15a5.64,5.64,0,0,0-3.69-.24l-1.21.53c-.4-2.3.42-3.17,2.85-2.9,6.44.72,12.91,1.27,19.37,1.85,1.28.12,2.3.37,1.88,2h-1.09a6.41,6.41,0,0,1-3.75-.22L148.74,48a5.06,5.06,0,0,0-3.37-.24L143,47.63A6.14,6.14,0,0,0,139.25,47.39Z"/><path class="cls-29" d="M131,59.5l23.7,1.4-.27,3c-6.88-.41-13.77-.81-20.65-1.26-1.15-.08-2.57.34-3.2-1.2l.31-.67c4.34-.37,8.63.31,12.95.54.45,1.49-.71,1.09-1.36,1.07-3.12-.13-6.25-.35-9.37-.53,6.43.41,12.87.73,18.8,1.15.92,0,.34-.68.55-.32.07.12,0,.17-.25.19a49.29,49.29,0,0,1-5.86-.25c-.63,0-1.28-.12-1.16-1,2.07-.46,4.12.19,5.67.09-6.29-.56-13.14-.42-19.89-1.53Z"/><path class="cls-30" d="M19.34,42.22c3.65,1.07,7.45.64,11.16,1.11-.5,1.94-.83,4-2,5.64-2.3-.59-4.84-.17-6.9-1.7A14.82,14.82,0,0,1,19.34,42.22Z"/><path class="cls-31" d="M141.1,68.89l-.13.34c-.48.92-1.4.81-2.15.72a41.18,41.18,0,0,0-6.71-.47c-1.13,0-2-.39-1.9-1.79,0-1.19.56-1.64,1.75-1.56,6.85.43,13.71.83,20.56,1.25,1,.06,1.5.56,1.36,1.6a1.28,1.28,0,0,1-.56,1c-3.74.55-7.45.63-11-1h0c-.24-.47.14-.63.42-.84A2.11,2.11,0,0,0,141.1,68.89Z"/><path class="cls-17" d="M130.48,68.24l10.49,1c-.67,1.76-2.25,2.44-3.78,3.18-2.6,1.06-5.14,1.35-7.54-.52l.28-3.59Q130.15,67.75,130.48,68.24Z"/><path class="cls-17" d="M154.07,69.75l-.33,3.64a7.89,7.89,0,0,1-8.19-.5l-2.65-3.29c3.56-.64,7.11.69,10.67,0h0Q153.95,69.18,154.07,69.75Z"/><path class="cls-32" d="M317.43,39.55l-1,14.82a128,128,0,0,1-2.83-14.42l.28-.39C315.09,39.1,316.25,38.37,317.43,39.55Z"/><path class="cls-33" d="M5.72,40.7c.23,1.56,1.5,1.15,2.44,1.25,2.07.22,4.14.36,6.21.54a19.81,19.81,0,0,1-8.48,3.77c-.78-.33-1.59.55-2.36-.05Z"/><path class="cls-34" d="M332.89,60.48c1.17-.08,1.55-.8,1.61-1.87.4-7.14.83-14.28,1.22-21.42,0-.35-.32-.73-.49-1.09-.05-1.5-2.87,0-2.32-2.17,1.36-.09,2.88-2.09,4,.36-1.08,5.92-.88,11.94-1.4,17.91-.28,3.19-.46,6.4-.68,9.6A3.3,3.3,0,0,1,332.89,60.48Z"/><path class="cls-35" d="M318.16,63.21c1.07-2.76.67-5.69.89-8.54.47-6.07.76-12.15,1.12-18.22l.08-.11c1.13.56,2.48.23,3.58.9l-.08,1.39c-2.5-.36-3.22.9-3.33,3.22-.31,6.86-.77,13.71-1.21,20.56-.07,1.12.12,2.31-.56,3.33Z"/><path class="cls-36" d="M21.56,47.27c1.71.06,3.42.13,5.14.17,1,0,1.77.34,1.77,1.53l-1,2.3c-1.46,1.25-2.89,1-4.28-.12Z"/><path class="cls-37" d="M70.53,44.48c-.46,2.52.53,3.42,3.14,3.49,6.1.16,12.19.58,18.27,1,1.49.11,1.43-1.31,2.29-1.74a5.8,5.8,0,0,1-.75,3.27c-.76-1.18-2-.9-3.09-1-6.91-.45-13.82-.86-20.73-1.29A7.17,7.17,0,0,1,70.53,44.48Z"/><path class="cls-38" d="M154.07,69.75a2.58,2.58,0,0,1-.5-.12c.18-1.51-.62-1.95-2-2q-9.44-.51-18.87-1.14c-1.38-.09-2.23.24-2.22,1.77a3.89,3.89,0,0,1-.54.06l.24-2.57,24,1.48Z"/><path class="cls-39" d="M144,61.53l-13.14-.79.08-.62,22.23,1.34,0,.63-7.91-.48A.82.82,0,0,1,144,61.53Z"/><path class="cls-40" d="M23.22,51.15l4.28.12c-.48,1.52-.45,4-2.15,4C23.86,55.19,23.59,52.75,23.22,51.15Z"/><path class="cls-41" d="M22.66,17.37c-1.2.88-2.52.15-3.78.31-.88.62-1.72.24-2.57-.09l-1.13-.8c.33-1.48,1-2.21,2.63-1.43S21,16.71,22.66,17.37Z"/><path class="cls-42" d="M340.8,66l.66-7.68c1,2.87,1.29,5.89,2,9.08A3.35,3.35,0,0,1,340.8,66Z"/><path class="cls-43" d="M246.77,49.56l-1.21-.7c-.41-.69-1.55-.41-1.77-1.34-.67-1-1.76-.64-2.67-.86l2.42-.41C246.19,45.8,247.48,46.7,246.77,49.56Z"/><path class="cls-38" d="M153.57,69.63c-3.56.86-7.11-.36-10.67,0l-.56-.65Z"/><path class="cls-44" d="M323.83,37.23c-1.33.26-2.83,1.18-3.58-.9a8.54,8.54,0,0,1,3.73-.77Z"/><path class="cls-18" d="M326.48,35.64q0-.27,0-.54l3.72-.64C329.75,37.32,328.28,37,326.48,35.64Z"/><path class="cls-45" d="M317.6,36.9l0,1.25c-1.16.91-2.31,2.35-3.54.08a1.58,1.58,0,0,1,.44-.81A6.91,6.91,0,0,1,317.6,36.9Z"/><path class="cls-46" d="M191.47,50.07c-1.65.56-2.66.74-3.83-.12C188.84,49,189.84,49.17,191.47,50.07Z"/><path class="cls-47" d="M91.57,58.92c-.78,0-1.84,0-1.56-1.12s1.21-.63,1.94-.38Z"/><path class="cls-48" d="M66.6,61.29c.86.21,1.74.53,1.31,1.62-.33.84-1,1-1.67.16Z"/><path class="cls-38" d="M141.1,68.89c.19-2.94,2.16-.27,3.11-.86l-1.88.9Z"/><path class="cls-49" d="M221.2,49.58c-1,.4-1.91,1.08-3,.12A2.72,2.72,0,0,1,221.2,49.58Z"/><path class="cls-50" d="M248.52,48.28c1.25-1.3,2.11-.9,3.22-.91C250.89,48.72,250,48.34,248.52,48.28Z"/><path class="cls-51" d="M278.8,45a2.42,2.42,0,0,1,3-.58C281,45.33,280.18,45.34,278.8,45Z"/><path class="cls-52" d="M161.23,49.28,157.31,49C158.74,48.11,159.61,48.19,161.23,49.28Z"/><path class="cls-53" d="M97.16,41.34c1.56-.83,2.41-.19,3.49.43A3.82,3.82,0,0,1,97.16,41.34Z"/><path class="cls-54" d="M3.54,46.2c.79-.24,1.59-1,2.36.05C5.11,46.36,4.27,48.76,3.54,46.2Z"/><path class="cls-55" d="M70.46,35.26a1.84,1.84,0,0,1-2.66-.61A2.16,2.16,0,0,1,70.46,35.26Z"/><path class="cls-56" d="M127.61,45.74a2.82,2.82,0,0,1,3.08.54A2.66,2.66,0,0,1,127.61,45.74Z"/><path class="cls-57" d="M72,63.52c.08-1.25.54-1.91,1.88-1.2A2.34,2.34,0,0,1,72,63.52Z"/><path class="cls-58" d="M11.05,15.23c1.23-.67,1.6.34,2.58.48C12.2,16.73,11.83,15.72,11.05,15.23Z"/><path class="cls-59" d="M341.53,34.23c-.76.75-1.35,1-2.13.59C339.8,33.82,340.49,33.84,341.53,34.23Z"/><path class="cls-60" d="M310.29,40.61a3.92,3.92,0,0,1-1,.13.32.32,0,0,1-.17-.59,1.45,1.45,0,0,1,.82-.29C310.27,39.85,310.46,40.07,310.29,40.61Z"/><path class="cls-61" d="M314.46,37.42l-.09.63c-.5.47-.06,1.22-.53,1.7l-.2.21C313.3,38.91,312.29,37.65,314.46,37.42Z"/><path class="cls-62" d="M40.45,26.54c-.44.15-.72.34-.91.27s-.4-.39-.59-.61c.23-.11.49-.32.7-.29S40.07,26.23,40.45,26.54Z"/><path class="cls-63" d="M260.34,46.9c1.09-.91,1.82-1.07,2.46.07C262,47.6,261.31,47.41,260.34,46.9Z"/><path class="cls-64" d="M266.71,46.19a2.69,2.69,0,0,1,2.82-.12A2.83,2.83,0,0,1,266.71,46.19Z"/><path class="cls-65" d="M274.93,45.71c-1.06.24-1.36.4-1.57.33s-.31-.4-.46-.61c.24-.1.49-.3.73-.29A5.78,5.78,0,0,1,274.93,45.71Z"/><path class="cls-66" d="M305.81,40.87c-.83,1.23-1.82.94-3.09.61A2.51,2.51,0,0,1,305.81,40.87Z"/><path class="cls-67" d="M288.15,43.57c-1,1.19-1.94.75-2.85.54A2.25,2.25,0,0,1,288.15,43.57Z"/><path class="cls-68" d="M299.48,42.26c-.15.08-.39.3-.62.31-.43,0-.78-.26-.59-.73.07-.17.49-.27.76-.27S299.57,41.76,299.48,42.26Z"/><path class="cls-69" d="M175.87,49.86c1-1,2-.82,3.15-.2C177.93,50.88,176.87,50.16,175.87,49.86Z"/><path class="cls-70" d="M170.13,49.07l2.47.15C171.78,50.17,170.92,50.11,170.13,49.07Z"/><path class="cls-71" d="M167.25,49.42a4.64,4.64,0,0,1-3.41-.11C164.85,48.09,165.75,48.64,167.25,49.42Z"/><path class="cls-72" d="M182.14,49.81a2.93,2.93,0,0,1,2.71,0C183.9,50.54,183.08,50.2,182.14,49.81Z"/><path class="cls-73" d="M124.33,45.28c-1.2.84-2,.59-3.07,0C122.36,44.38,123.17,44.46,124.33,45.28Z"/><path class="cls-74" d="M118.12,44.87l-2.42-.15c0-.26-.13-.53-.05-.59C116.61,43.32,117.32,44.24,118.12,44.87Z"/><path class="cls-75" d="M106.25,42.87l-2.85-.17A2.23,2.23,0,0,1,106.25,42.87Z"/><path class="cls-76" d="M109.82,43.49a2.46,2.46,0,0,1,2.36.14A2.15,2.15,0,0,1,109.82,43.49Z"/><path class="cls-77" d="M199.46,50.1a3.63,3.63,0,0,1,3.94-.23C202.28,51.11,201.21,50.57,199.46,50.1Z"/><path class="cls-78" d="M210.07,50.37l-4.33-.07C207.48,49.55,208.31,48.95,210.07,50.37Z"/><path class="cls-79" d="M194,50.24c1.2-1,2-.52,3.17-.55C196.05,50.57,195.25,50.39,194,50.24Z"/><path class="cls-80" d="M212.93,49.87a1.62,1.62,0,0,1,2-.18C214.32,50.66,213.6,49.86,212.93,49.87Z"/><path class="cls-81" d="M59.12,32.38c-1.22.31-2.23.36-3.07-.82C57.33,31.07,58.31,31.11,59.12,32.38Z"/><path class="cls-82" d="M62.93,32.85c.52.16,1.14.09,1.09.8,0,.15-.43.41-.64.39-.49,0-1-.2-1-.81C62.34,33.1,62.75,33,62.93,32.85Z"/><path class="cls-83" d="M46.6,29.36c-.17-.27-.46-.52-.43-.71.09-.5.54-.55.91-.34.19.11.26.45.38.69Z"/><path class="cls-84" d="M50.6,29.9c.65-.37,1.49-.37,1.62.15.28,1.07-.52.67-1,.44C51,30.38,50.82,30.11,50.6,29.9Z"/><path class="cls-85" d="M73.44,56.16A.81.81,0,1,1,73,57.71a.74.74,0,0,1-.48-1C72.63,56.25,73,56.13,73.44,56.16Z"/><path class="cls-86" d="M86.34,52.06a.87.87,0,0,1-1.08.77A.76.76,0,0,1,84.6,52a.82.82,0,0,1,1.06-.77C86.14,51.27,86.28,51.64,86.34,52.06Z"/><path class="cls-87" d="M91.89,52.29c0,.41-.12.9-.65.77a1.32,1.32,0,0,1-.8-.75c-.14-.42.15-.77.65-.75A.74.74,0,0,1,91.89,52.29Z"/><path class="cls-88" d="M85.11,56.85c.43.06.79.24.81.72s-.14.88-.65.76a1.31,1.31,0,0,1-.81-.73C84.32,57.19,84.6,56.86,85.11,56.85Z"/><path class="cls-89" d="M73.5,52.09c-.14-.21-.54-.56-.49-.83a1.15,1.15,0,0,1,.8-.72c.43-.06.72.37.69.81S74.19,52.08,73.5,52.09Z"/><path class="cls-90" d="M80.11,51.63c-.05.45-.25.82-.74.77a.7.7,0,0,1-.66-.84,1,1,0,0,1,.61-.57C79.79,50.86,80.09,51.13,80.11,51.63Z"/><path class="cls-91" d="M84.79,62.94c.42.11.83.36.7.8s-.53.5-.81.75c-.24-.28-.65-.54-.7-.85S84.36,63,84.79,62.94Z"/><path class="cls-92" d="M79.73,58.19l-1.21,0c-.28-.7-.57-1.57.53-1.62S79.74,57.54,79.73,58.19Z"/><path class="cls-93" d="M90.72,45.26c.68.06,1.61-.11,1.59.92,0,1.27-1,.92-1.81.86C90.05,46.37,89.95,45.76,90.72,45.26Z"/><path class="cls-94" d="M86.89,40.58a.77.77,0,0,1-1,.41.75.75,0,0,1-.4-1.21.76.76,0,0,1,1.07-.23A.77.77,0,0,1,86.89,40.58Z"/><path class="cls-95" d="M79.75,46.34c-.41-.06-.8-.18-.8-.68a.82.82,0,0,1,.92-.89c.49,0,.67.42.64.82A.76.76,0,0,1,79.75,46.34Z"/><path class="cls-96" d="M92,39.93a2.48,2.48,0,0,1,.43.89c0,.54-.43.6-.84.54a.73.73,0,0,1-.61-.88C91,40,91.34,39.84,92,39.93Z"/><path class="cls-97" d="M75.18,39.64a.77.77,0,0,1-.93.67.65.65,0,0,1-.6-.88.83.83,0,0,1,.93-.64C75.14,38.84,75.15,39.29,75.18,39.64Z"/><path class="cls-98" d="M85.11,45.88c.15-.43.45-.69.9-.57a.64.64,0,0,1,.47.93.93.93,0,0,1-.7.42A.64.64,0,0,1,85.11,45.88Z"/><path class="cls-99" d="M80.09,39.13a.65.65,0,0,1,.7.76.92.92,0,0,1-.5.64.65.65,0,0,1-.87-.57C79.35,39.49,79.66,39.24,80.09,39.13Z"/><path class="cls-100" d="M74.28,44.61c.13.2.39.43.41.68,0,.48-.32.7-.76.67s-.6-.18-.49-.58S73.69,44.63,74.28,44.61Z"/><path class="cls-101" d="M90.72,45.26,90.5,47c-.52-.28-1.08-.59-1-1.28S90.25,45.25,90.72,45.26Z"/><path class="cls-102" d="M241.14,73.56a22.69,22.69,0,0,0,5.72-4.8c-.3,2.79.28,5.36-1,8.19C246.5,72.94,243.7,73.94,241.14,73.56Z"/><path class="cls-103" d="M243.65,69.07c-.17.87-.65,1.4-1.47,1.36a1.41,1.41,0,1,1,.2-2.8A1.41,1.41,0,0,1,243.65,69.07Z"/><path class="cls-104" d="M234.91,62.12c-.8-.1-1.34-.49-1.25-1.36a1.23,1.23,0,0,1,1.44-1.21,1.17,1.17,0,0,1,1.11,1.22C236.26,61.63,235.76,62,234.91,62.12Z"/><path class="cls-105" d="M235.58,68.62c-.1.68-.46,1.21-1.15,1.23-.89,0-1.27-.61-1.19-1.42s.68-1,1.31-1C235.36,67.36,235.54,68,235.58,68.62Z"/><path class="cls-106" d="M242.71,62.33a.84.84,0,0,1-.91-1,1.06,1.06,0,0,1,.92-1.08c.67-.1.86.4.85,1A1,1,0,0,1,242.71,62.33Z"/><path class="cls-28" d="M229.84,71.08l1.39-2.42a5.22,5.22,0,0,0,.44,3.16h0a1.31,1.31,0,0,1-1.87-.12Z"/><path class="cls-107" d="M244.54,53.17a1.3,1.3,0,0,1-1.34,1.3,1.24,1.24,0,0,1-1.38-1.27,1.22,1.22,0,0,1,1.31-1.34C244,51.83,244.41,52.32,244.54,53.17Z"/><path class="cls-108" d="M228.54,52.38a1.18,1.18,0,0,1-1.5,1.08,1.13,1.13,0,0,1-1-1.27,1.21,1.21,0,0,1,1.38-1.25C228.26,51,228.59,51.56,228.54,52.38Z"/><path class="cls-109" d="M235.32,51.58a1.06,1.06,0,0,1,0,2.13,1,1,0,0,1-1.06-.89C234.19,52.11,234.62,51.7,235.32,51.58Z"/><path class="cls-110" d="M235.92,48.55l3.53-.3C238.6,49.05,237.79,49.86,235.92,48.55Z"/><path class="cls-111" d="M243.78,47.52c.47.61,1.93-.1,1.77,1.34l-3.05-.18C242.55,47.77,243.59,48.14,243.78,47.52Z"/><path class="cls-112" d="M232.39,49.43l-1.25-.07-.58-.55a3,3,0,0,1,2.5.17Z"/><path class="cls-113" d="M227.24,49.31c-1.14.28-1.77.82-2.64,0C225.34,48.68,226.06,48.88,227.24,49.31Z"/><path class="cls-114" d="M35.84,25.13c-1,.4-1.7-.19-2.44-.64.33-.87.9-.77,1.49-.46C35.33,24.25,35.8,24.48,35.84,25.13Z"/><path class="cls-115" d="M27.32,22.47c1.2-1,2.21-.15,3.26.32C29.36,24,28.41,22.51,27.32,22.47Z"/><path class="cls-116" d="M227.59,68.36c-.2.74-.72,1.26-1.55,1a1.26,1.26,0,0,1-1-1.67,1.22,1.22,0,0,1,1.4-1C227.32,66.87,227.7,67.43,227.59,68.36Z"/><path class="cls-117" d="M227.87,60.17c0,.83-.29,1.22-.86,1.24a1.15,1.15,0,0,1-1.27-1,1,1,0,0,1,1-1.16A1.14,1.14,0,0,1,227.87,60.17Z"/><path class="cls-26" d="M229.8,71.7l1.87.12c-.56,1.68-1.49,1.4-2.53.47Z"/><path class="cls-118" d="M132.37,56c-.15-.5,0-.82.57-.79,6.49.38,13,.77,19.47,1.4-6.4.37-12.74-.83-19.13-.5Z"/><path class="cls-119" d="M133.13,47c1.33-1.45,2.5-.5,3.69.24Z"/><path class="cls-120" d="M151.18,48.26l3.75.22A3.1,3.1,0,0,1,151.18,48.26Z"/><path class="cls-121" d="M139.25,47.39a3,3,0,0,1,3.74.24Z"/><path class="cls-122" d="M145.38,47.75a2.64,2.64,0,0,1,3.37.24Z"/><path class="cls-123" d="M21.83,20c1.23-.52,2.1-.05,3.18,1C23.42,21.3,22.71,20.4,21.83,20Z"/><path class="cls-124" d="M16.31,17.6l2.57.09a7.21,7.21,0,0,1,.07,1C17.83,19,17.09,18.21,16.31,17.6Z"/><path class="cls-125" d="M313.84,39.74c0-.63-.14-1.29.53-1.7,1,1.6,2.11.46,3.18.11l-.13,1.4Z"/><path class="cls-126" d="M227.07,75.34l-1.86-.2C226,73.31,226.55,74.28,227.07,75.34Z"/><path class="cls-127" d="M144,61.53l1.25.08c2.45,1.56,5.4.4,7.94,1.58l-21-1.26C136.15,61,140.13,62.8,144,61.53Z"/></g><text class="cls-128" transform="matrix(1, -0.01, 0.01, 1, 138.08, 63.78)">最</text><text class="cls-129" transform="translate(168.61 67.08) rotate(-1.81)">新</text><text class="cls-130" transform="translate(199.37 66.82) rotate(0.72)">消</text><text class="cls-130" transform="translate(229.85 66.28) rotate(0.72)">息</text></svg>