<svg xmlns="http://www.w3.org/2000/svg" viewBox="0 0 328 90"><defs><style>.cls-1{isolation:isolate;}.cls-2{fill:#f4ae69;mix-blend-mode:multiply;}</style></defs><title>orange_tg</title><g class="cls-1"><g id="圖層_1" data-name="圖層 1"><polygon class="cls-2" points="327.91 90.08 -0.11 90.56 8.6 86.06 -0.12 82.07 8.58 76.58 -0.13 71.11 8.56 64.11 -0.15 58.64 8.55 53.63 -0.17 46.17 8.53 39.67 -0.19 35.19 8.51 29.7 -0.2 23.71 8.5 18.22 -0.22 12.75 8.48 6.75 -0.24 0.77 319.07 0.3 327.79 4.29 319.09 8.29 327.8 13.77 319.1 19.76 327.81 24.74 319.11 29.24 327.83 34.71 319.13 40.22 327.85 48.19 319.15 56.17 327.88 64.64 319.18 71.14 327.89 76.61 319.2 83.1 327.91 90.08"/></g></g></svg>