<?xml version="1.0" encoding="utf-8"?>
<!-- Generator: Adobe Illustrator 21.1.0, SVG Export Plug-In . SVG Version: 6.00 Build 0)  -->
<svg version="1.1" id="圖層_1" xmlns="http://www.w3.org/2000/svg" xmlns:xlink="http://www.w3.org/1999/xlink" x="0px" y="0px"
	 viewBox="0 0 200 60" enable-background="new 0 0 200 60" xml:space="preserve">
<g>
	<path fill="#FFFFFF" d="M130.375,53.689L130.375,53.689c0,0.535-0.109,0.963-0.321,1.391v0.214c-0.214,0.32-0.428,0.641-0.75,0.856
		c0,0.106-0.105,0.213-0.213,0.32c-0.108,0-0.215,0.106-0.321,0.215c-0.533,0.32-1.176,0.534-1.817,0.534V56.15
		c0.321,0,0.642,0,0.854-0.107c0.107-0.107,0.107-0.107,0.214-0.107c0.216-0.107,0.429-0.321,0.536-0.535
		c0.213-0.214,0.426-0.427,0.534-0.749c0.107-0.321,0.213-0.642,0.213-0.963c0-0.32-0.105-0.641-0.213-0.855
		c0-0.107,0-0.107-0.108-0.213c-0.107-0.213-0.213-0.428-0.426-0.642c0-0.108-0.107-0.108-0.215-0.213l-0.105-0.108
		c-0.43-0.32-0.858-0.428-1.284-0.428v-0.962c0.427,0,0.854,0,1.284,0.213c0.427,0.213,0.746,0.428,1.176,0.748
		c0.32,0.322,0.534,0.749,0.642,1.178C130.266,52.834,130.375,53.262,130.375,53.689 M126.952,57.219L126.952,57.219
		c-0.534,0-0.964-0.106-1.392-0.321h-0.106c-0.321-0.213-0.641-0.428-0.961-0.748c-0.323-0.322-0.536-0.642-0.749-1.07
		c-0.108-0.428-0.214-0.855-0.214-1.391c0-0.428,0.106-0.855,0.214-1.282c0.213-0.429,0.426-0.856,0.749-1.178
		c0.32-0.32,0.748-0.535,1.176-0.748c0.319-0.213,0.749-0.213,1.283-0.213v0.962c-0.642,0-1.177,0.215-1.711,0.749
		c-0.215,0.214-0.321,0.534-0.428,0.855c-0.108,0.214-0.215,0.535-0.215,0.855c0,0.321,0.106,0.642,0.215,0.963
		c0.106,0.321,0.213,0.535,0.428,0.749c0.213,0.321,0.534,0.428,0.747,0.642c0.322,0.107,0.643,0.107,0.964,0.107V57.219z"/>
	<polygon fill-rule="evenodd" clip-rule="evenodd" fill="#FFFFFF" points="38.824,12.62 51.444,0 53.154,0 49.305,3.85 
		39.679,13.477 	"/>
	<path fill-rule="evenodd" clip-rule="evenodd" fill="#FFFFFF" d="M51.766,14.653H52.3l-0.534,0.64V14.653z M51.766,21.284v-1.07
		L52.087,20l6.31,6.203h-1.71L51.766,21.284z M39.037,26.203l11.552-11.55h1.177v0.64L40.75,26.203H39.037z M51.766,20.214
		l-0.534,0.535l0.534,0.536V20.214z"/>
	<path fill-rule="evenodd" clip-rule="evenodd" fill="#FFFFFF" d="M64.707,7.273L72.085,0h1.712l-3.956,3.85l-5.134,5.134V7.273z
		 M64.707,12.193l5.667,9.626h8.129v1.177h-7.487L81.07,40.321H79.68L69.626,22.995h-4.919v-1.177h4.277l-4.277-7.165V12.193z
		 M59.358,12.62l5.349-5.347v1.711l-1.176,1.176l1.176,2.032v2.46l-2.032-3.637l-2.14,2.139v8.663h4.172v1.177h-4.172v17.326h-1.177
		v-0.108L48.984,29.839v10.482h-1.176V28.128h1.176l10.374,10.375V12.62z"/>
	<path fill-rule="evenodd" clip-rule="evenodd" fill="#FFFFFF" d="M86.523,32.835c0.963,0,1.818,0.748,1.818,1.818
		c0,0.962-0.855,1.818-1.818,1.818v-1.07c0.429,0,0.749-0.321,0.749-0.749c0-0.428-0.32-0.856-0.749-0.856V32.835z M86.523,32.835
		L86.523,32.835v0.961c-0.428,0-0.854,0.428-0.854,0.856c0,0.428,0.427,0.749,0.854,0.749v1.07c-1.07,0-1.924-0.856-1.924-1.818
		C84.6,33.583,85.453,32.835,86.523,32.835"/>
	<polygon fill-rule="evenodd" clip-rule="evenodd" fill="#FFFFFF" points="95.829,8.557 104.492,0 119.786,0 119.786,1.177 
		104.92,1.177 97.006,9.091 97.006,40.321 95.829,40.321 	"/>
	<polygon fill-rule="evenodd" clip-rule="evenodd" fill="#FFFFFF" points="121.818,33.796 121.818,0 122.993,0 122.993,33.475 
		126.952,40.321 125.563,40.321 	"/>
	<polygon fill-rule="evenodd" clip-rule="evenodd" fill="#FFFFFF" points="120,9.412 110.376,9.412 110.376,27.808 114.438,27.808 
		114.438,28.985 110.376,28.985 110.376,39.144 118.716,39.144 118.716,36.257 119.893,38.396 119.893,40.321 101.817,40.321 
		101.817,39.144 109.092,39.144 109.092,28.985 103.102,28.985 103.102,31.658 101.817,31.658 101.817,28.985 101.817,27.808 
		101.817,16.257 103.102,16.257 103.102,27.808 109.092,27.808 109.092,9.412 102.032,9.412 102.032,8.235 120,8.235 	"/>
	<rect x="105.135" y="16.257" fill-rule="evenodd" clip-rule="evenodd" fill="#FFFFFF" width="11.337" height="1.178"/>
	<rect x="116.472" y="16.257" fill-rule="evenodd" clip-rule="evenodd" fill="#FFFFFF" width="1.176" height="15.401"/>
	<polygon fill-rule="evenodd" clip-rule="evenodd" fill="#FFFFFF" points="45.134,33.583 38.397,40.321 40.107,40.321 45.99,34.438 
			"/>
	<polygon fill-rule="evenodd" clip-rule="evenodd" fill="#FFFFFF" points="153.368,1.177 142.14,1.177 139.358,3.957 139.358,8.235 
		153.368,8.235 153.368,9.412 139.358,9.412 139.358,13.049 155.4,13.049 155.4,0 156.683,0 156.683,15.936 155.4,15.936 
		155.4,14.226 139.358,14.226 139.358,15.936 138.181,15.936 138.181,14.226 138.181,13.049 138.181,9.412 138.181,8.235 
		138.181,3.423 141.283,0.322 141.283,0 141.605,0 153.368,0 	"/>
	<path fill-rule="evenodd" clip-rule="evenodd" fill="#FFFFFF" d="M147.272,16.257h0.749v4.064h13.582v1.07h-14.331V16.257z
		 M147.272,41.71V31.658h0.428h-0.428v-1.177h5.989v1.177H147.7V41.71H147.272z M147.272,25.561h8.023v7.06h1.177v-8.343h-1.177
		h-8.023V25.561z M160.215,40.321l-3.532-6.097h1.392l3.529,6.097H160.215z M146.845,20.321v-4.064h0.428v5.134h-8.983v-1.07
		H146.845z M147.272,25.561h-5.989v-1.284h5.989V25.561z M147.272,30.481h-7.914v-6.204h-1.069v8.343h1.069v-0.963h7.914V30.481z
		 M147.272,41.71h-0.748V31.657h0.748V41.71z M138.289,40.321v-0.32l0.213,0.32H138.289z M138.289,21.391h-5.133v-1.069h5.133
		V21.391z M138.289,24.278v8.343h-0.108v-0.963v-1.177v-6.204H138.289z M138.289,40.001v0.32h-1.177l-3.53-6.097h1.392
		L138.289,40.001z"/>
	<path fill="#FFFFFF" d="M147.594,56.684c0,0.534,0,0.962-0.215,1.391c-0.106,0.427-0.321,0.748-0.643,1.069
		c-0.319,0.32-0.747,0.535-1.175,0.641C145.24,60,144.813,60,144.278,60h-0.215v-0.963h0.108c0.426,0,0.747-0.106,1.068-0.214h0.215
		c0.212-0.106,0.428-0.214,0.534-0.427c0.107-0.107,0.212-0.215,0.212-0.321c0.107-0.108,0.216-0.321,0.216-0.429
		c0.107-0.321,0.213-0.749,0.213-1.283v-1.391v-0.428V53.69v-1.819v-0.961v-0.642h0.964v3.316v0.107v0.855V56.684z M144.063,57.219
		h0.321c0.321,0,0.643-0.106,0.855-0.106l0.107-0.107h0.214c0.105-0.107,0.321-0.214,0.535-0.321h-0.107V55.4
		c-0.106,0.214-0.322,0.322-0.534,0.428l-0.107,0.107h-0.107c-0.106,0.107-0.213,0.107-0.428,0.214h-0.428h-0.321V57.219z
		 M144.063,51.23h0.321c0.321,0,0.534,0.106,0.855,0.214c0.215,0.106,0.534,0.32,0.749,0.534v0.106v-1.39l-0.106-0.107
		c-0.108-0.107-0.216-0.107-0.428-0.107c-0.321-0.213-0.643-0.213-1.07-0.213h-0.321V51.23z M144.063,60h-0.749v-0.106h-0.107
		c-0.321,0-0.535-0.108-0.855-0.214l-0.213-0.107l0.105-0.214l0.107-0.427l0.108-0.322l0.319,0.107h0.107v0.106
		c0.214,0,0.428,0.108,0.535,0.108h0.107h0.107h0.106c0.107,0.106,0.215,0.106,0.321,0.106V60z M144.063,50.267v0.963
		c-0.106,0.106-0.321,0.106-0.534,0.214c-0.215,0.106-0.429,0.32-0.749,0.534c0,0-0.107,0.106-0.107,0.214
		c-0.106,0-0.106,0.106-0.212,0.213c-0.216,0.321-0.321,0.854-0.321,1.283c0,0.428,0.105,0.749,0.213,0.962v0.214
		c0.108,0.214,0.32,0.428,0.428,0.642c0.32,0.214,0.534,0.427,0.749,0.534c0.213,0,0.428,0.107,0.534,0.107v1.069
		c-0.321-0.106-0.642-0.106-0.963-0.32h-0.214c-0.32-0.214-0.642-0.428-0.854-0.749c-0.321-0.322-0.536-0.642-0.752-1.07
		c-0.105-0.428-0.212-0.856-0.212-1.39c0-0.429,0.106-0.962,0.212-1.283c0.216-0.428,0.431-0.856,0.752-1.176
		c0.106-0.107,0.212-0.214,0.212-0.214c0.107-0.107,0.216-0.213,0.321-0.322C142.995,50.481,143.529,50.267,144.063,50.267"/>
	<path fill="#FFFFFF" d="M155.508,57.112h-0.534h-0.322v-0.321v-3.636c0-0.321,0-0.535-0.106-0.855
		c-0.107-0.215-0.213-0.321-0.321-0.535c-0.106-0.107-0.106-0.107-0.213-0.107c0-0.106-0.108-0.106-0.108-0.106
		c-0.213-0.214-0.533-0.322-0.855-0.322c-0.32,0-0.534,0.107-0.748,0.107c-0.214,0.108-0.321,0.214-0.535,0.428l-0.105,0.106
		c0,0.108-0.107,0.108-0.107,0.214c-0.213,0.322-0.213,0.643-0.213,1.07v3.636v0.321h-0.321h-0.428h-0.322v-0.321v-6.63v-2.46v-0.32
		h0.322h0.428h0.321v0.32v3.102c0.105-0.108,0.213-0.215,0.426-0.322c0.321-0.106,0.749-0.214,1.283-0.214
		c0.322,0,0.643,0,0.964,0.214c0.427,0.106,0.641,0.322,0.963,0.535c0.214,0.213,0.428,0.535,0.534,0.854
		c0.214,0.429,0.214,0.75,0.214,1.177v3.744v0.321H155.508z"/>
	<path fill="#FFFFFF" d="M161.283,57.112h-0.856c-0.32,0-0.643-0.107-0.855-0.214c-0.107,0-0.107,0-0.215-0.107
		c-0.213,0-0.32-0.107-0.428-0.321c-0.214-0.106-0.32-0.32-0.428-0.642c-0.107-0.213-0.107-0.534-0.107-0.854v-6.095v-0.214h0.214
		h0.535h0.32v0.214v1.497h1.818h0.32v0.213v0.535v0.214h-0.32h-1.818v3.743v0.428c0.107,0.107,0.107,0.214,0.214,0.32h0.105v0.107
		c0.216,0.107,0.322,0.107,0.537,0.107h0.962h0.32v0.322v0.427v0.321H161.283z"/>
	<path fill="#FFFFFF" d="M138.503,54.439L138.503,54.439c0,0.321-0.108,0.748-0.214,1.069c-0.108,0-0.108,0.107-0.108,0.107
		c-0.106,0.321-0.319,0.535-0.534,0.749c-0.215,0.32-0.534,0.534-0.856,0.641c-0.319,0.107-0.748,0.213-1.067,0.213
		c-0.43,0-0.749-0.106-1.071-0.213c-0.32-0.107-0.642-0.321-0.855-0.641c-0.105,0-0.214-0.107-0.214-0.214
		c-0.106,0-0.106-0.107-0.212-0.214c-0.214-0.428-0.429-0.962-0.429-1.497v-3.851v-0.213h0.32h0.429h0.319v0.213v3.744
		c0,0.321,0,0.535,0.108,0.749c0,0,0,0.107,0.106,0.107c0,0.213,0.107,0.321,0.321,0.535c0,0,0.105,0.106,0.214,0.213
		c0.107,0,0.214,0.107,0.32,0.107c0.107,0.107,0.429,0.107,0.643,0.107c0.213,0,0.428,0,0.642-0.107
		c0.212-0.107,0.426-0.214,0.534-0.32v-0.107c0.105,0,0.105,0,0.105-0.107c0.108,0,0.108-0.107,0.108-0.107
		c0.214-0.32,0.319-0.641,0.319-1.069v-3.744v-0.213h0.215h0.534h0.322v0.213V54.439z"/>
	<path fill="#FFFFFF" d="M120.642,57.112h-0.534h-0.108v-0.321v-3.636v-0.107c0-0.214-0.106-0.427-0.106-0.748l-0.106-0.107
		c-0.106-0.107-0.212-0.322-0.321-0.428c0-0.107-0.107-0.107-0.107-0.107c-0.105-0.106-0.105-0.106-0.213-0.106
		c-0.213-0.214-0.534-0.322-0.855-0.322c-0.215,0-0.43,0.107-0.642,0.107c-0.216,0.108-0.428,0.214-0.534,0.428
		c-0.107,0-0.107,0.106-0.215,0.106c0,0.108,0,0.108-0.106,0.214c-0.108,0.322-0.215,0.643-0.215,1.07v3.636v0.321h-0.321h-0.428
		h-0.319v-0.321v-6.63v-2.46v-0.32h0.319h0.428h0.321v0.32v3.102c0.106-0.108,0.321-0.215,0.429-0.322
		c0.426-0.106,0.854-0.214,1.283-0.214c0.321,0,0.748,0,1.068,0.214h0.107c0.321,0.106,0.534,0.322,0.643,0.535
		c0.32,0.213,0.428,0.535,0.642,0.854c0.105,0.429,0.214,0.75,0.214,1.177v3.744v0.321H120.642z"/>
	<path fill="#FFFFFF" d="M112.62,57.112h-0.854c-0.322,0-0.643-0.107-0.856-0.214c-0.106,0-0.215,0-0.321-0.107
		c-0.106,0-0.213-0.107-0.321-0.321c-0.214-0.106-0.319-0.32-0.428-0.642c-0.106-0.213-0.106-0.534-0.106-0.854v-6.095v-0.214h0.215
		h0.534h0.213v0.214v1.497h1.926h0.321v0.213v0.535v0.214h-0.321h-1.926v3.743c0,0.107,0,0.321,0.108,0.428
		c0,0.107,0.106,0.214,0.213,0.32l0.107,0.107c0.107,0.107,0.32,0.107,0.535,0.107h0.962h0.321v0.322v0.427v0.321H112.62z"/>
	<path fill-rule="evenodd" clip-rule="evenodd" fill="#FFFFFF" d="M59.358,47.273h1.069v9.839h-1.069V47.273z M65.454,50.374
		L65.454,50.374c0,0.428,0,0.856-0.213,1.284c0,0,0,0.107-0.106,0.107c-0.108,0.321-0.322,0.641-0.536,0.855
		c-0.319,0.213-0.64,0.427-0.962,0.535c-0.429,0.213-0.749,0.213-1.177,0.213h-1.391v-0.963h1.391c0.215,0,0.536-0.106,0.748-0.213
		h0.108c0.214-0.107,0.32-0.214,0.533-0.322c0.109-0.213,0.321-0.427,0.321-0.641c0.108-0.321,0.215-0.535,0.215-0.856
		c0-0.32-0.107-0.642-0.215-0.856c0-0.32-0.212-0.535-0.321-0.641c-0.428-0.429-0.854-0.536-1.39-0.536h-0.213h-0.536h-0.533h-0.108
		v-1.069h0.322h0.534h0.534c0.428,0,0.748,0,1.177,0.214h0.107c0.32,0.214,0.642,0.321,0.854,0.642c0.108,0,0.214,0.107,0.214,0.213
		c0.108,0.107,0.108,0.214,0.214,0.214C65.349,49.091,65.454,49.626,65.454,50.374"/>
	<path fill="#FFFFFF" d="M97.433,51.337h-0.533c-0.216,0-0.322,0.107-0.536,0.214c-0.214,0.106-0.426,0.214-0.535,0.428
		c-0.106,0.107-0.106,0.107-0.106,0.214c-0.105,0-0.105,0.107-0.105,0.213c-0.216,0.32-0.321,0.749-0.321,1.177v3.208v0.322h-0.321
		h-0.43h-0.319v-0.322v-2.888v-0.107c0-0.535,0.107-1.176,0.319-1.711c0-0.107,0.108-0.107,0.108-0.215
		c0.215-0.427,0.536-0.854,0.964-1.176c0.105,0,0.105,0,0.212-0.106h0.109c0.319-0.215,0.64-0.215,0.962-0.215h0.533h0.322v0.215
		v0.534v0.214H97.433z"/>
	<path fill="#FFFFFF" d="M72.193,52.086l-0.108-0.107c-0.212-0.213-0.427-0.428-0.749-0.534c-0.212-0.107-0.533-0.214-0.854-0.214
		c-0.321,0-0.535,0.106-0.749,0.214c-0.32,0.106-0.534,0.321-0.75,0.534c-0.105,0-0.105,0.107-0.213,0.214
		c0,0-0.106,0.107-0.106,0.214c-0.214,0.319-0.321,0.855-0.321,1.282h-0.106c0,0.429,0.106,0.75,0.214,0.963
		c0,0.106,0,0.106,0.107,0.214c0.106,0.213,0.213,0.428,0.426,0.642c0.216,0.214,0.43,0.427,0.75,0.535
		c0.214,0.107,0.428,0.107,0.749,0.107h0.534c0,0,0.108,0,0.108-0.107c0.106,0,0.212,0,0.319-0.107c0.108,0,0.215-0.107,0.32-0.213
		c0.109-0.107,0.215-0.214,0.43-0.321v1.285c-0.215,0.106-0.32,0.213-0.535,0.32h-0.106c-0.108,0-0.108,0.107-0.216,0.107
		c-0.212,0-0.533,0.106-0.854,0.106c-0.428,0-0.855-0.106-1.283-0.321c-0.321-0.107-0.749-0.321-1.069-0.748
		c-0.105,0-0.105-0.107-0.214-0.215c-0.107-0.107-0.107-0.213-0.213-0.321c-0.322-0.535-0.429-1.176-0.429-1.925
		c0-0.428,0-0.963,0.213-1.282c0.106-0.429,0.321-0.856,0.642-1.177c0.32-0.321,0.641-0.536,1.069-0.749
		c0.428-0.213,0.855-0.213,1.283-0.213c0.428,0,0.854,0,1.177,0.213h0.105c0.109,0.107,0.321,0.107,0.43,0.213V52.086z
		 M72.727,50.268h1.07v6.845h-1.07V50.268z"/>
	<path fill="#FFFFFF" d="M91.445,54.866c-0.109,0.214-0.216,0.321-0.322,0.534c-0.106,0.322-0.32,0.535-0.535,0.75
		c-0.321,0.32-0.748,0.642-1.069,0.748c-0.428,0.214-0.855,0.321-1.391,0.321c-0.428,0-0.855-0.106-1.282-0.321
		c-0.429-0.106-0.75-0.428-1.071-0.748c-0.321-0.322-0.641-0.642-0.747-1.07c-0.214-0.428-0.214-0.856-0.214-1.39
		c0-0.429,0-0.856,0.214-1.283c0.106-0.428,0.426-0.856,0.747-1.176c0.321-0.321,0.643-0.536,1.071-0.75
		c0.427-0.213,0.854-0.213,1.282-0.213c0.535,0,0.963,0.108,1.391,0.213c0,0,0.108,0.107,0.215,0.107
		c0.321,0.215,0.533,0.428,0.854,0.643c0.429,0.427,0.642,0.854,0.748,1.282c0.215,0.535,0.215,0.963,0.215,1.498v0.213h-5.134
		v-1.068h4.065c-0.107,0-0.107-0.107-0.107-0.107c-0.108-0.427-0.32-0.748-0.535-1.069c-0.106-0.108-0.213-0.108-0.213-0.214
		c-0.108,0-0.108-0.107-0.215-0.107c-0.321-0.32-0.749-0.427-1.284-0.427c-0.642,0-1.176,0.214-1.604,0.748
		c-0.212,0.215-0.428,0.534-0.533,0.749c-0.216,0.642-0.216,1.39,0,1.925c0.105,0.321,0.321,0.535,0.533,0.748
		c0,0.108,0.106,0.214,0.215,0.214c0,0.107,0.107,0.107,0.214,0.213c0.32,0.214,0.748,0.322,1.176,0.322
		c0.322,0,0.642,0,0.963-0.107c0-0.107,0.106-0.107,0.106-0.107c0.215-0.107,0.43-0.321,0.643-0.535c0,0,0.106,0,0.106-0.106
		l0.108-0.106c0.106-0.108,0.106-0.214,0.212-0.321H91.445z"/>
	<path fill-rule="evenodd" clip-rule="evenodd" fill="#FFFFFF" d="M82.675,53.262c0,0.535-0.107,0.963-0.213,1.283
		c-0.216,0.429-0.429,0.75-0.751,0.963c0,0.106-0.107,0.214-0.213,0.214c-0.107,0.106-0.215,0.213-0.32,0.213
		c-0.43,0.321-0.964,0.428-1.606,0.428h-1.392v-1.069h1.392c0.322,0,0.535,0,0.747-0.108c0.109,0,0.109,0,0.109-0.107
		c0.213,0,0.428-0.106,0.533-0.321c0.216-0.106,0.321-0.32,0.429-0.641c0.107-0.214,0.107-0.535,0.107-0.856
		c0-0.32,0-0.535-0.107-0.855c-0.107-0.107-0.107-0.107-0.107-0.214c-0.105-0.107-0.213-0.322-0.321-0.428
		c0,0-0.105-0.108-0.214-0.108l-0.106-0.106c-0.322-0.214-0.642-0.32-1.069-0.32h-0.214h-0.535h-0.534h-0.108v-0.962l0.322-0.108
		h0.642h0.428c0.428,0,0.856,0.108,1.176,0.214c0.108,0.107,0.108,0.107,0.214,0.107c0.321,0.107,0.536,0.32,0.749,0.535
		c0.108,0.106,0.214,0.214,0.214,0.32c0.108,0,0.215,0.107,0.215,0.214C82.462,52.086,82.675,52.621,82.675,53.262 M77.54,50.268
		h-1.07V60h1.07V50.268z"/>
	<path fill-rule="evenodd" clip-rule="evenodd" fill="#FFFFFF" d="M105.989,57.113l-0.535-1.285v1.285H105.989z M105.454,54.545
		v-7.379h0.535v8.77L105.454,54.545z M105.454,55.829l-4.063-8.663h-0.641v1.176l3.955,8.771h0.749V55.829z M105.454,47.166v7.379
		l-0.64-1.389v-5.99H105.454z M100.75,56.898v-7.272l0.533,1.391v5.882H100.75z M100.75,47.166h-0.537l0.537,1.176V47.166z
		 M100.75,49.626v7.272h-0.537v-8.663L100.75,49.626z"/>
</g>
</svg>
