<svg id="圖層_1" data-name="圖層 1" xmlns="http://www.w3.org/2000/svg" viewBox="0 0 345 99"><defs><style>.cls-1{opacity:0.7;}.cls-2{fill:#8ad7db;}.cls-3{fill:#fe818c;}.cls-4{fill:#fbbf8e;}.cls-5{fill:#fabfa1;}.cls-6{fill:#c0c538;}.cls-7{fill:#aa3d62;}.cls-8{fill:#e15a26;}.cls-9{fill:#fabea0;}.cls-10{fill:#f9bea0;}.cls-11{fill:#e25e2b;}.cls-12{fill:#bfc339;}.cls-13{fill:#a45a60;}.cls-14{fill:#e15b28;}.cls-15{fill:#e05b28;}.cls-16{fill:#a35961;}.cls-17{fill:#bfc239;}.cls-18{fill:#4e8eae;}.cls-19{fill:#f7bb9e;}.cls-20{fill:#a35662;}.cls-21{fill:#bfc13a;}.cls-22{fill:#4d8fb2;}.cls-23{fill:#a35b61;}.cls-24{fill:#bebc3f;}.cls-25{fill:#e46130;}.cls-26{fill:#ac4366;}.cls-27{fill:#e15e2b;}.cls-28{fill:#498fae;}.cls-29{fill:#f9bd9f;}.cls-30{fill:#408caf;}.cls-31{fill:#bebc3e;}.cls-32{fill:#f8bea2;}.cls-33{fill:#bebb47;}.cls-34{fill:#b07650;}.cls-35{fill:#e15f2d;}.cls-36{fill:#af486d;}.cls-37{fill:#5291af;}.cls-38{fill:#418caf;}.cls-39{fill:#f8bfa2;}.cls-40{fill:#de6435;}.cls-41{fill:#aa656e;}.cls-42{fill:#e05a28;}.cls-43{fill:#c1bc51;}.cls-44{fill:#c1bb3f;}.cls-45{fill:#cc94a7;}.cls-46{fill:#4491ac;}.cls-47{fill:#d2523a;}.cls-48{fill:#c47b93;}.cls-49{fill:#bf7e92;}.cls-50{fill:#c8869b;}.cls-51{fill:#c06f87;}.cls-52{fill:#c7859b;}.cls-53{fill:#e7744d;}.cls-54{fill:#c6869f;}.cls-55{fill:#c7879e;}.cls-56{fill:#849ab6;}.cls-57{fill:#ba718b;}.cls-58{fill:#af7a8b;}.cls-59{fill:#b87489;}.cls-60{fill:#af7c72;}.cls-61{fill:#b87988;}.cls-62{fill:#9c7c9b;}.cls-63{fill:#a06588;}.cls-64{fill:#9a8395;}.cls-65{fill:#d15f74;}.cls-66{fill:#d15a6f;}.cls-67{fill:#d45d76;}.cls-68{fill:#c97472;}.cls-69{fill:#c4696f;}.cls-70{fill:#be656f;}.cls-71{fill:#bb5a66;}.cls-72{fill:#da6176;}.cls-73{fill:#c75064;}.cls-74{fill:#c64f6b;}.cls-75{fill:#c34f68;}.cls-76{fill:#d2827f;}.cls-77{fill:#c8777b;}.cls-78{fill:#bf6977;}.cls-79{fill:#bc606c;}.cls-80{fill:#b2774d;}.cls-81{fill:#af7256;}.cls-82{fill:#b07e4c;}.cls-83{fill:#b46952;}.cls-84{fill:#cf4f3c;}.cls-85{fill:#5b7c99;}.cls-86{fill:#dd5629;}.cls-87{fill:#dd5c26;}.cls-88{fill:#4a89a7;}.cls-89{fill:#e05725;}.cls-90{fill:#408cb3;}.cls-91{fill:#4094b3;}.cls-92{fill:#5c7b9a;}.cls-93{fill:#438cb3;}.cls-94{fill:#488cac;}.cls-95{fill:#c64e43;}.cls-96{fill:#4390b4;}.cls-97{fill:#e15e22;}.cls-98{fill:#de5d26;}.cls-99{fill:#e75b21;}.cls-100{fill:#9f426a;}.cls-101{fill:#e26431;}.cls-102{fill:#f5cfbe;}.cls-103{fill:#f8e0d3;}.cls-104{fill:#b24158;}.cls-105{fill:#a53866;}.cls-106{fill:#f8d7ca;}.cls-107{fill:#f7e2d7;}.cls-108{fill:#b2415a;}.cls-109{fill:#c0474b;}.cls-110{fill:#b8454e;}.cls-111{fill:#bd4551;}.cls-112{fill:#bd4454;}.cls-113{fill:#c14649;}.cls-114{fill:#bc5565;}.cls-115{fill:#f7ddd3;}.cls-116{fill:#a73c62;}.cls-117{fill:#428ca7;}.cls-118{fill:#ab6478;}.cls-119{fill:#885882;}.cls-120{fill:#ba6472;}.cls-121{fill:#ce7678;}.cls-122{fill:#c66d79;}.cls-123{fill:#b96b66;}.cls-124{fill:#ab6657;}.cls-125{fill:#d65431;}.cls-126{fill:#418bb2;}.cls-127{font-size:10.85px;letter-spacing:0.02em;}.cls-127,.cls-128,.cls-129{fill:#eee;font-family:MicrosoftJhengHeiBold, Microsoft JhengHei;font-weight:700;}.cls-128{font-size:10.85px;letter-spacing:0.02em;}.cls-129{font-size:10.85px;letter-spacing:0.02em;}</style></defs><title>play</title><g class="cls-1"><path class="cls-2" d="M269.85,61.78c-4.34-2.39-8.22-4.42-12-6.64-1.62-1-2.41-1-3.31.93-1.82,3.86-3.95,7.58-6.34,12.08-1.45-4.64-2.68-8.49-3.85-12.36-1.69-5.61-3.2-11.28-5.05-16.84-.72-2.17-.11-3.08,1.84-3.64,5.63-1.64,11.28-3.22,16.86-5,1.85-.58,2.68,0,3.18,1.65C264,41.71,266.85,51.45,269.85,61.78Z"/><path class="cls-3" d="M297.27,51.32c-3.76-1.84-7.57-3.6-11.27-5.55-1.8-1-2.67-.76-3.5,1.23-1.64,3.94-3.58,7.76-5.7,12.26-2.29-6.32-4.35-12-6.37-17.65-1.41-4-2.69-8-4.18-11.9-.55-1.44-.31-2.16,1.13-2.65q8.89-3,17.74-6.15c1-.34,1.82-.78,2.32.64q5.19,14.63,10.44,29.23Z"/><path class="cls-4" d="M182.35,83.29c-3.79-2.85-7.11-5.23-10.29-7.79-1.74-1.41-2.65-1.83-4.18.55-2.23,3.47-5.18,6.47-7.82,9.65a1.3,1.3,0,0,1-.24-.5c-1.51-9.57-3-19.15-4.53-28.71-.32-2,.1-2.77,2.2-3.06,5.81-.81,11.59-1.83,17.37-2.84,1.74-.3,2.66-.09,2.91,2,.61,5.15,1.59,10.26,2.27,15.4C180.68,72.83,182.34,77.5,182.35,83.29Z"/><path class="cls-3" d="M122.05,90.26c-3.31-3.08-6.49-5.93-9.53-8.92-1.49-1.46-2.38-1.32-3.69.28-2.6,3.16-5.44,6.12-8.59,9.61-1.16-3.75-.61-7.17-.88-10.45-.49-6-.5-12.1-.79-18.15-.21-4.33-.09-4.54,4.36-4.7,5.17-.18,10.36-.2,15.52-.53,2.05-.13,2.81.39,2.87,2.45.2,7.23.58,14.45.76,21.68C122.15,84.3,122.87,87.09,122.05,90.26Z"/><path class="cls-5" d="M212,77.08c-3.28-1.33-5.56-3.51-8.19-5.09-6.49-3.91-4.36-4.55-8.76,2.08-1.64,2.48-3.27,5-5.21,7.92-1.34-6.33-2.58-12-3.74-17.71-.84-4.11-1.51-8.26-2.35-12.37-.42-2,.06-3.12,2.31-3.4a137.45,137.45,0,0,0,16.34-3.33c2.08-.53,3.05-.14,3.51,2.31C207.75,57.22,209.89,66.91,212,77.08Z"/><path class="cls-6" d="M60.35,90c-2.72-3.26-5.35-6.14-7.65-9.26-1.63-2.22-2.84-2.67-5-.55-2.77,2.73-5.87,5.12-9.23,8-.47-3.75.25-7,.47-10.18.48-6.83,1.24-13.64,1.7-20.47.14-2.07.91-2.37,2.75-2.17,5.74.6,11.49,1.07,17.25,1.49,1.84.13,2.7.06,2.54,2.73-.57,9.56-1.69,19.08-2.28,28.63A9.94,9.94,0,0,1,60.35,90Z"/><path class="cls-7" d="M91.86,69.58a31,31,0,0,1-.17,6.66c-.79.44-.92.92-.08,1.46l-.23,13.14-.67.28L80.61,80c-.15-.13-.29-.27-.42-.41-.41-.3-.43.15-.6.33-1.61,2-3.87,2.39-6.22,2.5-3.74.18-4,0-4.13-3.43a23.27,23.27,0,0,1,.18-7.18,3.34,3.34,0,0,1,2-1.06c6-.87,11.94-1.69,17.93-2.37C90.35,68.25,91.63,68,91.86,69.58Z"/><path class="cls-7" d="M69.54,68.13c0-3,.08-6,.08-9,0-1.31.57-1.57,1.82-1.52,6.23.26,12.47.47,18.7.58,1.62,0,2.33.49,2.19,2.17-.18,2-.25,4.07-.36,6.11-.31,1-.11,2.18-1.86,2.38-5.83.64-11.63,1.51-17.44,2.28C69.55,71.49,69.55,71.48,69.54,68.13Z"/><path class="cls-8" d="M237.18,55.31l4.09,14.93c-4.11-2.47-7.52-4.32-10.7-6.51-2.24-1.54-3.84-1.79-5.08,1a2.09,2.09,0,0,1-2.29-.18,3.93,3.93,0,0,1-1.49-2.89,75.68,75.68,0,0,0-1.36-7.81c-.83-3.15.23-4.16,3.54-4.43s6.33-1.06,9.57-1.06c1.37,0,2.05.29,2.05,1.7,0,1.76,1.12,3.32.88,5.16C236.33,55.73,236.95,55,237.18,55.31Z"/><path class="cls-8" d="M233.41,41a15,15,0,0,1,1.34,5c.71,1.34.52,2.28-1.17,2.45-4,.39-7.88,1.21-11.86,1.54-1.08.09-1.86-.14-1.72-1.3.18-1.5-.61-2.86-.43-4.33-.12-.47.48-.7.38-1.14a1.15,1.15,0,0,0-.73.11c-.49.49.54.76.25,1.29-.12.82.48,1.51.43,2.28-.09,1.43.79,3.41-1.41,3.87-2,.43-4.39,1.75-5.89-1.07-2.41-6.15-2.39-6.17,4-7.71l11-2.68a3.24,3.24,0,0,1,2.58-.31c-.55,2.44,1.31.51,1.84,1A2.15,2.15,0,0,1,233.41,41Z"/><path class="cls-9" d="M35.47,57.88a22.82,22.82,0,0,1-1,5.54c-6.44.5-12.8,1.61-19.21,2.36-1.43.17-2.91.62-4.25-.37-.17-1.93.59-3.7.92-5.55,6.74-.39,13.37-1.78,20.1-2.34C33.21,57.42,34.4,57.1,35.47,57.88Z"/><path class="cls-10" d="M34.1,65.74l-1,5C30,72,26.57,71.91,23.29,72.44s-6.6.94-9.91,1.33c-1.25.15-2.55.44-3.67-.47a15,15,0,0,1,.92-6.09,17,17,0,0,0,6.4,0c4.36-.61,8.72-1.2,13.09-1.74C31.45,65.25,32.83,64.89,34.1,65.74Z"/><path class="cls-11" d="M9.71,73.3c6.76-.88,13.52-1.78,20.28-2.64,1-.13,2.1-.61,3.12.07l-.79,3.58c-2.72,2.08-7.85,2.56-10.52,1-2.14-2.1-2.9,1.24-4.54,1.15a10.35,10.35,0,0,1-6.39,1.64c-1,0-2.35,0-1.94-1.73Z"/><path class="cls-12" d="M306.78,44.92l-1.48,3.89a21.5,21.5,0,0,1-2.49-5.87c-1.74-7.36-2.46-14.88-3.43-22.36-.4-3.12.44-3.94,3.4-3.85a5.31,5.31,0,0,1,1.33,3.48c.93,6.67,1.79,13.36,2.71,20C307,41.82,306.7,43.36,306.78,44.92Z"/><path class="cls-13" d="M313.38,34.77c-.8-.08-1.5-.74-2.37-.38-1.41-1-1.33-2.54-1.55-4-.67-4.44-1.15-8.91-2.13-13.35a3.51,3.51,0,0,0-.31,2.79c.59,4.56,1.18,9.12,1.83,13.67a16.33,16.33,0,0,1-.1,6.39l-.48,1.12a2.61,2.61,0,0,1-1.14-2C306,31,304.54,23,304,14.79c.14-.81.44-1.38,1.45-1.3a2.11,2.11,0,0,0,2.38-1.55,5.1,5.1,0,0,1,2.39-1c1.08.5,3.51-.44,2.46,2.33-.75,1.81-.38,3.62-.07,5.44.71,4.11,1.31,8.24,1.65,12.39C314.37,32.35,314.93,33.87,313.38,34.77Z"/><path class="cls-14" d="M34.1,65.74c-7.25,1-14.49,2.06-21.73,3.13-1.44.21-1.63-.63-1.74-1.67L11,65.41c6.93-.93,13.86-1.88,20.8-2.78.95-.12,2.18-.81,2.67.79Z"/><path class="cls-15" d="M35.47,57.88,14.31,60.8c-1,.13-2,.46-2.34-.93l.47-2.31c.81-1.18,2.1-1.31,3.34-1.51,3.07-.5,6.18-.63,9.24-1.17,1.32-.06,2.69.37,4-.33,2-.65,4.07,0,6.11-.19C36.79,55.36,35.3,56.71,35.47,57.88Z"/><path class="cls-8" d="M216.2,63.47a51.59,51.59,0,0,1-2.47-9.63c-1.06-2.12-.39-2.9,2-3,4.18-.21,4.14-.31,5.13,3.69.7,2.84.85,5.75,1.32,8.62a5.53,5.53,0,0,1,0,1,1.8,1.8,0,0,1-.7,1.13c-.81.41-1.46-.67-2.56,0C217.55,66.13,217,64.24,216.2,63.47Z"/><path class="cls-16" d="M304.6,13.7l3.67,27.36-1.49,3.86c-1-1.75-.85-3.77-1.12-5.67-1.06-7.43-2-14.86-3-22.3a2.68,2.68,0,0,1-.73-1.14,2,2,0,0,1,.39-1.73l2.24-.88c.24.07.33.17.28.29S304.68,13.69,304.6,13.7Z"/><path class="cls-3" d="M128.53,77a9.64,9.64,0,0,1-.39-4.07c6.23-.25,12.33-1.53,18.51-2.19,1.33-.14,2.69-.62,4,.16L151,74a3.47,3.47,0,0,1-2.6,1.14q-8.54,1.19-17.1,2.28A3.33,3.33,0,0,1,128.53,77Z"/><path class="cls-3" d="M127.47,65.3l-.38-3.44a5.34,5.34,0,0,1,3-.92c5.18-.7,10.37-1.41,15.56-2.07,1.33-.17,2.69-.51,4,.28L150,62.3a3.41,3.41,0,0,1-2.58,1.17l-17.15,2.29A3.52,3.52,0,0,1,127.47,65.3Z"/><path class="cls-17" d="M308.75,39.94c-1-7.47-2-14.95-3.15-22.41-.24-1.6.27-2.6,1.74-2.76s1.08,1.35,1.2,2.15c.87,5.81,1.65,11.64,2.46,17.46A17.43,17.43,0,0,1,308.75,39.94Z"/><path class="cls-3" d="M128.18,71.09,127.84,68a2.79,2.79,0,0,1,1.37-.8,10.86,10.86,0,0,1,1.07-.21q8.13-1.11,16.26-2.17c1.14-.15,2.32-.52,3.41.25l.41,3a4,4,0,0,1-2.86,1.25q-8.1,1.11-16.21,2.17A4.06,4.06,0,0,1,128.18,71.09Z"/><path class="cls-18" d="M149.62,59.14c-7.51.93-14.94,2.48-22.53,2.71l-.24-2a1.88,1.88,0,0,1,1.22-1.29,29.75,29.75,0,0,1,3.18-.63c.78-.12,1.55-.24,2.33-.32,1.11-.1,2.22-.25,3.32-.45a18,18,0,0,1,2.38-.3c.94-.1,1.87-.23,2.8-.35a9.07,9.07,0,0,1,2.26-.09,6.66,6.66,0,0,0,3.74-.31,1.46,1.46,0,0,1,1.21.28Z"/><path class="cls-19" d="M25.6,55.6l-13.17,2a15.77,15.77,0,0,1,.92-5,3.17,3.17,0,0,1,1.57.06,1.84,1.84,0,0,0,2.34-.37c1-.68,2.15.15,3.1-.52,5,.61,9.85,1.55,14.72,2.62l-6.42,1C27.69,55.85,26.56,54.87,25.6,55.6Z"/><path class="cls-20" d="M319.75,37.55,317,36.37a4.83,4.83,0,0,1-1.14-2.93c-.85-6.25-1.72-12.5-2.48-18.77-.17-1.37-.63-2.89.57-4.11l4,10.07c.83,3.91,1.45,7.85,2,11.8C320.31,34.14,320.78,35.9,319.75,37.55Z"/><path class="cls-21" d="M313.38,34.77c.24-5.51-1.08-10.85-1.77-16.26-.18-1.44-.31-2.9-.46-4.34-.12-1.2.68-1.48,1.63-1.62,1.11-.16,1,.73,1.05,1.34q1.35,9.83,2.64,19.68c.14,1.09.41,2.32-1.44,2A2.34,2.34,0,0,1,313.38,34.77Z"/><path class="cls-22" d="M149.94,65.07l-20.28,2.5c.07-.47.42-.58.82-.64,5.21-.71,10.42-1.39,15.62-2.1l-15.14,2a3.82,3.82,0,0,0-2.16.79l-1,.37-.38-2.71,22.54-3C150.08,63.22,150.42,64.16,149.94,65.07Z"/><path class="cls-23" d="M296.62,16.47a3.48,3.48,0,0,1,2.3-.89c1.51,1.23.61,3,.84,4.43.93,6,1.69,12,2.44,18.07.1.84.89,1.88-.3,2.62l-3.16-7.86a59.09,59.09,0,0,1-2.52-13.29c0-.53-.11-1.06-.1-1.59A3.06,3.06,0,0,1,296.62,16.47Z"/><path class="cls-24" d="M319.75,37.55c-.61-4.6-1.23-9.2-1.82-13.81-.13-1-.57-2.09.1-3.11a65.77,65.77,0,0,1,4.53,11.3c.3,2.4,2.3,4.62.77,7.22A7.61,7.61,0,0,1,319.75,37.55Z"/><path class="cls-25" d="M221.65,63.94c-.48-3.6-1-7.19-1.42-10.79-.21-1.9-.67-3.1-2.9-2a2.41,2.41,0,0,1-1.44.19c-2.34-.5-2.42.86-2.18,2.54a9.2,9.2,0,0,1-1.12-4.14c2,1.74,4.2.51,6.3.19.85-.13.71-1,.63-1.69-.18-1.53-.4-3.06-.6-4.58a.68.68,0,0,1,1.17-.16c-.62,1.84.81,3.53.34,5.44-.2.83.89.82,1.57.73,3.79-.5,7.57-1,11.37-1.5,1.38-.17,1.45-1.06,1.37-2.11a51.89,51.89,0,0,1,2.43,9.3l-.85,1.46a29.16,29.16,0,0,1-1.23-5.59c0-1.79.18-1.93-2.13-2-3.59-.07-6.89,1.45-10.44,1-1.35-.16-2,.72-1.66,2.33.66,2.94,1.1,5.92,1.63,8.89C221.72,62.11,223.32,63.58,221.65,63.94Z"/><path class="cls-26" d="M80.52,79.15l.09.83c-2,.9-3.05,2.84-4.76,4a3,3,0,0,0-1.52,1.45L68.88,90.8a11.68,11.68,0,0,1,.06-4.7c1.09-.57.53-1.14,0-1.71a16.87,16.87,0,0,1,.3-5.42c.5,2.48,2,3,4.4,2.69,2.16-.29,4.25-.46,5.77-2.27A.81.81,0,0,1,80.52,79.15Z"/><path class="cls-27" d="M216.2,63.47c1.24.14,2.22,3,3.72.34l1.31,1.37a4.51,4.51,0,0,0,1.93-.76l.32-.13,2,.41c-1.58,3.69-3.85,7-6.23,11.24l-1.2-5.05c.33-.62.94-1.12.86-1.91-.2-.34-.5-.18-.78-.14a.8.8,0,0,1-.61-.13A17.72,17.72,0,0,1,216.2,63.47Z"/><path class="cls-3" d="M133.61,58.41l-2.28.3a5.31,5.31,0,0,0-3.45.44l-1,.71c-.78-2.05-.19-3,2.11-3.2,6.09-.5,12.16-1.16,18.24-1.79,1.2-.12,2.19-.08,2.1,1.52l-1,.18a6,6,0,0,1-3.51.47l-2.3.2a4.77,4.77,0,0,0-3.16.38l-2.23.32A5.78,5.78,0,0,0,133.61,58.41Z"/><path class="cls-28" d="M128.18,71.09l22.17-3,.29,2.8c-6.44.86-12.88,1.74-19.32,2.57-1.08.14-2.32.78-3.18-.53l.16-.67c3.94-1.13,8-1.28,12.07-1.84.69,1.3-.46,1.14-1.06,1.23-2.91.44-5.84.8-8.76,1.2,6-.78,12-1.65,17.59-2.33.84-.21.19-.69.45-.4.08.09,0,.16-.19.22a46.44,46.44,0,0,1-5.47.83c-.58.09-1.2.12-1.26-.74,1.83-.8,3.84-.57,5.26-.94-5.91.61-12.22,2-18.67,2.19Z"/><path class="cls-29" d="M21.79,75.3c3.57.33,7-.76,10.52-1-.11,1.89-.05,3.81-.86,5.59-2.23-.13-4.51.72-6.69-.33A14,14,0,0,1,21.79,75.3Z"/><path class="cls-30" d="M139.2,78q0,.17-.06.33c-.28.94-1.15,1-1.85,1a38.8,38.8,0,0,0-6.29.78c-1,.25-1.94,0-2.08-1.31-.23-1.1.22-1.61,1.33-1.76,6.41-.84,12.83-1.71,19.24-2.56,1-.13,1.49.24,1.55,1.23a1.21,1.21,0,0,1-.34,1c-3.36,1.19-6.77,1.93-10.34,1h0c-.3-.39,0-.61.24-.85A2,2,0,0,0,139.2,78Z"/><path class="cls-3" d="M129.27,79.27l9.88-1c-.3,1.75-1.64,2.66-2.92,3.62-2.21,1.45-4.51,2.17-7.07.89l-.39-3.37Q128.87,78.88,129.27,79.27Z"/><path class="cls-3" d="M151.35,76.4l.35,3.43a7.43,7.43,0,0,1-7.66,1l-3-2.56c3.18-1.23,6.7-.65,9.87-1.9h0Q151.13,75.9,151.35,76.4Z"/><path class="cls-31" d="M296.94,19l1.79,13.88A120.57,120.57,0,0,1,293.51,20l.19-.41C294.69,19,295.64,18.07,296.94,19Z"/><path class="cls-32" d="M8.93,76.36c.49,1.4,1.59.79,2.48.71,1.95-.17,3.89-.41,5.84-.62a18.66,18.66,0,0,1-7.16,5c-.78-.16-1.37.8-2.19.38Z"/><path class="cls-33" d="M315,35.51c1.06-.29,1.29-1,1.15-2-.92-6.68-1.81-13.35-2.75-20,0-.33-.43-.61-.65-.92-.32-1.38-2.66.48-2.54-1.59,1.24-.33,2.29-2.45,3.77-.39.07,5.67,1.34,11.2,1.94,16.81.32,3,.74,6,1.11,9A3.11,3.11,0,0,1,315,35.51Z"/><path class="cls-34" d="M301.89,40.69c.49-2.75-.4-5.38-.72-8.06-.66-5.7-1.5-11.37-2.26-17.05l.06-.11c1.14.32,2.33-.24,3.47.18l.18,1.3c-2.38.12-2.82,1.41-2.5,3.58,1,6.4,1.76,12.81,2.6,19.23.14,1.05.53,2.11.08,3.18Z"/><path class="cls-35" d="M24.76,79.57c1.59-.25,3.19-.5,4.78-.77,1-.16,1.7,0,1.91,1.1L31,82.2c-1.13,1.42-2.48,1.47-4,.67Z"/><path class="cls-36" d="M69.54,68.13c0,2.42,1.11,3.07,3.54,2.66,5.67-1,11.38-1.67,17.08-2.35,1.4-.17,1.09-1.47,1.8-2a5.46,5.46,0,0,1-.1,3.16c-.91-1-2-.47-3-.34-6.47.83-12.93,1.7-19.4,2.56A6.75,6.75,0,0,1,69.54,68.13Z"/><path class="cls-37" d="M151.35,76.4a2.43,2.43,0,0,1-.48,0c-.11-1.43-.92-1.69-2.21-1.51q-8.82,1.24-17.65,2.36c-1.29.16-2,.63-1.74,2a3.66,3.66,0,0,1-.49.15L128.53,77,151,74Z"/><path class="cls-38" d="M140.59,70.62,128.3,72.26l0-.59,20.8-2.78.1.58-7.4,1A.77.77,0,0,1,140.59,70.62Z"/><path class="cls-39" d="M27,82.86l4-.67c-.17,1.49.31,3.79-1.27,4.05C28.32,86.48,27.62,84.28,27,82.86Z"/><path class="cls-40" d="M20.37,51.73c-.95,1-2.31.59-3.44,1-.7.74-1.55.53-2.39.38l-1.19-.53c0-1.43.51-2.22,2.17-1.79S18.75,51.41,20.37,51.73Z"/><path class="cls-41" d="M323.33,39.15l-.78-7.22c1.48,2.46,2.25,5.22,3.45,8A3.15,3.15,0,0,1,323.33,39.15Z"/><path class="cls-42" d="M233.41,41l-1.25-.43c-.5-.56-1.51-.1-1.88-.92-.79-.78-1.74-.27-2.63-.31l2.16-.82C232.2,37.61,233.56,38.21,233.41,41Z"/><path class="cls-37" d="M150.87,76.38c-3.14,1.44-6.64,1-9.87,1.9l-.63-.5Z"/><path class="cls-43" d="M302.44,15.65c-1.19.48-2.41,1.6-3.47-.18a8,8,0,0,1,3.3-1.39Z"/><path class="cls-17" d="M304.6,13.7l-.09-.5,3.32-1.26C307.93,14.67,306.51,14.63,304.6,13.7Z"/><path class="cls-44" d="M296.62,16.47l.19,1.16c-.91,1.05-1.71,2.59-3.26.72a1.49,1.49,0,0,1,.26-.83A6.51,6.51,0,0,1,296.62,16.47Z"/><path class="cls-45" d="M182.38,51.45c-1.42.82-2.33,1.16-3.57.59C179.75,51,180.71,50.91,182.38,51.45Z"/><path class="cls-46" d="M91.6,77.69c-.73.11-1.69.38-1.64-.75s1-.8,1.72-.71Q91.64,77,91.6,77.69Z"/><path class="cls-47" d="M68.94,84.39c.83,0,1.71.17,1.51,1.26-.15.83-.77,1.09-1.52.45Z"/><path class="cls-37" d="M139.2,78c-.36-2.75,1.94-.64,2.73-1.35l-1.57,1.17Z"/><path class="cls-48" d="M209.77,45.62c-.85.55-1.57,1.35-2.79.66A2.56,2.56,0,0,1,209.77,45.62Z"/><path class="cls-49" d="M234.8,39.48c.92-1.42,1.79-1.22,2.82-1.43C237.07,39.46,236.15,39.28,234.8,39.48Z"/><path class="cls-50" d="M262.2,30.93a2.28,2.28,0,0,1,2.65-1.08C264.33,30.87,263.55,31,262.2,30.93Z"/><path class="cls-51" d="M154.27,56.19l-3.67.49C151.75,55.55,152.58,55.47,154.27,56.19Z"/><path class="cls-52" d="M93.59,60.42c1.3-1,2.2-.62,3.31-.23A3.6,3.6,0,0,1,93.59,60.42Z"/><path class="cls-53" d="M7.9,81.84c.69-.36,1.3-1.17,2.19-.38C9.38,81.71,9,84.08,7.9,81.84Z"/><path class="cls-54" d="M67.8,59.63a1.73,1.73,0,0,1-2.57-.08A2,2,0,0,1,67.8,59.63Z"/><path class="cls-55" d="M122.54,59a2.66,2.66,0,0,1,2.95-.05A2.5,2.5,0,0,1,122.54,59Z"/><path class="cls-56" d="M74.33,85.48c-.15-1.17.16-1.86,1.52-1.45A2.2,2.2,0,0,1,74.33,85.48Z"/><path class="cls-57" d="M9.25,51.84c1-.84,1.54,0,2.47,0C10.59,53,10.06,52.16,9.25,51.84Z"/><path class="cls-58" d="M318.26,9.67c-.57.83-1.06,1.18-1.87.93C316.59,9.61,317.23,9.5,318.26,9.67Z"/><path class="cls-59" d="M290.53,21.22a3.69,3.69,0,0,1-.92.3.3.3,0,0,1-.26-.52,1.36,1.36,0,0,1,.71-.41C290.37,20.52,290.59,20.7,290.53,21.22Z"/><path class="cls-60" d="M293.81,17.52l0,.59c-.37.52.17,1.14-.19,1.67l-.15.23C293,19.1,291.85,18.12,293.81,17.52Z"/><path class="cls-61" d="M38.48,57c-.38.21-.61.45-.79.42s-.44-.29-.66-.45c.2-.14.39-.39.6-.39S38.07,56.77,38.48,57Z"/><path class="cls-62" d="M245.48,36.07c.84-1,1.49-1.32,2.29-.38C247.17,36.41,246.47,36.36,245.48,36.07Z"/><path class="cls-63" d="M251.24,34.26a2.53,2.53,0,0,1,2.59-.62A2.66,2.66,0,0,1,251.24,34.26Z"/><path class="cls-64" d="M258.76,32.33c-.93.41-1.18.62-1.39.58s-.36-.31-.54-.48c.21-.14.4-.37.62-.4A5.45,5.45,0,0,1,258.76,32.33Z"/><path class="cls-65" d="M286.44,22.28c-.55,1.28-1.51,1.2-2.75,1.13A2.36,2.36,0,0,1,286.44,22.28Z"/><path class="cls-66" d="M270.6,28c-.72,1.29-1.65,1-2.53,1A2.12,2.12,0,0,1,270.6,28Z"/><path class="cls-67" d="M280.83,24.7c-.13.1-.3.35-.52.39-.4.08-.77-.1-.67-.56,0-.17.41-.34.65-.39S280.83,24.22,280.83,24.7Z"/><path class="cls-68" d="M167.91,54.07c.73-1.12,1.68-1.12,2.87-.75C170,54.64,168.89,54.17,167.91,54.07Z"/><path class="cls-69" d="M162.46,54.38l2.31-.31C164.18,55.1,163.38,55.2,162.46,54.38Z"/><path class="cls-70" d="M159.86,55.22a4.37,4.37,0,0,1-3.18.51C157.4,54.42,158.33,54.78,159.86,55.22Z"/><path class="cls-71" d="M173.7,52.9a2.76,2.76,0,0,1,2.51-.51C175.46,53.25,174.64,53.09,173.7,52.9Z"/><path class="cls-72" d="M119.43,59.15a2.29,2.29,0,0,1-2.84.54A2,2,0,0,1,119.43,59.15Z"/><path class="cls-73" d="M113.61,59.9l-2.26.3c-.07-.23-.21-.47-.16-.54C111.94,58.73,112.75,59.46,113.61,59.9Z"/><path class="cls-74" d="M102.27,60.2l-2.66.36A2.1,2.1,0,0,1,102.27,60.2Z"/><path class="cls-75" d="M105.69,60.13a2.32,2.32,0,0,1,2.21-.3A2,2,0,0,1,105.69,60.13Z"/><path class="cls-76" d="M189.77,50a3.42,3.42,0,0,1,3.6-.93C192.56,50.46,191.48,50.15,189.77,50Z"/><path class="cls-77" d="M199.63,48.36l-4,.72C197.08,48.07,197.74,47.36,199.63,48.36Z"/><path class="cls-78" d="M184.79,51.14c.93-1.1,1.71-.83,2.83-1.09A3.35,3.35,0,0,1,184.79,51.14Z"/><path class="cls-79" d="M202.18,47.39a1.53,1.53,0,0,1,1.8-.53C203.61,47.86,202.79,47.25,202.18,47.39Z"/><path class="cls-80" d="M56.8,59c-1.07.51-2,.74-3-.21C54.91,58.13,55.82,58,56.8,59Z"/><path class="cls-81" d="M60.4,58.76c.51.06,1.08-.12,1.15.54,0,.15-.32.45-.52.48-.46.06-1,0-1.1-.56C59.9,59.1,60.26,58.89,60.4,58.76Z"/><path class="cls-82" d="M44.68,58.49c-.21-.22-.52-.4-.52-.58,0-.48.4-.6.78-.48.2.07.32.37.47.57Z"/><path class="cls-83" d="M48.47,58.26c.53-.46,1.31-.61,1.53-.16.45.94-.36.71-.85.59A2.6,2.6,0,0,1,48.47,58.26Z"/><path class="cls-84" d="M74.33,78.41a.76.76,0,1,1-.14,1.52.7.7,0,0,1-.62-.82C73.6,78.64,73.92,78.46,74.33,78.41Z"/><path class="cls-85" d="M85.52,72.29c0,.55-.27.89-.86.91a.72.72,0,0,1-.77-.69.78.78,0,0,1,.84-.91C85.19,71.59,85.39,71.91,85.52,72.29Z"/><path class="cls-86" d="M90.7,71.5c0,.39.05.86-.46.83a1.24,1.24,0,0,1-.87-.54c-.21-.36,0-.74.47-.81A.7.7,0,0,1,90.7,71.5Z"/><path class="cls-87" d="M85.25,76.95c.41,0,.77.08.88.52s0,.84-.46.82a1.23,1.23,0,0,1-.88-.53C84.59,77.4,84.79,77,85.25,76.95Z"/><path class="cls-88" d="M73.66,74.64c-.17-.17-.6-.42-.6-.68a1.08,1.08,0,0,1,.61-.82c.39-.13.73.21.78.63S74.29,74.5,73.66,74.64Z"/><path class="cls-89" d="M79.69,73c0,.42-.08.8-.54.84a.66.66,0,0,1-.76-.66.9.9,0,0,1,.46-.64C79.25,72.37,79.57,72.56,79.69,73Z"/><path class="cls-90" d="M86.06,82.63c.41,0,.83.18.79.61s-.4.56-.61.84c-.28-.22-.7-.38-.8-.66S85.67,82.75,86.06,82.63Z"/><path class="cls-91" d="M80.52,79.15l-1.12.24c-.38-.6-.81-1.35.2-1.6S80.42,78.55,80.52,79.15Z"/><path class="cls-92" d="M88.34,65.21c.64-.06,1.47-.4,1.63.56.2,1.18-.79,1-1.52,1.12C87.93,66.36,87.72,65.81,88.34,65.21Z"/><path class="cls-93" d="M84,61.58a.73.73,0,0,1-.86.56.7.7,0,0,1-.59-1,.72.72,0,0,1,.95-.41A.72.72,0,0,1,84,61.58Z"/><path class="cls-94" d="M78.39,68.19c-.39,0-.77,0-.86-.48a.78.78,0,0,1,.69-1c.45-.08.69.27.74.64A.71.71,0,0,1,78.39,68.19Z"/><path class="cls-95" d="M88.55,60.05c.15.19.47.43.56.74.13.49-.29.63-.68.65s-.67-.3-.72-.7S87.94,60.08,88.55,60.05Z"/><path class="cls-96" d="M73,62.82a.72.72,0,0,1-.74.79.62.62,0,0,1-.71-.7.78.78,0,0,1,.75-.76C72.78,62.09,72.87,62.5,73,62.82Z"/><path class="cls-97" d="M83.27,66.8c.06-.42.29-.72.73-.69a.6.6,0,0,1,.6.77.87.87,0,0,1-.57.51A.6.6,0,0,1,83.27,66.8Z"/><path class="cls-98" d="M77.41,61.47a.61.61,0,0,1,.78.57.86.86,0,0,1-.35.68.61.61,0,0,1-.91-.37C76.79,61.93,77,61.64,77.41,61.47Z"/><path class="cls-99" d="M73,67.58c.15.16.44.33.5.55.12.43-.16.71-.58.76s-.59-.06-.55-.45S72.49,67.71,73,67.58Z"/><path class="cls-100" d="M88.34,65.21l.11,1.68c-.53-.17-1.1-.35-1.11-1S87.91,65.28,88.34,65.21Z"/><path class="cls-101" d="M232.55,64.19A21.38,21.38,0,0,0,237,58.72c.23,2.63,1.23,4.91.6,7.74C237.39,62.65,235,64.08,232.55,64.19Z"/><path class="cls-102" d="M234.05,59.59c0,.83-.34,1.41-1.11,1.53a1.32,1.32,0,1,1-.32-2.62A1.33,1.33,0,0,1,234.05,59.59Z"/><path class="cls-103" d="M224.72,54.73c-.76.06-1.33-.21-1.4-1a1.16,1.16,0,0,1,1.11-1.38,1.11,1.11,0,0,1,1.24.93C225.87,54,225.49,54.52,224.72,54.73Z"/><path class="cls-104" d="M226.52,60.63a1.17,1.17,0,0,1-.84,1.34c-.82.18-1.28-.33-1.35-1.1s.45-1.05,1-1.2C226.09,59.5,226.36,60,226.52,60.63Z"/><path class="cls-105" d="M232,53.52a.8.8,0,0,1-1-.73,1,1,0,0,1,.65-1.16c.6-.21.87.22,1,.74A.93.93,0,0,1,232,53.52Z"/><path class="cls-27" d="M221.65,63.94l.85-2.49a4.92,4.92,0,0,0,1,2.84h0a1.24,1.24,0,0,1-1.75.23Z"/><path class="cls-106" d="M232,44.72a1.23,1.23,0,0,1-1,1.45,1.17,1.17,0,0,1-1.51-.92,1.15,1.15,0,0,1,1-1.48A1.25,1.25,0,0,1,232,44.72Z"/><path class="cls-107" d="M217.07,46.89a1.11,1.11,0,0,1-1.19,1.27,1.07,1.07,0,0,1-1.17-1,1.14,1.14,0,0,1,1-1.41C216.56,45.65,217,46.12,217.07,46.89Z"/><path class="cls-108" d="M223.19,44.92a1,1,0,0,1,.43,2,.92.92,0,0,1-1.14-.63C222.24,45.61,222.57,45.16,223.19,44.92Z"/><path class="cls-109" d="M223.2,42l3.21-.91C225.77,42,225.17,42.88,223.2,42Z"/><path class="cls-110" d="M230.28,39.63c.54.48,1.77-.44,1.88.92l-2.86.38C229.19,40.09,230.22,40.24,230.28,39.63Z"/><path class="cls-111" d="M220.1,43.46l-1.17.16-.64-.4a2.82,2.82,0,0,1,2.34-.29Z"/><path class="cls-112" d="M215.32,44.28c-1,.47-1.49,1.07-2.44.51C213.44,44,214.14,44.09,215.32,44.28Z"/><path class="cls-113" d="M34,56.52c-.88.56-1.61.13-2.37-.15.15-.87.69-.88,1.29-.7C33.33,55.8,33.81,55.92,34,56.52Z"/><path class="cls-114" d="M25.6,55.6c.92-1.15,2-.54,3.07-.29C27.76,56.61,26.62,55.43,25.6,55.6Z"/><path class="cls-115" d="M219.08,61.83c-.05.72-.43,1.29-1.25,1.22a1.19,1.19,0,0,1-1.19-1.37,1.15,1.15,0,0,1,1.12-1.13C218.56,60.5,219,61,219.08,61.83Z"/><path class="cls-116" d="M217.85,54.21c.16.76,0,1.18-.57,1.3a1.08,1.08,0,0,1-1.36-.71.91.91,0,0,1,.75-1.26A1.08,1.08,0,0,1,217.85,54.21Z"/><path class="cls-25" d="M221.73,64.52l1.75-.23c-.21,1.66-1.12,1.56-2.26.89Z"/><path class="cls-117" d="M128.8,67.63c-.23-.44-.12-.77.38-.83,6.07-.82,12.15-1.63,18.25-2.22-5.85,1.5-11.93,1.54-17.78,3Z"/><path class="cls-118" d="M127.87,59.15c1-1.58,2.22-.92,3.45-.44Z"/><path class="cls-119" d="M144.79,57.06l3.51-.47A2.92,2.92,0,0,1,144.79,57.06Z"/><path class="cls-120" d="M133.61,58.41a2.83,2.83,0,0,1,3.5-.46Z"/><path class="cls-121" d="M139.34,57.64a2.49,2.49,0,0,1,3.16-.38Z"/><path class="cls-122" d="M20.08,54.27c1-.7,1.94-.43,3.12.34C21.78,55.22,21,54.52,20.08,54.27Z"/><path class="cls-123" d="M14.54,53.08l2.39-.38a6.79,6.79,0,0,1,.25,1C16.19,54.06,15.38,53.51,14.54,53.08Z"/><path class="cls-124" d="M293.66,19.78c-.15-.58-.36-1.17.19-1.67,1.22,1.3,2,0,3-.48l.13,1.32Z"/><path class="cls-125" d="M219.85,68.38l-1.76.15C218.53,66.69,219.19,67.5,219.85,68.38Z"/><path class="cls-126" d="M140.59,70.62l1.16-.16c2.55,1,5.07-.61,7.62,0l-19.64,2.63C133.21,71.59,137.2,72.5,140.59,70.62Z"/></g><text class="cls-127" transform="matrix(1, -0.01, 0.01, 1, 133.51, 73.56)">玩</text><text class="cls-128" transform="translate(162.13 69.75) rotate(-1.81)">玩</text><text class="cls-129" transform="translate(190.98 65.78) rotate(0.72)">之</text><text class="cls-129" transform="translate(219.81 58.09) rotate(0.72)">音</text></svg>