<svg id="圖層_1" data-name="圖層 1" xmlns="http://www.w3.org/2000/svg" viewBox="0 0 126 75"><defs><style>.cls-1,.cls-3{fill:#e8aa67;}.cls-2{fill:#fff;}.cls-3{font-size:17.36px;font-family:MicrosoftJhengHeiBold, Microsoft JhengHei;font-weight:700;}.cls-4{letter-spacing:-0.05em;}.cls-5{fill:#dda064;}</style></defs><title>Top</title><polygon class="cls-1" points="31.23 3 17.67 26.5 44.8 26.5 31.23 3"/><path class="cls-1" d="M31.5,73.5a30,30,0,1,1,30-30A30,30,0,0,1,31.5,73.5Z"/><path class="cls-1" d="M31.5,15A28.5,28.5,0,1,1,3,43.5,28.53,28.53,0,0,1,31.5,15m0-3A31.5,31.5,0,1,0,63,43.5,31.5,31.5,0,0,0,31.5,12Z"/><path class="cls-2" d="M31.5,66.5a23,23,0,1,1,23-23A23,23,0,0,1,31.5,66.5Z"/><path class="cls-1" d="M31.5,22A21.5,21.5,0,1,1,10,43.5,21.52,21.52,0,0,1,31.5,22m0-3A24.5,24.5,0,1,0,56,43.5,24.5,24.5,0,0,0,31.5,19Z"/><text class="cls-3" transform="translate(15.46 51.45)"><tspan class="cls-4">T</tspan><tspan x="9.39" y="0">OP</tspan></text><polygon class="cls-1" points="94.23 3 80.67 26.5 107.8 26.5 94.23 3"/><path class="cls-5" d="M94.5,73.5a30,30,0,1,1,30-30A30,30,0,0,1,94.5,73.5Z"/><path class="cls-5" d="M94.5,15A28.5,28.5,0,1,1,66,43.5,28.53,28.53,0,0,1,94.5,15m0-3A31.5,31.5,0,1,0,126,43.5,31.5,31.5,0,0,0,94.5,12Z"/><path class="cls-2" d="M94.5,66.5a23,23,0,1,1,23-23A23,23,0,0,1,94.5,66.5Z"/><path class="cls-1" d="M94.5,22A21.5,21.5,0,1,1,73,43.5,21.52,21.52,0,0,1,94.5,22m0-3A24.5,24.5,0,1,0,119,43.5,24.5,24.5,0,0,0,94.5,19Z"/><text class="cls-3" transform="translate(78.46 51.45)"><tspan class="cls-4">T</tspan><tspan x="9.39" y="0">OP</tspan></text></svg>