<?xml version="1.0" encoding="utf-8"?>
<!-- Generator: Adobe Illustrator 22.0.0, SVG Export Plug-In . SVG Version: 6.00 Build 0)  -->
<svg version="1.1" id="圖層_1" xmlns="http://www.w3.org/2000/svg" xmlns:xlink="http://www.w3.org/1999/xlink" x="0px" y="0px"
	 viewBox="0 0 162.3 145.9" style="enable-background:new 0 0 162.3 145.9;" xml:space="preserve">
<style type="text/css">
	.st0{stroke:#000000;stroke-miterlimit:10;}
</style>
<polygon points="61.7,-0.2 6.8,52 69,12.2 "/>
<polygon points="76.6,10.9 129.6,97.7 56.9,144.3 56.1,142.9 55.3,143.6 1.1,57.5 56.5,146.4 131.6,98.1 77.1,8.8 69.8,13.5 
	70.6,14.8 "/>
<path d="M93.8,101.8l30.4-69.4c8.4,10,14.2,8,26.3,16.8c20.9,19.4-12.3,35.8-16.9,14l-2.9,0.8c6.3,23.9,41,12.4,29.7-12.5
	c-7.5-15.7-21.8-17-26.3-33.1c-0.3-1.9-0.6-3.4-1-4.6l0,0c-1.2-5.3-4.8-7.1-4.8-7.1l-35,78.5c-4.9-9.7-17.7-15.1-30.7-12.4
	C47.7,75.9,38.1,88.3,41,100.6c3,12.3,17.4,19.8,32.3,16.7C83,115.1,90.5,109.2,93.8,101.8L93.8,101.8L93.8,101.8z"/>
<line class="st0" x1="1" y1="57" x2="57" y2="146"/>
</svg>
