<svg id="圖層_1" data-name="圖層 1" xmlns="http://www.w3.org/2000/svg" viewBox="0 0 31 228"><defs><style>.cls-1{fill:#e8aa67;}</style></defs><title>word_line</title><path class="cls-1" d="M19.17,215.18c1.39.25,2.11,1.48,2.15,3.71a6.68,6.68,0,0,1-.15,1.55c-.1.39-.18.58-.24.57l-1.29-.23h0a1.11,1.11,0,0,0,.17-.21,2.15,2.15,0,0,0,.29-.62,3.19,3.19,0,0,0,.13-1,2,2,0,0,0-.39-1.4,2,2,0,0,0-1.14-.56l-5.89-1v-1.92l6.35,1.12Zm-.62-4.35a4.16,4.16,0,0,0,1.21-.11.9.9,0,0,0,.76-.92,4,4,0,0,0-.24-1.5,3.12,3.12,0,0,0-.4-.75l1,.44c.06,0,.15.2.24.57a5.13,5.13,0,0,1,.15,1.37c0,.21,0,.38,0,.5a2.34,2.34,0,0,1-.76,1.8,2.8,2.8,0,0,1-2.12.25A4.3,4.3,0,0,1,16,211.35a3.11,3.11,0,0,1-.79-2.18c0-1.08.28-1.76.85-2A3,3,0,0,1,18,207l.38.08.22.06v3.72ZM16,209.14q0,1.24,1.79,1.55v-2.63Q16,207.74,16,209.14Zm5.31-7.41-.63-.11a1.52,1.52,0,0,1,.41.55,3.1,3.1,0,0,1,.24,1.42,2.12,2.12,0,0,1-.43,1.3,1.24,1.24,0,0,1-1.24.34,1.92,1.92,0,0,1-1.37-.89,4.5,4.5,0,0,1-.55-2.06,2,2,0,0,0-.31-1,.92.92,0,0,0-.58-.43.58.58,0,0,0-.56.2,1.1,1.1,0,0,0-.24.76,3.29,3.29,0,0,0,.39,1.7,3.87,3.87,0,0,0,.65.88l-1.2-.47a1.07,1.07,0,0,1-.19-.31,3.81,3.81,0,0,1-.3-.83,4.71,4.71,0,0,1-.15-1.21,3,3,0,0,1,.47-1.94,1.26,1.26,0,0,1,1.25-.41l4.33.76v1.71Zm-.94.67c-.15-.58-.39-.9-.72-1l-1.38-.24.13.09a.78.78,0,0,1,.22.3,2.07,2.07,0,0,1,.16.65,3.48,3.48,0,0,0,.31,1.14,1,1,0,0,0,.75.5c.41,0,.62-.26.62-.88a2.21,2.21,0,0,0-.09-.59Zm-3.7-10.85,4.64.82v1.27l-4.42-.78q-.76-.14-.76,1a1.47,1.47,0,0,0,.35.88,1.8,1.8,0,0,0,.47.38l4.37.77v1.7l-6-1.06v-1.7l.49.09-.16-.27a2.72,2.72,0,0,1-.25-.63,3.3,3.3,0,0,1-.11-.9,1.66,1.66,0,0,1,.43-1.31,1.15,1.15,0,0,1,1-.27Zm4.17-10.35c.06,0,.16.25.31.71a6,6,0,0,1,.24,1.64q0,2.19-1.11,2.87a5.15,5.15,0,0,1-3.47.26,7.29,7.29,0,0,1-2.14-.77,3.49,3.49,0,0,1-1.35-1.38,4.69,4.69,0,0,1-.5-2.22,7.34,7.34,0,0,1,.12-1.42,7.88,7.88,0,0,1,.21-.87l1.43-.11a3.68,3.68,0,0,0-.4.77,3.58,3.58,0,0,0-.24,1.42,1.92,1.92,0,0,0,.82,1.72,5.36,5.36,0,0,0,2.06.76,11.58,11.58,0,0,0,1.68.19,2.47,2.47,0,0,0,1.24-.26,1.11,1.11,0,0,0,.56-1,5.68,5.68,0,0,0-.16-1.42,3.75,3.75,0,0,0-.36-.92,2,2,0,0,0-.2-.31h0l1.27.33Zm-1.23-4.29a.69.69,0,0,0,.63-.17.84.84,0,0,0,.25-.64,1.56,1.56,0,0,0-.32-1,1.74,1.74,0,0,0-.5-.43l-4.38-.77v-1.27l6,1.06v1.27l-.56-.1a3.63,3.63,0,0,1,.36.81,5,5,0,0,1,.22,1.62,1.45,1.45,0,0,1-.46,1.11,1.42,1.42,0,0,1-1.21.23l-4.38-.77v-1.7l4.33.76Zm1.7-5.78-8.44-1.49v-1.67l8.44,1.49v1.67ZM16,163.46l3.5.62a.73.73,0,0,0,.74-.18,1.25,1.25,0,0,0,.18-.8l.85.15s0,.1,0,.19,0,.2,0,.32a2.56,2.56,0,0,1-.4,1.63,1.41,1.41,0,0,1-1.47.38l-3.42-.6v1.14l-.76-.13V165l-2.41-.43v-1.7l2.41.43v-1.14l.76.13v1.15Zm3.57-4.32a.69.69,0,0,0,.63-.17.84.84,0,0,0,.25-.64,1.56,1.56,0,0,0-.32-1,1.77,1.77,0,0,0-.5-.43l-4.38-.77v-1.27l6,1.06v1.27l-.56-.1a3.65,3.65,0,0,1,.36.81,5,5,0,0,1,.22,1.62,1.45,1.45,0,0,1-.46,1.11,1.41,1.41,0,0,1-1.21.23l-4.38-.77v-1.7l4.33.76Zm1.7-5.75-6-1.06v-1.7l.74.13-.13-.12a1.65,1.65,0,0,1-.24-.33,3,3,0,0,1-.24-.56,2.53,2.53,0,0,1-.15-.91,2.17,2.17,0,0,1,0-.52h.87a2.44,2.44,0,0,0-.08.57,2.18,2.18,0,0,0,.22,1,2.07,2.07,0,0,0,.59.77,1.59,1.59,0,0,0,.69.36l3.72.65v1.71Zm0-9.94-.63-.11a1.51,1.51,0,0,1,.41.55,3.1,3.1,0,0,1,.24,1.42,2.12,2.12,0,0,1-.43,1.3,1.24,1.24,0,0,1-1.24.34,1.92,1.92,0,0,1-1.37-.89A4.49,4.49,0,0,1,17.7,144a2,2,0,0,0-.31-1,.92.92,0,0,0-.58-.43.58.58,0,0,0-.56.2,1.1,1.1,0,0,0-.24.76,3.3,3.3,0,0,0,.39,1.7,3.87,3.87,0,0,0,.65.88l-1.2-.46a1.06,1.06,0,0,1-.19-.31,3.79,3.79,0,0,1-.3-.83,4.71,4.71,0,0,1-.15-1.21,3,3,0,0,1,.47-1.94,1.26,1.26,0,0,1,1.25-.4l4.33.76v1.7Zm-.94.66c-.15-.58-.39-.9-.72-1l-1.38-.24.13.09a.78.78,0,0,1,.22.3,2.07,2.07,0,0,1,.16.65,3.48,3.48,0,0,0,.31,1.14,1,1,0,0,0,.75.5c.41,0,.62-.26.62-.88a2.23,2.23,0,0,0-.09-.6Zm.94-4.83-8.44-1.49v-1.67l8.44,1.49v1.67Zm0-15.51v2.35l-.72.56.16.22a3.14,3.14,0,0,1,.29.52,4.41,4.41,0,0,1,.28.89,6,6,0,0,1,.12,1.26c0,.27,0,.47,0,.62q-.17,2.23-2.56,1.81a2.33,2.33,0,0,1-1.31-.85,6.48,6.48,0,0,1-.94-1.4l-.24.13-.36.23a2.29,2.29,0,0,1-1.63.24,1.9,1.9,0,0,1-.86-.51,3.2,3.2,0,0,1-.68-1,2.71,2.71,0,0,1-.26-1.11,2.81,2.81,0,0,1,.46-1.7,1.23,1.23,0,0,1,1.32-.47,2,2,0,0,1,1.33.85,5.47,5.47,0,0,1,.66,1.15l2.52-1.9a2.15,2.15,0,0,0-.83-.63,2.56,2.56,0,0,0-.49-.14,1.68,1.68,0,0,0-.56,0v-.75a4.17,4.17,0,0,1,.67,0,2.39,2.39,0,0,1,.63.21A3.53,3.53,0,0,1,19,125a2.09,2.09,0,0,1,.36.36l1.91-1.55Zm-5.58,4.29a2.41,2.41,0,0,0-.41-.78,1.49,1.49,0,0,0-1-.72.75.75,0,0,0-.73.21,1.34,1.34,0,0,0-.28.9.82.82,0,0,0,.34.63,1.43,1.43,0,0,0,.67.35,1.19,1.19,0,0,0,.84-.2l.54-.39Zm1.52,1.32.14.22a1.45,1.45,0,0,0,.35.35,1.25,1.25,0,0,0,.56.23,1.81,1.81,0,0,0,1.35-.32,1.92,1.92,0,0,0,.83-1.25,2,2,0,0,0-.1-.7,4.54,4.54,0,0,0-.32-.64l-2.81,2.12ZM20.8,112.8c.06,0,.16.25.31.71a6,6,0,0,1,.24,1.64q0,2.19-1.11,2.87a5.15,5.15,0,0,1-3.47.26,7.29,7.29,0,0,1-2.14-.77,3.49,3.49,0,0,1-1.35-1.38,4.69,4.69,0,0,1-.5-2.22,7.34,7.34,0,0,1,.12-1.42,7.88,7.88,0,0,1,.21-.87l1.43-.11a3.68,3.68,0,0,0-.4.77,3.58,3.58,0,0,0-.24,1.42,1.92,1.92,0,0,0,.82,1.72,5.34,5.34,0,0,0,2.06.76,11.44,11.44,0,0,0,1.68.19,2.47,2.47,0,0,0,1.24-.26,1.11,1.11,0,0,0,.56-1,5.68,5.68,0,0,0-.16-1.42,3.76,3.76,0,0,0-.36-.92,2,2,0,0,0-.2-.31h0l1.27.34Zm.47-2.29-6-1.06v-1.7l.74.13-.13-.12a1.65,1.65,0,0,1-.24-.33,3,3,0,0,1-.24-.56,2.53,2.53,0,0,1-.15-.91,2.17,2.17,0,0,1,0-.52h.87A2.44,2.44,0,0,0,16,106a2.18,2.18,0,0,0,.22,1,2.06,2.06,0,0,0,.59.77,1.57,1.57,0,0,0,.69.36l3.72.65v1.71Zm-2.72-8.34a4.13,4.13,0,0,0,1.21-.11.9.9,0,0,0,.76-.92,4,4,0,0,0-.24-1.49,3.12,3.12,0,0,0-.4-.76l1,.44c.06,0,.15.2.24.57a5.13,5.13,0,0,1,.15,1.37c0,.21,0,.38,0,.5a2.34,2.34,0,0,1-.76,1.8,2.79,2.79,0,0,1-2.12.25A4.29,4.29,0,0,1,16,102.69a3.11,3.11,0,0,1-.79-2.18c0-1.08.28-1.76.85-2A3,3,0,0,1,18,98.31l.38.08.22.06v3.72ZM16,100.48q0,1.24,1.79,1.55V99.4Q16,99.09,16,100.48Zm5.31-7.41L20.63,93a1.52,1.52,0,0,1,.41.55,3.1,3.1,0,0,1,.24,1.42,2.12,2.12,0,0,1-.43,1.3,1.24,1.24,0,0,1-1.24.34,1.92,1.92,0,0,1-1.37-.89,4.49,4.49,0,0,1-.55-2.05,2,2,0,0,0-.31-1,.92.92,0,0,0-.58-.43.58.58,0,0,0-.56.2,1.1,1.1,0,0,0-.24.76,3.3,3.3,0,0,0,.39,1.7,3.89,3.89,0,0,0,.65.88l-1.2-.46a1.07,1.07,0,0,1-.19-.31,3.79,3.79,0,0,1-.3-.83,4.71,4.71,0,0,1-.15-1.21A3,3,0,0,1,15.69,91a1.26,1.26,0,0,1,1.25-.4l4.33.76v1.7Zm-.94.66c-.15-.58-.39-.9-.72-1l-1.38-.24.13.09a.79.79,0,0,1,.22.3,2.09,2.09,0,0,1,.16.65A3.47,3.47,0,0,0,19,94.69a1,1,0,0,0,.75.5c.41,0,.62-.26.62-.88a2.23,2.23,0,0,0-.09-.59ZM16,85.47l3.5.62a.73.73,0,0,0,.74-.18,1.25,1.25,0,0,0,.18-.8l.85.15s0,.1,0,.19,0,.2,0,.32a2.56,2.56,0,0,1-.4,1.63,1.41,1.41,0,0,1-1.47.38L16,87.17v1.14l-.76-.13V87l-2.41-.43v-1.7l2.41.43V84.19l.76.13v1.15Zm5.27-2.33-6-1.06V80.39l6,1.06v1.69Zm-8.46-2.35a.75.75,0,0,1,.28-.65.86.86,0,0,1,.68-.13,1.2,1.2,0,0,1,.69.38,1.08,1.08,0,0,1,.29.77.75.75,0,0,1-.29.65.83.83,0,0,1-.67.14,1.2,1.2,0,0,1-.69-.38,1.08,1.08,0,0,1-.29-.77Zm8.72-4.11-6.29,1.68V76.71l3.24-.87-3.24-2v-1l6.29,3.88Zm-3-6.86a4.2,4.2,0,0,0,1.21-.11.9.9,0,0,0,.76-.92,4,4,0,0,0-.24-1.49,3.13,3.13,0,0,0-.4-.76l1,.44c.06,0,.15.2.24.57a5.13,5.13,0,0,1,.15,1.37c0,.21,0,.38,0,.5a2.34,2.34,0,0,1-.76,1.8,2.8,2.8,0,0,1-2.12.25A4.3,4.3,0,0,1,16,70.34a3.11,3.11,0,0,1-.79-2.18c0-1.08.28-1.76.85-2A3,3,0,0,1,18,66l.38.08.22.06v3.72ZM16,68.12q0,1.24,1.79,1.55V67c-1.2-.21-1.79.15-1.79,1.08ZM20.8,55.6c.06,0,.16.25.31.71a6,6,0,0,1,.24,1.64q0,2.19-1.11,2.87a5.15,5.15,0,0,1-3.47.26,7.29,7.29,0,0,1-2.14-.77,3.49,3.49,0,0,1-1.35-1.38,4.69,4.69,0,0,1-.5-2.22,7.37,7.37,0,0,1,.12-1.42,7.94,7.94,0,0,1,.21-.87l1.43-.11a3.67,3.67,0,0,0-.4.77,3.58,3.58,0,0,0-.24,1.42,1.92,1.92,0,0,0,.82,1.72,5.36,5.36,0,0,0,2.06.76,11.72,11.72,0,0,0,1.68.19,2.47,2.47,0,0,0,1.24-.26,1.11,1.11,0,0,0,.56-1,5.69,5.69,0,0,0-.16-1.42,3.79,3.79,0,0,0-.36-.92,2.08,2.08,0,0,0-.2-.31h0l1.27.33Zm-5.6-6.1a3.19,3.19,0,0,1,.34-1.62,1.53,1.53,0,0,1,1-.73,4.29,4.29,0,0,1,1.69,0,4,4,0,0,1,2.35,1.09,3.36,3.36,0,0,1,.75,2.35,2.43,2.43,0,0,1-.75,2,3,3,0,0,1-2.33.28q-3.06-.57-3.06-3.42Zm3,1.74c.52.07.92.11,1.19.12a1.32,1.32,0,0,0,.73-.19.81.81,0,0,0,.33-.75,1.09,1.09,0,0,0-.58-1.06,5.85,5.85,0,0,0-1.64-.49,5.2,5.2,0,0,0-1.64-.09c-.4.06-.6.35-.6.85a1.21,1.21,0,0,0,.6,1.11,5.4,5.4,0,0,0,1.61.5Zm3-7.89v1.92L19.53,45V43l1.74.31Zm-1.74-3v-2l1.74.31a2.72,2.72,0,0,1,1.62.83,3.52,3.52,0,0,1,.59.87,6.17,6.17,0,0,1,.3.7l-1-.18a3,3,0,0,0-.14-.29,4.32,4.32,0,0,0-.22-.39,1,1,0,0,0-.69-.37l-.42-.07v.87l-1.74-.31Zm.69-9.16v-4.1l1.05.19v6l-8.44-1.49V29.91l7.39,1.3ZM16,21.74l3.5.62a.73.73,0,0,0,.74-.18,1.25,1.25,0,0,0,.18-.8l.85.15s0,.1,0,.19,0,.2,0,.32a2.56,2.56,0,0,1-.4,1.63,1.41,1.41,0,0,1-1.47.38L16,23.44v1.14l-.76-.13V23.3l-2.41-.43v-1.7l2.41.43V20.46l.76.13v1.15Zm-3.17-9.21L21.27,14V15.7l-.36-.06a2,2,0,0,1,.25.47,2.54,2.54,0,0,1,.15,1,3,3,0,0,1-.24,1.21,1.46,1.46,0,0,1-.94.76,4.26,4.26,0,0,1-2,0A3.74,3.74,0,0,1,15.76,18a2.87,2.87,0,0,1-.57-1.76,3.15,3.15,0,0,1,.31-1.51l-2.68-.47V12.53ZM20,15.48l-3.66-.65s-.09.07-.18.24a2,2,0,0,0-.16.73,1.52,1.52,0,0,0,.54,1.3,3.75,3.75,0,0,0,1.56.58,5.05,5.05,0,0,0,1.33.09,1.17,1.17,0,0,0,.79-.34,1.24,1.24,0,0,0,.27-.86,1.71,1.71,0,0,0-.23-.75c-.13-.22-.22-.33-.26-.34Zm1.29-6.11v1.92L19.53,11V9.06l1.74.31Z"/></svg>