<?xml version="1.0" encoding="utf-8"?>
<!-- Generator: Adobe Illustrator 22.0.0, SVG Export Plug-In . SVG Version: 6.00 Build 0)  -->
<svg version="1.1" id="圖層_1" xmlns="http://www.w3.org/2000/svg" xmlns:xlink="http://www.w3.org/1999/xlink" x="0px" y="0px"
	 viewBox="0 0 12.9 222" style="enable-background:new 0 0 12.9 222;" xml:space="preserve">
<style type="text/css">
	.st0{fill:#E8AA67;}
</style>
<path class="st0" d="M7.4,211.2c1.4,0.2,2.1,1.5,2.2,3.7c0,0.6,0,1.2-0.1,1.6c-0.1,0.4-0.2,0.6-0.2,0.6l-1.3-0.2l0,0
	c0,0,0.1-0.1,0.2-0.2c0.1-0.1,0.2-0.4,0.3-0.6c0.1-0.3,0.1-0.6,0.1-1c0-0.6-0.1-1.1-0.4-1.4c-0.3-0.3-0.6-0.5-1.1-0.6l-5.9-1v-1.9
	L7.4,211.2L7.4,211.2z M6.8,206.8c0.3,0,0.7,0,1.2-0.1c0.5-0.1,0.7-0.4,0.8-0.9c0-0.6-0.1-1.1-0.2-1.5c-0.2-0.4-0.3-0.6-0.4-0.8
	l1,0.4c0.1,0,0.1,0.2,0.2,0.6c0.1,0.4,0.2,0.8,0.2,1.4c0,0.2,0,0.4,0,0.5c-0.1,0.9-0.3,1.5-0.8,1.8c-0.4,0.3-1.2,0.4-2.1,0.3
	c-1.1-0.2-1.9-0.6-2.5-1.1c-0.5-0.6-0.8-1.3-0.8-2.2c0-1.1,0.3-1.8,0.8-2c0.5-0.2,1.1-0.3,1.9-0.2c0.2,0,0.3,0.1,0.4,0.1
	c0.1,0,0.2,0.1,0.2,0.1V206.8L6.8,206.8z M4.2,205.1c0,0.8,0.6,1.3,1.8,1.6v-2.6C4.8,203.8,4.2,204.2,4.2,205.1L4.2,205.1z
	 M9.5,197.7l-0.6-0.1c0.1,0.1,0.2,0.3,0.4,0.5c0.2,0.3,0.2,0.8,0.2,1.4c0,0.5-0.2,1-0.4,1.3c-0.3,0.3-0.7,0.4-1.2,0.3
	c-0.6-0.1-1.1-0.4-1.4-0.9c-0.3-0.5-0.5-1.2-0.6-2.1c0-0.4-0.1-0.7-0.3-1c-0.2-0.2-0.4-0.4-0.6-0.4c-0.2,0-0.4,0-0.6,0.2
	c-0.2,0.2-0.2,0.4-0.2,0.8c0,0.7,0.1,1.3,0.4,1.7c0.3,0.4,0.5,0.7,0.6,0.9l-1.2-0.5c0,0-0.1-0.1-0.2-0.3c-0.1-0.2-0.2-0.5-0.3-0.8
	c-0.1-0.3-0.1-0.8-0.1-1.2c0-0.9,0.2-1.6,0.5-1.9c0.3-0.4,0.7-0.5,1.2-0.4l4.3,0.8L9.5,197.7L9.5,197.7z M8.6,198.4
	c-0.2-0.6-0.4-0.9-0.7-1l-1.4-0.2c0,0,0.1,0,0.1,0.1c0.1,0,0.1,0.1,0.2,0.3c0.1,0.1,0.1,0.4,0.2,0.6c0.1,0.5,0.2,0.9,0.3,1.1
	c0.1,0.3,0.4,0.4,0.7,0.5c0.4,0,0.6-0.3,0.6-0.9C8.7,198.8,8.6,198.6,8.6,198.4L8.6,198.4z M4.9,187.5l4.6,0.8v1.3l-4.4-0.8
	c-0.5-0.1-0.8,0.3-0.8,1c0,0.4,0.2,0.7,0.4,0.9c0.2,0.2,0.3,0.3,0.5,0.4l4.4,0.8v1.7l-6-1.1v-1.7l0.5,0.1c0,0-0.1-0.1-0.2-0.3
	c-0.1-0.2-0.2-0.4-0.3-0.6c-0.1-0.3-0.1-0.6-0.1-0.9c0-0.6,0.1-1.1,0.4-1.3C4.2,187.6,4.5,187.5,4.9,187.5L4.9,187.5z M9,177.2
	c0.1,0,0.2,0.2,0.3,0.7c0.1,0.5,0.2,1,0.2,1.6c0,1.5-0.4,2.4-1.1,2.9c-0.7,0.4-1.9,0.5-3.5,0.3c-0.8-0.2-1.6-0.4-2.1-0.8
	c-0.6-0.3-1-0.8-1.3-1.4c-0.3-0.6-0.5-1.3-0.5-2.2c0-0.5,0-1,0.1-1.4c0.1-0.4,0.2-0.7,0.2-0.9l1.4-0.1c-0.1,0.1-0.2,0.4-0.4,0.8
	c-0.2,0.4-0.2,0.8-0.2,1.4c0,0.8,0.3,1.4,0.8,1.7c0.5,0.4,1.2,0.6,2.1,0.8c0.6,0.1,1.2,0.2,1.7,0.2c0.5,0,0.9-0.1,1.2-0.3
	c0.3-0.2,0.5-0.5,0.6-1c0-0.6-0.1-1-0.2-1.4c-0.1-0.4-0.2-0.7-0.4-0.9c-0.1-0.2-0.2-0.3-0.2-0.3c0,0,0,0,0,0L9,177.2L9,177.2z
	 M7.8,172.9c0.3,0,0.5,0,0.6-0.2c0.2-0.2,0.2-0.4,0.2-0.6c0-0.4-0.1-0.8-0.3-1c-0.2-0.2-0.4-0.4-0.5-0.4l-4.4-0.8v-1.3l6,1.1v1.3
	L9,170.8c0.1,0.1,0.2,0.4,0.4,0.8c0.1,0.4,0.2,0.9,0.2,1.6c0,0.5-0.2,0.9-0.5,1.1c-0.3,0.2-0.7,0.3-1.2,0.2l-4.4-0.8v-1.7L7.8,172.9
	L7.8,172.9z M9.5,167.1l-8.4-1.5v-1.7l8.4,1.5V167.1L9.5,167.1z M4.2,159.5l3.5,0.6c0.3,0.1,0.6,0,0.7-0.2c0.1-0.1,0.2-0.4,0.2-0.8
	l0.9,0.2c0,0,0,0.1,0,0.2c0,0.1,0,0.2,0,0.3c0,0.8-0.1,1.3-0.4,1.6c-0.3,0.4-0.8,0.5-1.5,0.4l-3.4-0.6v1.1l-0.8-0.1V161l-2.4-0.4
	v-1.7l2.4,0.4v-1.1l0.8,0.1L4.2,159.5L4.2,159.5z M7.8,155.1c0.3,0,0.5,0,0.6-0.2c0.2-0.2,0.2-0.4,0.2-0.6c0-0.4-0.1-0.8-0.3-1
	c-0.2-0.2-0.4-0.4-0.5-0.4l-4.4-0.8v-1.3l6,1.1v1.3L9,153.1c0.1,0.1,0.2,0.4,0.4,0.8c0.1,0.4,0.2,0.9,0.2,1.6c0,0.5-0.2,0.9-0.5,1.1
	c-0.3,0.2-0.7,0.3-1.2,0.2l-4.4-0.8v-1.7L7.8,155.1L7.8,155.1z M9.5,149.4l-6-1.1v-1.7l0.7,0.1c0,0,0,0-0.1-0.1
	c-0.1-0.1-0.2-0.2-0.2-0.3c-0.1-0.1-0.2-0.3-0.2-0.6c-0.1-0.3-0.1-0.6-0.1-0.9c0-0.3,0-0.5,0-0.5l0.9,0c0,0.2-0.1,0.4-0.1,0.6
	c0,0.4,0.1,0.7,0.2,1c0.1,0.3,0.3,0.6,0.6,0.8c0.3,0.2,0.5,0.3,0.7,0.4l3.7,0.7L9.5,149.4L9.5,149.4z M9.5,139.4l-0.6-0.1
	c0.1,0.1,0.2,0.2,0.4,0.5c0.2,0.3,0.2,0.8,0.2,1.4c0,0.5-0.2,1-0.4,1.3c-0.3,0.3-0.7,0.4-1.2,0.3c-0.6-0.1-1.1-0.4-1.4-0.9
	c-0.3-0.5-0.5-1.2-0.6-2.1c0-0.4-0.1-0.7-0.3-1c-0.2-0.2-0.4-0.4-0.6-0.4c-0.2,0-0.4,0-0.6,0.2c-0.2,0.2-0.2,0.4-0.2,0.8
	c0,0.7,0.1,1.3,0.4,1.7c0.3,0.4,0.5,0.7,0.6,0.9l-1.2-0.5c0,0-0.1-0.1-0.2-0.3c-0.1-0.2-0.2-0.5-0.3-0.8c-0.1-0.3-0.1-0.8-0.1-1.2
	c0-0.9,0.2-1.6,0.5-1.9c0.3-0.4,0.7-0.5,1.2-0.4l4.3,0.8L9.5,139.4L9.5,139.4z M8.6,140.1c-0.2-0.6-0.4-0.9-0.7-1l-1.4-0.2
	c0,0,0.1,0,0.1,0.1c0.1,0,0.1,0.1,0.2,0.3c0.1,0.1,0.1,0.4,0.2,0.6c0.1,0.5,0.2,0.9,0.3,1.1c0.1,0.3,0.4,0.4,0.7,0.5
	c0.4,0,0.6-0.3,0.6-0.9C8.7,140.5,8.6,140.3,8.6,140.1L8.6,140.1z M9.5,135.3l-8.4-1.5v-1.7l8.4,1.5V135.3L9.5,135.3z M9.5,119.8
	v2.4l-0.7,0.6c0,0,0.1,0.1,0.2,0.2c0.1,0.1,0.2,0.3,0.3,0.5c0.1,0.2,0.2,0.5,0.3,0.9c0.1,0.4,0.1,0.8,0.1,1.3c0,0.3,0,0.5,0,0.6
	c-0.1,1.5-1,2.1-2.6,1.8c-0.5-0.1-0.9-0.4-1.3-0.8c-0.4-0.5-0.7-0.9-0.9-1.4c0,0-0.1,0-0.2,0.1c-0.1,0.1-0.3,0.2-0.4,0.2
	c-0.4,0.3-1,0.3-1.6,0.2c-0.3-0.1-0.6-0.2-0.9-0.5c-0.3-0.3-0.5-0.6-0.7-1c-0.2-0.4-0.3-0.7-0.3-1.1c0-0.7,0.2-1.3,0.5-1.7
	c0.3-0.4,0.7-0.6,1.3-0.5c0.6,0.1,1,0.4,1.3,0.9c0.3,0.5,0.5,0.9,0.7,1.1l2.5-1.9c-0.3-0.3-0.5-0.5-0.8-0.6C6.1,121,5.9,121,5.8,121
	c-0.2,0-0.4,0-0.6,0v-0.7c0.3,0,0.5,0,0.7,0c0.2,0,0.4,0.1,0.6,0.2c0.3,0.1,0.5,0.3,0.7,0.5c0.2,0.2,0.3,0.3,0.4,0.4L9.5,119.8
	L9.5,119.8z M3.9,124.1c0-0.1-0.1-0.4-0.4-0.8c-0.3-0.4-0.6-0.7-1-0.7c-0.3-0.1-0.5,0-0.7,0.2c-0.2,0.2-0.3,0.5-0.3,0.9
	c0,0.2,0.1,0.4,0.3,0.6c0.2,0.2,0.4,0.3,0.7,0.3c0.3,0,0.5,0,0.8-0.2L3.9,124.1L3.9,124.1z M5.5,125.4c0,0,0.1,0.1,0.1,0.2
	c0.1,0.1,0.2,0.2,0.3,0.4c0.1,0.1,0.3,0.2,0.6,0.2c0.5,0.1,0.9,0,1.3-0.3c0.4-0.3,0.7-0.7,0.8-1.3c0-0.3,0-0.5-0.1-0.7
	c-0.1-0.2-0.2-0.4-0.3-0.6L5.5,125.4L5.5,125.4z M9,108.8c0.1,0,0.2,0.2,0.3,0.7c0.1,0.5,0.2,1,0.2,1.6c0,1.5-0.4,2.4-1.1,2.9
	c-0.7,0.4-1.9,0.5-3.5,0.3c-0.8-0.2-1.6-0.4-2.1-0.8c-0.6-0.3-1-0.8-1.3-1.4c-0.3-0.6-0.5-1.3-0.5-2.2c0-0.5,0-1,0.1-1.4
	c0.1-0.4,0.2-0.7,0.2-0.9l1.4-0.1c-0.1,0.1-0.2,0.4-0.4,0.8c-0.2,0.4-0.2,0.8-0.2,1.4c0,0.8,0.3,1.4,0.8,1.7
	c0.5,0.4,1.2,0.6,2.1,0.8c0.6,0.1,1.2,0.2,1.7,0.2c0.5,0,0.9-0.1,1.2-0.3c0.3-0.2,0.5-0.5,0.6-1c0-0.6-0.1-1-0.2-1.4
	c-0.1-0.4-0.2-0.7-0.4-0.9c-0.1-0.2-0.2-0.3-0.2-0.3c0,0,0,0,0,0L9,108.8L9,108.8z M9.5,106.5l-6-1.1v-1.7l0.7,0.1c0,0,0,0-0.1-0.1
	c-0.1-0.1-0.2-0.2-0.2-0.3c-0.1-0.1-0.2-0.3-0.2-0.6c-0.1-0.3-0.1-0.6-0.1-0.9c0-0.3,0-0.5,0-0.5l0.9,0c0,0.2-0.1,0.4-0.1,0.6
	c0,0.4,0.1,0.7,0.2,1c0.1,0.3,0.3,0.6,0.6,0.8c0.3,0.2,0.5,0.3,0.7,0.4l3.7,0.7L9.5,106.5L9.5,106.5z M6.8,98.2c0.3,0,0.7,0,1.2-0.1
	c0.5-0.1,0.7-0.4,0.8-0.9c0-0.6-0.1-1.1-0.2-1.5c-0.2-0.4-0.3-0.6-0.4-0.8l1,0.4c0.1,0,0.1,0.2,0.2,0.6c0.1,0.4,0.2,0.8,0.2,1.4
	c0,0.2,0,0.4,0,0.5c-0.1,0.9-0.3,1.5-0.8,1.8c-0.4,0.3-1.2,0.4-2.1,0.3c-1.1-0.2-1.9-0.6-2.5-1.1c-0.5-0.6-0.8-1.3-0.8-2.2
	c0-1.1,0.3-1.8,0.8-2c0.5-0.2,1.1-0.3,1.9-0.2c0.2,0,0.3,0.1,0.4,0.1c0.1,0,0.2,0,0.2,0.1V98.2L6.8,98.2z M4.2,96.5
	c0,0.8,0.6,1.3,1.8,1.6v-2.6C4.8,95.2,4.2,95.6,4.2,96.5L4.2,96.5z M9.5,89.1L8.9,89C9,89,9.1,89.2,9.3,89.5
	c0.2,0.3,0.2,0.8,0.2,1.4c0,0.5-0.2,1-0.4,1.3c-0.3,0.3-0.7,0.4-1.2,0.3c-0.6-0.1-1.1-0.4-1.4-0.9c-0.3-0.5-0.5-1.2-0.6-2.1
	c0-0.4-0.1-0.7-0.3-1c-0.2-0.2-0.4-0.4-0.6-0.4c-0.2,0-0.4,0-0.6,0.2c-0.2,0.2-0.2,0.4-0.2,0.8c0,0.7,0.1,1.3,0.4,1.7
	c0.3,0.4,0.5,0.7,0.6,0.9l-1.2-0.5c0,0-0.1-0.1-0.2-0.3c-0.1-0.2-0.2-0.5-0.3-0.8c-0.1-0.3-0.1-0.8-0.1-1.2c0-0.9,0.2-1.6,0.5-1.9
	c0.3-0.4,0.7-0.5,1.2-0.4l4.3,0.8L9.5,89.1L9.5,89.1z M8.6,89.7c-0.2-0.6-0.4-0.9-0.7-1l-1.4-0.2c0,0,0.1,0,0.1,0.1
	c0.1,0.1,0.1,0.1,0.2,0.3C6.9,89.1,7,89.3,7,89.6C7,90,7.2,90.4,7.3,90.7C7.4,91,7.7,91.1,8,91.2c0.4,0,0.6-0.3,0.6-0.9
	C8.7,90.1,8.6,89.9,8.6,89.7L8.6,89.7z M4.2,81.5l3.5,0.6c0.3,0.1,0.6,0,0.7-0.2c0.1-0.1,0.2-0.4,0.2-0.8l0.9,0.1c0,0,0,0.1,0,0.2
	c0,0.1,0,0.2,0,0.3c0,0.8-0.1,1.3-0.4,1.6c-0.3,0.4-0.8,0.5-1.5,0.4l-3.4-0.6v1.1l-0.8-0.1V83l-2.4-0.4v-1.7l2.4,0.4v-1.1l0.8,0.1
	L4.2,81.5L4.2,81.5z M9.5,79.1l-6-1.1v-1.7l6,1.1V79.1L9.5,79.1z M1.1,76.8c0-0.3,0.1-0.5,0.3-0.7C1.5,76,1.8,76,2,76
	c0.3,0,0.5,0.2,0.7,0.4C2.9,76.6,3,76.8,3,77.2c0,0.3-0.1,0.5-0.3,0.7C2.5,77.9,2.3,78,2,77.9c-0.3,0-0.5-0.2-0.7-0.4
	C1.2,77.4,1.1,77.1,1.1,76.8L1.1,76.8z M9.8,72.7l-6.3,1.7v-1.6l3.2-0.9l-3.2-2v-1L9.8,72.7L9.8,72.7z M6.8,65.8
	c0.3,0,0.7,0,1.2-0.1c0.5-0.1,0.7-0.4,0.8-0.9c0-0.6-0.1-1.1-0.2-1.5c-0.2-0.4-0.3-0.6-0.4-0.8l1,0.4c0.1,0,0.1,0.2,0.2,0.6
	c0.1,0.4,0.2,0.8,0.2,1.4c0,0.2,0,0.4,0,0.5c-0.1,0.9-0.3,1.5-0.8,1.8c-0.4,0.3-1.2,0.4-2.1,0.3c-1.1-0.2-1.9-0.6-2.5-1.1
	c-0.5-0.6-0.8-1.3-0.8-2.2c0-1.1,0.3-1.8,0.8-2c0.5-0.2,1.1-0.3,1.9-0.2C6.4,62,6.5,62,6.6,62c0.1,0,0.2,0.1,0.2,0.1V65.8L6.8,65.8z
	 M4.2,64.1c0,0.8,0.6,1.3,1.8,1.6V63C4.8,62.8,4.2,63.2,4.2,64.1L4.2,64.1z M9,51.6c0.1,0,0.2,0.2,0.3,0.7c0.1,0.5,0.2,1,0.2,1.6
	c0,1.5-0.4,2.4-1.1,2.9c-0.7,0.4-1.9,0.5-3.5,0.3c-0.8-0.2-1.6-0.4-2.1-0.8c-0.6-0.3-1-0.8-1.3-1.4C1.2,54.3,1,53.6,1,52.7
	c0-0.5,0-1,0.1-1.4c0.1-0.4,0.2-0.7,0.2-0.9l1.4-0.1c-0.1,0.1-0.2,0.4-0.4,0.8c-0.2,0.4-0.2,0.8-0.2,1.4c0,0.8,0.3,1.4,0.8,1.7
	C3.5,54.6,4.2,54.8,5,55c0.6,0.1,1.2,0.2,1.7,0.2s0.9-0.1,1.2-0.3c0.3-0.2,0.5-0.5,0.6-1c0-0.6-0.1-1-0.2-1.4
	c-0.1-0.4-0.2-0.7-0.4-0.9c-0.1-0.2-0.2-0.3-0.2-0.3c0,0,0,0,0,0L9,51.6L9,51.6z M3.4,45.5c0-0.7,0.1-1.2,0.3-1.6
	c0.2-0.4,0.6-0.6,1-0.7c0.4-0.1,1-0.1,1.7,0c1.1,0.2,1.9,0.6,2.3,1.1c0.5,0.5,0.7,1.3,0.7,2.4c0,1-0.3,1.6-0.7,2
	c-0.5,0.4-1.3,0.5-2.3,0.3C4.5,48.6,3.4,47.4,3.4,45.5L3.4,45.5z M6.5,47.2c0.5,0.1,0.9,0.1,1.2,0.1c0.3,0,0.5-0.1,0.7-0.2
	c0.2-0.1,0.3-0.4,0.3-0.7c0-0.5-0.2-0.9-0.6-1.1c-0.4-0.2-0.9-0.4-1.6-0.5c-0.7-0.1-1.2-0.2-1.6-0.1c-0.4,0.1-0.6,0.3-0.6,0.8
	c0,0.5,0.2,0.9,0.6,1.1C5.3,47,5.8,47.1,6.5,47.2L6.5,47.2z M9.5,39.3v1.9L7.8,41V39L9.5,39.3L9.5,39.3z M7.8,36.4v-2l1.7,0.3
	c0.7,0.1,1.2,0.4,1.6,0.8c0.2,0.3,0.4,0.6,0.6,0.9c0.2,0.3,0.2,0.5,0.3,0.7l-1-0.2c0-0.1-0.1-0.2-0.1-0.3s-0.1-0.3-0.2-0.4
	c-0.1-0.2-0.4-0.3-0.7-0.4l-0.4-0.1v0.9L7.8,36.4L7.8,36.4z M8.5,27.2v-4.1l1.1,0.2v6l-8.4-1.5v-1.9L8.5,27.2L8.5,27.2z M4.2,17.7
	l3.5,0.6c0.3,0.1,0.6,0,0.7-0.2c0.1-0.1,0.2-0.4,0.2-0.8l0.9,0.2c0,0,0,0.1,0,0.2c0,0.1,0,0.2,0,0.3c0,0.8-0.1,1.3-0.4,1.6
	C8.8,20,8.4,20.2,7.7,20l-3.4-0.6v1.1l-0.8-0.1v-1.1l-2.4-0.4v-1.7l2.4,0.4v-1.1l0.8,0.1L4.2,17.7L4.2,17.7z M1.1,8.5L9.5,10v1.7
	l-0.4-0.1c0.1,0.1,0.1,0.2,0.2,0.5c0.1,0.2,0.2,0.6,0.2,1c0,0.5-0.1,0.9-0.2,1.2c-0.2,0.3-0.5,0.6-0.9,0.8c-0.5,0.2-1.1,0.2-2,0
	c-1.2-0.2-2-0.6-2.3-1.1c-0.4-0.5-0.6-1.1-0.6-1.8c0-0.6,0.1-1.1,0.3-1.5l-2.7-0.5V8.5L1.1,8.5z M8.2,11.5l-3.7-0.6
	c0,0-0.1,0.1-0.2,0.2c-0.1,0.2-0.1,0.4-0.2,0.7c0,0.6,0.2,1,0.5,1.3c0.4,0.3,0.9,0.5,1.6,0.6c0.5,0.1,1,0.1,1.3,0.1
	c0.4,0,0.6-0.1,0.8-0.3c0.2-0.2,0.3-0.5,0.3-0.9c0-0.3-0.1-0.5-0.2-0.8C8.4,11.6,8.3,11.5,8.2,11.5L8.2,11.5z M9.5,5.4v1.9L7.8,7
	V5.1L9.5,5.4L9.5,5.4z"/>
</svg>
