<svg id="圖層_1" data-name="圖層 1" xmlns="http://www.w3.org/2000/svg" viewBox="0 0 162 168"><defs><style>.cls-1{fill:#c2bdb6;}.cls-2{fill:#201816;}.cls-3{fill:#eee7ce;}.cls-4{fill:#b54127;}.cls-5{fill:#605636;}.cls-6{fill:#c88337;}.cls-7{fill:#fdfdfd;}</style></defs><title>CC4</title><path class="cls-1" d="M142.15,90.19c-.72-3.13-.88-6.62-3.59-9a63,63,0,0,0-16.24-23.42c-1.61-1.47-2.88-3.37-5.09-4.08.09-.49-.34-.58-.66-.76-4-2.46-6.68-6.33-10.05-9.46-.63-.58-1.7-1.12-1.33-2.19s1.4-.71,2.19-.84c4.28-.71,8.57-1.34,12.83-2.1,1.56-.27,3.14-.72,3.36-2.73-2.45.54-4.87-.15-7.38-.09,2.51-.06,4.93.62,7.39.08.73-1.27.16-2-1-2.44l.31-.48c.4-2.2.38-4.27-1.78-5.68h0a2.2,2.2,0,0,0,.35-2.76c0-1.83-.4-3.9-2.46-3.83-3.06.1-6.1,1-9.14,1.5h-2.06l-3.28.27c-5.11.42-9.39,2.92-13.64,5.47-1.36.21-3-2.37-4.11.45h-.08l-1.27.19,0,.13,0-.13,1.27-.19c.25-1.63-1.78-.64-2-1.74v-1c-.43-1.19-1.55-1.44-2.54-1.89a24.86,24.86,0,0,1-3.37-2.88C75,16,70.4,12.44,65.68,9a19.55,19.55,0,0,0-4.45-3.33c-2.77-2.32-2.79-2.33-4.75.46-.9,1.28-1.73,2.62-2.59,3.93-1.12.89-1.47,2.29-2.26,3.4a7.76,7.76,0,0,0-1.7,2.84.8.8,0,0,0-.47,1c-1.56,1.9-.3,2.82,1.26,3.63,2.54,2.21,5.87,3,8.65,4.7,1.1.69,3.24.95,2.93,2.37C62,29.2,60,29,58.64,29.15c-1.48-.63-3.09-.34-4.61-.62s-2.23.45-2.57,1.79a63.75,63.75,0,0,1-13.11,2.56c-2.39.29-3.51,1.24-3.86,3.44l-.29,1.05c-.52.53-.38,1.21-.4,1.85-.79.37-.57,1.12-.67,1.75h0l-.32,2.08-.21,1.69c-.22,1.56-1.62,3.21.34,4.6,1.17,2.11,3.13,1.21,4.7,1,3.64-.43,7.25-1.18,10.87-1.8,1.08-.19,2.21-.53,2.88.79-1,.55-2,1.07-2.9,1.66C28,63.92,18.65,82.62,19.79,106.61c.55,11.61,4.71,22.07,11.27,31.6,0,.87,0,1.66,1.21,1.6l1,1.23c0,1.59.63,2.58,2.32,2.66a1.91,1.91,0,0,0,.7,1.72,56.36,56.36,0,0,0,17.82,13.16,64.78,64.78,0,0,0,35.43,6c15.57-1.7,28.64-8.2,38.56-20C141.33,128.88,146.83,110.7,142.15,90.19ZM31.33,126.48l.57,1.12-.58-1.12-.21-.44Zm.8,2.19a1.43,1.43,0,0,1-.21-.5A1.43,1.43,0,0,0,32.13,128.67Zm74.41-78.48c.37.12.7.26.55.76.15-.5-.19-.64-.55-.76a15.14,15.14,0,0,1-2.8-3A15.14,15.14,0,0,0,106.54,50.19ZM37.67,136.35l1.32,1.9-1.33-1.9ZM64,33.65a2.48,2.48,0,0,1-1.84,1c-1.2.19-2.53.09-3.21,1.38h0c.68-1.29,2-1.19,3.21-1.38a2.48,2.48,0,0,0,1.84-1Zm6.82,1h0Zm.48-.34c.11,0,.22,0,.32,0C71.53,34.36,71.42,34.35,71.32,34.35Zm11.15-2.93a.68.68,0,0,0,.16.45A.68.68,0,0,1,82.47,31.42Zm0-.26c0,.08,0,.17,0,.25,0-.08,0-.16,0-.25a1.09,1.09,0,0,1,.13-.53A1.09,1.09,0,0,0,82.48,31.16Zm-.91,9.72c-.83-.26-.54-.89-.29-1.5C81,40,80.73,40.62,81.57,40.88Zm14.9-10,.56,0-.56,0a.48.48,0,0,1-.31.22A.48.48,0,0,0,96.47,30.88ZM116,61.1c0,.09,0,.2,0,.3C116,61.3,116,61.2,116,61.1Zm4.21-.28a.42.42,0,0,1-.35.08A.42.42,0,0,0,120.23,60.83ZM53.12,84l-3.06-.06a2.58,2.58,0,0,1,.28-.5,4.6,4.6,0,0,0,.3-.5,4.56,4.56,0,0,1-.3.5,2.57,2.57,0,0,0-.28.5ZM48.86,40.93a2.2,2.2,0,0,0,.15-.17h0A2.15,2.15,0,0,1,48.86,40.93Zm-.22.24a4.56,4.56,0,0,1-2.34.74A4.56,4.56,0,0,0,48.64,41.17ZM65,37.38A3.66,3.66,0,0,1,62.84,37l.15-.55-3.25.27L63,36.42h0l-.15.55A3.66,3.66,0,0,0,65,37.38ZM68.52,37a2.65,2.65,0,0,1,1.2-.86,2.65,2.65,0,0,0-1.2.86Zm-.06,1.13h0a2.69,2.69,0,0,1-1-.21A2.69,2.69,0,0,0,68.46,38.16Zm-10.61,1.6a1,1,0,0,1-.52-.12A1,1,0,0,0,57.85,39.76ZM73.12,27.51l.1-.06-.1.06-.57.12h0Zm27.4,7.05a13.35,13.35,0,0,1,3.68-.38l0-.05,0,.06A13.33,13.33,0,0,0,100.52,34.56Zm4.37-1.83h0l-7.25,1.4ZM99.26,36a2,2,0,0,0,1.33,1.1A2,2,0,0,1,99.26,36c-.5-.18-1.45.09-1.3-.81C97.8,36,98.75,35.77,99.26,36Zm.07,5,.48.47.09.09.47.48.08.06a2.07,2.07,0,0,1,1.77,1,2.07,2.07,0,0,0-1.77-1l-.08-.06-.47-.48-.09-.09-.48-.47-.06-.08Zm16.16,73.33c-2.52.41-3.06-1.08-3-3.14h0c-.06,2.06.49,3.55,3,3.14ZM84.55,139.07c-.56.07-.23.73-.26,1.14l1,.23-1-.23a1.1,1.1,0,0,0,.09.88,1.1,1.1,0,0,1-.09-.88C84.31,139.81,84,139.14,84.55,139.07ZM64.07,69.34a3.33,3.33,0,0,0,.56,2.05,1.41,1.41,0,0,1,1.2,0,1.41,1.41,0,0,0-1.2,0A3.34,3.34,0,0,1,64.07,69.34Zm48.73-9.4a1.26,1.26,0,0,1-1-.81l-.77-.31h0l.77.31A1.26,1.26,0,0,0,112.8,59.94ZM83,127.78a.61.61,0,0,1-.42.31.61.61,0,0,0,.42-.31c.68-.31,1.7.24,2.26-.48C84.7,128,83.67,127.47,83,127.78Zm3-66.34a9.77,9.77,0,0,1-.42-2.51,9.73,9.73,0,0,0,.42,2.51Zm1.27.57c0-1,.28-1.35.72-1.43-.45.08-.76.41-.72,1.43a1.34,1.34,0,0,1-1.2.81A1.34,1.34,0,0,0,87.21,62Zm12-13.77h0l.24,0Zm-.06,1.65c.39.38.74.81,1.12,1.21-.38-.39-.73-.83-1.13-1.21-.86-.35-1.74-.7-1.6-1.49a2.22,2.22,0,0,1,.52-1h0a2.22,2.22,0,0,0-.52,1C97.37,49.2,98.25,49.54,99.11,49.9Zm5.66,6.63s0,0,0,0S104.77,56.54,104.77,56.53Zm.25.72a1.91,1.91,0,0,1,.3,1,5.08,5.08,0,0,0-.79-.44,5.07,5.07,0,0,1,.79.44A1.91,1.91,0,0,0,105,57.25Zm2,5.36a44.69,44.69,0,0,1-3.37-4.9l-3.29-2.77c-.55-.47-1.15-.91-1.66-1.41.51.51,1.11.94,1.66,1.41l3.29,2.77A44.6,44.6,0,0,0,107,62.61Zm9.06,26.5a3.9,3.9,0,0,1,.51-1.35,4.52,4.52,0,0,1-.24-1.32,4.52,4.52,0,0,0,.24,1.32,3.89,3.89,0,0,0-.51,1.35,4.57,4.57,0,0,0,0,1.45q-.14,1.16-.28,2.31a2,2,0,0,0,.5.1,2.06,2.06,0,0,1-.5-.1h0q.14-1.16.28-2.31A4.58,4.58,0,0,1,116.05,89.11Zm.55-3.66a1.43,1.43,0,0,0-.29.92A1.43,1.43,0,0,1,116.6,85.45ZM103.37,83a8.24,8.24,0,0,0-.41-3.4,19.68,19.68,0,0,1,2-.08,19.67,19.67,0,0,0-2,.08A8.24,8.24,0,0,1,103.37,83Zm-23.16,26h0a.85.85,0,0,1-.09.18A.85.85,0,0,0,80.21,109.06Zm1.31,15.45a1.82,1.82,0,0,0-.25-.08A1.82,1.82,0,0,1,81.52,124.51ZM83,112.44a1.43,1.43,0,0,1-.64-.19,1.41,1.41,0,0,0,.64.19c.46,0,1-.05,1-.65C83.93,112.39,83.43,112.4,83,112.44Zm-6.6-11.74,9.32-.12a9,9,0,0,0,.69-3.9,9,9,0,0,1-.69,3.9Zm17.75,13.45h0a22.38,22.38,0,0,1-.22-3A22.38,22.38,0,0,0,94.13,114.16Zm-2.24-2.41a10.2,10.2,0,0,0-1.77-3,10.2,10.2,0,0,1,1.77,3Zm7-50.05a1.4,1.4,0,0,0,.27-.45,1.14,1.14,0,0,0,.06-.44,1.14,1.14,0,0,1-.06.44,1.4,1.4,0,0,1-.27.45,1.49,1.49,0,0,0,0,.52A1.49,1.49,0,0,1,98.86,61.69Zm-4.48,3.14.51,0ZM91.2,66.05a1.9,1.9,0,0,1,1.1-.87A1.9,1.9,0,0,0,91.2,66.05Zm4.73-5h0l.54,2.69a1.71,1.71,0,0,1-1.13.93,1.71,1.71,0,0,0,1.13-.93l-.54-2.69-.4-.51Zm-6.4,47.27a1.26,1.26,0,0,1,.56.3,1.26,1.26,0,0,0-.56-.3,1.64,1.64,0,0,0-1.3.43A1.64,1.64,0,0,1,89.53,108.36Zm9.82-36.49a1.47,1.47,0,0,1,.74-.14A1.46,1.46,0,0,0,99.35,71.87Zm1.2-.11a5.82,5.82,0,0,0,.86,0l1.16,1.66a17,17,0,0,1,1.06,2.44,16.93,16.93,0,0,0-1.06-2.44l-1.16-1.66a5.84,5.84,0,0,1-.86,0l-.44,0ZM90.17,60.46c.47-.18.51-.66.59-1.12C90.69,59.8,90.64,60.28,90.17,60.46Zm.62-1.25a1.32,1.32,0,0,1,.23-.58A1.32,1.32,0,0,0,90.8,59.21ZM62,101.19a1.21,1.21,0,0,0,.3.17,2.49,2.49,0,0,1-.13.67,2.48,2.48,0,0,0,.13-.67A1.2,1.2,0,0,1,62,101.19Zm11-6.67,0,.18c0,.09,0,.17,0,.25,0-.08,0-.17,0-.25Zm1-.92h0a1,1,0,0,0-1.13.51h0A1.05,1.05,0,0,1,74,93.6Zm-.59,4.95c-1.44-.93.94-1.9,0-2.83a.6.6,0,0,1-.36-.44A1.19,1.19,0,0,1,73,95a1.19,1.19,0,0,0,0,.28.61.61,0,0,0,.37.44c1,.94-1.42,1.9,0,2.83a2,2,0,0,1-.75,1.77A2,2,0,0,0,73.43,98.54Zm-3.87,21.22c.7.59.32,1.05,0,1.52.33-.47.71-.93,0-1.52a.87.87,0,0,0-.27-.33A.88.88,0,0,1,69.56,119.76Zm6.22,2.79.13.19-.13-.19Zm1.14-12.11h0Zm2.66-43.81a4.15,4.15,0,0,0-.06.86,4.15,4.15,0,0,1,.06-.86h0l3.07.11ZM78.1,65.21a.78.78,0,0,0,0,.34.79.79,0,0,1,.5.09.79.79,0,0,0-.5-.09h0a.8.8,0,0,1,0-.34,3.34,3.34,0,0,0,1-1.19A3.35,3.35,0,0,1,78.1,65.21Zm.85.74,0,0Zm-2.55-.54L75.32,65a2.7,2.7,0,0,0-1.48-.64,2.71,2.71,0,0,1,1.48.64l1.07.44a.6.6,0,0,0,.39-.07A.61.61,0,0,1,76.39,65.42ZM66.31,106.06a3.33,3.33,0,0,1-1.2-.39A3.33,3.33,0,0,0,66.31,106.06Zm1.55.43a13.33,13.33,0,0,0-.27,5.08,13.34,13.34,0,0,1,.27-5.08Zm1.06,12.77a3.56,3.56,0,0,0-.87-.11A3.55,3.55,0,0,1,68.92,119.26Zm6.84,3.28h0c-.25,0-.52,0-.77,0C75.24,122.56,75.51,122.53,75.76,122.54Zm.62,2.76c.34-.5.69-1,1.22-1.06-.54.09-.89.56-1.22,1.06a5.08,5.08,0,0,1-.72.91A5.08,5.08,0,0,0,76.39,125.3Zm1.83-1a1.24,1.24,0,0,0-.39,0A1.24,1.24,0,0,1,78.21,124.3Zm15.67-8.76a20.71,20.71,0,0,0,.18,2.1A20.58,20.58,0,0,1,93.89,115.53ZM100,100.65c-.26-3.32-.33-4.15-2.6-4.71,2.27.56,2.33,1.39,2.6,4.71-.21,1,.28,2.53-.68,3C100.29,103.18,99.8,101.66,100,100.65Zm6.7-31.48c.54,0,1.17.06,1.52-.32-.35.38-1,.3-1.52.32a4.89,4.89,0,0,1-.57,1.88A4.89,4.89,0,0,0,106.71,69.17Zm1.74,10s0,0,0,0S108.44,79.14,108.44,79.15Zm.49-2a2.6,2.6,0,0,0-.33.65,2.6,2.6,0,0,1,.33-.65ZM116.72,93h0Zm1.82.22a1.23,1.23,0,0,1,.58.7A1.23,1.23,0,0,0,118.54,93.2Zm-.43-.16-.24,0ZM96.31,50.47l.11.11a1,1,0,0,0,1,1l.09.09-.09-.09a1,1,0,0,1-1-1l-.11-.11a1,1,0,0,1-1-1A1,1,0,0,0,96.31,50.47ZM83,63.65h0Zm-5.5-2.88a11.42,11.42,0,0,1-4.11,0,11.4,11.4,0,0,0,4.11,0l1.64.17ZM79,124.69a3.92,3.92,0,0,1,1.89-.38,3.92,3.92,0,0,0-1.89.38Zm32.4-13.41.71-.1Zm2.52-2.44a5.68,5.68,0,0,0,1-.31,2.09,2.09,0,0,0,1.66.59,2.09,2.09,0,0,1-1.66-.59,5.67,5.67,0,0,1-1,.31,4.47,4.47,0,0,0-.94.33A4.46,4.46,0,0,1,113.9,108.85Zm5.51-10.51a1.21,1.21,0,0,1-.43,0A1.21,1.21,0,0,0,119.4,98.33Zm-.53-13.27h0c0,.19,0,.38,0,.57C118.9,85.44,118.89,85.25,118.87,85.06Zm0-.48c0-.16,0-.33,0-.49C118.87,84.25,118.88,84.42,118.88,84.58Zm-1.16-7.11a.59.59,0,0,0,.38-.4A.59.59,0,0,1,117.72,77.46Zm-1.23,2-2.62,0a2.61,2.61,0,0,1-1.47,2.6,2.61,2.61,0,0,0,1.47-2.6l2.62,0,.27-2.15h0ZM104.78,56.25a1.1,1.1,0,0,1,.11-.32h0A1.09,1.09,0,0,0,104.78,56.25Zm0-.59a1.09,1.09,0,0,1,0-.18,17.82,17.82,0,0,1-1.78-.73,17.78,17.78,0,0,0,1.78.73A1.1,1.1,0,0,0,104.82,55.67ZM93.16,46c.48,1.22,2.18,1.9,2,3.39h0C95.34,47.89,93.64,47.21,93.16,46ZM63.65,134.26a9.7,9.7,0,0,0,.87,1.77q0,.5,0,1l0-1A9.71,9.71,0,0,1,63.65,134.26ZM68,140.52a.92.92,0,0,0,1.1.27.92.92,0,0,1-1.1-.27,7.84,7.84,0,0,0-1.22-.16A7.83,7.83,0,0,1,68,140.52Zm20.69-2.26a2,2,0,0,1-.34-.05A2,2,0,0,0,88.72,138.26Zm4.45,2.86a9.64,9.64,0,0,1-.52-2.28,9.65,9.65,0,0,0,.52,2.28Zm5.69-5.06h0c-.06.12-.14.24-.22.36C98.72,136.29,98.8,136.18,98.87,136.06Zm1.94.44c.11.14.19.37.34.42-.15-.06-.23-.28-.34-.42s-.41-.23-.62-.35C100.39,136.26,100.59,136.39,100.8,136.49Zm5.06-8.85a.77.77,0,0,1-.15,0A.76.76,0,0,0,105.86,127.64Zm6.68-2.4a1.51,1.51,0,0,1,.08-.68,1.51,1.51,0,0,0-.08.68l0,.09Zm8.31-20.06c-.09.12.17.51.26.77a1,1,0,0,0,.19.39,1,1,0,0,1-.19-.39C121,105.69,120.76,105.3,120.85,105.18Zm-2.14-31.06c-.2-1-1.64-1.14-1.71-2.28a6.29,6.29,0,0,0-2-.6,6.31,6.31,0,0,1,2,.6c.07,1.14,1.51,1.24,1.71,2.28ZM114.31,60h0a.58.58,0,0,1-.5.16A.58.58,0,0,0,114.31,60Zm-2.92-2.41-.48.6.48-.6a1.59,1.59,0,0,1,.82-.23A1.59,1.59,0,0,0,111.39,57.59Zm1-.18.08,0Zm-1.47,1.42h0L110.39,60Zm-4.46-4,.29,0Zm-12.28-15h0c.14.27.32.53.44.81C94.52,40.32,94.34,40.06,94.2,39.78ZM93.7,41c-.24-.28-.43-.63-.66-.93l-1-.36h0l1,.36C93.27,40.36,93.46,40.71,93.7,41Zm-2.83-1.75h0Zm-2.31,8.85-.2-1.58a1.74,1.74,0,0,1-1.54-1,1.75,1.75,0,0,0,1.54,1Q88.45,47.3,88.56,48.09Zm-2-.62a6,6,0,0,0-1-.8A6,6,0,0,1,86.58,47.47Zm-1.81-1h0a1.51,1.51,0,0,1,.42.08A1.5,1.5,0,0,0,84.77,46.45Zm-6-7.35c0,.15,0,.3,0,.44C78.79,39.4,78.77,39.24,78.77,39.1Zm-1-2.61h0a1.1,1.1,0,0,0,.27.21A1.11,1.11,0,0,1,77.73,36.48Zm.92-.15a1,1,0,0,1-.19.3,1,1,0,0,0,.19-.3Zm-.95-2.08.26.68-.26-.68-.71.07Zm.05,1.66-.86-.06a1.84,1.84,0,0,0-1.25-1.16,1,1,0,0,1-.41.1h0a1,1,0,0,0,.42-.1,1.84,1.84,0,0,1,1.25,1.16Zm-4.16.42-.06.05.06-.05ZM66.79,66,64,65.82l2.8.13ZM45.14,114.12A6.18,6.18,0,0,0,46.49,113l.39-2.7-.39,2.7,2.58.19a8,8,0,0,0,1.86,0,8,8,0,0,1-1.86,0l-2.58-.2A6.22,6.22,0,0,1,45.14,114.12Zm-3.58-11.34c.3.37.66.7.54,1.27l-.2.14.2-.14C42.23,103.49,41.86,103.15,41.56,102.78ZM50.09,95a1.22,1.22,0,0,1,1-.31,1.22,1.22,0,0,0-1,.31,1.2,1.2,0,0,0-.24.81A1.19,1.19,0,0,1,50.09,95Zm-.35-5.92a17.11,17.11,0,0,0-.43-2.69,17.18,17.18,0,0,1,.43,2.69l3.06.57Zm3.92,34.4h0Zm-4.22.81h0l0-1a25.68,25.68,0,0,0-.58-2.86,25.65,25.65,0,0,1,.58,2.86Q49.45,123.78,49.43,124.29Zm3.27-32a1.1,1.1,0,0,0-.45,1.12,1.1,1.1,0,0,1,.45-1.12Zm-2.77,5h0l-2.71.06h0Zm-2.72.08a3,3,0,0,1-.58-.15,3,3,0,0,0,.58.15ZM49,107.14c-.26.79-.89,1.31-2.45,1.36a16.76,16.76,0,0,0-2.11-.55,16.72,16.72,0,0,1,2.11.54C48.07,108.45,48.69,107.93,49,107.14Zm0-22.09a1.34,1.34,0,0,1,.25-.51A1.34,1.34,0,0,0,48.94,85.05Zm-.06.51c-.22.07-.44.18-.65.26.22-.09.44-.19.65-.26ZM50,91.69a1.36,1.36,0,0,0,.11-1.2,1.37,1.37,0,0,1-.11,1.2A8.22,8.22,0,0,1,46,91.41,8.2,8.2,0,0,0,50,91.69ZM44,107.89a4.36,4.36,0,0,0-1.65,0A4.35,4.35,0,0,1,44,107.89Zm-1.32,5.51a5.81,5.81,0,0,1,1.83.83h0a5.81,5.81,0,0,0-1.83-.83,3.31,3.31,0,0,0-1.2,0A3.31,3.31,0,0,1,42.71,113.4Zm8.4,16.36,1.83,0-1.83,0c-.39-.44-1.11-.27-1.74-.32C50,129.5,50.73,129.32,51.12,129.77Zm3.44,2.65h0Zm1,.17h0c.18.28.51.65.63.89-.12-.25-.45-.61-.63-.89Zm23.65,10a3.51,3.51,0,0,0-.26-1.7h0A3.51,3.51,0,0,1,79.24,142.62Zm.85-3.33a4.67,4.67,0,0,1,2.3-1.18,8.27,8.27,0,0,0-.81-2.28,8.29,8.29,0,0,1,.82,2.29,4.66,4.66,0,0,0-2.3,1.18c-.52.12-.51.61-.61,1C79.58,139.9,79.57,139.41,80.09,139.29Zm7.43,2.25h0c-.06.19-.13.36-.2.53C87.39,141.89,87.46,141.73,87.52,141.53Zm1-.32a2.23,2.23,0,0,0-.46.13A2.22,2.22,0,0,1,88.55,141.21Zm17.77-6.88a7.84,7.84,0,0,1,.64-1.77V131q0,.78,0,1.57A7.81,7.81,0,0,0,106.32,134.33Zm2.61-3.29h0a6.67,6.67,0,0,0,1.81-.71A6.67,6.67,0,0,1,108.93,131Zm11.3-59.92A1.78,1.78,0,0,0,120,72.4a1.78,1.78,0,0,1,.27-1.28l-1.47,0c-.05.55-.22.74-.43.76.22,0,.38-.2.43-.76l1.47,0a8.3,8.3,0,0,0,.39-2.15A8.31,8.31,0,0,1,120.24,71.13Zm-2.62-8.31a1.83,1.83,0,0,0-.38-.22,1.84,1.84,0,0,1,.38.22l.21.16Zm1.25-.12a2.17,2.17,0,0,0,.14-.89,2.18,2.18,0,0,1-.14.89l-.05,1.07h0Zm-.56,0-1.18-1.37c-.18-.29-.39-.6-.69-.64.3,0,.51.34.69.64l1.18,1.37Zm-2.66,1.58-.17,1,.17-1,.88-1Zm-6.32-8.75q0,.36,0,.72c.13.59.73.93,1,1.46-.25-.53-.85-.87-1-1.46Q109.33,55.87,109.33,55.5Zm-1.44-1.79a3.18,3.18,0,0,1,.39.3A3.18,3.18,0,0,0,107.89,53.71Zm-.28-.12a.76.76,0,0,1,.16.07A.76.76,0,0,0,107.61,53.59Zm-9-14.21a5,5,0,0,0-3.69-2.54c-.83-.69-1.5-1.65-2.79-1.5,1.28-.16,2,.81,2.79,1.5A5,5,0,0,1,98.6,39.38ZM90.28,37.6,89.72,37h0a.8.8,0,0,0-.07-.51.8.8,0,0,1,.07.51l.56.55ZM89,35.34c-.09-.36.05-.72.8-1h0C89.08,34.62,88.94,35,89,35.34Zm.44.84-.16-.26Zm-.82.68a.72.72,0,0,1,.41,0,.72.72,0,0,0-.41,0,.49.49,0,0,0-.26.24A.49.49,0,0,1,88.64,36.85Zm0,5.81a1.52,1.52,0,0,1-.06,1,1.52,1.52,0,0,0,.06-1v0Zm-4,.45.45.46-.45-.46-1.07-1L82.21,41h0l1.33,1.12ZM80.2,37.57l-1,.57h0l1-.57h0Zm.13-.63c.39-1.21,1.42-2.17,1.63-3.45C81.76,34.77,80.72,35.74,80.33,36.95Zm.78-6.05s0,0,0,0S81.11,30.9,81.11,30.89Zm-1.48,0-.33.5-.7.62h0l.7-.62.33-.49a1.18,1.18,0,0,1,.29-.95A1.17,1.17,0,0,0,79.63,30.9Zm-2.14.88a3.76,3.76,0,0,1,.38-1A3.76,3.76,0,0,0,77.48,31.78ZM67,20.19c-.51-.76-1.45-1.1-2.18-1.65l-.14-.46.14.46C65.6,19.09,66.54,19.43,67,20.19Zm-2.6-.43h0l.71-.2Zm-3.93-4.37a.57.57,0,0,0,.13.22.57.57,0,0,1-.13-.22,2.43,2.43,0,0,1,2.07.2A2.43,2.43,0,0,0,60.52,15.39ZM65.1,23.1a.84.84,0,0,1,.41.1.84.84,0,0,0-.41-.1c0,.11-.08.26-.11.38C65,23.36,65.07,23.21,65.1,23.1Zm1.43-2.29a2.11,2.11,0,0,1-.66,0,2.11,2.11,0,0,0,.66,0l.86.3v0h0v0Zm1.52,1.52a.9.9,0,0,1-.45-.24A.9.9,0,0,0,68.05,22.34Zm.5.06,0,0,0,0Zm3.15,13.4a.94.94,0,0,0,.37-.21A.93.93,0,0,1,71.7,35.79Zm-7.88-.27a4.82,4.82,0,0,1,1.84-1A4.82,4.82,0,0,0,63.82,35.52Zm-9.6,4.31L54,41l.26-1.14.34-1-3,.47.23.54h0l-.77.49a7.54,7.54,0,0,0-1.53.12A7.54,7.54,0,0,1,51,40.36l.77-.49-.23-.54-5.48,1.1a2.39,2.39,0,0,1-1.38.43,2.39,2.39,0,0,0,1.38-.43l5.48-1.1,3-.47ZM46.07,43.1l.74.39-.74-.39ZM64.62,41a22.22,22.22,0,0,0,4-.53,22.23,22.23,0,0,1-4,.53l-4.45.49Zm-1.18,3.32L53.17,48.21l10.27-3.93Zm-9.57,9.85s0,0,0,0,0,0,0,0l0,0Zm1.24-.67h0l-.68.32ZM58,51.61l-.23.1Zm-.43.22a15.46,15.46,0,0,0-2.21,1.42A15.47,15.47,0,0,1,57.62,51.83Zm2.87,11.34c-.8.25-1.34.62-1.43,1.5C59.15,63.8,59.7,63.43,60.49,63.18ZM56.63,76.6c.32-.14.67-.22,1-.35C57.31,76.38,57,76.46,56.63,76.6ZM44.75,91.16c.09-.26.31-.58.24-.78.08.2-.15.52-.23.78-.31.12-.62.28-.92.39C44.14,91.44,44.44,91.28,44.75,91.16Zm-5.25,48a.56.56,0,0,1-.47-.45A.56.56,0,0,0,39.5,139.13Zm.46,0,.71.86-.71-.86Zm1.39,2.26a2.2,2.2,0,0,1-.42-.62A2.2,2.2,0,0,0,41.35,141.37Zm1.46.55.15.18-.15-.18Zm.81,1.55a2.64,2.64,0,0,1-.38-.63A2.64,2.64,0,0,0,43.62,143.47Zm2.64,2.2a1.45,1.45,0,0,1-.39-.48A1.45,1.45,0,0,0,46.26,145.67ZM72.95,157.3c-.21,0-.41,0-.62-.07C72.54,157.25,72.74,157.29,72.95,157.3ZM71,157q-1-.21-2-.51Q70,156.81,71,157Zm19.38-.58,1.68-.18-1.68.18A23.09,23.09,0,0,1,84,157.75,23.09,23.09,0,0,0,90.41,156.44ZM101,153.72l1.14-.44-1.14.44a12.77,12.77,0,0,1-1.87,1A12.77,12.77,0,0,0,101,153.72ZM99,154.87a16.57,16.57,0,0,1-4.5,1.19A16.57,16.57,0,0,0,99,154.87Zm4-1.64a.52.52,0,0,1-.49.16A.52.52,0,0,0,103,153.23Zm.18-.28a81.32,81.32,0,0,0,7.59-4,81.32,81.32,0,0,1-7.59,4Zm6-100.24h0a1.42,1.42,0,0,1-.4-.09l-.15.72.62,1h0l-.62-1,.15-.72A1.42,1.42,0,0,0,109.22,52.71Zm8.58-22.9a12.65,12.65,0,0,0-2.31-.27,12.66,12.66,0,0,1,2.31.27ZM119,27.9l.11,0ZM97.11,29.55c-.75.05-1.38.74-2,1.37l-.27.73.44.47c.23.79.6.92,1,.84-.4.08-.77-.05-1-.84l-.43-.47.27-.73C95.72,30.29,96.36,29.61,97.11,29.55Zm0,0a1.54,1.54,0,0,1,.92.28A1.54,1.54,0,0,0,97.15,29.56Zm-.26,3.17a3.92,3.92,0,0,1-.52.21A3.92,3.92,0,0,0,96.89,32.73Zm-9.17,5.15a.54.54,0,0,0,.25-.06A.53.53,0,0,1,87.72,37.88Zm-6.25.81-.15-1.09h0ZM83.39,28l.19-1h0ZM82.2,28h0a2.12,2.12,0,0,1,.15-.52A2.13,2.13,0,0,0,82.2,28Zm-.17-.2c-.49-1.12-1.08-1.35-1.72-1.12.64-.23,1.22,0,1.72,1.12.1,0,.13.09.14.17C82.16,27.91,82.13,27.84,82,27.83Zm-4.11.71.1.13-.1-.13Zm-2.06,3-.09-.08-.09-.08h0l.09.08.09.08ZM74.19,22.4l-.22.21h0ZM73,22.5v0l.29,0Zm-6.08-5.15a1.53,1.53,0,0,1,.07-.6A1.54,1.54,0,0,0,66.88,17.35ZM56.19,15a.71.71,0,0,1-.29-.43A.71.71,0,0,0,56.19,15Zm.57-4.21h0l.58.68Zm0,0h0l-.55-.55h0c0-.1-.08-.21-.13-.33,0,.11.1.23.13.33Zm3.38,7.77a4.17,4.17,0,0,1-.42-.17A4.14,4.14,0,0,0,60.13,18.52Zm2.38,2.08a3.36,3.36,0,0,1-.22.29h0A3.34,3.34,0,0,0,62.51,20.6ZM71.87,29a1.38,1.38,0,0,0,.43-.48,1.38,1.38,0,0,1-.43.49,1.5,1.5,0,0,1-2-.51A1.49,1.49,0,0,0,71.87,29Zm0,5.27a.79.79,0,0,0,.37,0,.8.8,0,0,1-.37,0c.85-1.93-1.24-1.54-1.84-2.32h0C70.66,32.69,72.75,32.3,71.9,34.23ZM54,37.39l0,.09-2.8-.14,2.8.14ZM36.48,46a5.52,5.52,0,0,0-.56.25A5.56,5.56,0,0,1,36.48,46Zm1.88,0h0a2.31,2.31,0,0,0-1.15-.18A2.31,2.31,0,0,1,38.36,46Zm19.49,21.3c.45-.58.42-1.48,1.23-1.81h0c-.81.33-.78,1.23-1.23,1.81a3.44,3.44,0,0,1-1,.41A3.43,3.43,0,0,0,57.85,67.25Zm-4.68,6a2.65,2.65,0,0,1,1.95.64,2.66,2.66,0,0,0-1.95-.64Zm-.06.6c.33.58,1.47,1.13.16,1.78a4.16,4.16,0,0,1-1.58.32,4.16,4.16,0,0,0,1.58-.32C54.58,75,53.44,74.42,53.11,73.84ZM34,132.09a2.77,2.77,0,0,1-.13-.36A2.77,2.77,0,0,0,34,132.09Zm1.4,1,.38.67a3.3,3.3,0,0,0,1,2.24,3.3,3.3,0,0,1-1-2.24l-.39-.67Zm19.12,17.82a10.89,10.89,0,0,1-4.15-2.6A10.89,10.89,0,0,0,54.47,150.93Zm29.28,6.85a22.55,22.55,0,0,1-3.37-.09A22.59,22.59,0,0,0,83.75,157.78Zm48.73-33a14.8,14.8,0,0,1-.91,1.77A14.78,14.78,0,0,0,132.47,124.83Zm.78-2-.06.15Zm2.44-30.39-.46-4.18.46,4.18Zm-1.26-6.23h0a2.44,2.44,0,0,1,.35.09A2.45,2.45,0,0,0,134.44,86.2Zm-7.74,47.68.09-.11-.09.11Zm2.83-4.42.26-.63-.26.63a7,7,0,0,1-1.6,3.52A7,7,0,0,0,129.52,129.46Zm-3.19,5.69a2.48,2.48,0,0,1-.68.72A2.48,2.48,0,0,0,126.34,135.15Zm10.11-41.53a5.61,5.61,0,0,1,.24.79A5.61,5.61,0,0,0,136.45,93.62Zm-4.7-15.45a2.73,2.73,0,0,0-.58-.38.3.3,0,0,1-.16-.15.3.3,0,0,0,.16.15A2.73,2.73,0,0,1,131.75,78.17Zm-6.67-10.81c-.09.23-.11.56-.17.79h0C125,67.92,125,67.59,125.08,67.36Zm-3.95-2.47a14,14,0,0,0,1.37.5,1.18,1.18,0,0,1,.53.43,1.18,1.18,0,0,0-.53-.43,14,14,0,0,1-1.37-.5,1.21,1.21,0,0,0-.48-.79A1.21,1.21,0,0,1,121.14,64.89Zm-15.7-18.35.16.09-.16-.09-.06-.07Zm16.19-17.66s0,0-.06.07,0,0,.06-.07l-.39-1.31ZM87.29,37.82a1.36,1.36,0,0,0,.36.08,1.36,1.36,0,0,1-.36-.08c-.25-.08-.5-.21-.74-.27C86.79,37.61,87,37.74,87.29,37.82Zm-2.58-8.64a4,4,0,0,1,.12-.6,4.05,4.05,0,0,0-.12.6v0ZM81.07,24a1.37,1.37,0,0,1,.54-.35A1.37,1.37,0,0,0,81.07,24Zm-.22.46h0l-1.2,0Zm-3.52-3.79a1.53,1.53,0,0,0-.68-.14A1.53,1.53,0,0,1,77.32,20.65ZM74.07,21.9h0l-.53-.56a2.47,2.47,0,0,0,0-.7,2.47,2.47,0,0,1,0,.7Zm-3.83-5.12A11.18,11.18,0,0,0,65.77,14a4.07,4.07,0,0,0-.67-.89,4.07,4.07,0,0,1,.67.89A11.17,11.17,0,0,1,70.24,16.78ZM57.17,22c.7-.41.56-1.55.85-2.3h0C57.73,20.49,57.86,21.64,57.17,22ZM59,19.13l-.55-.51h0l.55.51-.69.64ZM51.32,34.7l1.82.11c2.42-.85,4.78-1.93,7.21-2.76A19.57,19.57,0,0,1,68,30.79a6.74,6.74,0,0,1,1.67.65A6.72,6.72,0,0,0,68,30.79,19.57,19.57,0,0,0,60.35,32c-2.43.83-4.79,1.92-7.21,2.76l-1.82-.11a3.32,3.32,0,0,0-1.9-.64A3.32,3.32,0,0,1,51.32,34.7ZM38.25,37.19a14.13,14.13,0,0,1-2,.32A14.13,14.13,0,0,0,38.25,37.19Zm.55,2.67c-1,.17-2,.37-3,.57C36.76,40.23,37.77,40,38.79,39.86Zm14,14.89h0l1.15.13h0l-1.15-.13L50.58,56Zm-5.11,3.3h0a2.47,2.47,0,0,0-.41.29A2.47,2.47,0,0,1,47.68,58.05Z"/><path class="cls-2" d="M115.59,56.14c2.09.66,3.29,2.46,4.8,3.84a59.26,59.26,0,0,1,15.27,22c.25.83.49,1.67.75,2.49a55.27,55.27,0,0,1,2,27.22c-6.89,36.81-44.44,57.13-79.08,42.93-7.82-3.21-14.4-8.16-20.51-13.84h0a7.39,7.39,0,0,0-2.19-2.51l-1-1.16a2.39,2.39,0,0,0-1.14-1.5c-6.17-9-10.08-18.8-10.6-29.72C22.9,83.37,31.7,65.78,51,53.67c.89-.56,1.82-1,2.72-1.56.36,0,.68,0,.58-.53a1.05,1.05,0,0,0,1.1-.56L65,47.32c.93-.2,1.88-.36,2.79-.62,3.5-1,7.25-1.22,10.46-3.16,2.14.58.49-1.72,1.52-2l1-.53,1.05,0,.14,1c0,.8-1.31,2,.7,2.16l1.25,1.06,1,.94L86.66,48c.47.62.8,1.43,1.78,1.4l.19,1.49c-1.62.48-2.16-1.53-3.56-1.54L84.78,49c-.57-1.77-1.58-1.65-2.66-.54s-2,2-3.52,1.93a34.27,34.27,0,0,0-10.34,1.27c-3.85.89-7.83,1.65-11.06,4.26l-.64.3c-.3-.09-.46,0-.52.33l-.13.07a.76.76,0,0,0-.89.51l-2.08,1.19a3.25,3.25,0,0,0-2.73,1.92,2.33,2.33,0,0,0-.38.28.38.38,0,0,0-.5.39A46.89,46.89,0,0,0,32.39,83.85a50.8,50.8,0,0,0,2.25,40.35l.2.42.54,1.05a1.51,1.51,0,0,0,.94,1.62l.59,1c.14,1.13.35,2.22,1.71,2.53l.36.63c.22,1.1.42,2.21,1.82,2.42L42,135.68c0,.62.23,1,.9.81l.67.81c.25,1.08.79,1.83,2,1.83l.14.17c.33,1,.68,1.88,2,1.8l.58.44A1.61,1.61,0,0,0,50.06,143L52,144.21c1.8,2.78,4.89,3.39,7.66,4.55l1.86.64c1.11,2.18,3.47,1.8,5.25,2.3,3.18.89,6.32,2.49,9.81,1.67l1.24,0a21.44,21.44,0,0,0,12.62-.62l1.58-.17a15.81,15.81,0,0,0,8.43-2.39l1.08-.41a.59.59,0,0,0,.92-.31,50.92,50.92,0,0,0,11.67-7,90.91,90.91,0,0,0,9.47-9.11,2.16,2.16,0,0,0,1-1.87l.09-.1c1.71-.81,2.18-2.41,2.57-4.05l.25-.59c2.65-2.6,3.42-6.07,4.36-9.46a2.47,2.47,0,0,0,.4-1.73c2.36-5.86,2.52-12,2.13-18.18-.11-1.67-.1-3.47-1.32-4.88l-.43-3.94c.38-.89.59-1.71-.76-1.92l-1.13-4c.13-.95-.09-1.62-1.23-1.58a.35.35,0,0,1-.1-.36c.62-.91.24-1.5-.62-1.93a.25.25,0,0,1-.14-.35c.7-3.51-1.81-5.62-3.54-8.06-.35-.49-.94-.35-1.4,0a.4.4,0,0,1-.22-.28c.3-.43.65-1.11.17-1.34-.7-.33-.63.49-.75.92l-1.6-1.4c.09-1.42-1.2-1.22-1.95-1.67-.28-1.27-1.38-.86-2.18-1.05l0-1a2.1,2.1,0,0,0-.08-1.66l1,0c.3,0,.44-.1.43-.4C119.3,59.61,116.57,58.27,115.59,56.14Z"/><path class="cls-3" d="M38.85,140.8c6.12,5.68,12.69,10.63,20.51,13.84,34.64,14.2,72.19-6.12,79.08-42.93a55.27,55.27,0,0,0-2-27.22c-.26-.83-.5-1.66-.75-2.49,2.55,2.26,2.7,5.54,3.37,8.49,4.4,19.29-.77,36.38-13.19,51.16-9.32,11.09-21.62,17.2-36.26,18.8a60.91,60.91,0,0,1-33.32-5.65,53,53,0,0,1-16.76-12.38A1.79,1.79,0,0,1,38.85,140.8Z"/><path class="cls-4" d="M86.67,48l-1.74-1.78c.32-.14.69-.49.39-.7s-.92-.18-1.39-.24l-1.25-1.06c.87-1.08,1.21-2-.7-2.17l-.14-1c.79-2.07,2.41-3.5,3.84-5.09,1.05-1.17,1.8-2.41-.06-3.57l0-.12,1.2-.18h.08a4.3,4.3,0,0,1,3.78,1.24,10.48,10.48,0,0,0,3.83,2.14l.41.44c.44,1.51,1.42.47,2.1.36,2.62-.42,5.16-1.43,7.88-.94a.84.84,0,0,1,0,.34s-.16,0-.24.06a15.67,15.67,0,0,0-7.45,2.06L104,36.46l-.61,1.31,0,.05a15,15,0,0,0-4.59.63c-.47,0-1.19-.25-1.28.28-.14.84.75.59,1.22.76.61,1.24,1.77,1.1,2.89,1.24,4.14.52,8-1.11,12-1.6,2.73-.34,5.32.59,8,0-.21,1.89-1.69,2.31-3.16,2.57-4,.71-8,1.31-12.07,2-.74.12-1.76-.09-2.06.79s.66,1.51,1.25,2.06c3.17,2.94,5.69,6.58,9.45,8.9.09.35.17.72.62.8v-.09c1,2.14,3.71,3.47,2.93,6.42l-.43.4-1,0a9,9,0,0,1-2.54-2.71c-1.39-2.25-3-4.49-5.88-5.1.23-1.92-.87-3-2.39-3.81a3,3,0,0,0-1.73-1.92l-.06-.07a6.62,6.62,0,0,0-2.61-2.54l-.05,0a2.21,2.21,0,0,0-2-1.58l-.07-.06-.44-.45-.08-.08-.45-.44-.06-.08a5.06,5.06,0,0,0-4.09-3.77c-.78-.64-1.42-1.55-2.62-1.41l-.62-.59a12.29,12.29,0,0,0-.95-2.1c-.29-.42-.73-1.19-1.43-.63s-.32,1.07.16,1.56c.24.25.46.52.68.78-1.85.81.2,1.77-.11,2.64-.54-.12-1.2-.68-1.39.4-.58,1.12-1.92-.93-2.4.58-1.13.09-2.29.3-1.08,1.71.67.79,1.44,1.76,2.78,1.44l0,0c-.05.73.31,1,1,1v.06C89,47.48,87.38,47.31,86.67,48Z"/><path class="cls-4" d="M60.51,33.09c1.28-.11,3.2,0,3.45-1.09.29-1.34-1.72-1.58-2.76-2.23-2.62-1.64-5.75-2.34-8.14-4.42,1.34-1.74-1.08-2.18-1.19-3.42a.75.75,0,0,1,.45-.89c1.7.28,3,1.39,4.43,2.19-.52,1.52-.69,3,1.41,3.3,1.75.26,1.4-1.34,1.76-2.28l.25,0a2.42,2.42,0,0,0,1.26,2.11,55.28,55.28,0,0,0,9.27,5.28l.1,0c.3,1.13,1,1.6,2.15,1.2a1.45,1.45,0,0,0,.65-1.26l.54-.11.39-.24c1.76.71,3.23,1.57,2,3.85-1.5.41-1.54,2.54-3.22,2.73a.75.75,0,0,1-.35,0c.8-1.82-1.16-1.45-1.73-2.19s-1.27-.78-2-1.05c-5.07-.3-9.39,2.19-13.94,3.78l-1.71-.1c-1.21-.79-2.41-.89-3.43.27s-2,1-2.55-.34a1.88,1.88,0,0,0-3.14-.6c-1.63,3-4.33,2-6.73,2.2.33-2.07,1.39-3,3.63-3.24a59.94,59.94,0,0,0,12.33-2.41Z"/><path class="cls-5" d="M94.52,35.45a10.48,10.48,0,0,1-3.83-2.14,4.3,4.3,0,0,0-3.78-1.24c1-2.65,2.58-.22,3.87-.42a5.64,5.64,0,0,0,6,1,15.45,15.45,0,0,1,3.32-.6,2.45,2.45,0,0,0,2.46-1.83,1.83,1.83,0,0,1,3.12-.83c1.15,1.55,2.45,1.19,3.69,1,1.7-.24,4.23.22,4.89-1.06.79-1.54,2.08-2.08,3.37-3.08-2.79-.32-4.92,1.22-7.33,1.41-.12-1-.8-1.32-1.68-1.42a62.31,62.31,0,0,1,8.6-1.41c1.94-.06,2.32,1.88,2.32,3.6-.42.06-.95,0-1.25.19a14.08,14.08,0,0,1-7.78,2.48c-1.7.1-3.59.05-5.15,1.35,3.23-.27,6.52.49,9.67-.91.31.79,1,.32,1.54.49,1-.2,2.07-.64,2.13,1a5.1,5.1,0,0,1-2.54.62,16.36,16.36,0,0,0-8.49.84c-.3.09-.5.68-.62,1.08s.19.61.59.62c3.11.09,6.21.13,9-1.58,1-.7,2.44-.62,3.12-1.83L119.2,31c2,1.32,2.05,3.26,1.67,5.34-.35-.66-.89-.07-1.32-.21-1.22-.71-2.25-.64-3,.7-3.27,1-6.89.09-10,1.9a54.62,54.62,0,0,0,14-1.93c1.13.42,1.66,1.1,1,2.3-2.64.58-5.24-.34-8,0-4,.5-7.87,2.12-12,1.6-1.11-.14-2.28,0-2.89-1.24l.06-1a15,15,0,0,1,4.59-.63l-4.2,1.47a8.37,8.37,0,0,0,6-1.37l-1.78-.15.61-1.31.63-.74c.08,0,.22,0,.24-.06a.84.84,0,0,0,0-.34c-2.73-.5-5.27.51-7.88.94-.67.11-1.66,1.14-2.1-.36,3.36-1,7-.87,10.24-2.45-2.46-.58-4.68.9-7.08.72-1.4-1.42-2.35-.35-3.32.61Z"/><path class="cls-4" d="M110.29,27.68c2.41-.19,4.54-1.73,7.33-1.41-1.29,1-2.58,1.54-3.37,3.08-.66,1.28-3.19.82-4.89,1.06-1.24.18-2.54.54-3.69-1a1.83,1.83,0,0,0-3.12.83,2.45,2.45,0,0,1-2.46,1.83,15.45,15.45,0,0,0-3.32.6,5.64,5.64,0,0,1-6-1c4-2.4,8-4.75,12.83-5.14l3.08-.26c0,.78-.88.91-1.21,1.55A15,15,0,0,0,110.29,27.68Z"/><path class="cls-4" d="M67.13,14.17A64,64,0,0,1,79.39,25a23.37,23.37,0,0,0,3.17,2.71c-.48.2-1.06.29-1.17.94l-1.13,0c-1.4-4.1-2.67-4.68-5.24-2.41l-.5-.52a2.39,2.39,0,0,0-.93-2.25c-2-1.77-3.68-3.86-6.37-4.62a4.27,4.27,0,0,0-1.65-1.65L65.51,17C65.47,15.71,65.68,14.58,67.13,14.17Z"/><path class="cls-5" d="M65.56,17.23a4.28,4.28,0,0,1,1.65,1.65c-.27,1.13,1.09,1.55,1.11,2.56-.5,1.74,1.92,1.41,2,2.77-1.7-.11-2.66-1.64-4.16-2.14-1.1-1-2-2.51-3.85-1.91l-.36.87.53,2.07c-.7.32-1.47-1-2.14.1-2.21-1.5-3.86-3.74-6.38-4.83.74-1,1.07-2.36,2.12-3.2l.55.61.69,1-.18.64a2.79,2.79,0,0,0-.57.18c0,.43.38.29.65.29v0l.51.52h0c.24.77.14,2.13,1.55.92,1.36,0,.68-.73.43-1.3.21-.61-.15-1.08-.4-1.58l-.57-.68,0,0-.56-.56,0,0c-.12-.4-.48-1-.33-1.17.43-.63.93-.1,1.23.24C60.83,16.3,62.58,18.14,65.56,17.23Z"/><path class="cls-6" d="M54.27,51.57c.1.5-.22.54-.58.53-.63-1.25-1.69-.92-2.71-.74-3.4.58-6.79,1.28-10.22,1.69-1.48.17-3.32,1-4.42-1l2.07-.55c3.61.34,7-.94,10.53-1.4,5.4-.72,10.65-2.36,16.1-2.82L55.37,51C54.78,50.76,54.36,50.84,54.27,51.57Z"/><path class="cls-5" d="M37.79,39.84c2.39-.19,5.09.82,6.73-2.2a1.88,1.88,0,0,1,3.14.6c.59,1.36,1.47,1.58,2.55.34s2.21-1.06,3.43-.27l-2.75,2.22c.92.38,1.83-.32,2.6.26-.1,1.4-1.13,1.14-2.06,1.25a13,13,0,0,0-6.26,2.06l-.1.07c-.76-1.3-2-1.21-3.21-1-1.79.29-3.56.7-5.34,1.05.09-.59-.12-1.3.63-1.65,2-.91,4.18-.31,6.15-1.12,1.18,1.87,2.73.6,4.11.4.29,0,.8-1,.67-1.2-.7-1.22-2-.28-3-.67-2.55.08-5,1.43-7.59.85Z"/><path class="cls-2" d="M56.6,15.77,56,15.16c.81-1.23,1.59-2.49,2.44-3.7,1.84-2.63,1.86-2.62,4.46-.43a.64.64,0,0,1-.86.32c-.7-.29-1.41-1.47-2.13-.25-.59,1,.48,1.47,1.1,2,1.44,1.33,3.24,2.24,4.45,3.84l.06.25c-3,.91-4.73-.93-6.45-2.88-.3-.34-.79-.87-1.23-.24-.15.21.21.77.33,1.17Z"/><path class="cls-2" d="M118.68,33.1c-.06-1.68-1.15-1.24-2.13-1-.3-.84-1-.3-1.54-.49-3.14,1.4-6.44.63-9.67.91,1.56-1.29,3.45-1.24,5.15-1.35a14.08,14.08,0,0,0,7.78-2.48c.3-.22.83-.14,1.25-.19A2.07,2.07,0,0,1,119.2,31l.54,1.8Z"/><path class="cls-2" d="M38.4,51.54l-2.07.55c-1.84-1.31-.53-2.86-.32-4.33,2.77.25,5.32-1.18,8.08-1l4.6-.53,1.16.61-.54.63c-2.16-.31-4.27.24-6.41.41-.69.06-1.46,0-1.46,1-1.54-.64-2.66.63-3.93,1C37.09,50.05,38.21,50.9,38.4,51.54Z"/><path class="cls-2" d="M53.92,18.36c2.53,1.08,4.17,3.33,6.38,4.83l.52.48-.65.6-.25,0a2.88,2.88,0,0,1-3.17-1c-1.44-.8-2.73-1.91-4.43-2.19A7.29,7.29,0,0,1,53.92,18.36Z"/><path class="cls-5" d="M44.09,46.74c-2.76-.15-5.31,1.27-8.08,1l.2-1.59a32.75,32.75,0,0,0,5.1-.52c1.27-.32,3,.29,3.75-1.47l.1-.07c1.16-.27,2.43.39,3.53-.41.84.85,1.82.42,2.77.31-.87,1.19-2.32.84-3.45,1.31C46.72,45.86,44.88,44.87,44.09,46.74Z"/><path class="cls-5" d="M65.51,17c-1.2-1.6-3-2.52-4.45-3.84-.61-.56-1.68-1-1.1-2,.71-1.22,1.43,0,2.13.25a.64.64,0,0,0,.86-.32,18.39,18.39,0,0,1,4.18,3.14C65.68,14.58,65.47,15.71,65.51,17Z"/><path class="cls-4" d="M45.06,44.18c-.73,1.77-2.48,1.15-3.75,1.47a32.75,32.75,0,0,1-5.1.52l.3-2c1.78-.36,3.55-.76,5.34-1.05C43,43,44.29,42.88,45.06,44.18Z"/><path class="cls-2" d="M120.58,36.83a54.62,54.62,0,0,1-14,1.93c3.12-1.81,6.74-.94,10-1.9,1.09.18,2-.6,3-.7.43.14,1-.45,1.32.21Z"/><path class="cls-2" d="M80.26,28.69l1.13,0,3.56.83v1a.68.68,0,0,0-.43.05c-.31,0-.6.12-.57.53v0c-.81-.13-1.17.3-1.3,1a.18.18,0,0,0-.16-.19c-.74-1.68-1.71-1.22-2.73-.28v0C79.78,30.57,79.53,29.54,80.26,28.69Z"/><path class="cls-2" d="M37.51,40.83c2.62.58,5-.76,7.59-.85-.3.87-1.23,1-1.81,1.47-2,.81-4.2.2-6.15,1.12C37.16,42,37,41.33,37.51,40.83Z"/><path class="cls-5" d="M60.51,33.09l-6.76,1.1c.32-1.26,1-1.95,2.42-1.68S59.11,32.5,60.51,33.09Z"/><path class="cls-2" d="M110.29,27.68a15,15,0,0,1-4.83.12c.34-.64,1.21-.77,1.21-1.55h1.93C109.49,26.36,110.17,26.68,110.29,27.68Z"/><path class="cls-2" d="M51.88,21.93c.11,1.24,2.53,1.67,1.19,3.42C51.6,24.58,50.41,23.71,51.88,21.93Z"/><path class="cls-5" d="M84.52,30.49a.68.68,0,0,1,.43-.05c.2,1,2.11.1,1.87,1.63l-1.2.18c-.58,0-.52.5-.6.87h0a.46.46,0,0,0-.51.51h0l-1,.54L83.79,32,84,31v0Z"/><path class="cls-5" d="M84.95,29.49l-3.56-.83c.12-.66.69-.75,1.17-.95C83.49,28.13,84.54,28.37,84.95,29.49Z"/><path class="cls-3" d="M36.66,138.3a7.39,7.39,0,0,1,2.19,2.51C37.25,140.73,36.63,139.8,36.66,138.3Z"/><path class="cls-3" d="M34.57,135.65a2.39,2.39,0,0,1,1.14,1.5C34.59,137.21,34.53,136.47,34.57,135.65Z"/><path class="cls-2" d="M115.59,56.23c-.45-.08-.52-.45-.62-.8C115.3,55.61,115.76,55.67,115.59,56.23Z"/><path class="cls-3" d="M127.41,126.82l-.25.59c-2.81,0-2.94.2-2.57,4.06l-.09.1c-1.6,0-1,1-1,1.87a90.91,90.91,0,0,1-9.47,9.11,50.91,50.91,0,0,1-11.67,7c-.39-.13-.77-.25-.92.31l-1.08.41c-3,.2-6,.28-8.43,2.39l-1.58.17a59,59,0,0,0-12.62.62l-1.24,0c-.1-.22-.19-.64-.31-.64-5.08-.39-9.9-1.92-14.75-3.33l-1.86-.64a7.86,7.86,0,0,0-.13-1.22c-3-.08-4.57-3.26-7.52-3.34L50.06,143c.32-1.55-.83-1.39-1.75-1.49l-.58-.44c-.06-1.25-.82-1.73-2-1.8l-.14-.17a2.43,2.43,0,0,0-2-1.84l-.67-.81c0-.63-.32-.86-.91-.81l-1.25-1.78A3.6,3.6,0,0,0,39,131.47l-.36-.63c.39-1.49-.45-2.16-1.71-2.53l-.59-1c.51-1-.17-1.35-.94-1.62l-.54-1.05c0-.06.12-.16.1-.18a2.73,2.73,0,0,0-.3-.24,50.8,50.8,0,0,1-2.25-40.35A46.89,46.89,0,0,1,49.33,60.94l.31.2.19-.59a2.32,2.32,0,0,1,.38-.28c1.62.37,2.12-.84,2.73-1.92L55,57.16l1.12.12a.8.8,0,0,0,.06.21s.09,0,.14.06l-.23-.25-.2-.66.13-.07c.31.11.5,0,.52-.33l.64-.3c.76,1.31,1.7.42,2.35,0a16.74,16.74,0,0,1,11.24-2.64c.34,0,.59,0,.78-.4.44-1,.85-1.35,1.72-1.32,4.06.14,8.08.15,11.49-2.58l.31.33c-.28,1.2-.58,2.07,1.35,2.36,1.17.17,3,.1,3.57,2.15.22.86.84-.32,1.31-.48l6.88,7.09c-2-.65-2.84.26-3,2.16a1.32,1.32,0,0,1-1.73,0c-.65-.66-.28-2.16-1.82-2.1s-.56,1.67-1.5,2c-.8.73-2.88-1-2.78,1.45-.23-.56-.75-.44-1.19-.53-.17-1.05-.74-2.06-.14-3.18-2.66,0-5.33-.59-6.29,2.7l-1.54-.16c-1.72.51-3.48-.24-5.12,0-2.39.36-2.06-.82-1.67-2.22-2.16-.47-2.4,1.07-2.94,2.43,1,.22,2.24-.51,2.44,1a1.12,1.12,0,0,1-1.1,1.24c-2.23-.25-1.46,1.39-1.66,2.43l-2.64-.12-2,.14a2.76,2.76,0,0,1,.76-3.13c-2,.57-3.61.46-3.33,2.63-.76.31-.74,1.16-1.15,1.7a3.23,3.23,0,0,1-.94.39c-2.82.18-4.45,1.15-3.05,4.32.09.21-.27.61-.41.93-.72.77,1.74,1.42.09,2.23-2.52.92-2.77-.34-2-2.43-3.8,0-4.45,2.83-5.81,5.31,1.31.34,3.53-.58,2.48,2.06-.3.75.45.4.79.46.66.13,1.33.27,2,.41.67.84-.17,1.36-.41,2a1.52,1.52,0,0,0-1.11,1.52,4.26,4.26,0,0,1-1.23.39c-3.22,0-3.33,1.74-2.43,4.14.07.19-.14.49-.22.73-.78.3-1.51.87-2.37.07s.57-1.3.24-2.14c-.92,0-1.93.44-2.93-.22.34,1.26-1,3.21,1.76,3.16,1,0,.45,1,.46,1.78,0,1.23-1,2.58.07,3.71.93,1,1.64-.08,2.39-.47.91-.95,1.81-.09,2.71,0l0,0c-.14,1.85-.44,3.08-2.77,1.67a3,3,0,0,0-4.1,1c-.71,1,1,1.25,1.31,2,.25.52.9.84.75,1.56-.27.21-.81.5-.77.61.83,2.63-1.17,2.5-3.1,2.73.95.81.38,2.28,1.9,2.36,1.1.76,2,1.59,0,3.57a3.75,3.75,0,0,1,4.3.3c-.56.82-2,1.27-1.11,2.72.1.16-.43,1-.61,1-2.75-.29-1.56,1.86-2.26,3.1,1.44-.29,3.21.56,3-1.81,0-.48.4-1.32,1.1-1.22s1.56,1.15,1.3,1.69c-.6,1.27.38,2.64-.6,3.9,1.38-.7,2.54.46,3.78.1l.52,1.06c-1.2.22-1.78.31-1.72,2.14.08,2.62,2.05,1.11,2.78,2l1.72,0c.41.7.89,1.63-.29,1.81-1.88.27-1.8,1.73-2.46,3.47,1.27-1,3.53,1,3.25-2.18-.07-.81,1.2-.73,2-.5.22.35.71.85.62,1-.65,1.16-.72,1.71.89,1.23.32-.09.76.23,1.14.37,1.16-.67,1.95-.34,2.38.9.74,2.14,1.93,1.91,3.33.65,1.73-.43,1.76,1.42,1.68,1.88-.3,1.74,1,1.12,1.66,1.4.43.5.91.32,1.4.11.92-.4,1.29.31,1.56.92a1.06,1.06,0,0,1-1,1.51c-2.14-.07-1.62,1.55-2.17,2.72,1.51-.21,3.35.7,3.24-1.88,0-.54.84-.94,1.69-.61a3.94,3.94,0,0,0,3-.3c1.57.18,3.54.86,2.54-2.09.79-.21.23-1.34,1-1.54a18.49,18.49,0,0,1,2.1,2.49,2.6,2.6,0,0,0,2.52,1.66c1.56,0,2-.87,2.37-2,.42-.11.9-.4,1.24-.28,1.18.4,1.63,1.12.56,2.17.71.66,2.73-.56,2.42,1.28-.45,2.7,1.74,1.57,2.41,1.58,1.48,0-.34-1.47.61-2.22.53-.42-.22-.66-.82-.59-2.55.3-1.66-1.11-1.12-2.33,1.49.11,3.36.82,4.35.17s.38-2.8.65-4.25a2.7,2.7,0,0,1,.35-.68c.73-.43,1.24.13,1.82.41.11.14.18.34.32.4.84.33-1.25,1.8.75,1.76,1.18,0,1.66-.33,1.77-1.51,0-.4.77-1.13.92-1.07,2.2.9,1.33-.71,1.43-1.62a7.35,7.35,0,0,1,.6-1.67c1.06-.09,1.49,2,2.84.82a2.55,2.55,0,0,1-1-2.24c2.11-.53,3.5-1.53,2.92-4-.09-.41.3-.94.46-1.41-.1-1,.68-1.4,1.23-2,2.65-.25,3.89-1.22,3.29-4.3-.22-1.12-.52-3.43,1.42-4.29,1.59-.71,1.62-.63,1.68-2.54-.85.06-1.72.38-2.54-.1-.38-.71,0-1.3.31-1.9v-.07c1-.86,2.27-.17,3.12,0,3.1.62,1.12-1.64,1.37-2.38.16-.49-1.51.69-1.83-.57-.09-.25-.33-.61-.25-.72.9-1.19-1.28-4.4,2.45-3.77.43.07.16-.52.19-.82.22-2.24-1.62-1.88-2.84-2.29-.68-.86,2.51-3.08-1-2.94,2.52-.82,2-3.09,2.21-4.92.14-1.49-1-2-2.37-2.12a3.8,3.8,0,0,1-.46-2.06c0-1.17-.29-2.67,1.63-2.55,2.13.13-.26-2,1.18-2.27.27-.06-.3-.4-.57-.44-.9-.15-1.93-.18-2.11.91s-.6,1.81-1.78,1.51c-1.53-.39-.14-1.64-.59-2.38l.25-2c.9.44,1.4.07,1.28-.84a3.81,3.81,0,0,1,.55-2.19c2-.18.71-2,1.44-2.82.68-1.56-.29-4.23,2.79-4.2l1.6,1.4c0,.46.28.43.58.41a.4.4,0,0,0,.22.28c.63,2.77,3.59,4.39,3.69,7.46,0,.65.76.51,1.25.56a.25.25,0,0,0,.14.35,1.73,1.73,0,0,0,.62,1.93.35.35,0,0,0,.1.36,3.59,3.59,0,0,0,.49,2.21l.74-.63,1.13,4c-.23.83-.37,1.62.76,1.92l.43,3.93a4.9,4.9,0,0,0-.15,1,93.26,93.26,0,0,1-.36,15.94c-.22,2-1.18,4-.3,6.09a2.47,2.47,0,0,1-.4,1.72c-1-.23-1.36.09-1.57,1.12a8.13,8.13,0,0,1-1.38,3.62A6.27,6.27,0,0,0,127.41,126.82Zm-13.46-1.22c.75.15,1.11-.17,1.21-.93.15-1.19-.83-.9-1.38-1-.87-.22-.7.32-.56.88S112.8,125.83,113.95,125.6Z"/><path class="cls-4" d="M98.19,60.49,91.31,53.4c-.57-1.17-2.16-1.25-2.67-2.5q-.1-.74-.19-1.49c2.25.64,4.7.83,6.43,2.7l.1.06a.92.92,0,0,0,.95,1l.1.1a.9.9,0,0,0,1,.94l.08.09c.38,1.45,1.59,2.19,2.62,3.08l3.1,2.6a27.23,27.23,0,0,0,4.47,6,14.4,14.4,0,0,1,3.09,3c.58.94.55,1.43-.64,1.54l-.19-.1.19.1c-.11,2.22,1.07,3,3,2.35,1.08-.36,1.78.15,2.63.44.07,1.07,1.42,1.17,1.61,2.14a3.81,3.81,0,0,0-.55,2.19c.12.91-.38,1.28-1.28.84-.55-.84-1.55-1.22-1.92-2.37-.27-.83-1.28-2.2-2.44-1.35-.94.69-2.16.69-2.94,1.56-1.29-.77-2.37-.78-2.45,1s-1.35.94-2.06,1c-1.44.19-.4-.8-.53-1.27a16,16,0,0,0-1-2.29c.65-.41.74-1.56,1.62-1.53,1.82,0,2-1.19,2.27-2.51.68,0,1.5.12,1.65-.83s-.75-1.28-1.3-1.33a3.31,3.31,0,0,1-2.92-2.42c-.53-2.43-3.52-2.95-3.81-5.42,0-.14-.77-.19-1.18-.28Z"/><path class="cls-4" d="M38.4,51.54c-.19-.64-1.32-1.49-.89-1.62,1.27-.4,2.39-1.68,3.93-1,2.2-.15,4.4-.32,6.6-.45.67,0,1.15-.26,1.27-1l.54-.63a8.2,8.2,0,0,1,2.77-.16c1.4.18,3.06.69,4.26-.44a6.53,6.53,0,0,1,5.06-1.56l4.19-.46a26.15,26.15,0,0,0,7.38-1.52c1.78-.59,3.38-.59,4.76.86-3.22,1.95-7,2.15-10.46,3.16-.91.27-1.86.42-2.79.62-5.45.46-10.7,2.1-16.1,2.82C45.42,50.61,42,51.88,38.4,51.54Z"/><path class="cls-6" d="M84.78,49c-3.41,2.73-7.43,2.72-11.49,2.58-.86,0-1.27.3-1.72,1.32-.19.45-.45.45-.78.4A16.74,16.74,0,0,0,59.55,56c-.65.41-1.59,1.29-2.35,0,3.22-2.61,7.21-3.38,11.06-4.26a34.27,34.27,0,0,1,10.34-1.27c1.51.12,2.53-.91,3.52-1.93S84.21,47.25,84.78,49Z"/><path class="cls-5" d="M94.88,52.11c-1.73-1.88-4.18-2.06-6.43-2.7-1,0-1.31-.78-1.79-1.4.72-.69,2.37-.53,2-2.21,1-.58,2,.9,3.31-.07a3,3,0,0,1-1.74-3.13l.56,0,.81.81c2.55,1.7,3.88,4.45,5.79,6.71-2,.47-2.94-1-4-2.22,0-.41-.09-.79-.59-.89l.17.73C92.27,49.76,95.07,50.28,94.88,52.11Z"/><path class="cls-6" d="M132.17,115.64c-.88-2.06.08-4.12.3-6.09a93.26,93.26,0,0,0,.36-15.94,4.9,4.9,0,0,1,.15-1c1.22,1.41,1.21,3.21,1.32,4.88C134.69,103.64,134.52,109.78,132.17,115.64Z"/><path class="cls-5" d="M78.28,43.54c-1.38-1.44-3-1.45-4.76-.86a26.15,26.15,0,0,1-7.38,1.52,1.31,1.31,0,0,1,1.05-1c2.34-.53,4.67-1.22,7-1.54,1.87-.25,2.24-1.13,1.84-2.73l0-.55,0,0a1,1,0,0,0,.43-.1,1.73,1.73,0,0,1,1.18,1.09c0,.29-.07.69.09.86.31.35.48-.11.69-.27.36.37.65.35.87-.14.59.45.34,1.13.47,1.7C78.78,41.81,80.42,44.12,78.28,43.54Z"/><path class="cls-5" d="M117.1,65.64c.8.19,1.9-.22,2.18,1.05-1.31.24-.91,1.84-1.87,2.35,1.33,1.82-.31,2-1.38,2.46.32-1.63-1.25-1.88-2-2.71l-.19-1,.29-1.74.83-.93.67-.63a1.72,1.72,0,0,1,.35.21Z"/><path class="cls-5" d="M108.64,55.17c2.9.6,4.49,2.84,5.88,5.1A9,9,0,0,0,117.06,63a2.1,2.1,0,0,1,.08,1.66l-.53,0-1.11-1.29c-.22-.37-.5-.75-1-.55-.14.06-.07.59-.09.9-.82-.27-1.78-.39-1.6-1.63.73,0,1.4-.07.63-.92-1.37-1.5-2.84-2.91-4.27-4.35l-1.14-1.54Z"/><path class="cls-6" d="M61.47,149.41c4.85,1.4,9.67,2.93,14.75,3.33.12,0,.21.42.31.64-3.49.82-6.63-.78-9.81-1.67C64.93,151.21,62.57,151.59,61.47,149.41Z"/><path class="cls-6" d="M127.41,126.82a6.27,6.27,0,0,1,1.41-4.72,8.13,8.13,0,0,0,1.38-3.62c.21-1,.61-1.36,1.57-1.12C130.82,120.75,130.06,124.22,127.41,126.82Z"/><path class="cls-6" d="M77.76,153.41a59,59,0,0,1,12.62-.62A21.44,21.44,0,0,1,77.76,153.41Z"/><path class="cls-5" d="M85.62,32.37c1.85,1.16,1.11,2.41.06,3.57-1.43,1.59-3,3-3.84,5.09l-1.05,0c.16-1.64,1.82-2.71,1.68-4.46.68.19.8-.23.82-.75.37-.74,1.25-1.17,1.22-2.14h0l.51-.51h0Z"/><path class="cls-5" d="M128.57,78.47c-.49-.05-1.23.09-1.25-.56-.1-3.07-3.06-4.68-3.69-7.46.46-.38,1-.52,1.39,0C126.76,72.85,129.27,75,128.57,78.47Z"/><path class="cls-6" d="M82.46,36.55c.14,1.75-1.52,2.82-1.68,4.46l-1,.53c-.13-.58.12-1.26-.48-1.7.4-.93,1.11-1.77.91-2.89.1-.83.73-1.56.48-2.46l.13-.81v0l.51-.52h0c.35,0,1.42-.45.8.29C81,34.8,82,35.56,82.46,36.55Z"/><path class="cls-6" d="M52,144.21c3,.08,4.55,3.26,7.52,3.34a7.86,7.86,0,0,1,.13,1.22C56.85,147.6,53.75,147,52,144.21Z"/><path class="cls-6" d="M116,71.51c1.06-.48,2.7-.64,1.38-2.46,1-.52.56-2.12,1.87-2.35.74.45,2,.25,1.95,1.67-3.08,0-2.11,2.63-2.79,4.2l-1.38,0-1-1.11Z"/><path class="cls-6" d="M92,152.61c2.44-2.11,5.45-2.19,8.43-2.39A15.81,15.81,0,0,1,92,152.61Z"/><path class="cls-6" d="M88.64,50.9c.51,1.24,2.1,1.32,2.67,2.5-.47.16-1.08,1.34-1.31.48-.53-2.06-2.4-2-3.57-2.15-1.93-.29-1.63-1.16-1.35-2.36C86.49,49.38,87,51.38,88.64,50.9Z"/><path class="cls-6" d="M124.59,131.47c-.37-3.86-.24-4.05,2.57-4.06C126.77,129.06,126.3,130.66,124.59,131.47Z"/><path class="cls-6" d="M36.9,128.31c1.26.38,2.1,1,1.71,2.53C37.25,130.53,37,129.44,36.9,128.31Z"/><path class="cls-5" d="M82,42.06c1.91.18,1.57,1.08.7,2.17C80.67,44.07,82,42.86,82,42.06Z"/><path class="cls-6" d="M52.93,58.35c-.6,1.08-1.11,2.29-2.73,1.92A3.25,3.25,0,0,1,52.93,58.35Z"/><path class="cls-6" d="M45.76,139.3c1.14.07,1.91.55,2,1.8C46.44,141.18,46.09,140.25,45.76,139.3Z"/><path class="cls-6" d="M39,131.47a3.6,3.6,0,0,1,1.82,2.42C39.39,133.68,39.19,132.57,39,131.47Z"/><path class="cls-6" d="M43.61,137.29a2.43,2.43,0,0,1,2,1.84C44.4,139.12,43.85,138.37,43.61,137.29Z"/><path class="cls-6" d="M48.31,141.54c.92.1,2.07-.06,1.75,1.49A1.61,1.61,0,0,1,48.31,141.54Z"/><path class="cls-6" d="M35.37,125.67c.77.28,1.45.61.94,1.62A1.51,1.51,0,0,1,35.37,125.67Z"/><path class="cls-5" d="M130.66,82.71l-.74.63a3.59,3.59,0,0,1-.49-2.21C130.57,81.08,130.79,81.76,130.66,82.71Z"/><path class="cls-6" d="M123.53,133.44c-.06-.83-.62-1.91,1-1.87A2.17,2.17,0,0,1,123.53,133.44Z"/><path class="cls-5" d="M132.54,88.65c-1.12-.3-1-1.09-.76-1.92C133.13,86.94,132.92,87.76,132.54,88.65Z"/><path class="cls-5" d="M123.41,70.18c-.3,0-.61,0-.58-.41s.06-1.25.75-.92C124.06,69.06,123.71,69.75,123.41,70.18Z"/><path class="cls-6" d="M83.92,45.28c.47.07,1,0,1.39.24s-.06.56-.39.7Z"/><path class="cls-5" d="M129.33,80.76a1.73,1.73,0,0,1-.62-1.93C129.57,79.26,130,79.85,129.33,80.76Z"/><path class="cls-6" d="M42,135.68c.59-.05.93.18.91.81C42.27,136.63,42,136.3,42,135.68Z"/><path class="cls-6" d="M116.61,64.62l.53,0,0,1L116,64.75Z"/><path class="cls-6" d="M49.82,60.54l-.19.59-.31-.2A.38.38,0,0,1,49.82,60.54Z"/><path class="cls-6" d="M56.13,57.28,55,57.16a.76.76,0,0,1,.89-.51l.2.66Z"/><path class="cls-6" d="M101.46,149.81c.16-.56.54-.44.92-.31A.59.59,0,0,1,101.46,149.81Z"/><path class="cls-6" d="M56.55,56.26c0,.35-.21.44-.52.33C56.09,56.3,56.25,56.16,56.55,56.26Z"/><path class="cls-5" d="M118.09,62.95l.43-.4C118.53,62.85,118.39,63,118.09,62.95Z"/><path class="cls-7" d="M54.27,51.57c.09-.74.51-.81,1.1-.56A1.05,1.05,0,0,1,54.27,51.57Z"/><path class="cls-6" d="M34.63,124.2a2.73,2.73,0,0,1,.3.24s-.07.12-.1.18Z"/><path class="cls-2" d="M108.64,55.17l-.57.07a1.34,1.34,0,0,1-.37-.09c-.08-.29-.19-.53-.56-.49l0,0c-.07-.62-.35-1-1-1l0,0c.14-.47-.17-.6-.52-.72-1.44-1-2.28-2.6-3.47-3.79-2.08-2.07-3.87-5-7.6-4.34l-.05,0c.18-.64-.22-1.12-.49-1.63.49-1.93-1.59-2.65-1.95-4.18,1.2-.15,1.84.76,2.62,1.41.82,1.85,2.49,2.78,4.1,3.77l.06.08.45.44.08.08.44.45.07.06a2.12,2.12,0,0,0,2,1.58l.05,0a2.88,2.88,0,0,0,2.61,2.54l.06.07a1.8,1.8,0,0,0,1.73,1.92C107.77,52.18,108.87,53.26,108.64,55.17Z"/><path class="cls-6" d="M90.26,42.6A3,3,0,0,0,92,45.73c-1.31,1-2.3-.51-3.31.07v-.06a1.35,1.35,0,0,0-1-1l0,0c.45-1.6-1.17-2.08-1.7-3.15.48-1.51,1.83.54,2.4-.58C89.24,41.2,89.66,42,90.26,42.6Z"/><path class="cls-6" d="M92,38.91c.36,1.53,2.44,2.25,1.95,4.18l-1-.52A3.14,3.14,0,0,0,90.25,41l0,0-.56-.55v.07c.31-.87-1.74-1.83.11-2.64a1.53,1.53,0,0,0,1.54.39Z"/><path class="cls-6" d="M94.52,35.45l.26-.69.68,0a.37.37,0,0,0,.62-.07,3.39,3.39,0,0,0,2-.56c2.4.19,4.62-1.29,7.08-.72-3.24,1.58-6.88,1.44-10.24,2.45Z"/><path class="cls-5" d="M85.94,41.54c.53,1.07,2.15,1.55,1.7,3.15-1.34.32-2.11-.66-2.78-1.44C83.65,41.84,84.8,41.63,85.94,41.54Z"/><path class="cls-3" d="M104.64,35.72l-.63.74-6.82,1.32A15.67,15.67,0,0,1,104.64,35.72Z"/><path class="cls-2" d="M91.38,38.32a1.53,1.53,0,0,1-1.54-.39c-.23-.26-.44-.54-.69-.78-.48-.49-.77-1.08-.16-1.56s1.15.21,1.43.63A12.29,12.29,0,0,1,91.38,38.32Z"/><path class="cls-5" d="M98.71,44.09c-1.61-1-3.27-1.92-4.1-3.77A5.06,5.06,0,0,1,98.71,44.09Z"/><path class="cls-3" d="M90.26,42.6c-.6-.6-1-1.4-1.92-1.64.2-1.07.86-.52,1.39-.4V40.5c0,.39.23.52.56.55l0,0c0,.59,1.19.73.58,1.54h0Z"/><path class="cls-5" d="M104.46,49.38a2.88,2.88,0,0,1-2.61-2.54A6.62,6.62,0,0,1,104.46,49.38Z"/><path class="cls-5" d="M101.8,46.79a2.12,2.12,0,0,1-2-1.58A2.21,2.21,0,0,1,101.8,46.79Z"/><path class="cls-2" d="M98.76,38.45l-.06,1c-.47-.17-1.36.09-1.22-.76C97.57,38.2,98.29,38.43,98.76,38.45Z"/><path class="cls-5" d="M106.25,51.36a1.8,1.8,0,0,1-1.73-1.92A3,3,0,0,1,106.25,51.36Z"/><path class="cls-5" d="M87.66,44.71a1.35,1.35,0,0,1,1,1C88,45.76,87.6,45.44,87.66,44.71Z"/><path class="cls-6" d="M85.62,32.37l-.59.75c.08-.37,0-.84.6-.87Z"/><path class="cls-5" d="M99.22,44.61l-.45-.44Z"/><path class="cls-5" d="M99.74,45.15l-.44-.45Z"/><path class="cls-5" d="M80.26,28.69c-.73.85-.48,1.88-.5,2.86-.69,0-1.13.2-1.12,1l-.64.23.21.3.53-.4a1.82,1.82,0,0,0,1-1.07c1-.94,2-1.4,2.73.29-.56.28-1.15.52-1.13,1.3h0l-.51.52v0c-.56.14-.6.59-.6,1.05l-.31.46-.68.6,0,0-1,0c-.23-.66.74-1.18.22-1.88l-1.77,1.4-.17-.16c1.22-2.27-.26-3.13-2-3.84l-.1-1.16c.73-.71.48-1.06-.43-1.18l-.13-.61L74,26.84l.94.1c.14.21.27.47.53.13a2.65,2.65,0,0,0-.32-.33,3.2,3.2,0,0,0-.11-.47C77.59,24,78.86,24.59,80.26,28.69Z"/><path class="cls-5" d="M60.18,24.27l.65-.6,3.11,1.66,1.67,1.4c-.52.81.14.59.53.6h0c0,.27-.16.6.27.65a2.61,2.61,0,0,0,.2-.57c.52,0,1,.81,1.76-.17-1.62-.44-2.51-2-4.2-2.19-.25-.45-.8-.75-.68-1.39l2.5.6a1.81,1.81,0,0,0,2,1l.81.28v0c-.11.82.26,1.21,1.08,1.18l0,0,1.05,1.62c-.46.09-1.05-.35-1.32.32,0,.1.28.44.48.52.88.33.74-.39.83-.86h1.34l.78,0,0,0a.85.85,0,0,1,.2.33l-.15.54-.39.61c-.35.12-.7.25-.74.7-.81-.08-1,.51-1.13,1.1a55.28,55.28,0,0,1-9.27-5.28A2.42,2.42,0,0,1,60.18,24.27Z"/><path class="cls-5" d="M71.25,35.68c.56.74,2.53.37,1.73,2.19-.27.3-.86-.15-1,.43-2.68-.47-5.38-1-7.38,1.62l-3.05.25-.73-.62c1-1.94,3.61-.55,4.75-2.24A13,13,0,0,1,71.25,35.68Z"/><path class="cls-6" d="M65.57,37.32c-1.14,1.69-3.73.3-4.75,2.23-.6.56-1.36.33-2.06.43-1-.79-1.89-.72-2.48.56a2.39,2.39,0,0,1-.17.38l-2.64-.13c-.77-.58-1.67.11-2.6-.26l2.75-2.22,1.71.1c.56.61,1.26.47,1.94.34l7.9-1.54A1.78,1.78,0,0,1,65.57,37.32Z"/><path class="cls-5" d="M65.18,37.21l-7.9,1.54c-.69.13-1.38.28-1.94-.34,4.56-1.59,8.87-4.08,13.94-3.78a6.13,6.13,0,0,1-2.88,1.11C65.42,35.76,64.94,36.18,65.18,37.21Z"/><path class="cls-5" d="M73.32,37.89c1.68-.19,1.72-2.33,3.22-2.73l.16.16q0,.57,0,1.14l-.07.91,0-.05c-.78.07-.5.67-.54,1.1l0,0-.49.45-.83.73a.34.34,0,0,1-.21.3l-.15.13-4.64.53a3.22,3.22,0,0,1,2.52-1.08c.72-.05,1.15-.33,1-1.13A.82.82,0,0,0,73.32,37.89Z"/><path class="cls-5" d="M56.76,23.22a2.88,2.88,0,0,0,3.17,1c-.36.94,0,2.54-1.76,2.28C56.07,26.2,56.24,24.75,56.76,23.22Z"/><path class="cls-2" d="M65.18,37.21c-.24-1,.24-1.45,1.23-1.46a6.13,6.13,0,0,0,2.88-1.11c.7.27,1.52.31,2,1.05a13,13,0,0,0-5.68,1.64A1.77,1.77,0,0,0,65.18,37.21Z"/><path class="cls-2" d="M70.7,31.67c.16-.58.32-1.18,1.13-1.1l1.11.45h0c0,.43.33.54.66.63a1.45,1.45,0,0,1-.65,1.25,2,2,0,0,0-2.15-1.2Z"/><path class="cls-5" d="M70.8,31.71a2,2,0,0,1,2.15,1.2C71.79,33.31,71.11,32.85,70.8,31.71Z"/><path class="cls-2" d="M74.43,30.15l.1,1.16-.39.23c-.28-.43-.5-1-1.19-.52h0c.4-.36,0-.71,0-1.06Z"/><path class="cls-3" d="M73.32,37.89a.82.82,0,0,1,0,.4H72c.14-.58.73-.13,1-.43A.75.75,0,0,0,73.32,37.89Z"/><path class="cls-6" d="M72.94,31c.69-.49.91.08,1.19.52l-.53.11C73.27,31.57,72.95,31.46,72.94,31Z"/><path class="cls-4" d="M116.62,34.67c-2.79,1.71-5.89,1.67-9,1.58-.4,0-.71-.21-.59-.62s.32-1,.62-1.08a16.36,16.36,0,0,1,8.49-.84C115.55,34.4,116.43,34.37,116.62,34.67Zm-2.1.4v-.69a10.3,10.3,0,0,0-6,1.26Z"/><path class="cls-6" d="M103.39,37.77l1.78.15a8.37,8.37,0,0,1-6,1.37l4.2-1.47Z"/><path class="cls-3" d="M116.62,34.67c-.19-.31-1.07-.27-.48-1a5.1,5.1,0,0,0,2.54-.62l1.06-.26C119.05,34.06,117.61,34,116.62,34.67Z"/><path class="cls-2" d="M98.09,34.15a3.39,3.39,0,0,1-2,.56l-.62.07-.68,0C95.74,33.8,96.69,32.74,98.09,34.15Z"/><path class="cls-6" d="M119.55,36.17c-1,.1-1.89.88-3,.7C117.3,35.53,118.33,35.46,119.55,36.17Z"/><path class="cls-3" d="M115,31.56c.5.19,1.24-.35,1.54.49C116,31.89,115.32,32.36,115,31.56Z"/><path class="cls-2" d="M68.32,21.43c0-1-1.38-1.43-1.11-2.56,2.69.76,4.42,2.85,6.38,4.62a2.39,2.39,0,0,1,.93,2.25C72.35,24.46,70.67,22.47,68.32,21.43Z"/><path class="cls-6" d="M68.32,21.43c2.34,1,4,3,6.2,4.32l.5.52a3.22,3.22,0,0,1,.11.47l-.21.2-.94-.1h0a7.42,7.42,0,0,0-3.66-2.62h0C70.24,22.84,67.82,23.18,68.32,21.43Z"/><path class="cls-4" d="M68.75,25.55v0c-.19-1.39-1.46-1.73-2.37-2.42l-.3-1,.05-.07c1.5.5,2.46,2,4.16,2.14h0A5.56,5.56,0,0,0,74,26.83h0l-.11,1.52-1,0,0,0a4.34,4.34,0,0,0-4.17-2.86Z"/><path class="cls-4" d="M56.6,15.77l1.62-.49,0,0a.54.54,0,0,0,.56.56l0,0,.57.68c.25.5.6,1,.4,1.58l-2.41-1.27Z"/><path class="cls-6" d="M63.47,23.66c-.13.64.42.94.68,1.39a3.16,3.16,0,0,1-.21.28l-3.11-1.66-.52-.48c.67-1.06,1.44.23,2.14-.1v0c.19.48.59.56,1,.55Z"/><path class="cls-6" d="M57.28,16.76,59.69,18c.26.56.93,1.26-.43,1.3a1.67,1.67,0,0,0-1.55-.92h0l-.51-.52v0a.73.73,0,0,0-.08-.46Z"/><path class="cls-4" d="M62.27,20.15c1.9-.6,2.75.9,3.85,1.91l-.05.07a2.25,2.25,0,0,0-.5.08c-.75-.06-1.27-.88-2.12-.66l0,0C63.75,20.54,62.48,20.79,62.27,20.15Z"/><path class="cls-4" d="M62.44,23.09,61.91,21c.53.17.89.83,1.58.56l0,0,.58,1.1-.61.49h-1Z"/><path class="cls-4" d="M57.71,18.41a1.67,1.67,0,0,1,1.55.92C57.85,20.53,58,19.17,57.71,18.41Z"/><path class="cls-3" d="M63.49,21.58c-.69.27-1.05-.39-1.58-.56l.36-.87C62.48,20.79,63.75,20.54,63.49,21.58Z"/><path class="cls-4" d="M57.1,17.4a.73.73,0,0,1,.08.46c-.27,0-.61.14-.65-.29A2.79,2.79,0,0,1,57.1,17.4Z"/><path class="cls-2" d="M58.75,15.81a.54.54,0,0,1-.56-.56Z"/><path class="cls-4" d="M57.19,17.88l.51.52Z"/><path class="cls-2" d="M59.29,16.45l-.57-.68Z"/><path class="cls-3" d="M53.48,40.79l2.64.13a11.93,11.93,0,0,0,5.43-.75l3.05-.25-.14.52-2.72.7L58.54,42l-1.87.27-2.83.44-5.15,1c-1.1.79-2.37.13-3.53.41A13,13,0,0,1,51.42,42C52.35,41.93,53.38,42.19,53.48,40.79Z"/><path class="cls-6" d="M43.29,41.45c.58-.52,1.51-.61,1.81-1.47,1,.38,2.27-.55,3,.67.13.22-.38,1.16-.67,1.2C46,42,44.47,43.32,43.29,41.45Z"/><path class="cls-5" d="M61.95,44.66a6.53,6.53,0,0,0-5.06,1.56c-1.2,1.13-2.86.63-4.26.44a8.2,8.2,0,0,0-2.77.16l-1.16-.61c1.68-.88,3.71-.43,5.35-1.46l2-.19,5.9-.91Z"/><path class="cls-6" d="M54,44.75c-1.64,1-3.67.58-5.35,1.46l-4.6.53c.79-1.86,2.63-.88,3.92-1.41,1.13-.47,2.57-.12,3.45-1.31.54-.54,1.24-.3,1.87-.38l.76.62Q54.08,44.5,54,44.75Z"/><path class="cls-5" d="M49.31,47.46c-.12.72-.6.94-1.27,1-2.2.13-4.4.3-6.6.45,0-1,.77-1,1.46-1C45,47.7,47.15,47.15,49.31,47.46Z"/><path class="cls-4" d="M53.33,43.63c-.63.09-1.33-.15-1.87.38-.95.11-1.93.54-2.77-.31l5.15-1,.21.51Z"/><path class="cls-4" d="M81.37,33.14c0-.77.58-1,1.13-1.3a.17.17,0,0,1,.16.19L83.79,32l-.33,2.24h0a.74.74,0,0,0-.54.8c0,.33,0,.66.36.82,0,.52-.13.95-.82.75-.49-1-1.43-1.75-.29-3.12C82.79,32.69,81.72,33.14,81.37,33.14Z"/><path class="cls-6" d="M83.79,32,82.67,32c.12-.73.48-1.17,1.3-1Z"/><path class="cls-6" d="M84.52,30.49,84,31C83.92,30.61,84.21,30.54,84.52,30.49Z"/><path class="cls-6" d="M83.28,35.8c-.37-.16-.38-.48-.36-.82l.54-.8h0l1-.54C84.53,34.63,83.64,35.06,83.28,35.8Z"/><path class="cls-6" d="M85,33.13l-.51.51A.46.46,0,0,1,85,33.13Z"/><path class="cls-4" d="M87.38,64c-.1-2.45,2-.72,2.78-1.45a4,4,0,0,0,3.31.08,1.32,1.32,0,0,0,1.73,0l.37.48.51,2.53c-.72,1.39-2.18.76-3.25,1.2-1.79.09-2,1.49-2.25,2.8-.06.35.36,1.05-.15,1.06a39.85,39.85,0,0,1-4.63-.28c-1.32-.13.07-1-.4-1.54-.72-.81-1.35-1.3-2.33-.46l-2.88-.1c-.52-.26-.61-1.1-1.38-1a.74.74,0,0,1,0-.32c.79-.44.88-1.58,1.84-1.86a7,7,0,0,0,5.6-.39A1.26,1.26,0,0,0,87.38,64Z"/><path class="cls-4" d="M118.8,97.7c1.23.41,3.07.06,2.84,2.29,0,.3.25.9-.19.82-3.74-.63-1.55,2.58-2.45,3.77-.09.11.16.48.25.72-1.49.44-3.42.49-2.66,3v.07c-1.05-.29-2.28.36-3.21-.6.92-.68.15-1.4.07-2.11,1.41.23,3-.5,2.37-1.69-1.18-2.13-1-5.33-4.09-6.2.48-.8-.62-1.41-.23-2.31,1.91.38,3-.23,2.47-2.4a1.09,1.09,0,0,1,.27,0c1.18.41,3.14-.68,3.29,1.71a1,1,0,0,0-.18.37c-.53.15-.86.42-.66,1C116.39,98,116.94,98.72,118.8,97.7Z"/><path class="cls-4" d="M80.68,136.66c-.82.19-.25,1.33-1,1.54-1.58-.2-2.31.64-2.54,2.09a3.94,3.94,0,0,1-3,.3c-.86-.33-1.71.07-1.69.61.11,2.57-1.74,1.66-3.24,1.88.55-1.16,0-2.79,2.17-2.72a1.06,1.06,0,0,0,1-1.51c-.26-.61-.63-1.32-1.56-.92-.49.21-1,.4-1.4-.11,1.06-.67-.32-1.89.58-2.61l5.58-.07c.79.86,1.7-.33,2.68.25s1.63-.52,2-1.38c.15-.41-.8-1.23.35-1.3a2.11,2.11,0,0,1,1.6.69,7.78,7.78,0,0,1,.77,2.15A4.39,4.39,0,0,0,80.68,136.66Z"/><path class="cls-4" d="M51.85,122.55c-1.25.36-2.4-.8-3.78-.1,1-1.26,0-2.63.6-3.9.26-.54-.45-1.56-1.3-1.69s-1.15.74-1.1,1.22c.21,2.37-1.55,1.52-3,1.81.71-1.24-.49-3.39,2.26-3.1.18,0,.71-.81.61-1-.87-1.46.55-1.9,1.11-2.72.85,0,1.27-.67,1.83-1.12l2.42.18a7.56,7.56,0,0,0,1.75,0c1.93,0-.54,1.5.59,2.06.42.21.37,1-.53.81-2.6-.6-1.64,1.07-1.45,2.26-1.24,1.44.07,2.88,0,4.31Z"/><path class="cls-4" d="M47.08,97.29c-.76.4-1.46,1.45-2.39.47-1.08-1.13-.07-2.48-.07-3.71,0-.75.51-1.8-.46-1.78-2.79,0-1.42-1.91-1.76-3.16,1,.66,2,.2,2.93.22.33.84-1.21,1.26-.24,2.14s1.59.23,2.37-.07c1.63.24,3.21.93,4.9.5l2.58.59c-1,.6.25,2.54-.68,2.34-2.7-.57-1.88,1.14-1.93,2.39l-2.56.05,0,0c-.33-1-.24-2.54-1.74-2.39C46.82,95,47.25,96.42,47.08,97.29Z"/><path class="cls-4" d="M114.91,80.43c.45.74-.94,2,.59,2.38,1.17.3,1.58-.36,1.78-1.51s1.22-1.06,2.11-.91c.27,0,.85.39.57.44-1.45.29.95,2.41-1.18,2.27-1.92-.12-1.59,1.37-1.63,2.55-2.15-.38-2.82.51-2.17,2.53a3.87,3.87,0,0,0-.49,2.63c-1.09.17-2.45,0-2.49-1.09-.09-2.22-1.46-1.44-2.56-1.47a8.63,8.63,0,0,0-.22-5.12c1.92.1,3.16-.59,3.23-2.7Z"/><path class="cls-4" d="M55.37,74.55c.15-.31.51-.72.41-.93-1.4-3.17.23-4.14,3.05-4.32a3.23,3.23,0,0,0,.94-.39c.26.53,1.12.64,1,1.4-.23,2.16,1.28,2.33,2.81,2.49-1.13,1.61.19,2.13,1.26,2.14,1.27,0,1.27.51,1.11,1.41-.13.74,0,1.7-1.26,1.39-.58-.14-1.14.54-1.79,0-.06-.7,1.8-1.34.1-2.16-1.12-.54-2.16-.63-2.51.7s-1.47,1-2.18,1.54C58,76.22,57.62,74.52,55.37,74.55Z"/><path class="cls-4" d="M112.42,121.48c-.55.57-1.33,1-1.23,2-1.19.1-2.38-.55-3.58,0a15.66,15.66,0,0,0,.78-5.38c1.2.39,2.58.62,2.75-.86.12-1.14-1-1.62-2.21-1.16-.35.13-.71.13-.69-.38a26.56,26.56,0,0,1,.36-4.87c.09-.37,1.65-.4,2.54-.59-.05,1.94.46,3.33,2.83,3a6.79,6.79,0,0,0-.43,2.5A8.34,8.34,0,0,1,112.42,121.48Z"/><path class="cls-4" d="M93,138.38c-.54,1.22-1.43,2.63,1.12,2.33.6-.07,1.35.16.82.59-.95.75.87,2.23-.61,2.22-.67,0-2.86,1.12-2.41-1.58.31-1.84-1.71-.62-2.42-1.28,1.07-1,.62-1.77-.56-2.17-.34-.12-.83.18-1.24.28-.68-1.08,0-2.24-.2-3.35l.07.07c.66-.17,2.15,1,1.65-1,.06-1.22.64-1.72,1.86-1.41.88.22,1.95-.22,1.92-.88-.13-2.73,1.49-1.34,2.57-1.23.21.72-1.23,1.64.25,2.21C92.54,133.78,91.86,135,93,138.38Z"/><path class="cls-5" d="M65.54,67.57l2.64.12c1.82.11,4,1.74,5.32-.42,1-1.57,1.64-1.22,2.7-.5a21.88,21.88,0,0,0-.76,5.31c0,1.71-1.54-.21-1.88.78,0,.08-.29.09-.44.13a2.81,2.81,0,0,0,.23-.93c-.32-2.91-2.75-1.41-4.06-1.6-1.8-.26-.9,1.49-.86,2.49-.8.19-1.51-.59-2.28-.14C65,71.17,66.19,69.27,65.54,67.57Z"/><path class="cls-4" d="M76.19,66.77c-1.06-.72-1.74-1.06-2.7.5-1.33,2.16-3.5.53-5.32.42.2-1-.57-2.67,1.66-2.43A1.12,1.12,0,0,0,70.93,64c-.2-1.5-1.47-.77-2.44-1,.54-1.37.78-2.9,2.94-2.43C71,62,70.71,63.19,73.1,62.82c1.64-.25,3.4.51,5.12,0l-.15,3.34-.49,1a.57.57,0,0,1-.37.07Z"/><path class="cls-4" d="M43,109.23c-1.52-.08-1-1.55-1.9-2.36,1.94-.23,3.93-.1,3.1-2.73,0-.11.5-.4.77-.61,1.4-.8,2.72-1.78,4.4-2,.3,1.12,2.62-.5,2.32,2.08-.24,2.09.36,4-2.58,4.06C45.56,106.58,44.35,106.88,43,109.23Z"/><path class="cls-4" d="M105.95,130.33a7.37,7.37,0,0,0-.6,1.67c-.1.91.77,2.52-1.43,1.62-.15-.06-.88.67-.92,1.07-.11,1.18-.6,1.49-1.77,1.51-2,0,.09-1.43-.75-1.76-.14-.05-.22-.26-.32-.4,0-1.42,2.72-.4,2.12-2.31-.38-1.23-1.64.1-2.38-.82l.89-2.49c1-.19,2.75-.33,2.49-1.17-.76-2.42,1.15-1.16,1.79-1.59,1.34.77-.2,2.36.9,3.2Z"/><path class="cls-4" d="M52.85,82.59c-.66-.14-1.32-.29-2-.41-.33-.06-1.08.29-.79-.46,1-2.64-1.17-1.72-2.48-2.06,1.36-2.47,2-5.36,5.81-5.31-.73,2.1-.48,3.35,2,2.43-.21,1,.29,2.62-1,2.89C52.52,80.08,52.94,81.38,52.85,82.59Z"/><path class="cls-5" d="M100.79,128.41l-.89,2.49c.74.92,2-.41,2.38.82.6,1.9-2.11.89-2.12,2.31-.57-.28-1.09-.84-1.82-.41-.87,0-1.59-.92-2.55-.46-1.49-.58,0-1.49-.25-2.21,1.12.7,2,.64,2.18-.87.09-1,0-2-1.57-1.45-.48.17-1.34-.41-.94-.61,1.17-.59-.51-2.26,1.13-2.43.89-.09,2.18.21,2.07.52C97.5,128.68,99.43,128.23,100.79,128.41Z"/><path class="cls-5" d="M52.85,82.59c.08-1.21-.33-2.51,1.62-2.93,1.27-.27.77-1.86,1-2.89,1.65-.81-.81-1.46-.09-2.23,2.26,0,2.59,1.67,3,3.32-1.19,1.47-.28,3.09-.34,4.66-1.63-.22-3.36-.54-2.68,2.13l-2.88-.05C52.69,84,53.52,83.43,52.85,82.59Z"/><path class="cls-5" d="M60.29,133c-.38-.13-.83-.46-1.14-.37-1.61.47-1.54-.07-.89-1.23.1-.17-.4-.68-.62-1,.15-.87.74-1.67.45-2.61.5-.81-.13-1.9.65-2.65,1,.35,1.84.74,1.88,2,0,.47,0,1.1.64,1.3.79.26,1-.54,1.43-.87a1.58,1.58,0,0,0,.24-2.31c2.66-.63,2.49,1.08,2.49,2.69-1.05.1-2.28-1-3.09,0-.56.67.44,1.34.92,1.92C60.89,129.6,59.78,130.53,60.29,133Z"/><path class="cls-6" d="M58.74,125.1c-.78.74-.15,1.84-.65,2.65-1,.44-2-1-2.94,0l-1.72,0c-.16-1.41.58-3.06-1.06-4.09l-.52-1.06q0-.48,0-1c.78.54,1.42-.28,2.15-.23a2,2,0,0,1,1.83.43h0C57.73,122.07,58.52,123.33,58.74,125.1Z"/><path class="cls-6" d="M114.48,90.83A3.86,3.86,0,0,1,115,88.2c.85-.34,1.84.16,2.64-.47,1.32.12,2.51.64,2.37,2.12-.18,1.83.31,4.09-2.21,4.92a.58.58,0,0,1-.26,0c-.15-2.39-2.11-1.3-3.29-1.71Q114.36,91.92,114.48,90.83Z"/><path class="cls-6" d="M43,109.23c1.36-2.36,2.57-2.66,6.11-1.53l.36,1.74L49.08,112c-.56.45-1,1.13-1.83,1.12a3.75,3.75,0,0,0-4.3-.3C44.95,110.83,44.09,110,43,109.23Z"/><path class="cls-5" d="M112.42,121.48a8.34,8.34,0,0,0,1.11-5.86,6.79,6.79,0,0,1,.43-2.5c3,.85,1.81-1.7,2.31-2.88.82.48,1.69.16,2.54.1-.06,1.91-.09,1.84-1.68,2.54-1.94.86-1.63,3.17-1.42,4.29C116.31,120.25,115.07,121.23,112.42,121.48Z"/><path class="cls-6" d="M106,128.85c-1.1-.84.45-2.42-.9-3.2.56-1.08.3-3.09,2.55-2.25,1.2-.51,2.38.14,3.58,0-.17.47-.56,1-.46,1.41.57,2.51-.81,3.52-2.92,4Z"/><path class="cls-6" d="M86.25,64.75a7,7,0,0,1-5.6.39c-.1-.8.42-1.86-.89-2.17,1-3.28,3.63-2.71,6.29-2.7-.6,1.12,0,2.12.14,3.18Q86.21,64.1,86.25,64.75Z"/><path class="cls-6" d="M95.79,133.16c1-.47,1.68.42,2.55.46a2.71,2.71,0,0,0-.35.68c-.28,1.46.46,3.54-.65,4.25s-2.87-.06-4.35-.17C91.86,135,92.54,133.78,95.79,133.16Z"/><path class="cls-5" d="M49.36,101.57c-1.68.17-3,1.15-4.4,2,.16-.72-.5-1-.75-1.56-.36-.76-2-1-1.31-2a3,3,0,0,1,4.1-1c2.32,1.41,2.63.18,2.77-1.67l2.56-.05c-1,.64,0,2.6-1.06,2.51C49.54,99.58,49.49,100.44,49.36,101.57Z"/><path class="cls-6" d="M65.54,67.57c.65,1.69-.54,3.6.61,5.23-.84.48-1.69-.55-2.53,0-1.53-.16-3-.32-2.81-2.49.08-.76-.77-.87-1-1.4.42-.55.39-1.39,1.15-1.7a3.23,3.23,0,0,0,2.57.5Z"/><path class="cls-6" d="M52.35,91.89c-1.69.43-3.27-.26-4.9-.5.08-.25.29-.54.22-.73-.9-2.4-.79-4.15,2.43-4.14a4.26,4.26,0,0,0,1.23-.39c.7,1,.61,2.19.8,3.31C52.06,90.27,52.9,91,52.35,91.89Z"/><path class="cls-6" d="M116.27,110.24c-.5,1.18.71,3.73-2.31,2.88-2.37.38-2.88-1-2.83-3-.7-2.14,1.17-1.92,2.24-2.43.93,1,2.16.32,3.21.6C116.29,108.94,115.89,109.53,116.27,110.24Z"/><path class="cls-4" d="M52.13,89.44c-.2-1.12-.1-2.31-.8-3.31a1.52,1.52,0,0,1,1.11-1.52l2.88.05c-.58,1.94-.21,3.11,2.07,2.49.3,2-.41,3-2.38,2.83Z"/><path class="cls-5" d="M87.47,135.42c.21,1.11-.48,2.27.2,3.35-.37,1.16-.81,2-2.37,2a2.6,2.6,0,0,1-2.52-1.66,18.49,18.49,0,0,0-2.1-2.49,4.38,4.38,0,0,1,2.17-1.11C84.37,135,85.95,136.12,87.47,135.42Zm-1.94,3.11c.31,0,.76.21.8-.28,0-.16-.48-.36-.74-.54-.28-.41.27-1.37-.7-1.26-.53.06-.22.69-.25,1.07C84.48,138.25,84.69,138.67,85.52,138.53Z"/><path class="cls-5" d="M114.91,80.43l-2.46,0c-.2-.87.52-2.46-1.09-2.29-1.18.13-2.12-.67-3.23-.36l-.27-1.54c.78-.87,2-.87,2.94-1.56,1.16-.86,2.17.51,2.44,1.35.37,1.15,1.37,1.53,1.92,2.37Z"/><path class="cls-4" d="M60.29,133c-.51-2.45.6-3.37,2.94-3.13.63.83,1.45-.19,2.3.3-.91,1.28-.1,2.35.5,3.45l0,.94c-1.4,1.26-2.59,1.48-3.33-.65C62.24,132.63,61.45,132.3,60.29,133Z"/><path class="cls-4" d="M55.15,127.75c1-1,2,.44,2.94,0,.29.95-.3,1.74-.45,2.61-.79-.24-2.06-.31-2,.5.28,3.14-2,1.19-3.25,2.18.66-1.74.58-3.2,2.46-3.47C56,129.38,55.56,128.45,55.15,127.75Z"/><path class="cls-5" d="M66,134.53l0-.94c.89-1.12,2.06-.92,3.24-.67.85.58.3,1.56.65,2.29-.9.71.48,1.93-.58,2.61-.68-.28-2,.33-1.66-1.4C67.76,136,67.73,134.1,66,134.53Z"/><path class="cls-5" d="M116.59,108.27c-.77-2.47,1.16-2.52,2.66-3,.32,1.27,2,.09,1.83.58-.24.74,1.73,3-1.37,2.38C118.86,108.09,117.61,107.41,116.59,108.27Z"/><path class="cls-4" d="M52.38,123.61c1.64,1,.9,2.67,1.06,4.09-.73-.84-2.7.67-2.78-2C50.6,123.92,51.18,123.83,52.38,123.61Z"/><path class="cls-4" d="M95.2,62.65c.15-1.9,1-2.81,3-2.16l0,0c-.52,1.11,1.16,2.1.18,3.24l-2.76-.56Z"/><path class="cls-5" d="M117.51,94.72a.58.58,0,0,0,.26,0c3.54-.14.35,2.08,1,2.94-1.86,1-2.41.28-2.13-1.58.4-.23.8-.46.66-1A1,1,0,0,1,117.51,94.72Z"/><path class="cls-5" d="M79.76,63c1.31.31.79,1.37.89,2.17-1,.27-1.05,1.41-1.85,1.85l-.74-.84.15-3.34Z"/><path class="cls-5" d="M63.5,67.71a3.23,3.23,0,0,1-2.57-.5c-.28-2.17,1.34-2.07,3.33-2.63A2.76,2.76,0,0,0,63.5,67.71Z"/><path class="cls-5" d="M117.61,87.72c-.79.63-1.79.13-2.64.47-.65-2,0-2.91,2.17-2.53A3.8,3.8,0,0,0,117.61,87.72Z"/><path class="cls-5" d="M77.09,140.28c.23-1.45,1-2.29,2.54-2.09C80.64,141.14,78.66,140.46,77.09,140.28Z"/><path class="cls-5" d="M93.47,62.62a4,4,0,0,1-3.31-.08c.93-.34.1-2,1.5-2S92.82,62,93.47,62.62Z"/><path class="cls-5" d="M106,128.85l1.84.05a2.54,2.54,0,0,0,1,2.24c-1.36,1.14-1.79-.91-2.84-.82Q106,129.59,106,128.85Z"/><path class="cls-5" d="M47.08,97.29c.17-.87-.25-2.25,1-2.38,1.5-.15,1.41,1.39,1.74,2.39C48.88,97.2,48,96.34,47.08,97.29Z"/><path class="cls-5" d="M113.95,125.6c-1.14.23-.61-.6-.73-1.08s-.32-1.11.56-.88c.55.14,1.54-.16,1.38,1C115.05,125.43,114.7,125.75,113.95,125.6Z"/><path class="cls-5" d="M117,72.6l1.38,0c-.73.81.53,2.64-1.44,2.82-.19-1-1.54-1.07-1.61-2.14l.13-.16C116,72.89,116.92,74,117,72.6Z"/><path class="cls-5" d="M86.25,64.75q0-.65-.06-1.3c.44.09,1,0,1.19.53A1.26,1.26,0,0,1,86.25,64.75Z"/><path class="cls-6" d="M56.1,57.31l.23.25s-.12,0-.14-.06a.8.8,0,0,1-.06-.21Z"/><path class="cls-3" d="M69.27,132.92c-1.18-.25-2.34-.45-3.24.67-.6-1.11-1.41-2.17-.5-3.45-.85-.49-1.67.54-2.3-.3-.47-.58-1.48-1.25-.91-1.92.81-1,2,.09,3.09,0,0-1.61.17-3.32-2.49-2.69a1.58,1.58,0,0,1-.24,2.31c-.45.34-.64,1.14-1.43.87-.62-.2-.62-.83-.64-1.3,0-1.27-.91-1.66-1.88-2-.22-1.77-1-3-2.92-3.31-.06-1.06.34-1.88,1.46-2s.78-1,.84-1.53-.49-.59-.9-.64c-.86-.1-1,.48-1.31,1.14-.5,1.06,0,2-.07,3a2,2,0,0,0-1.82-.43c-.21-.81-.78-1.74-.56-2.42.57-1.81-.51-1.65-1.6-1.66-.18-1.18-1.15-2.85,1.45-2.26.9.21.95-.6.53-.81-1.13-.56,1.35-2.05-.59-2.06a7.5,7.5,0,0,1-1.75,0c.08-1.49.55-3.27-2.06-2.72l-.36-1.74c2.94-.09,2.34-2,2.58-4.06.3-2.58-2-1-2.32-2.08.13-1.13.18-2,1.91-1.84,1,.09.1-1.87,1.06-2.51,0-1.25-.77-3,1.93-2.39.93.2-.35-1.75.68-2.34.06-.84-.51-1.69.08-2.51,2,.18,2.68-.82,2.38-2.83-2.28.63-2.65-.54-2.07-2.49C54.64,82,56.37,82.31,58,82.53c.05-1.57-.86-3.19.34-4.66.71-.51,1.84-.27,2.18-1.54s1.4-1.24,2.51-.7c1.71.82-.16,1.46-.1,2.16.65.51,1.21-.17,1.79,0,1.29.31,1.13-.65,1.26-1.39.16-.91.16-1.4-1.11-1.41-1.06,0-2.38-.53-1.26-2.14.84-.55,1.69.49,2.53,0s1.48.33,2.28.14c0-1-.94-2.76.86-2.49,1.31.19,3.73-1.3,4.06,1.6a2.81,2.81,0,0,1-.23.93c.15,0,.42,0,.44-.13.34-1,1.89.93,1.88-.78a21.88,21.88,0,0,1,.76-5.31l1,.42c0,.68.41,1.15,1.07,1.12s.48-.58.47-1h.07c.77-.08.86.76,1.38,1-.4,2.46,1.27,2.3,3,2.39-.59-.85-1-1.57-.12-2.28s1.6-.35,2.33.46c.47.52-.92,1.41.4,1.54a39.85,39.85,0,0,0,4.63.28c.52,0,.09-.71.15-1.06.23-1.31.45-2.71,2.25-2.8.28.6-.44,2,1.21,1.52.64-.17,1.47.23,1.41.76-.25,2,1.29,1.19,2.13,1.46.48,1.12.94,2.38-1.06,2.09-2.3-.34-.48,1.62-1.31,2.16-.4.26.42.89.45.76.46-1.52,2.71,1.52,2.65-1.07,0-1.95,1.4-1.26,2.41-1.32l1.09,1.56a15.92,15.92,0,0,1,1,2.29c.13.48-.91,1.47.53,1.27.72-.1,2,.72,2.06-1s1.16-1.81,2.45-1l.26,1.54h0c-.39-.08-.32.22-.35.43-1.13,1.61.29,3.45-.77,5.17,1,.13,1.52-.67,2.19-.24a8.63,8.63,0,0,1,.22,5.12,3.37,3.37,0,0,1,.27,1C109.54,94,109.53,94,114,93c.5,2.17-.56,2.78-2.47,2.4-.39.9.7,1.51.23,2.31-.1,1.83-.23,3.63-3,2.71.52,1.66,1.11,3.19,3,2.86,2.42-.42,2.15.8,1.69,2.32.08.71.85,1.44-.07,2.11-1.07.51-2.94.29-2.24,2.43-.89.19-2.45.22-2.54.59a26.56,26.56,0,0,0-.36,4.87c0,.52.34.52.69.38,1.21-.46,2.34,0,2.21,1.16-.16,1.48-1.55,1.25-2.75.86a15.66,15.66,0,0,1-.78,5.38c-2.25-.84-2,1.16-2.55,2.25-.63.43-2.55-.83-1.79,1.59.26.84-1.52,1-2.49,1.17-1.35-.18-3.29.26-2.38-2.3.11-.31-1.18-.61-2.07-.52-1.64.17,0,1.84-1.13,2.43-.4.2.47.78.94.61,1.53-.54,1.66.5,1.57,1.45-.14,1.51-1.06,1.57-2.18.87-1.08-.1-2.69-1.5-2.57,1.23,0,.66-1,1.11-1.92.88-1.23-.31-1.81.19-1.86,1.41-.64,0-.27-1.22-.89-1-.86.32-.32,1.4-.76,2l-.07-.07c-1.52.7-3.09-.39-4.62.13a7.8,7.8,0,0,0-.77-2.15,2.11,2.11,0,0,0-1.6-.69c-1.15.06-.2.88-.35,1.3-.32.87-.9,2-2,1.38s-1.89.6-2.68-.25a3.63,3.63,0,0,1,0-2c.31-2.45-1.21-3-3.18-3S69.5,131.13,69.27,132.92ZM74,94.73c0,.37-.08.75.35,1,.91.88-1.33,1.79,0,2.66.14,1.53-1.42,2.4-1.83,1.57-.75-1.52-2.59-1.65-3-2.78-.93-2.45-3.15-1.52-4.68-2.28-.45-.22-.9.1-.69.67.54,1.49-.67,2.9-.16,4.37a1.55,1.55,0,0,1-.07.47c-.51.2-.51.42,0,.63,0,.87-1.19,2.35,1.07,2.08a1.51,1.51,0,0,1,.92.28c-.16,2.48,2.06,1.78,3.23,2.46a14.81,14.81,0,0,0,0,6.37c-2,1.4-.24,3.37-.66,5.06-.22.9,1.79,0,2.29,1.06,1.05.88-.49,1.47-.29,2.26,2.74-.18,4.52,1.11,5.62,4.06.13,1.35,3.72,1,1.38,3.45,1.09.15,1.88,0,2.71.13,1.29.24,3.07.22,2.82-2.07a.57.57,0,0,0,.4-.29c.85-.39,2.28.65,2.47-1.6.07-.89,2.32-2.13,3.32-3.48a.53.53,0,0,1,.46-.15c2.74.9,1.06-1,1.17-1.82.84-1,2-.21,2.86-.42.56-1.89-.45-3.62.2-5.34-.5-3.85-.33-7.45,3.46-9.78,2.71.46,1.8-1.65,2.07-2.92-.33-4.16-.33-4.16-5.35-4.94,1,1.39.61,2.23-.91,2.53-.61.12-1.24.3-1.21,1.1.09,2.25-1.22,1.77-2.53,1.32.62-1.68-1.62-4.87,2.5-4.7.11,0,.34-.2.32-.27-.34-1.86.14-2.73,2.19-2,.37.13.57-.34.46-.71-.58-2,.86-1.42,1.92-1.86,2-.82,5.17,2,6-2,0-.16.45-.35.68-.33,2.27.18,1.62-1.74,1.89-2.82.13-.52-.23-1.22-.17-2,.27-3.31.21-3.32-3-3.1.77,2.11.24,4.29,0,6.36-.18,1.71-2.05.55-3.14.8-.81.18-1.87-.17-1.59-1.06.41-1.31-.57-2.66.68-3.88-3.54.33-3.31.33-3.32,3.66,0,1.25.34,3.91-.82,3.83-2.43-.17-1.64,2.13-2.81,2.61-.65.26-1.48.16-1.54-.81S89.25,90.4,88,90.35c-.63,0-1-.82-.79-1.45.32-1.14-.24-2.33.46-3.46-1.4.1-1.4.1-3.28,5.26,1.76-.28,2.83-.44,2.35,2.25-.43,2.36.33,5-.78,7.32l-8.77.11c-.78-1.82.7-4.05-1-5.71,1.17-1.15.3-3.74,1.9-4,2.21-.42,1.89-1.95,1.88-3.09,0-.74.37-1.47.15-2.19-3-1.08-3.09,1.12-3,2.93,0,1-.37,1.85-1,1.76-2.27-.34-1.6,1.52-2.1,2.5-.18.54-1.13,1-.1,1.65ZM70.59,82.62c-2.25-.17-3.6.42-3.42,2.69.2,2.46-1.72,2-3,2.09-1.75.06-1.85-.95-1.27-2.42.22-.57-.41-1.44.27-2.09-.66-.7-.22-2.05-1.37-2.43-.57-.19-1,.11-1.13.74-.52,1.88-1.5,3.68-1.3,5.69.18,1.84,1.83.56,2.73,1.07,1.23.69-1.52,2.5.87,2.38a14,14,0,0,1,2.52.07c1.36.2,3.43-.81,4,.79s1.67,1.36,2.86,1.68c-1.06-.69,2-3.24-1.56-2.83C70,90.15,70,89,70,88.34A15.64,15.64,0,0,1,70.59,82.62Z"/><path class="cls-5" d="M109.73,70.45c1.19-.12,1.22-.6.64-1.54a14.4,14.4,0,0,0-3.09-3,27.2,27.2,0,0,1-4.47-6,2.08,2.08,0,0,1,1.59.5A4.73,4.73,0,0,1,107,62.83a3.86,3.86,0,0,0,3.57,2l.53.08,1.27,1.29c-2.1.69.06,1.37,0,2.06-.8.62-.1.9.24,1.36.88,1.21,2.49,1.79,2.87,3.41l-.13.16c-.85-.29-1.55-.8-2.63-.44-2,.65-3.13-.13-3-2.35Z"/><path class="cls-3" d="M98.33,63.69c1-1.14-.7-2.13-.18-3.24.41.09,1.17.14,1.18.28.29,2.48,3.27,3,3.81,5.42a3.31,3.31,0,0,0,2.92,2.42c.55.05,1.44.42,1.3,1.33s-1,.8-1.65.83c-1.35-.33-2.92-.32-3.14-2.27,0-.12-.79-.15-1.21-.23-.7-1.06-.41-3-2.56-2.74A2.83,2.83,0,0,1,98.33,63.69Z"/><path class="cls-2" d="M104.4,60.44a2.08,2.08,0,0,0-1.59-.5l-3.1-2.6a2.8,2.8,0,0,0-2.62-3.08L97,54.17c.08-.74-.23-1.07-1-.94l-.1-.1c.12-.75-.19-1.07-.95-1l-.1-.06c.18-1.83-2.62-2.35-1.93-4.4l.42.16c1.11,1.18,2,2.69,4,2.22l.13.2c-1.18,1.43-.07,1.86,1,2.31a8.18,8.18,0,0,0,2.31,2.05c-.22,2.23,1.51,2.61,3,3.21a1,1,0,0,0,.11.42C103.56,59.11,104.46,59.68,104.4,60.44Z"/><path class="cls-5" d="M101.36,68.23c.42.07,1.19.11,1.21.23.23,1.94,1.8,1.94,3.14,2.27-.22,1.32-.44,2.55-2.27,2.51-.88,0-1,1.12-1.62,1.53l-1.09-1.56a3.23,3.23,0,0,0-.62-2.77A2.1,2.1,0,0,1,101.36,68.23Z"/><path class="cls-5" d="M97.1,54.26a2.8,2.8,0,0,1,2.62,3.08C98.68,56.45,97.47,55.71,97.1,54.26Z"/><path class="cls-5" d="M96,53.23c.75-.13,1.06.2,1,.94A.9.9,0,0,1,96,53.23Z"/><path class="cls-5" d="M95,52.18c.76-.12,1.07.21.95,1A.92.92,0,0,1,95,52.18Z"/><path class="cls-5" d="M109.73,70.45l-.19-.1.19.1Z"/><path class="cls-2" d="M61.95,44.66l0-1c1.83-1.12,4.39-.18,5.93-2.12.64-.57,1.27.1,1.91,0,1.64-.3,3.54.18,4.68-1.58l.15-.13a.28.28,0,0,0,.21-.31l.83-.73a1.54,1.54,0,0,0,.46.1c.4,1.59,0,2.48-1.84,2.73-2.37.32-4.7,1-7,1.54a1.31,1.31,0,0,0-1.05,1Z"/><path class="cls-3" d="M97.42,50.09c-1.91-2.25-3.24-5-5.79-6.71l.31-.37.91.34c.44.55.7,1.32,1.58,1.36l.05,0c2.31,2.23,4.63,4.44,6.92,6.68.94.92,2,1.77,2,3.28l-1-.54a8,8,0,0,0-3-2.81h-.08c-.06-.46-.39-.36-.68-.32l-1.07-.75Z"/><path class="cls-3" d="M93.38,47.87,93,47.71,92.79,47C93.28,47.08,93.35,47.46,93.38,47.87Z"/><path class="cls-3" d="M91.63,43.39l-.81-.81h0c.61-.47.84.06,1.12.44Z"/><path class="cls-6" d="M76.67,36.45q0-.57,0-1.14l1.77-1.4c.53.7-.44,1.23-.22,1.88H78.2c-.51.34-.57.68,0,1L77.76,38l.67-.07.3.78a.51.51,0,0,1-.26.78l-.81-.06a1.73,1.73,0,0,0-1.18-1.09l.12-1,0,.05C76.68,37.06,77.36,36.81,76.67,36.45Z"/><path class="cls-4" d="M78.48,39.45a.51.51,0,0,0,.26-.78L80.23,37c.21,1.12-.51,2-.91,2.89-.22.49-.51.51-.87.14Z"/><path class="cls-3" d="M76.61,37.3l-.12,1a1,1,0,0,1-.43.1C76.12,38,75.84,37.38,76.61,37.3Z"/><path class="cls-3" d="M78.48,39.45l0,.53c-.21.16-.38.62-.69.27-.16-.17-.07-.57-.09-.86Z"/><path class="cls-3" d="M76.08,38.92a1.54,1.54,0,0,1-.46-.1l.49-.45Z"/><path class="cls-3" d="M111.14,65l-.53-.07c.39-1.38-.73-2-1.43-2.81L109.7,61l.77.31a1.19,1.19,0,0,0,1.44.73c.32.21.64.39,1,.06l0,0c-.17,1.24.78,1.37,1.6,1.63a2,2,0,0,0,.49,1.49l-.83.93C113.06,65.87,112.74,63.75,111.14,65Z"/><path class="cls-4" d="M111.14,65c1.61-1.21,1.93.92,3,1.15l-.29,1.74a1.81,1.81,0,0,1-1.42-1.6Z"/><path class="cls-6" d="M114,68.8c.76.84,2.33,1.08,2,2.71l0,0-2.39-2.38Z"/><path class="cls-6" d="M112.41,66.24a1.81,1.81,0,0,0,1.42,1.6l.19,1-.36.31-1.25-.81C112.46,67.62,110.31,66.93,112.41,66.24Z"/><path class="cls-6" d="M114.95,65.17a2,2,0,0,1-.49-1.49c0-.31,0-.84.09-.9.46-.2.74.18,1,.55l.11,1.22Z"/><path class="cls-3" d="M115.62,64.54l-.11-1.22,1.11,1.29-.64.13A1.72,1.72,0,0,0,115.62,64.54Z"/><path class="cls-6" d="M109.21,56.78c1.43,1.45,2.9,2.85,4.27,4.35.77.84.09,1-.63.92l0,0c-.26-.46-.48-.94-1.05-1.1h0c-.3-.81-.45-1.84-1.74-1.16l-.45.56a.67.67,0,0,0-.49.09h0c.09-.87-.86-1.2-1-1.94v-.68c.45-.18.44-.55.4-.93Z"/><path class="cls-3" d="M109.21,56.78l-.64.16a.66.66,0,0,0-.41-.15v0l-.59-.94.14-.67a1.34,1.34,0,0,0,.37.09Z"/><path class="cls-3" d="M80.23,37l-1.49,1.72-.3-.78a4.05,4.05,0,0,0,.86-2.11l0,0c.41,0,.57-.26.68-.6l.31-.47.47-.24C81,35.39,80.34,36.12,80.23,37Z"/><path class="cls-4" d="M80.72,34.49l-.47.24c0-.46,0-.91.6-1.05Z"/><path class="cls-4" d="M80.85,33.67l.51-.52Z"/><path class="cls-2" d="M112.41,68.3l1.25.81,2.39,2.38,1,1.11c-.13,1.39-1,.29-1.53.47-.38-1.61-2-2.2-2.87-3.41C112.31,69.2,111.61,68.92,112.41,68.3Z"/><path class="cls-5" d="M107.56,55.83l.59.94c-.86.41-1.27-1.33-2.22-.46-.31,0-.6-.56-.95-.06l0,0c.21-.59,0-.78-.57-.56l0,0c.29-1-.06-1.39-1.09-1.09l.05,0c0-1.51-1.1-2.36-2-3.28-2.3-2.24-4.61-4.46-6.92-6.68,3.74-.69,5.53,2.27,7.6,4.34,1.19,1.18,2,2.77,3.47,3.79,0,.35,0,.7.52.72l0,0c-.08.76.13,1.25,1,1l0,0A.82.82,0,0,0,107.56,55.83Z"/><path class="cls-5" d="M94.43,44.72c-.88,0-1.14-.81-1.58-1.36l.06-.79,1,.52C94.21,43.6,94.61,44.07,94.43,44.72Z"/><path class="cls-6" d="M107.12,54.64c-.9.21-1.11-.27-1-1C106.77,53.62,107.06,54,107.12,54.64Z"/><path class="cls-6" d="M107.56,55.83a.82.82,0,0,1-.42-1.17c.37,0,.48.21.56.49Z"/><path class="cls-6" d="M106.07,53.59c-.48,0-.5-.36-.52-.72C105.9,53,106.22,53.13,106.07,53.59Z"/><path class="cls-4" d="M92.92,42.57l-.06.79L91.95,43c-.28-.38-.51-.91-1.12-.44.61-.81-.59-1-.58-1.54A3.14,3.14,0,0,1,92.92,42.57Z"/><path class="cls-4" d="M90.28,41c-.33,0-.57-.16-.56-.55Z"/><path class="cls-5" d="M95.46,34.78l.62-.07A.37.37,0,0,1,95.46,34.78Z"/><path class="cls-4" d="M74.43,30.15,72.93,30v-.7l.15-.53L74,29C74.91,29.08,75.16,29.44,74.43,30.15Z"/><path class="cls-4" d="M79.29,35.78a4.05,4.05,0,0,1-.86,2.11l-.67.07.44-1.16q0-.51,0-1h.06Z"/><path class="cls-2" d="M79.77,31.56a1.82,1.82,0,0,1-1,1.07l-.1-.12c0-.77.43-1,1.12-1Z"/><path class="cls-2" d="M78.74,32.63l-.53.4-.21-.3.64-.23Z"/><path class="cls-3" d="M74,29l-.9-.25a.84.84,0,0,0-.2-.33l1,0Z"/><path class="cls-6" d="M75.13,26.74a2.65,2.65,0,0,1,.32.33c-.26.35-.39.08-.53-.13Z"/><path class="cls-4" d="M79.93,35.2c-.1.34-.26.61-.68.6Z"/><path class="cls-6" d="M64.14,25c1.7.21,2.59,1.75,4.2,2.19-.77,1-1.24.12-1.76.17a.45.45,0,0,0-.47-.08h0l-.53-.6-1.67-1.4A3.15,3.15,0,0,0,64.14,25Z"/><path class="cls-3" d="M68.78,25.56a4.34,4.34,0,0,1,4.17,2.86l-.78,0a2.84,2.84,0,0,0-2.38-1.59l0,0Z"/><path class="cls-6" d="M63.42,23.14l.61-.49c.49-.22,1.53,1.47,1.54-.44a2.25,2.25,0,0,1,.5-.08l.3,1,.27,1-.67.19-2.5-.6,0,0Z"/><path class="cls-3" d="M66.64,24.07l-.27-1c.91.69,2.18,1,2.37,2.42l-.81-.28Z"/><path class="cls-4" d="M69.79,26.79a2.84,2.84,0,0,1,2.38,1.59H70.83v0Z"/><path class="cls-6" d="M70.83,28.39c-.09.47.05,1.19-.83.86-.21-.08-.52-.42-.48-.52.27-.67.87-.24,1.32-.32Z"/><path class="cls-4" d="M66.64,24.07l1.29,1.18a1.81,1.81,0,0,1-2-1Z"/><path class="cls-6" d="M68.78,25.56l1,1.18c-.82,0-1.19-.36-1.08-1.18Z"/><path class="cls-6" d="M72.93,30c0,.35.4.71,0,1.06l-1.11-.45c0-.45.39-.58.74-.7a1.45,1.45,0,0,0,.38.12Z"/><path class="cls-2" d="M66.12,27.32a.45.45,0,0,1,.47.08,2.61,2.61,0,0,1-.2.57C66,27.92,66.11,27.58,66.12,27.32Z"/><path class="cls-2" d="M65.6,26.73l.53.6C65.74,27.32,65.08,27.54,65.6,26.73Z"/><path class="cls-2" d="M72.95,30a1.45,1.45,0,0,1-.38-.12l.39-.61C73,29.5,72.95,29.75,72.95,30Z"/><path class="cls-4" d="M64.46,40.44l.14-.52c2-2.62,4.7-2.09,7.38-1.62h1.34c.14.8-.29,1.08-1,1.13a3.22,3.22,0,0,0-2.52,1.08l0,0C68,40.25,66.23,41.43,64.46,40.44Z"/><path class="cls-4" d="M61.55,40.17a11.93,11.93,0,0,1-5.43.75,2.31,2.31,0,0,0,.17-.38L58.76,40c.69-.11,1.46.13,2.06-.43Z"/><path class="cls-5" d="M58.76,40l-2.48.56C56.86,39.27,57.71,39.19,58.76,40Z"/><path class="cls-6" d="M74.43,40c-1.15,1.76-3,1.28-4.68,1.58l.06-1.07,0,0Z"/><path class="cls-3" d="M76.67,36.45c.7.36,0,.61-.07.91Z"/><path class="cls-6" d="M74.79,39.55a.28.28,0,0,1-.21.31A.34.34,0,0,0,74.79,39.55Z"/><path class="cls-6" d="M114.52,35.07l-6.05.57a10.3,10.3,0,0,1,6-1.26Z"/><path class="cls-5" d="M74,26.83a5.56,5.56,0,0,1-3.66-2.62A7.42,7.42,0,0,1,74,26.83Z"/><path class="cls-5" d="M63.42,23.14l.06.54c-.45,0-.85-.06-1-.55Z"/><path class="cls-3" d="M65.57,22.21c0,1.91-1,.22-1.54.44l-.58-1.1C64.3,21.33,64.82,22.14,65.57,22.21Z"/><path class="cls-6" d="M67.84,41.54c-1.54,1.94-4.1,1-5.93,2.12l-5.9.91a.8.8,0,0,1,.08-.36l.25-1.07.32-.91L58.54,42l.26.59c.64.77,1.3.61,2,0l.07-.09C63.3,43.11,65.44,41.37,67.84,41.54Z"/><path class="cls-5" d="M67.84,41.54c-2.4-.16-4.55,1.57-7,.95.38-.4,1.07-.58.91-1.34l2.72-.7c1.77,1,3.57-.2,5.34,0l-.06,1.07C69.11,41.64,68.48,41,67.84,41.54Z"/><path class="cls-4" d="M61.74,41.15c.16.76-.53.94-.91,1.34l-.07.09-2,0L58.54,42Z"/><path class="cls-4" d="M56.67,42.23l-.32.91-2.29,0-.21-.51Z"/><path class="cls-3" d="M56.1,44.21a.8.8,0,0,0-.08.36l-2,.19q0-.25.05-.49Z"/><path class="cls-5" d="M56.1,44.21l-2,0-.76-.62.72-.46,2.29,0Z"/><path class="cls-5" d="M83.46,34.19l-.54.8A.74.74,0,0,1,83.46,34.19Z"/><path class="cls-6" d="M101.36,68.23a2.1,2.1,0,0,0-1.25,2.21c-.8.7-1.71-.25-2.53.15-.84-.27-2.38.59-2.13-1.46.07-.53-.76-.93-1.41-.76-1.65.45-.93-.92-1.21-1.52,1.07-.44,2.53.19,3.25-1.19l2.71-.16C100.95,65.19,100.66,67.17,101.36,68.23Z"/><path class="cls-5" d="M83.08,68.44c-.92.71-.47,1.44.12,2.28-1.73-.08-3.4.07-3-2.39Z"/><path class="cls-5" d="M98.79,65.49l-2.71.16-.51-2.53,2.76.57A2.83,2.83,0,0,0,98.79,65.49Z"/><path class="cls-6" d="M78.06,66.16l.74.84a.75.75,0,0,0,0,.32h-.07l-1.18-.19Z"/><path class="cls-5" d="M113.44,105.63c.46-1.51.72-2.74-1.69-2.32-1.88.33-2.47-1.2-3-2.86,2.73.92,2.85-.89,3-2.71,3.1.87,2.91,4.07,4.09,6.2C116.46,105.13,114.85,105.86,113.44,105.63Z"/><path class="cls-5" d="M114,93c-4.42.93-4.41.93-4.25-3.79a3.37,3.37,0,0,0-.27-1c1.1,0,2.47-.75,2.56,1.47,0,1.07,1.41,1.27,2.49,1.09q-.13,1.09-.26,2.17A1.09,1.09,0,0,0,114,93Z"/><path class="cls-2" d="M117.33,95.08c.14.57-.26.81-.66,1C116.47,95.5,116.81,95.23,117.33,95.08Z"/><path class="cls-6" d="M69.27,132.92c.23-1.79,1.13-2.87,3-2.85s3.5.58,3.18,3a3.63,3.63,0,0,0,0,2l-5.58.07C69.57,134.49,70.12,133.5,69.27,132.92Z"/><path class="cls-5" d="M51.86,117.28c1.09,0,2.18-.15,1.6,1.66-.21.68.35,1.6.56,2.42-.73,0-1.36.77-2.15.23C51.93,120.15,50.62,118.72,51.86,117.28Z"/><path class="cls-5" d="M49.45,109.44c2.61-.55,2.14,1.23,2.06,2.72L49.08,112Z"/><path class="cls-5" d="M55,90c-.59.82,0,1.68-.08,2.51l-2.58-.59c.55-.88-.29-1.63-.22-2.46Z"/><path class="cls-6" d="M109.22,83.15c-.67-.43-1.23.37-2.19.24,1.05-1.72-.36-3.56.77-5.17l.35-.43h0c1.11-.31,2,.49,3.23.36,1.62-.17.9,1.41,1.09,2.29C112.38,82.56,111.14,83.25,109.22,83.15Z"/><path class="cls-5" d="M87.53,135.49c.44-.62-.1-1.7.76-2,.62-.23.25.94.89,1C89.69,136.52,88.19,135.33,87.53,135.49Z"/><path class="cls-5" d="M77.57,67.12l1.18.19c0,.42.08,1-.47,1s-1-.44-1.07-1.12A.57.57,0,0,0,77.57,67.12Z"/><path class="cls-5" d="M55.85,121.79c.09-1-.44-2,.07-3,.31-.66.44-1.24,1.31-1.14.41,0,1,.08.9.64s.29,1.42-.84,1.53-1.52.93-1.46,2Z"/><path class="cls-6" d="M84.62,137.52c0-.38-.28-1,.25-1.07,1-.11.43.85.7,1.26l0,0Z"/><path class="cls-6" d="M85.57,137.71c.26.18.75.37.74.54,0,.49-.48.29-.8.28,0-.26,0-.52,0-.79Z"/><path class="cls-2" d="M85.54,137.74c0,.26,0,.53,0,.79-.83.14-1-.28-.9-1Z"/><path class="cls-6" d="M89.42,100.32c1.31.45,2.61.93,2.53-1.32,0-.8.6-1,1.21-1.1,1.52-.3,1.89-1.13.91-2.53,5,.78,5,.78,5.35,4.94l-1.3.06c-.83,0-2-.36-2.21.75a1.74,1.74,0,0,0,1.44,2.11c-3.79,2.33-4,5.93-3.46,9.78a17.62,17.62,0,0,0-3.09.33c-.78.22-1.71-.57-2.38.82-1.5,3.05-1.05,4.15,2.42,4.61-.11.78,1.57,2.72-1.17,1.82a.53.53,0,0,0-.46.15c-1,1.35-3.24,2.59-3.32,3.48-.19,2.25-1.61,1.21-2.46,1.6-.39-2.1-.83-4.13-3.78-2.9-2.16-1.49-2.29,1.25-3.53,1.69-1.11-3-2.88-4.25-5.62-4.06-.2-.79,1.35-1.38.29-2.26.83-.19,2.23.44,2.42-.39.57-2.59,2.52-1.66,3.76-1.46,1.69.27,1.87-.22,1.57-1.58a1.81,1.81,0,0,1-.07-1c.24-.55,1.37-1.06.34-1.62a1.48,1.48,0,0,0-1.88,1c-.55,2.93-1.7.68-2,.12-.72-1.32-1.15-1.55-2.51-.59a2.33,2.33,0,0,1-3.26-.62,14.8,14.8,0,0,1,0-6.37c1.3-1.81,2-3.35-1.34-3.35-.29,0-.84-.36-.82-.49.42-2.75-1.79-1.68-3-2.08-.51-1.47.7-2.88.16-4.37-.21-.57.25-.89.69-.67,1.54.75,3.75-.17,4.68,2.28.43,1.14,2.27,1.26,3,2.78.4.82,2,0,1.83-1.57,1,.54,1.2,2.23,2.77,2l8.77-.11C87.09,101.44,88.24,101.58,89.42,100.32Zm-5.87,5.45c.26-.08.81,0,.56-.46s-.56,0-.74.28l-.17.35Zm-2.74,2.44-.07,0,1.18-.13c-.24-.51-.69-.22-1-.28-.19-.11-.46-.36-.56-.31-.42.23-.27.52,0,.77S80.69,108.51,80.8,108.22Zm-4.18,12.69c.18.23.29.67.68.2l-.69-.19c-.1-.63-.31-1.16-1.1-.93-.14,0-.31.47-.25.57C75.59,121,76.14,120.89,76.62,120.91Zm11-10.08c.9,1.41,1.84-.1,2.76,0l.42.18c.47.42.83.42,1-.28-1.81-4-2.4-4.12-5.15-1.13-.31.34-1.18.45-.74,1.09S87,110.85,87.61,110.82Zm-11.18.5c.84,0,1.67.1,2.51.06s.84-.74,1-1.29c.17-.84-.44-.69-.93-.64-.82,0-1.72.4-2.41-.47-1.69-2.15-2.87-2.17-4.72-.2a2.51,2.51,0,0,0-.79,1.56c0,.46.41.52.74.52.73,0,1.44-.14,1.6-1,.42-2.15,1.18-.74,1.78-.15A15.46,15.46,0,0,1,76.43,111.32Zm7,.09c.43,0,.9-.05,1-.61a.66.66,0,0,0-.71-.83,1,1,0,0,0-1,.68C82.48,111.25,82.94,111.36,83.39,111.41ZM81,105.6c.11.15.21.39.38.47a.53.53,0,0,0,.78-.32c0-.14-.15-.45-.32-.55C81.47,105,81.2,105.22,81,105.6Zm2.51,2.49c.1.14.18.41.36.5a.33.33,0,0,0,.48-.35.88.88,0,0,0-.36-.58C83.62,107.46,83.57,107.78,83.48,108.09Zm-.14,12.53-.13-.44c-.14,0-.34.05-.42.15s-.14.44.16.49C83.06,120.84,83.21,120.69,83.34,120.62Zm.08-2.76c-.06,0-.16.08-.18.13s.06.13.1.19l.29-.23Z"/><path class="cls-4" d="M89.42,100.32c-1.17,1.26-2.33,1.12-3.46-.06,1.11-2.37.36-5,.78-7.32.49-2.68-.59-2.52-2.35-2.25,1.88-5.16,1.88-5.16,3.28-5.26-.71,1.13-.14,2.31-.46,3.46-.18.63.16,1.43.79,1.45,1.24,0,1.59.63,1.66,1.73s.89,1.07,1.54.81c1.17-.48.38-2.78,2.81-2.61,1.16.08.82-2.58.82-3.83,0-3.33-.22-3.33,3.32-3.66-1.25,1.22-.27,2.57-.68,3.88-.28.89.78,1.24,1.59,1.06,1.09-.25,3,.9,3.14-.8.22-2.07.76-4.25,0-6.36,3.24-.21,3.3-.21,3,3.1-.06.73.3,1.43.17,2-.27,1.09.38,3-1.89,2.82-.22,0-.64.17-.68.33-.85,4-4,1.19-6,2-1.06.44-2.5-.13-1.92,1.86.11.37-.09.84-.46.71-2.05-.74-2.54.14-2.19,2,0,.07-.21.27-.32.27C87.8,95.45,90,98.65,89.42,100.32Z"/><path class="cls-4" d="M70.59,82.62A15.64,15.64,0,0,0,70,88.34c0,.64,0,1.81.79,1.72,3.55-.41.5,2.14,1.56,2.83-1.19-.32-2.28-.11-2.86-1.68s-2.66-.6-4-.79A14,14,0,0,0,63,90.35c-2.39.12.36-1.69-.87-2.38-.91-.51-2.55.77-2.73-1.07-.2-2,.78-3.81,1.3-5.69.17-.63.56-.93,1.13-.74,1.15.38.71,1.73,1.37,2.43-.69.64-.05,1.52-.27,2.09-.57,1.47-.48,2.48,1.27,2.42,1.3,0,3.22.37,3-2.09C67,83,68.34,82.44,70.59,82.62Z"/><path class="cls-4" d="M69.15,112.18a2.33,2.33,0,0,0,3.26.62c1.36-1,1.79-.73,2.51.59.3.55,1.45,2.81,2-.12a1.48,1.48,0,0,1,1.88-1c1,.56-.11,1.07-.34,1.62a1.81,1.81,0,0,0,.07,1c.3,1.37.12,1.85-1.57,1.58-1.25-.2-3.2-1.12-3.76,1.46-.18.83-1.59.21-2.42.39-.5-1-2.51-.16-2.29-1.06C68.91,115.55,67.14,113.58,69.15,112.18Z"/><path class="cls-4" d="M77.19,100.38c-1.57.2-1.75-1.49-2.77-2-1.36-.88.89-1.78,0-2.66.55-.15.56-.62.61-1.05l0-.94c.08-.72-.17-1.17-1-1.17.5-1-.17-2.83,2.1-2.5.61.09,1-.73,1-1.76-.08-1.8,0-4,3-2.93.22.73-.15,1.45-.15,2.19,0,1.15.33,2.68-1.88,3.09-1.61.3-.73,2.89-1.9,4C77.89,96.32,76.41,98.55,77.19,100.38Z"/><path class="cls-4" d="M90.82,118.78c-3.47-.46-3.92-1.56-2.42-4.61.68-1.39,1.61-.6,2.38-.82a17.62,17.62,0,0,1,3.09-.33c-.65,1.72.36,3.45-.2,5.34C92.87,118.57,91.66,117.75,90.82,118.78Z"/><path class="cls-4" d="M76.1,124.62c1.24-.44,1.37-3.18,3.53-1.69,1,.79,3,1,1.87,3.1-.16.29-.08.86.27.81s.83-.46,1.24-.72c.25,2.29-1.53,2.31-2.82,2.07-.83-.16-1.62,0-2.71-.13C79.83,125.6,76.24,126,76.1,124.62Z"/><path class="cls-4" d="M64,99.89c1.18.41,3.39-.66,3,2.08,0,.13.54.49.82.49,3.3,0,2.63,1.54,1.34,3.35-1.17-.68-3.39,0-3.23-2.46a1.51,1.51,0,0,0-.92-.28c-2.27.27-1.06-1.21-1.07-2.08v-.63A1.55,1.55,0,0,0,64,99.89Z"/><path class="cls-4" d="M97.58,70.58c.82-.4,1.72.55,2.53-.15a3.24,3.24,0,0,1,.62,2.77c-1,.06-2.46-.63-2.41,1.32.06,2.59-2.19-.45-2.65,1.07,0,.13-.86-.5-.45-.76.83-.54-1-2.5,1.31-2.16C98.52,73,98.06,71.71,97.58,70.58Z"/><path class="cls-4" d="M97.34,103.25a1.74,1.74,0,0,1-1.44-2.11c.24-1.11,1.38-.71,2.21-.75l1.3-.06C99.14,101.59,100.06,103.7,97.34,103.25Z"/><path class="cls-5" d="M83,126.13c-.41.26-.8.67-1.24.72s-.42-.52-.27-.81c1.16-2.12-.85-2.31-1.87-3.1,2.94-1.23,3.38.8,3.77,2.9A.57.57,0,0,1,83,126.13Z"/><path class="cls-5" d="M74,92.52c.8,0,1,.45,1,1.17a1,1,0,0,0-1.07.48C72.88,93.56,73.83,93.06,74,92.52Z"/><path class="cls-2" d="M75,94.63c-.05.44-.06.9-.61,1.05-.43-.2-.37-.58-.35-1Z"/><path class="cls-6" d="M75,94.63l-1,.1-.14-.56A1,1,0,0,1,75,93.69Q75,94.16,75,94.63Z"/><path class="cls-6" d="M64,100.36V101C63.46,100.78,63.46,100.57,64,100.36Z"/><path class="cls-5" d="M108.15,77.79l-.35.43C107.83,78,107.75,77.71,108.15,77.79Z"/><path class="cls-6" d="M109.18,62.07c.7.82,1.82,1.44,1.43,2.81a3.87,3.87,0,0,1-3.56-2,4.73,4.73,0,0,0-2.64-2.39c.06-.76-.85-1.34-.4-2.17C106.36,58.68,106.92,61.52,109.18,62.07Z"/><path class="cls-4" d="M109.18,62.07c-2.25-.54-2.82-3.39-5.17-3.79a1,1,0,0,1-.1-.42L105,57.2c.49-.1,1.78.61.9-.89,1-.86,1.36.88,2.22.46v1.1q0,.34,0,.68c-.35,0-1.12-.9-.94.16.14.82.61,2,2,1.78h0c-.1.49.3.44.57.53l0,0Z"/><path class="cls-5" d="M105,57.2l-1.13.66c-1.51-.59-3.24-1-3-3.2.54-.1,1.16.07,1.56-.48l1,.54-.05,0a1.71,1.71,0,0,0,1.09,1.09l0,0c0,.35.15.61.57.56l0,0Z"/><path class="cls-4" d="M102.44,54.17c-.4.56-1,.38-1.56.48a8.17,8.17,0,0,1-2.31-2.05c.63-.18.61-.78.83-1.24A8,8,0,0,1,102.44,54.17Z"/><path class="cls-5" d="M99.39,51.36c-.21.45-.2,1.06-.83,1.24-1.08-.44-2.19-.87-1-2.31l1.07.75c.15.27.35.43.68.32Z"/><path class="cls-4" d="M99.31,51.36c-.33.11-.53-.05-.68-.32C98.92,51,99.25,50.9,99.31,51.36Z"/><path class="cls-5" d="M78.2,35.8q0,.51,0,1C77.62,36.47,77.69,36.14,78.2,35.8Z"/><path class="cls-4" d="M111.91,62a1.19,1.19,0,0,1-1.43-.74,2.89,2.89,0,0,0,.37-.37l1,.07h0Z"/><path class="cls-4" d="M109.66,60.39l.45-.56.73,1.08a2.89,2.89,0,0,1-.37.37L109.7,61l0,0Z"/><path class="cls-5" d="M111.91,62l-.07-1c.57.16.8.64,1.05,1.1C112.54,62.4,112.22,62.23,111.91,62Z"/><path class="cls-3" d="M109.19,60.49c-1.35.19-1.83-1-2-1.78-.18-1.06.59-.14.94-.16C108.34,59.29,109.28,59.62,109.19,60.49Z"/><path class="cls-5" d="M110.84,60.91l-.73-1.08c1.29-.68,1.44.35,1.74,1.15Z"/><path class="cls-5" d="M108.17,57.87V56.79a.66.66,0,0,1,.41.15C108.61,57.33,108.62,57.7,108.17,57.87Z"/><path class="cls-3" d="M109.66,60.39l.09.62c-.27-.09-.67,0-.57-.53A.67.67,0,0,1,109.66,60.39Z"/><path class="cls-3" d="M105,57.2l0-.95c.35-.5.63,0,.95.06C106.8,57.8,105.52,57.1,105,57.2Z"/><path class="cls-3" d="M104.49,55.76a1.71,1.71,0,0,1-1.09-1.09C104.42,54.37,104.77,54.75,104.49,55.76Z"/><path class="cls-3" d="M105,56.28c-.42,0-.54-.22-.57-.56C105,55.5,105.22,55.69,105,56.28Z"/><path class="cls-5" d="M58.79,42.54l2,0C60.1,43.16,59.44,43.32,58.79,42.54Z"/><path class="cls-2" d="M76.43,111.32a15.46,15.46,0,0,0-1.26-1.61c-.6-.59-1.36-2-1.78.15-.17.86-.87,1-1.6,1-.34,0-.78-.06-.74-.52a2.51,2.51,0,0,1,.79-1.56c1.85-2,3-1.94,4.72.2.69.87,1.59.43,2.41.47C77.9,109.79,76.63,109.83,76.43,111.32Z"/><path class="cls-2" d="M90.79,111l-.42-.18c-.9-1.67-1.82-1.68-2.76,0-.59,0-1.34.44-1.72-.11s.43-.75.74-1.09c2.75-3,3.34-2.85,5.15,1.14Z"/><path class="cls-4" d="M76.43,111.32c.2-1.5,1.47-1.54,2.53-1.86.5-.06,1.1-.2.93.64-.11.55-.17,1.26-1,1.29S77.27,111.35,76.43,111.32Z"/><path class="cls-4" d="M87.61,110.82c.94-1.64,1.86-1.64,2.76,0C89.45,110.72,88.52,112.23,87.61,110.82Z"/><path class="cls-4" d="M83.39,111.41c-.45-.06-.91-.16-.72-.76a1,1,0,0,1,1-.68.66.66,0,0,1,.71.83C84.29,111.36,83.82,111.37,83.39,111.41Z"/><path class="cls-4" d="M81,105.6c.24-.38.5-.59.84-.39.17.1.37.41.32.55a.53.53,0,0,1-.78.32C81.18,106,81.08,105.75,81,105.6Z"/><path class="cls-4" d="M76.62,120.91c-.48,0-1,.13-1.35-.35-.07-.1.11-.53.25-.57.79-.23,1,.3,1.1.93Z"/><path class="cls-4" d="M83.48,108.09c.09-.32.15-.64.48-.43a.88.88,0,0,1,.36.58.33.33,0,0,1-.48.35C83.66,108.51,83.57,108.24,83.48,108.09Z"/><path class="cls-3" d="M80.33,108.29c-.3-.25-.45-.54,0-.77.1-.05.37.2.56.31a.5.5,0,0,0-.13.41l.07,0A.65.65,0,0,0,80.33,108.29Z"/><path class="cls-4" d="M83.34,120.62c-.13.07-.28.22-.4.2-.3,0-.34-.28-.16-.49s.28-.1.42-.15Z"/><path class="cls-4" d="M80.73,108.24a.5.5,0,0,1,.13-.41c.36.05.81-.23,1,.28Z"/><path class="cls-4" d="M83.36,105.59c.19-.29.55-.61.74-.28s-.29.38-.56.46Z"/><path class="cls-4" d="M90.79,111l1-.28C91.62,111.45,91.27,111.45,90.79,111Z"/><path class="cls-4" d="M83.42,117.86l.21.1-.29.23c0-.06-.11-.14-.1-.19S83.36,117.9,83.42,117.86Z"/><path class="cls-4" d="M76.61,120.91l.69.19c-.38.47-.5,0-.68-.2Z"/><path class="cls-4" d="M80.33,108.29a.65.65,0,0,1,.46-.07C80.69,108.51,80.54,108.6,80.33,108.29Z"/><path class="cls-4" d="M83.54,105.77l-.36.16.17-.35Z"/></svg>