<svg id="圖層_1" data-name="圖層 1" xmlns="http://www.w3.org/2000/svg" viewBox="0 0 162 168"><defs><style>.cls-1{fill:#c2bdb6;}.cls-2{fill:#f0f0f0;}.cls-3{fill:#a61716;}.cls-4{fill:#339a92;}.cls-5{fill:#c6dddf;}.cls-6{fill:#ac201f;}.cls-7{fill:#c1dde0;}</style></defs><title>CC8</title><path class="cls-1" d="M149,27.4h1.73l1.76,0c0,.5,0,1,0,1.51q.2,60.84.39,121.69c0,1.87.35,3.74,0,5.61-24.82.57-49.65.07-74.47.53-17.54.33-35.07.08-52.6.35-1.73.25-2.27-.51-2.2-2.21.1-2.38,0-4.76-.09-7.14.36-7.85.11-15.71.12-23.56,0-11-.1-22.06-.16-33.09q.25-12.54,0-25.08l0-3.92V60.83a2.78,2.78,0,0,0,0-1.75l0-2.15,0-2.19,0-1.71,0-4.79v-3.9l0-1.71a115.82,115.82,0,0,0,0-12.6l.4-3,.16,0,.14-.09c.86,0,1.73.1,2.59.11q40.38,0,80.75.06c10.32,0,20.63.1,30.95.16l1.32,0a17.59,17.59,0,0,1,4.26,0ZM119.46,141.95l.43.43.18.53.15-.1c-.09-.16-.19-.31-.29-.46l-.43-.43-.44-.43-.44-.44-.43-.43c.37-.71,1.39-.06,1.84-.93-1.07-.38-2.05-.9-1.87,1l.43.42.44.44ZM109.08,141c-.17-.36-.41-1-.74-.25a2.9,2.9,0,0,0,.08,2.37c.4-.73,0-1.56.63-2.07-.19,1.66,2.23.3,2.05,2,0-.92.36-1.79-.27-2.68C110.27,140.65,109.92,141.64,109.08,141Zm-7.5-106.32a1.3,1.3,0,0,0-.91.85c-1.54,3.92-.7,7.89-.23,11.87.09-4.22-.72-8.53,1.32-12.53.46-.2.95.4,1.52-.14C102.69,34.19,102.22,33.55,101.58,34.72ZM100,50.34c-.83,1-1,3.46-3.23,1.42a.6.6,0,0,0-.93.22c-.42,1-1.09,1-1.92.64-.48-.2-1.2-.35-1.43,0-.84,1.28-1.89,1.23-3.11.81-.55-.19-.92,0-1.22.57a1.09,1.09,0,0,1-1.47.5c-1.87-.66-3.27,2.34-5.29.7,0,.06-.07.12-.1.19-.54,1.22-1.37,1.27-2.44.68a1,1,0,0,0-1.36.36c-.71,1.12-1.53,1-2.54.49-.34-.17-1.11-.17-1.21,0-.71,1.37-1.8,1.1-2.94.85a.79.79,0,0,0-.93.38c-.5,1-1.24,1-2.15.58-.44-.18-1.23-.33-1.42.09-.79,1.77-1.85,1.11-3,.48-.29-.16-.58-.13-.7.19-.06.16,0,.55.08.57,2.42.52,1.31,2.11,1.06,3.44,1,1,1.77,2,.52,3.42-.29.33.18.73.7.71,1.61.94.49,2,.14,3,.11.25.15.58.33.72,1,.8,2.08,1.49.61,2.9-.45.43.08.86.69.87,2.17.95-.09,2.31.19,3.5,1.28-.55,2.14-2.57,3.73-.79a3.48,3.48,0,0,1,.47.44c1.08,1.44,0,3.65,1.73,4.86-.93,1.24-.79,2.2.69,2.9.5.23.35.72.12,1.13-1.07,1.88,2.4,3.46.35,5.4.05.05.09.12.15.15,1.37.57,1.2,1.53.7,2.62a.76.76,0,0,0,.34,1.1c1.36.7.85,1.54.82,2.8a17.49,17.49,0,0,0,1.1,4.76c.21.68,1.68,1,.84,2.17S76.7,109,74.72,108c-.32-.15-.65-.68-1.26,0A14.61,14.61,0,0,0,75,109.32c.37.26.7.34.49.94a2.89,2.89,0,0,1-3.68,1.93c-.3-.09-.55-.2-.76,0a.48.48,0,0,0,.08.75c1.72.86,1.19,2.09.59,3.34l-.09.06,0,.11c-.74,1.66-2.31.14-3.3.78.08,1,2.05.9,1.19,2.17s.22,1.76.43,2.6a48.36,48.36,0,0,0,1.13,5.17c.13.37-1,1-.24,1.4s1-.47,1.3-1a.44.44,0,0,0,.12-.33c3.15.69,3.26.82,2.91,3.6-.05.4.3.92.46.68,1.07-1.58,2.39-1.49,3.91-.89.11,0,.44-.51.69-.76.4-.42.8-.92,1.44-.34s1.27,0,1.72-.29c1.62-1.1,3.9-.07,5.34-1.7.07-.08.45,0,.6.12.9.66,1.6.31,2.27-.37a1.3,1.3,0,0,1,1.73-.36c.46.27,1,.47,1.35-.08,1.18-2,4-.05,5.09-2.13,1.71,1.62,2.78-.13,4.05-.77l.46.16c.42.19.8.82,1.3.26a.74.74,0,0,0-.27-1.12c-1.36-.89-.56-1.91-.13-2.82s1.11-1.49,2.19-.64a1.08,1.08,0,0,0,1-.09,3.64,3.64,0,0,1,3.75-.68,5.87,5.87,0,0,1-.63-3.54,1.6,1.6,0,0,0-.72-1.44c-1.29-1.26-.07-2.19.31-3.22.49-1.31,1.28-.7,2-.28.33.19.74.27,1-.05a.66.66,0,0,0-.24-.94,1.72,1.72,0,0,1-.52-2.73c.35-.52-.25-.91-.69-1.15-.74-.41-.91-.82-.58-1.72.71-1.93-1.12-3.55-.92-5.59a23.23,23.23,0,0,0-.53-2.59c-.21-1.56-1.06-3.09-1-4.79,0,0-.09-.11-.15-.15-.82-.5-.49-1.22-.6-2-.25-1.71-1.37-3.21-1.07-5.17.05-.36-.68-1.33-.64-2.41.06-1.57-1.61-3-.75-4.83,0-.11-.32-.45-.54-.63-.47-.39-.85-.73-.44-1.43a1.77,1.77,0,0,0-.56-2.13c-.93-.93-.65-1.77-.23-2.72.66-.88,1.25-1.85,2.57-.82.59.47,1.19-.3.92-.5-1.49-1.09-.21-2.53-.65-3.7-1.74-.88-.29-2.52-.89-3.68-.93-.71-1.56-1.46-.63-2.66a.75.75,0,0,0-.36-1.23c-1.46-.75-.49-1.9-.47-2.9-.38-1.26-2.15-2.08-1-3.87.36-.59-.77-.24-1.06-.61s.5-1-.22-1.73C102.61,49.65,100.52,49,100,50.34ZM66.35,139.88c-.16,1.08-2.33-.58-1.94,1.46.11.57-.29,1.21.28,1.7.57-1.11,2.62-.16,2.69-1.93A1,1,0,0,0,66.35,139.88ZM69.26,143c.74-1.07,3.38-.4,2.68-2.61-.39-1.25-1.66-.14-2.15,0C68.43,140.63,69.51,142.06,69.26,143ZM104.39,39.63l-.54,5.51C105.11,43.39,104.71,41.51,104.39,39.63Z"/><path class="cls-1" d="M10.81,65.14l-.05-6c.17-.11.45-.19.5-.34.11-.37-.21-.47-.5-.54l0-6.06c1.21-.69,1.16-2,1.14-3-.06-4.66-.28-9.31-.36-14-.09-5-.1-10-.1-15.05a1.15,1.15,0,0,0-1.1-1.32l0-1.31c1.05-.58,1-1.16,0-1.75l0-1.72a.81.81,0,0,0,.77-.71L13.21,13q23,0,45.92.08,39,0,78,0c1.51,0,3,.15,4.53.24l.62.13.48-.22,1.64.94q0,1.81,0,3.62a30.87,30.87,0,0,0,0,7.54c-.2.66.14,1.44-.44,2a17.6,17.6,0,0,0-4.26,0,1.45,1.45,0,0,0-1.32,0c-10.32-.06-20.63-.15-30.95-.16Q67,27.12,26.65,27.12c-.86,0-1.73-.07-2.59-.11l-.38-.62c-.08.07-.25.19-.24.21a4,4,0,0,0,.33.46l-.4,3c-.67.61-1.19,1.74-2.34.62a1.18,1.18,0,0,0-1.73-.11.75.75,0,0,0-.27.95,1.45,1.45,0,0,0,1.49,1c1.34,0,2.68,0,1.52,2a.94.94,0,0,0,0,.83c1.15,1.7.6,3.61.73,5.44.05.68-.23,1.48.61,1.91l0,1.71q-1.36.88,0,1.75v2.15a4.15,4.15,0,0,0,0,4.79l0,1.71c-1,.74-1,1.47,0,2.19l0,2.15c-.86.6-.87,1.19,0,1.75v1.28a2.88,2.88,0,0,0,0,3.92q.29,12.54,0,25.08c-2,1-3-.32-3.63-1.8-.42-1-.79-1.33-1.69-.78s-2.2,1.14-.19,2.09c.58.27,1.31.76,1.09,1.66-.1.4-.48.42-.87.47-2.51.34-2.65.68-1.06,2.67.41.51,1.21,1,.63,1.59-1.11,1.08-.6,1.56.18,2.56s1,2.28,2.22,3a.52.52,0,0,1,0,.91,7.68,7.68,0,0,0-2,2.18,1.17,1.17,0,0,1-1.75,0c-.73-.81.18-.83.64-1.06.66-.32.54-.75.09-1.18-.3-.29-.91-.72-.5-1,1.61-1.13-.08-1.4-.46-2-.54-.81-1.54-1.49-.59-2.61s1-1.93-.68-2.45a10.66,10.66,0,0,1-2.29-1.56c-.41-.27-.42-.48-.15-.84,1.63-2.2-.51-3.32-1.4-4.79l0-2.57a2.11,2.11,0,0,0,1.31-2.43,45.4,45.4,0,0,1-.83-10.66,1.15,1.15,0,0,0-.61-1.26l0-2.14c1.72-.07,1.47-1.34,1.53-2.47S11.85,65.08,10.81,65.14ZM20.75,88c.32,0,.5-.16.43-.41,0-.1-.22-.24-.3-.21a1.71,1.71,0,0,0-.45.28Z"/><path class="cls-1" d="M152.87,156.23c.36-1.87,0-3.74,0-5.61q-.17-60.84-.39-121.69c0-.5,0-1,0-1.51l1.29-.41a4.41,4.41,0,0,1,1.2,3.35c-.07,6.24.08,12.49.09,18.73,0,7-.24,13.93,0,20.87.74,20.49-.08,41,.53,61.47.2,6.77.3,13.53.43,20.29a15.06,15.06,0,0,1-.64,3.6C155,156.8,154.18,157.24,152.87,156.23Z"/><path class="cls-1" d="M94.54,12.18l-.2.26a1.84,1.84,0,0,1-.21-.25s.08-.14.1-.14A2,2,0,0,1,94.54,12.18Z"/><path class="cls-1" d="M142.76,13.21l-.48.22a3.11,3.11,0,0,0-.16-.33Z"/><path class="cls-1" d="M142.12,13.1a3.11,3.11,0,0,1,.16.33l-.62-.13Z"/><path class="cls-1" d="M104.66,69.58c-.42.94-.7,1.78.24,2.71a1.77,1.77,0,0,1,.56,2.13c-.41.7,0,1,.44,1.43.22.18.59.53.54.63-.86,1.83.82,3.26.75,4.83,0,1.08.69,2.05.64,2.41-.29,2,.83,3.46,1.07,5.17.11.74-.22,1.46.6,2,.06,0,.15.1.15.15,0,1.7.84,3.23,1,4.79a23.23,23.23,0,0,1,.53,2.59c-.2,2,1.63,3.67.92,5.59-.33.9-.17,1.3.58,1.72.44.24,1,.63.69,1.15a1.72,1.72,0,0,0,.52,2.73.66.66,0,0,1,.24.94c-.25.32-.65.24-1,.05-.76-.42-1.55-1-2,.28-.39,1-1.6,2-.31,3.22a1.6,1.6,0,0,1,.72,1.44,5.87,5.87,0,0,0,.63,3.54,3.64,3.64,0,0,0-3.75.68,1.08,1.08,0,0,1-1,.09c-1.08-.84-1.75-.31-2.19.64s-1.23,1.93.13,2.82a.74.74,0,0,1,.27,1.12c-.5.56-.88-.07-1.3-.26,0-.47.06-1-.57-1.17-.14,0-.33.16-.49.24l.6.76c-1.28.64-2.34,2.39-4.05.77-1.12,2.08-3.91.12-5.09,2.13-.32.54-.9.34-1.35.08a1.3,1.3,0,0,0-1.73.36c-.67.68-1.38,1-2.27.37-.16-.11-.53-.2-.6-.12-1.44,1.63-3.72.6-5.34,1.7-.45.3-1,.92-1.72.29s-1-.08-1.44.34c-.25.26-.58.81-.69.76-1.53-.6-2.85-.69-3.91.89-.16.24-.51-.28-.46-.68.35-2.78.24-2.91-2.91-3.6l-.29-.14.17.47c-.29.55-.61,1.39-1.3,1s.37-1,.24-1.4A48.36,48.36,0,0,1,69.93,122c-.21-.84-1.26-1.38-.43-2.6s-1.11-1.19-1.19-2.17c1-.64,2.56.88,3.3-.78l.57.45.16-.3-.66-.33c.6-1.25,1.13-2.48-.59-3.34a.48.48,0,0,1-.08-.75c.21-.23.47-.11.76,0a2.89,2.89,0,0,0,3.68-1.93c.21-.6-.12-.68-.49-.94A14.61,14.61,0,0,1,73.46,108c.61-.66.94-.13,1.26,0,2,1,2.5-.7,3.29-1.81s-.63-1.49-.84-2.17a17.49,17.49,0,0,1-1.1-4.76c0-1.25.55-2.1-.82-2.8a.76.76,0,0,1-.34-1.1c.5-1.09.67-2-.7-2.62-.06,0-.1-.1-.15-.15,2.05-1.94-1.42-3.52-.35-5.4.23-.4.38-.89-.12-1.13-1.49-.7-1.62-1.66-.69-2.9-1.74-1.21-.65-3.42-1.73-4.86a3.48,3.48,0,0,0-.47-.44c1.18-1.76,3.11-.7,4.62-1.23-.41,1.08-1,2.16.44,3,.32.19.53.67.31.95-1.58,2,2,3.52.47,5.48,2.12,1.22-.74,4.41,2.11,5.37a1.55,1.55,0,0,1-.17.79c-.69,1-.41,1.69.57,2.25.32.18.64.56.43.89-.79,1.27.34,2,.58,3,.35,1.45-.32,3.14,1.22,4.31,0,0,0,.3-.1.4-1,1.26-.1,2.21.61,3.17-.23.11-.41.26-.48.22-1.53-.83-2.23.22-3.05,1.23s-.43,1.59.4,2.32c.41.37.17,1.23-.5.88-2.22-1.16-2.33,1-3,1.91-1,1.31.34,1.8,1.21,2.14s1.7,1.92,2.58.05c.19-.41.2-1.18.93-.83.45.22.27.8,0,1.16-.57,1-.7,1.83.55,2.24,1,.33,2.18,2,3.15-.13.22-.48,1.09-.84,1-.21-.32,1.6-.43,2.92,1,4a1.09,1.09,0,0,1-.25.55c-1.07,1.19-.24,2.13.63,2.65s1.85,1.33,2.83,0a1.6,1.6,0,0,1,2.12-.46c.49.22,1,.29,1.33-.27a1.5,1.5,0,0,1,2.33-.61,1,1,0,0,0,1.36-.26,1.92,1.92,0,0,1,2.48-.6c.89.42,1.41-.23,1.65-.92s1.6-1.8.65-2.4c-2-1.26.33-4.15-2.16-5,.08-.2.09-.47.23-.59,1.46-1.14.65-1.85-.45-2.55-.35-.22-.81-.48-.46-1s.61-.1.95,0c.8.29,1.8,1.25,2.34-.17.38-1,1.59-2.15,0-3.22-.33-.22-.83-.51-.51-1,.43-.67.88-.06,1.29.11.71.29,1.46.54,1.87-.34.51-1.08,1.12-1.05,2-.5,1.63,1,1.63-.83,2.28-1.45s1.28-1.68.32-2.2c-1.26-.68-.95-1.68-.8-2.46s0-1-.43-1.2c-2.25-1,.17-1.89.07-2.81-.12-1.09-2.63-1-1.45-2.77.67-1,.39-1.53-.59-2-.48-.23-1.22-.58-.46-1.25,1.2-1.06.8-1.8-.37-2.44-.43-.24-.77-.85-.58-1,1.78-1.8-2.5-3.57,0-5.31-.14-.16-.24-.39-.42-.47-2.32-1-1-2.27-.15-3.45-1.29-.72-3.22-1.12-1.27-3.09.34-.34,0-.64-.3-.88-.48-.41-1.18-.61-1.32-1.35A9.47,9.47,0,0,1,104.66,69.58ZM70.94,118.07c.76,1.42,1.86,2.69,1,4.41-.14.28.24,1,.94.88.41-.08,1-.19.87-.71C73.15,121,73.64,118.67,70.94,118.07Zm35.13-4.82a2.71,2.71,0,0,0-.58-2.92c-.34-.42-1.06-.75-1.53-.31s0,1.22.37,1.45A11.37,11.37,0,0,1,106.07,113.24Zm-1.07-7.5a1.08,1.08,0,0,0-.66,1.16c.06.42.28.55.7.53a.8.8,0,0,0,.85-.93C105.87,106,105.46,105.83,105,105.75ZM102.47,112c-.16-.42-.23-1-.8-1.07s-.77.49-.81,1,.37.66.81.73S102.49,112.62,102.47,112Zm-.75,5.75,1.33,3.6C103.49,119.56,103.28,118.61,101.72,117.76ZM77.9,119.3a1.22,1.22,0,0,0-1.4-.55c-.31.07-.22.48,0,.68C77,119.85,77.46,119.93,77.9,119.3Zm28.41-4.07-.22-.4a1.84,1.84,0,0,0-.4.36c0,.06.1.23.16.34Zm-4.56-.4a2.15,2.15,0,0,0,.13-.32s-.12-.11-.14-.1a1.91,1.91,0,0,0-.26.21Zm-1.6-1.86.1-.15-.16,0Z"/><path class="cls-1" d="M11,88.13c.9,1.47,3,2.59,1.4,4.79-.27.37-.27.58.15.84a10.66,10.66,0,0,0,2.29,1.56c1.72.52,1.68,1.28.68,2.45s0,1.8.59,2.61c.38.56,2.07.83.46,2-.4.28.21.71.5,1,.45.43.57.86-.09,1.18-.47.23-1.37.25-.64,1.06a1.17,1.17,0,0,0,1.75,0,7.68,7.68,0,0,1,2-2.18.52.52,0,0,0,0-.91c-1.21-.68-1.47-2-2.22-3s-1.29-1.48-.18-2.56c.57-.56-.23-1.08-.63-1.59-1.59-2-1.44-2.33,1.06-2.67.38-.05.77-.07.87-.47.22-.9-.51-1.39-1.09-1.66-2-.95-.75-1.52.19-2.09s1.28-.21,1.69.78c.63,1.49,1.61,2.85,3.63,1.8.06,11,.17,22.06.16,33.09,0,7.85.25,15.71-.12,23.56-3.54,0-7.07,0-10.61.11-1.06,0-1.72-.06-1.72-1.47q-.1-28.82-.3-57.63A3.27,3.27,0,0,1,11,88.13Z"/><path class="cls-1" d="M65,67.62c-.52,0-1-.37-.69-.71,1.24-1.42.46-2.41-.52-3.42,2.66-.72,5.31-1.46,8-2.15,2.43-.62,4.87-1.18,7.32-1.75,2.63-.61,5.25-1.29,7.91-1.74,3.41-.58,6.69-1.62,10.06-2.35,2.68-.58,5.22-2,8.09-1.42,0,1-1,2.14.47,2.9-1.12,1.9-3.29,1.44-4.9,1.82-5.65,1.35-11.24,2.94-17,4-4.23.81-8.4,2-12.64,2.88C69.1,66.15,66.85,66.38,65,67.62Z"/><path class="cls-1" d="M106.62,60.87c.6,1.15-.85,2.8.89,3.68a1.83,1.83,0,0,1-1.57,1A29.24,29.24,0,0,0,98.14,67c-4.52,1.22-9.05,2.46-13.61,3.37-4.3.87-8.51,2.09-12.8,3-1.62.33-3.61.38-5,1.79-.61,0-1.14-.44-.69-.87,1.47-1.41.43-2.1-.61-2.9-.19-.14-.22-.48-.33-.72a14.42,14.42,0,0,0,4.93-1c.77.56,1.54,1.22,2.13-.19,2.09-1.45,4.64-1.12,6.89-1.81,4.33-1.34,8.82-1.8,13.16-3C97,63.34,101.83,62.12,106.62,60.87Z"/><path class="cls-1" d="M66.78,75.15c1.34-1.41,3.33-1.46,5-1.79,4.3-.87,8.5-2.1,12.8-3,4.56-.92,9.09-2.16,13.61-3.37a29.24,29.24,0,0,1,7.8-1.47,1.83,1.83,0,0,0,1.57-1c.44,1.17-.84,2.61.65,3.7.27.2-.33,1-.92.5-1.31-1-1.91-.06-2.57.83a9.54,9.54,0,0,0-4.31.9c-.76.15-1.58-1-2.31.1a1.54,1.54,0,0,1-2.36.62c-.59-.37-1,0-1.27.43-.66.94-1.32,1.52-2.39.53-.28-.26-.68-.41-.94,0-.94,1.32-2,1.68-3.36.58-1,2.26-3.19.71-4.59,1.51-.81.47-1.35,1.29-2.36.44-.16-.13-.7-.12-.75,0-.79,1.61-2.1,1.15-3.41,1-.6-.08-.9.64-1.3,1-1.51.53-3.44-.52-4.62,1.23-1.6-1.78-2.45.24-3.73.79C66.69,77.45,69,76.1,66.78,75.15Z"/><path class="cls-1" d="M105.15,54.09c-2.87-.53-5.41.85-8.09,1.42-3.37.72-6.66,1.76-10.06,2.35-2.66.46-5.28,1.14-7.91,1.74-2.44.56-4.89,1.13-7.32,1.75-2.67.68-5.32,1.43-8,2.15.25-1.33,1.36-2.92-1.06-3.44-.07,0-.14-.4-.08-.57.12-.32.41-.35.7-.19,1.11.63,2.17,1.28,3-.48.19-.43,1-.28,1.42-.09.91.39,1.65.47,2.15-.58a.79.79,0,0,1,.93-.38c1.14.25,2.23.52,2.94-.85.09-.17.87-.17,1.21,0,1,.51,1.83.62,2.54-.49a1,1,0,0,1,1.36-.36c1.07.59,1.9.54,2.44-.68,0-.06.07-.12.1-.19,2,1.65,3.42-1.36,5.29-.7a1.09,1.09,0,0,0,1.47-.5c.3-.54.67-.76,1.22-.57,1.23.42,2.28.47,3.11-.81.24-.36.95-.21,1.43,0,.83.35,1.5.34,1.92-.64a.6.6,0,0,1,.93-.22c2.21,2,2.41-.39,3.23-1.42.67.16,1.22.74,2,.64.53-.13,1-.3.64-1l0,0c.52.21.61,0,.46-.46v.06c.29.37,1.42,0,1.06.61C103,52,104.77,52.83,105.15,54.09Zm-12.75.5a1,1,0,0,0,.9,1c.51,0,.74-.42.84-.84.15-.66-.35-.95-.85-1S92.54,54.07,92.4,54.59Z"/><path class="cls-1" d="M106.62,60.87c-4.79,1.25-9.59,2.47-14.37,3.76-4.34,1.17-8.84,1.63-13.16,3-2.24.7-4.8.36-6.89,1.81-.83-1.21-1.53-1.15-2.13.19a14.42,14.42,0,0,1-4.93,1c.36-1,1.47-2.09-.14-3,1.84-1.25,4.09-1.48,6.12-1.9,4.24-.88,8.4-2.07,12.64-2.88,5.72-1.09,11.31-2.68,17-4,1.6-.38,3.77.08,4.9-1.82a.75.75,0,0,1,.36,1.23C105.06,59.42,105.68,60.16,106.62,60.87Z"/><path class="cls-1" d="M23.38,42.61c-.84-.43-.56-1.23-.61-1.91-.14-1.82.42-3.74-.73-5.44a.94.94,0,0,1,0-.83c1.17-2-.17-2-1.52-2a1.45,1.45,0,0,1-1.49-1,.75.75,0,0,1,.27-.95,1.18,1.18,0,0,1,1.73.11c1.14,1.12,1.67,0,2.34-.62A115.82,115.82,0,0,1,23.38,42.61Z"/><path class="cls-1" d="M101.77,34.91c-2,4-1.23,8.3-1.32,12.53-.47-4-1.31-7.95.23-11.87a1.3,1.3,0,0,1,.91-.85A.88.88,0,0,1,101.77,34.91Z"/><path class="cls-1" d="M66.35,139.88a1,1,0,0,1,1,1.23c-.07,1.77-2.13.82-2.69,1.93-.57-.49-.17-1.14-.28-1.7C64,139.31,66.19,141,66.35,139.88Z"/><path class="cls-1" d="M69.26,143c.25-1-.83-2.39.53-2.65.5-.1,1.76-1.21,2.15,0C72.64,142.62,70,141.94,69.26,143Z"/><path class="cls-1" d="M23.38,53a4.15,4.15,0,0,1,0-4.79Z"/><path class="cls-1" d="M102,51c-.76.1-1.3-.47-2-.64.53-1.39,2.62-.69,2.84-2.45.72.69,0,1.22.22,1.73v-.06l-.46.46,0,0Z"/><path class="cls-1" d="M104.39,39.63c.33,1.88.73,3.76-.54,5.51Z"/><path class="cls-1" d="M109.08,141c.83.6,1.19-.39,1.75-.68.63.89.3,1.76.27,2.68.18-1.65-2.24-.3-2.05-2Z"/><path class="cls-1" d="M23.42,66a2.88,2.88,0,0,1,0-3.92Z"/><path class="cls-1" d="M118.16,140.64c-.18-1.86.8-1.35,1.87-1-.45.86-1.47.22-1.84.93Z"/><path class="cls-1" d="M109.05,141.09c-.67.51-.22,1.34-.63,2.07a2.9,2.9,0,0,1-.08-2.37c.33-.75.57-.11.74.25Z"/><path class="cls-1" d="M23.44,56.93c-1-.72-1-1.45,0-2.19Z"/><path class="cls-1" d="M23.42,46.08q-1.36-.87,0-1.75Z"/><path class="cls-1" d="M101.58,34.72c.63-1.18,1.11-.53,1.7,0-.57.53-1.06-.06-1.52.14A.89.89,0,0,0,101.58,34.72Z"/><path class="cls-1" d="M23.42,60.83c-.9-.57-.9-1.15,0-1.75A2.78,2.78,0,0,1,23.42,60.83Z"/><path class="cls-1" d="M103.83,124l-.6-.76c.16-.09.35-.28.49-.24.64.14.55.69.57,1.17Z"/><path class="cls-1" d="M71.69,116.32l.66.33-.16.3-.57-.45,0-.11Z"/><path class="cls-1" d="M23.76,27.06a4,4,0,0,1-.33-.46s.15-.14.24-.21l.38.62-.14.09Z"/><path class="cls-1" d="M72.12,127.6l-.17-.47.29.14A.44.44,0,0,1,72.12,127.6Z"/><path class="cls-1" d="M138.34,27.33a1.45,1.45,0,0,1,1.32,0Z"/><path class="cls-1" d="M119.92,142.34c.1.15.2.31.29.46l-.15.1-.18-.53Z"/><path class="cls-1" d="M118.62,141l.44.44,0,0-.44-.44Z"/><path class="cls-1" d="M119.46,141.95l-.43-.44,0,0,.44.43Z"/><path class="cls-1" d="M119.88,142.38l-.43-.43,0,0,.43.43Z"/><path class="cls-1" d="M118.59,141.07l-.43-.42,0,0,.43.43Z"/><path class="cls-1" d="M10.29,18.77a1.15,1.15,0,0,1,1.1,1.32c0,5,0,10,.1,15.05.08,4.66.3,9.31.36,14,0,1.08.07,2.34-1.14,3q-.23-15.38-.45-30.76C10.25,20.52,10.28,19.64,10.29,18.77Z"/><path class="cls-1" d="M10.86,71.22a1.15,1.15,0,0,1,.61,1.26,45.4,45.4,0,0,0,.83,10.66A2.11,2.11,0,0,1,11,85.57,135,135,0,0,1,10.86,71.22Z"/><path class="cls-1" d="M10.81,65.14c1-.06,1.6.34,1.54,1.47s.19,2.39-1.53,2.47A14.13,14.13,0,0,1,10.81,65.14Z"/><path class="cls-1" d="M10.32,15.71c1,.59,1,1.17,0,1.75Z"/><path class="cls-1" d="M11.05,13.27a.81.81,0,0,1-.77.71C10.09,13.26,10.39,13.07,11.05,13.27Z"/><path class="cls-1" d="M10.75,58.21c.29.07.61.17.5.54,0,.15-.32.23-.5.34Z"/><path class="cls-1" d="M20.75,88l-.32-.34a1.71,1.71,0,0,1,.45-.28c.08,0,.27.12.3.21C21.25,87.88,21.08,88,20.75,88Z"/><path class="cls-1" d="M75.32,76.63c.4-.4.69-1.11,1.3-1,1.31.17,2.62.63,3.41-1,0-.1.6-.12.75,0,1,.86,1.55,0,2.36-.44,1.39-.8,3.61.76,4.59-1.51,1.34,1.1,2.41.73,3.36-.58.26-.36.66-.21.94,0,1.06,1,1.73.41,2.39-.53.28-.39.68-.8,1.27-.43A1.54,1.54,0,0,0,98,70.58c.73-1.13,1.54,0,2.31-.1.14.74.84.94,1.32,1.35.28.24.63.54.3.88-2,2,0,2.37,1.27,3.09-.87,1.18-2.16,2.42.15,3.45.17.08.28.31.42.47-2.51,1.74,1.77,3.51,0,5.31-.19.19.14.8.58,1,1.17.65,1.58,1.38.37,2.44-.76.67,0,1,.46,1.25,1,.48,1.27,1,.59,2-1.18,1.75,1.33,1.67,1.45,2.77.1.92-2.33,1.78-.07,2.81.47.21.55.55.43,1.2s-.45,1.78.8,2.46c1,.52.31,1.6-.32,2.2s-.65,2.44-2.28,1.45c-.91-.55-1.52-.58-2,.5-.41.87-1.16.63-1.87.34-.41-.17-.87-.78-1.29-.11-.32.5.18.78.51,1,1.58,1.08.37,2.22,0,3.22-.54,1.42-1.53.47-2.34.17-.34-.12-.67-.42-.95,0s.11.78.46,1c1.09.69,1.9,1.4.45,2.55-.14.11-.16.39-.23.59,2.49.86.15,3.75,2.16,5,1,.6-.37,1.59-.65,2.4s-.77,1.34-1.65.92a1.92,1.92,0,0,0-2.48.6,1,1,0,0,1-1.36.26,1.5,1.5,0,0,0-2.33.61c-.33.56-.84.49-1.33.27a1.6,1.6,0,0,0-2.12.46c-1,1.33-2,.46-2.83,0s-1.69-1.47-.63-2.65a1.09,1.09,0,0,0,.25-.55c-1.42-1.09-1.31-2.42-1-4,.13-.63-.74-.28-1,.21-1,2.11-2.12.46-3.15.13-1.25-.4-1.12-1.28-.55-2.24.22-.37.4-.95,0-1.16-.73-.35-.74.42-.93.83-.88,1.87-1.79.25-2.58-.05s-2.2-.83-1.21-2.14c.71-.94.83-3.07,3-1.91.67.35.91-.51.5-.88-.83-.73-1.23-1.31-.4-2.32s1.52-2.06,3.05-1.23c.07,0,.25-.11.48-.22-.71-1-1.63-1.91-.61-3.17.08-.1.15-.36.1-.4-1.54-1.16-.87-2.86-1.22-4.31-.23-1-1.37-1.72-.58-3,.21-.33-.11-.71-.43-.89-1-.56-1.27-1.25-.57-2.25a1.55,1.55,0,0,0,.17-.79c-2.85-1,0-4.16-2.11-5.37,1.52-2-2-3.48-.47-5.48.22-.28,0-.76-.31-.95C74.34,78.79,74.91,77.71,75.32,76.63Zm11.76,9.21c1,0,1.66,1.53,2.91.87.07-1.14-1.29-1.33-1.47-2.28.64-.95,2.14-.78,2.71-1.94a2.55,2.55,0,0,0-3.11.24.63.63,0,0,1-1-.07c-.11-.15,0-.53.15-.77.39-.87,1.3-1.6.81-2.76-1.27.15-1.45,1.54-2.41,2.06-1-.84-.68-2.4-1.91-3-.88.94.13,2.12-.45,3.12-1,.09-2.08-1.14-3.18,0,.9,1,2.31,1.23,3.16,2.48l-3.68.9c-.38.09-.72.23-.63.69s.49.42.86.36a6.24,6.24,0,0,1,3,0c-.25.58-.5,1.09-.69,1.62-.13.36-.66.78-.16,1.13s.85-.26,1.22-.54c.64-.5.67-1.64,1.85-1.74.19,1,.37,2,.54,3a.68.68,0,0,0,.72.65c.51,0,.49-.45.48-.79,0-.93-.13-1.87-.2-2.8Zm8.29,2.71c-.31,1.69,1.14,3,.53,4.71-.59-.36-1.06-.68-1.57-.94s-1.4-1.09-1.89-.48c-.73.9.67,1,1,1.53.2.36.74.5.68,1-.87.89-2.67.39-3.26,2,1.42.19,2.64-.4,3.88.1.1,1.14-1.37,1.92-.72,3.26,1.34-.32,1.65-1.9,2.68-2.32,1.15.72.14,2.87,1.64,2.71,1.22-.13.35-1.7.42-2.64,0-.11.17-.2.27-.31a3,3,0,0,1,.61.17c.66.35,1.61.71,2,.07.47-.88-.72-1-1.22-1.43-.26-.23-.54-.44-.81-.66.52-.76,1.36-.64,2-1,.37-.21,1.21,0,.93-.83a1,1,0,0,0-1.27-.53,3.67,3.67,0,0,1-2.16.11c.43-.81.83-1.49,1.15-2.19.18-.39.33-.88-.17-1.14s-.71.24-1,.55c-.53.56-.68,1.45-1.57,1.84C96.94,90.94,97,89.33,95.37,88.55Zm-.25,26.57c-.15-.34-.19-.59-.32-.7-1.61-1.3-2.48-2.45.51-3a.62.62,0,0,0,.19-.1c.39-.23.77-.52.49-1s-.6-.21-1-.09c-.86.29-1.73.55-2.72.86-.16-1.4,1.54-2.42.35-3.73-1.65,2.16-1.63,2.15-2.75.11-.25-.44-.36-1.32-1.12-1.06s-.2,1-.13,1.48c.2,1.3.46,2.52-1.54,1.45a1.63,1.63,0,0,0-1.88.21c.76.85,2,1.17,2.57,2.28l-.8.35c-.75.32-2.22.15-2.11,1,.14,1.08,1.44.18,2.2.4l.6.15c.24.67-.27,1.11-.46,1.63s-.52.83-.08,1.17.9-.15,1.27-.43a2.63,2.63,0,0,0,.59-.62c.79-1.19,1.25-1.18,1.68.28.18.61-.32,2,.94,1.7,1-.26.55-1.44.39-2.27-.06-.32-.37-.64.09-.93C93.09,114.41,93.77,115.54,95.11,115.12Z"/><path class="cls-1" d="M70.94,118.07c2.7.6,2.21,2.89,2.78,4.58.18.52-.46.63-.87.71-.7.13-1.08-.6-.94-.88C72.8,120.75,71.7,119.48,70.94,118.07Z"/><path class="cls-1" d="M106.07,113.24a11.37,11.37,0,0,0-1.74-1.78c-.36-.23-.91-.94-.37-1.45s1.19-.12,1.53.31A2.71,2.71,0,0,1,106.07,113.24Z"/><path class="cls-1" d="M105,105.75c.45.08.86.3.89.76a.8.8,0,0,1-.85.93c-.42,0-.64-.11-.7-.53A1.08,1.08,0,0,1,105,105.75Z"/><path class="cls-1" d="M102.47,112c0,.62-.29.74-.8.66s-.85-.15-.81-.73.17-1.06.81-1S102.31,111.59,102.47,112Z"/><path class="cls-1" d="M101.72,117.76c1.56.85,1.77,1.8,1.33,3.6Z"/><path class="cls-1" d="M77.9,119.3c-.44.63-.93.55-1.41.13-.22-.19-.3-.61,0-.68A1.22,1.22,0,0,1,77.9,119.3Z"/><path class="cls-1" d="M106.32,115.23l-.47.3c-.06-.12-.19-.29-.16-.34a1.84,1.84,0,0,1,.4-.36Z"/><path class="cls-1" d="M101.75,114.83l-.27-.21a1.91,1.91,0,0,1,.26-.21s.15.08.14.1A2.09,2.09,0,0,1,101.75,114.83Z"/><polygon class="cls-1" points="100.16 112.97 100.09 112.79 100.25 112.82 100.16 112.97"/><path class="cls-1" d="M70.08,69.61c.59-1.35,1.3-1.41,2.13-.19C71.62,70.83,70.84,70.17,70.08,69.61Z"/><path class="cls-1" d="M92.4,54.59c.14-.53.41-.93.89-.88s1,.34.85,1c-.09.42-.33.89-.84.84A1,1,0,0,1,92.4,54.59Z"/><path class="cls-1" d="M102,51l.64-1C102.95,50.67,102.49,50.85,102,51Z"/><path class="cls-1" d="M102.57,50l.46-.46C103.18,50,103.09,50.24,102.57,50Z"/><path class="cls-1" d="M95.37,88.55c1.65.78,1.57,2.39,2.08,3.66.9-.39,1-1.28,1.57-1.84.28-.3.46-.82,1-.55s.35.76.17,1.14c-.33.71-.72,1.38-1.15,2.19a3.67,3.67,0,0,0,2.16-.11,1,1,0,0,1,1.27.53c.28.81-.56.62-.93.83-.61.34-1.45.22-2,1,.27.22.55.43.81.66.49.43,1.68.56,1.22,1.43-.34.63-1.29.27-2-.07a3,3,0,0,0-.61-.17c-.1.11-.26.21-.27.31-.07.93.79,2.5-.42,2.64-1.49.16-.48-2-1.64-2.71-1,.41-1.34,2-2.68,2.32-.65-1.34.82-2.12.72-3.26-1.24-.49-2.46.1-3.88-.1.59-1.64,2.39-1.14,3.26-2,.05-.54-.48-.68-.68-1-.31-.55-1.72-.62-1-1.53.49-.61,1.28.17,1.89.48s1,.58,1.57.94C96.5,91.59,95.06,90.24,95.37,88.55Z"/><path class="cls-1" d="M86.68,86.19c.07.93.15,1.86.2,2.8,0,.34,0,.77-.48.79a.68.68,0,0,1-.72-.65c-.18-1-.36-2-.54-3-1.17.1-1.2,1.24-1.85,1.74-.37.29-.63,1-1.22.54s0-.77.16-1.13c.19-.53.44-1,.69-1.62a6.24,6.24,0,0,0-3,0c-.37.06-.76.13-.86-.36s.25-.6.63-.69l3.68-.9c-.86-1.25-2.27-1.5-3.16-2.48,1.11-1.1,2.16.12,3.18,0,.57-1-.43-2.17.45-3.12,1.22.65.94,2.21,1.91,3,1-.52,1.14-1.91,2.41-2.06.49,1.17-.41,1.89-.81,2.76-.11.24-.26.63-.15.77a.63.63,0,0,0,1,.07,2.55,2.55,0,0,1,3.11-.24c-.57,1.16-2.06,1-2.71,1.94.19,1,1.54,1.14,1.47,2.28-1.25.66-1.88-.82-2.91-.87l-.34-.2Z"/><path class="cls-1" d="M95.11,115.12c-1.34.42-2-.71-3-.79-.46.28-.16.61-.09.93.17.83.62,2-.39,2.27-1.26.32-.76-1.09-.94-1.7-.43-1.46-.9-1.47-1.68-.28a2.63,2.63,0,0,1-.59.62c-.37.28-.73.86-1.27.43s-.06-.78.08-1.17.69-1,.46-1.63l-.6-.15c-.76-.22-2.06.68-2.2-.4-.11-.88,1.36-.71,2.11-1l.8-.35c-.6-1.11-1.81-1.43-2.57-2.28a1.63,1.63,0,0,1,1.88-.21c2,1.08,1.74-.15,1.54-1.45-.07-.48-.73-1.19.13-1.48s.88.62,1.12,1.06c1.13,2,1.1,2,2.75-.11,1.18,1.3-.51,2.33-.35,3.73,1-.31,1.87-.57,2.72-.86.35-.12.74-.29,1,.09s-.1.78-.49,1a.62.62,0,0,1-.19.1c-3,.51-2.11,1.66-.51,3C94.93,114.54,95,114.78,95.11,115.12Z"/><path class="cls-1" d="M86.68,86.19l0-.55.34.2Z"/><path class="cls-2" d="M142.62,31.32h1.56l1.58,0c0,.46,0,.91,0,1.37q.18,54.89.35,109.78a25.68,25.68,0,0,1,0,5.06c-22.39.51-44.8.06-67.19.48-15.82.3-31.64.08-47.45.32-1.56.23-2-.46-2-2,.09-2.14,0-4.3-.08-6.44.33-7.08.1-14.17.1-21.26,0-10-.09-19.9-.15-29.85q.23-11.31,0-22.62l0-3.54V61.48a2.51,2.51,0,0,0,0-1.58l0-1.94,0-2,0-1.55,0-4.32V46.59l0-1.55a104.49,104.49,0,0,0,0-11.37L29.67,31l.14,0,.12-.08c.78,0,1.56.09,2.34.1q36.43,0,72.85.05c9.31,0,18.61.09,27.92.14l1.19,0a15.87,15.87,0,0,1,3.84,0ZM116,134.66l.38.39.16.48.13-.09c-.08-.14-.17-.28-.26-.42l-.39-.39-.39-.39-.4-.39-.38-.39c.33-.64,1.25-.06,1.66-.84-1-.35-1.85-.81-1.69.87l.39.38.39.4Zm-9.36-.82c-.15-.33-.37-.9-.66-.23a2.62,2.62,0,0,0,.07,2.13c.37-.66,0-1.41.56-1.87-.18,1.49,2,.27,1.85,1.76,0-.83.32-1.62-.24-2.42C107.71,133.49,107.39,134.38,106.64,133.84ZM99.87,37.93a1.17,1.17,0,0,0-.82.76c-1.39,3.54-.63,7.12-.2,10.71.08-3.81-.65-7.69,1.19-11.3.42-.18.85.36,1.37-.12C100.87,37.45,100.45,36.86,99.87,37.93ZM98.44,52c-.75.93-.93,3.12-2.92,1.28a.54.54,0,0,0-.84.2c-.38.88-1,.89-1.73.58-.43-.18-1.08-.31-1.29,0-.75,1.16-1.7,1.11-2.81.73-.49-.17-.83,0-1.1.51a1,1,0,0,1-1.32.45c-1.68-.6-3,2.11-4.77.63l-.09.17c-.49,1.1-1.23,1.14-2.2.61a.94.94,0,0,0-1.23.32c-.64,1-1.38.91-2.29.44-.3-.15-1-.16-1.09,0-.64,1.23-1.62,1-2.65.76a.72.72,0,0,0-.84.34c-.45.94-1.11.87-1.94.52-.39-.17-1.11-.3-1.28.08-.71,1.59-1.67,1-2.67.43-.26-.15-.52-.12-.63.17s0,.5.07.51c2.18.47,1.18,1.91,1,3.1.89.91,1.6,1.81.47,3.08-.27.3.16.66.63.64,1.45.85.44,1.8.12,2.73.1.22.13.52.3.65.94.72,1.88,1.34.55,2.62-.41.39.08.78.62.79,2,.86-.08,2.08.17,3.16,1.16-.5,1.93-2.32,3.37-.71a3.14,3.14,0,0,1,.43.4c1,1.3,0,3.29,1.56,4.38-.84,1.12-.72,2,.62,2.62.45.21.32.65.11,1-1,1.69,2.17,3.12.31,4.87,0,0,.08.11.14.13,1.24.52,1.08,1.38.63,2.36a.69.69,0,0,0,.31,1c1.23.63.76,1.39.74,2.52a15.78,15.78,0,0,0,1,4.29c.19.61,1.51.9.75,2s-1.18,2.51-3,1.64c-.29-.14-.59-.62-1.14,0a13.18,13.18,0,0,0,1.36,1.22c.34.23.63.3.44.85A2.61,2.61,0,0,1,73,107.82c-.27-.08-.5-.18-.69,0a.43.43,0,0,0,.07.68c1.55.78,1.07,1.89.53,3l-.09.06,0,.1c-.66,1.5-2.09.12-3,.71.07.88,1.85.82,1.07,2s.2,1.58.38,2.34a43.63,43.63,0,0,0,1,4.66c.12.33-.9.89-.22,1.26s.91-.42,1.17-.92a.4.4,0,0,0,.11-.3c2.84.62,2.94.74,2.63,3.25,0,.36.27.83.42.62,1-1.43,2.15-1.35,3.53-.8.1,0,.4-.46.62-.69s.72-.83,1.3-.31,1.15,0,1.55-.26c1.46-1,3.52-.06,4.82-1.53.06-.07.4,0,.54.11.81.59,1.45.28,2.05-.34a1.17,1.17,0,0,1,1.56-.33c.41.24.93.42,1.22-.07,1.06-1.81,3.59,0,4.59-1.92,1.54,1.46,2.5-.12,3.66-.7l.42.15c.38.17.72.74,1.17.23a.67.67,0,0,0-.24-1c-1.23-.81-.51-1.72-.12-2.54s1-1.34,2-.58a1,1,0,0,0,.92-.08,3.28,3.28,0,0,1,3.39-.61,5.3,5.3,0,0,1-.57-3.19,1.44,1.44,0,0,0-.65-1.3c-1.16-1.13-.07-2,.28-2.9.44-1.18,1.16-.63,1.84-.25.3.17.66.24.89,0a.59.59,0,0,0-.21-.85,1.56,1.56,0,0,1-.47-2.46c.31-.47-.23-.82-.62-1-.67-.37-.82-.74-.52-1.55.64-1.74-1-3.2-.83-5a21,21,0,0,0-.48-2.34c-.19-1.41-1-2.79-.94-4.32,0,0-.08-.1-.14-.13-.74-.45-.45-1.1-.54-1.77-.22-1.54-1.23-2.89-1-4.66,0-.33-.61-1.2-.57-2.18.06-1.42-1.45-2.7-.68-4.36,0-.1-.29-.41-.49-.57-.43-.35-.76-.66-.39-1.29a1.59,1.59,0,0,0-.5-1.93c-.84-.84-.59-1.6-.2-2.46.6-.79,1.13-1.67,2.32-.74.54.42,1.07-.27.83-.45-1.34-1-.19-2.28-.58-3.34-1.57-.79-.26-2.28-.81-3.32-.84-.64-1.41-1.31-.57-2.4a.67.67,0,0,0-.32-1.11c-1.32-.68-.45-1.72-.43-2.61-.34-1.14-1.94-1.87-.94-3.49.33-.53-.7-.22-1-.55s.45-.94-.2-1.56C100.8,51.39,98.91,50.76,98.44,52ZM68.08,132.8c-.14,1-2.1-.52-1.75,1.31.1.51-.26,1.09.25,1.54.51-1,2.36-.14,2.43-1.74A.93.93,0,0,0,68.08,132.8Zm2.63,2.83c.67-1,3.05-.36,2.42-2.36-.35-1.12-1.49-.12-1.94,0C70,133.47,70.94,134.76,70.71,135.63ZM102.4,42.36l-.49,5C103.06,45.75,102.7,44.05,102.4,42.36Z"/><path class="cls-3" d="M18,65.37l0-5.46c.16-.1.41-.17.45-.31.1-.34-.19-.42-.45-.49l0-5.46c1.1-.63,1-1.77,1-2.74-.05-4.2-.25-8.4-.32-12.6-.08-4.53-.09-9.05-.09-13.58a1,1,0,0,0-1-1.19l0-1.19c.95-.52.94-1,0-1.58l0-1.55a.73.73,0,0,0,.69-.64l1.95-.23q20.71,0,41.43.07,35.18,0,70.36,0c1.36,0,2.73.14,4.09.21l.56.11.43-.2,1.48.85q0,1.63,0,3.27a27.85,27.85,0,0,0,0,6.8c-.18.6.13,1.3-.4,1.82a15.88,15.88,0,0,0-3.84,0,1.31,1.31,0,0,0-1.19,0c-9.31-.05-18.61-.13-27.92-.14q-36.43,0-72.85-.05c-.78,0-1.56-.06-2.34-.1l-.34-.56c-.08.07-.23.17-.22.19a3.62,3.62,0,0,0,.3.41l-.36,2.67c-.61.55-1.08,1.57-2.11.56a1.06,1.06,0,0,0-1.56-.1.67.67,0,0,0-.24.85,1.31,1.31,0,0,0,1.34.88c1.21,0,2.42,0,1.37,1.8a.84.84,0,0,0,0,.74c1,1.53.54,3.26.66,4.91,0,.62-.21,1.33.55,1.72l0,1.55q-1.22.8,0,1.58v1.94a3.75,3.75,0,0,0,0,4.32l0,1.55c-.88.66-.89,1.32,0,2l0,1.94c-.78.54-.78,1.07,0,1.58v1.16a2.6,2.6,0,0,0,0,3.54q.26,11.31,0,22.62c-1.82.94-2.7-.28-3.27-1.63-.38-.89-.71-1.2-1.53-.7s-2,1-.17,1.89c.52.25,1.18.69,1,1.5-.09.36-.44.38-.78.43-2.26.31-2.39.62-1,2.41.37.46,1.09.93.57,1.43-1,1-.54,1.4.17,2.31s.91,2.06,2,2.68a.47.47,0,0,1,0,.82,6.93,6.93,0,0,0-1.82,2,1.05,1.05,0,0,1-1.58,0c-.65-.73.16-.75.58-1,.6-.29.49-.68.08-1.07s-.82-.65-.45-.9c1.46-1-.07-1.26-.41-1.77-.49-.73-1.39-1.34-.53-2.35s.94-1.74-.62-2.21a9.62,9.62,0,0,1-2.06-1.41c-.37-.24-.38-.43-.13-.76,1.47-2-.46-3-1.27-4.32l0-2.31a1.9,1.9,0,0,0,1.18-2.19A41,41,0,0,1,18.58,72,1,1,0,0,0,18,70.85l0-1.93c1.55-.07,1.33-1.21,1.38-2.23S18.92,65.32,18,65.37ZM27,86c.29,0,.45-.14.38-.37s-.2-.21-.27-.19a1.54,1.54,0,0,0-.4.26Z"/><path class="cls-4" d="M146.14,147.54a25.68,25.68,0,0,0,0-5.06Q146,87.6,145.8,32.71c0-.46,0-.91,0-1.37l1.16-.37A4,4,0,0,1,148,34c-.07,5.63.07,11.27.08,16.9,0,6.28-.22,12.57,0,18.83.67,18.49-.07,37,.48,55.45.18,6.1.27,12.2.39,18.31a13.58,13.58,0,0,1-.57,3.25C148.1,148.06,147.32,148.46,146.14,147.54Z"/><path class="cls-5" d="M93.52,17.59l-.18.24a1.66,1.66,0,0,1-.19-.23s.07-.13.09-.13A1.83,1.83,0,0,1,93.52,17.59Z"/><path class="cls-5" d="M137,18.52l-.43.2a2.8,2.8,0,0,0-.15-.3Z"/><path class="cls-6" d="M136.44,18.42a2.8,2.8,0,0,1,.15.3l-.56-.11Z"/><path class="cls-6" d="M102.64,69.37c-.38.85-.63,1.61.21,2.45a1.59,1.59,0,0,1,.5,1.93c-.37.63,0,.94.39,1.29.2.16.53.47.49.57-.77,1.65.74,2.94.68,4.36,0,1,.62,1.85.57,2.18-.26,1.77.75,3.12,1,4.66.1.67-.2,1.32.54,1.77.05,0,.14.09.14.13,0,1.53.76,2.91.94,4.32a21,21,0,0,1,.48,2.34c-.18,1.84,1.47,3.31.83,5-.3.81-.15,1.18.52,1.55.39.22.94.57.62,1a1.56,1.56,0,0,0,.47,2.46.59.59,0,0,1,.21.85c-.23.29-.59.22-.89,0-.68-.38-1.4-.93-1.84.25-.35.93-1.45,1.77-.28,2.9a1.44,1.44,0,0,1,.65,1.3,5.3,5.3,0,0,0,.57,3.19,3.28,3.28,0,0,0-3.39.61,1,1,0,0,1-.92.08c-1-.76-1.58-.28-2,.58s-1.11,1.74.12,2.54a.67.67,0,0,1,.24,1c-.45.51-.79-.06-1.17-.23,0-.43.06-.92-.52-1.05-.12,0-.29.14-.44.22l.54.68c-1.15.58-2.12,2.16-3.66.7-1,1.87-3.53.11-4.59,1.92-.29.49-.81.31-1.22.07a1.17,1.17,0,0,0-1.56.33c-.61.62-1.24.93-2.05.34-.14-.1-.48-.18-.54-.11-1.3,1.47-3.35.54-4.82,1.53-.41.27-.93.83-1.55.26s-.93-.07-1.3.31-.52.73-.62.69c-1.38-.54-2.57-.63-3.53.8-.14.21-.46-.25-.42-.62.31-2.51.22-2.63-2.63-3.25l-.27-.13.16.43c-.26.49-.55,1.25-1.17.92s.34-.93.22-1.26a43.63,43.63,0,0,1-1-4.66c-.19-.76-1.13-1.24-.38-2.34s-1-1.08-1.07-2c.89-.58,2.31.79,3-.71l.51.41.15-.27-.6-.29c.54-1.13,1-2.24-.53-3a.43.43,0,0,1-.07-.68c.19-.21.42-.1.69,0a2.61,2.61,0,0,0,3.32-1.74c.19-.55-.1-.62-.44-.85A13.18,13.18,0,0,1,74.5,104c.55-.59.85-.12,1.14,0,1.79.88,2.26-.64,3-1.64s-.57-1.35-.75-2a15.78,15.78,0,0,1-1-4.29c0-1.13.49-1.89-.74-2.52a.69.69,0,0,1-.31-1c.45-1,.61-1.85-.63-2.36-.06,0-.09-.09-.14-.13,1.85-1.75-1.28-3.18-.31-4.87.21-.36.34-.81-.11-1-1.34-.63-1.47-1.5-.62-2.62-1.57-1.09-.59-3.08-1.56-4.38a3.14,3.14,0,0,0-.43-.4c1.07-1.58,2.81-.63,4.17-1.11-.37,1-.88,1.95.4,2.69.29.17.48.61.28.85-1.42,1.8,1.8,3.18.42,4.94,1.91,1.1-.67,4,1.9,4.85a1.4,1.4,0,0,1-.15.71c-.63.9-.37,1.52.52,2,.28.16.57.5.39.8-.71,1.15.31,1.81.52,2.69.31,1.31-.29,2.84,1.1,3.89,0,0,0,.27-.09.36-.91,1.14-.09,2,.55,2.86-.21.1-.37.24-.43.2-1.38-.75-2,.2-2.75,1.11s-.38,1.44.36,2.1c.37.33.15,1.11-.45.79-2-1-2.1.87-2.74,1.72-.89,1.18.31,1.62,1.09,1.93s1.53,1.73,2.32,0c.17-.37.18-1.06.84-.75.41.2.24.72,0,1.05-.51.86-.63,1.65.5,2,.92.3,2,1.79,2.84-.12.2-.43,1-.76.87-.19-.29,1.44-.39,2.64.89,3.62a1,1,0,0,1-.22.5c-1,1.07-.22,1.92.57,2.39s1.67,1.2,2.55,0a1.44,1.44,0,0,1,1.91-.41c.44.2.91.26,1.2-.25a1.35,1.35,0,0,1,2.11-.55.92.92,0,0,0,1.22-.23,1.73,1.73,0,0,1,2.24-.54c.8.38,1.28-.21,1.49-.83s1.45-1.62.58-2.16c-1.81-1.14.29-3.74-1.95-4.52.07-.18.08-.43.21-.53,1.31-1,.58-1.67-.4-2.3-.32-.2-.74-.43-.41-.9s.55-.09.85,0c.73.26,1.62,1.12,2.11-.16.34-.9,1.43-1.94,0-2.91-.3-.2-.75-.46-.46-.91.39-.6.8,0,1.17.1.64.27,1.32.49,1.69-.3.46-1,1-.95,1.83-.45,1.47.89,1.47-.75,2.05-1.31s1.15-1.51.29-2c-1.13-.61-.86-1.51-.72-2.22s0-.89-.38-1.09c-2-.93.16-1.7.07-2.53-.11-1-2.37-.92-1.31-2.5.61-.9.35-1.38-.53-1.81-.43-.21-1.1-.53-.42-1.13,1.08-1,.72-1.62-.34-2.2-.39-.22-.69-.77-.52-.94,1.6-1.62-2.25-3.22,0-4.79-.12-.14-.22-.35-.38-.42-2.09-.93-.93-2-.14-3.11-1.16-.65-2.91-1-1.14-2.79.3-.31,0-.58-.27-.79-.43-.37-1.06-.55-1.19-1.22A8.55,8.55,0,0,1,102.64,69.37ZM72.23,113.11c.68,1.28,1.68,2.42.87,4-.13.25.22.91.85.79.37-.07.94-.17.79-.64C74.22,115.72,74.66,113.66,72.23,113.11Zm31.69-4.35a2.45,2.45,0,0,0-.53-2.64c-.31-.38-1-.68-1.38-.28s0,1.1.34,1.31A10.26,10.26,0,0,1,103.92,108.76ZM103,102a1,1,0,0,0-.6,1c.05.38.25.49.63.48a.72.72,0,0,0,.77-.84C103.74,102.27,103.37,102.07,103,102Zm-2.29,5.65c-.14-.38-.2-.92-.72-1s-.69.44-.73.9.33.59.73.65S100.69,108.21,100.67,107.65Zm-.68,5.19,1.2,3.25C101.6,114.46,101.4,113.61,100,112.84Zm-21.49,1.39a1.1,1.1,0,0,0-1.26-.5c-.28.06-.2.44,0,.61C77.67,114.72,78.11,114.8,78.51,114.23Zm25.63-3.67-.2-.36a1.66,1.66,0,0,0-.37.32c0,.05.09.2.14.31ZM100,110.2a1.94,1.94,0,0,0,.12-.29s-.11-.1-.13-.09a1.72,1.72,0,0,0-.23.19Zm-1.44-1.68.09-.14-.14,0Z"/><path class="cls-6" d="M18.16,86.11c.81,1.33,2.74,2.33,1.27,4.32-.24.33-.24.52.13.76a9.62,9.62,0,0,0,2.06,1.41c1.55.47,1.51,1.15.62,2.21s0,1.62.53,2.35c.34.51,1.87.75.41,1.77-.36.25.19.64.45.9s.51.77-.08,1.07c-.42.21-1.23.23-.58,1a1.05,1.05,0,0,0,1.58,0,6.93,6.93,0,0,1,1.82-2,.47.47,0,0,0,0-.82c-1.09-.62-1.33-1.81-2-2.68s-1.16-1.34-.17-2.31c.52-.5-.21-1-.57-1.43-1.43-1.79-1.3-2.1,1-2.41.34,0,.69-.07.78-.43.2-.81-.46-1.25-1-1.5-1.81-.86-.67-1.37.17-1.89s1.15-.19,1.53.7c.57,1.34,1.45,2.57,3.27,1.63.05,10,.16,19.9.15,29.85,0,7.09.22,14.17-.1,21.26-3.19,0-6.38,0-9.57.1-1,0-1.55-.06-1.55-1.33q-.09-26-.27-52A3,3,0,0,1,18.16,86.11Z"/><path class="cls-6" d="M66.88,67.61c-.47,0-.89-.34-.63-.64,1.12-1.28.41-2.17-.47-3.08,2.4-.65,4.79-1.32,7.2-1.94,2.19-.56,4.4-1.07,6.6-1.58,2.38-.55,4.74-1.16,7.14-1.57,3.07-.53,6-1.46,9.08-2.12,2.42-.52,4.71-1.76,7.3-1.28,0,.9-.89,1.93.42,2.61-1,1.71-3,1.3-4.42,1.64C94,60.88,89,62.31,83.8,63.3c-3.82.73-7.58,1.8-11.4,2.6C70.57,66.28,68.54,66.48,66.88,67.61Z"/><path class="cls-6" d="M104.42,61.52c.54,1-.76,2.53.81,3.32a1.65,1.65,0,0,1-1.41.9,26.37,26.37,0,0,0-7,1.33c-4.07,1.1-8.17,2.22-12.28,3-3.88.78-7.67,1.89-11.55,2.67-1.46.3-3.25.35-4.47,1.62-.55,0-1-.4-.62-.79,1.33-1.27.39-1.89-.55-2.62-.17-.13-.2-.43-.3-.65a13,13,0,0,0,4.45-.94c.69.51,1.39,1.1,1.92-.17,1.88-1.31,4.19-1,6.21-1.63,3.9-1.21,8-1.63,11.87-2.68C95.77,63.74,100.09,62.65,104.42,61.52Z"/><path class="cls-4" d="M68.48,74.39c1.21-1.27,3-1.32,4.47-1.62,3.88-.78,7.67-1.89,11.55-2.67,4.11-.83,8.2-1.95,12.28-3a26.37,26.37,0,0,1,7-1.33,1.65,1.65,0,0,0,1.41-.9c.39,1.06-.76,2.36.58,3.34.24.18-.3.87-.83.45-1.19-.93-1.72-.05-2.32.75a8.61,8.61,0,0,0-3.89.81c-.69.13-1.42-.92-2.08.09a1.39,1.39,0,0,1-2.13.56c-.53-.33-.9,0-1.15.39-.59.84-1.19,1.37-2.15.47-.25-.23-.61-.37-.84,0-.85,1.19-1.82,1.52-3,.52-.88,2-2.88.64-4.14,1.36-.73.42-1.22,1.17-2.13.4-.14-.12-.64-.11-.68,0-.71,1.45-1.89,1-3.07.89-.54-.07-.81.57-1.17.93-1.36.48-3.1-.47-4.17,1.11-1.44-1.61-2.21.21-3.37.71C68.4,76.48,70.44,75.25,68.48,74.39Z"/><path class="cls-4" d="M103.09,55.4c-2.59-.48-4.88.76-7.3,1.28-3,.65-6,1.59-9.08,2.12-2.4.41-4.76,1-7.14,1.57-2.21.51-4.41,1-6.6,1.58-2.41.61-4.8,1.29-7.2,1.94.22-1.2,1.23-2.63-1-3.1-.06,0-.13-.36-.07-.51s.37-.32.63-.17c1,.57,2,1.16,2.67-.43.17-.38.88-.25,1.28-.08.83.35,1.49.42,1.94-.52a.72.72,0,0,1,.84-.34c1,.23,2,.47,2.65-.76.08-.16.79-.15,1.09,0,.92.46,1.65.56,2.29-.44a.94.94,0,0,1,1.23-.32c1,.53,1.71.49,2.2-.61l.09-.17c1.82,1.48,3.09-1.23,4.77-.63a1,1,0,0,0,1.32-.45c.27-.48.61-.68,1.1-.51,1.11.38,2.05.43,2.81-.73.21-.33.86-.19,1.29,0,.75.32,1.36.31,1.73-.58a.54.54,0,0,1,.84-.2c2,1.84,2.17-.35,2.92-1.28.61.15,1.1.66,1.78.57.48-.11.89-.27.58-.89l0,0c.47.19.55,0,.42-.42v.05c.26.33,1.28,0,1,.55C101.15,53.53,102.75,54.26,103.09,55.4Zm-11.5.45a.87.87,0,0,0,.82.86c.46,0,.67-.38.75-.76.13-.59-.31-.85-.77-.9S91.72,55.38,91.59,55.85Z"/><path class="cls-4" d="M104.42,61.52c-4.32,1.13-8.65,2.23-13,3.39-3.92,1.06-8,1.47-11.87,2.68-2,.63-4.33.32-6.21,1.63-.74-1.09-1.38-1-1.92.17a13,13,0,0,1-4.45.94c.32-.93,1.32-1.88-.12-2.73,1.66-1.13,3.69-1.33,5.52-1.71C76.22,65.1,80,64,83.8,63.3c5.16-1,10.21-2.42,15.3-3.64,1.45-.35,3.4.07,4.42-1.64a.67.67,0,0,1,.32,1.11C103,60.21,103.57,60.88,104.42,61.52Z"/><path class="cls-6" d="M29.32,45c-.76-.39-.51-1.11-.55-1.72-.12-1.65.38-3.37-.66-4.91a.84.84,0,0,1,0-.74c1.05-1.76-.16-1.84-1.37-1.8A1.31,1.31,0,0,1,25.39,35a.67.67,0,0,1,.24-.85,1.06,1.06,0,0,1,1.56.1c1,1,1.5,0,2.11-.56A104.49,104.49,0,0,1,29.32,45Z"/><path class="cls-5" d="M100,38.1c-1.84,3.61-1.11,7.49-1.19,11.3-.43-3.59-1.18-7.17.2-10.71a1.17,1.17,0,0,1,.82-.76A.8.8,0,0,1,100,38.1Z"/><path class="cls-5" d="M68.08,132.8a.93.93,0,0,1,.93,1.11c-.07,1.59-1.92.74-2.43,1.74-.51-.44-.15-1-.25-1.54C66,132.28,67.94,133.78,68.08,132.8Z"/><path class="cls-5" d="M70.71,135.63c.22-.86-.75-2.16.48-2.4.45-.09,1.59-1.09,1.94,0C73.77,135.27,71.38,134.66,70.71,135.63Z"/><path class="cls-6" d="M29.32,54.44a3.75,3.75,0,0,1,0-4.32Z"/><path class="cls-5" d="M100.22,52.59c-.68.09-1.17-.43-1.78-.57.48-1.25,2.36-.62,2.56-2.21.65.62,0,1.1.2,1.56v-.05l-.42.42,0,0Z"/><path class="cls-5" d="M102.4,42.36c.29,1.69.66,3.39-.49,5Z"/><path class="cls-5" d="M106.64,133.84c.75.54,1.07-.35,1.58-.62.57.81.28,1.59.24,2.42.16-1.49-2-.27-1.85-1.76Z"/><path class="cls-6" d="M29.35,66.17a2.6,2.6,0,0,1,0-3.54Z"/><path class="cls-5" d="M114.83,133.48c-.16-1.68.72-1.21,1.69-.87-.41.78-1.33.19-1.66.84Z"/><path class="cls-5" d="M106.61,133.88c-.6.46-.2,1.21-.56,1.87a2.62,2.62,0,0,1-.07-2.13c.29-.68.51-.1.66.23Z"/><path class="cls-6" d="M29.37,58c-.9-.65-.9-1.31,0-2Z"/><path class="cls-6" d="M29.36,48.18q-1.23-.79,0-1.58Z"/><path class="cls-5" d="M99.87,37.93c.57-1.06,1-.48,1.53,0-.51.48-1-.05-1.37.13A.81.81,0,0,0,99.87,37.93Z"/><path class="cls-6" d="M29.36,61.48c-.82-.51-.81-1,0-1.58A2.51,2.51,0,0,1,29.36,61.48Z"/><path class="cls-3" d="M101.9,118.44l-.54-.68c.15-.08.32-.25.44-.22.58.13.49.63.52,1.05Z"/><path class="cls-3" d="M72.9,111.54l.6.29-.15.27-.51-.41,0-.1Z"/><path class="cls-6" d="M29.67,31a3.62,3.62,0,0,1-.3-.41s.14-.13.22-.19l.34.56-.12.08Z"/><path class="cls-3" d="M73.29,121.71l-.16-.43.27.13A.4.4,0,0,1,73.29,121.71Z"/><path class="cls-5" d="M133,31.26a1.31,1.31,0,0,1,1.19,0Z"/><path class="cls-5" d="M116.42,135c.09.14.18.28.26.42l-.13.09-.16-.48Z"/><path class="cls-5" d="M115.24,133.84l.4.39,0,0-.39-.4Z"/><path class="cls-5" d="M116,134.66l-.39-.39,0,0,.39.39Z"/><path class="cls-5" d="M116.38,135l-.38-.39,0,0,.39.39Z"/><path class="cls-5" d="M115.22,133.87l-.39-.38,0,0,.38.39Z"/><path class="cls-6" d="M17.51,23.53a1,1,0,0,1,1,1.19c0,4.53,0,9.06.09,13.58.07,4.2.27,8.4.32,12.6,0,1,.07,2.11-1,2.74q-.2-13.88-.4-27.75C17.47,25.11,17.5,24.32,17.51,23.53Z"/><path class="cls-6" d="M18,70.85A1,1,0,0,1,18.58,72a41,41,0,0,0,.74,9.62,1.9,1.9,0,0,1-1.18,2.19A121.75,121.75,0,0,1,18,70.85Z"/><path class="cls-6" d="M18,65.37c.93-.05,1.44.3,1.39,1.32s.17,2.16-1.38,2.23A12.74,12.74,0,0,1,18,65.37Z"/><path class="cls-6" d="M17.54,20.77c.94.53.94,1.06,0,1.58Z"/><path class="cls-6" d="M18.2,18.58a.73.73,0,0,1-.69.64C17.33,18.56,17.6,18.39,18.2,18.58Z"/><path class="cls-6" d="M17.93,59.12c.26.06.55.15.45.49,0,.14-.29.21-.45.31Z"/><path class="cls-6" d="M27,86l-.29-.31a1.54,1.54,0,0,1,.4-.26c.07,0,.24.1.27.19S27.24,86,27,86Z"/><path class="cls-2" d="M76.18,75.73c.36-.36.63-1,1.17-.93,1.18.16,2.36.57,3.07-.89,0-.09.54-.1.68,0,.92.77,1.4,0,2.13-.4,1.26-.72,3.26.68,4.14-1.36,1.21,1,2.18.66,3-.52.23-.32.59-.19.84,0,1,.89,1.56.37,2.15-.47.25-.35.61-.72,1.15-.39a1.39,1.39,0,0,0,2.13-.56c.66-1,1.39,0,2.08-.09.12.67.75.85,1.19,1.22.26.22.57.49.27.79-1.76,1.78,0,2.14,1.14,2.79-.79,1.06-2,2.18.14,3.11.16.07.25.28.38.42-2.26,1.57,1.6,3.17,0,4.79-.17.18.13.73.52.94,1.06.58,1.42,1.25.34,2.2-.68.6,0,.92.42,1.13.88.43,1.14.91.53,1.81-1.06,1.58,1.2,1.51,1.31,2.5.09.83-2.1,1.6-.07,2.53.42.19.49.5.38,1.09s-.41,1.61.72,2.22c.87.47.28,1.44-.29,2s-.59,2.2-2.05,1.31c-.82-.5-1.37-.52-1.83.45-.37.79-1,.57-1.69.3-.37-.15-.78-.71-1.17-.1-.29.45.17.71.46.91,1.42,1,.33,2,0,2.91-.49,1.28-1.38.42-2.11.16-.3-.11-.61-.38-.85,0s.1.7.41.9c1,.62,1.72,1.27.4,2.3-.13.1-.14.35-.21.53,2.24.78.14,3.38,1.95,4.52.86.54-.33,1.44-.58,2.16s-.69,1.21-1.49.83a1.73,1.73,0,0,0-2.24.54.92.92,0,0,1-1.22.23,1.35,1.35,0,0,0-2.11.55c-.29.5-.76.44-1.2.25a1.44,1.44,0,0,0-1.91.41c-.88,1.2-1.85.42-2.55,0s-1.53-1.32-.57-2.39a1,1,0,0,0,.22-.5c-1.28-1-1.18-2.18-.89-3.62.11-.57-.67-.25-.87.19-.88,1.9-1.92.41-2.84.12-1.13-.37-1-1.16-.5-2,.2-.33.36-.85,0-1.05-.66-.32-.67.38-.84.75-.79,1.69-1.61.23-2.32,0s-2-.75-1.09-1.93c.64-.85.74-2.77,2.74-1.72.6.31.82-.46.45-.79-.75-.66-1.11-1.18-.36-2.1s1.37-1.86,2.75-1.11c.07,0,.22-.1.43-.2-.64-.86-1.47-1.72-.55-2.86.07-.09.13-.33.09-.36-1.39-1.05-.78-2.58-1.1-3.89-.21-.88-1.24-1.55-.52-2.69.19-.3-.1-.64-.39-.8-.89-.51-1.14-1.13-.52-2a1.4,1.4,0,0,0,.15-.71c-2.57-.87,0-3.75-1.9-4.85,1.37-1.77-1.85-3.14-.42-4.94.2-.25,0-.68-.28-.85C75.29,77.68,75.81,76.7,76.18,75.73ZM86.79,84c.94,0,1.5,1.38,2.63.78.06-1-1.16-1.2-1.33-2.05.58-.85,1.93-.7,2.44-1.75a2.3,2.3,0,0,0-2.81.21.57.57,0,0,1-.86-.07c-.1-.13,0-.48.14-.7.36-.79,1.17-1.44.73-2.49-1.14.13-1.31,1.39-2.17,1.86-.87-.76-.62-2.16-1.72-2.75-.79.85.11,1.92-.4,2.81-.93.08-1.88-1-2.87,0,.81.89,2.08,1.11,2.85,2.24l-3.32.82c-.34.08-.65.21-.57.62s.44.37.78.32a5.63,5.63,0,0,1,2.74,0c-.23.52-.45,1-.62,1.46s-.59.7-.14,1,.77-.23,1.1-.49c.58-.45.61-1.48,1.67-1.57.17.91.33,1.79.49,2.68a.62.62,0,0,0,.65.59c.46,0,.45-.4.43-.71,0-.84-.12-1.68-.18-2.52Zm7.48,2.44c-.28,1.52,1,2.74.48,4.25-.54-.32-1-.62-1.41-.85s-1.26-1-1.71-.43c-.66.82.61.88.89,1.38.18.32.66.45.62.94-.79.8-2.41.35-2.94,1.83,1.28.17,2.38-.36,3.5.09.09,1-1.24,1.73-.65,2.94,1.21-.29,1.49-1.72,2.41-2.09,1,.65.13,2.59,1.48,2.44,1.1-.12.31-1.54.38-2.38,0-.09.15-.18.25-.28a2.69,2.69,0,0,1,.55.16c.6.31,1.46.64,1.76.07.42-.79-.65-.9-1.1-1.29-.24-.21-.49-.4-.73-.59.47-.69,1.23-.57,1.78-.88.34-.19,1.09,0,.84-.75a.88.88,0,0,0-1.15-.48,3.31,3.31,0,0,1-2,.1c.39-.73.74-1.34,1-2,.16-.35.3-.79-.15-1s-.64.22-.89.49c-.48.51-.61,1.31-1.42,1.66C95.68,88.64,95.76,87.19,94.27,86.49Zm-.23,24c-.14-.31-.17-.53-.29-.63-1.45-1.17-2.24-2.21.46-2.67a.56.56,0,0,0,.17-.09c.35-.21.69-.47.44-.91s-.54-.19-.86-.08c-.77.26-1.56.5-2.46.78-.14-1.26,1.39-2.19.32-3.36-1.49,1.95-1.47,1.94-2.48.1-.22-.4-.33-1.19-1-1s-.18.9-.12,1.33c.18,1.17.42,2.27-1.39,1.3a1.47,1.47,0,0,0-1.69.19c.68.76,1.78,1.05,2.32,2.06l-.72.32c-.68.29-2,.14-1.9.93.12,1,1.3.16,2,.36l.54.14c.21.61-.24,1-.41,1.47s-.47.75-.07,1.06.81-.13,1.15-.39a2.37,2.37,0,0,0,.54-.56c.71-1.07,1.13-1.06,1.52.25.16.55-.29,1.83.85,1.53.9-.23.5-1.3.35-2-.06-.28-.34-.58.08-.84C92.21,109.82,92.83,110.84,94,110.46Z"/><path class="cls-3" d="M72.23,113.11c2.43.54,2,2.61,2.51,4.13.16.47-.41.57-.79.64-.63.12-1-.54-.85-.79C73.91,115.54,72.91,114.39,72.23,113.11Z"/><path class="cls-3" d="M103.92,108.76a10.26,10.26,0,0,0-1.57-1.61c-.32-.21-.82-.85-.34-1.31s1.07-.1,1.38.28A2.45,2.45,0,0,1,103.92,108.76Z"/><path class="cls-5" d="M103,102c.41.07.78.27.8.68a.72.72,0,0,1-.77.84c-.38,0-.58-.1-.63-.48A1,1,0,0,1,103,102Z"/><path class="cls-3" d="M100.67,107.65c0,.56-.26.67-.73.6s-.77-.14-.73-.65.16-1,.73-.9S100.53,107.27,100.67,107.65Z"/><path class="cls-3" d="M100,112.84c1.41.77,1.6,1.62,1.2,3.25Z"/><path class="cls-3" d="M78.51,114.23c-.4.57-.84.49-1.27.12-.2-.17-.27-.55,0-.61A1.1,1.1,0,0,1,78.51,114.23Z"/><path class="cls-3" d="M104.14,110.56l-.42.27c-.05-.11-.17-.26-.14-.31a1.66,1.66,0,0,1,.37-.32Z"/><path class="cls-3" d="M100,110.2l-.24-.19a1.72,1.72,0,0,1,.23-.19s.13.07.13.09A1.88,1.88,0,0,1,100,110.2Z"/><polygon class="cls-3" points="98.58 108.52 98.53 108.36 98.67 108.38 98.58 108.52"/><path class="cls-5" d="M71.45,69.4c.53-1.21,1.17-1.27,1.92-.17C72.84,70.5,72.14,69.91,71.45,69.4Z"/><path class="cls-7" d="M91.59,55.85c.13-.47.37-.84.8-.8s.9.31.77.9c-.08.38-.29.8-.75.76A.87.87,0,0,1,91.59,55.85Z"/><path class="cls-2" d="M100.22,52.59l.58-.89C101.1,52.32,100.69,52.47,100.22,52.59Z"/><path class="cls-2" d="M100.77,51.73l.42-.42C101.32,51.72,101.24,51.92,100.77,51.73Z"/><path class="cls-4" d="M94.27,86.49c1.49.71,1.42,2.16,1.88,3.3.81-.35.94-1.15,1.42-1.66.26-.27.42-.74.89-.49s.32.68.15,1c-.3.64-.65,1.25-1,2a3.31,3.31,0,0,0,2-.1.88.88,0,0,1,1.15.48c.25.73-.51.56-.84.75-.55.31-1.31.2-1.78.88.24.2.49.39.73.59.45.39,1.52.5,1.1,1.29-.31.57-1.16.25-1.76-.07a2.69,2.69,0,0,0-.55-.16c-.09.1-.24.19-.25.28-.07.84.72,2.26-.38,2.38-1.35.15-.44-1.8-1.48-2.44-.93.37-1.21,1.8-2.41,2.09-.59-1.21.74-1.92.65-2.94-1.12-.45-2.22.09-3.5-.09.53-1.48,2.15-1,2.94-1.83,0-.49-.43-.62-.62-.94-.28-.5-1.55-.56-.89-1.38.44-.55,1.16.15,1.71.43s.88.52,1.41.85C95.29,89.23,94,88,94.27,86.49Z"/><path class="cls-4" d="M86.43,84.35c.06.84.14,1.68.18,2.52,0,.31,0,.7-.43.71a.62.62,0,0,1-.65-.59c-.16-.88-.32-1.77-.49-2.68-1.06.09-1.08,1.11-1.67,1.57-.33.26-.57.87-1.1.49s0-.69.14-1,.4-.94.62-1.46a5.63,5.63,0,0,0-2.74,0c-.33.05-.69.12-.78-.32s.22-.54.57-.62l3.32-.82c-.77-1.13-2-1.35-2.85-2.24,1-1,1.95.11,2.87,0,.52-.89-.38-2,.4-2.81,1.1.59.85,2,1.72,2.75.87-.47,1-1.72,2.17-1.86.44,1.05-.37,1.71-.73,2.49-.1.22-.23.57-.14.7a.57.57,0,0,0,.86.07A2.3,2.3,0,0,1,90.53,81c-.51,1-1.86.9-2.44,1.75.17.86,1.39,1,1.33,2.05-1.13.6-1.69-.74-2.63-.78l-.31-.18Z"/><path class="cls-4" d="M94,110.46c-1.21.38-1.82-.64-2.71-.71-.42.26-.14.55-.08.84.15.75.56,1.82-.35,2-1.14.29-.69-1-.85-1.53-.39-1.31-.81-1.32-1.52-.25a2.37,2.37,0,0,1-.54.56c-.34.26-.65.78-1.15.39s-.06-.7.07-1.06.63-.86.41-1.47l-.54-.14c-.68-.2-1.86.61-2-.36-.1-.8,1.22-.64,1.9-.93l.72-.32c-.54-1-1.63-1.29-2.32-2.06a1.47,1.47,0,0,1,1.69-.19c1.81,1,1.57-.13,1.39-1.3-.07-.43-.66-1.07.12-1.33s.79.56,1,1c1,1.83,1,1.85,2.48-.1,1.07,1.18-.46,2.1-.32,3.36.9-.28,1.68-.51,2.46-.78.32-.11.67-.26.86.08s-.09.7-.44.91a.56.56,0,0,1-.17.09c-2.7.46-1.91,1.5-.46,2.67C93.87,109.93,93.9,110.15,94,110.46Z"/><path class="cls-2" d="M86.43,84.35l0-.49.31.18Z"/></svg>