<svg id="圖層_1" data-name="圖層 1" xmlns="http://www.w3.org/2000/svg" viewBox="0 0 166 168"><defs><style>.cls-1{fill:#c2bdb6;}.cls-2{fill:#9acce1;}.cls-3{fill:#a39693;}.cls-4{fill:#dbd7db;}.cls-5{fill:#5aa8c6;}.cls-6{fill:#c8bfbf;}.cls-7{fill:#766d6c;}.cls-8{fill:#e8ddd8;}.cls-9{fill:#afa3a1;}.cls-10{fill:#f5eeea;}.cls-11{fill:#fdfcfc;}.cls-12{fill:#753a3c;}.cls-13{fill:#930c0b;}.cls-14{fill:#cf4140;}.cls-15{fill:#d23433;}.cls-16{fill:#49b4d4;}</style></defs><title>PP5</title><path class="cls-1" d="M44.54,140.06c-.37-.4-.89-.26-1.34-.38a2.21,2.21,0,0,1-1.91-2.38c-.09-8.71-.08-17.42-.45-26.12-.33-7.69,0-15.39-.37-23.07-.3-5.91,0-11.81-.34-17.7-.31-5.25-.3-10.48-.19-15.72A19.44,19.44,0,0,1,44,56a9.27,9.27,0,0,0,4.86.79c.93-.07,2.24.19,2.88-1a10,10,0,0,1,3.61,4.1c.28.54,1,1.15.35,1.76s-1.16-.14-1.71-.41-1-.94-1.76-.52c.15.94,1,1.34,1.52,1.93a10,10,0,0,1,2.55,3.41c.12.34.24.74-.08,1s-.66,0-.94-.23c-.62-.46-1.19-1-1.84-1.41S51.87,65,52.06,66c.39,2-.09,4.1.73,5.88.71,1.54.16,3.06.31,4.52s-.42,3.42-.66,5.24a3.33,3.33,0,0,1-1.79-2,4.17,4.17,0,0,0-1.45-2c-.52-.33-1.21-.61-1.38.31s0,2.09.76,2.41c2.39,1,2.88,3,3.28,5.14.06.32,0,.89.69.92.47-1.33-.57-2.49-.5-3.77.63-.09.82.49,1.23.67s.92.83,1.4.22-.13-.87-.45-1.2a2.26,2.26,0,0,1-.86-2c.48-.07,1,.49,1.34-.07a1.06,1.06,0,0,0-.29-1.3c-.24-.27-.45-.56-.67-.84l.11-.11c1.34-.44,1.38-1,.2-2.71l.18-.19c1.06-.83.83-1.59-.05-2.4-.39-.35-1.17-1-.35-1.36,2-.91.88-1.83.08-2.59a2.42,2.42,0,0,1-1.06-2.33c.9.1,1.28.8,1.9,1.13s1.17,1.18,2,.49.55-1.5.21-2.27a16.86,16.86,0,0,0-.94-1.49c-.26-.44-.7-.9-.16-1.43,1.37-1.34.46-2.63-.09-3.91-.34-.81-1.11-1.39-1.31-2.29.17-.38.49-.44.86-.48l7.28-.79c.9,1.53,1.81,3.07,2.71,4.6l5.55,9.53c.63,2.19,2.33,3.84,3,6l.33.43a2.46,2.46,0,0,1,.06.27c-.5.7-1.06.22-1.59.08l-9.57-2.52c-.77-.33-1.68-.76-2.3-.07s.16,1.42.44,2.1l.47,1.14c.72,1.48,1.41,3,2.17,4.42,1.75,3.33,3.53,6.64,5.3,10q5.78,11.2,11.55,22.41c.23.45.8,1,.39,1.44s-1,.06-1.5-.11l-12.22-4c-.5-.17-1-.5-1.49,0a1.39,1.39,0,0,0-.21,1.52,35.14,35.14,0,0,0,2.49,5.65c3.14,4.94,5.21,10.42,8.12,15.47,2.22,3.85,3.52,8.17,6.14,11.81a13.77,13.77,0,0,0,2.87,5h0c0,.79.12,1.55,1,1.84.06.29.12.58.18.87.09.49.79.95.31,1.42s-1-.1-1.48-.23a51.53,51.53,0,0,0-5.77-1.75l-.36-.3-.73,0-.37-.3-1.45-.44-.32-.27c-2.38-.4-4.51-1.56-6.81-2.19-4.22-1.82-8.58-3.25-12.93-4.71-3.17-1.21-6.25-2.69-9.63-3.25A4.11,4.11,0,0,0,44.54,140.06Zm8.9-5.34.16.14-.14-.17c.39-.81.72-1.58-.59-1.91-.53-.13-.78-.06-.85.51C51.88,134.41,52.35,134.87,53.44,134.72Zm2.87-27.94c-.15-.09-.35-.29-.45-.25-.79.33-1.4,1.46-1.15,1.74.7.77-.14,2.46,1.27,2.43.59,0,1.28,1.5,1.8,0,.21-.59,1.82-1.09.28-1.79-.93-.42.37-1.85-1-1.81A.68.68,0,0,0,56.31,106.78Zm4.37,14.31c.6-.1,1.39,0,1.58-.7.14-.51-.46-.85-.87-1.16a4.46,4.46,0,0,0-1.83-2.77c-1.07-.83-1.7-2.16-2.91-2.9-.35.55-.08.87,0,1.21.3,1.57-.17,2.52-1.89,2.76a7.43,7.43,0,0,0-2.93,1.27c-1.35.87-2.71,1.17-4-.24a16.44,16.44,0,0,0-2.08-1.67c-1-.75-1.36-.26-1.53.7a1.43,1.43,0,0,0,.87,1.61,43.72,43.72,0,0,1,7.11,5c2.76,2.14,5.35,1.48,7.08-1.64Zm-12.59,7.18,0,0c.86-1.39-.6-2.2-.91-3.28-.16-.55-.87-.19-1.07.29-.38.95.38,1.93,0,3-.09.23,1.13.32,1.43,1,1.46-.68,2.24.66,3.28,1.14,2.51,1.17,5.32,1.44,7.78,2.75a.81.81,0,0,0,1.31-.66c.09-.63.17-1.6-.75-1.47-1.26.17-1-.35-.76-1.07.11-.36.31-.8-.2-1.06-.76.32-.07,1.86-1.17,1.6s-.15-1.52-.64-2.76c-.31,3-2.45,1.19-3.49,2.18-.23-1,1.23-1.6.24-2.48-.79.38-.48,1.4-1.17,1.76-.63-.38.35-1-.24-1.39-.55.13-.23,1-.93,1l-1.23-2.5C48.79,126.86,49.18,128.06,48.09,128.27ZM44.81,79.52c-.37,0-.93.17-.85.47.38,1.53-.54,3-.09,4.5.4,1.31,1.61,2.42.37,4-.42.53.93,1.76.35,2.24-.74.62-.17,1-.29,1.46-.39,1.42.85,2.21,1,3.37l-.11.13c-.42,0-1,0-.94.51a16.45,16.45,0,0,1,.15,3.49c-.1,1.6.36,3.22-.16,4.86-.13.42-.33,1.23.38,1.36a1.37,1.37,0,0,0,1.63-.78c.23-.64-.35-1.1-.53-1.65s-.85-1.12,0-1.29c2-.4,1-1.48.67-2.39-.21-.67-.75-1.23-.75-2.13.62-.11,2.12.37,1.46-1-1.15-2.39-.17-5.15-1.53-7.44l.11-.11a2.25,2.25,0,0,1,1.71,1.65c.14.46.07,1,.85.66s.62-.73.25-1.13c-.83-.9-.66-2-.72-3,0-.08-.09-.15-.12-.21-.48.3.09,1-.65,1.17-.51-.73-1-1.44-1.52-2.2a1.84,1.84,0,0,1-.28-.94c1.89-1.1.34-2-.1-3-.28-.64-.38-1.32.66-1,1.52.45.86-.48.64-1-.43-.95-1.31-1.69-1.24-2.86.63-.19.84,1.29,1.38.44.34-.53.89-1.57-.29-2.13a2,2,0,0,1-.68-.56c-.29-.37-.79-.91-.48-1.23a2.48,2.48,0,0,1,1.6-.51c.44,0,.53.58.75.92s.72.91,1.31.62.46-1,.26-1.56a2,2,0,0,0-.6-.88c-3.12-2.28-3.07-6-4.19-9.19-.14-.4-.29-1.07.18-1.32s1,.34,1.29.7a8.51,8.51,0,0,1,2.12,5c0,.36,0,.81.49.81s.46-.44.41-.81a9.68,9.68,0,0,0-2.59-5.94c-.49-.47-.91-1.25-1.78-.86s-.92,1.18-.85,2c0,.47.15.94.19,1.41.16,1.91,1.26,3.56,1.59,5.43-.53.19-.87-.57-1.19-.2s.17.84.4,1.21c.12.19.4.28.53.47.37.55,1.22,1.19-.33,1.35-1.37.15-.72,1-.51,1.74s1.12,1.37.77,1.66c-1.64,1.33-.15,2.49,0,3.71Zm-.71,55A2.55,2.55,0,0,0,46,137.05c2.22.86,4.46,1.68,6.71,2.44,1.39.47,2.06-.18,1.82-1.61A2.48,2.48,0,0,0,53,136c-2.37-1-4.78-1.85-7.2-2.65C44.74,133,44.05,133.48,44.09,134.48Zm5-25.87c-.61.52,0,1.43-.87,1.74-1.55.57-.59,1.49,0,1.69,1.1.34.77.77.54,1.49-.12.38-.37,1.34.43,1.24a8.72,8.72,0,0,0,3.82-1.09c.76-.52-.63-1.29-.75-2.07-.08-.52-.22-1-.31-1.56s-.21-.78-.66-.56C50.32,110,49.93,108.9,49.13,108.61Zm6.36,30.17c.31.79-.24,1.8,1,2.12a39.79,39.79,0,0,1,4.2,1.4c1,.4,1.9.39,2.33-.77.28-.77-1.07-2.67-1.87-2.44-1.81.52-3.2-.47-4.74-.95C55.67,137.93,55.2,137.89,55.49,138.79Zm5.57-6.59c.95.06,3.67-2.94,3.47-3.88-.14-.63-.54-1-1.14-.41a18.87,18.87,0,0,0-2.83,3.41C60.17,131.92,60.41,132.18,61.06,132.2Zm-2,4c-.28-.78-.06-1.77-1.17-1.85-.78-.06-.78.5-.81,1.06,0,.92.53,1.25,1.29,1.36C58.82,136.9,59.15,136.72,59,136.25Zm-10.89-3c.72,0,.61-.55.66-1,.1-.87-.46-1.15-1.15-1.25s-.59.52-.64.94C46.91,132.72,47.45,133,48.13,133.21Zm3.26.88a1.45,1.45,0,0,1-.24-1.32c.16-.81-.55-.95-1.08-1.1s-.51.3-.55.65C49.37,133.49,49.89,134.07,51.39,134.09Zm4.51,1.79c.67-.08.38-.6.41-.94.08-.84-.48-1.15-1.18-1.24-.45-.06-.59.33-.57.71C54.62,135.25,55.21,135.61,55.91,135.89Z"/><path class="cls-1" d="M98.3,156.79a10.57,10.57,0,0,1-5.54,3.16c-2,.33-4-1-6-1.89l0-.69a1.24,1.24,0,0,0,1-.43l.38-.3c.95-.21,2.12,1.11,2.88-.41,1.49.08,1-1,1.08-1.79V153c.66-4.66.31-9.33.22-14,0-.06-.18-.11-.28-.17-.57.25-.5,1.1-1.18,1.25,0-5.84,0-11.67.14-17.51.17-8.27-.37-16.55.38-24.81a1.57,1.57,0,0,0,.34-.1c.59.79,0,1.59,0,2.38,0,9.41.16,18.82-.17,28.23-.09,2.59-.15,5.18-.12,7.77,0,.61-.45,1.86,1.08,1.54,2.89-.27,3.24-.59,3.55-3.31a5.56,5.56,0,0,1,.19-1.51c.73-1-.74-1.65-.31-2.26a5.43,5.43,0,0,0,.59-4c-.43-2.59,1.29-5.29-.46-7.73,0,0,0-.11,0-.17.3-2.5-.13-5.08.94-7.5.32-.72-.22-1-.85-1.27s-1.49-.5-1-1.14a3.74,3.74,0,0,0,.25-4.43,23.51,23.51,0,0,1-1.21-3.51s-.18,0-.34,0c0,2.7,0,5.38,0,8.06,0,.6.29,1.39-.71,1.57,0-4.8-.07-9.6.25-14.39q0-.85,0-1.7l.08-2.16c-.08-.27-.2-.29-.34,0-1,.19-1.87-.3-2.82-.31h-.82l-2.48-.07c.37-1.23,1.39-.61,2.11-.68,1.59-.14,3.32.35,4.44-1.37.46.66,0,1.84,1.29,1.7,2-.24,4.12,0,6.09-.66a5.17,5.17,0,0,1,4.87.6c.24.16.63.49.74.16.51-1.51,2-1.12,3-1.54,2.59-1.09,5.07-2.41,7.63-3.56a7.12,7.12,0,0,1,.31,2.46c-.12,5.36-.68,10.7-.71,16.08,0,4.33-.46,8.66-.39,13-.56,1.41-.16,2.88-.29,4.31a1.77,1.77,0,0,0,0,2.16c-.12.83.34,1.74-.32,2.5a3.52,3.52,0,0,0-.07-.53c0-.18-.12-.25-.35-.12-.72.4-1.37.7-1.42,1.77-.14,2.95-.6,5.89-.6,8.83,0,1.87-.93,3.73,0,5.6,0,1.07,0,2.16-1.44,2.4-.87.07-1.48,1-2.46.7a25.54,25.54,0,0,1-4.62,0,7.46,7.46,0,0,0-4.72.77C99,146.8,99,147.21,99,148c0,.63-.08,1.3-.83,1.36s-.85.83-1.23,1.3c-1.11,1.39-1,3.61-2.92,4.42-1.25.53-1.76,1.3-1.43,2.31,2.11.3,3.82-.77,5.7-1.16h0Zm7.08-29.33c.5-1.11.26-2.29,1.53-2.68,1-.31,1.23-.82.19-1.54-.82-.57-1.37-1.25,0-2,.71-.38.39-.89-.07-1.28-.85-.73-1.13-1.36.11-2a.56.56,0,0,0,.06-1c-.71-.51-.89-1.53-1.8-1.94-.61,1.2-.78,2.47-1.6,3.45a1.43,1.43,0,0,0-.11,1c2.19.65.17,1.6.18,2.39,0,.41-.77,1-.15,1.18,1.4.46.5,1.13.29,1.72s-1,1-.83,2C104,126.55,105.19,125.1,105.38,127.47ZM98.71,92.68c-.79-.49-2-.08-3.19,0-.53,0-1.27-.3-1.42.6a7.11,7.11,0,0,0,.08,3.51c.13.37.56.11.89-.09C96.66,95.71,99,95.5,98.71,92.68Z"/><path class="cls-1" d="M43.75,17.74c3.75-2.12,7.84-3.45,11.83-5,1.94-.76,3.94-1.37,5.85-2.2,3.85-1.68,7.62-.47,11.35.29,11.77,2.39,23.41,5.32,35,8.29,3.28.84,6.59,1.55,9.88,2.37.48.12,1.1.12,1.36.73a21.53,21.53,0,0,1-6,1c-7.85-.95-15.55-2.69-23.31-4.15-1.57-.3-3-1.31-4.46-1.34a18.29,18.29,0,0,1-5.41-.85c-4.63-1.53-9.45-2.29-14.11-3.68-.71-.21-1.19,0-1.15.87.1,2.54-.4,5.14.68,7.6-.63.65-.25,1.45-.34,2.18L64,22.41c0,1.64-.79,1.35-1.77,1.22C61.1,23.48,60.1,23,59,22.75c-3.82-.72-7.71-1.27-11.16-3.37a3.36,3.36,0,0,0-3-.51l-.71,0Z"/><path class="cls-1" d="M62.66,55.37l-7.28.8c-.37,0-.69.1-.86.48-1.15-.93-2-2.32-3.79-2.67.12,1,.69,1.31,1,1.81-.64,1.2-1.95.94-2.88,1A9.27,9.27,0,0,1,44,56a19.44,19.44,0,0,0-4-1.31h0c-.18-3.33.16-6.68-.25-10l.19-.69a3.27,3.27,0,0,0,.54-.45c2.46-3.12,4.9-6.27,7.37-9.38,1.66-2.09,2-2.06,3.26.26,1.49,2.71,2.95,5.44,4.42,8.16,1.09,1.66,1.65,3.64,3.1,5.09l3.89,6.75.25.61Q62.66,55.2,62.66,55.37Z"/><path class="cls-1" d="M55.41,42.57c-1.47-2.72-2.93-5.45-4.42-8.16-1.28-2.32-1.6-2.35-3.26-.26-2.47,3.12-4.91,6.26-7.37,9.38a3.27,3.27,0,0,1-.54.45c-.73-1.68-.53-3.51-.59-5.23-.2-5.85-.12-11.71-.1-17.56,0-.55-.38-1.41.69-1.54.12.91,1,.84,1.52,1C47.68,22,54,23.35,60.4,24.73c1.39.3,2.78.6,4.14,1,1,.3,1.38.91.42,1.76v0l-.39.33a.78.78,0,0,0-.72.35,2.45,2.45,0,0,0-2.08,1.07,2.36,2.36,0,0,0,2.13-1l.71-.37h.36c.52.38,1.42.7.26,1.39-.34.08-.58.24-.54.64C61.62,30,59,31.58,56.2,32.5c-1.47.48-3.33,1.88-3.19,3.45A7.49,7.49,0,0,0,56,40.76h0l.33,1.83C56,42.42,55.7,42.21,55.41,42.57Z"/><path class="cls-1" d="M98.28,156.23c-1.89.38-3.59,1.45-5.7,1.16-.33-1,.18-1.78,1.43-2.31,1.91-.81,1.81-3,2.92-4.42.38-.47.34-1.23,1.23-1.3s.8-.73.83-1.36c0-.79,0-1.2,1.12-1.75a7.46,7.46,0,0,1,4.72-.77,25.54,25.54,0,0,0,4.62,0c-.2.35-.38.71-.6,1s-1,.39-.71,1,.8.36,1.23.5a13.56,13.56,0,0,0,3.26.68c-.19.22-.34.52-.57.65Q105.53,153,99,156.65a2.38,2.38,0,0,1-.68.14l0-.57.08-.13Z"/><path class="cls-1" d="M116.49,117.84c-.06-4.34.37-8.67.39-13,0-5.37.59-10.71.71-16.08a7.12,7.12,0,0,0-.31-2.46l0-1.06.34-10.55c1,.73.77,2.56,2.45,2.63-.24,7.86-.38,15.73-.78,23.58-.11,2.08-.31,4.16-.24,6.24.12,3.59-.48,7.14-.41,10.72Z"/><path class="cls-1" d="M121.22,32.87c.74,1.47.42,3.06.25,4.53-.24,2.09-.17,4.17-.25,6.25-.14,3.33-.25,6.67-.37,10-.28.06-.57.11-.62.47s.25.57.6.65q0,.5,0,1a4.58,4.58,0,0,1-3.05.77l-.08-3.62a1.17,1.17,0,0,0,0-.33l.13-1.47c.82-1.08.84-4.5,0-5.68a53.27,53.27,0,0,1,0-8.26C119.76,36.4,120.13,34.35,121.22,32.87Z"/><path class="cls-1" d="M121.22,32.87c-1.09,1.48-1.46,3.54-3.43,4.32l-.22-3.63,0-1.38a7.48,7.48,0,0,0,0-2.54.79.79,0,0,0-.33-.73l-.22-.44.26-.93c.26-.7.81-1.45-.35-1.88h-.78l-.5-.39.46-.88c.27-.27.79-.27.87-.8-.69-.12-1.36-.3-1.93.3l-.32.31a5.09,5.09,0,0,0-2.15-.23l.39-.71a21.55,21.55,0,0,0,6-1l1.78.27c0,.72.55.7,1,.78C121.63,26.47,121.71,29.69,121.22,32.87Z"/><path class="cls-1" d="M117.74,56.55a4.58,4.58,0,0,0,3.05-.77c-.51,5.44,0,10.92-.57,16.37-.18,1.71-.07,3.45-.09,5.18-1.69-.07-1.47-1.9-2.45-2.63Q117.7,65.62,117.74,56.55Z"/><path class="cls-1" d="M116.49,117.84l2.19,0q-.35,10.65-.69,21.3a1,1,0,0,1-.39.93c-.52-.39-.31-1-.33-1.45a5,5,0,0,0-1.06-3.21h0c0-.42,0-.89-.49-1.1-.73-2.52.21-5,.12-7.52.66-.76.2-1.67.32-2.5a1.59,1.59,0,0,0,0-2.16C116.33,120.72,115.94,119.25,116.49,117.84Z"/><path class="cls-1" d="M86.82,157.37l0,.69c-4-1.15-7.75-2.74-11.59-4.2-.89-.34-1.8-.64-2.7-1-.13-.39-.26-.76-.74-.31l-1.06-.37a3.25,3.25,0,0,0-3-1.23l-.92-.2c-.21-.85-1-1-1.63-1.2a30.78,30.78,0,0,1-3.68-1.27c-1.76-.67-3.53-1.33-5.27-2.06-.49-.21-1.4-.33-1.16-1.08s1-.06,1.5-.09h.18l12.9,5Z"/><path class="cls-1" d="M56.68,145.1h-.18c-.52,0-1.22-.77-1.5.09s.67.87,1.16,1.08c1.74.73,3.51,1.39,5.27,2.06a30.78,30.78,0,0,0,3.68,1.27c.63.15,1.42.35,1.63,1.2-6.3-2-12.54-4.23-18.66-6.78-.28-1-1.27-1.07-2-1.42-.32-.15-.74-.25-.67-.67s.52-.34.83-.23c.55.21.75-.05.82-.54,3.39.56,6.47,2,9.63,3.25Z"/><path class="cls-1" d="M65,27.51c1-.85.54-1.46-.42-1.76-1.35-.42-2.75-.72-4.14-1C54,23.35,47.68,22,41.34,20.61c-.56-.12-1.39-.06-1.52-1a.64.64,0,0,1,.65-.43c1,.66,2.19.29,3.3.38a4,4,0,0,0,1,.64q9,2.2,18.08,4.34a2.38,2.38,0,0,0,1.71-.32c0,.55.19.93.78,1,.92,0,1.84.58,2.76,0v1.1a1.19,1.19,0,0,0-1.34.4A2,2,0,0,1,65,27.51Z"/><path class="cls-1" d="M111.92,144.76c1.42-.24,1.41-1.33,1.44-2.4,1.31.43,1.79.06,1.73-1.4-.08-1.94.11-3.89.18-5.84l.94.3h0c.56,3.68,1.18,7.37.36,11.1a1.72,1.72,0,0,1-1.44,1.08c.1-1.09-.65-1-1.38-1C112.54,146.57,111.84,146.05,111.92,144.76Z"/><path class="cls-1" d="M111.92,144.76c-.08,1.29.62,1.81,1.82,1.8.73,0,1.48-.06,1.38,1a3.83,3.83,0,0,1-2.48,1.12,13.56,13.56,0,0,1-3.26-.68c-.43-.14-1,0-1.23-.5s.48-.67.71-1,.4-.7.6-1C110.44,145.78,111.05,144.83,111.92,144.76Z"/><path class="cls-1" d="M47,141.15c-.07.49-.27.75-.82.54-.31-.11-.74-.29-.83.23s.35.52.67.67c.76.35,1.75.37,2,1.42-2.21-.23-4.07-1.46-6.13-2.15-.28-.09-.57-.32-.52-.63.07-.48.52-.39.85-.39a2.56,2.56,0,0,0,2.25-.77A4.11,4.11,0,0,1,47,141.15Z"/><path class="cls-1" d="M116.57,146.52c.82-3.73.21-7.41-.36-11.1a5,5,0,0,1,1.06,3.21c0,.5-.19,1.06.33,1.45q0,2.33-.06,4.66a.64.64,0,0,0-.21.75C117.3,146,117.34,146.57,116.57,146.52Z"/><path class="cls-1" d="M39.63,44.68c.42,3.33.07,6.67.25,10-.72-.82-.37-1.82-.37-2.72A44.81,44.81,0,0,1,39.63,44.68Z"/><path class="cls-1" d="M43.77,19.59c-1.1-.09-2.26.28-3.3-.38a1.4,1.4,0,0,1,1.06-.4l2.6.05.71,0Z"/><path class="cls-1" d="M44.14,18.86l-2.6-.05c.49-.88,1.38-.91,2.22-1.07Z"/><path class="cls-1" d="M67.66,151a3.25,3.25,0,0,1,3,1.23A5.43,5.43,0,0,1,67.66,151Z"/><path class="cls-1" d="M120.82,54.77c-.35-.08-.67-.2-.6-.65s.35-.4.62-.47Z"/><path class="cls-1" d="M121.86,23.27c-.48-.08-1-.06-1-.78C121.39,22.47,121.81,22.63,121.86,23.27Z"/><path class="cls-1" d="M71.75,152.59c.48-.45.62-.08.74.31A.59.59,0,0,1,71.75,152.59Z"/><path class="cls-1" d="M117.33,145.5a.64.64,0,0,1,.21-.75C118.19,145.2,117.8,145.36,117.33,145.5Z"/><path class="cls-1" d="M91.47,97.78c-.74,8.26-.21,16.54-.38,24.81-.12,5.83-.1,11.67-.14,17.5a1,1,0,0,0-.94,1,1.58,1.58,0,0,0-1.1.8c-.65,0-1.07.38-1.57.7-1.59,1-3,2.38-4.84,2.92-2.62-3.64-3.92-8-6.14-11.81-2.91-5.05-5-10.53-8.12-15.47a35.14,35.14,0,0,1-2.49-5.65A1.39,1.39,0,0,1,66,111c.48-.51,1-.18,1.49,0l12.22,4c.5.16,1.1.58,1.5.11s-.16-1-.39-1.44Q75,102.51,69.23,91.31c.62-2.05-.41-3.63-1.35-5.33a58.63,58.63,0,0,1-4.43-8.69c-.18-.52-.37-1.64,0-1.48,1.15.51,2.26-.28,3.44.35A14.91,14.91,0,0,0,75.78,78c3.48-.44,6.33-1.92,7.79-5.35a7.67,7.67,0,0,0,1.48-3.93c.17-.72.9-1.36.29-2.18a9.51,9.51,0,0,0,.41-2.77,26.52,26.52,0,0,0-3.95-13.09l.34-1c.39.59.82,1.16,1.17,1.77a27.53,27.53,0,0,1,3.44,16.24,12.53,12.53,0,0,1-3.22,7.33c-1.79,2.06-4.83,2.49-6.29,4.95-.08.14-.44.19-.66.18a34.22,34.22,0,0,1-5.69-.26c-1.92-.41-3.51-1.61-5.54-2.19a9.92,9.92,0,0,0,2.07,5.07,12,12,0,0,1,2.33,3.42c.67,1.87,1.4,3.25,3.54,3.4,1.34,1.4,3.29,1.14,4.9,1.79a1.92,1.92,0,0,0,2.5.63,4.64,4.64,0,0,0,2.53.75c.06.39.25.68.67.66a7.78,7.78,0,0,1,3.49.91,3.35,3.35,0,0,0,2.63.21h.73A3.27,3.27,0,0,1,91.47,97.78Z"/><path class="cls-1" d="M85.35,66.58c.61.82-.12,1.46-.29,2.18a16.88,16.88,0,0,1-4-.58c-3.15-.64-6.25-1-9.09,1.1a2.72,2.72,0,0,1-1,.22L65.37,60c-.9-1.54-1.81-3.07-2.71-4.6q0-.17,0-.34a12.81,12.81,0,0,0,4.59-.25,5.36,5.36,0,0,1,5.42,1.17c1.29,1.12,2.36,2.48,3.67,3.57,1.67,1.4,3,3.29,5.16,4C82.72,64.62,83.79,65.92,85.35,66.58Z"/><path class="cls-1" d="M45.27,95.54c-.13-1.16-1.37-1.94-1-3.37.11-.41-.45-.84.29-1.46.57-.48-.77-1.71-.35-2.24,1.24-1.57,0-2.68-.37-4-.45-1.47.47-3,.09-4.5-.08-.3.49-.44.85-.47l.21.12-.12-.2c-.16-1.22-1.65-2.37,0-3.71.35-.28-.59-1-.77-1.66s-.86-1.59.51-1.74c1.55-.17.7-.81.33-1.35-.13-.19-.41-.28-.53-.47-.24-.37-.81-.73-.4-1.21s.66.4,1.19.2c-.34-1.87-1.43-3.52-1.59-5.43,0-.47-.15-.94-.19-1.41-.06-.81,0-1.61.85-2s1.29.4,1.78.86a9.68,9.68,0,0,1,2.59,5.94c.05.37.08.8-.41.81s-.45-.45-.49-.81a8.51,8.51,0,0,0-2.12-5c-.33-.37-.67-1-1.29-.7s-.32.91-.18,1.32c1.12,3.19,1.07,6.91,4.19,9.19a2,2,0,0,1,.6.88c.2.55.47,1.21-.26,1.56s-1-.13-1.31-.62-.31-.94-.75-.92a2.48,2.48,0,0,0-1.6.51c-.31.32.19.86.48,1.23a2,2,0,0,0,.68.56c1.18.56.63,1.6.29,2.13-.54.85-.75-.63-1.38-.44-.07,1.17.81,1.92,1.24,2.86.23.5.89,1.44-.64,1-1-.31-.94.38-.66,1,.44,1,2,1.93.1,3a1.84,1.84,0,0,0,.28.94c.47.75,1,1.47,1.52,2.2.74-.15.17-.88.65-1.17,0,.06.11.13.12.21.06,1.06-.11,2.15.72,3,.36.4.39.84-.25,1.13s-.7-.2-.85-.66a2.25,2.25,0,0,0-1.71-1.64L45.39,89l.12.23c1.36,2.3.38,5.05,1.53,7.44.66,1.37-.85.88-1.46,1,0,.9.54,1.46.75,2.13.28.91,1.32,2-.67,2.39-.83.17-.12.87,0,1.29s.76,1,.53,1.65a1.37,1.37,0,0,1-1.63.78c-.71-.13-.51-.94-.38-1.36.52-1.63.06-3.26.16-4.86a16.45,16.45,0,0,0-.15-3.49c-.08-.56.52-.52.94-.51l.48.44.16-.21Z"/><path class="cls-1" d="M59.26,122.59c-1.73,3.12-4.32,3.78-7.08,1.64a43.72,43.72,0,0,0-7.11-5,1.43,1.43,0,0,1-.87-1.61c.17-1,.57-1.45,1.53-.7a16.44,16.44,0,0,1,2.08,1.67c1.29,1.41,2.65,1.12,4,.24a7.43,7.43,0,0,1,2.93-1.27c1.72-.24,2.19-1.19,1.89-2.76-.06-.33-.33-.66,0-1.21,1.21.74,1.83,2.07,2.91,2.9a2.33,2.33,0,0,0-1.41,2.87A32.88,32.88,0,0,0,59.26,122.59Z"/><path class="cls-1" d="M70.92,69.5a2.72,2.72,0,0,0,1-.22c2.83-2.07,5.94-1.74,9.09-1.1a16.88,16.88,0,0,0,4,.58,7.67,7.67,0,0,1-1.48,3.93c-2-1-5.62.55-6.87,3.1-.61,1.23-1.31,1.88-2.38.41a2.47,2.47,0,0,0-.06-.27l-.33-.43C73.25,73.33,71.55,71.68,70.92,69.5Z"/><path class="cls-1" d="M51.71,55.78c-.29-.5-.87-.82-1-1.81,1.78.35,2.64,1.75,3.79,2.67.2.9,1,1.48,1.31,2.29.54,1.28,1.46,2.58.09,3.91-.54.53-.1,1,.16,1.43A16.86,16.86,0,0,1,57,65.76c.35.77.63,1.59-.21,2.27s-1.41-.15-2-.49-1-1-1.9-1.13a2.42,2.42,0,0,0,1.06,2.33c.81.76,1.94,1.68-.08,2.59-.82.37,0,1,.35,1.36.89.81,1.11,1.58.05,2.4-.08-.06-.2-.18-.23-.16-.21.13-.05.24.05.34,1.18,1.71,1.14,2.26-.2,2.71l-.24-.13.13.24c.22.28.43.57.67.84a1.06,1.06,0,0,1,.29,1.3c-.34.56-.86,0-1.34.07a2.26,2.26,0,0,0,.86,2c.32.33.84.71.45,1.2s-.95,0-1.4-.22-.6-.76-1.23-.67c-.06,1.28,1,2.44.5,3.77-.69,0-.63-.6-.69-.92-.41-2.16-.89-4.16-3.28-5.14-.77-.32-.93-1.52-.76-2.41s.86-.64,1.38-.31a4.17,4.17,0,0,1,1.45,2,3.33,3.33,0,0,0,1.79,2c.24-1.83.81-3.71.66-5.24s.41-3-.31-4.52C52,70,52.45,67.91,52.06,66c-.19-1,.69-1,1.34-.54s1.22.95,1.84,1.41c.27.2.58.53.94.23s.2-.66.08-1a10,10,0,0,0-2.55-3.41c-.55-.58-1.36-1-1.52-1.93.79-.42,1.22.24,1.76.52s1.06,1.06,1.71.41-.07-1.23-.35-1.76A10,10,0,0,0,51.71,55.78Z"/><path class="cls-1" d="M86.82,157.37l-17.23-7.23,0-1c2.3.63,4.44,1.79,6.81,2.19l.32.27,1.45.44c.08.15-.09.61.37.3l.73,0,.36.3a51.53,51.53,0,0,1,5.77,1.75c.48.14,1,.67,1.48.23s-.22-.94-.31-1.42c-.05-.29-.12-.58-.18-.87a2,2,0,0,0-1-1.84h0c.08-.7-.52-1.27-.5-1.85,0-1.24-1.41-2.64.25-3.73,1.24-.81,2.54-1.53,3.81-2.29.15,4.81-1.12,9.52-1.1,14.33A1.24,1.24,0,0,1,86.82,157.37Z"/><path class="cls-1" d="M74.32,76.19c1.07,1.47,1.78.82,2.38-.41,1.25-2.55,4.83-4.06,6.87-3.1-1.47,3.43-4.32,4.91-7.79,5.35a14.91,14.91,0,0,1-8.92-1.88c-1.19-.63-2.29.17-3.44-.35-.35-.16-.16,1,0,1.48A58.63,58.63,0,0,0,67.88,86c.94,1.71,2,3.28,1.35,5.33-1.77-3.32-3.55-6.63-5.3-10-.76-1.45-1.45-2.95-2.17-4.42.83-.9.58-2.27,1.39-3.18l9.57,2.52C73.26,76.41,73.82,76.89,74.32,76.19Z"/><path class="cls-1" d="M44.09,134.48c0-1,.65-1.48,1.7-1.13,2.43.8,4.84,1.68,7.2,2.65a2.48,2.48,0,0,1,1.51,1.88c.24,1.43-.44,2.08-1.82,1.61-2.26-.76-4.49-1.58-6.71-2.44A2.55,2.55,0,0,1,44.09,134.48Z"/><path class="cls-1" d="M48.09,128.27c1.1-.21.7-1.41,1.43-2l1.23,2.5c.7,0,.38-.88.93-1,.6.38-.38,1,.24,1.39.68-.36.37-1.38,1.17-1.76,1,.88-.47,1.51-.24,2.48,1-1,3.18.81,3.49-2.18.5,1.23-.57,2.46.64,2.76s.41-1.28,1.17-1.6c.51.26.31.7.2,1.06-.22.71-.49,1.23.76,1.07.92-.12.84.85.75,1.47a.81.81,0,0,1-1.31.66c-2.45-1.31-5.27-1.58-7.78-2.75-1-.49-1.82-1.83-3.28-1.14-.3-.64-1.52-.73-1.43-1,.4-1-.36-2,0-3,.19-.48.91-.84,1.07-.29.31,1.08,1.77,1.89.91,3.28l-.14.17Z"/><path class="cls-1" d="M49.13,108.61c.8.29,1.2,1.36,2.24.87.45-.21.59.17.66.56s.23,1,.31,1.56c.12.78,1.52,1.54.75,2.07a8.72,8.72,0,0,1-3.82,1.09c-.8.1-.55-.86-.43-1.24.23-.71.56-1.14-.54-1.49-.63-.2-1.59-1.12,0-1.69C49.11,110,48.51,109.13,49.13,108.61Z"/><path class="cls-1" d="M55.49,138.79c-.29-.9.18-.86.93-.62,1.54.48,2.92,1.47,4.74.95.79-.23,2.15,1.67,1.87,2.44-.43,1.16-1.29,1.17-2.33.77a39.79,39.79,0,0,0-4.2-1.4C55.25,140.59,55.8,139.58,55.49,138.79Z"/><path class="cls-1" d="M59.26,122.59a32.88,32.88,0,0,1-1.11-3.26,2.33,2.33,0,0,1,1.41-2.87,4.46,4.46,0,0,1,1.83,2.77c-1.14.27-.67,1.17-.72,1.86Z"/><path class="cls-1" d="M69.6,149.11l0,1-12.9-5,0-.71C61,145.85,65.38,147.28,69.6,149.11Z"/><path class="cls-1" d="M57,107.13c1.4,0,.1,1.39,1,1.81,1.54.7-.07,1.2-.28,1.79-.52,1.47-1.21,0-1.8,0-1.42,0-.58-1.66-1.27-2.43-.25-.28.36-1.41,1.15-1.74.1,0,.3.16.45.25.08.31-.13.79.38.86C56.95,107.69,57,107.36,57,107.13Z"/><path class="cls-1" d="M88.94,142.61c-1.27.76-2.57,1.48-3.81,2.29-1.66,1.09-.21,2.49-.25,3.73,0,.58.58,1.16.5,1.85a13.77,13.77,0,0,1-2.87-5c1.87-.55,3.26-1.91,4.84-2.92.51-.32.92-.75,1.57-.7Z"/><path class="cls-1" d="M61.06,132.2c-.65,0-.89-.28-.5-.88a18.87,18.87,0,0,1,2.83-3.41c.6-.56,1-.22,1.14.41C64.73,129.26,62,132.26,61.06,132.2Z"/><path class="cls-1" d="M63.15,73.74c-.82.91-.56,2.28-1.39,3.18l-.47-1.14c-.28-.69-1-1.42-.44-2.1S62.38,73.41,63.15,73.74Z"/><path class="cls-1" d="M59,136.25c.13.48-.2.65-.69.58-.76-.11-1.33-.44-1.29-1.36,0-.56,0-1.12.81-1.06C59,134.48,58.74,135.47,59,136.25Z"/><path class="cls-1" d="M48.13,133.21c-.68-.18-1.22-.49-1.13-1.32,0-.42-.16-1.06.64-.94s1.24.39,1.15,1.25C48.74,132.66,48.85,133.2,48.13,133.21Z"/><path class="cls-1" d="M51.39,134.09c-1.5,0-2-.6-1.88-1.77,0-.35.05-.8.55-.65s1.25.29,1.08,1.1A1.45,1.45,0,0,0,51.39,134.09Z"/><path class="cls-1" d="M53.44,134.73c-1.09.14-1.56-.32-1.41-1.42.07-.57.33-.64.85-.51,1.3.33,1,1.09.59,1.91Z"/><path class="cls-1" d="M55.91,135.89c-.7-.28-1.29-.64-1.33-1.47,0-.38.12-.76.57-.71.69.09,1.26.4,1.18,1.24C56.28,135.28,56.57,135.81,55.91,135.89Z"/><path class="cls-1" d="M60.67,121.09c0-.69-.43-1.59.72-1.86.4.31,1,.65.87,1.16C62.06,121.1,61.27,121,60.67,121.09Z"/><path class="cls-1" d="M85.37,150.48a2,2,0,0,1,1,1.84C85.49,152,85.39,151.28,85.37,150.48Z"/><path class="cls-1" d="M57,107.13c0,.23-.08.56-.35.52-.51-.07-.3-.55-.38-.86A.68.68,0,0,1,57,107.13Z"/><path class="cls-1" d="M78.55,152.31c-.46.31-.29-.15-.37-.3Z"/><path class="cls-1" d="M76.73,151.57l-.32-.27Z"/><path class="cls-1" d="M53.46,134.7l.14.17-.16-.14Z"/><path class="cls-1" d="M79.63,152.64l-.36-.3Z"/><path class="cls-1" d="M73.93,75.49l.33.43Z"/><path class="cls-1" d="M117.33,85.24l0,1.06c-2.56,1.16-5,2.48-7.63,3.56-1,.42-2.48,0-3,1.54-.11.33-.5,0-.74-.16a5.17,5.17,0,0,0-4.87-.6c-2,.66-4.06.42-6.09.66-1.26.15-.83-1-1.29-1.7-1.12,1.72-2.85,1.23-4.44,1.37-.73.07-1.74-.55-2.11.68l-.66,0c-.74-1-1.48-1-2.24,0a14.51,14.51,0,0,0-3.51-.32c-.43-1.2-1.45-.48-2.19-.66-.37-.1-.94.16-1-.55a19.56,19.56,0,0,0,9.91-3.82,21.06,21.06,0,0,0,4.29-2c.51-.25,1-.8,1.54-.13.17,1.11-.68,2.52.94,3.21.16.53,0,1.31,1,1,3-.9,6.26-1.13,9.14-2.59.32-.16,1,0,.85-.68a1.19,1.19,0,0,0-.87-.83c-2.19-.71-4.37-1.43-6.58-2.08a3.29,3.29,0,0,0-3.59,2.08l-.33-.45q.13-2.57.26-5.14l.16,0c1.78,1,2.76-.53,4-1.28a6.06,6.06,0,0,0,3.51-1.48l.05,0a.61.61,0,0,0,.66-.32l.06,0c1.72-.71,3.61-1.1,5-2.45a4.43,4.43,0,0,0,2.56-2.72,26.6,26.6,0,0,0,2-8.77c-.06-2.27.41-4.57-.25-6.82a26.12,26.12,0,0,0-2.36-10c-.91-2.14-.91-2.12-3.1-1.26-2.93,1.16-5.87,2.3-8.81,3.44l-.58-.72.37-.32c3.36-1.34,6.74-2.63,10.07-4.05,1.12-.48,1.6-.21,2,.82.36.86.43,1.87,1.19,2.54.13.58.21,1.17.39,1.73a35.94,35.94,0,0,1,1.56,15.64c-.16,1.31-.9,2.75-.1,4.13a17.25,17.25,0,0,1-2.33,5.75A2.83,2.83,0,0,1,109,73.61c-2.6,1.21-5.18,2.44-7.78,3.64q-3,1.39-6,2.72c-.73.32-1.12.88-.78,1.54.45.89,1,.06,1.47-.14,2.06-.93,4.09-1.94,6.15-2.88.42-.19,1.09-.94,1.31.24-.16.43-.55.59-.91.81s-1.2.33-1.12,1,.88.47,1.34.6C107.53,82.53,112.43,83.88,117.33,85.24Z"/><path class="cls-1" d="M93.25,110.33c1-.18.7-1,.71-1.57,0-2.68,0-5.36,0-8.06.16,0,.33,0,.34,0a23.51,23.51,0,0,0,1.21,3.51,3.74,3.74,0,0,1-.25,4.43c-.5.63.5.94,1,1.14s1.17.55.85,1.27c-1.07,2.41-.63,5-.94,7.5,0,.06,0,.14,0,.17,1.75,2.44,0,5.14.46,7.73a5.43,5.43,0,0,1-.59,4c-.44.61,1,1.28.31,2.26a5.56,5.56,0,0,0-.19,1.51c-.31,2.72-.66,3-3.55,3.31-.27-1.86.33-3.66.31-5.51,0-3.76,0-7.52,0-11.28,0-.63-.23-1.33.32-1.87a15.88,15.88,0,0,0,0-7.54Z"/><path class="cls-1" d="M93.23,118.93c-.55.55-.32,1.24-.32,1.87,0,3.76-.05,7.52,0,11.28,0,1.85-.58,3.66-.31,5.51-1.52.32-1.07-.93-1.07-1.54,0-2.59,0-5.18.12-7.77.32-9.41.14-18.82.17-28.23,0-.79.61-1.59,0-2.38.88-.28.43-1.84,1.69-1.75-.32,4.79-.25,9.59-.25,14.39q0,.53,0,1.06Q93.24,115.16,93.23,118.93Z"/><path class="cls-1" d="M90,141.05a1,1,0,0,1,.94-1c.67-.15.6-1,1.18-1.25.1.06.28.11.28.17.09,4.67.44,9.34-.22,14-.7-.07-1.11.17-1.09,1s0,1.5,0,2.26c-.76,1.52-1.93.2-2.88.41C89.26,151.49,89.14,146.21,90,141.05Z"/><path class="cls-1" d="M105.38,127.47c-.19-2.37-1.42-.91-2.23-.75-.13-.93.6-1.35.83-2s1.11-1.26-.29-1.72c-.61-.2.16-.77.15-1.18,0-.78,2-1.74-.18-2.39a1.43,1.43,0,0,1,.11-1c.82-1,1-2.25,1.6-3.45.92.41,1.09,1.43,1.8,1.94a.56.56,0,0,1-.06,1c-1.24.63-1,1.27-.11,2,.45.39.78.9.07,1.28-1.35.71-.8,1.4,0,2,1,.72.82,1.23-.19,1.54C105.64,125.17,105.88,126.36,105.38,127.47Z"/><path class="cls-1" d="M115.28,135.13c-.07,1.95-.26,3.9-.18,5.84.06,1.46-.43,1.83-1.73,1.4-.89-1.87,0-3.73,0-5.6,0-2.94.47-5.88.6-8.83,0-1.07.71-1.36,1.42-1.77.23-.13.3-.06.35.12a3.52,3.52,0,0,1,.07.53c.09,2.51-.85,5-.12,7.52C115.26,134.41,115.13,134.69,115.28,135.13Z"/><path class="cls-1" d="M86.48,91.63l.66,0,2.48.07c.11.18.19.47.33.5.36.09.4-.25.49-.5.95,0,1.85.5,2.82.31l.34,0q0,1.08-.08,2.16c-.92.08-1.92-.39-2.77.33H90c-.21-1.24-1.34-.72-2-.94-1.54-.5-3.1-1.14-4.8-.84A4.63,4.63,0,0,1,80.69,92l-.38-.61.42-.15a14.49,14.49,0,0,1,3.51.32Z"/><path class="cls-1" d="M98.71,92.68c.27,2.82-2,3-3.64,4-.33.21-.76.47-.89.09a7.11,7.11,0,0,1-.08-3.51c.15-.9.89-.56,1.42-.6C96.7,92.6,97.91,92.19,98.71,92.68Z"/><path class="cls-1" d="M90,141.05c-.88,5.16-.76,10.44-1.79,15.58l-.38.3c0-4.81,1.24-9.51,1.1-14.33l0-.76A1.58,1.58,0,0,1,90,141.05Z"/><path class="cls-1" d="M90.75,94.56c.85-.73,1.84-.25,2.77-.33q0,.85,0,1.7c-1.27-.09-.81,1.47-1.69,1.75a1.61,1.61,0,0,1-.34.1A3.27,3.27,0,0,0,90.75,94.56Z"/><path class="cls-1" d="M91.1,156.23c0-.75,0-1.51,0-2.26s.39-1,1.09-1v.69c-.35.24-.37.48,0,.72C92.1,155.19,92.59,156.3,91.1,156.23Z"/><path class="cls-1" d="M116.2,122.16a1.59,1.59,0,0,1,0,2.16A1.77,1.77,0,0,1,116.2,122.16Z"/><path class="cls-1" d="M90.44,91.73c-.08.25-.13.6-.49.5-.15,0-.22-.33-.33-.5Z"/><path class="cls-1" d="M92.18,154.43c-.36-.24-.35-.48,0-.72Z"/><path class="cls-1" d="M93.59,92.07l-.34,0C93.4,91.78,93.51,91.79,93.59,92.07Z"/><path class="cls-1" d="M68.13,26.37q0-.55,0-1.1l.5-.67c3.25-1.67,6.34-3.63,9.81-5-2.85-1.85-5.39-1.46-8.13,0-1.56.85-3.12,2-5,2.08-1.07-2.46-.58-5.05-.68-7.6,0-.83.44-1.08,1.15-.87,4.66,1.39,9.48,2.15,14.11,3.68a18.29,18.29,0,0,0,5.41.85c1.49,0,2.89,1,4.46,1.34,7.76,1.46,15.46,3.2,23.31,4.15l-.39.71a53.48,53.48,0,0,0-11,4.1l1.28,1.22c0,1-1.17.6-1.42,1.28-1.35.54-2.93.56-4.43,1.86a9.34,9.34,0,0,0,4.45-1.36c1,.15,1.68-.71,2.61-.7l2,2.61c-.12.69-.52.64-1,.39-1.52-.78-2.11-.08-2.2,1.4-2.51-1.12-5-2.5-7.49.09V32.75l-.81,1.58c-.8-.48-.25-1.81-1.45-2.11,1.1.17,2.29.34,2.39-1,.07-.92-1-.32-1.54-.5-.69-.32-1.32-.85-2.16-.7-.22-.41-.62-.35-1-.36l-1.2,0-.42-.69.49-.4A12.09,12.09,0,0,0,95.85,27c-.29-1.18-1.62-1.17-2.31-2.5a38.87,38.87,0,0,1,5.82,3.2c.39.25.81.81,1.2.29s-.28-.84-.61-1.11a21.9,21.9,0,0,0-9-4.27c-1.12-.25-2.64-1.09-3.57-.18s-1.83.85-2.79,1.19c-1.56.54-3.64.32-4.3,2.48h-1.2l-.11,0c-1.14-1.72-2.69-1-4.16-.81a5.22,5.22,0,0,0,2.66.82c-1.25,1.38-2.82,1.29-4.42.94-.62-.14-1.22-.51-1.78.13Zm26.94,2.32c-.26.32-1.08.59-.49,1.06s1.59.13,2.39-.12c.34-.11.83-.24.76-.62-.13-.76-1-.44-1.43-.79C95.85,28.25,95.31,28.07,95.07,28.69Z"/><path class="cls-1" d="M65.26,21.7c1.93-.07,3.48-1.22,5-2.08,2.73-1.49,5.28-1.88,8.13,0-3.47,1.38-6.56,3.34-9.81,5-.7-.12-1.39-.26-2.1-.34s-1.35,0-1.16,1c-.59-.08-.79-.47-.78-1l.33-.37C65,23.15,64.63,22.35,65.26,21.7Z"/><path class="cls-1" d="M64.92,23.88l-.33.37a2.38,2.38,0,0,1-1.71.32q-9-2.16-18.08-4.34a4,4,0,0,1-1-.64l1.08-.71a3.36,3.36,0,0,1,3,.51C51.27,21.49,55.16,22,59,22.75c1.12.21,2.12.72,3.26.88,1,.13,1.72.42,1.77-1.22Z"/><path class="cls-1" d="M85.35,66.58c-1.56-.66-2.63-2-3.88-3a7.19,7.19,0,0,0-.61-1.28,22.08,22.08,0,0,1-3.81-7.8c-.48-1.92-1.44-2.1-3.08-1.77a112.13,112.13,0,0,1-11.58,1.7L58.5,47.66c-.05-.91.83-1.08,1.29-1.57,1.42-1.51,3.47-2.22,4.83-3.81C69.1,40.95,73,42.37,76.55,45c-1,2-.56,4.15-.23,6.21.15.92,1.15.75,1.81.58,1.09-.27,2.15-.7,3.22-1.06l.47,0a26.52,26.52,0,0,1,3.95,13.09A9.51,9.51,0,0,1,85.35,66.58Z"/><path class="cls-1" d="M62.39,54.41A112.13,112.13,0,0,0,74,52.71c1.64-.33,2.6-.15,3.08,1.77a22.08,22.08,0,0,0,3.81,7.8,7.19,7.19,0,0,1,.61,1.28c-2.18-.75-3.49-2.63-5.16-4-1.3-1.1-2.38-2.46-3.67-3.57a5.36,5.36,0,0,0-5.42-1.17,12.81,12.81,0,0,1-4.59.25Z"/><path class="cls-1" d="M64.63,42.28c-1.37,1.58-3.42,2.3-4.83,3.81-.46.49-1.34.66-1.29,1.57-1.45-1.45-2-3.43-3.1-5.09.3-.36.59-.15.88,0,.74.42.3,2.76,2.17,1.34.7,1.09,1.54.83,2.43.26C62.08,43.43,63.09,42.35,64.63,42.28Z"/><path class="cls-1" d="M58.46,43.92C56.59,45.33,57,43,56.29,42.58L56,40.75l.09-.14-.08.15A7.49,7.49,0,0,1,53,35.94c-.15-1.57,1.71-3,3.19-3.45,2.8-.91,5.41-2.51,8.47-2.59a.45.45,0,0,1,.23,0c.22.34.3.17.34-.1l2.2.19c.18,1,1,.55,1.58.7s1.28.56,1.19,1.32-.87.83-1.54.77a3.71,3.71,0,0,1-.68-.2c-.62-.18-.9.1-.91.7s.07.91.77.9c1.15,0,1.16,0,1.16.25,0,.94-.64.87-1.33.91-1.53.09-3.13-.38-4.57.53,1.12.09,2.19-.37,3.31-.19.68.11,1.41-.23,2,.36s-.09,1.36-.09,1.81c.8.78,1.76-.34,2.1.32.5,1-1.18.79-1.23,1.64a1.78,1.78,0,0,1,0,.18,34.15,34.15,0,0,0-3.73,0A9.23,9.23,0,0,0,58.46,43.92Zm5.23-7c1.32-.34,2.69.07,4-.33C66.35,36.62,65,36.16,63.69,36.9Zm-1.06.17c-.1,0-.22-.14-.29-.11s-.09.18-.13.28.22.14.29.11S62.58,37.17,62.62,37.07ZM66,37.8l.14-.08s-.08-.09-.13-.09-.09,0-.14.07Z"/><path class="cls-1" d="M68.13,26.37l3.18.79c.29.35.7.33,1.09.38,0,.78-1.41.78-1,1.79H70.28l-5.07-.07c1.16-.7.26-1-.26-1.39v-.36a2,2,0,0,0,1.84-.73A1.19,1.19,0,0,1,68.13,26.37Z"/><path class="cls-1" d="M65.21,29.27l5.07.07V30L67.45,30l-2.2-.19-.34.1a.45.45,0,0,0-.23,0C64.63,29.51,64.87,29.34,65.21,29.27Z"/><path class="cls-1" d="M63.88,28.23a2.36,2.36,0,0,1-2.13,1,2.45,2.45,0,0,1,2.08-1.07Z"/><path class="cls-1" d="M63.83,28.17a.78.78,0,0,1,.72-.35l0,0-.71.37Z"/><path class="cls-1" d="M64.94,27.49v.38h-.36l0,0Z"/><path class="cls-1" d="M98.28,156.23l.07-.14-.08.13Z"/><path class="cls-1" d="M117.33,85.24c-4.9-1.37-9.8-2.72-14.68-4.12-.46-.13-1.26.07-1.34-.6s.69-.71,1.12-1,.74-.38.91-.8a8.92,8.92,0,0,0,2.75-1.24c5.91-3.95,8.17-9.93,8.94-16.58A39.05,39.05,0,0,0,112.82,44c.63-.42,0-1,.16-1.46s-.23-1.3.68-1.39,1.08.52,1.12,1.26.49,1.34,1.41,1.95a41.52,41.52,0,0,0-.15-5.56c-.38-2.59-.48-4.18,1.55-5.28l.22,3.63a53.31,53.31,0,0,0,0,8.26,36.55,36.55,0,0,0,0,5.68l-.13,1.47-.25.17.25.16.08,3.62q0,9.08-.06,18.15Z"/><path class="cls-1" d="M117.78,51.13a36.55,36.55,0,0,1,0-5.68C118.62,46.62,118.6,50,117.78,51.13Z"/><path class="cls-1" d="M117.65,52.92l-.25-.16.25-.17A1.17,1.17,0,0,1,117.65,52.92Z"/><path class="cls-1" d="M117.58,33.55c-2,1.1-1.93,2.69-1.55,5.28a41.52,41.52,0,0,1,.15,5.56c-.92-.61-1.37-1.14-1.41-1.95s-.25-1.34-1.12-1.26-.55.86-.68,1.39.47,1-.16,1.46l-2.56-5A11.93,11.93,0,0,0,108,35.37,5.25,5.25,0,0,0,106.13,33l-2-2.61a26.64,26.64,0,0,1,3.35-1.62c2.93-1,5.82-2.06,8.72-3.1H117c-.14.67.28,1.24.35,1.88l-.26.93a.31.31,0,0,0,.22.44.79.79,0,0,1,.33.73c-.23.85-1.36,1.69,0,2.54Z"/><path class="cls-1" d="M102.91,29.29l-1.28-1.22a53.48,53.48,0,0,1,11-4.1,5.09,5.09,0,0,1,2.15.23l.7.07.67.11-.46.88c-1.61.18-3,1.09-4.53,1.49C108.38,27.48,105.82,29,102.91,29.29Z"/><path class="cls-1" d="M102.91,29.29c2.92-.31,5.47-1.81,8.27-2.53,1.54-.4,2.91-1.31,4.53-1.49l.5.39c-2.91,1-5.8,2.12-8.72,3.1a26.64,26.64,0,0,0-3.35,1.62c-.94,0-1.64.86-2.61.7l0-.5C101.73,29.89,102.91,30.25,102.91,29.29Z"/><path class="cls-1" d="M117.61,32.17c-1.35-.85-.23-1.7,0-2.54A7.48,7.48,0,0,1,117.61,32.17Z"/><path class="cls-1" d="M116.16,24.38l-.67-.11-.38-.38c.57-.6,1.24-.42,1.93-.3C116.94,24.12,116.43,24.11,116.16,24.38Z"/><path class="cls-1" d="M117.33,27.53c-.08-.63-.49-1.2-.35-1.88C118.14,26.08,117.59,26.84,117.33,27.53Z"/><path class="cls-1" d="M115.1,23.89l.38.38-.7-.07Z"/><path class="cls-1" d="M117.29,28.9a.31.31,0,0,1-.22-.44Z"/><path class="cls-1" d="M115.28,135.13c-.15-.44,0-.71.45-.8.52.21.45.68.49,1.1Z"/><path class="cls-1" d="M65.36,25.27c-.19-1,.43-1.1,1.16-1s1.4.23,2.1.34l-.5.67C67.2,25.85,66.28,25.24,65.36,25.27Z"/><path class="cls-1" d="M67.45,30,70.27,30l5,1.48a30.09,30.09,0,0,1,6.27,4c-.18.46,0,.75.35,1.08.82.77,1.57,1.6,2.35,2.41a2.82,2.82,0,0,0,.33.81,43.79,43.79,0,0,1,8.63,15.46c.18.57.31,1.17,1,1.36l.09,5A4.34,4.34,0,0,0,94,63.83q-.07,6.72-.14,13.44c-.68.15-.86.69-1.09,1.27a20.12,20.12,0,0,1-3.67,5.66c-.57.66-1.44,1.09-1.64,2.06a19.56,19.56,0,0,1-9.91,3.82c-1.43-.17-2.9.06-4.29-.46-2.15-.15-2.87-1.53-3.54-3.4a12,12,0,0,0-2.33-3.42,9.92,9.92,0,0,1-2.07-5.07c2,.58,3.62,1.78,5.54,2.19a34.22,34.22,0,0,0,5.69.26c.22,0,.58,0,.66-.18,1.46-2.46,4.5-2.89,6.29-4.95a12.53,12.53,0,0,0,3.22-7.33,27.53,27.53,0,0,0-3.44-16.24c-.35-.61-.78-1.18-1.17-1.77a5.6,5.6,0,0,0-.46-.94A22,22,0,0,0,69.23,40a1.78,1.78,0,0,0,0-.18c0-.85,1.73-.67,1.23-1.64-.34-.66-1.31.46-2.1-.32,0-.45.81-1.12.09-1.81s-1.35-.26-2-.36c-1.12-.18-2.2.28-3.31.19,1.43-.91,3-.44,4.57-.53.69,0,1.32,0,1.33-.91,0-.23,0-.27-1.16-.25-.7,0-.78-.37-.77-.9s.29-.88.91-.7a3.71,3.71,0,0,0,.68.2c.67.06,1.43.11,1.54-.77s-.5-1.14-1.19-1.32S67.63,31.05,67.45,30Z"/><path class="cls-1" d="M69.23,40a22,22,0,0,1,12.47,8.73,5.6,5.6,0,0,1,.46.94l-.34,1-.47,0c-.81-2.57-2.86-4.11-4.8-5.74-3.59-2.59-7.45-4-11.92-2.68-1.53.06-2.55,1.15-3.73,1.9-.89.57-1.73.83-2.43-.26a9.23,9.23,0,0,1,7-3.85A34.15,34.15,0,0,1,69.23,40Z"/><path class="cls-1" d="M83.22,92.78c1.7-.3,3.26.34,4.8.84.66.22,1.79-.3,2,.94a3.35,3.35,0,0,1-2.64-.21,7.78,7.78,0,0,0-3.49-.91C83.47,93.46,83.28,93.17,83.22,92.78Z"/><path class="cls-1" d="M73.29,89.62c1.39.51,2.86.28,4.29.46,0,.7.59.45,1,.55v.69l-.36.09C76.58,90.76,74.63,91,73.29,89.62Z"/><path class="cls-1" d="M78.19,91.4l.36-.09,1.76.12.38.61A1.92,1.92,0,0,1,78.19,91.4Z"/><path class="cls-1" d="M45.27,95.54l.53.36-.16.21-.48-.44Z"/><path class="cls-1" d="M44.9,79.44l.12.2-.21-.12Z"/><path class="cls-1" d="M45.51,89.21,45.39,89l.22.12Z"/><path class="cls-1" d="M54.07,75.28c-.1-.1-.26-.21-.05-.34,0,0,.15.1.23.16Z"/><path class="cls-1" d="M53.76,78.09l-.13-.24.24.13Z"/><path class="cls-1" d="M48.09,128.27l-.17.14.14-.17Z"/><path class="cls-1" d="M97.69,46.91c2.94-1.15,5.88-2.28,8.81-3.44,2.2-.87,2.2-.88,3.1,1.26a26.11,26.11,0,0,1,2.36,10c-1.71.58-2.86,2-4.48,2.8-1.84.87-4.12.06-5.72,1.68-.32.32-.83,0-1.09-.34s0-.87.3-1.07c1-.72,1.2-1.88,1.55-2.91a1.43,1.43,0,0,0-.82-1.79c-.65-.32-1,.39-1.4.5-1.37.4-1.57,2.3-3.16,2.24-.59-.65-.35-1.83-1.41-2.17l0-.7.15-.1a7.9,7.9,0,0,0,.91-5.38Z"/><path class="cls-1" d="M97.15,55.85c1.58.06,1.78-1.84,3.16-2.24.4-.12.75-.83,1.4-.5a1.43,1.43,0,0,1,.82,1.79c-.36,1-.52,2.19-1.55,2.91-.29.2-.65.64-.3,1.07s.77.66,1.09.34c1.6-1.62,3.88-.8,5.72-1.68,1.63-.77,2.77-2.22,4.48-2.8.65,2.25.19,4.55.25,6.82a12.22,12.22,0,0,0-7,3.24c-.25-1.1-.81-2.28-2-1.94a1.66,1.66,0,0,0-.48,2.55L98.3,66.57A46.75,46.75,0,0,0,97.15,55.85Z"/><path class="cls-1" d="M105.19,64.8a12.22,12.22,0,0,1,7-3.24,26.61,26.61,0,0,1-2,8.77,4.43,4.43,0,0,1-2.56,2.72,10.61,10.61,0,0,0-5,2.45l-.06,0a.68.68,0,0,0-.66.32l-.05,0c-1,.11-2,.55-2.94-.11a2.17,2.17,0,0,1,1.44-2.53c.37.68-.4,1.33-.06,2.09,1.17-.88.7-2.32,1.3-3.35l.12-.22-.22.12-.62.36-.23-.56c.67-.69,1.21-1.55.38-2.31s-1.2.24-1.63.77c-1-.1-1.28.65-1.51,1.42h-.26l.72-5,4.42-1.17c.69.46,2.88-1,2,1.5-.14.38-.48.77-.14,1.15s.77.25,1.18.19c.58-.09.7-.52.78-1A2.41,2.41,0,0,0,105.19,64.8Z"/><path class="cls-1" d="M110.25,39l2.56,5A39.06,39.06,0,0,1,115,60.93c-.77,6.65-3,12.63-8.94,16.58a8.92,8.92,0,0,1-2.75,1.24c-.22-1.19-.89-.44-1.31-.24-2.06.93-4.09,1.95-6.15,2.88-.45.2-1,1-1.47.14-.34-.67,0-1.23.78-1.54q3-1.33,6-2.72c2.6-1.2,5.18-2.43,7.78-3.64a2.83,2.83,0,0,0,1.29-1.17,17.25,17.25,0,0,0,2.33-5.75,31.61,31.61,0,0,0-1.11-21.57l0-.65c.09-.45,0-.77-.54-.83l-.14-1-.21-.38-1.21-2.54A.9.9,0,0,0,110.25,39Z"/><path class="cls-1" d="M109.37,39.68l1.21,2.54.21.38.14,1c-.18.51.13.7.54.84l0,.65-.74.07c-.76-.67-.82-1.68-1.19-2.54-.43-1-.91-1.3-2-.82-3.32,1.42-6.71,2.71-10.07,4,.25-1.59-.45-3.11-.33-4.68,1,.28,2.08.9,2.93-.16s.3-2-.26-3l-.17-.31c.21-.81,1-.7,1.56-.94.82-.37,1.61-.71,1.84-1.7a2.43,2.43,0,0,0,1.69.95C106.56,36.91,108.38,37.77,109.37,39.68Z"/><path class="cls-1" d="M94.24,84.21a3.29,3.29,0,0,1,3.59-2.08c2.21.65,4.39,1.37,6.58,2.08a1.19,1.19,0,0,1,.87.83c.12.63-.52.51-.85.68-2.88,1.46-6.11,1.68-9.14,2.59-1,.29-.87-.49-1-1Q94.25,85.75,94.24,84.21Z"/><path class="cls-1" d="M87.5,86.25c.2-1,1.07-1.4,1.64-2.06a20.12,20.12,0,0,0,3.67-5.66c.23-.58.41-1.12,1.09-1.27l.16.93.12.43-.26,5.14-.59.32c-.57-.67-1-.13-1.54.13A21.06,21.06,0,0,1,87.5,86.25Z"/><path class="cls-1" d="M110.77,45.18l.74-.07a31.61,31.61,0,0,1,1.11,21.57c-.8-1.38-.07-2.81.1-4.13a35.94,35.94,0,0,0-1.56-15.64C111,46.35,110.9,45.75,110.77,45.18Z"/><path class="cls-1" d="M97.58,71.57h.26a6.36,6.36,0,0,0-.33,2.54c-1,.59-.48,1.33-.22,2.05-1.1,1.58.34,1,1,1.14l.06.07c-1.22.75-2.2,2.26-4,1.28,1.73-2,2.17-4.45,2.5-6.95a1,1,0,0,1,.29-.17Z"/><path class="cls-1" d="M96.83,71.71c-.33,2.5-.77,5-2.5,6.95l-.16,0-.12-.43,2.08-6.62Z"/><path class="cls-1" d="M97.15,41.18c-.12,1.58.59,3.1.34,4.68l-.37.32-1,.15c-.24-1.91.28-3.76.42-5.64h.09l.09,0Z"/><path class="cls-1" d="M93.32,84.08l.59-.32.33.45q0,1.54,0,3.08C92.64,86.6,93.49,85.19,93.32,84.08Z"/><path class="cls-1" d="M102.6,75.5a10.61,10.61,0,0,1,5-2.45C106.2,74.41,104.32,74.79,102.6,75.5Z"/><path class="cls-1" d="M96.16,46.35l1-.16.58.72-.92.6L95.15,48a1,1,0,0,1,.63-1.31Z"/><path class="cls-1" d="M98.88,75.78c1,.66,2,.22,2.94.11a6.06,6.06,0,0,1-3.51,1.48l-.06-.07c.25-.48.85-.79.69-1.46Z"/><path class="cls-1" d="M80.31,91.43l-1.76-.12v-.69c.74.18,1.75-.54,2.19.66Z"/><path class="cls-1" d="M86.48,91.63l-2.24,0C85,90.63,85.75,90.6,86.48,91.63Z"/><path class="cls-1" d="M101.88,75.86a.68.68,0,0,1,.66-.32A.61.61,0,0,1,101.88,75.86Z"/><path class="cls-1" d="M93.23,118.93q0-3.77,0-7.54A15.88,15.88,0,0,1,93.23,118.93Z"/><path class="cls-1" d="M80.32,26.08c.65-2.16,2.73-1.94,4.3-2.48,1-.33,1.91-.31,2.79-1.19s2.45-.07,3.57.18a21.9,21.9,0,0,1,9,4.27c.33.26,1,.62.61,1.11s-.81,0-1.2-.29a38.87,38.87,0,0,0-5.82-3.2c.69,1.32,2,1.32,2.31,2.5a12.09,12.09,0,0,1-6.12,1.58,3.35,3.35,0,0,0-3.26-2.44c-.94,0-1.43.38-1.09,1.4Z"/><path class="cls-1" d="M84.29,39c-.78-.81-1.53-1.64-2.35-2.41-.35-.33-.53-.62-.35-1.08,3.23-.47,6-2.14,9.15-3.19-1.27-1.14-2.47-.3-3.59-.49.21-.49.13-.76-.48-.68A1.47,1.47,0,0,1,85,30.46l.6-1.13.54.3a4.12,4.12,0,0,0,4.74,0c.37,0,.77,0,1,.36-.17.39-.78.33-.84.88,1,.59,2,.79,3-.17.53.18,1.61-.42,1.54.5-.1,1.33-1.29,1.16-2.39,1,1.19.3.65,1.63,1.45,2.11,0,.22,0,.43,0,.65l-.27,0L94,34.85c-.13-.14-.24-.11-.34,0-1.31.73-2.92.82-4.07,1.9C87.81,37.53,85.69,37.37,84.29,39Z"/><path class="cls-1" d="M85.58,29.33,85,30.46l-.69-.16c-.62-1.41-1.67-.93-2.67-.61l1.2,1c0,.65.6.93,1,1.4-1,.24-1.72,1.17-2.8.52a2.22,2.22,0,0,0-1.7-.87,1.44,1.44,0,0,0-1.46-.65l0,0c-.14-.26-.24-.64-.65-.29-1-1.05-2.4-1.1-3.6-1.65-.14-.06-1.47.17-.33-.78.52-.43-.27-.78-.83-.78-.39-.06-.81,0-1.09-.38.55-.64,1.15-.27,1.78-.13,1.6.35,3.18.44,4.42-.94H79l.11,0c1.93,1.15,4.19,1.31,6.23,2.12h.13Zm-4.68.29c-1-1.09-1.67-1.19-2.5-.5Z"/><path class="cls-1" d="M94.61,35q0-.32,0-.65l.81-1.58c0,1,0,1.54,0,2.11s0,1,0,1.54q0,1.54,0,3.09l-.11.42,0,.42a.31.31,0,0,0,0,.52,16.69,16.69,0,0,0-.11,4.57l.13.42a.87.87,0,0,0,.5.85A1,1,0,0,0,95.15,48a9,9,0,0,0,.72,4.89l-.15.1c-1.29,1-.68,2.32-.48,3.52.61,3.7,1.41,7.37,1.13,11.16h-.94l-.08-3.85c0-.9.48-2-1-2.25q0-2.48-.09-5a6.53,6.53,0,0,0-.53-4.16,2.8,2.8,0,0,0-.19-3.27c-.52-.64-.78-1.49.42-2,.64-.25.4-.9.4-1.42l0-3.53a11.64,11.64,0,0,0-.07-5.78l.07-.41C94.75,35.76,94.69,35.37,94.61,35Z"/><path class="cls-1" d="M95.43,36.39q0-.77,0-1.54c2.47-2.59,5-1.21,7.49-.09l.14.35c-.23,1-1,1.33-1.84,1.7-.55.25-1.34.13-1.55.94l-.24,0A3.67,3.67,0,0,0,95.43,36.39Z"/><path class="cls-1" d="M103.05,35.12l-.14-.35c.09-1.48.68-2.18,2.2-1.4.49.25.89.3,1-.39A5.25,5.25,0,0,1,108,35.37a1.17,1.17,0,0,1-1.43-.08c-.85-.53-1.58-.37-1.79.78A2.43,2.43,0,0,1,103.05,35.12Z"/><path class="cls-1" d="M85.37,27.51c-.34-1,.16-1.41,1.09-1.4a3.35,3.35,0,0,1,3.26,2.44l-.49.4c-1.33.15-2.43-.88-3.76-.76h-.13Z"/><path class="cls-1" d="M96.31,28.22c.44.36,1.3,0,1.43.79.06.38-.42.51-.76.62-.79.25-1.68.67-2.39.12s.23-.73.49-1.06C95.51,28.6,96,28.63,96.31,28.22Z"/><path class="cls-1" d="M85.37,27.51l0,.68c-2-.81-4.3-1-6.23-2.12h1.2Z"/><path class="cls-1" d="M79,26.08h-1.5a5.22,5.22,0,0,1-2.66-.81C76.32,25.07,77.87,24.37,79,26.08Z"/><path class="cls-1" d="M101.49,30.57l0,.5a9.33,9.33,0,0,1-4.45,1.36C98.56,31.13,100.13,31.1,101.49,30.57Z"/><path class="cls-1" d="M90.86,29.66a4.12,4.12,0,0,1-4.74,0c1.18-.9,2.36.07,3.54,0Z"/><path class="cls-1" d="M89.66,29.64c-1.18.06-2.36-.9-3.54,0l-.54-.3-.1-1.14c1.33-.13,2.42.91,3.76.76Z"/><path class="cls-1" d="M94,30.72c-1,1-2,.76-3,.17.06-.55.67-.49.84-.88C92.69,29.88,93.32,30.4,94,30.72Z"/><path class="cls-1" d="M96.31,28.22c-.31.41-.8.38-1.23.47C95.31,28.07,95.85,28.25,96.31,28.22Z"/><path class="cls-1" d="M76.55,45c1.94,1.63,4,3.17,4.8,5.74-1.07.36-2.12.78-3.22,1.06-.66.17-1.66.34-1.81-.58C76,49.11,75.55,47,76.55,45Z"/><path class="cls-1" d="M63.69,36.9c1.28-.75,2.66-.28,4-.33C66.37,37,65,36.57,63.69,36.9Z"/><path class="cls-1" d="M62.62,37.07c0,.1-.06.25-.13.28s-.19-.07-.29-.11.06-.25.13-.28S62.52,37,62.62,37.07Z"/><path class="cls-1" d="M66,37.8l-.12-.1s.1-.07.14-.07.08.06.13.09Z"/><path class="cls-1" d="M64.91,29.94l.34-.1C65.2,30.12,65.12,30.28,64.91,29.94Z"/><path class="cls-1" d="M56,40.76l.08-.15-.09.14Z"/><path class="cls-1" d="M72.41,27.54c.56,0,1.35.35.83.78-1.15,1,.19.72.33.78,1.2.55,2.62.6,3.6,1.65.14.27.4.28.65.29l0,0,.65.73c-.94.18-1.57-.61-2.41-.75-1.37-1.16-3.22-1-4.73-1.72C71,28.32,72.38,28.33,72.41,27.54Z"/><path class="cls-1" d="M71.37,29.34c1.51.75,3.37.57,4.73,1.72-.31,0-.63,0-.79.38l-5-1.48v-.62Z"/><path class="cls-1" d="M104.74,36.06c.21-1.15.94-1.31,1.79-.78a1.17,1.17,0,0,0,1.43.08A11.93,11.93,0,0,1,110.25,39a.9.9,0,0,1-.88.65C108.38,37.77,106.56,36.91,104.74,36.06Z"/><path class="cls-1" d="M93.72,52.43a6.53,6.53,0,0,1,.53,4.16c-.7-.19-.82-.79-1-1.36a43.79,43.79,0,0,0-8.63-15.46,2.82,2.82,0,0,1-.33-.81c1.4-1.59,3.52-1.42,5.26-2.16a37,37,0,0,1,.5,7,3.21,3.21,0,0,0,1,2.69Z"/><path class="cls-1" d="M75.32,31.43c.16-.34.48-.35.79-.38.84.14,1.47.93,2.41.75h0a.84.84,0,0,0,.8.73l1.73,1h0a2.41,2.41,0,0,0,3.23-.72h0c.46.18.87.19,1.08-.37h0c.75.15,1.44.13,1.81-.71h0c1.12.19,2.32-.64,3.59.49-3.15,1-5.92,2.72-9.15,3.19A30,30,0,0,0,75.32,31.43Z"/><path class="cls-1" d="M95.42,67.65h.94l-.23,3.92-2.08,6.62-.16-.93Q94,70.55,94,63.83a4.34,4.34,0,0,1,.31-2.28c1.48.24,1,1.35,1,2.25-.34,0-.61.1-.62.46,0,2.44,0,4.89,0,7.33C95.36,70.32,94.74,68.89,95.42,67.65Z"/><path class="cls-1" d="M96.13,71.58l.23-3.92c.28-3.79-.51-7.46-1.13-11.16-.2-1.2-.81-2.5.48-3.52l0,.7a39.14,39.14,0,0,1,1.38,17.85,1,1,0,0,0-.29.17Z"/><path class="cls-1" d="M97.12,71.53a39.14,39.14,0,0,0-1.38-17.85c1.06.34.82,1.52,1.41,2.17A46.79,46.79,0,0,1,98.3,66.57l-.72,5Z"/><path class="cls-1" d="M95.86,52.89A9,9,0,0,1,95.15,48l1.63-.49A7.91,7.91,0,0,1,95.86,52.89Z"/><path class="cls-1" d="M105.19,64.8a2.41,2.41,0,0,1,1.3,2.42c-.07.51-.2.94-.78,1-.41.06-.88.14-1.18-.19s0-.77.14-1.15c.93-2.55-1.27-1-2-1.5a1.66,1.66,0,0,1,.48-2.55C104.38,62.51,104.94,63.69,105.19,64.8Z"/><path class="cls-1" d="M97.3,76.17c-.26-.72-.74-1.46.22-2.05l1.55-1.39,1.5-1.05,0,0,.23.56-.51,1a2.17,2.17,0,0,0-1.44,2.53l.06.06A1.88,1.88,0,0,0,97.3,76.17Z"/><path class="cls-1" d="M99.07,72.72l-1.55,1.39a6.35,6.35,0,0,1,.33-2.54c.23-.77.47-1.52,1.51-1.42h0C99.48,71,98,71.74,99.07,72.72Z"/><path class="cls-1" d="M100.61,71.69l0,0a2.21,2.21,0,0,1-.49-1.5l.07-.16-.09.14h-.71c.43-.53.86-1.47,1.63-.77S101.28,71,100.61,71.69Z"/><path class="cls-1" d="M100.32,73.26l.51-1,.62-.36.1.1c-.59,1-.13,2.47-1.3,3.35C99.92,74.59,100.7,73.94,100.32,73.26Z"/><path class="cls-1" d="M101.46,71.9l.22-.12-.12.22Z"/><path class="cls-1" d="M111.47,44.46c-.41-.13-.72-.33-.54-.84C111.44,43.69,111.56,44,111.47,44.46Z"/><path class="cls-1" d="M110.8,42.6l-.21-.38Z"/><path class="cls-1" d="M99.42,37.78l.24,0,.17.31c.56.95,1,2,.26,3s-1.93.44-2.93.16l-.39-.48.62-.77c1.55.33,2-.17,1.22-1.61A.91.91,0,0,0,99.42,37.78Z"/><path class="cls-1" d="M97.3,76.17a1.88,1.88,0,0,1,1.65-.32c.16.67-.44,1-.69,1.46C97.63,77.18,96.2,77.75,97.3,76.17Z"/><path class="cls-1" d="M99.42,37.78a.91.91,0,0,1-.81.55c-.59-.43-1.24-1.28-1.94-.47s0,1.43.58,2l.13.11-.62.77-.09,0h-.09l-.69-.76-.47-.45q0-1.55,0-3.09A3.67,3.67,0,0,1,99.42,37.78Z"/><path class="cls-1" d="M95.89,39.94l.69.76c-.14,1.88-.66,3.73-.42,5.64l-.39.34a.87.87,0,0,1-.5-.85l-.13-.42a16.66,16.66,0,0,1,.11-4.57c0-.17,0-.35,0-.52l0-.42Z"/><path class="cls-1" d="M91.07,46.51a3.21,3.21,0,0,1-1-2.69,37,37,0,0,0-.5-7c1.15-1.08,2.76-1.17,4.07-1.9l.17,0,.16-.07.38.16.05,1.06-.07.41.07,5.78q0,1.76,0,3.53C93.16,45.61,92.17,46.33,91.07,46.51Z"/><path class="cls-1" d="M81,32.6c1.08.65,1.85-.28,2.8-.52-.4-.46-1-.75-1-1.4l1.47-.39.69.16a1.47,1.47,0,0,0,1.69.65c.61-.07.69.2.48.68h0a1.68,1.68,0,0,0-1.81.71h0a.72.72,0,0,0-1.08.37h0c-1.16-.15-2.1.72-3.23.72h0Z"/><path class="cls-1" d="M94.39,36.07,94.34,35l.27,0C94.69,35.37,94.75,35.76,94.39,36.07Z"/><path class="cls-1" d="M94,34.85l-.16.07-.17,0C93.72,34.75,93.83,34.71,94,34.85Z"/><path class="cls-1" d="M84.28,30.3l-1.47.39-1.2-1C82.62,29.37,83.66,28.89,84.28,30.3Z"/><path class="cls-1" d="M81,32.6l.05,1-1.73-1-.11-.7.1-.11A2.22,2.22,0,0,1,81,32.6Z"/><path class="cls-1" d="M80.9,29.62l-2.5-.5C79.23,28.43,79.94,28.53,80.9,29.62Z"/><path class="cls-1" d="M78.52,31.81l-.65-.73a1.45,1.45,0,0,1,1.46.65l-.09.11-.68,0Z"/><path class="cls-1" d="M77.82,31c-.26,0-.51,0-.65-.29C77.58,30.41,77.67,30.79,77.82,31Z"/><path class="cls-1" d="M91.07,46.51c1.11-.18,2.1-.91,3.29-.72,0,.51.24,1.17-.4,1.42-1.2.47-.94,1.32-.42,2a2.8,2.8,0,0,1,.19,3.27Z"/><path class="cls-1" d="M95.42,67.65c-.68,1.24-.06,2.67-.7,3.94,0-2.44,0-4.89,0-7.33,0-.36.28-.48.62-.46Q95.38,65.73,95.42,67.65Z"/><path class="cls-1" d="M94.39,42.26l-.07-5.78A11.65,11.65,0,0,1,94.39,42.26Z"/><path class="cls-1" d="M95.89,39.94l-.57,0,.1-.42Z"/><path class="cls-1" d="M95.27,40.32c0,.17,0,.35,0,.52A.31.31,0,0,1,95.27,40.32Z"/><path class="cls-1" d="M95.14,45.42l.13.42Z"/><path class="cls-1" d="M81.05,33.57c1.13,0,2.07-.87,3.23-.72A2.41,2.41,0,0,1,81.05,33.57Z"/><path class="cls-1" d="M85.35,32.49a1.68,1.68,0,0,1,1.81-.71C86.8,32.61,86.11,32.63,85.35,32.49Z"/><path class="cls-1" d="M84.28,32.85a.72.72,0,0,1,1.08-.37C85.15,33,84.74,33,84.28,32.85Z"/><path class="cls-1" d="M78.54,31.81l.68,0,.11.7A.84.84,0,0,1,78.54,31.81Z"/><path class="cls-1" d="M99.36,70.16h.71l0,0a2.21,2.21,0,0,0,.49,1.5l-1.5,1.05C98,71.74,99.48,71,99.36,70.16Z"/><path class="cls-1" d="M100.06,70.15l.09-.14-.07.16Z"/><path class="cls-1" d="M97.38,39.93l-.13-.11c-.62-.54-1.17-1.28-.58-2s1.34,0,1.94.47C99.38,39.76,98.93,40.27,97.38,39.93Z"/><path class="cls-2" d="M48.23,137c-.35-.37-.83-.24-1.25-.35a2.06,2.06,0,0,1-1.78-2.23c-.08-8.14-.07-16.28-.42-24.41-.31-7.19,0-14.39-.35-21.57-.28-5.52,0-11-.32-16.55-.29-4.9-.28-9.8-.18-14.7a18.17,18.17,0,0,1,3.78,1.22,8.66,8.66,0,0,0,4.55.74c.87-.06,2.09.18,2.69-.94a9.34,9.34,0,0,1,3.37,3.83c.26.5.9,1.07.32,1.65s-1.09-.13-1.59-.38-.91-.88-1.65-.48c.14.88.9,1.26,1.42,1.8a9.31,9.31,0,0,1,2.38,3.19c.11.32.22.69-.08.94s-.62,0-.88-.22c-.58-.43-1.11-.93-1.72-1.32s-1.43-.4-1.25.51c.37,1.84-.09,3.83.68,5.49.67,1.44.15,2.87.29,4.23s-.39,3.19-.62,4.9a3.11,3.11,0,0,1-1.67-1.82,3.9,3.9,0,0,0-1.35-1.87c-.49-.31-1.13-.57-1.29.29s0,2,.71,2.25c2.23.92,2.69,2.78,3.07,4.8.06.3,0,.84.65.86.44-1.24-.53-2.33-.47-3.53.59-.08.76.46,1.15.62s.86.77,1.31.2-.12-.81-.42-1.12a2.12,2.12,0,0,1-.8-1.89c.45-.07.94.46,1.25-.07a1,1,0,0,0-.27-1.21c-.22-.25-.42-.52-.62-.78L57,79c1.25-.41,1.29-.93.18-2.53l.17-.17c1-.77.78-1.49,0-2.25-.36-.33-1.1-.93-.33-1.27,1.88-.85.83-1.71.07-2.42a2.27,2.27,0,0,1-1-2.17c.84.09,1.2.75,1.78,1.05s1.09,1.11,1.91.45.52-1.4.2-2.12A15.76,15.76,0,0,0,59,66.19c-.24-.41-.66-.84-.15-1.33,1.28-1.25.43-2.46-.08-3.66-.32-.76-1-1.3-1.22-2.14.15-.35.46-.41.8-.45l6.81-.74c.85,1.43,1.69,2.87,2.53,4.3l5.19,8.9c.59,2,2.17,3.59,2.81,5.61l.31.4a2.3,2.3,0,0,1,.05.25c-.47.66-1,.2-1.49.07L65.63,75c-.72-.31-1.57-.71-2.15-.06s.15,1.32.41,2L64.32,78c.67,1.38,1.32,2.78,2,4.13,1.63,3.11,3.3,6.21,5,9.32q5.41,10.47,10.8,20.95c.21.42.75.89.36,1.34s-.94.05-1.4-.1l-11.42-3.78c-.47-.15-.94-.46-1.39,0a1.3,1.3,0,0,0-.2,1.42,32.85,32.85,0,0,0,2.33,5.28c2.94,4.62,4.87,9.74,7.59,14.47,2.07,3.6,3.29,7.64,5.74,11a12.87,12.87,0,0,0,2.69,4.69h0c0,.74.11,1.44,1,1.72.06.27.11.54.16.81.09.46.74.89.29,1.33s-.94-.09-1.39-.22A48.17,48.17,0,0,0,81,148.8l-.33-.28-.68,0-.34-.28-1.35-.41-.3-.25c-2.22-.38-4.22-1.46-6.37-2-3.94-1.71-8-3-12.09-4.4-3-1.13-5.84-2.51-9-3A3.84,3.84,0,0,0,48.23,137Zm8.32-5,.15.13-.13-.15c.37-.76.67-1.48-.55-1.78-.49-.12-.73-.05-.8.48C55.09,131.76,55.53,132.19,56.55,132.05Zm2.68-26.12c-.14-.08-.33-.27-.42-.24-.74.31-1.31,1.37-1.08,1.63.65.72-.14,2.3,1.19,2.27.55,0,1.19,1.4,1.68,0,.2-.55,1.71-1,.27-1.67-.87-.4.34-1.73-1-1.69A.63.63,0,0,0,59.23,105.93Zm4.08,13.38c.56-.09,1.3,0,1.48-.66.13-.48-.43-.79-.81-1.09A4.17,4.17,0,0,0,62.27,115c-1-.78-1.59-2-2.72-2.71-.33.51-.08.82,0,1.13.28,1.46-.16,2.35-1.77,2.58A6.94,6.94,0,0,0,55,117.16c-1.26.82-2.53,1.09-3.74-.23a15.37,15.37,0,0,0-1.95-1.56c-.9-.7-1.27-.24-1.43.66a1.33,1.33,0,0,0,.81,1.5,40.88,40.88,0,0,1,6.65,4.72c2.58,2,5,1.38,6.62-1.54ZM51.54,126l0,0c.8-1.3-.56-2.05-.85-3.07-.15-.51-.82-.18-1,.27-.36.88.35,1.8,0,2.76-.08.21,1.06.3,1.34.9,1.37-.64,2.09.61,3.07,1.07,2.34,1.09,5,1.35,7.27,2.58a.76.76,0,0,0,1.22-.62c.09-.59.16-1.49-.7-1.38-1.17.16-.92-.33-.71-1,.1-.34.29-.74-.19-1-.71.29-.07,1.74-1.09,1.49s-.14-1.43-.6-2.58c-.29,2.8-2.29,1.11-3.26,2-.21-.91,1.15-1.5.22-2.32-.74.36-.45,1.31-1.09,1.65-.59-.35.33-.95-.23-1.3-.52.12-.21.91-.87.94l-1.15-2.34C52.2,124.71,52.57,125.83,51.54,126ZM48.48,80.45c-.34,0-.87.16-.8.44.36,1.43-.51,2.83-.09,4.2s1.5,2.26.34,3.73c-.39.49.87,1.64.33,2.09-.69.58-.16,1-.27,1.36-.37,1.33.79,2.06.91,3.15l-.11.12c-.39,0-1,0-.88.48a15.38,15.38,0,0,1,.14,3.26c-.09,1.49.34,3-.15,4.54-.13.4-.31,1.15.35,1.27a1.28,1.28,0,0,0,1.52-.73c.21-.6-.32-1-.5-1.54s-.8-1.05,0-1.21c1.86-.38.89-1.38.63-2.23-.2-.63-.7-1.15-.7-2,.58-.11,2,.35,1.37-.93-1.08-2.23-.16-4.81-1.43-7l.1-.1a2.1,2.1,0,0,1,1.59,1.54c.13.43.06.95.79.62s.58-.68.24-1.05c-.77-.84-.62-1.86-.67-2.85,0-.07-.08-.14-.11-.2-.45.28.08,1-.61,1.1-.48-.68-1-1.35-1.42-2.05a1.72,1.72,0,0,1-.26-.88c1.76-1,.32-1.9-.09-2.83-.26-.6-.35-1.24.62-.95,1.42.42.81-.45.59-.92-.4-.88-1.23-1.58-1.16-2.67.59-.18.79,1.21,1.29.41.32-.5.83-1.47-.28-2a1.88,1.88,0,0,1-.64-.53c-.27-.34-.74-.85-.45-1.15a2.32,2.32,0,0,1,1.5-.48c.41,0,.49.54.7.86s.67.85,1.23.58.43-.95.24-1.46a1.84,1.84,0,0,0-.56-.82c-2.91-2.14-2.87-5.62-3.92-8.6-.13-.38-.27-1,.17-1.23s.89.31,1.2.66a8,8,0,0,1,2,4.68c0,.33,0,.76.46.76s.43-.41.38-.76a9,9,0,0,0-2.42-5.55c-.45-.44-.85-1.17-1.66-.81s-.86,1.11-.8,1.86c0,.44.14.88.18,1.32.15,1.78,1.18,3.33,1.49,5.07-.5.18-.81-.54-1.11-.19s.16.79.38,1.13c.11.18.38.26.5.44.35.51,1.14,1.11-.31,1.27-1.28.14-.67,1-.48,1.63s1,1.28.72,1.55c-1.53,1.25-.14,2.33,0,3.47Zm-.67,51.38a2.38,2.38,0,0,0,1.76,2.4c2.07.81,4.17,1.57,6.28,2.29,1.3.44,1.93-.17,1.7-1.5a2.32,2.32,0,0,0-1.42-1.76c-2.21-.91-4.46-1.73-6.74-2.48C48.41,130.45,47.77,130.89,47.81,131.83Zm4.71-24.18c-.57.49,0,1.33-.82,1.63-1.45.53-.55,1.39,0,1.58,1,.32.72.72.51,1.39-.11.36-.35,1.25.4,1.16a8.15,8.15,0,0,0,3.57-1c.71-.49-.59-1.21-.7-1.93-.08-.49-.21-1-.29-1.46s-.19-.73-.62-.53C53.64,108.91,53.26,107.92,52.52,107.64Zm5.95,28.21c.29.74-.23,1.68.93,2a37.2,37.2,0,0,1,3.93,1.31c1,.37,1.78.37,2.18-.72.27-.72-1-2.49-1.74-2.28-1.7.49-3-.44-4.43-.88C58.63,135.05,58.2,135,58.46,135.85Zm5.21-6.16c.89.05,3.43-2.75,3.24-3.62-.13-.59-.51-.91-1.06-.39a17.64,17.64,0,0,0-2.64,3.19C62.84,129.44,63.06,129.68,63.67,129.69Zm-1.9,3.78c-.26-.73-.06-1.65-1.09-1.73-.73-.05-.73.47-.76,1,0,.86.49,1.17,1.21,1.27C61.58,134.08,61.89,133.92,61.77,133.48Zm-10.18-2.84c.67,0,.57-.51.62-.94.09-.81-.43-1.07-1.07-1.17s-.56.49-.6.88C50.45,130.18,50.95,130.47,51.58,130.64Zm3.05.82a1.36,1.36,0,0,1-.23-1.23c.15-.76-.52-.89-1-1s-.48.28-.52.61C52.74,130.9,53.23,131.45,54.63,131.46Zm4.22,1.68c.62-.07.35-.56.38-.88.08-.78-.45-1.08-1.1-1.16-.42-.05-.55.3-.53.66C57.65,132.54,58.2,132.88,58.85,133.14Z"/><path class="cls-3" d="M98.48,152.69a9.88,9.88,0,0,1-5.18,2.95c-1.84.31-3.77-1-5.58-1.76l0-.64a1.16,1.16,0,0,0,1-.41l.36-.28c.89-.2,2,1,2.69-.38,1.39.07.93-1,1-1.68v-1.32c.62-4.35.29-8.72.21-13.08,0-.05-.17-.1-.26-.16-.53.23-.47,1-1.1,1.17,0-5.45,0-10.91.13-16.36.16-7.73-.34-15.47.35-23.2a1.47,1.47,0,0,0,.32-.09c.55.74,0,1.48,0,2.22,0,8.8.15,17.59-.16,26.39-.08,2.42-.14,4.85-.11,7.27,0,.57-.42,1.74,1,1.44,2.7-.25,3-.55,3.32-3.09a5.19,5.19,0,0,1,.18-1.41c.68-.92-.7-1.55-.29-2.11a5.08,5.08,0,0,0,.56-3.77c-.4-2.42,1.21-4.94-.43-7.23,0,0,0-.11,0-.16.28-2.34-.13-4.75.87-7,.3-.68-.2-1-.79-1.19s-1.4-.47-.93-1.06a3.5,3.5,0,0,0,.24-4.15,22,22,0,0,1-1.13-3.28s-.17,0-.32,0c0,2.52,0,5,0,7.53,0,.56.27,1.3-.66,1.46,0-4.49-.06-9,.24-13.45q0-.8,0-1.59l.07-2c-.08-.26-.18-.27-.31,0-.91.18-1.75-.28-2.63-.29h-.77l-2.31-.07c.35-1.15,1.3-.57,2-.63,1.48-.13,3.1.33,4.15-1.28.43.62,0,1.72,1.21,1.58,1.9-.22,3.85,0,5.69-.61a4.83,4.83,0,0,1,4.55.56c.22.15.59.45.69.15.47-1.41,1.86-1,2.79-1.44,2.42-1,4.74-2.25,7.13-3.33a6.65,6.65,0,0,1,.29,2.3c-.12,5-.64,10-.67,15,0,4-.43,8.09-.37,12.15-.52,1.32-.15,2.69-.27,4a1.65,1.65,0,0,0,0,2c-.11.78.32,1.63-.3,2.34a3.29,3.29,0,0,0-.06-.49c0-.17-.11-.24-.33-.11-.67.38-1.28.65-1.33,1.65-.13,2.76-.56,5.5-.56,8.26,0,1.74-.87,3.49,0,5.23,0,1,0,2-1.34,2.24-.81.07-1.38,1-2.3.66a23.88,23.88,0,0,1-4.32,0,7,7,0,0,0-4.41.72c-1.05.52-1,.9-1,1.64s-.07,1.21-.78,1.27-.8.77-1.15,1.22c-1,1.3-1,3.37-2.73,4.13-1.17.5-1.65,1.21-1.34,2.16,2,.28,3.57-.72,5.33-1.08h0Zm6.62-27.42c.47-1,.24-2.14,1.43-2.51.94-.29,1.15-.77.18-1.44-.77-.53-1.28-1.17,0-1.84.67-.35.36-.83-.06-1.2-.8-.68-1.05-1.27.11-1.86a.53.53,0,0,0,.06-1c-.66-.47-.83-1.43-1.69-1.81-.57,1.12-.73,2.31-1.5,3.23a1.34,1.34,0,0,0-.11.89c2,.61.15,1.5.17,2.23,0,.38-.72.92-.14,1.1,1.31.43.47,1.06.27,1.6s-.9,1-.78,1.85C103.78,124.42,104.92,123.05,105.1,125.27ZM98.86,92.75c-.74-.45-1.88-.08-3,0-.49,0-1.18-.28-1.32.56a6.65,6.65,0,0,0,.08,3.28c.12.35.52.11.83-.09C96.95,95.58,99.12,95.38,98.86,92.75Z"/><path class="cls-4" d="M47.49,22.69A83.7,83.7,0,0,1,58.55,18c1.82-.71,3.69-1.28,5.47-2.06,3.6-1.57,7.12-.44,10.61.27,11,2.23,21.89,5,32.76,7.75,3.07.78,6.16,1.45,9.24,2.22.45.11,1,.12,1.27.68a20.12,20.12,0,0,1-5.65,1C104.91,27,97.71,25.33,90.46,24c-1.47-.28-2.77-1.23-4.17-1.25a17.1,17.1,0,0,1-5.06-.79C76.91,20.49,72.4,19.78,68,18.48c-.66-.2-1.11,0-1.08.81.09,2.38-.37,4.81.63,7.1-.59.6-.23,1.36-.32,2l-.85-1.38c0,1.53-.74,1.26-1.65,1.14-1.07-.14-2-.62-3-.82-3.58-.67-7.21-1.18-10.43-3.15a3.14,3.14,0,0,0-2.79-.48l-.66,0Z"/><path class="cls-5" d="M65.17,57.87l-6.81.74c-.34,0-.65.09-.8.45-1.08-.87-1.88-2.17-3.55-2.5.11.92.65,1.22.92,1.69-.6,1.12-1.82.88-2.69.94a8.66,8.66,0,0,1-4.55-.74,18.17,18.17,0,0,0-3.78-1.22h0c-.17-3.12.15-6.24-.24-9.35l.18-.65a3.05,3.05,0,0,0,.51-.42C46.62,43.89,48.9,41,51.21,38c1.55-2,1.85-1.93,3,.24,1.39,2.53,2.76,5.08,4.13,7.62,1,1.55,1.55,3.41,2.9,4.76L64.92,57l.23.57Q65.16,57.71,65.17,57.87Z"/><path class="cls-6" d="M58.39,45.91c-1.38-2.54-2.74-5.09-4.13-7.63-1.19-2.17-1.5-2.2-3-.24-2.31,2.91-4.59,5.85-6.89,8.77a3.05,3.05,0,0,1-.51.42c-.68-1.57-.49-3.28-.55-4.89-.19-5.47-.11-10.95-.09-16.42,0-.52-.35-1.32.64-1.44.12.85.9.79,1.42.9,5.93,1.31,11.88,2.57,17.82,3.85,1.3.28,2.6.56,3.87,1,.89.28,1.29.85.39,1.65h0l-.37.31a.73.73,0,0,0-.68.33,2.29,2.29,0,0,0-1.95,1,2.21,2.21,0,0,0,2-.94l.66-.34h.34c.49.36,1.33.65.24,1.3-.32.07-.54.23-.5.6-2.86.07-5.3,1.57-7.92,2.42-1.38.45-3.11,1.75-3,3.22a7,7,0,0,0,2.75,4.5h0l.31,1.71C58.94,45.76,58.66,45.56,58.39,45.91Z"/><path class="cls-7" d="M98.47,152.16c-1.76.36-3.36,1.36-5.33,1.08-.31-.95.17-1.67,1.34-2.16,1.78-.76,1.69-2.83,2.73-4.13.35-.44.32-1.15,1.15-1.22s.75-.69.78-1.27,0-1.12,1-1.64a7,7,0,0,1,4.41-.72,23.87,23.87,0,0,0,4.32,0c-.19.33-.36.66-.56,1s-.92.36-.66,1,.75.34,1.15.47a12.67,12.67,0,0,0,3,.63c-.18.21-.31.48-.54.61q-6.11,3.43-12.24,6.81a2.23,2.23,0,0,1-.63.13l0-.53.08-.12Z"/><path class="cls-8" d="M115.49,116.27c-.06-4.06.34-8.1.37-12.15,0-5,.55-10,.67-15a6.65,6.65,0,0,0-.29-2.3l0-1,.32-9.86c.92.68.72,2.4,2.29,2.46-.22,7.35-.35,14.7-.73,22-.1,1.94-.29,3.89-.23,5.83.11,3.35-.45,6.67-.39,10Z"/><path class="cls-6" d="M119.91,36.83c.69,1.37.39,2.86.23,4.24-.23,2-.16,3.89-.24,5.84-.13,3.12-.23,6.23-.35,9.35-.26.06-.54.1-.58.43s.24.53.56.61q0,.47,0,.94a4.28,4.28,0,0,1-2.86.72l-.08-3.39a1.1,1.1,0,0,0,0-.3l.12-1.38c.77-1,.79-4.21,0-5.31a49.8,49.8,0,0,1,0-7.72C118.55,40.14,118.89,38.22,119.91,36.83Z"/><path class="cls-9" d="M119.91,36.83c-1,1.38-1.36,3.31-3.21,4l-.2-3.4,0-1.29a7,7,0,0,0,0-2.38.74.74,0,0,0-.31-.68l-.2-.41.24-.87c.24-.65.75-1.35-.33-1.76h-.73l-.47-.36.43-.82c.25-.25.74-.25.82-.75-.64-.11-1.28-.28-1.8.28l-.3.29a4.76,4.76,0,0,0-2-.22l.36-.67a20.15,20.15,0,0,0,5.65-1l1.66.25c0,.67.51.65,1,.73C120.29,30.85,120.37,33.86,119.91,36.83Z"/><path class="cls-4" d="M116.65,59a4.28,4.28,0,0,0,2.86-.72c-.47,5.09,0,10.21-.53,15.3-.17,1.6-.07,3.23-.09,4.84-1.58-.06-1.38-1.78-2.29-2.46Q116.62,67.45,116.65,59Z"/><path class="cls-4" d="M115.49,116.27h2.05q-.32,10-.65,19.91a.91.91,0,0,1-.37.87c-.48-.36-.29-.89-.31-1.36a4.66,4.66,0,0,0-1-3h0c0-.39,0-.83-.46-1-.68-2.35.19-4.68.11-7,.62-.71.19-1.56.3-2.34a1.48,1.48,0,0,0,0-2C115.34,119,115,117.59,115.49,116.27Z"/><path class="cls-9" d="M87.75,153.23l0,.64c-3.7-1.07-7.24-2.56-10.84-3.93-.83-.32-1.68-.6-2.52-.9-.12-.36-.25-.71-.7-.29l-1-.34a3,3,0,0,0-2.83-1.15l-.86-.19c-.19-.8-.94-1-1.52-1.12A28.77,28.77,0,0,1,64,144.76c-1.65-.62-3.3-1.24-4.93-1.92-.46-.19-1.31-.31-1.08-1s.92-.06,1.4-.09h.17l12.06,4.71Z"/><path class="cls-6" d="M59.58,141.76h-.17c-.48,0-1.14-.72-1.4.09s.62.82,1.08,1c1.63.68,3.28,1.3,4.93,1.92a28.77,28.77,0,0,0,3.44,1.18c.59.14,1.33.32,1.52,1.12-5.89-1.92-11.72-4-17.44-6.34-.26-1-1.19-1-1.9-1.33-.3-.14-.69-.24-.63-.62s.49-.32.77-.21c.52.19.7,0,.77-.51,3.17.52,6,1.9,9,3Z"/><path class="cls-4" d="M67.31,31.83c.89-.79.5-1.37-.39-1.65-1.27-.39-2.57-.67-3.87-1-5.94-1.29-11.88-2.54-17.82-3.85-.52-.12-1.3-.05-1.42-.9a.6.6,0,0,1,.61-.41c1,.61,2.05.27,3.08.36a3.73,3.73,0,0,0,1,.59q8.44,2.06,16.9,4.06a2.23,2.23,0,0,0,1.6-.3c0,.51.17.87.73.95.86,0,1.72.54,2.58,0v1a1.11,1.11,0,0,0-1.25.38A1.86,1.86,0,0,1,67.31,31.83Z"/><path class="cls-6" d="M111.22,141.44c1.32-.22,1.32-1.24,1.34-2.24,1.22.41,1.68.06,1.62-1.31-.07-1.81.1-3.64.17-5.46l.88.28h0c.53,3.44,1.1,6.89.33,10.37a1.61,1.61,0,0,1-1.35,1c.09-1-.61-1-1.29-1C111.8,143.13,111.14,142.65,111.22,141.44Z"/><path class="cls-9" d="M111.22,141.44c-.07,1.21.58,1.69,1.7,1.68.68,0,1.39-.05,1.29,1a3.58,3.58,0,0,1-2.32,1,12.67,12.67,0,0,1-3-.63c-.4-.13-.94,0-1.15-.47s.45-.63.66-1,.37-.65.56-1C109.83,142.39,110.41,141.51,111.22,141.44Z"/><path class="cls-4" d="M50.56,138.06c-.07.46-.25.7-.77.51-.29-.11-.7-.27-.77.21s.33.49.63.62c.71.33,1.64.35,1.9,1.33-2.07-.21-3.81-1.37-5.73-2-.26-.09-.53-.3-.49-.59.07-.45.48-.37.79-.37a2.39,2.39,0,0,0,2.1-.72A3.84,3.84,0,0,1,50.56,138.06Z"/><path class="cls-9" d="M115.56,143.08c.77-3.49.19-6.93-.33-10.37a4.66,4.66,0,0,1,1,3c0,.47-.18,1,.31,1.36q0,2.18-.06,4.36a.6.6,0,0,0-.2.7C116.25,142.6,116.29,143.13,115.56,143.08Z"/><path class="cls-6" d="M43.63,47.88c.39,3.11.07,6.24.24,9.35-.67-.77-.35-1.7-.35-2.54A41.89,41.89,0,0,1,43.63,47.88Z"/><path class="cls-9" d="M47.51,24.42c-1-.08-2.11.26-3.08-.36a1.31,1.31,0,0,1,1-.37l2.43,0,.66,0Z"/><path class="cls-6" d="M47.85,23.74l-2.43,0c.46-.82,1.29-.85,2.07-1Z"/><path class="cls-6" d="M69.84,147.26a3,3,0,0,1,2.83,1.15A5.07,5.07,0,0,1,69.84,147.26Z"/><path class="cls-4" d="M119.54,57.3c-.33-.08-.62-.19-.56-.61s.32-.38.58-.43Z"/><path class="cls-4" d="M120.51,27.87c-.45-.08-1-.06-1-.73C120.07,27.11,120.46,27.27,120.51,27.87Z"/><path class="cls-6" d="M73.67,148.75c.45-.42.58-.07.7.29A.55.55,0,0,1,73.67,148.75Z"/><path class="cls-4" d="M116.27,142.12a.6.6,0,0,1,.2-.7C117.08,141.85,116.72,142,116.27,142.12Z"/><path class="cls-8" d="M92.1,97.52c-.69,7.72-.19,15.46-.35,23.2-.11,5.45-.09,10.91-.13,16.36a.9.9,0,0,0-.88.89,1.47,1.47,0,0,0-1,.75c-.61,0-1,.35-1.47.65-1.49.95-2.78,2.22-4.53,2.73-2.45-3.4-3.67-7.44-5.74-11-2.72-4.72-4.66-9.85-7.59-14.47a32.85,32.85,0,0,1-2.33-5.28,1.3,1.3,0,0,1,.2-1.42c.45-.48.92-.17,1.39,0l11.42,3.78c.46.15,1,.54,1.4.1s-.15-.93-.36-1.34q-5.39-10.48-10.8-20.95c.58-1.92-.38-3.39-1.26-5a54.81,54.81,0,0,1-4.14-8.13c-.17-.48-.35-1.53,0-1.38,1.08.48,2.11-.26,3.22.32a13.94,13.94,0,0,0,8.33,1.76c3.25-.41,5.92-1.79,7.29-5a7.17,7.17,0,0,0,1.39-3.67c.16-.67.84-1.27.27-2a8.89,8.89,0,0,0,.39-2.59,24.79,24.79,0,0,0-3.69-12.24l.32-.95c.37.55.77,1.08,1.09,1.66A25.73,25.73,0,0,1,87.7,69.42a11.71,11.71,0,0,1-3,6.85C83,78.2,80.18,78.6,78.81,80.9c-.08.13-.41.18-.62.16a32,32,0,0,1-5.32-.24c-1.8-.38-3.28-1.5-5.18-2a9.27,9.27,0,0,0,1.93,4.74,11.17,11.17,0,0,1,2.17,3.2c.63,1.75,1.31,3,3.31,3.18,1.25,1.31,3.07,1.07,4.58,1.67a1.79,1.79,0,0,0,2.34.59,4.33,4.33,0,0,0,2.36.7c.05.36.23.63.63.62a7.28,7.28,0,0,1,3.27.85,3.13,3.13,0,0,0,2.46.19h.68A3.05,3.05,0,0,1,92.1,97.52Z"/><path class="cls-3" d="M86.38,68.35c.57.77-.11,1.37-.27,2a15.78,15.78,0,0,1-3.76-.54c-2.94-.59-5.85-.9-8.49,1a2.54,2.54,0,0,1-1,.21l-5.19-8.9c-.84-1.44-1.69-2.87-2.53-4.3q0-.16,0-.32a12,12,0,0,0,4.29-.24,5,5,0,0,1,5.06,1.1c1.2,1,2.21,2.32,3.43,3.34,1.56,1.31,2.78,3.07,4.82,3.77A14.8,14.8,0,0,0,86.38,68.35Z"/><path class="cls-10" d="M48.91,95.43c-.12-1.08-1.28-1.82-.91-3.15.11-.39-.42-.79.27-1.36.54-.45-.72-1.6-.33-2.09,1.16-1.47,0-2.5-.34-3.73s.44-2.78.09-4.2c-.07-.28.46-.41.8-.44l.19.11-.11-.19c-.15-1.14-1.54-2.22,0-3.47.32-.26-.55-1-.72-1.55s-.8-1.49.48-1.63c1.45-.16.65-.76.31-1.27-.12-.18-.38-.26-.5-.44-.22-.34-.76-.69-.38-1.13s.62.37,1.11.19c-.31-1.75-1.34-3.29-1.49-5.07,0-.44-.14-.88-.18-1.32-.06-.75,0-1.51.8-1.86s1.21.37,1.66.81a9,9,0,0,1,2.42,5.55c0,.35.07.75-.38.76s-.42-.42-.46-.76a8,8,0,0,0-2-4.68c-.31-.34-.63-1-1.2-.66s-.3.85-.17,1.23c1,3,1,6.46,3.92,8.6a1.84,1.84,0,0,1,.56.82c.19.51.44,1.13-.24,1.46s-.93-.13-1.23-.58-.29-.87-.7-.86a2.32,2.32,0,0,0-1.5.48c-.29.3.18.81.45,1.15a1.88,1.88,0,0,0,.64.53c1.11.53.59,1.5.28,2-.5.79-.7-.59-1.29-.41-.07,1.09.76,1.79,1.16,2.67.21.47.83,1.34-.59.92-1-.29-.88.35-.62.95.41.93,1.85,1.81.09,2.83a1.72,1.72,0,0,0,.26.88c.44.7.94,1.37,1.42,2.05.69-.14.16-.82.61-1.1,0,.05.11.12.11.2.05,1-.1,2,.67,2.85.34.37.36.79-.24,1.05s-.66-.19-.79-.62a2.1,2.1,0,0,0-1.6-1.54L49,89.29l.11.21c1.27,2.15.35,4.72,1.43,7,.62,1.28-.79.83-1.37.93,0,.84.51,1.36.7,2,.26.85,1.24,1.85-.63,2.23-.77.16-.11.81,0,1.21s.71.95.5,1.54a1.28,1.28,0,0,1-1.52.73c-.66-.12-.48-.88-.35-1.27.48-1.53.05-3,.15-4.54A15.38,15.38,0,0,0,47.93,96c-.08-.52.49-.49.88-.48l.45.41.15-.2Z"/><path class="cls-3" d="M62,120.71c-1.62,2.92-4,3.54-6.62,1.54a40.88,40.88,0,0,0-6.65-4.72,1.33,1.33,0,0,1-.81-1.5c.16-.9.54-1.36,1.43-.66a15.37,15.37,0,0,1,1.95,1.56c1.21,1.32,2.47,1,3.74.23A6.94,6.94,0,0,1,57.76,116c1.61-.23,2-1.12,1.77-2.58-.06-.31-.31-.62,0-1.13,1.13.69,1.71,1.93,2.72,2.71A2.18,2.18,0,0,0,61,117.66,30.73,30.73,0,0,0,62,120.71Z"/><path class="cls-9" d="M72.89,71.08a2.54,2.54,0,0,0,1-.21c2.65-1.93,5.55-1.62,8.49-1a15.78,15.78,0,0,0,3.76.54,7.17,7.17,0,0,1-1.39,3.67c-1.91-.89-5.25.52-6.43,2.9-.57,1.15-1.23,1.76-2.23.38a2.31,2.31,0,0,0-.05-.25l-.31-.4C75.07,74.66,73.48,73.12,72.89,71.08Z"/><path class="cls-10" d="M54.93,58.25c-.27-.47-.81-.77-.92-1.69,1.66.33,2.47,1.64,3.55,2.5.18.85.9,1.39,1.22,2.14.51,1.2,1.36,2.41.08,3.66-.51.49-.1.92.15,1.33a15.76,15.76,0,0,1,.88,1.39c.32.72.59,1.49-.2,2.12s-1.32-.14-1.91-.45-.94-1-1.78-1.05a2.27,2.27,0,0,0,1,2.17c.75.71,1.81,1.57-.07,2.42-.76.35,0,.94.33,1.27.83.76,1,1.47,0,2.25-.08-.05-.19-.17-.22-.15-.19.12-.05.22,0,.32,1.1,1.6,1.07,2.12-.18,2.53l-.22-.12.12.22c.21.26.4.53.62.78a1,1,0,0,1,.27,1.21c-.31.53-.8,0-1.25.07a2.12,2.12,0,0,0,.8,1.89c.3.31.79.66.42,1.12s-.89,0-1.31-.2-.56-.71-1.15-.62c-.06,1.2.91,2.28.47,3.53-.65,0-.59-.56-.65-.86-.38-2-.84-3.89-3.07-4.8-.72-.3-.87-1.42-.71-2.25s.8-.6,1.29-.29a3.9,3.9,0,0,1,1.35,1.87,3.11,3.11,0,0,0,1.67,1.82c.23-1.71.76-3.47.62-4.9s.38-2.78-.29-4.23c-.77-1.66-.31-3.66-.68-5.49-.18-.91.64-.89,1.25-.51s1.14.89,1.72,1.32c.26.19.54.5.88.22s.19-.62.08-.94a9.31,9.31,0,0,0-2.38-3.19c-.51-.54-1.27-.92-1.42-1.8.74-.39,1.14.23,1.65.48s1,1,1.59.38-.06-1.15-.32-1.65A9.34,9.34,0,0,0,54.93,58.25Z"/><path class="cls-8" d="M87.75,153.23l-16.11-6.76v-1c2.15.59,4.15,1.67,6.37,2l.3.25,1.35.41c.08.14-.08.57.34.28l.68,0,.33.28a48.17,48.17,0,0,1,5.39,1.64c.45.13,1,.63,1.39.22s-.2-.88-.29-1.33c-.05-.27-.11-.54-.16-.81a1.91,1.91,0,0,0-1-1.72h0c.07-.65-.49-1.19-.47-1.73,0-1.16-1.32-2.47.24-3.49,1.16-.76,2.37-1.43,3.56-2.15.14,4.5-1,8.9-1,13.39A1.16,1.16,0,0,1,87.75,153.23Z"/><path class="cls-6" d="M76.06,77.34c1,1.38,1.66.77,2.23-.38,1.17-2.38,4.51-3.79,6.43-2.9-1.37,3.21-4,4.59-7.29,5A13.94,13.94,0,0,1,69.1,77.3C68,76.71,67,77.45,65.88,77c-.32-.15-.15.9,0,1.38A54.81,54.81,0,0,0,70,86.48c.88,1.59,1.84,3.06,1.26,5-1.65-3.1-3.32-6.2-5-9.32-.71-1.36-1.35-2.75-2-4.13.78-.84.54-2.13,1.3-3l8.95,2.36C75.08,77.54,75.6,78,76.06,77.34Z"/><path class="cls-10" d="M47.81,131.83c0-.93.6-1.38,1.59-1.05,2.27.75,4.52,1.57,6.74,2.48A2.32,2.32,0,0,1,57.56,135c.22,1.34-.41,1.94-1.7,1.5-2.11-.71-4.2-1.48-6.28-2.29A2.38,2.38,0,0,1,47.81,131.83Z"/><path class="cls-4" d="M51.54,126c1-.19.66-1.32,1.33-1.92L54,126.44c.66,0,.36-.82.87-.94.56.35-.36.95.23,1.3.64-.34.35-1.29,1.09-1.65.93.82-.43,1.41-.22,2.32,1-.93,3,.76,3.26-2,.46,1.15-.53,2.3.6,2.58s.38-1.2,1.09-1.49c.48.25.29.65.19,1-.2.67-.46,1.15.71,1,.86-.11.79.79.7,1.38a.76.76,0,0,1-1.22.62C59,129.28,56.39,129,54,127.93c-1-.46-1.7-1.71-3.07-1.07-.28-.6-1.42-.68-1.34-.9.37-1-.34-1.88,0-2.76.18-.45.85-.79,1-.27.29,1,1.66,1.76.86,3.07l-.13.16Z"/><path class="cls-10" d="M52.52,107.64c.75.27,1.12,1.27,2.09.81.42-.2.55.16.62.53s.21,1,.29,1.46c.11.73,1.42,1.44.7,1.93a8.15,8.15,0,0,1-3.57,1c-.75.09-.52-.8-.4-1.16.21-.67.52-1.07-.51-1.39-.59-.18-1.49-1,0-1.58C52.5,109,51.94,108.13,52.52,107.64Z"/><path class="cls-4" d="M58.46,135.85c-.27-.84.17-.8.86-.58,1.44.45,2.73,1.37,4.43.88.74-.21,2,1.56,1.74,2.28-.4,1.09-1.21,1.09-2.18.72a37.2,37.2,0,0,0-3.93-1.31C58.24,137.54,58.76,136.59,58.46,135.85Z"/><path class="cls-7" d="M62,120.71a30.73,30.73,0,0,1-1-3A2.18,2.18,0,0,1,62.27,115,4.17,4.17,0,0,1,64,117.57c-1.07.26-.62,1.09-.67,1.74Z"/><path class="cls-4" d="M71.65,145.5v1l-12.06-4.71v-.66C63.63,142.46,67.71,143.79,71.65,145.5Z"/><path class="cls-10" d="M59.91,106.26c1.31,0,.09,1.3,1,1.69,1.44.65-.07,1.12-.27,1.67-.49,1.38-1.13,0-1.68,0-1.32,0-.54-1.56-1.19-2.27-.24-.26.34-1.32,1.08-1.63.09,0,.28.15.42.24.07.29-.12.74.35.81C59.83,106.78,59.87,106.47,59.91,106.26Z"/><path class="cls-6" d="M89.73,139.43c-1.19.71-2.4,1.39-3.56,2.14-1.56,1-.2,2.32-.24,3.49,0,.54.54,1.08.47,1.73a12.87,12.87,0,0,1-2.69-4.69c1.75-.51,3-1.78,4.53-2.73.47-.3.86-.7,1.47-.65Z"/><path class="cls-11" d="M63.67,129.7c-.61,0-.83-.26-.47-.82a17.64,17.64,0,0,1,2.64-3.19c.56-.53.93-.2,1.06.39C67.11,126.94,64.56,129.75,63.67,129.7Z"/><path class="cls-9" d="M65.63,75c-.76.85-.52,2.13-1.3,3l-.44-1.07c-.26-.64-1-1.33-.41-2S64.91,74.74,65.63,75Z"/><path class="cls-4" d="M61.77,133.48c.12.45-.19.61-.65.54-.71-.11-1.25-.41-1.21-1.27,0-.52,0-1,.76-1C61.71,131.83,61.5,132.75,61.77,133.48Z"/><path class="cls-4" d="M51.58,130.64c-.64-.17-1.14-.46-1.05-1.23,0-.39-.15-1,.6-.88s1.16.36,1.07,1.17C52.16,130.13,52.26,130.63,51.58,130.64Z"/><path class="cls-4" d="M54.63,131.46c-1.4,0-1.89-.56-1.76-1.65,0-.33.05-.75.52-.61s1.16.27,1,1A1.36,1.36,0,0,0,54.63,131.46Z"/><path class="cls-4" d="M56.55,132.05c-1,.13-1.46-.3-1.32-1.33.07-.53.3-.6.8-.48,1.22.31.91,1,.55,1.78Z"/><path class="cls-4" d="M58.85,133.14c-.65-.26-1.21-.6-1.25-1.38,0-.36.11-.71.53-.66.65.08,1.18.37,1.1,1.16C59.21,132.58,59.48,133.07,58.85,133.14Z"/><path class="cls-3" d="M63.31,119.31c0-.65-.4-1.49.67-1.74.38.29.94.61.81,1.08C64.61,119.32,63.87,119.22,63.31,119.31Z"/><path class="cls-6" d="M86.4,146.79a1.91,1.91,0,0,1,1,1.72C86.51,148.23,86.42,147.53,86.4,146.79Z"/><path class="cls-4" d="M59.91,106.26c0,.22-.08.52-.33.49-.48-.07-.28-.51-.35-.81A.63.63,0,0,1,59.91,106.26Z"/><path class="cls-4" d="M80,148.49c-.43.29-.27-.14-.34-.28Z"/><path class="cls-4" d="M78.32,147.8l-.3-.25Z"/><path class="cls-4" d="M56.57,132l.13.15-.15-.13Z"/><path class="cls-4" d="M81,148.8l-.33-.28Z"/><path class="cls-6" d="M75.71,76.68l.31.4Z"/><path class="cls-7" d="M116.27,85.8l0,1c-2.39,1.08-4.71,2.31-7.13,3.33-.94.39-2.32,0-2.79,1.44-.1.31-.47,0-.69-.15a4.83,4.83,0,0,0-4.55-.56c-1.84.62-3.8.39-5.69.61-1.18.14-.78-1-1.21-1.58-1,1.61-2.67,1.15-4.15,1.28-.68.06-1.63-.52-2,.63l-.62,0c-.69-1-1.39-.93-2.1,0a13.56,13.56,0,0,0-3.28-.3c-.41-1.12-1.35-.45-2-.62-.35-.09-.88.15-.9-.51a18.29,18.29,0,0,0,9.27-3.57,19.69,19.69,0,0,0,4-1.91c.48-.24.9-.75,1.44-.12.16,1-.64,2.35.87,3,.15.49,0,1.22,1,1,2.84-.84,5.86-1.06,8.55-2.42.3-.15.9,0,.79-.63a1.11,1.11,0,0,0-.81-.78c-2-.66-4.09-1.34-6.15-1.94a3.07,3.07,0,0,0-3.35,1.94l-.3-.42q.12-2.4.24-4.8l.15,0c1.66.92,2.58-.49,3.72-1.2a5.67,5.67,0,0,0,3.28-1.38l0,0a.57.57,0,0,0,.62-.3l.05,0c1.61-.67,3.37-1,4.69-2.29a4.14,4.14,0,0,0,2.4-2.54,24.87,24.87,0,0,0,1.91-8.2c-.05-2.13.38-4.27-.23-6.38a24.42,24.42,0,0,0-2.21-9.37c-.85-2-.85-2-2.9-1.17-2.74,1.08-5.49,2.15-8.24,3.22l-.54-.67.35-.3c3.14-1.25,6.3-2.46,9.41-3.79,1-.45,1.49-.19,1.9.76.34.8.4,1.75,1.11,2.38.12.54.2,1.09.37,1.62A33.6,33.6,0,0,1,112,64.58c-.15,1.23-.84,2.57-.09,3.86a16.13,16.13,0,0,1-2.18,5.38,2.64,2.64,0,0,1-1.21,1.1c-2.43,1.13-4.85,2.28-7.28,3.4q-2.81,1.3-5.64,2.54c-.68.3-1,.82-.73,1.44.42.83,1,.06,1.38-.13,1.93-.87,3.82-1.81,5.75-2.69.4-.18,1-.88,1.23.23-.15.4-.51.55-.85.75s-1.12.31-1.05.9.82.44,1.25.56C107.12,83.26,111.7,84.52,116.27,85.8Z"/><path class="cls-9" d="M93.77,109.25c.93-.16.66-.91.66-1.46,0-2.51,0-5,0-7.53.15,0,.31,0,.32,0a22,22,0,0,0,1.13,3.28,3.5,3.5,0,0,1-.24,4.15c-.47.59.47.88.93,1.06s1.09.51.79,1.19c-1,2.26-.59,4.67-.87,7,0,.06,0,.13,0,.16,1.63,2.28,0,4.8.43,7.23a5.08,5.08,0,0,1-.56,3.77c-.41.57,1,1.2.29,2.11a5.19,5.19,0,0,0-.18,1.41c-.29,2.54-.62,2.84-3.32,3.09-.25-1.74.3-3.43.29-5.15,0-3.52,0-7,0-10.55,0-.59-.22-1.24.3-1.75a14.85,14.85,0,0,0,0-7.05Z"/><path class="cls-6" d="M93.75,117.29c-.52.51-.3,1.16-.3,1.75,0,3.52,0,7,0,10.55,0,1.73-.54,3.42-.29,5.15-1.42.3-1-.87-1-1.44,0-2.42,0-4.85.11-7.27.3-8.79.13-17.59.16-26.39,0-.74.57-1.49,0-2.22.82-.26.4-1.72,1.58-1.64-.3,4.48-.24,9-.24,13.45q0,.5,0,1Q93.75,113.77,93.75,117.29Z"/><path class="cls-6" d="M90.74,138a.9.9,0,0,1,.88-.89c.63-.14.57-.93,1.1-1.17.09.05.26.1.26.16.08,4.36.41,8.73-.21,13.08-.65-.06-1,.16-1,.89s0,1.41,0,2.11c-.71,1.42-1.8.19-2.69.38C90,147.73,89.92,142.8,90.74,138Z"/><path class="cls-6" d="M105.1,125.27c-.18-2.22-1.32-.85-2.08-.7-.12-.87.56-1.26.78-1.85s1-1.18-.27-1.6c-.57-.19.15-.72.14-1.1,0-.73,1.88-1.63-.17-2.23a1.34,1.34,0,0,1,.11-.89c.77-.92.93-2.11,1.5-3.23.86.39,1,1.34,1.69,1.81a.53.53,0,0,1-.06,1c-1.16.59-.9,1.18-.11,1.86.42.36.73.84.06,1.2-1.26.66-.75,1.31,0,1.84,1,.67.76,1.15-.18,1.44C105.34,123.13,105.57,124.23,105.1,125.27Z"/><path class="cls-7" d="M114.35,132.43c-.07,1.82-.25,3.64-.17,5.46.06,1.37-.4,1.72-1.62,1.31-.83-1.74,0-3.49,0-5.24,0-2.75.44-5.5.56-8.26,0-1,.66-1.27,1.33-1.65.22-.12.28-.05.33.11a3.29,3.29,0,0,1,.06.49c.08,2.34-.79,4.67-.11,7C114.34,131.76,114.21,132,114.35,132.43Z"/><path class="cls-6" d="M87.44,91.77l.62,0,2.31.06c.1.16.18.44.31.47.34.09.38-.24.46-.47.89,0,1.73.47,2.63.29l.31,0q0,1-.07,2c-.86.08-1.79-.37-2.59.31h-.68c-.19-1.16-1.25-.68-1.87-.88a9.11,9.11,0,0,0-4.49-.79,4.33,4.33,0,0,1-2.36-.7l-.36-.57.39-.14a13.54,13.54,0,0,1,3.28.3Z"/><path class="cls-9" d="M98.86,92.75c.25,2.64-1.92,2.83-3.4,3.76-.31.19-.71.44-.83.09a6.65,6.65,0,0,1-.08-3.28c.14-.84.83-.53,1.32-.56C97,92.67,98.12,92.29,98.86,92.75Z"/><path class="cls-9" d="M90.74,138c-.83,4.82-.71,9.76-1.68,14.57l-.36.28c0-4.49,1.16-8.89,1-13.39l0-.71A1.47,1.47,0,0,1,90.74,138Z"/><path class="cls-4" d="M91.43,94.51c.79-.68,1.72-.23,2.59-.31q0,.8,0,1.59c-1.18-.09-.76,1.38-1.58,1.64a1.51,1.51,0,0,1-.32.09A3.05,3.05,0,0,0,91.43,94.51Z"/><path class="cls-9" d="M91.76,152.15c0-.7,0-1.41,0-2.11s.37-1,1-.89v.65c-.33.22-.34.45,0,.68C92.68,151.19,93.15,152.23,91.76,152.15Z"/><path class="cls-6" d="M115.22,120.31a1.48,1.48,0,0,1,0,2A1.65,1.65,0,0,1,115.22,120.31Z"/><path class="cls-9" d="M91.14,91.86c-.08.23-.12.56-.46.47-.14,0-.21-.31-.31-.47Z"/><path class="cls-6" d="M92.76,150.48c-.34-.23-.32-.45,0-.68Z"/><path class="cls-9" d="M94.08,92.18l-.31,0C93.9,91.91,94,91.92,94.08,92.18Z"/><path class="cls-6" d="M70.28,30.76q0-.51,0-1l.47-.63c3-1.56,5.92-3.39,9.17-4.68-2.66-1.73-5-1.37-7.6,0-1.46.8-2.91,1.87-4.72,1.94-1-2.3-.54-4.72-.63-7.1,0-.77.42-1,1.08-.81,4.36,1.3,8.86,2,13.19,3.44a17.1,17.1,0,0,0,5.06.79c1.4,0,2.7,1,4.17,1.25,7.25,1.36,14.45,3,21.79,3.88l-.36.67a50,50,0,0,0-10.29,3.83l1.2,1.14c0,.9-1.1.56-1.33,1.2-1.27.5-2.73.52-4.14,1.74a8.73,8.73,0,0,0,4.16-1.27c.91.14,1.57-.67,2.44-.66l1.88,2.44c-.11.65-.49.6-.95.37-1.42-.73-2-.08-2.05,1.31-2.35-1.05-4.7-2.34-7,.08v-2L95,38.2c-.74-.45-.24-1.69-1.35-2,1,.16,2.14.31,2.23-.93.06-.86-.94-.3-1.44-.47s-1.23-.79-2-.66c-.21-.38-.58-.32-.93-.34l-1.12,0L90,33.17l.46-.37a11.3,11.3,0,0,0,5.72-1.48c-.27-1.1-1.51-1.1-2.16-2.33a36.33,36.33,0,0,1,5.44,3c.36.24.76.76,1.12.28s-.26-.79-.57-1a20.47,20.47,0,0,0-8.37-4c-1.05-.23-2.47-1-3.34-.16s-1.71.8-2.61,1.11c-1.46.5-3.41.3-4,2.32H80.55l-.1,0c-1.07-1.61-2.51-.95-3.88-.75a4.88,4.88,0,0,0,2.48.76c-1.17,1.29-2.64,1.21-4.14.88-.58-.13-1.15-.47-1.66.12Zm25.19,2.17c-.25.3-1,.55-.46,1s1.49.13,2.23-.11c.32-.1.77-.22.71-.58-.12-.71-.93-.41-1.33-.74C96.19,32.52,95.69,32.35,95.47,32.93Z"/><path class="cls-9" d="M67.6,26.39c1.8-.07,3.26-1.14,4.72-1.94,2.56-1.39,4.93-1.76,7.6,0-3.25,1.29-6.14,3.12-9.17,4.68-.65-.11-1.3-.24-2-.32s-1.26,0-1.09.94c-.55-.08-.74-.44-.73-.95l.31-.35C67.36,27.75,67,27,67.6,26.39Z"/><path class="cls-6" d="M67.28,28.43l-.31.35a2.23,2.23,0,0,1-1.6.3q-8.45-2-16.9-4.06a3.73,3.73,0,0,1-1-.59l1-.67a3.14,3.14,0,0,1,2.79.48c3.22,2,6.85,2.47,10.43,3.15,1,.2,2,.68,3,.82.91.12,1.61.39,1.65-1.14Z"/><path class="cls-12" d="M86.38,68.35a14.84,14.84,0,0,1-3.62-2.82,6.73,6.73,0,0,0-.57-1.19A20.64,20.64,0,0,1,78.62,57c-.45-1.8-1.34-2-2.88-1.66A104.82,104.82,0,0,1,64.92,57l-3.64-6.31c0-.86.77-1,1.2-1.47,1.32-1.41,3.24-2.08,4.52-3.56,4.18-1.25,7.79.08,11.15,2.5-.93,1.9-.53,3.88-.22,5.81.14.86,1.07.7,1.69.54,1-.26,2-.65,3-1l.44,0a24.8,24.8,0,0,1,3.69,12.24A8.89,8.89,0,0,1,86.38,68.35Z"/><path class="cls-7" d="M64.92,57a104.82,104.82,0,0,0,10.83-1.59c1.53-.31,2.43-.14,2.88,1.66a20.64,20.64,0,0,0,3.56,7.29,6.73,6.73,0,0,1,.57,1.19c-2-.7-3.26-2.46-4.82-3.78-1.22-1-2.22-2.3-3.43-3.34a5,5,0,0,0-5.06-1.1,12,12,0,0,1-4.29.24Z"/><path class="cls-3" d="M67,45.63c-1.28,1.48-3.2,2.15-4.52,3.56-.43.46-1.25.61-1.2,1.47-1.35-1.35-1.88-3.2-2.9-4.76.28-.34.55-.14.83,0,.7.39.28,2.58,2,1.26.66,1,1.44.78,2.27.25C64.62,46.71,65.57,45.69,67,45.63Z"/><path class="cls-8" d="M61.24,47.17c-1.75,1.32-1.34-.87-2-1.26L58.9,44.2l.08-.13-.07.14a7,7,0,0,1-2.75-4.5c-.14-1.47,1.6-2.77,3-3.22,2.62-.85,5.06-2.35,7.91-2.42a.42.42,0,0,1,.22,0c.2.32.28.16.32-.09l2.06.17c.16,1,1,.52,1.48.66s1.2.52,1.11,1.23-.81.78-1.44.72a3.47,3.47,0,0,1-.64-.19c-.58-.17-.84.09-.85.66s.07.85.72.84c1.08,0,1.09,0,1.09.24,0,.88-.6.81-1.25.85-1.43.08-2.93-.35-4.27.5,1,.08,2.05-.34,3.1-.18.63.1,1.32-.22,1.9.34s-.08,1.27-.09,1.69c.74.73,1.65-.32,2,.3.46.9-1.1.74-1.15,1.53a1.67,1.67,0,0,1,0,.16,31.92,31.92,0,0,0-3.49,0A8.63,8.63,0,0,0,61.24,47.17Zm4.89-6.56c1.23-.31,2.51.07,3.74-.31C68.61,40.35,67.33,39.91,66.13,40.6Zm-1,.16c-.09,0-.21-.13-.27-.1s-.09.17-.13.26.2.13.27.1S65.09,40.85,65.13,40.76Zm3.15.68.13-.07s-.08-.09-.12-.09-.09,0-.13.07Z"/><path class="cls-9" d="M70.28,30.76l3,.74c.27.33.66.31,1,.36,0,.73-1.32.73-1,1.68h-1l-4.74-.06c1.08-.65.25-.95-.24-1.3v-.35h0A1.86,1.86,0,0,0,69,31.14,1.11,1.11,0,0,1,70.28,30.76Z"/><path class="cls-5" d="M67.55,33.47l4.74.06v.58l-2.64.08L67.59,34l-.32.09a.42.42,0,0,0-.22,0C67,33.69,67.23,33.54,67.55,33.47Z"/><path class="cls-4" d="M66.31,32.5a2.21,2.21,0,0,1-2,.94,2.29,2.29,0,0,1,1.95-1Z"/><path class="cls-4" d="M66.26,32.44a.72.72,0,0,1,.68-.33l0,0-.66.34Z"/><path class="cls-4" d="M67.3,31.81v.35H67l0,0Z"/><path class="cls-3" d="M98.47,152.16l.07-.13-.08.12Z"/><path class="cls-12" d="M116.27,85.8c-4.58-1.28-9.16-2.54-13.72-3.86-.43-.12-1.18.06-1.25-.56s.64-.66,1.05-.9.69-.35.85-.75a8.34,8.34,0,0,0,2.57-1.16c5.53-3.69,7.64-9.28,8.36-15.5a36.51,36.51,0,0,0-2.07-15.81c.59-.39,0-.91.15-1.37s-.22-1.22.63-1.3,1,.49,1,1.18.46,1.26,1.31,1.82a38.81,38.81,0,0,0-.14-5.19c-.35-2.42-.45-3.91,1.45-4.93l.2,3.4a49.84,49.84,0,0,0,0,7.72,34.17,34.17,0,0,0,0,5.31l-.12,1.38-.23.15.23.15.08,3.39q0,8.48-.06,17Z"/><path class="cls-4" d="M116.69,53.9a34.17,34.17,0,0,1,0-5.31C117.48,49.69,117.46,52.9,116.69,53.9Z"/><path class="cls-9" d="M116.58,55.58l-.23-.15.23-.15A1.1,1.1,0,0,1,116.58,55.58Z"/><path class="cls-13" d="M116.51,37.48c-1.9,1-1.8,2.51-1.45,4.93a38.81,38.81,0,0,1,.14,5.19c-.86-.57-1.28-1.06-1.31-1.82s-.23-1.25-1-1.18-.51.81-.63,1.3.44,1-.15,1.37l-2.4-4.67a11.15,11.15,0,0,0-2.14-3.42,4.91,4.91,0,0,0-1.71-2.23l-1.88-2.44A24.9,24.9,0,0,1,107.06,33c2.74-.91,5.44-1.92,8.16-2.89h.73c-.13.63.26,1.16.33,1.76l-.24.87a.29.29,0,0,0,.2.41.74.74,0,0,1,.31.68c-.22.79-1.27,1.58,0,2.38Z"/><path class="cls-14" d="M102.79,33.49l-1.2-1.14a50,50,0,0,1,10.29-3.83,4.76,4.76,0,0,1,2,.22l.65.06.63.1-.43.82c-1.51.17-2.79,1-4.23,1.4C107.91,31.8,105.52,33.2,102.79,33.49Z"/><path class="cls-3" d="M102.79,33.49c2.73-.29,5.12-1.69,7.73-2.37,1.44-.37,2.72-1.23,4.23-1.4l.46.36c-2.72,1-5.42,2-8.16,2.89a24.9,24.9,0,0,0-3.13,1.52c-.88,0-1.53.8-2.44.66l0-.47C101.69,34.05,102.8,34.38,102.79,33.49Z"/><path class="cls-12" d="M116.54,36.18c-1.26-.8-.22-1.59,0-2.38A7,7,0,0,1,116.54,36.18Z"/><path class="cls-4" d="M115.18,28.9l-.63-.1-.36-.36c.53-.57,1.16-.39,1.8-.28C115.92,28.65,115.43,28.65,115.18,28.9Z"/><path class="cls-12" d="M116.27,31.85c-.07-.59-.46-1.12-.33-1.76C117,30.49,116.51,31.19,116.27,31.85Z"/><path class="cls-6" d="M114.19,28.44l.36.36-.65-.06Z"/><path class="cls-12" d="M116.24,33.13a.29.29,0,0,1-.2-.41Z"/><path class="cls-9" d="M114.35,132.43c-.14-.41,0-.67.42-.74.49.19.42.63.46,1Z"/><path class="cls-14" d="M67.7,29.73c-.18-.93.4-1,1.09-.94s1.31.21,2,.32l-.46.63C69.41,30.27,68.56,29.7,67.7,29.73Z"/><path class="cls-10" d="M69.65,34.18l2.64-.08L77,35.49a28.13,28.13,0,0,1,5.87,3.77c-.17.43,0,.7.33,1,.77.72,1.47,1.5,2.2,2.25a2.63,2.63,0,0,0,.31.76,40.93,40.93,0,0,1,8.07,14.46c.17.53.29,1.1.94,1.27l.08,4.64a4.05,4.05,0,0,0-.29,2.13q-.07,6.28-.13,12.56c-.64.14-.8.64-1,1.19a18.81,18.81,0,0,1-3.43,5.29c-.54.62-1.35,1-1.53,1.92a18.28,18.28,0,0,1-9.27,3.57c-1.33-.16-2.71.05-4-.43-2-.14-2.68-1.43-3.31-3.18a11.17,11.17,0,0,0-2.17-3.2,9.27,9.27,0,0,1-1.93-4.74c1.9.54,3.39,1.66,5.18,2a32,32,0,0,0,5.32.24c.21,0,.54,0,.62-.16,1.36-2.3,4.21-2.7,5.88-4.63a11.71,11.71,0,0,0,3-6.85,25.73,25.73,0,0,0-3.22-15.19c-.33-.57-.73-1.11-1.09-1.66A5.23,5.23,0,0,0,83,51.7a20.59,20.59,0,0,0-11.65-8.16,1.67,1.67,0,0,0,0-.16c0-.8,1.61-.63,1.15-1.53-.32-.62-1.22.43-2-.3,0-.42.76-1,.09-1.69s-1.27-.24-1.9-.34c-1-.16-2.05.26-3.1.18,1.34-.85,2.84-.41,4.27-.5.64,0,1.23,0,1.25-.85,0-.22,0-.26-1.09-.24-.66,0-.73-.35-.72-.84s.27-.83.85-.66a3.47,3.47,0,0,0,.64.19c.62.05,1.34.11,1.44-.72s-.47-1.06-1.11-1.23S69.81,35.14,69.65,34.18Z"/><path class="cls-6" d="M71.31,43.54A20.59,20.59,0,0,1,83,51.7a5.23,5.23,0,0,1,.43.88l-.32.95-.44,0c-.76-2.4-2.67-3.84-4.49-5.36-3.36-2.42-7-3.75-11.15-2.5-1.43.06-2.38,1.08-3.49,1.78-.84.53-1.62.77-2.27-.25a8.63,8.63,0,0,1,6.58-3.6A31.92,31.92,0,0,1,71.31,43.54Z"/><path class="cls-4" d="M84.39,92.85a9.11,9.11,0,0,1,4.49.79c.62.2,1.68-.28,1.87.88a3.13,3.13,0,0,1-2.46-.19A7.28,7.28,0,0,0,85,93.47C84.62,93.48,84.44,93.21,84.39,92.85Z"/><path class="cls-9" d="M75.11,89.89c1.3.48,2.67.27,4,.43,0,.66.56.42.9.51v.64l-.34.09C78.18,91,76.36,91.19,75.11,89.89Z"/><path class="cls-4" d="M79.69,91.56l.34-.09,1.64.11.36.57A1.79,1.79,0,0,1,79.69,91.56Z"/><path class="cls-2" d="M48.91,95.43l.49.33-.15.2-.45-.41Z"/><path class="cls-2" d="M48.56,80.37l.11.19-.19-.11Z"/><path class="cls-2" d="M49.13,89.51,49,89.29l.21.11Z"/><path class="cls-2" d="M57.13,76.48c-.1-.1-.24-.2,0-.32,0,0,.14.1.22.15Z"/><path class="cls-2" d="M56.85,79.11l-.12-.22.22.12Z"/><path class="cls-2" d="M51.54,126l-.15.13.13-.16Z"/><path class="cls-9" d="M97.92,50c2.75-1.07,5.5-2.13,8.24-3.22,2.06-.81,2.05-.82,2.9,1.17a24.41,24.41,0,0,1,2.21,9.37c-1.6.54-2.67,1.9-4.19,2.62-1.72.82-3.85.05-5.35,1.57-.3.3-.78,0-1-.32s0-.81.28-1c1-.67,1.12-1.76,1.45-2.72a1.33,1.33,0,0,0-.77-1.67c-.61-.3-.93.36-1.31.47-1.28.37-1.47,2.15-2.95,2.1-.55-.6-.32-1.71-1.32-2l0-.65.14-.09a7.39,7.39,0,0,0,.85-5Z"/><path class="cls-3" d="M97.41,58.32c1.48.06,1.67-1.72,3-2.1.38-.11.7-.77,1.31-.47a1.33,1.33,0,0,1,.77,1.67c-.33,1-.49,2.05-1.45,2.72-.27.19-.61.6-.28,1s.72.62,1,.32c1.5-1.51,3.62-.75,5.35-1.57,1.52-.72,2.59-2.08,4.19-2.62.61,2.11.18,4.25.23,6.38a11.42,11.42,0,0,0-6.57,3c-.23-1-.76-2.13-1.86-1.82a1.55,1.55,0,0,0-.45,2.38l-4.14,1.1A43.71,43.71,0,0,0,97.41,58.32Z"/><path class="cls-9" d="M104.92,66.68a11.42,11.42,0,0,1,6.57-3,24.88,24.88,0,0,1-1.91,8.2,4.14,4.14,0,0,1-2.4,2.54,9.92,9.92,0,0,0-4.69,2.29l-.05,0a.63.63,0,0,0-.62.3l0,0c-.92.1-1.86.52-2.75-.1a2,2,0,0,1,1.35-2.36c.35.64-.37,1.24-.05,2,1.09-.82.66-2.17,1.21-3.13l.11-.21-.21.11-.58.34-.22-.53c.63-.64,1.13-1.45.36-2.16s-1.13.22-1.53.72c-1-.09-1.2.61-1.41,1.33h-.24l.67-4.67,4.13-1.1c.64.43,2.7-1,1.83,1.41-.13.36-.45.72-.14,1.07s.72.24,1.1.18c.54-.08.66-.49.73-1A2.25,2.25,0,0,0,104.92,66.68Z"/><path class="cls-9" d="M109.66,42.59l2.4,4.67a36.51,36.51,0,0,1,2.07,15.8c-.72,6.22-2.83,11.81-8.36,15.5a8.34,8.34,0,0,1-2.57,1.16c-.21-1.11-.83-.41-1.23-.23-1.93.87-3.82,1.82-5.75,2.69-.42.19-1,1-1.38.13-.32-.63,0-1.15.73-1.44q2.83-1.24,5.64-2.54c2.43-1.12,4.85-2.28,7.28-3.4a2.64,2.64,0,0,0,1.21-1.1,16.13,16.13,0,0,0,2.18-5.38,29.55,29.55,0,0,0-1-20.16l0-.61c.08-.42,0-.72-.51-.78l-.13-1-.2-.36-1.14-2.37A.84.84,0,0,0,109.66,42.59Z"/><path class="cls-13" d="M108.84,43.2,110,45.57l.2.36.13,1c-.16.48.12.66.51.78l0,.61-.69.06c-.71-.63-.77-1.57-1.11-2.38-.41-1-.85-1.21-1.9-.76-3.11,1.33-6.27,2.53-9.41,3.79.24-1.48-.42-2.9-.31-4.38.93.26,1.95.84,2.74-.15s.28-1.88-.24-2.76l-.16-.29c.2-.76.94-.65,1.45-.88.77-.34,1.51-.67,1.72-1.59a2.27,2.27,0,0,0,1.58.89C106.21,40.61,107.91,41.41,108.84,43.2Z"/><path class="cls-12" d="M94.69,84.83A3.07,3.07,0,0,1,98,82.89c2.06.6,4.1,1.28,6.15,1.94a1.11,1.11,0,0,1,.81.78c.11.59-.49.48-.79.63-2.69,1.36-5.71,1.57-8.55,2.42-.91.27-.81-.46-1-1Q94.7,86.27,94.69,84.83Z"/><path class="cls-6" d="M88.38,86.74c.18-.9,1-1.3,1.53-1.92a18.81,18.81,0,0,0,3.43-5.29c.22-.54.38-1,1-1.19l.15.87.11.4-.24,4.8-.55.3c-.54-.63-1-.12-1.44.12A19.69,19.69,0,0,1,88.38,86.74Z"/><path class="cls-12" d="M110.14,48.34l.69-.06a29.55,29.55,0,0,1,1,20.16c-.75-1.29-.06-2.63.09-3.86A33.6,33.6,0,0,0,110.51,50C110.34,49.43,110.26,48.88,110.14,48.34Z"/><path class="cls-3" d="M97.81,73h.24a6,6,0,0,0-.31,2.37c-.9.55-.45,1.25-.2,1.92-1,1.48.31,1,.9,1.06l.05.06c-1.14.7-2.06,2.12-3.72,1.2,1.62-1.86,2-4.16,2.34-6.49a1,1,0,0,1,.27-.16Z"/><path class="cls-14" d="M97.12,73.14c-.31,2.33-.72,4.63-2.34,6.49l-.15,0-.11-.4L96.46,73Z"/><path class="cls-15" d="M97.41,44.61c-.11,1.47.55,2.89.31,4.38l-.35.3-.89.14c-.23-1.79.26-3.52.39-5.27H97l.08,0Z"/><path class="cls-3" d="M93.83,84.71l.55-.3.3.42q0,1.44,0,2.88C93.19,87.07,94,85.75,93.83,84.71Z"/><path class="cls-3" d="M102.5,76.69a9.92,9.92,0,0,1,4.69-2.29C105.87,75.67,104.11,76,102.5,76.69Z"/><path class="cls-5" d="M96.48,49.43l.89-.15.54.67-.86.57L95.54,51a.92.92,0,0,1,.58-1.23Z"/><path class="cls-3" d="M99,77c.9.62,1.83.21,2.75.1a5.67,5.67,0,0,1-3.28,1.38l-.05-.06c.23-.45.79-.74.64-1.36Z"/><path class="cls-3" d="M81.67,91.58,80,91.47v-.64c.69.17,1.64-.5,2,.62Z"/><path class="cls-3" d="M87.44,91.77l-2.1,0C86,90.83,86.75,90.8,87.44,91.77Z"/><path class="cls-3" d="M101.83,77a.63.63,0,0,1,.62-.3A.57.57,0,0,1,101.83,77Z"/><path class="cls-3" d="M93.75,117.29q0-3.53,0-7.05A14.85,14.85,0,0,1,93.75,117.29Z"/><path class="cls-4" d="M81.68,30.48c.61-2,2.55-1.81,4-2.32.91-.31,1.78-.29,2.61-1.11s2.29-.07,3.34.16a20.47,20.47,0,0,1,8.37,4c.31.25.92.58.57,1s-.76,0-1.12-.28A36.33,36.33,0,0,0,94,29c.65,1.24,1.89,1.23,2.16,2.33a11.3,11.3,0,0,1-5.72,1.48,3.13,3.13,0,0,0-3.05-2.28c-.87,0-1.33.36-1,1.31Z"/><path class="cls-4" d="M85.39,42.53c-.73-.75-1.43-1.53-2.2-2.25-.33-.31-.49-.58-.33-1,3-.44,5.61-2,8.55-3-1.19-1.06-2.31-.29-3.36-.46.19-.45.12-.71-.45-.64a1.37,1.37,0,0,1-1.58-.6l.56-1.06.51.28a3.85,3.85,0,0,0,4.43,0c.34,0,.72,0,.93.34-.16.36-.73.3-.78.82a2.08,2.08,0,0,0,2.8-.16c.5.17,1.5-.39,1.44.47-.09,1.24-1.2,1.09-2.23.93,1.12.28.61,1.53,1.35,2,0,.2,0,.4,0,.61l-.25,0-.36-.15c-.13-.13-.23-.1-.31,0-1.22.68-2.73.76-3.8,1.77C88.68,41.2,86.7,41,85.39,42.53Z"/><path class="cls-8" d="M86.59,33.52,86,34.58l-.65-.15c-.58-1.32-1.56-.87-2.5-.57l1.12.93c0,.61.57.87.94,1.3-.89.22-1.6,1.09-2.62.49a2.08,2.08,0,0,0-1.59-.82,1.35,1.35,0,0,0-1.36-.6l0,0c-.14-.24-.22-.6-.61-.27-.91-1-2.24-1-3.36-1.54-.13-.06-1.38.16-.31-.73.49-.41-.25-.73-.78-.73-.36-.05-.76,0-1-.36.52-.6,1.08-.25,1.66-.12,1.5.33,3,.42,4.13-.88h1.4l.1,0c1.8,1.07,3.92,1.22,5.82,2h.12Zm-4.38.27c-.9-1-1.56-1.11-2.34-.47Z"/><path class="cls-3" d="M95,38.8q0-.3,0-.61l.76-1.48c0,.91,0,1.44,0,2s0,1,0,1.44q0,1.44,0,2.89l-.1.39,0,.4a.29.29,0,0,0,0,.49,15.6,15.6,0,0,0-.11,4.28l.12.39a.81.81,0,0,0,.46.79A.92.92,0,0,0,95.54,51a8.42,8.42,0,0,0,.67,4.57l-.14.09c-1.21.95-.63,2.17-.45,3.29.57,3.46,1.31,6.89,1.05,10.43h-.88l-.07-3.6c0-.84.45-1.88-.93-2.1q0-2.32-.08-4.64a6.1,6.1,0,0,0-.5-3.89A2.62,2.62,0,0,0,94,52.07c-.48-.6-.73-1.39.39-1.83.6-.23.37-.85.37-1.32l0-3.3a10.89,10.89,0,0,0-.06-5.41l.07-.39C95.17,39.54,95.11,39.17,95,38.8Z"/><path class="cls-15" d="M95.8,40.13q0-.72,0-1.44c2.31-2.42,4.66-1.13,7-.08l.13.33c-.21.92-1,1.25-1.72,1.59-.51.23-1.26.12-1.45.88l-.22,0A3.43,3.43,0,0,0,95.8,40.13Z"/><path class="cls-9" d="M102.93,38.94l-.13-.33c.08-1.38.63-2,2.05-1.3.46.24.83.28.95-.37a4.91,4.91,0,0,1,1.71,2.23,1.09,1.09,0,0,1-1.34-.07c-.8-.5-1.48-.35-1.67.73A2.27,2.27,0,0,1,102.93,38.94Z"/><path class="cls-3" d="M86.4,31.82c-.31-.95.15-1.31,1-1.31a3.13,3.13,0,0,1,3.05,2.28l-.46.37c-1.25.14-2.27-.83-3.51-.71h-.12Z"/><path class="cls-5" d="M96.62,32.49c.41.33,1.21,0,1.33.74.06.36-.39.47-.71.58-.74.23-1.57.63-2.23.11s.21-.69.46-1C95.88,32.84,96.33,32.87,96.62,32.49Z"/><path class="cls-9" d="M86.4,31.82l0,.64c-1.91-.76-4-.92-5.82-2h1.12Z"/><path class="cls-9" d="M80.45,30.49h-1.4a4.88,4.88,0,0,1-2.48-.76C77.94,29.54,79.39,28.89,80.45,30.49Z"/><path class="cls-7" d="M101.46,34.68l0,.47a8.73,8.73,0,0,1-4.16,1.27C98.73,35.21,100.2,35.19,101.46,34.68Z"/><path class="cls-9" d="M91.53,33.84a3.85,3.85,0,0,1-4.43,0c1.1-.84,2.21.06,3.31,0Z"/><path class="cls-14" d="M90.41,33.81c-1.1.05-2.2-.85-3.31,0l-.51-.28-.09-1.06c1.24-.12,2.27.85,3.51.71Z"/><path class="cls-2" d="M94.47,34.83a2.08,2.08,0,0,1-2.8.16c.05-.51.63-.46.78-.82C93.24,34,93.83,34.53,94.47,34.83Z"/><path class="cls-4" d="M96.62,32.49c-.29.38-.75.35-1.15.44C95.69,32.35,96.19,32.52,96.62,32.49Z"/><path class="cls-13" d="M78.15,48.13c1.81,1.52,3.72,3,4.49,5.36-1,.34-2,.73-3,1-.62.16-1.56.32-1.69-.54C77.62,52,77.22,50,78.15,48.13Z"/><path class="cls-10" d="M66.13,40.6c1.2-.7,2.49-.26,3.74-.31C68.64,40.67,67.36,40.29,66.13,40.6Z"/><path class="cls-10" d="M65.13,40.76c0,.09-.06.24-.13.26s-.18-.06-.27-.1.06-.24.13-.26S65,40.72,65.13,40.76Z"/><path class="cls-10" d="M68.28,41.44l-.12-.09s.09-.07.13-.07.08.06.12.09Z"/><path class="cls-10" d="M67.27,34.1l.32-.09C67.54,34.26,67.47,34.42,67.27,34.1Z"/><path class="cls-6" d="M58.91,44.21l.07-.14-.08.13Z"/><path class="cls-6" d="M74.28,31.86c.52,0,1.27.33.78.73-1.07.89.18.67.31.73,1.12.52,2.45.56,3.36,1.54.13.25.37.27.61.27l0,0,.61.68c-.88.17-1.47-.57-2.25-.7-1.28-1.08-3-.91-4.43-1.61C73,32.59,74.26,32.59,74.28,31.86Z"/><path class="cls-2" d="M73.31,33.53c1.42.7,3.15.53,4.42,1.61-.29,0-.59,0-.74.35l-4.71-1.39v-.58Z"/><path class="cls-3" d="M104.5,39.82c.2-1.07.88-1.22,1.67-.73a1.09,1.09,0,0,0,1.34.07,11.15,11.15,0,0,1,2.14,3.42.84.84,0,0,1-.82.61C107.91,41.41,106.21,40.61,104.5,39.82Z"/><path class="cls-6" d="M94.21,55.13A6.11,6.11,0,0,1,94.7,59c-.65-.17-.77-.74-.94-1.27A40.93,40.93,0,0,0,85.7,43.28a2.63,2.63,0,0,1-.31-.76c1.31-1.49,3.29-1.33,4.92-2a34.58,34.58,0,0,1,.47,6.57,3,3,0,0,0,.95,2.52Z"/><path class="cls-16" d="M77,35.49c.15-.32.45-.32.74-.35.78.13,1.38.87,2.25.7h0a.78.78,0,0,0,.74.68l1.62,1h0a2.25,2.25,0,0,0,3-.68h0c.43.17.81.18,1-.34h0c.7.14,1.35.12,1.69-.67h0c1,.18,2.17-.6,3.36.46-2.94,1-5.53,2.54-8.55,3A28,28,0,0,0,77,35.49Z"/><path class="cls-9" d="M95.79,69.35h.88L96.46,73l-1.94,6.19-.15-.87q.06-6.28.13-12.56a4.05,4.05,0,0,1,.29-2.13c1.38.23.93,1.27.93,2.1-.32,0-.57.09-.58.43,0,2.29,0,4.57,0,6.86C95.74,71.84,95.16,70.51,95.79,69.35Z"/><path class="cls-12" d="M96.46,73l.21-3.66c.26-3.54-.48-7-1.05-10.43-.19-1.12-.76-2.34.45-3.29l0,.65A36.59,36.59,0,0,1,97.38,73a1,1,0,0,0-.27.16Z"/><path class="cls-7" d="M97.38,73a36.59,36.59,0,0,0-1.29-16.69c1,.31.77,1.42,1.32,2a43.74,43.74,0,0,1,1.07,10L97.81,73Z"/><path class="cls-6" d="M96.21,55.55A8.42,8.42,0,0,1,95.54,51l1.52-.45A7.39,7.39,0,0,1,96.21,55.55Z"/><path class="cls-12" d="M104.92,66.68a2.25,2.25,0,0,1,1.21,2.26c-.07.47-.19.88-.73,1-.38.06-.82.13-1.1-.18s0-.72.14-1.07c.87-2.38-1.19-1-1.83-1.41a1.55,1.55,0,0,1,.45-2.38C104.17,64.55,104.69,65.65,104.92,66.68Z"/><path class="cls-14" d="M97.55,77.31c-.24-.67-.7-1.37.21-1.92l1.45-1.3,1.41-1,0,0,.22.53-.48.93A2,2,0,0,0,99,77l.06.06A1.76,1.76,0,0,0,97.55,77.31Z"/><path class="cls-7" d="M99.2,74.09l-1.45,1.3A5.94,5.94,0,0,1,98.06,73c.21-.72.44-1.42,1.41-1.33h0C99.59,72.52,98.19,73.17,99.2,74.09Z"/><path class="cls-7" d="M100.64,73.13l0,0a2.07,2.07,0,0,1-.46-1.41l.07-.15-.09.14h-.67c.4-.5.81-1.37,1.53-.72S101.27,72.49,100.64,73.13Z"/><path class="cls-3" d="M100.38,74.59l.48-.93.58-.34.09.09c-.55,1-.12,2.31-1.21,3.13C100,75.83,100.73,75.23,100.38,74.59Z"/><path class="cls-3" d="M101.44,73.32l.21-.11-.11.21Z"/><path class="cls-3" d="M110.8,47.67c-.38-.12-.67-.3-.51-.78C110.77,47,110.88,47.25,110.8,47.67Z"/><path class="cls-3" d="M110.17,45.93l-.2-.36Z"/><path class="cls-7" d="M99.53,41.43l.22,0,.16.29c.52.89,1,1.84.24,2.76s-1.8.41-2.74.15L97,44.16l.58-.72c1.45.31,1.87-.16,1.14-1.5A.85.85,0,0,0,99.53,41.43Z"/><path class="cls-9" d="M97.55,77.31a1.76,1.76,0,0,1,1.55-.3c.15.63-.41.92-.65,1.36C97.86,78.26,96.52,78.79,97.55,77.31Z"/><path class="cls-5" d="M99.53,41.43a.85.85,0,0,1-.76.51c-.55-.4-1.16-1.19-1.81-.44s0,1.33.54,1.84l.12.11-.58.72-.08,0h-.08l-.65-.71L95.79,43q0-1.45,0-2.89A3.43,3.43,0,0,1,99.53,41.43Z"/><path class="cls-13" d="M96.23,43.44l.65.71c-.13,1.76-.62,3.49-.39,5.27l-.36.32a.81.81,0,0,1-.46-.79l-.12-.39a15.57,15.57,0,0,1,.11-4.28c0-.16,0-.32,0-.49l0-.39Z"/><path class="cls-15" d="M91.72,49.59a3,3,0,0,1-.95-2.52,34.58,34.58,0,0,0-.47-6.57c1.07-1,2.58-1.09,3.8-1.77l.16,0,.15-.06.36.15,0,1-.07.39.06,5.41q0,1.65,0,3.3C93.68,48.74,92.76,49.42,91.72,49.59Z"/><path class="cls-14" d="M82.33,36.58c1,.61,1.73-.26,2.62-.49-.38-.43-.9-.7-.94-1.3l1.38-.36.65.15a1.37,1.37,0,0,0,1.58.6c.57-.07.64.18.45.64h0a1.57,1.57,0,0,0-1.69.67h0a.67.67,0,0,0-1,.34h0c-1.09-.14-2,.67-3,.68h0Z"/><path class="cls-6" d="M94.83,39.82l0-1,.25,0C95.11,39.17,95.17,39.54,94.83,39.82Z"/><path class="cls-6" d="M94.43,38.69l-.15.06-.16,0C94.2,38.59,94.3,38.56,94.43,38.69Z"/><path class="cls-4" d="M85.38,34.43,84,34.79l-1.12-.93C83.82,33.56,84.8,33.11,85.38,34.43Z"/><path class="cls-9" d="M82.33,36.58l0,.9-1.62-1-.11-.66.09-.1A2.08,2.08,0,0,1,82.33,36.58Z"/><path class="cls-4" d="M82.22,33.79l-2.34-.47C80.66,32.68,81.32,32.77,82.22,33.79Z"/><path class="cls-9" d="M80,35.84l-.61-.68a1.35,1.35,0,0,1,1.36.6l-.09.1-.64,0Z"/><path class="cls-9" d="M79.34,35.13c-.24,0-.48,0-.61-.27C79.12,34.54,79.2,34.89,79.34,35.13Z"/><path class="cls-14" d="M91.72,49.59c1-.17,2-.85,3.07-.68,0,.48.23,1.09-.37,1.32-1.12.44-.88,1.23-.39,1.83a2.62,2.62,0,0,1,.18,3.06Z"/><path class="cls-8" d="M95.79,69.35c-.63,1.16-.05,2.49-.66,3.69,0-2.29,0-4.57,0-6.86,0-.33.26-.45.58-.43Q95.76,67.55,95.79,69.35Z"/><path class="cls-14" d="M94.83,45.62l-.06-5.41A10.89,10.89,0,0,1,94.83,45.62Z"/><path class="cls-12" d="M96.23,43.44l-.54,0,.1-.39Z"/><path class="cls-12" d="M95.65,43.8c0,.16,0,.32,0,.49A.29.29,0,0,1,95.65,43.8Z"/><path class="cls-12" d="M95.53,48.56l.12.39Z"/><path class="cls-4" d="M82.36,37.49c1.06,0,1.93-.81,3-.68A2.25,2.25,0,0,1,82.36,37.49Z"/><path class="cls-4" d="M86.38,36.48a1.57,1.57,0,0,1,1.69-.67C87.73,36.6,87.09,36.61,86.38,36.48Z"/><path class="cls-4" d="M85.38,36.82a.67.67,0,0,1,1-.34C86.19,37,85.81,37,85.38,36.82Z"/><path class="cls-6" d="M80,35.84l.64,0,.11.66A.78.78,0,0,1,80,35.84Z"/><path class="cls-9" d="M99.47,71.7h.66l0,0a2.07,2.07,0,0,0,.46,1.41l-1.41,1C98.19,73.17,99.59,72.52,99.47,71.7Z"/><path class="cls-9" d="M100.13,71.69l.09-.14-.07.15Z"/><path class="cls-9" d="M97.63,43.44l-.12-.11c-.58-.5-1.09-1.2-.54-1.84s1.26,0,1.81.44C99.49,43.28,99.07,43.75,97.63,43.44Z"/></svg>