<?xml version="1.0" encoding="utf-8"?>
<!-- Generator: Adobe Illustrator 22.0.0, SVG Export Plug-In . SVG Version: 6.00 Build 0)  -->
<svg version="1.1" id="圖層_1" xmlns="http://www.w3.org/2000/svg" xmlns:xlink="http://www.w3.org/1999/xlink" x="0px" y="0px"
	 viewBox="0 0 240 60" style="enable-background:new 0 0 240 60;" xml:space="preserve">
<style type="text/css">
	.st0{fill:#9E5B41;}
</style>
<path class="st0" d="M64.1,47.4L64.1,47.4c-1.1,0-2.9-0.2-4.5-1.5c-1.5-1.3-2.8-3.6-2.8-7.7l0,0l0,0l0,0l0,0c0-2.7,0.6-5.7,2.1-8
	s3.8-4,7.2-4l0,0l0,0c2.2,0,4,0.9,5.2,2.5s1.8,3.9,1.8,6.7l0,0l0,0l0,0l0,0c0,3.6-0.9,6.5-2.5,8.6C69.1,46.1,66.9,47.4,64.1,47.4
	L64.1,47.4z M89.1,40.3L89.1,40.3L89.1,40.3v0.2v0.3v0.1l0,0c-0.1,0.3-0.2,0.5-0.3,0.8c-0.1,0.3-0.3,0.6-0.4,0.9
	c-0.9,1.5-2.3,2.9-4.1,3.8l0,0l0,0c-0.6,0.3-1.1,0.5-1.7,0.7s-1.1,0.3-1.7,0.4C78,47.9,75.4,47,74.4,45l0,0l0,0
	c-0.7-1.4-0.6-3.1,0.3-4.7c0.8-1.6,2.3-3,4.3-4.1l0,0l0,0c0.5-0.2,0.9-0.5,1.4-0.6c0.5-0.2,0.9-0.3,1.4-0.4c2.2-0.5,4.3-0.1,5.7,1
	l3.3-19.6l0,0v-0.2l0.9-5.7l0.1-0.5l0.3,0.3c5.1,4.4,5.8,4.9,6.3,5.3c0.4,0.3,0.7,0.6,2.8,2.3l0,0l0,0c0.2,0.1,0.3,0.2,0.5,0.3
	c0.2,0.1,0.3,0.2,0.4,0.3c0.7,0.5,1.3,0.8,1.7,1c0.6,0.2,1.3,0.3,2,0.1c0.7-0.1,1.5-0.5,2.2-1l0,0l0,0c0.2-0.1,0.3-0.2,0.5-0.4l0,0
	c0.2-0.1,0.3-0.3,0.5-0.4c0.8-0.8,1.7-1.8,2.7-3.2l0.4-0.6v0.7l0.1,1.5v0.1v0.1l0,0c-0.2,0.3-0.4,0.6-0.6,0.9s-0.4,0.6-0.6,0.8
	c-1.1,1.3-2.2,2.2-3.4,2.8l0,0l0,0c-0.3,0.1-0.6,0.3-0.9,0.4s-0.6,0.2-0.9,0.2c-1.5,0.3-3.1,0.2-4.8-0.4c-0.2-0.1-0.5-0.2-0.8-0.3
	c-0.3-0.1-0.6-0.3-1-0.4c-1.8-0.8-4.3-1.9-6.3-3L89.1,40.3z M165.1,47h-5.6h-0.3v-0.3l2.3-26.8h-3.1h-0.3v-0.3l0.2-2.3v-0.2h0.2h5.9
	h0.3v0.3l-2.4,26.8h2.9h0.3v0.3l-0.2,2.3V47H165.1L165.1,47z M142.4,47.3c-1.9,0-2.9-1-3.4-2.2c-0.5-1.1-0.5-2.4-0.5-3l0,0l0,0
	c0-1.5,0.3-4.6,0.7-7.6c0.2-1.5,0.4-3,0.5-4.3l0.1-0.9H137h-0.3V29l0.2-2.3v-0.2h0.2h5.8h0.3v0.3l-0.1,0.4c-0.2,1.4-0.6,4.3-1,7.1
	c-0.4,2.9-0.7,5.9-0.7,7.7c0,1,0.2,1.6,0.4,1.9c0.2,0.3,0.5,0.3,0.8,0.3l0,0c0.5,0,1.2-0.2,2-0.9l0,0c0.4-0.3,0.7-0.6,1.1-1.1
	c2-2.3,4.2-6.8,5.3-15.3v-0.3v-0.2h0.2h2.5h0.3v0.3l-0.1,0.4l0,0c0,0.3-0.1,0.6-0.1,0.9s-0.1,0.7-0.1,1c-0.2,1.8-0.5,4-0.7,6.4l0,0
	l-0.8,8.6h3.1h0.3v0.3l-0.2,2.3v0.2h-0.2h-5.9H149v-0.3l0.6-5.5c-0.2,0.4-0.5,0.9-0.8,1.3C147.7,45,145.4,47.3,142.4,47.3
	 M197.3,51.2c-0.5,0-1-0.1-1.6-0.2c-0.6-0.1-1.2-0.3-1.9-0.5l-0.3-0.1l-0.2-0.1v-0.2l0.2-2.3v-0.3l0.3,0.1l0.4,0.1
	c0.6,0.2,1.1,0.4,1.6,0.5s0.9,0.1,1.2,0.1c1.8,0,3.1-0.6,3.9-2.3c0.9-1.7,1.4-4.6,1.7-9.1l0,0l0.7-7.7h-2.7h-0.3v-0.3l0.2-2.3v-0.2
	h0.2h2.7c0.2-2.9,0.8-5.3,2.1-7c1.4-1.8,3.6-2.8,7-2.8l0,0c0.4,0,1.1,0.1,1.8,0.2c0.1,0,0.2,0,0.3,0c0.6,0.1,1.1,0.2,1.3,0.4
	l0.2,0.1l0.1,0.1v0.1l-0.2,2.3v0.3l-0.3-0.1l-0.4-0.2l0,0l0,0c-0.1,0-0.2-0.1-0.3-0.1s-0.2-0.1-0.4-0.1c-0.7-0.2-1.5-0.2-1.9-0.2
	c-2.5,0-4,0.7-4.8,1.9c-0.8,1.2-1.1,3-1.2,5.1h5.2h0.3v0.3L212,29v0.2h-0.2h-5.3L206,37c-0.3,4-0.7,7.5-1.9,10.1
	C202.9,49.7,200.9,51.2,197.3,51.2 M121.3,51.2c-0.5,0-1-0.1-1.6-0.2c-0.6-0.1-1.2-0.3-1.9-0.5l-0.3-0.1l-0.2-0.1v-0.2l0.2-2.3v-0.3
	l0.3,0.1l0.4,0.1c0.6,0.2,1.1,0.4,1.6,0.5s0.9,0.1,1.2,0.1c1.8,0,3.1-0.6,3.9-2.3c0.9-1.7,1.4-4.6,1.7-9.1l0,0l0.7-7.7h-2.7h-0.3
	v-0.3l0.2-2.3v-0.2h0.2h2.7c0.2-2.9,0.8-5.3,2.1-7c1.4-1.8,3.6-2.8,7-2.8c0.4,0,1.1,0.1,1.8,0.2c0.1,0,0.2,0,0.3,0
	c0.6,0.1,1.1,0.2,1.3,0.4l0.2,0.1l0.1,0.1v0.1l-0.2,2.3v0.3l-0.3-0.1l-0.4-0.2l0,0l0,0c-0.1,0-0.2-0.1-0.3-0.1s-0.3-0.1-0.4-0.1
	c-0.7-0.2-1.5-0.2-2-0.2l0,0c-2.5,0-4,0.7-4.8,1.9c-0.8,1.2-1.1,3-1.2,5.1h5.2h0.3v0.3l-0.2,2.3v0.2h-0.2h-5.3L130,37
	c-0.3,4-0.7,7.5-1.9,10.1C126.9,49.7,124.9,51.2,121.3,51.2 M114.1,47h-2.5h-0.3v-0.3v-0.4l0,0c0-0.4,0.1-0.8,0.1-1.2V45l0,0
	c0.2-1.9,0.5-4.8,0.8-8.6l0,0l0.5-6.9H110h-0.3v-0.3l0.2-2.3v-0.2h0.2h5.6h0.3V27l-0.4,3.4c0.4-0.8,0.9-1.6,1.6-2.2
	c1.1-1.1,2.5-1.8,4.5-1.8l0,0c0.3,0,0.5,0,0.8,0.1h0.1l0,0c0.2,0,0.4,0.1,0.6,0.1l0.3,0.1l0.2,0.1V27l-0.4,2.5v0.3l-0.3-0.1
	l-0.4-0.1c-0.2,0-0.3-0.1-0.5-0.1s-0.3,0-0.6,0c-5.6,0-6.8,12.7-7.2,16.9l0,0L114.1,47l0.1,0.3h-0.1V47z M100.2,47.3
	c-3.2,0-5-1.3-6-3S93,40.5,93,38.6l0,0c0-3.1,0.7-6.2,2.3-8.6c1.6-2.4,4-4,7.3-4l0,0l0,0c1.6,0,2.9,0.5,3.8,1.3s1.4,2,1.4,3.4l0,0
	l0,0c0,0.9-0.2,1.7-0.5,2.4s-0.8,1.3-1.3,1.9c-2.6,2.7-7.5,3.7-9.9,4.1c0,1,0.1,2.2,0.6,3.3s1.6,1.9,3.6,1.9c0.9,0,1.8-0.2,2.6-0.5
	c0.9-0.3,1.7-0.7,2.4-1.1l0.6-0.3l0.4-0.2v0.5l-0.2,2.7v0.1l-0.1,0.1l-0.1,0.1c-0.6,0.4-1.4,0.8-2.4,1.1
	C102.7,47.1,101.5,47.3,100.2,47.3 M102.3,29L102.3,29c-0.5,0-0.9,0.1-1.3,0.2s-0.8,0.3-1.2,0.5c-1.9,1.1-3.2,3.5-3.5,6.8
	c0.6-0.1,1.2-0.2,1.8-0.3c0.7-0.1,1.3-0.3,1.9-0.5c2.9-1,4.8-2.7,4.8-4.6l0,0c0-0.2,0-0.7-0.4-1.2C104.1,29.4,103.5,29,102.3,29
	L102.3,29L102.3,29L102.3,29L102.3,29z M29.8,47H27h-0.2h-0.1v-0.1v-0.2l-3.8-15.2l-6.5,15.3L16.3,47l0,0h-0.1H16h-2.8H13h-0.1v-0.1
	v-0.2l-6-24.3h-3H3.7H3.6v-0.1V22l0.2-2.3v-0.2v-0.1h0.1h0.2h8.3h0.3h0.1v0.1v0.3l-0.2,2.3v0.2v0.1h-0.1h-0.2h-2L15,42.2l0,0l0,0
	l0,0l0,0l6.5-15.4l-1-4.2h-2.9h-0.3h-0.1v-0.1v-0.3l0.2-2.3v-0.2v-0.1h0.1h0.2h8.2h0.3h0.1v0.1V20l-0.2,2.3v0.2v0.1H26h-0.2h-2
	l4.8,19.1l0,0l0,0v0.1v0.1v0.2V42c0-0.1,0.1-0.2,0.1-0.4l0,0l0,0l6.9-19H33h-0.3h-0.1v-0.1v-0.3l0.2-2.3v-0.2v-0.1h0.1h0.2h8.4h0.3
	h0.1v0.1V20l-0.2,2.3v0.2v0.1h-0.1h-0.2h-2.5L29.8,47H30l0,0l0,0H29.8z M218.6,47.3c-3.2,0-5-1.3-6-3s-1.2-3.8-1.2-5.7l0,0
	c0-3.1,0.7-6.2,2.3-8.6s4-4,7.4-4l0,0c1.6,0,2.9,0.5,3.8,1.3c0.9,0.8,1.4,2,1.4,3.4l0,0l0,0c0,0.9-0.2,1.7-0.5,2.4s-0.8,1.4-1.3,1.9
	c-2.6,2.7-7.6,3.7-9.9,4.1c0,1,0.1,2.2,0.6,3.3c0.6,1.1,1.6,1.9,3.7,1.9c0.9,0,1.8-0.2,2.6-0.5c0.9-0.3,1.7-0.7,2.4-1.1l0.6-0.3
	l0.4-0.2v0.5l-0.2,2.7v0.1l-0.1,0.1l-0.1,0.1l0,0c-0.2,0.1-0.4,0.2-0.6,0.3c-0.2,0.1-0.4,0.2-0.6,0.3
	C222,46.9,220.4,47.3,218.6,47.3 M220.7,29L220.7,29L220.7,29c-0.5,0-1,0.1-1.5,0.2c-0.4,0.1-0.9,0.3-1.2,0.6
	c-1.9,1.3-3,3.9-3.4,6.6c0.6-0.1,1.2-0.2,1.8-0.3c0.7-0.1,1.3-0.3,1.9-0.5c3-1,4.8-2.7,4.8-4.6l0,0c0-0.2,0-0.7-0.4-1.2
	C222.5,29.4,221.8,29,220.7,29L220.7,29L220.7,29z M195.5,47h-5.7h-0.3v-0.3l1.6-17.3h-2.9H188v-0.3l0.2-2.3v-0.2h0.2h5.6h0.3v0.3
	l-1.6,17.3h2.9h0.3v0.3l-0.2,2.3V47H195.5L195.5,47z M193.1,21.4L193.1,21.4L193.1,21.4c-0.6,0-1.1-0.2-1.5-0.6s-0.6-0.9-0.6-1.6
	l0,0c0-0.8,0.3-1.5,0.7-1.9s1-0.6,1.6-0.7l0,0c0.6,0,1.2,0.2,1.5,0.7c0.4,0.4,0.6,1,0.6,1.6l0,0l0,0c0,0.7-0.3,1.3-0.7,1.7
	C194.4,21.2,193.8,21.4,193.1,21.4L193.1,21.4L193.1,21.4L193.1,21.4z M185.2,47h-5.6h-0.3v-0.3l2.4-26.8h-3.2h-0.3v-0.3l0.2-2.3
	v-0.2h0.2h5.9h0.3v0.3l-2.4,26.8h2.9h0.3v0.3l-0.2,2.3V47H185.2L185.2,47z M46.2,47.3L46.2,47.3c-1.1,0-2.9-0.2-4.5-1.5
	c-1.5-1.3-2.8-3.6-2.8-7.7l0,0l0,0l0,0l0,0c0-2.7,0.6-5.7,2.1-8s3.8-4,7.2-4l0,0l0,0c2.2,0,4,0.9,5.2,2.5s1.9,3.9,1.9,6.7l0,0
	c0,3.6-0.9,6.6-2.5,8.6C51.2,46.1,48.9,47.3,46.2,47.3L46.2,47.3L46.2,47.3z M47.9,29L47.9,29L47.9,29c-2.3,0-3.7,1.4-4.6,3.3
	c-0.9,1.9-1.2,4.2-1.2,6l0,0l0,0l0,0l0,0c0,1,0.1,2.5,0.7,3.9c0.6,1.3,1.6,2.3,3.5,2.4l0,0l0,0c2.2,0,3.6-1.2,4.5-2.9s1.3-4,1.3-6.1
	l0,0l0,0c0-2.1-0.4-3.7-1.1-4.9C50.2,29.6,49.2,29,47.9,29L47.9,29L47.9,29z M65.8,29L65.8,29L65.8,29c-2.3,0-3.7,1.4-4.6,3.3
	c-0.9,1.9-1.2,4.2-1.2,6l0,0l0,0c0,1,0.1,2.5,0.7,3.9c0.6,1.3,1.6,2.4,3.5,2.4l0,0l0,0c2.2,0,3.6-1.2,4.5-2.9s1.3-4,1.3-6.1l0,0l0,0
	l0,0c0-2.1-0.4-3.7-1.1-4.9C68.2,29.6,67.2,29,65.8,29L65.8,29z"/>
<path class="st0" d="M227.3,21.2c0-2.4,2-4.4,4.4-4.4s4.4,2,4.4,4.4s-2,4.4-4.4,4.4S227.3,23.7,227.3,21.2 M228.1,21.2
	c0,2,1.6,3.5,3.6,3.6c2,0,3.5-1.6,3.6-3.6c0-2-1.6-3.6-3.6-3.6C229.7,17.7,228.1,19.3,228.1,21.2"/>
<path class="st0" d="M229.9,23.6v-4.5h2c0.4,0,0.7,0,0.9,0.1s0.4,0.2,0.5,0.4c0.1,0.2,0.2,0.4,0.2,0.7c0,0.3-0.1,0.6-0.3,0.8
	c-0.2,0.2-0.5,0.4-0.9,0.4c0.2,0.1,0.3,0.1,0.4,0.2c0.2,0.2,0.3,0.4,0.5,0.6l0.8,1.2h-0.7l-0.6-0.9c-0.2-0.3-0.3-0.5-0.4-0.6
	c-0.1-0.1-0.2-0.2-0.3-0.3c-0.1-0.1-0.2-0.1-0.3-0.1s-0.2,0-0.3,0h-0.7v2L229.9,23.6L229.9,23.6z M230.5,21.1h1.3
	c0.3,0,0.5,0,0.6-0.1c0.2-0.1,0.3-0.1,0.4-0.3c0.1-0.1,0.1-0.3,0.1-0.4c0-0.2-0.1-0.4-0.2-0.5c-0.2-0.1-0.4-0.2-0.7-0.2h-1.4
	L230.5,21.1L230.5,21.1z"/>
</svg>
