<?xml version="1.0" encoding="utf-8"?>
<!-- Generator: Adobe Illustrator 22.0.0, SVG Export Plug-In . SVG Version: 6.00 Build 0)  -->
<svg version="1.1" id="圖層_1" xmlns="http://www.w3.org/2000/svg" xmlns:xlink="http://www.w3.org/1999/xlink" x="0px" y="0px"
	 viewBox="0 0 184.2 85.7" style="enable-background:new 0 0 184.2 85.7;" xml:space="preserve">
<style type="text/css">
	.st0{fill:#6C8B9E;}
</style>
<g>
	<path class="st0" d="M133.1,76.8L133.1,76.8c0,0.7-0.1,1.4-0.4,2V79c-0.3,0.4-0.6,0.8-1.1,1.3c0,0.1-0.1,0.3-0.3,0.4
		c-0.1,0-0.3,0.1-0.4,0.3c-0.7,0.4-1.7,0.7-2.5,0.7v-1.6c0.4,0,0.8,0,1.3-0.1c0.1-0.1,0.1-0.1,0.3-0.1c0.3-0.1,0.6-0.4,0.7-0.7
		c0.3-0.3,0.6-0.6,0.7-1c0.1-0.4,0.3-0.8,0.3-1.4c0-0.4-0.1-0.8-0.3-1.3c0-0.1,0-0.1-0.1-0.3c-0.1-0.3-0.3-0.6-0.6-0.8
		c0-0.1-0.1-0.1-0.3-0.3l-0.1-0.1c-0.6-0.4-1.3-0.6-1.8-0.6V72c0.6,0,1.3,0,1.8,0.3c0.6,0.3,1,0.6,1.7,1c0.4,0.4,0.7,1,0.8,1.7
		C133,75.5,133.1,76.2,133.1,76.8 M128.3,81.7L128.3,81.7c-0.7,0-1.4-0.1-2-0.4h-0.1c-0.4-0.3-0.8-0.6-1.4-1c-0.4-0.4-0.7-0.8-1-1.6
		c-0.1-0.6-0.3-1.3-0.3-2c0-0.6,0.1-1.3,0.3-1.8c0.3-0.6,0.6-1.3,1-1.7c0.4-0.4,1-0.7,1.7-1c0.4-0.3,1-0.3,1.8-0.3v1.4
		c-0.8,0-1.7,0.3-2.4,1c-0.3,0.3-0.4,0.7-0.6,1.3c-0.1,0.3-0.3,0.7-0.3,1.3c0,0.4,0.1,0.8,0.3,1.4c0.1,0.4,0.3,0.7,0.6,1
		c0.3,0.4,0.7,0.6,1,0.8c0.4,0.1,0.8,0.1,1.4,0.1V81.7z"/>
	<polygon class="st0" points="3.9,18.8 21.7,1 24.2,1 18.7,6.4 5.1,20 	"/>
	<path class="st0" d="M22.2,21.7h0.7l-0.7,0.8V21.7z M22.2,31.1v-1.6l0.4-0.3l8.9,8.7h-2.4L22.2,31.1z M4.2,38l16.4-16.4h1.7v0.8
		L6.7,37.8H4.2V38z M22.2,29.5l-0.7,0.7l0.7,0.7V29.5z"/>
	<path class="st0" d="M40.4,11.3L50.9,1h2.4l-5.6,5.4l-7.2,7.3v-2.4H40.4z M40.4,18.2l8,13.5h11.4v1.7H49.3l14.3,24.4h-2L47.3,33.5
		h-6.9v-1.7h6.1l-6.1-10.2C40.4,21.6,40.4,18.2,40.4,18.2z M32.9,18.8l7.5-7.5v2.4l-1.7,1.7l1.7,2.8v3.5l-2.8-5.1l-3,3v12.3h5.9v1.6
		h-5.9v24.4h-1.7v-0.1L18.3,43.1v14.8h-1.7V40.7h1.7L33,55.4L32.9,18.8L32.9,18.8z"/>
	<path class="st0" d="M71.2,47.3c1.4,0,2.5,1,2.5,2.5c0,1.4-1.3,2.5-2.5,2.5v-1.6c0.6,0,1-0.4,1-1s-0.4-1.3-1-1.3V47.3z M71.2,47.3
		L71.2,47.3v1.4c-0.6,0-1.3,0.6-1.3,1.3c0,0.6,0.6,1,1.3,1v1.6c-1.6,0-2.7-1.3-2.7-2.5C68.5,48.4,69.8,47.3,71.2,47.3"/>
	<polygon class="st0" points="84.3,13.1 96.6,1 118.2,1 118.2,2.7 97.1,2.7 86,13.8 86,57.9 84.3,57.9 	"/>
	<polygon class="st0" points="121,48.7 121,1 122.7,1 122.7,48.3 128.3,57.9 126.4,57.9 	"/>
	<polygon class="st0" points="118.5,14.3 104.9,14.3 104.9,40.2 110.6,40.2 110.6,41.9 104.9,41.9 104.9,56.2 116.6,56.2 
		116.6,52.2 118.3,55.2 118.3,57.9 92.8,57.9 92.8,56.2 103.1,56.2 103.1,41.9 94.6,41.9 94.6,45.7 92.8,45.7 92.8,41.9 92.8,40.2 
		92.8,24 94.6,24 94.6,40.2 103.1,40.2 103.1,14.3 93.1,14.3 93.1,12.6 118.5,12.6 	"/>
	<rect x="97.4" y="24" class="st0" width="15.9" height="1.7"/>
	<rect x="113.5" y="24" class="st0" width="1.7" height="21.7"/>
	<polygon class="st0" points="12.8,48.4 3.3,57.9 5.7,57.9 14,49.5 	"/>
	<polygon class="st0" points="165.6,2.7 149.6,2.7 145.8,6.6 145.8,12.6 165.6,12.6 165.6,14.3 145.8,14.3 145.8,19.3 168.4,19.3 
		168.4,1 170.2,1 170.2,23.4 168.4,23.4 168.4,21 145.8,21 145.8,23.4 144.1,23.4 144.1,21 144.1,19.3 144.1,14.3 144.1,12.6 
		144.1,5.8 148.5,1.4 148.5,1 148.9,1 165.6,1 	"/>
	<path class="st0" d="M157,24h1v5.8h19.2v1.6H157V24z M157,59.8V45.7h0.6H157V44h8.5v1.7h-7.9V60H157V59.8z M157,37.1h11.3v10h1.7
		V35.4h-1.7H157V37.1z M175.2,57.9l-4.9-8.6h2l4.9,8.6H175.2z M156.3,29.6v-5.8h0.6V31h-12.7v-1.6h12.1L156.3,29.6L156.3,29.6z
		 M157,37.1h-8.5v-1.8h8.5V37.1z M157,44h-11.1v-8.7h-1.6V47h1.6v-1.4H157V44z M157,59.8h-1V45.7h1V59.8z M144.3,57.9v-0.4l0.3,0.4
		H144.3z M144.3,31.2h-7.2v-1.6h7.2V31.2z M144.3,35.3V47h-0.1v-1.4v-1.7v-8.7L144.3,35.3L144.3,35.3z M144.3,57.4v0.4h-1.7
		l-4.9-8.6h2L144.3,57.4z"/>
	<path class="st0" d="M157.4,81c0,0.7,0,1.4-0.3,2c-0.1,0.6-0.4,1-0.8,1.6c-0.4,0.4-1,0.7-1.7,0.8c-0.4,0.3-1,0.3-1.8,0.3h-0.3v-1.4
		h0.1c0.6,0,1-0.1,1.6-0.3h0.3c0.3-0.1,0.6-0.3,0.7-0.6c0.1-0.1,0.3-0.3,0.3-0.4c0.1-0.1,0.3-0.4,0.3-0.6c0.1-0.4,0.3-1,0.3-1.8v-2
		V78v-1.3v-2.5v-1.4V72h1.4v4.7v0.1V78v3H157.4z M152.5,81.7h0.4c0.4,0,0.8-0.1,1.3-0.1l0.1-0.1h0.3c0.1-0.1,0.4-0.3,0.7-0.4h-0.1
		v-1.8c-0.1,0.3-0.4,0.4-0.7,0.6l-0.1,0.1h-0.1c-0.1,0.1-0.3,0.1-0.6,0.3H153h-0.4L152.5,81.7L152.5,81.7z M152.5,73.2h0.4
		c0.4,0,0.7,0.1,1.3,0.3c0.3,0.1,0.7,0.4,1,0.7v0.1v-2l-0.1-0.1c-0.1-0.1-0.3-0.1-0.6-0.1c-0.4-0.3-0.8-0.3-1.6-0.3h-0.4L152.5,73.2
		L152.5,73.2z M152.5,85.7h-1v-0.1h-0.1c-0.4,0-0.7-0.1-1.3-0.3l-0.3-0.1l0.1-0.3l0.1-0.6l0.1-0.4l0.4,0.1h0.1v0.1
		c0.3,0,0.6,0.1,0.7,0.1h0.1h0.1h0.1c0.1,0.1,0.3,0.1,0.4,0.1L152.5,85.7L152.5,85.7z M152.5,72v1.4c-0.1,0.1-0.4,0.1-0.7,0.3
		c-0.3,0.1-0.6,0.4-1,0.7c0,0-0.1,0.1-0.1,0.3c-0.1,0-0.1,0.1-0.3,0.3c-0.3,0.4-0.4,1.3-0.4,1.8c0,0.6,0.1,1,0.3,1.4v0.3
		c0.1,0.3,0.4,0.6,0.6,0.8c0.4,0.3,0.7,0.6,1,0.7c0.3,0,0.6,0.1,0.7,0.1v1.6c-0.4-0.1-0.8-0.1-1.4-0.4h-0.3c-0.4-0.3-0.8-0.6-1.3-1
		c-0.4-0.4-0.7-0.8-1.1-1.6c-0.1-0.6-0.3-1.3-0.3-2c0-0.6,0.1-1.4,0.3-1.8c0.3-0.6,0.6-1.3,1.1-1.7c0.1-0.1,0.3-0.3,0.3-0.3
		c0.1-0.1,0.3-0.3,0.4-0.4C150.9,72.3,151.6,72,152.5,72"/>
	<path class="st0" d="M168.5,81.6h-0.7h-0.4v-0.4v-5.1c0-0.4,0-0.7-0.1-1.3c-0.1-0.3-0.3-0.4-0.4-0.7c-0.1-0.1-0.1-0.1-0.3-0.1
		c0-0.1-0.1-0.1-0.1-0.1c-0.3-0.3-0.7-0.4-1.3-0.4c-0.4,0-0.7,0.1-1,0.1c-0.3,0.1-0.4,0.3-0.7,0.6l-0.1,0.1c0,0.1-0.1,0.1-0.1,0.3
		c-0.3,0.4-0.3,0.8-0.3,1.6v5.1v0.4h-0.7h-0.6h-0.4v-0.4V72v-3.5v-0.4h0.4h0.6h0.4v0.4v4.4c0.1-0.1,0.3-0.3,0.6-0.4
		c0.4-0.1,1-0.3,1.8-0.3c0.4,0,0.8,0,1.4,0.3c0.6,0.1,0.8,0.4,1.4,0.7c0.3,0.3,0.6,0.7,0.7,1.3c0.3,0.6,0.3,1.1,0.3,1.7v5.2v0.4
		C168.8,81.6,168.5,81.6,168.5,81.6z"/>
	<path class="st0" d="M176.7,81.6h-1.3c-0.4,0-0.8-0.1-1.3-0.3c-0.1,0-0.1,0-0.3-0.1c-0.3,0-0.4-0.1-0.6-0.4
		c-0.3-0.1-0.4-0.4-0.6-0.8c-0.1-0.3-0.1-0.7-0.1-1.3V70v-0.3h0.3h0.7h0.4V70v2.1h2.5h0.4v0.3v0.7v0.3h-0.4h-2.5v5.2v0.6
		c0.1,0.1,0.1,0.3,0.3,0.4h0.1v0.1c0.3,0.1,0.4,0.1,0.7,0.1h1.4h0.4v0.4v0.6v0.4L176.7,81.6L176.7,81.6z"/>
	<path class="st0" d="M144.6,77.8L144.6,77.8c0,0.4-0.1,1-0.3,1.6c-0.1,0-0.1,0.1-0.1,0.1c-0.1,0.4-0.4,0.7-0.7,1
		c-0.3,0.4-0.7,0.7-1.3,0.8c-0.4,0.1-1,0.3-1.6,0.3s-1-0.1-1.6-0.3c-0.4-0.1-0.8-0.4-1.3-0.8c-0.1,0-0.3-0.1-0.3-0.3
		c-0.1,0-0.1-0.1-0.3-0.3c-0.3-0.6-0.6-1.4-0.6-2.1v-5.5V72h0.4h0.6h0.4v0.3v5.2c0,0.4,0,0.7,0.1,1c0,0,0,0.1,0.1,0.1
		c0,0.3,0.1,0.4,0.4,0.7c0,0,0.1,0.1,0.3,0.3c0.1,0,0.3,0.1,0.4,0.1c0.1,0.1,0.6,0.1,0.8,0.1c0.3,0,0.6,0,0.8-0.1
		c0.3-0.1,0.6-0.3,0.7-0.4v-0.1c0.1,0,0.1,0,0.1-0.1c0.1,0,0.1-0.1,0.1-0.1c0.3-0.4,0.4-0.8,0.4-1.6v-5.2v-0.3h0.3h0.7h0.4v0.3
		L144.6,77.8L144.6,77.8z"/>
	<path class="st0" d="M119.3,81.6h-0.7h-0.1v-0.4v-5.1v-0.3c0-0.3-0.1-0.6-0.1-1l-0.1-0.1c-0.1-0.1-0.3-0.4-0.4-0.6
		c0-0.1-0.1-0.1-0.1-0.1c-0.1-0.1-0.1-0.1-0.3-0.1c-0.3-0.3-0.7-0.4-1.3-0.4c-0.3,0-0.6,0.1-0.8,0.1c-0.3,0.1-0.6,0.3-0.7,0.6
		c-0.1,0-0.1,0.1-0.3,0.1c0,0.1,0,0.1-0.1,0.3c-0.1,0.4-0.3,0.8-0.3,1.6v5.1v0.4h-0.4H113h-0.4v-0.4V72v-3.5v-0.4h0.4h0.6h0.4v0.4
		v4.4c0.1-0.1,0.4-0.3,0.6-0.4c0.6-0.1,1.3-0.3,1.8-0.3c0.4,0,1,0,1.6,0.3h0.1c0.4,0.1,0.7,0.4,0.8,0.7c0.4,0.3,0.6,0.7,0.8,1.3
		c0.1,0.6,0.3,1.1,0.3,1.7v5.2v0.4C119.9,81.6,119.3,81.6,119.3,81.6z"/>
	<path class="st0" d="M108,81.6h-1.3c-0.4,0-0.8-0.1-1.3-0.3c-0.1,0-0.3,0-0.4-0.1c-0.1,0-0.3-0.1-0.4-0.4c-0.3-0.1-0.4-0.4-0.6-0.8
		c-0.1-0.3-0.1-0.7-0.1-1.3V70v-0.3h0.3h0.7h0.3V70v2.1h2.7h0.4v0.3v0.7v0.3h-0.4h-2.7v5.2c0,0.1,0,0.4,0.1,0.6
		c0,0.1,0.1,0.3,0.3,0.4l0.1,0.1c0.1,0.1,0.4,0.1,0.7,0.1h1.4h0.4v0.4v0.6v0.4L108,81.6L108,81.6z"/>
	<path class="st0" d="M32.9,67.7h1.6v13.8h-1.6V67.7z M41.5,72.1L41.5,72.1c0,0.6,0,1.3-0.3,1.8c0,0,0,0.1-0.1,0.1
		c-0.1,0.4-0.4,0.8-0.7,1.3C40,75.6,39.6,75.9,39,76c-0.6,0.3-1,0.3-1.7,0.3h-2v-1.4h2c0.3,0,0.7-0.1,1-0.3h0.1
		c0.3-0.1,0.4-0.3,0.7-0.4c0.1-0.3,0.4-0.6,0.4-0.8c0.1-0.4,0.3-0.7,0.3-1.3c0-0.4-0.1-0.8-0.3-1.3c0-0.4-0.3-0.7-0.4-0.8
		c-0.6-0.6-1.3-0.7-2-0.7h-0.3h-0.7h-0.7h-0.1v-1.6h0.4h0.7h0.7c0.6,0,1,0,1.7,0.3H39c0.4,0.3,0.8,0.4,1.3,0.8
		c0.1,0,0.3,0.1,0.3,0.3c0.1,0.1,0.1,0.3,0.3,0.3C41.3,70.3,41.5,71,41.5,72.1"/>
	<path class="st0" d="M86.6,73.4h-0.7c-0.3,0-0.4,0.1-0.7,0.3c-0.3,0.1-0.6,0.3-0.7,0.6c-0.1,0.1-0.1,0.1-0.1,0.3
		c-0.1,0-0.1,0.1-0.1,0.3c-0.3,0.4-0.4,1-0.4,1.7V81v0.4h-0.6h-0.6h-0.4V81v-4.1v-0.1c0-0.7,0.1-1.7,0.4-2.4c0-0.1,0.1-0.1,0.1-0.3
		c0.3-0.6,0.7-1.3,1.4-1.7c0.1,0,0.1,0,0.3-0.1h0.1C85,72,85.4,72,86,72h0.7h0.4v0.3V73v0.3L86.6,73.4L86.6,73.4z"/>
	<path class="st0" d="M51,74.5L51,74.5c-0.4-0.4-0.7-0.7-1.1-0.8c-0.3-0.1-0.7-0.3-1.3-0.3s-0.7,0.1-1,0.3c-0.4,0.1-0.7,0.4-1.1,0.7
		c-0.1,0-0.1,0.1-0.3,0.3c0,0-0.1,0.1-0.1,0.3c-0.3,0.4-0.4,1.3-0.4,1.8h-0.1c0,0.6,0.1,1.1,0.3,1.4c0,0.1,0,0.1,0.1,0.3
		c0.1,0.3,0.3,0.6,0.6,0.8c0.3,0.3,0.6,0.6,1.1,0.7c0.3,0.1,0.6,0.1,1,0.1h0.7c0,0,0.1,0,0.1-0.1c0.1,0,0.3,0,0.4-0.1
		c0.1,0,0.3-0.1,0.4-0.3c0.1-0.1,0.3-0.3,0.6-0.4V81c-0.3,0.1-0.4,0.3-0.7,0.4H50c-0.1,0-0.1,0.1-0.3,0.1c-0.3,0-0.7,0.1-1.3,0.1
		s-1.3-0.1-1.8-0.4c-0.4-0.1-1-0.4-1.6-1c-0.1,0-0.1-0.1-0.3-0.3c-0.1-0.1-0.1-0.3-0.3-0.4c-0.4-0.7-0.6-1.7-0.6-2.7
		c0-0.6,0-1.4,0.3-1.8c0.1-0.6,0.4-1.3,0.8-1.7c0.4-0.4,0.8-0.7,1.6-1c0.7-0.3,1.3-0.3,1.8-0.3c0.6,0,1.3,0,1.7,0.3h0.1
		c0.1,0.1,0.4,0.1,0.6,0.3L51,74.5L51,74.5z M51.7,72h1.6v9.6h-1.6V72z"/>
	<path class="st0" d="M78.1,78.5c-0.1,0.3-0.3,0.4-0.4,0.7c-0.1,0.4-0.4,0.7-0.7,1.1c-0.4,0.4-1,0.8-1.6,1c-0.6,0.3-1.3,0.4-2,0.4
		c-0.6,0-1.3-0.1-1.8-0.4c-0.6-0.1-1.1-0.6-1.6-1c-0.4-0.4-0.8-0.8-1-1.6c-0.3-0.6-0.3-1.3-0.3-2c0-0.6,0-1.3,0.3-1.8
		c0.1-0.6,0.6-1.3,1-1.7c0.4-0.4,0.8-0.7,1.6-1.1c0.6-0.3,1.3-0.3,1.8-0.3c0.7,0,1.4,0.1,2,0.3c0,0,0.1,0.1,0.3,0.1
		c0.4,0.3,0.7,0.6,1.3,0.8c0.6,0.6,0.8,1.3,1,1.8c0.3,0.7,0.3,1.4,0.3,2.1v0.3H71v-1.6h5.8c-0.1,0-0.1-0.1-0.1-0.1
		c-0.1-0.6-0.4-1-0.7-1.6c-0.1-0.1-0.3-0.1-0.3-0.3c-0.1,0-0.1-0.1-0.3-0.1c-0.4-0.4-1-0.6-1.8-0.6s-1.7,0.3-2.3,1
		c-0.3,0.3-0.6,0.7-0.7,1c-0.3,0.8-0.3,2,0,2.7c0.1,0.4,0.4,0.7,0.7,1c0,0.1,0.1,0.3,0.3,0.3c0,0.1,0.1,0.1,0.3,0.3
		c0.4,0.3,1,0.4,1.7,0.4c0.4,0,0.8,0,1.4-0.1c0-0.1,0.1-0.1,0.1-0.1c0.3-0.1,0.6-0.4,0.8-0.7c0,0,0.1,0,0.1-0.1l0.1-0.1
		c0.1-0.1,0.1-0.3,0.3-0.4L78.1,78.5L78.1,78.5z"/>
	<path class="st0" d="M65.8,76.2c0,0.7-0.1,1.4-0.3,1.8c-0.3,0.6-0.6,1.1-1.1,1.4c0,0.1-0.1,0.3-0.3,0.3C64,79.9,63.8,80,63.7,80
		c-0.6,0.4-1.4,0.6-2.3,0.6h-2V79h2c0.4,0,0.7,0,1-0.1c0.1,0,0.1,0,0.1-0.1c0.3,0,0.6-0.1,0.7-0.4c0.3-0.1,0.4-0.4,0.6-0.8
		c0.1-0.3,0.1-0.7,0.1-1.3c0-0.4,0-0.7-0.1-1.3c-0.1-0.1-0.1-0.1-0.1-0.3c-0.1-0.1-0.3-0.4-0.4-0.6c0,0-0.1-0.1-0.3-0.1l-0.1-0.1
		c-0.4-0.3-0.8-0.4-1.6-0.4H61h-0.7h-0.7h-0.1V72l0.4-0.1h0.8h0.6c0.6,0,1.3,0.1,1.7,0.3c0.1,0.1,0.1,0.1,0.3,0.1
		c0.4,0.1,0.7,0.4,1,0.7c0.1,0.1,0.3,0.3,0.3,0.4c0.1,0,0.3,0.1,0.3,0.3C65.5,74.5,65.8,75.2,65.8,76.2 M58.5,72h-1.6v13.7h1.6V72z"
		/>
	<path class="st0" d="M98.7,81.6L98,79.7v1.8L98.7,81.6L98.7,81.6z M98,77.9V67.5h0.7v12.4L98,77.9z M98,79.7l-5.8-12.3h-0.8v1.7
		L97,81.6h1V79.7z M98,67.6V78l-0.8-2v-8.5L98,67.6L98,67.6z M91.4,81.3V71l0.7,2v8.3H91.4L91.4,81.3z M91.4,67.6h-0.7l0.7,1.7V67.6
		z M91.4,71v10.3h-0.7V69L91.4,71z"/>
</g>
</svg>
